<svg xmlns="http://www.w3.org/2000/svg" xmlns:xlink="http://www.w3.org/1999/xlink" width="506.874" height="530.673" viewBox="0 0 506.874 530.673">
  <defs>
    <clipPath id="clip-path">
      <rect id="Rectángulo_338416" data-name="Rectángulo 338416" width="506.874" height="333.809" fill="none"/>
    </clipPath>
    <clipPath id="clip-path-2">
      <rect id="Rectángulo_338415" data-name="Rectángulo 338415" width="518.118" height="333.809" fill="none"/>
    </clipPath>
    <clipPath id="clip-path-3">
      <rect id="Rectángulo_338487" data-name="Rectángulo 338487" width="443.87" height="424.892" fill="none"/>
    </clipPath>
    <clipPath id="clip-path-4">
      <rect id="Rectángulo_338465" data-name="Rectángulo 338465" width="443.87" height="424.892" fill="#2e0877" stroke="#263238" stroke-width="1.5"/>
    </clipPath>
    <clipPath id="clip-path-7">
      <rect id="Rectángulo_338480" data-name="Rectángulo 338480" width="42.602" height="36.603" transform="translate(25.482 146.911)" fill="none"/>
    </clipPath>
    <clipPath id="clip-path-8">
      <rect id="Rectángulo_338482" data-name="Rectángulo 338482" width="3.321" height="3.308" transform="translate(67.624 414.124)" fill="none"/>
    </clipPath>
    <clipPath id="clip-path-9">
      <rect id="Rectángulo_338483" data-name="Rectángulo 338483" width="42.588" height="4.031" transform="translate(63.856 420.35)" fill="none"/>
    </clipPath>
    <clipPath id="clip-path-10">
      <rect id="Rectángulo_338484" data-name="Rectángulo 338484" width="3.321" height="3.309" transform="translate(50.331 414.375)" fill="none"/>
    </clipPath>
    <clipPath id="clip-path-11">
      <rect id="Rectángulo_338485" data-name="Rectángulo 338485" width="42.588" height="4.031" transform="translate(46.564 420.601)" fill="none"/>
    </clipPath>
    <clipPath id="clip-path-12">
      <rect id="Rectángulo_338204" data-name="Rectángulo 338204" width="189.772" height="289.018" fill="none"/>
    </clipPath>
  </defs>
  <g id="Grupo_970280" data-name="Grupo 970280" transform="translate(-915 -2042.219)">
    <g id="Grupo_970218" data-name="Grupo 970218" transform="translate(904 2042.219)">
      <g id="Grupo_970217" data-name="Grupo 970217" transform="translate(11)" clip-path="url(#clip-path)">
        <rect id="Rectángulo_338382" data-name="Rectángulo 338382" width="396.273" height="308.351" transform="translate(52.495 25.156)" fill="#fff"/>
        <g id="Grupo_970216" data-name="Grupo 970216" transform="translate(-11.244)">
          <g id="Grupo_970215" data-name="Grupo 970215" clip-path="url(#clip-path-2)">
            <path id="Trazado_637484" data-name="Trazado 637484" d="M445.788,327.938c0-2.308-.11-122.216-.277-308.351l.277.277-396.24.058h-.034l.335-.335c-.013,111.145-.024,216.272-.034,308.351l-.3-.3,396.273.3-396.273.3h-.3v-.3c-.01-92.079-.022-197.206-.035-308.351v-.335h.37l396.24.058h.278v.277c-.168,186.135-.275,306.046-.277,308.351" transform="translate(14.225 5.569)" fill="#263238"/>
            <path id="Trazado_637485" data-name="Trazado 637485" d="M134.03,272.187c-.186,0-.335-33.518-.335-74.857s.15-74.863.335-74.863.335,33.512.335,74.863-.15,74.857-.335,74.857" transform="translate(38.672 35.424)" fill="#263238"/>
            <path id="Trazado_637486" data-name="Trazado 637486" d="M267.42,272.187c-.186,0-.335-33.518-.335-74.857s.15-74.863.335-74.863.335,33.512.335,74.863-.15,74.857-.335,74.857" transform="translate(77.256 35.424)" fill="#263238"/>
            <path id="Trazado_637487" data-name="Trazado 637487" d="M179.569,281.539c-.186,0-.335-42.851-.335-95.7,0-52.865.15-95.705.335-95.705s.335,42.841.335,95.705c0,52.847-.15,95.7-.335,95.7" transform="translate(51.844 26.072)" fill="#263238"/>
            <path id="Trazado_637488" data-name="Trazado 637488" d="M87.26,281.539c-.186,0-.335-42.851-.335-95.7,0-52.865.15-95.705.335-95.705s.335,42.841.335,95.705c0,52.847-.15,95.7-.335,95.7" transform="translate(25.143 26.072)" fill="#263238"/>
            <path id="Trazado_637489" data-name="Trazado 637489" d="M319.777,281.539c-.186,0-.335-42.851-.335-95.7,0-52.865.15-95.705.335-95.705s.335,42.841.335,95.705c0,52.847-.15,95.7-.335,95.7" transform="translate(92.4 26.072)" fill="#263238"/>
            <path id="Trazado_637490" data-name="Trazado 637490" d="M219.5,288.179c-.186,0-.335-49.476-.335-110.5,0-61.04.15-110.506.335-110.506s.335,49.466.335,110.506c0,61.019-.15,110.5-.335,110.5" transform="translate(63.395 19.432)" fill="#263238"/>
            <path id="Trazado_637491" data-name="Trazado 637491" d="M135.674,122.782a1.4,1.4,0,1,1-1.4-1.4,1.4,1.4,0,0,1,1.4,1.4" transform="translate(38.432 35.109)" fill="#263238"/>
            <path id="Trazado_637492" data-name="Trazado 637492" d="M181.213,90.451a1.4,1.4,0,1,1-1.4-1.4,1.4,1.4,0,0,1,1.4,1.4" transform="translate(51.604 25.757)" fill="#263238"/>
            <path id="Trazado_637493" data-name="Trazado 637493" d="M180.6,96.166a4.926,4.926,0,1,1,4.926-4.925,4.931,4.931,0,0,1-4.926,4.925m0-9.529a4.6,4.6,0,1,0,4.6,4.6,4.609,4.609,0,0,0-4.6-4.6" transform="translate(50.814 24.967)" fill="#263238"/>
            <path id="Trazado_637494" data-name="Trazado 637494" d="M221.146,67.493a1.4,1.4,0,1,1-1.4-1.4,1.4,1.4,0,0,1,1.4,1.4" transform="translate(63.155 19.117)" fill="#263238"/>
            <path id="Trazado_637495" data-name="Trazado 637495" d="M269.065,123.871a1.4,1.4,0,1,1-1.4-1.4,1.4,1.4,0,0,1,1.4,1.4" transform="translate(77.016 35.424)" fill="#263238"/>
            <path id="Trazado_637496" data-name="Trazado 637496" d="M321.447,90.451a1.4,1.4,0,1,1-1.4-1.4,1.4,1.4,0,0,1,1.4,1.4" transform="translate(92.168 25.757)" fill="#263238"/>
            <path id="Trazado_637497" data-name="Trazado 637497" d="M88.9,91.54a1.4,1.4,0,1,1-1.4-1.4,1.4,1.4,0,0,1,1.4,1.4" transform="translate(24.903 26.072)" fill="#263238"/>
            <path id="Trazado_637498" data-name="Trazado 637498" d="M406.142,150.733a4.957,4.957,0,0,1-1.106.358,23.686,23.686,0,0,0-3.187,1.092,30.71,30.71,0,0,0-10.233,7.766c-3.832,4.148-7.667,9.929-12.484,16.421a79.487,79.487,0,0,1-8.482,9.845,46.987,46.987,0,0,1-5.508,4.554,38.222,38.222,0,0,1-6.632,3.627,37.4,37.4,0,0,1-15.89,2.673,42.8,42.8,0,0,1-8.548-1.07,22.314,22.314,0,0,1-8.272-3.641,26.811,26.811,0,0,1-6.459-6.738c-1.783-2.581-3.384-5.31-4.931-8.09-3.085-5.582-6.29-11.2-9.935-16.844-3.578-5.718-6.895-11.743-10.6-17.668-3.705-5.906-7.777-11.8-12.976-16.741a37.7,37.7,0,0,0-8.715-6.243A28.926,28.926,0,0,0,261.83,117a36.82,36.82,0,0,0-11.019.623,37.208,37.208,0,0,0-10.456,3.968c-6.586,3.741-11.914,9.281-16.348,15.245a169.064,169.064,0,0,0-11.683,18.788A191.458,191.458,0,0,1,201,174.007a90.308,90.308,0,0,1-13.7,15.623c-1.3,1.1-2.582,2.207-3.976,3.163a45.437,45.437,0,0,1-4.211,2.751,36.553,36.553,0,0,1-9.132,3.757,30.247,30.247,0,0,1-4.773.89,16.4,16.4,0,0,1-2.4.141c-.8.008-1.594.059-2.384.03a36.308,36.308,0,0,1-9.143-1.7,61.917,61.917,0,0,1-15.456-8.075c-4.59-3.16-8.788-6.432-12.89-9.386a68.8,68.8,0,0,0-12.24-7.417,40.488,40.488,0,0,0-12.185-3.46,30.03,30.03,0,0,0-10.948.706,18.413,18.413,0,0,0-2.368.763,15.192,15.192,0,0,0-2.212.873,28.44,28.44,0,0,0-3.868,2.144,41.3,41.3,0,0,0-5.82,4.657q-1.1,1.2-2.024,2.219a18.6,18.6,0,0,0-1.624,1.887l-2.049,2.7a5.035,5.035,0,0,1-.758.884,4.9,4.9,0,0,1,.587-1l1.9-2.833a17.714,17.714,0,0,1,1.563-1.969l1.979-2.309a40.277,40.277,0,0,1,5.816-4.891,28.594,28.594,0,0,1,3.931-2.282,15.6,15.6,0,0,1,2.265-.941,18.673,18.673,0,0,1,2.433-.829,30.79,30.79,0,0,1,11.318-.9,41.392,41.392,0,0,1,12.587,3.41,69.541,69.541,0,0,1,12.547,7.429c4.158,2.938,8.376,6.17,12.935,9.258a60.642,60.642,0,0,0,15.091,7.77,34.649,34.649,0,0,0,8.705,1.565c.749.024,1.5-.032,2.256-.043a15.332,15.332,0,0,0,2.267-.143,28.69,28.69,0,0,0,4.512-.865c6.02-1.523,11.588-5.019,16.542-9.354A88.843,88.843,0,0,0,199.432,172.9,191.29,191.29,0,0,0,210.6,154.664a169.711,169.711,0,0,1,11.8-19.023c4.528-6.1,10.032-11.861,16.963-15.8a38.378,38.378,0,0,1,22.669-4.833,30.935,30.935,0,0,1,11.053,3.25,39.641,39.641,0,0,1,9.169,6.583c5.4,5.152,9.526,11.184,13.256,17.16,3.722,6,7.021,12.034,10.54,17.7,3.618,5.642,6.872,11.4,9.907,16.961,3.089,5.482,6.1,11,10.817,14.335a20.7,20.7,0,0,0,7.685,3.431,41.307,41.307,0,0,0,8.223,1.086,36.046,36.046,0,0,0,15.288-2.438,37.071,37.071,0,0,0,6.409-3.427,45.979,45.979,0,0,0,5.39-4.365,79.579,79.579,0,0,0,8.468-9.6c4.87-6.383,8.831-12.147,12.807-16.274a29.878,29.878,0,0,1,10.652-7.608,18.776,18.776,0,0,1,3.294-.917,4.924,4.924,0,0,1,1.153-.157" transform="translate(19.334 33.215)" fill="#e8505b"/>
            <rect id="Rectángulo_338383" data-name="Rectángulo 338383" width="69.094" height="3.845" transform="translate(111 59.769)" fill="#263238"/>
            <rect id="Rectángulo_338384" data-name="Rectángulo 338384" width="34.143" height="3.845" transform="translate(111 68.766)" fill="#263238"/>
            <path id="Trazado_637499" data-name="Trazado 637499" d="M440.009,0H54.881a5.808,5.808,0,0,0-5.808,5.809V25.156H445.818V5.809A5.81,5.81,0,0,0,440.009,0" transform="translate(14.195)" fill="#263238"/>
            <path id="Trazado_637500" data-name="Trazado 637500" d="M66.235,10.739a2.706,2.706,0,1,1-2.706-2.706,2.707,2.707,0,0,1,2.706,2.706" transform="translate(17.594 2.324)" fill="#fff"/>
            <path id="Trazado_637501" data-name="Trazado 637501" d="M75.4,10.739a2.705,2.705,0,1,1-2.706-2.706A2.707,2.707,0,0,1,75.4,10.739" transform="translate(20.244 2.324)" fill="#fff"/>
            <path id="Trazado_637502" data-name="Trazado 637502" d="M84.562,10.739a2.706,2.706,0,1,1-2.706-2.706,2.707,2.707,0,0,1,2.706,2.706" transform="translate(22.895 2.324)" fill="#fff"/>
            <path id="Trazado_637503" data-name="Trazado 637503" d="M158.553,250.322H4.166A4.165,4.165,0,0,1,0,246.157V208.864A4.165,4.165,0,0,1,4.166,204.7H158.553a4.164,4.164,0,0,1,4.164,4.164v37.293a4.164,4.164,0,0,1-4.164,4.164" transform="translate(13.305 51.033)" fill="#e6e6e6"/>
            <path id="Trazado_637504" data-name="Trazado 637504" d="M30.563,231.91a9.915,9.915,0,1,1-1.533-13.938,9.915,9.915,0,0,1,1.533,13.938" transform="translate(17.04 54.241)" fill="#fff"/>
            <path id="Trazado_637505" data-name="Trazado 637505" d="M27.428,220.874c.129.133-2.273,2.686-5.365,5.7q-.677.652-1.31,1.265l-.235.226-.224-.229c-2.412-2.461-4.124-4.362-4.012-4.474s2.011,1.6,4.474,4.012l-.459,0,1.3-1.278c3.093-3.016,5.7-5.353,5.834-5.22" transform="translate(18.013 55.71)" fill="#263238"/>
            <path id="Trazado_637506" data-name="Trazado 637506" d="M134.621,219.875c0,.186-20.685.335-46.194.335s-46.2-.15-46.2-.335,20.68-.335,46.2-.335,46.194.15,46.194.335" transform="translate(25.52 55.326)" fill="#263238"/>
            <path id="Trazado_637507" data-name="Trazado 637507" d="M96.483,226.873c0,.186-11.958.335-26.706.335s-26.708-.15-26.708-.335,11.955-.335,26.708-.335,26.706.15,26.706.335" transform="translate(25.763 57.35)" fill="#263238"/>
            <path id="Trazado_637508" data-name="Trazado 637508" d="M178.18,184.927H24.508a3.373,3.373,0,0,1-3.373-3.373V121.68a3.373,3.373,0,0,1,3.373-3.373H178.18a3.372,3.372,0,0,1,3.373,3.373v59.874a3.372,3.372,0,0,1-3.373,3.373" transform="translate(6.113 34.221)" fill="#e0e0e0"/>
            <path id="Trazado_637509" data-name="Trazado 637509" d="M50.342,136.317a7.479,7.479,0,1,1-7.479-7.479,7.479,7.479,0,0,1,7.479,7.479" transform="translate(10.235 37.267)" fill="#e8505b"/>
            <rect id="Rectángulo_338385" data-name="Rectángulo 338385" width="52.108" height="2.893" transform="translate(68.055 168.418)" fill="#e8505b"/>
            <rect id="Rectángulo_338386" data-name="Rectángulo 338386" width="101.365" height="2.893" transform="translate(68.055 174.993)" fill="#fff"/>
            <path id="Trazado_637510" data-name="Trazado 637510" d="M50.342,154.15a7.479,7.479,0,1,1-7.479-7.478,7.479,7.479,0,0,1,7.479,7.478" transform="translate(10.235 42.426)" fill="#6530ce"/>
            <rect id="Rectángulo_338387" data-name="Rectángulo 338387" width="26.609" height="2.893" transform="translate(68.055 191.409)" fill="#e8505b"/>
            <rect id="Rectángulo_338388" data-name="Rectángulo 338388" width="101.365" height="2.893" transform="translate(68.055 197.983)" fill="#fff"/>
            <path id="Trazado_637511" data-name="Trazado 637511" d="M427.657,156.158H297.1a6.364,6.364,0,0,1-6.365-6.365V43.677a6.365,6.365,0,0,1,6.365-6.365h130.56a6.366,6.366,0,0,1,6.365,6.365V149.793a6.365,6.365,0,0,1-6.365,6.365" transform="translate(84.096 10.793)" fill="#e6e6e6"/>
            <rect id="Rectángulo_338389" data-name="Rectángulo 338389" width="7.725" height="58.316" transform="translate(399.834 95.688)" fill="#2e0877"/>
            <rect id="Rectángulo_338390" data-name="Rectángulo 338390" width="7.725" height="63.047" transform="translate(434.94 90.957)" fill="#6c519f"/>
            <rect id="Rectángulo_338391" data-name="Rectángulo 338391" width="7.725" height="71.053" transform="translate(471.305 82.951)" fill="#9885bc"/>
            <rect id="Rectángulo_338392" data-name="Rectángulo 338392" width="7.725" height="28.395" transform="translate(454.224 125.609)" fill="#9885bc"/>
            <rect id="Rectángulo_338395" data-name="Rectángulo 338395" width="7.725" height="64.562" transform="translate(408.837 89.442)" fill="#6c519f"/>
            <rect id="Rectángulo_338398" data-name="Rectángulo 338398" width="7.725" height="78.089" transform="translate(444.572 75.915)" fill="#472687"/>
            <rect id="Rectángulo_338401" data-name="Rectángulo 338401" width="7.725" height="78.089" transform="translate(491.227 75.915)" fill="#6c519f"/>
            <rect id="Rectángulo_338404" data-name="Rectángulo 338404" width="7.725" height="93.51" transform="translate(481.146 60.494)" fill="#472687"/>
            <rect id="Rectángulo_338407" data-name="Rectángulo 338407" width="7.725" height="40.976" transform="translate(418.286 113.028)" fill="#2e0877"/>
            <path id="Trazado_637512" data-name="Trazado 637512" d="M423.2,122.271c0,.186-27.563.335-61.555.335s-61.561-.15-61.561-.335,27.557-.335,61.561-.335,61.555.15,61.555.335" transform="translate(86.801 35.271)" fill="#263238"/>
            <rect id="Rectángulo_338410" data-name="Rectángulo 338410" width="4.714" height="1.554" transform="translate(383.308 143.631)" fill="#263238"/>
            <rect id="Rectángulo_338411" data-name="Rectángulo 338411" width="4.714" height="1.554" transform="translate(383.308 122.88)" fill="#263238"/>
            <rect id="Rectángulo_338412" data-name="Rectángulo 338412" width="4.714" height="1.554" transform="translate(383.308 83.823)" fill="#263238"/>
            <rect id="Rectángulo_338413" data-name="Rectángulo 338413" width="4.714" height="1.554" transform="translate(383.308 64.197)" fill="#263238"/>
            <rect id="Rectángulo_338414" data-name="Rectángulo 338414" width="4.714" height="1.554" transform="translate(383.547 103.352)" fill="#263238"/>
            <path id="Trazado_637513" data-name="Trazado 637513" d="M305.557,71.028H166.913a4.164,4.164,0,0,1-4.164-4.164V33.985a4.164,4.164,0,0,1,4.164-4.164H305.557a4.165,4.165,0,0,1,4.166,4.164V66.864a4.165,4.165,0,0,1-4.166,4.164" transform="translate(47.076 8.626)" fill="#472687"/>
            <path id="Trazado_637514" data-name="Trazado 637514" d="M190.355,54.4a8.955,8.955,0,1,1-1.385-12.59,8.956,8.956,0,0,1,1.385,12.59" transform="translate(50.45 11.524)" fill="#fff"/>
            <path id="Trazado_637515" data-name="Trazado 637515" d="M183.358,57.793a9.015,9.015,0,1,1,1-.055,9.348,9.348,0,0,1-1,.055m.035-17.914a9.2,9.2,0,0,0-.993.054,8.905,8.905,0,1,0,.993-.054" transform="translate(50.442 11.516)" fill="#263238"/>
            <path id="Trazado_637516" data-name="Trazado 637516" d="M187.524,44.429c.128.133-2.032,2.448-4.824,5.172l-1.184,1.141-.233.227-.226-.229c-2.175-2.227-3.714-3.952-3.6-4.064s1.839,1.426,4.064,3.6l-.458,0c.38-.374.767-.758,1.169-1.155,2.8-2.723,5.163-4.824,5.294-4.692" transform="translate(51.328 12.85)" fill="#2e0877"/>
            <path id="Trazado_637517" data-name="Trazado 637517" d="M284.344,43.535c0,.186-18.683.335-41.724.335s-41.728-.15-41.728-.335,18.679-.335,41.728-.335,41.724.15,41.724.335" transform="translate(58.109 12.496)" fill="#fff"/>
            <path id="Trazado_637518" data-name="Trazado 637518" d="M249.9,49.856c0,.186-10.8.335-24.122.335s-24.125-.15-24.125-.335,10.8-.335,24.125-.335,24.122.15,24.122.335" transform="translate(58.328 14.324)" fill="#fff"/>
          </g>
        </g>
      </g>
    </g>
    <g id="Grupo_970219" data-name="Grupo 970219" transform="translate(915 2148)">
      <g id="Enmascarar_grupo_970278" data-name="Enmascarar grupo 970278" clip-path="url(#clip-path-3)">
        <rect id="Rectángulo_338453" data-name="Rectángulo 338453" width="17.89" height="109.685" transform="translate(161.2 314.734)" fill="#baadd2"/>
        <rect id="Rectángulo_338454" data-name="Rectángulo 338454" width="17.89" height="109.685" transform="translate(387.763 314.99)" fill="#baadd2"/>
        <rect id="Rectángulo_338455" data-name="Rectángulo 338455" width="17.89" height="43.057" transform="translate(425.98 381.618)" fill="#baadd2"/>
        <rect id="Rectángulo_338456" data-name="Rectángulo 338456" width="17.89" height="102.752" transform="translate(11.768 321.667)" fill="#baadd2"/>
        <rect id="Rectángulo_338457" data-name="Rectángulo 338457" width="17.89" height="181.362" transform="translate(49.126 243.057)" fill="#ebebeb"/>
        <rect id="Rectángulo_338458" data-name="Rectángulo 338458" width="17.89" height="64.139" transform="translate(86.484 360.28)" fill="#baadd2"/>
        <rect id="Rectángulo_338459" data-name="Rectángulo 338459" width="17.89" height="189.717" transform="translate(123.842 234.702)" fill="#baadd2"/>
        <rect id="Rectángulo_338460" data-name="Rectángulo 338460" width="17.89" height="173.314" transform="translate(198.557 251.105)" fill="#baadd2"/>
        <rect id="Rectángulo_338461" data-name="Rectángulo 338461" width="17.89" height="128.278" transform="translate(235.915 296.141)" fill="#baadd2"/>
        <rect id="Rectángulo_338462" data-name="Rectángulo 338462" width="17.89" height="191.013" transform="translate(273.272 233.406)" fill="#baadd2"/>
        <rect id="Rectángulo_338463" data-name="Rectángulo 338463" width="17.89" height="223.733" transform="translate(310.63 200.686)" fill="#baadd2"/>
        <rect id="Rectángulo_338464" data-name="Rectángulo 338464" width="17.89" height="158.498" transform="translate(347.989 265.921)" fill="#baadd2"/>
        <g id="Grupo_970252" data-name="Grupo 970252">
          <g id="Grupo_970251" data-name="Grupo 970251" clip-path="url(#clip-path-4)">
            <path id="Trazado_637687" data-name="Trazado 637687" d="M442.588,424.632c0,.144-99.085.26-221.283.26-122.242,0-221.3-.116-221.3-.26s99.063-.26,221.3-.26c122.2,0,221.283.116,221.283.26" fill="#2e0877" stroke="#263238" stroke-width="1.5"/>
          </g>
        </g>
        <g id="Grupo_970257" data-name="Grupo 970257">
          <g id="Grupo_970256" data-name="Grupo 970256" clip-path="url(#clip-path-3)">
            <path id="Trazado_637688" data-name="Trazado 637688" d="M406.641,11.788V209.53a11.549,11.549,0,0,1-11.549,11.549H101.264A11.549,11.549,0,0,1,89.715,209.53V11.787A11.549,11.549,0,0,1,101.264.238H395.091a11.55,11.55,0,0,1,11.55,11.55" fill="#e0e0e0"/>
            <path id="Trazado_637689" data-name="Trazado 637689" d="M406.641,11.788s-.021-.23-.048-.685a10.537,10.537,0,0,0-.308-2.007,11.228,11.228,0,0,0-1.252-3.089,11.462,11.462,0,0,0-3.065-3.417A11.072,11.072,0,0,0,396.6.413a26.949,26.949,0,0,0-3.393-.1L389.5.316,371.746.34,258.623.422,180.505.454,136.986.467,114.228.473l-11.614,0a20.162,20.162,0,0,0-2.889.117,11.329,11.329,0,0,0-2.771.739A11.461,11.461,0,0,0,92.4,4.781,11.152,11.152,0,0,0,90.1,10.05a17.4,17.4,0,0,0-.146,2.937v2.992q0,5.993,0,12.056,0,12.126,0,24.524,0,24.791.006,50.58c0,34.358,0,69.931,0,106.366a12.445,12.445,0,0,0,.484,3.291,12.172,12.172,0,0,0,1.418,3,12.506,12.506,0,0,0,2.226,2.458,11.278,11.278,0,0,0,6.045,2.507c1.092.08,2.236.051,3.362.056h33.57l52.418,0,99.092.015,89.667.025,10.44,0,5.151,0a23.794,23.794,0,0,0,2.532-.077,11.591,11.591,0,0,0,2.431-.558,11.331,11.331,0,0,0,6.871-6.663,12.466,12.466,0,0,0,.756-4.793q0-2.469,0-4.913.009-19.551.017-37.484c.035-47.757.063-86.4.083-113.116.021-13.352.037-23.719.049-30.754.011-3.512.019-6.192.025-8s.027-2.725.027-2.725.018.923.027,2.725.014,4.486.025,8c.012,7.035.028,17.4.049,30.754.02,26.712.048,65.359.083,113.116q.007,17.91.017,37.484,0,2.445,0,4.913a12.871,12.871,0,0,1-.78,4.94,11.74,11.74,0,0,1-7.117,6.91,11.959,11.959,0,0,1-2.52.58,24.036,24.036,0,0,1-2.579.082l-5.151,0-10.44,0-89.667.024-99.092.015-52.418,0H103.51c-1.131-.007-2.248.025-3.412-.059a11.8,11.8,0,0,1-6.325-2.623,12.991,12.991,0,0,1-2.329-2.57,12.677,12.677,0,0,1-1.483-3.142,12.926,12.926,0,0,1-.507-3.441c0-36.435,0-72.008.006-106.366q0-25.767.006-50.58,0-12.4,0-24.524,0-6.063,0-12.056V12.987a17.864,17.864,0,0,1,.154-3.011,11.629,11.629,0,0,1,2.394-5.492A11.93,11.93,0,0,1,96.772.891,11.752,11.752,0,0,1,99.66.122,20.576,20.576,0,0,1,102.614,0l11.614,0,22.758.006,43.519.013,78.118.032L371.746.137,389.5.161,393.2.167a26.715,26.715,0,0,1,3.41.117,11.176,11.176,0,0,1,5.418,2.222,11.5,11.5,0,0,1,3.07,3.461,11.147,11.147,0,0,1,1.236,3.116,10.2,10.2,0,0,1,.283,2.018c.018.457.021.687.021.687" fill="#263238"/>
            <rect id="Rectángulo_338466" data-name="Rectángulo 338466" width="264.671" height="206.914" transform="translate(112.326 8.02)" fill="#fff"/>
            <path id="Trazado_637690" data-name="Trazado 637690" d="M390.715,101.292a8.473,8.473,0,1,1-8.475,8.474,8.474,8.474,0,0,1,8.475-8.474" fill="#263238"/>
            <path id="Trazado_637691" data-name="Trazado 637691" d="M102.343,78.617V142.7a1.215,1.215,0,0,1-1.215,1.215h-1.071a1.215,1.215,0,0,1-1.215-1.215V78.617a1.215,1.215,0,0,1,1.215-1.215h1.071a1.215,1.215,0,0,1,1.215,1.215" fill="#263238"/>
            <rect id="Rectángulo_338467" data-name="Rectángulo 338467" width="24.789" height="207.626" transform="translate(112.325 7.308)" fill="#6530ce"/>
            <path id="Trazado_637692" data-name="Trazado 637692" d="M138.193,118.29h-23.5a2.367,2.367,0,0,1-2.367-2.367V100.014a2.367,2.367,0,0,1,2.367-2.367h23.5Z" fill="#fff"/>
            <path id="Trazado_637693" data-name="Trazado 637693" d="M124.72,37.179h0a4.536,4.536,0,1,1,4.52-4.536,4.528,4.528,0,0,1-4.52,4.536" fill="#fff"/>
            <path id="Trazado_637694" data-name="Trazado 637694" d="M128.481,53.454a16.18,16.18,0,0,1-4.076.26,16.173,16.173,0,0,1-4.076-.26,16.173,16.173,0,0,1,4.076-.26,16.18,16.18,0,0,1,4.076.26" fill="#fff"/>
            <path id="Trazado_637695" data-name="Trazado 637695" d="M129.205,76.432a16.18,16.18,0,0,1-4.076.26,16.173,16.173,0,0,1-4.076-.26,16.173,16.173,0,0,1,4.076-.26,16.18,16.18,0,0,1,4.076.26" fill="#fff"/>
            <path id="Trazado_637696" data-name="Trazado 637696" d="M129.205,134.874a16.179,16.179,0,0,1-4.076.26,16.172,16.172,0,0,1-4.076-.26,16.174,16.174,0,0,1,4.076-.26,16.18,16.18,0,0,1,4.076.26" fill="#fff"/>
            <path id="Trazado_637697" data-name="Trazado 637697" d="M129.205,165.015a16.15,16.15,0,0,1-4.076.261,16.144,16.144,0,0,1-4.076-.261,16.174,16.174,0,0,1,4.076-.26,16.18,16.18,0,0,1,4.076.26" fill="#fff"/>
            <path id="Trazado_637698" data-name="Trazado 637698" d="M129.205,108.271a16.18,16.18,0,0,1-4.076.26,16.174,16.174,0,0,1-4.076-.26,16.173,16.173,0,0,1,4.076-.26,16.179,16.179,0,0,1,4.076.26" fill="#263238"/>
            <path id="Trazado_637699" data-name="Trazado 637699" d="M377,214.934c0-1.794-.085-82.379-.216-207.626l.216.216-264.649.045h-.022l.26-.261c-.01,74.883-.019,145.689-.027,207.626l-.233-.234L377,214.934l-264.671.234h-.234v-.234c-.008-61.937-.017-132.743-.027-207.626v-.26h.283L377,7.093h.216v.215c-.13,125.247-.214,205.833-.216,207.626" fill="#263238"/>
            <rect id="Rectángulo_338468" data-name="Rectángulo 338468" width="3.566" height="11.944" transform="translate(292.871 178.214)" fill="#9885bc"/>
            <path id="Trazado_637833" data-name="Trazado 637833" d="M0,0H3.566V13.674H0Z" transform="translate(263.09 176.483)" fill="#2e0877"/>
            <rect id="Rectángulo_338470" data-name="Rectángulo 338470" width="3.566" height="16.524" transform="translate(270.535 173.633)" fill="#472687"/>
            <rect id="Rectángulo_338471" data-name="Rectángulo 338471" width="3.565" height="15.618" transform="translate(277.981 174.54)" fill="#6c519f"/>
            <rect id="Rectángulo_338472" data-name="Rectángulo 338472" width="3.565" height="20.901" transform="translate(285.427 169.256)" fill="#2e0877"/>
            <rect id="Rectángulo_338473" data-name="Rectángulo 338473" width="3.565" height="20.799" transform="translate(300.317 169.358)" fill="#472687"/>
            <rect id="Rectángulo_338474" data-name="Rectángulo 338474" width="3.565" height="13.968" transform="translate(307.763 176.189)" fill="#6c519f"/>
            <rect id="Rectángulo_338475" data-name="Rectángulo 338475" width="3.566" height="19.883" transform="translate(315.207 170.274)" fill="#2e0877"/>
            <rect id="Rectángulo_338476" data-name="Rectángulo 338476" width="3.565" height="24.362" transform="translate(322.653 165.795)" fill="#6c519f"/>
            <rect id="Rectángulo_338477" data-name="Rectángulo 338477" width="3.565" height="19.985" transform="translate(330.099 170.172)" fill="#2e0877"/>
            <path id="Trazado_637700" data-name="Trazado 637700" d="M341.116,204.968h-87.7a7.249,7.249,0,0,1-7.241-7.24V145.294a7.249,7.249,0,0,1,7.241-7.24h87.7a7.249,7.249,0,0,1,7.241,7.24v52.434a7.249,7.249,0,0,1-7.241,7.24m-87.7-66.2a6.532,6.532,0,0,0-6.526,6.525v52.434a6.532,6.532,0,0,0,6.526,6.524h87.7a6.531,6.531,0,0,0,6.525-6.524V145.294a6.532,6.532,0,0,0-6.525-6.525Z" fill="#e0e0e0"/>
            <path id="Trazado_637701" data-name="Trazado 637701" d="M303.34,155.486c0,.1-10.145.186-22.657.186s-22.659-.083-22.659-.186,10.143-.186,22.659-.186,22.657.083,22.657.186" fill="#e0e0e0"/>
            <path id="Trazado_637702" data-name="Trazado 637702" d="M157.2,138.643V203.4h68.909v-64.76Z" fill="#f5f5f5"/>
            <path id="Trazado_637703" data-name="Trazado 637703" d="M191.346,145.982a21.262,21.262,0,1,0,21.262,21.262,21.261,21.261,0,0,0-21.262-21.262m.321,34a13.061,13.061,0,1,1,13.061-13.061,13.061,13.061,0,0,1-13.061,13.061" fill="#263238"/>
            <path id="Trazado_637704" data-name="Trazado 637704" d="M191.672,145.991c0,2.262,0,5.313,0,7.872a13.066,13.066,0,0,1,12.445,17.021l7.705,2.09a21.252,21.252,0,0,0-20.148-26.983" fill="#0f58b9"/>
            <path id="Trazado_637705" data-name="Trazado 637705" d="M178.606,166.924A13.061,13.061,0,0,1,186.348,155l-3.27-7.345a21.268,21.268,0,0,0-12.993,19.594c0,.3.01.6.022.892h8.557c-.037-.4-.058-.8-.058-1.213" fill="#455a64"/>
            <path id="Trazado_637706" data-name="Trazado 637706" d="M191.667,179.984a13.1,13.1,0,0,1-2.763-.3c-.328,1.9-.949,5.567-1.437,8.458a21.248,21.248,0,0,0,24.354-15.173l-7.706-2.09a13.066,13.066,0,0,1-12.448,9.1" fill="#6530ce"/>
            <path id="Trazado_637708" data-name="Trazado 637708" d="M188.845,167.981h-.787V169h-1.091v-1.015h-2.6v-.752l2.278-3.065h1.174L185.7,167.07H187v-.9h1.056v.9h.787Z" fill="#263238"/>
            <path id="Trazado_637709" data-name="Trazado 637709" d="M189.176,166.579c0-1.594.883-2.5,2.071-2.5s2.07.9,2.07,2.5-.876,2.5-2.07,2.5-2.071-.9-2.071-2.5m3.016,0c0-1.1-.386-1.553-.945-1.553s-.939.456-.939,1.553.386,1.553.939,1.553.945-.455.945-1.553" fill="#263238"/>
            <path id="Trazado_637710" data-name="Trazado 637710" d="M193.778,165.441a1.2,1.2,0,1,1,1.2,1.333,1.2,1.2,0,0,1-1.2-1.333m1.705,0c0-.518-.2-.766-.5-.766s-.5.255-.5.766.207.766.5.766.5-.248.5-.766m2.375-1.277h.821L195.38,169h-.822Zm-.794,3.555a1.2,1.2,0,1,1,1.194,1.332,1.2,1.2,0,0,1-1.194-1.332m1.7,0c0-.511-.2-.766-.5-.766s-.5.248-.5.766.207.766.5.766.5-.255.5-.766" fill="#263238"/>
            <path id="Trazado_637711" data-name="Trazado 637711" d="M208.939,193.871c0,.111-7.878.2-17.593.2s-17.594-.091-17.594-.2,7.876-.2,17.594-.2,17.593.091,17.593.2" fill="#263238"/>
            <path id="Trazado_637712" data-name="Trazado 637712" d="M201.1,197.1c0,.111-4.369.2-9.758.2s-9.758-.091-9.758-.2,4.368-.2,9.758-.2,9.758.091,9.758.2" fill="#263238"/>
            <path id="Trazado_637713" data-name="Trazado 637713" d="M362.361,43.728s-.347.016-1.028.024l-3.025.023-11.69.045-43.483.077-147.724.091.362-.26c0,11.609,0,23.648.007,35.969,0,12.695-.005,25.091-.008,37.061l-.361-.26,146.7.091,43.143.078,11.6.044,3,.023c.675.008,1.02.024,1.02.024s-.345.016-1.02.024l-3,.023-11.6.044-43.143.078-146.7.091h-.362v-.26c0-11.97,0-24.366-.007-37.061,0-12.321,0-24.36.007-35.969v-.26h.362l147.724.091,43.483.077,11.69.045,3.025.023c.681.008,1.028.024,1.028.024" fill="#e0e0e0"/>
            <path id="Trazado_637714" data-name="Trazado 637714" d="M362.361,56.022c0,.146-46.331.265-103.47.265-57.159,0-103.48-.119-103.48-.265s46.321-.265,103.48-.265c57.139,0,103.47.119,103.47.265" fill="#e0e0e0"/>
            <path id="Trazado_637715" data-name="Trazado 637715" d="M362.361,66.082c0,.147-46.331.265-103.47.265-57.159,0-103.48-.118-103.48-.265s46.321-.265,103.48-.265c57.139,0,103.47.119,103.47.265" fill="#e0e0e0"/>
            <path id="Trazado_637716" data-name="Trazado 637716" d="M362.361,76.141c0,.146-46.331.265-103.47.265-57.159,0-103.48-.119-103.48-.265s46.321-.265,103.48-.265c57.139,0,103.47.119,103.47.265" fill="#e0e0e0"/>
            <path id="Trazado_637717" data-name="Trazado 637717" d="M362.361,86.2c0,.146-46.331.265-103.47.265-57.159,0-103.48-.119-103.48-.265s46.321-.265,103.48-.265c57.139,0,103.47.119,103.47.265" fill="#e0e0e0"/>
            <path id="Trazado_637718" data-name="Trazado 637718" d="M362.361,96.26c0,.146-46.331.265-103.47.265-57.159,0-103.48-.119-103.48-.265S201.732,96,258.891,96c57.139,0,103.47.119,103.47.265" fill="#e0e0e0"/>
            <path id="Trazado_637719" data-name="Trazado 637719" d="M155.411,106.319c0-.146,46.331-.265,103.47-.265,57.159,0,103.48.119,103.48.265s-46.321.265-103.48.265c-57.139,0-103.47-.119-103.47-.265" fill="#e0e0e0"/>
            <path id="Trazado_637720" data-name="Trazado 637720" d="M184.745,117.869c-.146,0-.265-16.6-.265-37.069s.119-37.072.265-37.072.265,16.6.265,37.072-.119,37.069-.265,37.069" fill="#e0e0e0"/>
            <path id="Trazado_637721" data-name="Trazado 637721" d="M214.551,117.869c-.146,0-.265-16.6-.265-37.069s.119-37.072.265-37.072.265,16.6.265,37.072-.119,37.069-.265,37.069" fill="#e0e0e0"/>
            <path id="Trazado_637722" data-name="Trazado 637722" d="M244.357,117.869c-.146,0-.265-16.6-.265-37.069s.119-37.072.265-37.072.265,16.6.265,37.072-.119,37.069-.265,37.069" fill="#e0e0e0"/>
            <path id="Trazado_637723" data-name="Trazado 637723" d="M274.162,117.869c-.146,0-.265-16.6-.265-37.069s.119-37.072.265-37.072.265,16.6.265,37.072-.119,37.069-.265,37.069" fill="#e0e0e0"/>
            <path id="Trazado_637724" data-name="Trazado 637724" d="M303.968,117.869c-.146,0-.265-16.6-.265-37.069s.119-37.072.265-37.072.265,16.6.265,37.072-.119,37.069-.265,37.069" fill="#e0e0e0"/>
            <path id="Trazado_637725" data-name="Trazado 637725" d="M332.821,117.869c-.147,0-.265-16.6-.265-37.069s.118-37.072.265-37.072.265,16.6.265,37.072-.119,37.069-.265,37.069" fill="#e0e0e0"/>
            <path id="Trazado_637726" data-name="Trazado 637726" d="M362.626,117.869c-.146,0-.265-16.6-.265-37.069s.119-37.072.265-37.072.265,16.6.265,37.072-.119,37.069-.265,37.069" fill="#e0e0e0"/>
            <path id="Trazado_637727" data-name="Trazado 637727" d="M186.56,106.319a1.814,1.814,0,1,1-1.814-1.814,1.814,1.814,0,0,1,1.814,1.814" fill="#2e0877"/>
            <path id="Trazado_637728" data-name="Trazado 637728" d="M216.365,86.2a1.815,1.815,0,1,1-1.814-1.814,1.814,1.814,0,0,1,1.814,1.814" fill="#2e0877"/>
            <path id="Trazado_637729" data-name="Trazado 637729" d="M246.171,96.087a1.814,1.814,0,1,1-1.814-1.814,1.814,1.814,0,0,1,1.814,1.814" fill="#2e0877"/>
            <path id="Trazado_637730" data-name="Trazado 637730" d="M275.794,74.9a1.881,1.881,0,0,1-2.658,2.658,1.881,1.881,0,0,1,2.658-2.658" fill="#2e0877"/>
            <path id="Trazado_637731" data-name="Trazado 637731" d="M305.941,74.9a1.881,1.881,0,0,1-2.658,2.658,1.881,1.881,0,0,1,2.658-2.658" fill="#2e0877"/>
            <path id="Trazado_637732" data-name="Trazado 637732" d="M334.145,94.647a1.881,1.881,0,0,1-2.658,2.658,1.881,1.881,0,0,1,2.658-2.658" fill="#2e0877"/>
            <path id="Trazado_637733" data-name="Trazado 637733" d="M216.365,66.082a1.815,1.815,0,1,1-1.814-1.814,1.814,1.814,0,0,1,1.814,1.814" fill="#455a64"/>
            <path id="Trazado_637734" data-name="Trazado 637734" d="M186.56,96.26a1.814,1.814,0,1,1-1.814-1.814,1.814,1.814,0,0,1,1.814,1.814" fill="#455a64"/>
            <path id="Trazado_637735" data-name="Trazado 637735" d="M334.15,104.99a1.881,1.881,0,0,1-2.658,2.659,1.881,1.881,0,0,1,2.658-2.659" fill="#455a64"/>
            <path id="Trazado_637736" data-name="Trazado 637736" d="M305.782,86.2a1.814,1.814,0,1,1-1.814-1.814,1.814,1.814,0,0,1,1.814,1.814" fill="#455a64"/>
            <path id="Trazado_637737" data-name="Trazado 637737" d="M276.28,85.936a1.814,1.814,0,1,1-1.814-1.814,1.814,1.814,0,0,1,1.814,1.814" fill="#455a64"/>
            <path id="Trazado_637738" data-name="Trazado 637738" d="M172.3,125.084a15.674,15.674,0,0,1-5.74,0,15.674,15.674,0,0,1,5.74,0" fill="#e0e0e0"/>
            <path id="Trazado_637739" data-name="Trazado 637739" d="M202.764,125.084a15.674,15.674,0,0,1-5.74,0,15.674,15.674,0,0,1,5.74,0" fill="#e0e0e0"/>
            <path id="Trazado_637740" data-name="Trazado 637740" d="M233.229,125.084a15.674,15.674,0,0,1-5.74,0,15.674,15.674,0,0,1,5.74,0" fill="#e0e0e0"/>
            <path id="Trazado_637741" data-name="Trazado 637741" d="M263.693,125.084a15.674,15.674,0,0,1-5.74,0,15.674,15.674,0,0,1,5.74,0" fill="#e0e0e0"/>
            <path id="Trazado_637742" data-name="Trazado 637742" d="M294.158,125.084a15.679,15.679,0,0,1-5.741,0,15.679,15.679,0,0,1,5.741,0" fill="#e0e0e0"/>
            <path id="Trazado_637743" data-name="Trazado 637743" d="M321.4,125.084a15.679,15.679,0,0,1-5.741,0,15.679,15.679,0,0,1,5.741,0" fill="#e0e0e0"/>
            <path id="Trazado_637744" data-name="Trazado 637744" d="M348.642,125.084a15.679,15.679,0,0,1-5.741,0,15.679,15.679,0,0,1,5.741,0" fill="#e0e0e0"/>
            <path id="Trazado_637745" data-name="Trazado 637745" d="M151.107,116.352a10.27,10.27,0,0,1-4.636,0,10.27,10.27,0,0,1,4.636,0" fill="#e0e0e0"/>
            <path id="Trazado_637746" data-name="Trazado 637746" d="M151.107,104.651a10.233,10.233,0,0,1-4.636,0,10.308,10.308,0,0,1,4.636,0" fill="#e0e0e0"/>
            <path id="Trazado_637747" data-name="Trazado 637747" d="M151.107,92.951a10.27,10.27,0,0,1-4.636,0,10.27,10.27,0,0,1,4.636,0" fill="#e0e0e0"/>
            <path id="Trazado_637748" data-name="Trazado 637748" d="M151.107,81.251a10.27,10.27,0,0,1-4.636,0,10.27,10.27,0,0,1,4.636,0" fill="#e0e0e0"/>
            <path id="Trazado_637749" data-name="Trazado 637749" d="M151.107,69.551a10.27,10.27,0,0,1-4.636,0,10.27,10.27,0,0,1,4.636,0" fill="#e0e0e0"/>
            <path id="Trazado_637750" data-name="Trazado 637750" d="M151.107,57.851a10.27,10.27,0,0,1-4.636,0,10.27,10.27,0,0,1,4.636,0" fill="#e0e0e0"/>
            <path id="Trazado_637751" data-name="Trazado 637751" d="M151.107,46.151a10.27,10.27,0,0,1-4.636,0,10.27,10.27,0,0,1,4.636,0" fill="#e0e0e0"/>
            <path id="Trazado_637752" data-name="Trazado 637752" d="M155.215,117.229l-.332-.943,29.635-10.417,29.956-20.22,29.809,9.887,30.032-19.807,30.076-.088.13.092L333.1,95.92l27.684-18.294.551.833L333.076,97.13l-.278-.2L304.074,76.642l-29.459.086L244.43,96.638l-29.8-9.886-29.716,20.039Z" fill="#2e0877"/>
            <path id="Trazado_637753" data-name="Trazado 637753" d="M333.253,106.532,304.079,86.7H274.013L243.929,66.845l-29.171-.261-29.8,30.176H155.412v-1h29.125l29.807-30.18,29.889.268L274.314,85.7h30.074l28.531,19.4,28.5-50.075.869.494Z" fill="#455a64"/>
            <path id="Trazado_637754" data-name="Trazado 637754" d="M362.055,29.1c0,.144-11.238.26-25.1.26s-25.1-.116-25.1-.26,11.236-.26,25.1-.26,25.1.116,25.1.26" fill="#263238"/>
            <path id="Trazado_637755" data-name="Trazado 637755" d="M156.9,28.025h-1.822V26.952h4.961v1.073h-1.822v4.62H156.9Z" fill="#263238"/>
            <path id="Trazado_637756" data-name="Trazado 637756" d="M164.367,32.645l-1.1-1.586h-1.212v1.586H160.74V26.952H163.2c1.521,0,2.473.788,2.473,2.065a1.852,1.852,0,0,1-1.171,1.8l1.276,1.83Zm-1.236-4.62h-1.073v1.984h1.073c.805,0,1.212-.374,1.212-.992s-.407-.992-1.212-.992" fill="#263238"/>
            <path id="Trazado_637757" data-name="Trazado 637757" d="M171.123,31.587v1.057h-4.408V26.951h4.3v1.057h-2.994v1.237h2.643v1.024h-2.643v1.318Z" fill="#263238"/>
            <path id="Trazado_637758" data-name="Trazado 637758" d="M177.391,26.951v5.693H176.31l-2.839-3.457v3.457h-1.3V26.951h1.09l2.831,3.457V26.951Z" fill="#263238"/>
            <path id="Trazado_637759" data-name="Trazado 637759" d="M178.737,26.952h2.587a2.86,2.86,0,1,1,0,5.693h-2.587Zm2.522,4.611a1.768,1.768,0,1,0,0-3.53h-1.2v3.53Z" fill="#263238"/>
          </g>
        </g>
        <g id="Grupo_970277" data-name="Grupo 970277">
          <g id="Grupo_970276" data-name="Grupo 970276" clip-path="url(#clip-path-3)">
            <path id="Trazado_637760" data-name="Trazado 637760" d="M107.526,162.343l-3.516,4.4v-7.563H92.936s-1.231,17.319-.967,21.011,4.394,14.239,4.394,14.239a40.792,40.792,0,0,0,11.163-9.757c4.922-6.328,13.1-21.744,13.1-21.744l-8.529-5.151Z" fill="#ffbe9d"/>
            <path id="Trazado_637761" data-name="Trazado 637761" d="M108.226,161.531a12.578,12.578,0,0,1-1.447,1.932c-.933,1.158-2.228,2.754-3.708,4.48s-2.877,3.245-3.962,4.275a8,8,0,0,1-1.881,1.525,18.652,18.652,0,0,1,1.618-1.783c1.009-1.086,2.352-2.636,3.83-4.356,2.929-3.462,5.424-6.189,5.55-6.073" fill="#eb996e"/>
            <path id="Trazado_637762" data-name="Trazado 637762" d="M107.9,134.032s-3.156-25.844-15.63-28.486L85.8,130.387l5.37,17.916,17.811-2.432Z" fill="#210654"/>
            <path id="Trazado_637763" data-name="Trazado 637763" d="M25.482,151.2l.589,1.847,12.261,38.412S68.546,202.949,79.4,198.4s15.883-11.008,15.883-11.008l-2.423-81.757-17.228-2.61-29.711-2.181-19.9,6.384Z" fill="#2e0877"/>
            <g id="Grupo_970260" data-name="Grupo 970260" opacity="0.3">
              <g id="Grupo_970259" data-name="Grupo 970259">
                <g id="Grupo_970258" data-name="Grupo 970258" clip-path="url(#clip-path-7)">
                  <path id="Trazado_637764" data-name="Trazado 637764" d="M62.981,166.175a127.934,127.934,0,0,1-31.413-19.264l-6.086,3.246c4.573,9.228,8.378,17.652,14.683,25.8a21.475,21.475,0,0,0,8.392,6.736,14.034,14.034,0,0,0,14.1-2.867c3.619-3.371,6.333-13.263,5.144-21.336-2.032.11-2.939,8.466-4.82,7.689"/>
                </g>
              </g>
            </g>
            <path id="Trazado_637765" data-name="Trazado 637765" d="M94.56,142.55a38.855,38.855,0,0,0-2.041-8.149,38.843,38.843,0,0,0-4.226-7.261A8.36,8.36,0,0,1,90,128.966a22.6,22.6,0,0,1,4.508,11.085,8.322,8.322,0,0,1,.052,2.5" fill="#263238"/>
            <path id="Trazado_637766" data-name="Trazado 637766" d="M94.512,81.53a4.432,4.432,0,0,1-4.164-1.859,5.285,5.285,0,0,0,3.2-.177c.968-.494,1.516-1.919.757-2.7-.592-.607-1.568-.5-2.414-.565a5.221,5.221,0,0,1-4.441-3.408c-.716-2.057-.061-4.3.2-6.463a17.8,17.8,0,0,0-7.452-16.428L66.647,42.1C61.734,48.39,60.2,56.865,61.221,64.779S65.6,80.133,69.633,87.017a26.405,26.405,0,0,0,4.087,5.625,10.471,10.471,0,0,0,6.089,3.124,6.28,6.28,0,0,0-1-5.67A13.668,13.668,0,0,0,88.88,86.488q-1.45-1.114-2.9-2.227a10.6,10.6,0,0,0,8.535-2.731" fill="#263238"/>
            <path id="Trazado_637767" data-name="Trazado 637767" d="M42.34,59.433a12.7,12.7,0,0,1,9.212-11.957l16.983-4.852C75.9,41.614,81.1,50.568,81.8,57.975c.773,8.229,1.353,16.919.565,23.1-1.584,12.43-11.016,14.3-11.016,14.3,0-.018.166,5.886.263,9.5l-2.768,16.192L46.449,101.947,42.3,59.584c-.011-.211.027.131.039-.151" fill="#ffbe9d"/>
            <path id="Trazado_637768" data-name="Trazado 637768" d="M79.65,67.428a1.587,1.587,0,0,1-1.481,1.648A1.518,1.518,0,0,1,76.49,67.7a1.587,1.587,0,0,1,1.479-1.648,1.518,1.518,0,0,1,1.681,1.38" fill="#263238"/>
            <path id="Trazado_637769" data-name="Trazado 637769" d="M80.079,62.875c-.19.213-1.42-.639-3.126-.582-1.707.032-2.932.949-3.124.746-.094-.09.1-.47.628-.884A4.354,4.354,0,0,1,76.95,61.3a4.179,4.179,0,0,1,2.5.722c.538.387.727.755.633.851" fill="#263238"/>
            <path id="Trazado_637770" data-name="Trazado 637770" d="M64.7,67.448A1.587,1.587,0,0,1,63.219,69.1a1.518,1.518,0,0,1-1.679-1.38,1.589,1.589,0,0,1,1.479-1.648A1.519,1.519,0,0,1,64.7,67.448" fill="#263238"/>
            <path id="Trazado_637771" data-name="Trazado 637771" d="M63.866,63.338c-.191.213-1.422-.639-3.128-.582-1.7.032-2.931.949-3.123.746-.093-.09.094-.47.629-.884a4.354,4.354,0,0,1,2.492-.853,4.182,4.182,0,0,1,2.5.722c.536.386.726.755.633.851" fill="#263238"/>
            <path id="Trazado_637772" data-name="Trazado 637772" d="M69.586,76.594a11.331,11.331,0,0,1,2.757-.585c.435-.059.845-.158.909-.458a2.22,2.22,0,0,0-.331-1.283l-1.391-3.28c-1.935-4.671-3.351-8.517-3.162-8.593s1.911,3.648,3.846,8.319q.7,1.728,1.338,3.3a2.528,2.528,0,0,1,.279,1.7,1.094,1.094,0,0,1-.7.659,2.977,2.977,0,0,1-.738.126,11.108,11.108,0,0,1-2.81.09" fill="#263238"/>
            <path id="Trazado_637773" data-name="Trazado 637773" d="M54.813,91.439s4.269,8.382,16.614,6.844l-.08-2.91a31.18,31.18,0,0,1-16.534-3.934" fill="#eb996e"/>
            <path id="Trazado_637774" data-name="Trazado 637774" d="M63.154,57.184c-.154.469-1.865.3-3.86.605-2,.263-3.6.9-3.878.49-.125-.195.144-.641.783-1.11a6.791,6.791,0,0,1,5.9-.835c.744.274,1.126.627,1.06.85" fill="#263238"/>
            <path id="Trazado_637775" data-name="Trazado 637775" d="M79.373,57.669c-.288.4-1.477.031-2.891.055-1.416-.025-2.6.341-2.892-.056-.127-.193.05-.587.562-.971a4.184,4.184,0,0,1,4.659,0c.513.384.689.777.562.971" fill="#263238"/>
            <path id="Trazado_637776" data-name="Trazado 637776" d="M63.182,79.927a2.228,2.228,0,0,1,2.254-1.756,2.329,2.329,0,0,1,1.827,1.222,2.863,2.863,0,0,1,.165,2.225l-.031.162a2.543,2.543,0,0,1-2.838.689,2.374,2.374,0,0,1-1.377-2.542" fill="#eb996e"/>
            <path id="Trazado_637777" data-name="Trazado 637777" d="M68.635,81.779c-.005-.259-1.729-.128-3.068-1.507s-1.294-3.23-1.536-3.224c-.111-.016-.3.435-.263,1.213a4.305,4.305,0,0,0,1.184,2.7,3.755,3.755,0,0,0,2.565,1.153c.726.009,1.138-.217,1.118-.334" fill="#263238"/>
            <path id="Trazado_637778" data-name="Trazado 637778" d="M48.049,39.727A17.232,17.232,0,0,1,58.007,32.9c4.028-.7,6.455-.014,9.1,2.405A10.036,10.036,0,0,0,71.1,37.674c1.932.376,3.546.057,5.851,1.236,3.148,1.61,4.528,5.819,5.986,9.039,1.813,4,4.395,7.686,5.577,11.917s.553,9.431-3.012,12c.681-3.612,1.243-7.63-.741-10.724-1.513-2.36-4.207-3.666-6.148-5.689-2.341-2.441-2.646-5.706-5.1-8.034-5.6-5.317-15.458,4.037-25.468-7.69" fill="#263238"/>
            <path id="Trazado_637779" data-name="Trazado 637779" d="M83.619,56.642c-1.457-3.535-3.031-7.095-5.52-10a19.439,19.439,0,0,0-25.843-3.313l-.976.083a16.4,16.4,0,0,0,12.751,6.143c2.908-.014,6.064-.76,8.559.736,2.4,1.437,3.307,4.456,5.281,6.437,1.343,1.348,3.146,2.176,4.45,3.563a14.578,14.578,0,0,1,2.753,5.339c.869-2.974-.275-6.127-1.455-8.991" fill="#263238"/>
            <path id="Trazado_637780" data-name="Trazado 637780" d="M57.592,45.75l-7.93-6.975c-6.182-.321-10.148,5.52-12.27,10.03-1.578,3.353-2.069,7.1-3.257,10.612-1.219,3.6-3.169,6.934-4.279,10.572s-1.263,7.868.927,10.978l1.384-2.543a15.368,15.368,0,0,0,4.159,9.493q.265-1.325.532-2.65a14.906,14.906,0,0,0,5.967,6.428l3.714,9.931C52.027,84.914,37.9,83.647,57.592,45.75" fill="#263238"/>
            <path id="Trazado_637781" data-name="Trazado 637781" d="M56.457,47.205A36,36,0,0,1,54.6,53.842,12.76,12.76,0,0,1,50.513,59.3c-2.713,1.968-6.207,2.373-9.465,3.156s-6.73,2.289-8.072,5.36a76.819,76.819,0,0,1,2.78-13.3c1.453-4.787,3.549-9.664,7.538-12.683a13.815,13.815,0,0,1,13.02-1.942" fill="#263238"/>
            <path id="Trazado_637782" data-name="Trazado 637782" d="M48.022,69.059c-.166-.415-7.861-2.946-7.731,5.153.126,7.868,8.018,6.093,8.028,5.867s-.3-11.02-.3-11.02" fill="#ffbe9d"/>
            <path id="Trazado_637783" data-name="Trazado 637783" d="M45.835,77.145c-.035-.024-.135.1-.365.209a1.367,1.367,0,0,1-1.024.041c-.837-.289-1.562-1.595-1.627-3.013a4.519,4.519,0,0,1,.346-1.969,1.582,1.582,0,0,1,1.01-1.072.7.7,0,0,1,.816.36c.11.218.063.376.1.389.023.019.166-.135.1-.459a.876.876,0,0,0-.319-.487,1.031,1.031,0,0,0-.762-.185A1.923,1.923,0,0,0,42.7,72.205a4.649,4.649,0,0,0-.433,2.2c.081,1.584.921,3.052,2.064,3.359a1.47,1.47,0,0,0,1.25-.232c.239-.2.278-.376.25-.39" fill="#eb996e"/>
            <path id="Trazado_637784" data-name="Trazado 637784" d="M44.98,78.561a1.548,1.548,0,1,0,.371.106" fill="#fff"/>
            <path id="Trazado_637785" data-name="Trazado 637785" d="M45.351,78.667a2.115,2.115,0,0,1,.737,1.036,1.333,1.333,0,0,1-.272,1.244,1.376,1.376,0,0,1-2.44-.7,1.334,1.334,0,0,1,.429-1.2,2.119,2.119,0,0,1,1.176-.486c0-.02-.123-.078-.372-.076a1.605,1.605,0,0,0-.971.371,1.571,1.571,0,0,0-.59,1.436,1.689,1.689,0,0,0,3.021.868,1.573,1.573,0,0,0,.263-1.53,1.615,1.615,0,0,0-.626-.831c-.21-.133-.349-.151-.355-.132" fill="#263238"/>
            <path id="Trazado_637786" data-name="Trazado 637786" d="M39.939,78.206c-.012.013-.095-.048-.241-.177a5.3,5.3,0,0,1-.6-.6,9.447,9.447,0,0,1-1.639-2.681,9.24,9.24,0,0,1-.624-4.629,7.894,7.894,0,0,1,2.786-4.969,19.1,19.1,0,0,1,4.918-2.888c1.6-.692,3.031-1.295,4.174-1.918a17,17,0,0,0,3.408-2.461,3.429,3.429,0,0,1-.72.9,12.188,12.188,0,0,1-2.507,1.885,44.951,44.951,0,0,1-4.159,2.035,19.681,19.681,0,0,0-4.772,2.842,7.536,7.536,0,0,0-2.653,4.645,9.2,9.2,0,0,0,.493,4.429,13.777,13.777,0,0,0,2.138,3.6" fill="#455a64"/>
            <path id="Trazado_637787" data-name="Trazado 637787" d="M39.247,73.536a2.02,2.02,0,0,1-.353-.767,6.424,6.424,0,0,1-.284-2.29,7.316,7.316,0,0,1,.964-3.3,7.2,7.2,0,0,1,3.078-2.862A40.217,40.217,0,0,1,46.5,62.765a10.77,10.77,0,0,0,2.876-1.594,6.373,6.373,0,0,0,1.8-2.409,1.758,1.758,0,0,1-.19.826,5.144,5.144,0,0,1-1.372,1.863,10.23,10.23,0,0,1-2.935,1.758c-1.178.5-2.513.915-3.785,1.573a6.918,6.918,0,0,0-2.905,2.643,7.316,7.316,0,0,0-1.011,3.081,10.732,10.732,0,0,0,.27,3.03" fill="#455a64"/>
            <path id="Trazado_637788" data-name="Trazado 637788" d="M56.966,47.722a23.026,23.026,0,0,0-3.075-5.079,23.017,23.017,0,0,0-4.618-3.733,4.354,4.354,0,0,1,1.659.664,12.748,12.748,0,0,1,5.6,6.414,4.381,4.381,0,0,1,.435,1.734" fill="#455a64"/>
            <path id="Trazado_637789" data-name="Trazado 637789" d="M93.128,76.647a3.814,3.814,0,0,1-1.01-.135,20.261,20.261,0,0,1-2.685-.72A11.583,11.583,0,0,1,87.661,75a4.759,4.759,0,0,1-1.726-1.481,3,3,0,0,1-.468-1.184q-.043-.3-.09-.6a4.257,4.257,0,0,1-.072-.66,8.2,8.2,0,0,1,.48-2.625,9.832,9.832,0,0,0,.547-2.463,3.806,3.806,0,0,0-.614-2.154A16.472,16.472,0,0,0,83,60.88a22.986,22.986,0,0,0-2.079-1.788,7.107,7.107,0,0,1-.815-.6,9.077,9.077,0,0,1,3.141,2.115,15.379,15.379,0,0,1,2.884,2.979,4.254,4.254,0,0,1,.715,2.423,10.007,10.007,0,0,1-.559,2.6,7.948,7.948,0,0,0-.468,2.459,3.8,3.8,0,0,0,.058.579c.028.205.056.409.084.61a2.535,2.535,0,0,0,.381,1.008,4.434,4.434,0,0,0,1.54,1.369,12.225,12.225,0,0,0,1.685.815c2.162.817,3.589,1.1,3.565,1.2" fill="#455a64"/>
            <path id="Trazado_637790" data-name="Trazado 637790" d="M65.089,411l.435-11.037,19.235-.724-.292,13.507-7,4.219Z" fill="#ffbe9d"/>
            <path id="Trazado_637791" data-name="Trazado 637791" d="M84.886,410.231l-.007,1.265s21.356,8.815,21.545,12.885l-42.567-.626.787-14.156a24.354,24.354,0,0,0,20.242.632" fill="#6c519f"/>
            <g id="Grupo_970266" data-name="Grupo 970266" opacity="0.6">
              <g id="Grupo_970265" data-name="Grupo 970265">
                <g id="Grupo_970264" data-name="Grupo 970264" clip-path="url(#clip-path-8)">
                  <path id="Trazado_637793" data-name="Trazado 637793" d="M68.887,414.191a1.738,1.738,0,0,0-1.231,1.966,1.672,1.672,0,0,0,1.938,1.238,1.834,1.834,0,0,0,1.293-2.089,1.734,1.734,0,0,0-2.159-1.064" fill="#fff"/>
                </g>
              </g>
            </g>
            <g id="Grupo_970269" data-name="Grupo 970269" opacity="0.6">
              <g id="Grupo_970268" data-name="Grupo 970268">
                <g id="Grupo_970267" data-name="Grupo 970267" clip-path="url(#clip-path-9)">
                  <path id="Trazado_637794" data-name="Trazado 637794" d="M63.856,423.755l.189-3.4,40.73,1.847s1.883.852,1.649,2.184Z" fill="#fff"/>
                </g>
              </g>
            </g>
            <path id="Trazado_637795" data-name="Trazado 637795" d="M85.026,411.617c-.01.208-1.05.286-2.083.94-1.05.626-1.59,1.519-1.78,1.434-.191-.043.137-1.282,1.4-2.05s2.51-.514,2.462-.324" fill="#263238"/>
            <path id="Trazado_637796" data-name="Trazado 637796" d="M89.464,413.529c.044.2-.861.543-1.581,1.411-.744.848-.936,1.8-1.143,1.784-.2.029-.322-1.19.593-2.253s2.129-1.14,2.131-.942" fill="#263238"/>
            <path id="Trazado_637797" data-name="Trazado 637797" d="M91.921,418.91c-.189.042-.464-1,.087-2.131s1.529-1.57,1.615-1.395c.115.172-.525.774-.963,1.709-.46.924-.532,1.8-.739,1.817" fill="#263238"/>
            <path id="Trazado_637798" data-name="Trazado 637798" d="M47.8,411.248l.435-11.037,19.235-.724-.292,13.507-6.995,4.219Z" fill="#ffbe9d"/>
            <path id="Trazado_637799" data-name="Trazado 637799" d="M67.593,410.481l-.007,1.265s21.356,8.815,21.545,12.885l-42.567-.625.787-14.157a24.354,24.354,0,0,0,20.242.632" fill="#6c519f"/>
            <g id="Grupo_970272" data-name="Grupo 970272" opacity="0.6">
              <g id="Grupo_970271" data-name="Grupo 970271">
                <g id="Grupo_970270" data-name="Grupo 970270" clip-path="url(#clip-path-10)">
                  <path id="Trazado_637800" data-name="Trazado 637800" d="M51.6,414.442a1.738,1.738,0,0,0-1.231,1.966,1.671,1.671,0,0,0,1.938,1.237,1.832,1.832,0,0,0,1.293-2.088,1.734,1.734,0,0,0-2.159-1.064" fill="#fff"/>
                </g>
              </g>
            </g>
            <g id="Grupo_970275" data-name="Grupo 970275" opacity="0.6">
              <g id="Grupo_970274" data-name="Grupo 970274">
                <g id="Grupo_970273" data-name="Grupo 970273" clip-path="url(#clip-path-11)">
                  <path id="Trazado_637801" data-name="Trazado 637801" d="M46.564,424.006l.189-3.4,40.73,1.847s1.883.852,1.649,2.184Z" fill="#fff"/>
                </g>
              </g>
            </g>
            <path id="Trazado_637802" data-name="Trazado 637802" d="M67.733,411.867c-.01.208-1.051.286-2.083.94-1.05.626-1.59,1.519-1.78,1.434-.191-.044.137-1.281,1.4-2.05s2.51-.514,2.462-.324" fill="#263238"/>
            <path id="Trazado_637803" data-name="Trazado 637803" d="M72.171,413.78c.045.2-.861.542-1.58,1.411-.744.848-.936,1.8-1.143,1.784-.2.029-.322-1.19.593-2.253s2.129-1.14,2.13-.942" fill="#263238"/>
            <path id="Trazado_637804" data-name="Trazado 637804" d="M74.628,419.16c-.189.042-.464-1,.087-2.131s1.529-1.57,1.615-1.395c.115.172-.526.774-.963,1.709-.46.924-.532,1.8-.739,1.817" fill="#263238"/>
            <path id="Trazado_637805" data-name="Trazado 637805" d="M18.9,139.231s16,24.8,24.4,34.8,22.2,1.2,23.8-12.4,1.2-38.805,1.2-38.805l-11.177-6.654-7.225,34.409-9-16.754Z" fill="#ffbe9d"/>
            <path id="Trazado_637806" data-name="Trazado 637806" d="M68.31,122.828l4.8-12a19.128,19.128,0,0,0,2.835-1.639c.7-.659.565-4.962.365-5.762s.778-3,.089-3.4-2.617,0-2.689-.8c-.016-.171,1-2.208-.4-3.218a6.08,6.08,0,0,0-2.213-.4l-.785-3.985s-3.2-4.19-5-2c0,0-6.8,8.2-7.4,9.4s-.775,15.1-.775,17.7" fill="#ffbe9d"/>
            <path id="Trazado_637807" data-name="Trazado 637807" d="M57.133,116.726a3.778,3.778,0,0,1-.048-.724c-.007-.524-.016-1.215-.027-2.078,0-1.806.007-4.421.092-7.659.047-1.62.1-3.394.245-5.3.044-.479.082-.964.168-1.466a3.132,3.132,0,0,1,.7-1.415c.6-.831,1.242-1.658,1.907-2.5,1.33-1.69,2.751-3.445,4.238-5.258A6.163,6.163,0,0,1,65.69,88.98a2.118,2.118,0,0,1,1.958.02,8.706,8.706,0,0,1,2.869,2.466l.036.044.013.064c.076.386.157.8.24,1.219.183.933.365,1.857.543,2.766L71.1,95.35a9.789,9.789,0,0,1,1.562.159,2.179,2.179,0,0,1,.808.3,2.034,2.034,0,0,1,.565.641,2.527,2.527,0,0,1,.233,1.6,4.951,4.951,0,0,1-.17.754l-.111.352-.022.074c.007-.014-.006-.042,0-.017s.008.05.027.065c.041.085.261.163.472.2s.453.053.689.071.478.032.728.07a1.374,1.374,0,0,1,.8.326,1.168,1.168,0,0,1,.21.839,5.4,5.4,0,0,1-.091.72c-.084.461-.193.9-.251,1.327a1.709,1.709,0,0,0,0,.585,5.963,5.963,0,0,1,.089.69c.036.447.052.886.06,1.32a17.371,17.371,0,0,1-.128,2.545,3.1,3.1,0,0,1-.378,1.246,3.762,3.762,0,0,1-1.006.744c-.674.391-1.34.728-1.991,1.044l.1-.1c-1.5,3.643-2.719,6.618-3.59,8.74L68.7,122.014a5.423,5.423,0,0,1-.387.815,5.352,5.352,0,0,1,.281-.857q.34-.9.909-2.414l3.428-8.8.027-.069.07-.035c.637-.319,1.3-.664,1.95-1.051a3.669,3.669,0,0,0,.87-.637,2.871,2.871,0,0,0,.289-1.053,17.155,17.155,0,0,0,.1-2.476c-.011-.425-.03-.856-.068-1.287a5.557,5.557,0,0,0-.083-.625,2.189,2.189,0,0,1-.014-.751c.061-.467.169-.91.247-1.353a4.747,4.747,0,0,0,.08-.653.762.762,0,0,0-.089-.492,1.1,1.1,0,0,0-.5-.162c-.218-.033-.451-.046-.689-.062s-.483-.031-.739-.075a1.182,1.182,0,0,1-.8-.4.606.606,0,0,1-.11-.266.407.407,0,0,1,0-.2l.029-.1.108-.345a4.393,4.393,0,0,0,.151-.679,2.023,2.023,0,0,0-.177-1.284,1.522,1.522,0,0,0-.42-.475,1.776,1.776,0,0,0-.605-.208,9.473,9.473,0,0,0-1.471-.147l-.209-.007-.04-.2c-.179-.909-.361-1.834-.545-2.766-.082-.418-.164-.834-.24-1.219l.048.107a8.269,8.269,0,0,0-2.666-2.311,1.611,1.611,0,0,0-1.494-.046A6.146,6.146,0,0,0,64.8,90.64c-1.49,1.806-2.919,3.553-4.257,5.231-.668.839-1.315,1.661-1.912,2.474a2.7,2.7,0,0,0-.635,1.23c-.085.469-.128.952-.176,1.422-.161,1.892-.236,3.665-.307,5.28-.106,3.192-.193,5.79-.255,7.65-.029.862-.052,1.552-.07,2.076a3.9,3.9,0,0,1-.054.723" fill="#eb996e"/>
            <path id="Trazado_637808" data-name="Trazado 637808" d="M71.094,95.609c.017.088-.832.211-2.1.632a15.722,15.722,0,0,0-2.136,1.026,10.64,10.64,0,0,1-2.908.688,5.639,5.639,0,0,0-4.252,2.531,6.044,6.044,0,0,0-.706,2.014,2.781,2.781,0,0,1,.388-2.2,5.479,5.479,0,0,1,1.656-1.832,6.152,6.152,0,0,1,2.833-1.029,11.5,11.5,0,0,0,2.792-.61,12.691,12.691,0,0,1,2.223-.941,5.808,5.808,0,0,1,2.212-.28" fill="#eb996e"/>
            <path id="Trazado_637809" data-name="Trazado 637809" d="M68.13,96.055c-.107.09-.549-.316-.662-1.01s.172-1.22.3-1.169.114.526.212,1.084.268,1.009.148,1.1" fill="#eb996e"/>
            <path id="Trazado_637810" data-name="Trazado 637810" d="M74,99.316a18.434,18.434,0,0,1-6.316.924,6.293,6.293,0,0,0-2.347.23,2.533,2.533,0,0,0-1.255,1.31,15.227,15.227,0,0,0-.458,1.759,2.843,2.843,0,0,1,.116-1.9,2.8,2.8,0,0,1,1.4-1.61,6.134,6.134,0,0,1,2.538-.313c3.491-.03,6.293-.555,6.322-.4" fill="#eb996e"/>
            <path id="Trazado_637811" data-name="Trazado 637811" d="M75.946,102.812a3.421,3.421,0,0,1-1.524.354c-.961.109-2.292.071-3.726.114a8.233,8.233,0,0,0-1.963.245,2.357,2.357,0,0,0-1.269.814,2.253,2.253,0,0,0-.4,1.363c-.027.012-.131-.115-.18-.4a1.777,1.777,0,0,1,.275-1.169,2.59,2.59,0,0,1,1.428-1.064,7.436,7.436,0,0,1,2.09-.308c1.475-.044,2.782.052,3.726.038a7.511,7.511,0,0,1,1.543.014" fill="#eb996e"/>
            <path id="Trazado_637812" data-name="Trazado 637812" d="M74.166,106.34c.1.045-.431.936-1.717,1.225l.2-.277c.025.232.05.453.075.681a7.362,7.362,0,0,1,.006,2.748,7.417,7.417,0,0,1-.524-2.692c-.019-.228-.038-.448-.058-.679l-.02-.24.224-.037a8.96,8.96,0,0,0,1.81-.729" fill="#eb996e"/>
            <path id="Trazado_637813" data-name="Trazado 637813" d="M95.243,185.931S109.477,217.349,109.477,237s-14.036,83.9-14.036,83.9S93.57,338.678,91.7,362.382a283.206,283.206,0,0,1-7.174,43.979H70.489l-22.768.623s-9.669-39.611-9.046-54.582,3.119-32.126,3.119-32.126S29.63,270.684,27.447,261.639c-.856-3.545-1.242-10.3-1.316-17.483a114.718,114.718,0,0,1,8.031-43.226l3.973-10.085Z" fill="#263238"/>
            <path id="Trazado_637814" data-name="Trazado 637814" d="M74.257,248.751c-.154-.007-1.846,35.166-3.777,78.55-1.933,43.4-3.374,78.575-3.22,78.582s1.845-35.158,3.778-78.557c1.932-43.384,3.373-78.568,3.219-78.575" fill="#455a64"/>
            <path id="Trazado_637815" data-name="Trazado 637815" d="M77.325,234.7a10.657,10.657,0,0,0,.311-1.738c.171-1.123.355-2.757.525-4.781a106.913,106.913,0,0,0,.1-15.869A106.865,106.865,0,0,0,75.994,196.6c-.444-1.982-.85-3.576-1.173-4.665a10.724,10.724,0,0,0-.545-1.679,10.459,10.459,0,0,0,.334,1.733c.258,1.1.6,2.706,1,4.692A126.668,126.668,0,0,1,77.7,212.352a126.647,126.647,0,0,1,.065,15.8c-.119,2.021-.243,3.657-.347,4.785a10.631,10.631,0,0,0-.1,1.762" fill="#455a64"/>
            <path id="Trazado_637816" data-name="Trazado 637816" d="M29.5,216.208a2.764,2.764,0,0,0,.976.591,7.241,7.241,0,0,0,3.072.514c2.665-.072,6.187-1.433,9.4-3.83a21.964,21.964,0,0,0,6.495-7.822,18.806,18.806,0,0,0,1.145-2.875,4.392,4.392,0,0,0,.242-1.109c-.108-.036-.505,1.537-1.738,3.8a23.3,23.3,0,0,1-6.481,7.557,18.507,18.507,0,0,1-9.078,3.882,8.5,8.5,0,0,1-4.028-.711" fill="#455a64"/>
            <path id="Trazado_637817" data-name="Trazado 637817" d="M88.284,197.5a3.63,3.63,0,0,0,.231,1,19.957,19.957,0,0,0,.981,2.62,28.039,28.039,0,0,0,12.437,13.269,20.172,20.172,0,0,0,2.551,1.148,3.659,3.659,0,0,0,.984.295c.037-.094-1.32-.625-3.344-1.789a30.875,30.875,0,0,1-12.271-13.091c-1.031-2.1-1.473-3.485-1.569-3.453" fill="#455a64"/>
            <path id="Trazado_637818" data-name="Trazado 637818" d="M68.205,196.784c.046,0,.063-.217.182-.57a2.442,2.442,0,0,1,.9-1.214,2.258,2.258,0,0,1,2.1-.268,2.193,2.193,0,0,1,0,4.1,2.258,2.258,0,0,1-2.1-.268,2.442,2.442,0,0,1-.9-1.214c-.119-.353-.136-.571-.182-.57-.03,0-.091.219-.029.623a2.431,2.431,0,0,0,.874,1.475,2.625,2.625,0,0,0,2.517.438,2.685,2.685,0,0,0,0-5.072,2.623,2.623,0,0,0-2.517.438,2.429,2.429,0,0,0-.874,1.475c-.062.4,0,.625.029.623" fill="#455a64"/>
            <path id="Trazado_637819" data-name="Trazado 637819" d="M48.789,319.365a69.276,69.276,0,0,0,7.546,4.507,69.428,69.428,0,0,0,7.818,4.02,69.213,69.213,0,0,0-7.547-4.508,69.361,69.361,0,0,0-7.817-4.019" fill="#455a64"/>
            <path id="Trazado_637820" data-name="Trazado 637820" d="M108.748,121.983c-4.345,6.6-21.938,33.355-27.14,41.266a1.223,1.223,0,0,0,1.178,1.883L114.04,161.2a1.22,1.22,0,0,0,.834-.492l29.853-40.771a1.223,1.223,0,0,0-1.077-1.943l-32.158,2.378a3.6,3.6,0,0,0-2.744,1.611" fill="#e0e0e0"/>
            <path id="Trazado_637821" data-name="Trazado 637821" d="M108.748,121.983a2.116,2.116,0,0,1,.249-.375,3.5,3.5,0,0,1,1.011-.852,4.394,4.394,0,0,1,2.082-.5l2.909-.239,18.538-1.455,6.143-.471,3.269-.25c.288-.016.531-.053.861-.053a1.4,1.4,0,0,1,.9.373,1.435,1.435,0,0,1,.237,1.836c-2.722,3.734-5.63,7.723-8.69,11.919L116.324,159.17c-.454.612-.858,1.189-1.349,1.825a1.486,1.486,0,0,1-.556.376,2.543,2.543,0,0,1-.606.12l-1.1.138-4.372.549-8.55,1.072-16.163,2.018c-.335.036-.614.089-.993.11a1.433,1.433,0,0,1-1.035-.431,1.479,1.479,0,0,1-.428-1.027,1.717,1.717,0,0,1,.376-1l2.061-3.123,3.942-5.97,7.083-10.711c4.332-6.525,7.843-11.812,10.286-15.49l2.819-4.2.744-1.084a2.8,2.8,0,0,1,.268-.36,2.829,2.829,0,0,1-.224.389l-.7,1.112c-.639.994-1.559,2.422-2.737,4.251L94.938,143.316l-7.029,10.746-3.921,5.985-2.051,3.129a1.242,1.242,0,0,0-.3.743,1.008,1.008,0,0,0,.293.694.958.958,0,0,0,.7.288c.265-.014.625-.074.935-.109l16.159-2.049,8.549-1.079,4.372-.551,1.1-.139a2.036,2.036,0,0,0,.484-.089.967.967,0,0,0,.361-.244l1.311-1.779,19.966-27.235,8.715-11.87a1,1,0,0,0-.164-1.289.963.963,0,0,0-.629-.264c-.232,0-.546.034-.813.048l-3.269.235-6.146.437-18.551,1.29-2.911.191a4.341,4.341,0,0,0-2.044.444,4.106,4.106,0,0,0-1.31,1.134" fill="#263238"/>
            <path id="Trazado_637822" data-name="Trazado 637822" d="M144.727,119.936a3.523,3.523,0,0,1-.655.1l-1.9.192-7.063.627-24.018,1.961.191-.111c-1.5,2.234-3.055,4.553-4.611,6.948-6.338,9.743-11.875,18.7-16.056,25.07-2.079,3.194-3.807,5.748-5.011,7.506l-1.41,2.009a5.209,5.209,0,0,1-.521.68,5.284,5.284,0,0,1,.434-.739l1.328-2.062,4.87-7.593c4.1-6.419,9.586-15.4,15.929-25.155,1.558-2.4,3.115-4.718,4.626-6.951l.069-.1.122-.009,24.032-1.783,7.075-.475,1.9-.1a3.618,3.618,0,0,1,.662-.005" fill="#263238"/>
            <path id="Trazado_637823" data-name="Trazado 637823" d="M125.349,125.766h0l.013,0Z" fill="#fff"/>
            <path id="Trazado_637824" data-name="Trazado 637824" d="M126.123,126.232a.631.631,0,0,0-.773-.466,1.673,1.673,0,0,0-.838.471.835.835,0,0,0-.153,1.071c.312.386.954.244,1.33-.08a1.1,1.1,0,0,0,.434-1" fill="#fff"/>
            <path id="Trazado_637825" data-name="Trazado 637825" d="M111.524,149.36s-1.233-2.941,1.9-3.32a108.492,108.492,0,0,1,11.348,0s4.493.474,3.545,3.7c0,0,2.656,2.372,1.233,4.933s-1.992,1.8-1.992,1.8.38,3.131-1.992,3.6c0,0-2.571,3.035-4.938,2.846S108.2,157.9,107.54,156.949s-1.613-1.489-1.043-2.547c0,0-1.234-2.776,1.422-3.2,0,0,.19-2.319,3.605-1.845" fill="#ffbe9d"/>
            <path id="Trazado_637826" data-name="Trazado 637826" d="M125.787,150.422a8.583,8.583,0,0,1-2.115.152c-1.305.027-3.108.029-5.1,0a30.079,30.079,0,0,1-5.122-.305c-1.351-.312-1.88-1.1-1.817-1.121a5.392,5.392,0,0,0,1.893.761c1.242.209,3.066.081,5.054.145,1.991.03,3.793.087,5.1.154a8.613,8.613,0,0,1,2.109.216" fill="#eb996e"/>
            <path id="Trazado_637827" data-name="Trazado 637827" d="M123.545,155.164a1.569,1.569,0,0,1-.68.235,7.288,7.288,0,0,1-1.956.121,13.848,13.848,0,0,1-2.853-.517c-1.05-.29-2.167-.694-3.346-1.056a14.979,14.979,0,0,0-3.366-.694,5.171,5.171,0,0,1-2.868-.58,1.641,1.641,0,0,1-.684-.977,1.347,1.347,0,0,1,.118-.888c.248-.453.584-.478.576-.453.026.041-.243.136-.39.535a1.225,1.225,0,0,0,.587,1.478,5.136,5.136,0,0,0,2.687.406,14.02,14.02,0,0,1,3.493.675l3.327,1.093a15.9,15.9,0,0,0,2.751.611,17.889,17.889,0,0,0,2.6.011" fill="#eb996e"/>
            <path id="Trazado_637828" data-name="Trazado 637828" d="M120.184,159.175a8.436,8.436,0,0,1-2.112-.409c-1.285-.324-3.047-.827-4.969-1.456s-3.641-1.266-4.87-1.765a8.429,8.429,0,0,1-1.944-.919c.053-.138,3.143.937,6.976,2.189s6.958,2.217,6.919,2.36" fill="#eb996e"/>
            <path id="Trazado_637829" data-name="Trazado 637829" d="M120.99,162.9a4.637,4.637,0,0,1-1.752-.2,20.91,20.91,0,0,1-4-1.41c-1.508-.685-2.823-1.386-3.776-1.891a6.28,6.28,0,0,1-1.5-.908c.066-.155,2.526.928,5.491,2.325,2.959,1.419,5.561,1.95,5.542,2.086" fill="#eb996e"/>
            <path id="Trazado_637830" data-name="Trazado 637830" d="M26.023,107.23s-12.859,5.356-9.669,22.372,4.854,22.7,4.854,22.7l25.35-13.338Z" fill="#210654"/>
            <path id="Trazado_637831" data-name="Trazado 637831" d="M46.021,139.243a4.463,4.463,0,0,1-.926.6c-.613.358-1.508.86-2.619,1.472-2.223,1.222-5.311,2.88-8.737,4.683s-6.544,3.41-8.811,4.55c-1.134.57-2.055,1.023-2.7,1.326a4.382,4.382,0,0,1-1.022.422,4.651,4.651,0,0,1,.928-.6c.613-.358,1.508-.861,2.619-1.472,2.223-1.223,5.311-2.881,8.737-4.683s6.539-3.408,8.807-4.548c1.133-.57,2.055-1.024,2.7-1.327a4.7,4.7,0,0,1,1.024-.425" fill="#263238"/>
            <path id="Trazado_637832" data-name="Trazado 637832" d="M46.021,139.243a16.418,16.418,0,0,1-1.385-2.356c-.911-1.622-2.008-3.578-3.22-5.739s-2.328-4.113-3.245-5.733a14.242,14.242,0,0,1-1.231-2.443,14.16,14.16,0,0,1,1.548,2.255c.9,1.429,2.106,3.424,3.381,5.663s2.362,4.305,3.094,5.828a12.609,12.609,0,0,1,1.058,2.525" fill="#263238"/>
          </g>
        </g>
      </g>
    </g>
    <g id="Grupo_970279" data-name="Grupo 970279" transform="translate(1230.228 2283.873)">
      <g id="Grupo_970192" data-name="Grupo 970192" transform="translate(0)" clip-path="url(#clip-path-12)">
        <rect id="Rectángulo_338188" data-name="Rectángulo 338188" width="132.345" height="92.127" transform="translate(39.243 186.232)" fill="#263238"/>
        <rect id="Rectángulo_338189" data-name="Rectángulo 338189" width="136.139" height="33.777" transform="translate(53.633 213.56)" fill="#455a64"/>
        <rect id="Rectángulo_338190" data-name="Rectángulo 338190" width="26.805" height="4.124" transform="translate(156.922 220.517)" fill="#263238"/>
        <rect id="Rectángulo_338191" data-name="Rectángulo 338191" width="26.805" height="4.124" transform="translate(156.922 227.614)" fill="#263238"/>
        <rect id="Rectángulo_338192" data-name="Rectángulo 338192" width="26.805" height="4.124" transform="translate(156.922 234.951)" fill="#263238"/>
        <g id="Grupo_970186" data-name="Grupo 970186">
          <g id="Grupo_970185" data-name="Grupo 970185" clip-path="url(#clip-path-12)">
            <path id="Trazado_637313" data-name="Trazado 637313" d="M33.364,184.548A1.538,1.538,0,1,0,34.9,183.01a1.538,1.538,0,0,0-1.538,1.538" transform="translate(112.957 38.461)" fill="#263238"/>
            <path id="Trazado_637314" data-name="Trazado 637314" d="M38.971,184.548a1.538,1.538,0,1,0,1.538-1.538,1.538,1.538,0,0,0-1.538,1.538" transform="translate(100.565 38.461)" fill="#263238"/>
            <path id="Trazado_637315" data-name="Trazado 637315" d="M44.578,184.548a1.538,1.538,0,1,0,1.538-1.538,1.538,1.538,0,0,0-1.538,1.538" transform="translate(88.173 38.461)" fill="#263238"/>
            <path id="Trazado_637316" data-name="Trazado 637316" d="M50.186,184.548a1.538,1.538,0,1,0,1.538-1.538,1.538,1.538,0,0,0-1.538,1.538" transform="translate(75.778 38.461)" fill="#263238"/>
            <path id="Trazado_637317" data-name="Trazado 637317" d="M93.637,184.548a1.538,1.538,0,1,0,1.538-1.538,1.538,1.538,0,0,0-1.538,1.538" transform="translate(-20.255 38.461)" fill="#263238"/>
            <path id="Trazado_637318" data-name="Trazado 637318" d="M99.355,184.548a1.538,1.538,0,1,0,1.538-1.538,1.538,1.538,0,0,0-1.538,1.538" transform="translate(-32.893 38.461)" fill="#263238"/>
            <path id="Trazado_637319" data-name="Trazado 637319" d="M55.793,184.548a1.538,1.538,0,1,0,1.538-1.538,1.538,1.538,0,0,0-1.538,1.538" transform="translate(63.386 38.461)" fill="#263238"/>
            <path id="Trazado_637320" data-name="Trazado 637320" d="M83.33,184.548a1.538,1.538,0,1,0,1.538-1.538,1.538,1.538,0,0,0-1.538,1.538" transform="translate(2.525 38.461)" fill="#263238"/>
            <path id="Trazado_637321" data-name="Trazado 637321" d="M61.4,184.548a1.538,1.538,0,1,0,1.538-1.538,1.538,1.538,0,0,0-1.538,1.538" transform="translate(50.993 38.461)" fill="#f5f5f5"/>
            <path id="Trazado_637322" data-name="Trazado 637322" d="M67.008,184.548a1.538,1.538,0,1,0,1.538-1.538,1.538,1.538,0,0,0-1.538,1.538" transform="translate(38.599 38.461)" fill="#f5f5f5"/>
            <path id="Trazado_637323" data-name="Trazado 637323" d="M78.384,184.548a1.538,1.538,0,1,0,1.538-1.538,1.538,1.538,0,0,0-1.538,1.538" transform="translate(13.456 38.461)" fill="#f5f5f5"/>
            <path id="Trazado_637324" data-name="Trazado 637324" d="M104.008,184.548a1.538,1.538,0,1,0,1.538-1.538,1.538,1.538,0,0,0-1.538,1.538" transform="translate(-43.177 38.461)" fill="#f5f5f5"/>
            <path id="Trazado_637325" data-name="Trazado 637325" d="M72.615,184.548a1.538,1.538,0,1,0,1.538-1.538,1.538,1.538,0,0,0-1.538,1.538" transform="translate(26.207 38.461)" fill="#ff725e"/>
            <path id="Trazado_637326" data-name="Trazado 637326" d="M88.67,184.548a1.538,1.538,0,1,0,1.538-1.538,1.538,1.538,0,0,0-1.538,1.538" transform="translate(-9.278 38.461)" fill="#ff725e"/>
            <path id="Trazado_637327" data-name="Trazado 637327" d="M107.082,190.673a1.537,1.537,0,1,0-1.538,1.538,1.538,1.538,0,0,0,1.538-1.538" transform="translate(-43.175 39.748)" fill="#263238"/>
            <path id="Trazado_637328" data-name="Trazado 637328" d="M101.475,190.673a1.538,1.538,0,1,0-1.538,1.538,1.538,1.538,0,0,0,1.538-1.538" transform="translate(-30.782 39.748)" fill="#263238"/>
            <path id="Trazado_637329" data-name="Trazado 637329" d="M95.868,190.673a1.538,1.538,0,1,0-1.538,1.538,1.538,1.538,0,0,0,1.538-1.538" transform="translate(-18.39 39.748)" fill="#263238"/>
            <path id="Trazado_637330" data-name="Trazado 637330" d="M90.261,190.673a1.538,1.538,0,1,0-1.538,1.538,1.538,1.538,0,0,0,1.538-1.538" transform="translate(-5.998 39.748)" fill="#263238"/>
            <path id="Trazado_637331" data-name="Trazado 637331" d="M46.809,190.673a1.538,1.538,0,1,0-1.538,1.538,1.538,1.538,0,0,0,1.538-1.538" transform="translate(90.038 39.748)" fill="#263238"/>
            <path id="Trazado_637332" data-name="Trazado 637332" d="M41.091,190.673a1.538,1.538,0,1,0-1.538,1.538,1.538,1.538,0,0,0,1.538-1.538" transform="translate(102.676 39.748)" fill="#263238"/>
            <path id="Trazado_637333" data-name="Trazado 637333" d="M84.653,190.673a1.538,1.538,0,1,0-1.538,1.538,1.538,1.538,0,0,0,1.538-1.538" transform="translate(6.397 39.748)" fill="#263238"/>
            <path id="Trazado_637334" data-name="Trazado 637334" d="M57.116,190.673a1.538,1.538,0,1,0-1.538,1.538,1.538,1.538,0,0,0,1.538-1.538" transform="translate(67.258 39.748)" fill="#263238"/>
            <path id="Trazado_637335" data-name="Trazado 637335" d="M79.046,190.673a1.538,1.538,0,1,0-1.538,1.538,1.538,1.538,0,0,0,1.538-1.538" transform="translate(18.789 39.748)" fill="#f5f5f5"/>
            <path id="Trazado_637336" data-name="Trazado 637336" d="M73.439,190.673a1.538,1.538,0,1,0-1.538,1.538,1.538,1.538,0,0,0,1.538-1.538" transform="translate(31.182 39.748)" fill="#f5f5f5"/>
            <path id="Trazado_637337" data-name="Trazado 637337" d="M62.062,190.673a1.538,1.538,0,1,0-1.538,1.538,1.538,1.538,0,0,0,1.538-1.538" transform="translate(56.327 39.748)" fill="#f5f5f5"/>
            <path id="Trazado_637338" data-name="Trazado 637338" d="M36.438,190.673a1.538,1.538,0,1,0-1.538,1.538,1.538,1.538,0,0,0,1.538-1.538" transform="translate(112.96 39.748)" fill="#f5f5f5"/>
            <path id="Trazado_637339" data-name="Trazado 637339" d="M67.831,190.673a1.538,1.538,0,1,0-1.538,1.538,1.538,1.538,0,0,0,1.538-1.538" transform="translate(43.576 39.748)" fill="#ff725e"/>
            <path id="Trazado_637340" data-name="Trazado 637340" d="M51.777,190.673a1.538,1.538,0,1,0-1.538,1.538,1.538,1.538,0,0,0,1.538-1.538" transform="translate(79.058 39.748)" fill="#ff725e"/>
            <path id="Trazado_637341" data-name="Trazado 637341" d="M33.364,196.12a1.538,1.538,0,1,0,1.538-1.538,1.538,1.538,0,0,0-1.538,1.538" transform="translate(112.957 40.893)" fill="#263238"/>
            <path id="Trazado_637342" data-name="Trazado 637342" d="M38.971,196.12a1.538,1.538,0,1,0,1.538-1.538,1.538,1.538,0,0,0-1.538,1.538" transform="translate(100.565 40.893)" fill="#263238"/>
            <path id="Trazado_637343" data-name="Trazado 637343" d="M44.578,196.12a1.538,1.538,0,1,0,1.538-1.538,1.538,1.538,0,0,0-1.538,1.538" transform="translate(88.173 40.893)" fill="#263238"/>
            <path id="Trazado_637344" data-name="Trazado 637344" d="M50.186,196.12a1.538,1.538,0,1,0,1.538-1.538,1.538,1.538,0,0,0-1.538,1.538" transform="translate(75.778 40.893)" fill="#263238"/>
            <path id="Trazado_637345" data-name="Trazado 637345" d="M93.637,196.12a1.538,1.538,0,1,0,1.538-1.538,1.538,1.538,0,0,0-1.538,1.538" transform="translate(-20.255 40.893)" fill="#263238"/>
            <path id="Trazado_637346" data-name="Trazado 637346" d="M99.355,196.12a1.538,1.538,0,1,0,1.538-1.538,1.538,1.538,0,0,0-1.538,1.538" transform="translate(-32.893 40.893)" fill="#263238"/>
            <path id="Trazado_637347" data-name="Trazado 637347" d="M55.793,196.12a1.538,1.538,0,1,0,1.538-1.538,1.538,1.538,0,0,0-1.538,1.538" transform="translate(63.386 40.893)" fill="#263238"/>
            <path id="Trazado_637348" data-name="Trazado 637348" d="M83.33,196.12a1.538,1.538,0,1,0,1.538-1.538,1.538,1.538,0,0,0-1.538,1.538" transform="translate(2.525 40.893)" fill="#263238"/>
            <path id="Trazado_637349" data-name="Trazado 637349" d="M61.4,196.12a1.538,1.538,0,1,0,1.538-1.538A1.538,1.538,0,0,0,61.4,196.12" transform="translate(50.993 40.893)" fill="#f5f5f5"/>
            <path id="Trazado_637350" data-name="Trazado 637350" d="M67.008,196.12a1.538,1.538,0,1,0,1.538-1.538,1.538,1.538,0,0,0-1.538,1.538" transform="translate(38.599 40.893)" fill="#f5f5f5"/>
            <path id="Trazado_637351" data-name="Trazado 637351" d="M78.384,196.12a1.538,1.538,0,1,0,1.538-1.538,1.538,1.538,0,0,0-1.538,1.538" transform="translate(13.456 40.893)" fill="#f5f5f5"/>
            <path id="Trazado_637352" data-name="Trazado 637352" d="M104.008,196.12a1.538,1.538,0,1,0,1.538-1.538,1.538,1.538,0,0,0-1.538,1.538" transform="translate(-43.177 40.893)" fill="#f5f5f5"/>
            <path id="Trazado_637353" data-name="Trazado 637353" d="M72.615,196.12a1.538,1.538,0,1,0,1.538-1.538,1.538,1.538,0,0,0-1.538,1.538" transform="translate(26.207 40.893)" fill="#ff725e"/>
            <path id="Trazado_637354" data-name="Trazado 637354" d="M88.67,196.12a1.538,1.538,0,1,0,1.538-1.538,1.538,1.538,0,0,0-1.538,1.538" transform="translate(-9.278 40.893)" fill="#ff725e"/>
            <rect id="Rectángulo_338193" data-name="Rectángulo 338193" width="136.14" height="33.777" transform="translate(53.632 255.242)" fill="#455a64"/>
            <path id="Trazado_637355" data-name="Trazado 637355" d="M33.085,218.714a1.538,1.538,0,1,0,1.538-1.538,1.538,1.538,0,0,0-1.538,1.538" transform="translate(113.574 45.641)" fill="#263238"/>
            <path id="Trazado_637356" data-name="Trazado 637356" d="M38.693,218.714a1.538,1.538,0,1,0,1.539-1.538,1.538,1.538,0,0,0-1.539,1.538" transform="translate(101.179 45.641)" fill="#263238"/>
            <path id="Trazado_637357" data-name="Trazado 637357" d="M44.3,218.714a1.538,1.538,0,1,0,1.538-1.538,1.538,1.538,0,0,0-1.538,1.538" transform="translate(88.787 45.641)" fill="#263238"/>
            <path id="Trazado_637358" data-name="Trazado 637358" d="M49.907,218.714a1.538,1.538,0,1,0,1.538-1.538,1.538,1.538,0,0,0-1.538,1.538" transform="translate(76.395 45.641)" fill="#263238"/>
            <path id="Trazado_637359" data-name="Trazado 637359" d="M93.359,218.714a1.538,1.538,0,1,0,1.538-1.538,1.538,1.538,0,0,0-1.538,1.538" transform="translate(-19.641 45.641)" fill="#263238"/>
            <path id="Trazado_637360" data-name="Trazado 637360" d="M99.077,218.714a1.538,1.538,0,1,0,1.538-1.538,1.538,1.538,0,0,0-1.538,1.538" transform="translate(-32.279 45.641)" fill="#263238"/>
            <path id="Trazado_637361" data-name="Trazado 637361" d="M55.514,218.714a1.538,1.538,0,1,0,1.538-1.538,1.538,1.538,0,0,0-1.538,1.538" transform="translate(64.002 45.641)" fill="#263238"/>
            <path id="Trazado_637362" data-name="Trazado 637362" d="M83.052,218.714a1.538,1.538,0,1,0,1.538-1.538,1.538,1.538,0,0,0-1.538,1.538" transform="translate(3.139 45.641)" fill="#263238"/>
            <path id="Trazado_637363" data-name="Trazado 637363" d="M61.122,218.714a1.538,1.538,0,1,0,1.538-1.538,1.538,1.538,0,0,0-1.538,1.538" transform="translate(51.608 45.641)" fill="#f5f5f5"/>
            <path id="Trazado_637364" data-name="Trazado 637364" d="M66.729,218.714a1.538,1.538,0,1,0,1.538-1.538,1.538,1.538,0,0,0-1.538,1.538" transform="translate(39.216 45.641)" fill="#f5f5f5"/>
            <path id="Trazado_637365" data-name="Trazado 637365" d="M78.106,218.714a1.538,1.538,0,1,0,1.538-1.538,1.538,1.538,0,0,0-1.538,1.538" transform="translate(14.071 45.641)" fill="#f5f5f5"/>
            <path id="Trazado_637366" data-name="Trazado 637366" d="M103.729,218.714a1.538,1.538,0,1,0,1.538-1.538,1.538,1.538,0,0,0-1.538,1.538" transform="translate(-42.56 45.641)" fill="#f5f5f5"/>
            <path id="Trazado_637367" data-name="Trazado 637367" d="M72.336,218.714a1.538,1.538,0,1,0,1.538-1.538,1.538,1.538,0,0,0-1.538,1.538" transform="translate(26.823 45.641)" fill="#ff725e"/>
            <path id="Trazado_637368" data-name="Trazado 637368" d="M88.391,218.714a1.538,1.538,0,1,0,1.538-1.538,1.538,1.538,0,0,0-1.538,1.538" transform="translate(-8.661 45.641)" fill="#ff725e"/>
            <path id="Trazado_637369" data-name="Trazado 637369" d="M106.8,224.839a1.538,1.538,0,1,0-1.538,1.538,1.538,1.538,0,0,0,1.538-1.538" transform="translate(-42.56 46.929)" fill="#263238"/>
            <path id="Trazado_637370" data-name="Trazado 637370" d="M101.2,224.839a1.538,1.538,0,1,0-1.538,1.538,1.538,1.538,0,0,0,1.538-1.538" transform="translate(-30.168 46.929)" fill="#263238"/>
            <path id="Trazado_637371" data-name="Trazado 637371" d="M95.589,224.839a1.538,1.538,0,1,0-1.538,1.538,1.538,1.538,0,0,0,1.538-1.538" transform="translate(-17.773 46.929)" fill="#263238"/>
            <path id="Trazado_637372" data-name="Trazado 637372" d="M89.982,224.839a1.538,1.538,0,1,0-1.538,1.538,1.538,1.538,0,0,0,1.538-1.538" transform="translate(-5.381 46.929)" fill="#263238"/>
            <path id="Trazado_637373" data-name="Trazado 637373" d="M46.53,224.839a1.538,1.538,0,1,0-1.538,1.538,1.538,1.538,0,0,0,1.538-1.538" transform="translate(90.655 46.929)" fill="#263238"/>
            <path id="Trazado_637374" data-name="Trazado 637374" d="M40.812,224.839a1.538,1.538,0,1,0-1.538,1.538,1.538,1.538,0,0,0,1.538-1.538" transform="translate(103.292 46.929)" fill="#263238"/>
            <path id="Trazado_637375" data-name="Trazado 637375" d="M84.375,224.839a1.538,1.538,0,1,0-1.538,1.538,1.538,1.538,0,0,0,1.538-1.538" transform="translate(7.011 46.929)" fill="#263238"/>
            <path id="Trazado_637376" data-name="Trazado 637376" d="M56.837,224.839a1.538,1.538,0,1,0-1.538,1.538,1.538,1.538,0,0,0,1.538-1.538" transform="translate(67.875 46.929)" fill="#263238"/>
            <path id="Trazado_637377" data-name="Trazado 637377" d="M78.767,224.839a1.538,1.538,0,1,0-1.538,1.538,1.538,1.538,0,0,0,1.538-1.538" transform="translate(19.406 46.929)" fill="#f5f5f5"/>
            <path id="Trazado_637378" data-name="Trazado 637378" d="M73.16,224.839a1.538,1.538,0,1,0-1.538,1.538,1.538,1.538,0,0,0,1.538-1.538" transform="translate(31.798 46.929)" fill="#f5f5f5"/>
            <path id="Trazado_637379" data-name="Trazado 637379" d="M61.784,224.839a1.538,1.538,0,1,0-1.538,1.538,1.538,1.538,0,0,0,1.538-1.538" transform="translate(56.941 46.929)" fill="#f5f5f5"/>
            <path id="Trazado_637380" data-name="Trazado 637380" d="M36.16,224.839a1.538,1.538,0,1,0-1.538,1.538,1.538,1.538,0,0,0,1.538-1.538" transform="translate(113.574 46.929)" fill="#f5f5f5"/>
            <path id="Trazado_637381" data-name="Trazado 637381" d="M67.553,224.839a1.538,1.538,0,1,0-1.538,1.538,1.538,1.538,0,0,0,1.538-1.538" transform="translate(44.191 46.929)" fill="#ff725e"/>
            <path id="Trazado_637382" data-name="Trazado 637382" d="M51.5,224.839a1.538,1.538,0,1,0-1.538,1.538,1.538,1.538,0,0,0,1.538-1.538" transform="translate(79.675 46.929)" fill="#ff725e"/>
            <path id="Trazado_637383" data-name="Trazado 637383" d="M33.085,230.286a1.538,1.538,0,1,0,1.538-1.538,1.538,1.538,0,0,0-1.538,1.538" transform="translate(113.574 48.073)" fill="#263238"/>
            <path id="Trazado_637384" data-name="Trazado 637384" d="M38.693,230.286a1.538,1.538,0,1,0,1.539-1.538,1.538,1.538,0,0,0-1.539,1.538" transform="translate(101.179 48.073)" fill="#263238"/>
            <path id="Trazado_637385" data-name="Trazado 637385" d="M44.3,230.286a1.538,1.538,0,1,0,1.538-1.538,1.538,1.538,0,0,0-1.538,1.538" transform="translate(88.787 48.073)" fill="#263238"/>
            <path id="Trazado_637386" data-name="Trazado 637386" d="M49.907,230.286a1.538,1.538,0,1,0,1.538-1.538,1.538,1.538,0,0,0-1.538,1.538" transform="translate(76.395 48.073)" fill="#263238"/>
            <path id="Trazado_637387" data-name="Trazado 637387" d="M93.359,230.286a1.538,1.538,0,1,0,1.538-1.538,1.538,1.538,0,0,0-1.538,1.538" transform="translate(-19.641 48.073)" fill="#263238"/>
            <path id="Trazado_637388" data-name="Trazado 637388" d="M99.077,230.286a1.538,1.538,0,1,0,1.538-1.538,1.538,1.538,0,0,0-1.538,1.538" transform="translate(-32.279 48.073)" fill="#263238"/>
            <path id="Trazado_637389" data-name="Trazado 637389" d="M55.514,230.286a1.538,1.538,0,1,0,1.538-1.538,1.538,1.538,0,0,0-1.538,1.538" transform="translate(64.002 48.073)" fill="#263238"/>
            <path id="Trazado_637390" data-name="Trazado 637390" d="M83.052,230.286a1.538,1.538,0,1,0,1.538-1.538,1.538,1.538,0,0,0-1.538,1.538" transform="translate(3.139 48.073)" fill="#263238"/>
            <path id="Trazado_637391" data-name="Trazado 637391" d="M61.122,230.286a1.538,1.538,0,1,0,1.538-1.538,1.538,1.538,0,0,0-1.538,1.538" transform="translate(51.608 48.073)" fill="#f5f5f5"/>
            <path id="Trazado_637392" data-name="Trazado 637392" d="M66.729,230.286a1.538,1.538,0,1,0,1.538-1.538,1.538,1.538,0,0,0-1.538,1.538" transform="translate(39.216 48.073)" fill="#f5f5f5"/>
            <path id="Trazado_637393" data-name="Trazado 637393" d="M78.106,230.286a1.538,1.538,0,1,0,1.538-1.538,1.538,1.538,0,0,0-1.538,1.538" transform="translate(14.071 48.073)" fill="#f5f5f5"/>
            <path id="Trazado_637394" data-name="Trazado 637394" d="M103.729,230.286a1.538,1.538,0,1,0,1.538-1.538,1.538,1.538,0,0,0-1.538,1.538" transform="translate(-42.56 48.073)" fill="#f5f5f5"/>
            <path id="Trazado_637395" data-name="Trazado 637395" d="M72.336,230.286a1.538,1.538,0,1,0,1.538-1.538,1.538,1.538,0,0,0-1.538,1.538" transform="translate(26.823 48.073)" fill="#ff725e"/>
            <path id="Trazado_637396" data-name="Trazado 637396" d="M88.391,230.286a1.538,1.538,0,1,0,1.538-1.538,1.538,1.538,0,0,0-1.538,1.538" transform="translate(-8.661 48.073)" fill="#ff725e"/>
            <rect id="Rectángulo_338194" data-name="Rectángulo 338194" width="26.805" height="4.124" transform="translate(156.922 262.199)" fill="#263238"/>
            <rect id="Rectángulo_338195" data-name="Rectángulo 338195" width="26.805" height="4.124" transform="translate(156.922 269.295)" fill="#263238"/>
            <rect id="Rectángulo_338196" data-name="Rectángulo 338196" width="26.805" height="4.124" transform="translate(156.922 276.633)" fill="#263238"/>
            <path id="Trazado_637397" data-name="Trazado 637397" d="M112.5,210.2l28.779.054V176.482l-28.779-.054Z" transform="translate(-87.645 37.078)" fill="#263238"/>
            <path id="Trazado_637398" data-name="Trazado 637398" d="M112.5,244.43l28.779.054V210.708l-28.779-.054Z" transform="translate(-87.645 44.271)" fill="#263238"/>
            <rect id="Rectángulo_338197" data-name="Rectángulo 338197" width="26.805" height="4.124" transform="translate(155.936 193.57)" fill="#263238"/>
            <path id="Trazado_637399" data-name="Trazado 637399" d="M112.5,176.313l28.779.056V142.334l-28.779-.056Z" transform="translate(-87.645 29.901)" fill="#263238"/>
            <rect id="Rectángulo_338198" data-name="Rectángulo 338198" width="136.14" height="33.777" transform="translate(52.647 172.179)" fill="#455a64"/>
            <rect id="Rectángulo_338199" data-name="Rectángulo 338199" width="26.805" height="4.124" transform="translate(155.936 179.136)" fill="#263238"/>
            <rect id="Rectángulo_338200" data-name="Rectángulo 338200" width="26.805" height="4.124" transform="translate(155.936 186.232)" fill="#263238"/>
            <path id="Trazado_637400" data-name="Trazado 637400" d="M34.179,150.353a1.538,1.538,0,1,0,1.539-1.538,1.538,1.538,0,0,0-1.539,1.538" transform="translate(111.156 31.275)" fill="#263238"/>
            <path id="Trazado_637401" data-name="Trazado 637401" d="M39.786,150.353a1.538,1.538,0,1,0,1.538-1.538,1.538,1.538,0,0,0-1.538,1.538" transform="translate(98.764 31.275)" fill="#263238"/>
            <path id="Trazado_637402" data-name="Trazado 637402" d="M45.393,150.353a1.538,1.538,0,1,0,1.538-1.538,1.538,1.538,0,0,0-1.538,1.538" transform="translate(86.371 31.275)" fill="#263238"/>
            <path id="Trazado_637403" data-name="Trazado 637403" d="M51,150.353a1.538,1.538,0,1,0,1.538-1.538A1.538,1.538,0,0,0,51,150.353" transform="translate(73.979 31.275)" fill="#263238"/>
            <path id="Trazado_637404" data-name="Trazado 637404" d="M94.452,150.353a1.538,1.538,0,1,0,1.538-1.538,1.538,1.538,0,0,0-1.538,1.538" transform="translate(-22.057 31.275)" fill="#263238"/>
            <path id="Trazado_637405" data-name="Trazado 637405" d="M100.17,150.353a1.538,1.538,0,1,0,1.538-1.538,1.538,1.538,0,0,0-1.538,1.538" transform="translate(-34.694 31.275)" fill="#263238"/>
            <path id="Trazado_637406" data-name="Trazado 637406" d="M56.608,150.353a1.538,1.538,0,1,0,1.538-1.538,1.538,1.538,0,0,0-1.538,1.538" transform="translate(61.584 31.275)" fill="#263238"/>
            <path id="Trazado_637407" data-name="Trazado 637407" d="M84.145,150.353a1.538,1.538,0,1,0,1.538-1.538,1.538,1.538,0,0,0-1.538,1.538" transform="translate(0.723 31.275)" fill="#263238"/>
            <path id="Trazado_637408" data-name="Trazado 637408" d="M62.215,150.353a1.538,1.538,0,1,0,1.538-1.538,1.538,1.538,0,0,0-1.538,1.538" transform="translate(49.192 31.275)" fill="#f5f5f5"/>
            <path id="Trazado_637409" data-name="Trazado 637409" d="M67.822,150.353a1.538,1.538,0,1,0,1.538-1.538,1.538,1.538,0,0,0-1.538,1.538" transform="translate(36.8 31.275)" fill="#f5f5f5"/>
            <path id="Trazado_637410" data-name="Trazado 637410" d="M79.2,150.353a1.538,1.538,0,1,0,1.538-1.538,1.538,1.538,0,0,0-1.538,1.538" transform="translate(11.655 31.275)" fill="#f5f5f5"/>
            <path id="Trazado_637411" data-name="Trazado 637411" d="M104.822,150.353a1.538,1.538,0,1,0,1.538-1.538,1.538,1.538,0,0,0-1.538,1.538" transform="translate(-44.976 31.275)" fill="#f5f5f5"/>
            <path id="Trazado_637412" data-name="Trazado 637412" d="M73.43,150.353a1.538,1.538,0,1,0,1.538-1.538,1.538,1.538,0,0,0-1.538,1.538" transform="translate(24.405 31.275)" fill="#ff725e"/>
            <path id="Trazado_637413" data-name="Trazado 637413" d="M89.484,150.353a1.538,1.538,0,1,0,1.538-1.538,1.538,1.538,0,0,0-1.538,1.538" transform="translate(-11.077 31.275)" fill="#ff725e"/>
            <path id="Trazado_637414" data-name="Trazado 637414" d="M107.9,156.478a1.538,1.538,0,1,0-1.538,1.538,1.538,1.538,0,0,0,1.538-1.538" transform="translate(-44.976 32.562)" fill="#263238"/>
            <path id="Trazado_637415" data-name="Trazado 637415" d="M102.29,156.478a1.538,1.538,0,1,0-1.538,1.538,1.538,1.538,0,0,0,1.538-1.538" transform="translate(-32.584 32.562)" fill="#263238"/>
            <path id="Trazado_637416" data-name="Trazado 637416" d="M96.683,156.478a1.538,1.538,0,1,0-1.538,1.538,1.538,1.538,0,0,0,1.538-1.538" transform="translate(-20.191 32.562)" fill="#263238"/>
            <path id="Trazado_637417" data-name="Trazado 637417" d="M91.075,156.478a1.538,1.538,0,1,0-1.538,1.538,1.538,1.538,0,0,0,1.538-1.538" transform="translate(-7.797 32.562)" fill="#263238"/>
            <path id="Trazado_637418" data-name="Trazado 637418" d="M47.623,156.478a1.537,1.537,0,1,0-1.537,1.538,1.537,1.537,0,0,0,1.537-1.538" transform="translate(88.238 32.562)" fill="#263238"/>
            <path id="Trazado_637419" data-name="Trazado 637419" d="M41.9,156.478a1.537,1.537,0,1,0-1.538,1.538,1.537,1.537,0,0,0,1.538-1.538" transform="translate(100.876 32.562)" fill="#263238"/>
            <path id="Trazado_637420" data-name="Trazado 637420" d="M85.468,156.478a1.538,1.538,0,1,0-1.538,1.538,1.538,1.538,0,0,0,1.538-1.538" transform="translate(4.596 32.562)" fill="#263238"/>
            <path id="Trazado_637421" data-name="Trazado 637421" d="M57.93,156.478a1.538,1.538,0,1,0-1.538,1.538,1.538,1.538,0,0,0,1.538-1.538" transform="translate(65.459 32.562)" fill="#263238"/>
            <path id="Trazado_637422" data-name="Trazado 637422" d="M79.861,156.478a1.538,1.538,0,1,0-1.537,1.538,1.538,1.538,0,0,0,1.537-1.538" transform="translate(16.988 32.562)" fill="#f5f5f5"/>
            <path id="Trazado_637423" data-name="Trazado 637423" d="M74.253,156.478a1.538,1.538,0,1,0-1.538,1.538,1.538,1.538,0,0,0,1.538-1.538" transform="translate(29.382 32.562)" fill="#f5f5f5"/>
            <path id="Trazado_637424" data-name="Trazado 637424" d="M62.877,156.478a1.538,1.538,0,1,0-1.538,1.538,1.538,1.538,0,0,0,1.538-1.538" transform="translate(54.525 32.562)" fill="#f5f5f5"/>
            <path id="Trazado_637425" data-name="Trazado 637425" d="M37.253,156.478a1.538,1.538,0,1,0-1.538,1.538,1.538,1.538,0,0,0,1.538-1.538" transform="translate(111.158 32.562)" fill="#f5f5f5"/>
            <path id="Trazado_637426" data-name="Trazado 637426" d="M68.646,156.478a1.538,1.538,0,1,0-1.538,1.538,1.538,1.538,0,0,0,1.538-1.538" transform="translate(41.775 32.562)" fill="#ff725e"/>
            <path id="Trazado_637427" data-name="Trazado 637427" d="M52.591,156.478a1.538,1.538,0,1,0-1.538,1.538,1.538,1.538,0,0,0,1.538-1.538" transform="translate(77.259 32.562)" fill="#ff725e"/>
            <path id="Trazado_637428" data-name="Trazado 637428" d="M34.179,161.925a1.538,1.538,0,1,0,1.539-1.538,1.538,1.538,0,0,0-1.539,1.538" transform="translate(111.156 33.707)" fill="#263238"/>
            <path id="Trazado_637429" data-name="Trazado 637429" d="M39.786,161.925a1.538,1.538,0,1,0,1.538-1.538,1.538,1.538,0,0,0-1.538,1.538" transform="translate(98.764 33.707)" fill="#263238"/>
            <path id="Trazado_637430" data-name="Trazado 637430" d="M45.393,161.925a1.538,1.538,0,1,0,1.538-1.538,1.538,1.538,0,0,0-1.538,1.538" transform="translate(86.371 33.707)" fill="#263238"/>
            <path id="Trazado_637431" data-name="Trazado 637431" d="M51,161.925a1.538,1.538,0,1,0,1.538-1.538A1.538,1.538,0,0,0,51,161.925" transform="translate(73.979 33.707)" fill="#263238"/>
            <path id="Trazado_637432" data-name="Trazado 637432" d="M94.452,161.925a1.538,1.538,0,1,0,1.538-1.538,1.538,1.538,0,0,0-1.538,1.538" transform="translate(-22.057 33.707)" fill="#263238"/>
            <path id="Trazado_637433" data-name="Trazado 637433" d="M100.17,161.925a1.538,1.538,0,1,0,1.538-1.538,1.538,1.538,0,0,0-1.538,1.538" transform="translate(-34.694 33.707)" fill="#263238"/>
            <path id="Trazado_637434" data-name="Trazado 637434" d="M56.608,161.925a1.538,1.538,0,1,0,1.538-1.538,1.538,1.538,0,0,0-1.538,1.538" transform="translate(61.584 33.707)" fill="#263238"/>
            <path id="Trazado_637435" data-name="Trazado 637435" d="M84.145,161.925a1.538,1.538,0,1,0,1.538-1.538,1.538,1.538,0,0,0-1.538,1.538" transform="translate(0.723 33.707)" fill="#263238"/>
            <path id="Trazado_637436" data-name="Trazado 637436" d="M62.215,161.925a1.538,1.538,0,1,0,1.538-1.538,1.538,1.538,0,0,0-1.538,1.538" transform="translate(49.192 33.707)" fill="#f5f5f5"/>
            <path id="Trazado_637437" data-name="Trazado 637437" d="M67.822,161.925a1.538,1.538,0,1,0,1.538-1.538,1.538,1.538,0,0,0-1.538,1.538" transform="translate(36.8 33.707)" fill="#f5f5f5"/>
            <path id="Trazado_637438" data-name="Trazado 637438" d="M79.2,161.925a1.538,1.538,0,1,0,1.538-1.538,1.538,1.538,0,0,0-1.538,1.538" transform="translate(11.655 33.707)" fill="#f5f5f5"/>
            <path id="Trazado_637439" data-name="Trazado 637439" d="M104.822,161.925a1.538,1.538,0,1,0,1.538-1.538,1.538,1.538,0,0,0-1.538,1.538" transform="translate(-44.976 33.707)" fill="#f5f5f5"/>
            <path id="Trazado_637440" data-name="Trazado 637440" d="M73.43,161.925a1.538,1.538,0,1,0,1.538-1.538,1.538,1.538,0,0,0-1.538,1.538" transform="translate(24.405 33.707)" fill="#ff725e"/>
            <path id="Trazado_637441" data-name="Trazado 637441" d="M89.484,161.925a1.538,1.538,0,1,0,1.538-1.538,1.538,1.538,0,0,0-1.538,1.538" transform="translate(-11.077 33.707)" fill="#ff725e"/>
            <path id="Trazado_637442" data-name="Trazado 637442" d="M60.906,23.488s.195.022.575.033l1.689.033,6.5.068,23.945.128,79.351.192-.263-.318V27.21c.03,38.41.057,73.178.076,98.37.036,12.569.064,22.747.085,29.81.021,3.5.038,6.227.048,8.1.012.909.021,1.608.027,2.108.008.474.027.718.027.718s.018-.243.027-.718c.007-.5.016-1.2.027-2.108.012-1.877.028-4.6.05-8.1.019-7.062.048-17.241.084-29.81.019-25.192.047-59.96.077-98.37V23.305H93.615l-23.945.071-6.5.051-1.689.029c-.38.01-.575.031-.575.031" transform="translate(-57.164 4.898)" fill="#263238"/>
            <path id="Trazado_637443" data-name="Trazado 637443" d="M149.433,25.251a4.467,4.467,0,1,0,4.468-4.467,4.467,4.467,0,0,0-4.468,4.467" transform="translate(-149.433 4.368)" fill="#263238"/>
          </g>
        </g>
        <g id="Grupo_970191" data-name="Grupo 970191">
          <g id="Grupo_970190" data-name="Grupo 970190" clip-path="url(#clip-path-12)">
            <path id="Trazado_637444" data-name="Trazado 637444" d="M47.505,68.053,24.3,12.062c-1.059-2.556.269-4.628,2.966-4.628h4.669c1.906,0,3.206-1.049,3.327-2.688l.155-2.058C35.541,1.049,36.84,0,38.747,0H60.933A7.766,7.766,0,0,1,66.07,2.273l1.8,1.745A7.762,7.762,0,0,0,73,6.29h28.258a7.888,7.888,0,0,1,6.749,4.626l23.006,57.136Z" transform="translate(29.789)" fill="#6530ce"/>
            <path id="Trazado_637446" data-name="Trazado 637446" d="M40.049,47.173,31.3,13.332c-.576-2.228.883-4.463,2.914-4.463h68.606a3.127,3.127,0,0,1,2.921,2.52l12.741,50.936c.56,2.238-.334,3.578-2.367,3.553L47.083,65.9A3.131,3.131,0,0,1,44.2,63.4Z" transform="translate(33.41 1.864)" fill="#e0e0e0"/>
            <path id="Trazado_637447" data-name="Trazado 637447" d="M37.581,64.832,33.852,11.539a3.269,3.269,0,0,1,3.26-3.5H108.2V64.832Z" transform="translate(40.62 1.69)" fill="#ebebeb"/>
            <path id="Trazado_637448" data-name="Trazado 637448" d="M19.98,66.051l8.457-54.94A3.938,3.938,0,0,1,32.3,8.042h71.91a3.887,3.887,0,0,1,3.629,5.415L92.315,63.736Z" transform="translate(57.425 1.69)" fill="#fafafa"/>
            <path id="Trazado_637449" data-name="Trazado 637449" d="M10.378,65.772l17.44-51.455a5.165,5.165,0,0,1,4.852-3.577H106.8a3.623,3.623,0,0,1,3.311,4.807L93.891,65.8Z" transform="translate(66.916 2.257)" fill="#ad84ff"/>
          </g>
        </g>
      </g>
    </g>
  </g>
</svg>
