<svg xmlns="http://www.w3.org/2000/svg" width="70.305" height="70.306" viewBox="0 0 70.305 70.306">
  <g id="desarrollo-de-software" transform="translate(-2 -2)">
    <ellipse id="Elipse_7732" data-name="Elipse 7732" cx="2" cy="2.5" rx="2" ry="2.5" transform="translate(13.818 3.305)" fill="#25ffff"/>
    <ellipse id="Elipse_7733" data-name="Elipse 7733" cx="2" cy="2.5" rx="2" ry="2.5" transform="translate(55.818 3.305)" fill="#25ffff"/>
    <path id="Trazado_678389" data-name="Trazado 678389" d="M26,48H40.061V59.718H26Z" transform="translate(4.122 7.901)" fill="#323232"/>
    <path id="Trazado_678390" data-name="Trazado 678390" d="M15,57H54.84v4.687H15Z" transform="translate(2.233 9.447)" fill="#263238"/>
    <path id="Trazado_678391" data-name="Trazado 678391" d="M3,11H70.962V55.527H3Z" transform="translate(0.172 1.546)" fill="#6090bf"/>
    <path id="Trazado_678392" data-name="Trazado 678392" d="M3,45H70.962v4.687H3Z" transform="translate(0.172 7.386)" fill="#263238"/>
    <g id="Grupo_992366" data-name="Grupo 992366" transform="translate(8.216 24.263)">
      <circle id="Elipse_7734" data-name="Elipse 7734" cx="2.5" cy="2.5" r="2.5" transform="translate(-0.398 8.042)" fill="#824fe8"/>
      <circle id="Elipse_7735" data-name="Elipse 7735" cx="2.5" cy="2.5" r="2.5" transform="translate(53.602 8.042)" fill="#824fe8"/>
      <path id="Trazado_678393" data-name="Trazado 678393" d="M44.092,33.889V29.2H41.408a7.932,7.932,0,0,0-.644-1.558l1.9-1.9L39.4,22.43l-1.9,1.9a7.933,7.933,0,0,0-1.617-.644V21H31.2v2.683a7.932,7.932,0,0,0-1.558.644l-1.9-1.9L24.43,25.746l1.9,1.9a7.933,7.933,0,0,0-.644,1.558H23v4.687h2.683a7.933,7.933,0,0,0,.644,1.558L24.43,37.4l3.316,3.316,1.9-1.9a7.933,7.933,0,0,0,1.558.644v2.625h4.687V39.408a7.933,7.933,0,0,0,1.558-.644l1.957,1.9L42.662,37.4l-1.9-1.9a7.933,7.933,0,0,0,.644-1.617Z" transform="translate(-4.609 -21)" fill="#824fe8"/>
    </g>
    <ellipse id="Elipse_7736" data-name="Elipse 7736" cx="3" cy="3.5" rx="3" ry="3.5" transform="translate(33.818 32.305)" fill="#ffd6ba"/>
    <path id="Trazado_678394" data-name="Trazado 678394" d="M71.134,11.374H44.183V6.687H54.94a3.515,3.515,0,1,0,0-2.344H43.012A1.172,1.172,0,0,0,41.84,5.515v5.859H32.466V5.515a1.172,1.172,0,0,0-1.172-1.172H19.365a3.515,3.515,0,1,0,0,2.344H30.122v4.687H3.172A1.172,1.172,0,0,0,2,12.546V57.073a1.172,1.172,0,0,0,1.172,1.172H28.95v7.031H17.233a1.172,1.172,0,0,0-1.172,1.172v4.687a1.172,1.172,0,0,0,1.172,1.172h39.84a1.172,1.172,0,0,0,1.172-1.172V66.447a1.172,1.172,0,0,0-1.172-1.172H45.355V58.244H71.134a1.172,1.172,0,0,0,1.172-1.172V12.546A1.172,1.172,0,0,0,71.134,11.374ZM58.244,4.344a1.172,1.172,0,1,1-1.172,1.172A1.172,1.172,0,0,1,58.244,4.344ZM16.061,6.687a1.172,1.172,0,1,1,1.172-1.172A1.172,1.172,0,0,1,16.061,6.687ZM41.84,13.718V25.154l-1.031,1.019-.141-.059V24.263A1.172,1.172,0,0,0,39.5,23.092H34.809a1.172,1.172,0,0,0-1.172,1.172v1.851l-.141.059-1.031-1.019V13.718Zm1.5,17.752a6.8,6.8,0,0,1,.551,1.336,1.172,1.172,0,0,0,1.172.832h1.465v2.344H45.015a1.172,1.172,0,0,0-1.172.832,6.8,6.8,0,0,1-.551,1.336,1.172,1.172,0,0,0,.246,1.348l1.066,1.066-1.594,1.7L41.84,41.2a1.172,1.172,0,0,0-1.394-.2,6.8,6.8,0,0,1-1.336.551,1.172,1.172,0,0,0-.832,1.172v1.465h-2.3V42.672a1.172,1.172,0,0,0-.832-1.172,6.8,6.8,0,0,1-1.336-.551,1.172,1.172,0,0,0-1.394.2l-1.066,1.066L29.7,40.668,30.767,39.6a1.172,1.172,0,0,0,.2-1.394,6.8,6.8,0,0,1-.551-1.336,1.172,1.172,0,0,0-1.172-.832H27.779v-2.4H29.29a1.172,1.172,0,0,0,1.172-.832,6.8,6.8,0,0,1,.551-1.336,1.172,1.172,0,0,0-.246-1.348L29.7,29.056,31.353,27.4l1.066,1.066a1.172,1.172,0,0,0,1.394.2,6.8,6.8,0,0,1,1.336-.551,1.172,1.172,0,0,0,.832-1.172V25.435h2.344v1.512a1.172,1.172,0,0,0,.832,1.172,6.8,6.8,0,0,1,1.336.551,1.172,1.172,0,0,0,1.348-.246l1.066-1.066,1.652,1.652-1.066,1.066a1.172,1.172,0,0,0-.152,1.394ZM30.122,13.718V25.271L27.2,28.177a1.172,1.172,0,0,0,0,1.664l1.312,1.312a.715.715,0,0,1-.059.141H26.607a1.172,1.172,0,0,0-1.172,1.172v1.172H13.507a3.515,3.515,0,1,0,0,2.344H25.435v1.172a1.172,1.172,0,0,0,1.172,1.172h1.851a.715.715,0,0,1,.059.141L27.2,39.778a1.172,1.172,0,0,0-.34.832,1.23,1.23,0,0,0,.34.832l3.316,3.316a1.172,1.172,0,0,0,1.664,0L33.5,43.445l.141.059v1.851a1.172,1.172,0,0,0,1.172,1.172H39.5a1.172,1.172,0,0,0,1.172-1.172V43.5l.141-.059,1.312,1.312a1.172,1.172,0,0,0,1.664,0L47.1,41.441a1.23,1.23,0,0,0,.34-.832,1.172,1.172,0,0,0-.34-.832l-1.312-1.312a.714.714,0,0,1,.059-.141H47.7a1.172,1.172,0,0,0,1.172-1.172V35.981H60.8a3.515,3.515,0,1,0,0-2.344H48.87V32.466A1.172,1.172,0,0,0,47.7,31.294H45.847a.715.715,0,0,1-.059-.141L47.1,29.841a1.172,1.172,0,0,0,0-1.664l-2.918-2.906V13.718H69.962v37.5H4.344v-37.5ZM11.374,34.809A1.172,1.172,0,1,1,10.2,33.638,1.172,1.172,0,0,1,11.374,34.809Zm51.557,0A1.172,1.172,0,1,1,64.1,35.981,1.172,1.172,0,0,1,62.931,34.809ZM55.9,69.962H18.4V67.618H55.9ZM43.012,65.275H31.294V58.244H43.012ZM4.344,55.9V53.557H69.962V55.9Z" transform="translate(0 0)"/>
    <path id="Trazado_678395" data-name="Trazado 678395" d="M32.687,26a4.687,4.687,0,1,0,4.687,4.687A4.687,4.687,0,0,0,32.687,26Zm0,7.031a2.344,2.344,0,1,1,2.344-2.344A2.344,2.344,0,0,1,32.687,33.031Z" transform="translate(4.466 4.122)"/>
    <path id="Trazado_678396" data-name="Trazado 678396" d="M7.172,16.344h5.859v9.374A1.172,1.172,0,0,0,14.2,26.889h7.031a1.172,1.172,0,1,0,0-2.344H15.374V15.172A1.172,1.172,0,0,0,14.2,14H7.172a1.172,1.172,0,0,0,0,2.344Z" transform="translate(0.687 2.061)"/>
    <path id="Trazado_678397" data-name="Trazado 678397" d="M59.233,14H52.2a1.172,1.172,0,0,0-1.172,1.172v9.374H45.172a1.172,1.172,0,1,0,0,2.344H52.2a1.172,1.172,0,0,0,1.172-1.172V16.344h5.859a1.172,1.172,0,1,0,0-2.344Z" transform="translate(7.214 2.061)"/>
  </g>
</svg>
