<svg xmlns="http://www.w3.org/2000/svg" xmlns:xlink="http://www.w3.org/1999/xlink" width="1258" height="380" viewBox="0 0 1258 380">
  <defs>
    <filter id="Rectángulo_344423" x="0" y="0" width="628" height="380" filterUnits="userSpaceOnUse">
      <feOffset dy="3" input="SourceAlpha"/>
      <feGaussianBlur stdDeviation="3" result="blur"/>
      <feFlood flood-opacity="0.161"/>
      <feComposite operator="in" in2="blur"/>
      <feComposite in="SourceGraphic"/>
    </filter>
    <clipPath id="clip-path">
      <rect id="Rectángulo_344428" data-name="Rectángulo 344428" width="183.301" height="63.158" fill="none"/>
    </clipPath>
    <clipPath id="clip-path-2">
      <rect id="Rectángulo_344432" data-name="Rectángulo 344432" width="191.391" height="99.399" fill="none"/>
    </clipPath>
    <clipPath id="clip-path-3">
      <path id="Trazado_667420" data-name="Trazado 667420" d="M958.476,712.822c-.34-.02-5.033-.679-7.889-1.1-4.973-.759-13.321-2.217-15.418-2.7l-.479-.1,2.975-.68c6.391-1.438,9.467-2.217,12.582-3.175a88.907,88.907,0,0,0,11.764-4.534,9.625,9.625,0,0,1,1.278-.519h.02c.08.2-3.155,9.187-4.334,12.023-.245.6-.348.781-.477.781l-.022,0m-28.8-5.093c-.719-.2-5.772-1.977-7.11-2.516a49.448,49.448,0,0,1-4.654-2.137,19.468,19.468,0,0,1-3.435-2.177c.04-.02,2.776-.759,6.072-1.658,8.748-2.377,13.6-3.755,16.777-4.753a7.968,7.968,0,0,1,1.1-.3h0c.02.02-1.4,2.3-3.874,6.211-1.059,1.658-2.237,3.535-2.657,4.194-.4.639-1,1.638-1.338,2.2l-.579,1.019Zm1.877.439a14.488,14.488,0,0,1,1.059-1.338,118.554,118.554,0,0,0,8.109-10.9c.659-1,1.218-1.818,1.218-1.838.02-.02.9.3,1.977.7a63.921,63.921,0,0,0,7.41,2.3,82.019,82.019,0,0,0,11.2,1.937c.439.04.679.08.6.14-.14.08-3.076,1.059-5.233,1.738-3.436,1.078-13.921,4.174-22.469,6.631-1.578.459-2.936.839-3.016.859a.367.367,0,0,1-.071.006c-.252,0-.788-.153-.788-.226m-18.674-8.248-.359-.26.579-.839c1.877-2.716,4.234-5.692,9.367-11.883L926,682.685h0l.639.719a37.5,37.5,0,0,0,9.367,7.669,5.236,5.236,0,0,1,1.078.7c-.139.1-12.343,4.433-17.995,6.391-3.176,1.118-5.792,2.017-5.812,2.017a3.452,3.452,0,0,1-.4-.26m-2.257-1.8a33.26,33.26,0,0,1-3.715-3.795,16.394,16.394,0,0,1-3.335-6.451c-.22-.959-.22-1.438-.02-1.5.3-.08,5.632-1.338,10.625-2.5,2.776-.639,5.991-1.4,7.15-1.677s2.1-.5,2.117-.5c.04.04-2.5,3.695-6.052,8.668-1.238,1.738-2.676,3.775-3.215,4.534s-1.358,1.957-1.817,2.676l-.839,1.3Zm58.388-17.966h0m0,0h0m0,0h0m0,0h0m0,0h0m0,0h0m0,0h0m0,0h0m-5.414,18.174a83.464,83.464,0,0,1-16.237-4.574c-1.4-.559-3.4-1.458-3.515-1.558a23.329,23.329,0,0,1,2.677-1.258c9.087-3.974,18.514-8.488,21.75-10.425a2.6,2.6,0,0,1,.739-.359c.02.459-1,4.574-1.838,7.549-.7,2.5-1.3,4.454-2.4,7.909-.479,1.518-.9,2.776-.919,2.776a1.318,1.318,0,0,1-.26-.06m-24.306-8.608a41.073,41.073,0,0,1-10.445-8.888l-.36-.439,1.817-.5a130.424,130.424,0,0,0,17.536-6.051c.779-.32,1.418-.58,1.438-.58a5.74,5.74,0,0,1-.34.919A126.485,126.485,0,0,1,942,688.137c-.739,1.318-1.358,2.377-1.378,2.377s-.619-.36-1.338-.8m5.772-.859c0-.02.36-.719.819-1.578a98.548,98.548,0,0,0,6.292-14.32c.16-.379.26-.719.28-.739a8.049,8.049,0,0,1,1.078.579,60.162,60.162,0,0,0,15.3,5.952l.46.1-.639.359c-2.656,1.478-11.384,5.113-20.311,8.448-1.3.479-2.577.959-2.817,1.058a2.046,2.046,0,0,1-.449.144c-.007,0-.01,0-.01,0m-41.6-4.174c.459-2.936,2.7-6.77,5.812-10.006a25.832,25.832,0,0,1,6.571-5.033c2.037-1.158,5.173-2.9,5.412-2.976,0-.02.02-.02.04-.02.08,0,.06.16-.06.879-.08.519-.18,1.478-.219,2.137a14.776,14.776,0,0,0,1.757,8.029,16.493,16.493,0,0,1,.7,1.518c-.14.12-13.361,3.995-17.516,5.133-1.238.34-2.316.639-2.4.659a.3.3,0,0,1-.076.015c-.068,0-.07-.071-.023-.335m64.69-7.01a51.55,51.55,0,0,1-9.187-3.934,40.675,40.675,0,0,1-4.673-2.876c.02-.02.859-.459,1.837-.979a117.693,117.693,0,0,0,10.925-6.411c1.218-.819,3.055-2.137,3.455-2.5l.319-.24v.839a108.664,108.664,0,0,1-1.178,15.019c-.12.779-.22,1.418-.24,1.438,0,0-.579-.16-1.258-.36m-42.081-1.138a18.316,18.316,0,0,1-1.538-4.634,18.646,18.646,0,0,1,.1-5.952c.259-1.238.24-1.218.839-1.518,2.557-1.3,10.825-5.173,10.905-5.093a44.683,44.683,0,0,1-1.957,4.134c-1.937,3.775-4.054,7.49-6.891,12-.479.779-.938,1.5-1,1.578-.029.041-.053.067-.081.067-.066,0-.153-.148-.379-.586m4.893-.4a112.3,112.3,0,0,0,7.889-15.9c.34-.879.679-1.757.739-1.957a.72.72,0,0,1,.439-.519,1.933,1.933,0,0,1,.34-.08.074.074,0,0,1,.06.02,3.722,3.722,0,0,1,.3.719,26.967,26.967,0,0,0,3.315,5.932,33.8,33.8,0,0,0,4.613,4.973c.48.4.919.779.979.839.12.12.16.1-3.1,1.338-3.775,1.438-7.889,2.876-12.6,4.394q-1.689.545-3.375,1.1a.226.226,0,0,1-.064.014c-.088,0,.021-.176.463-.873m16.337-11.3a27.026,27.026,0,0,1-3.675-5.352,16.844,16.844,0,0,1-1.119-2.716c.319-.22,10.845-4.294,10.925-4.214a43.049,43.049,0,0,1-.12,5.812,50.809,50.809,0,0,1-1.837,8.688,13.356,13.356,0,0,1-.459,1.4.008.008,0,0,1-.007,0,37.057,37.057,0,0,1-3.708-3.618m6.571,2.737A58.888,58.888,0,0,0,956,653.525c.02-2,.02-2,.2-2.057-.04.02-.02.02,0,.02a6.627,6.627,0,0,1,1.737.939,123.87,123.87,0,0,0,12.1,6.731c.739.32.819.2-.879,1.358a87.06,87.06,0,0,1-13.721,7.37c-.979.439-1.8.779-1.817.779a5.188,5.188,0,0,1,.239-1.1m11.145-12.482c-2-1.258-5.792-3.775-6.391-4.254-.2-.14-.18-.16,1.458-.719,2.776-.939,9.367-3.056,9.587-3.056.24,0,.879,6.131,1.038,10.006a5.35,5.35,0,0,1-.02,1.358c-.16,0-3.375-1.9-5.672-3.335m-15.738-2.936-22.988,10.146-6.431,1.7c-1.638,1.558-3.355,3.136-5.213,4.734-2.037,1.757-3.934,3.355-5.393,4.513a40.23,40.23,0,0,0-5.233,5.193,23.547,23.547,0,0,0-3.875,6.551,11,11,0,0,0,1.558,9.886c2.716,3.994,8.129,8.068,14.44,10.845a91.748,91.748,0,0,0,12.7,4.254,168.2,168.2,0,0,0,27.082,3.855,31.052,31.052,0,0,0,3.495,0,47.626,47.626,0,0,0,2.577-4.893,123.711,123.711,0,0,0,9.367-24.786,117.487,117.487,0,0,0,2.4-17.176c.14-1.937.2-8.428.08-10.626a74.637,74.637,0,0,0-1-9.367,2.153,2.153,0,0,1-.06-.819,34.422,34.422,0,0,1,3.575-1.079l-.659-1.558h0Z" transform="translate(-899.582 -643.519)" fill="none"/>
    </clipPath>
    <linearGradient id="linear-gradient" x1="-0.714" y1="1.468" x2="-0.713" y2="1.468" gradientUnits="objectBoundingBox">
      <stop offset="0" stop-color="#909ca9"/>
      <stop offset="1" stop-color="#ededee"/>
    </linearGradient>
    <clipPath id="clip-path-4">
      <path id="Trazado_667421" data-name="Trazado 667421" d="M1142.579,22.231c-6.77-1.1-8.948-1.458-8.948-1.5a2.078,2.078,0,0,1,.459-.3,38.965,38.965,0,0,0,6.092-4.214c.459-.38.879-.739.958-.8.02-.04.06-.06.08-.04.08,0,.18.18.419.719.679,1.5,2.8,5.532,3.315,6.311.071.115.165.183,0,.183-.2,0-.812-.107-2.38-.363m-24.625-4.294c-2.177-.5-3.076-.739-4.414-1.158l-1.1-.36v-.28c.02-1.338,1.718-3.335,4.593-5.372l.26-.18,2.816,3.515c1.538,1.937,3.1,3.835,3.435,4.254a6.579,6.579,0,0,1,.6.779.053.053,0,0,1-.025,0c-.345,0-4.127-.74-6.167-1.2m11.3,2.1-.8-.12-2-1.957c-3.515-3.415-6.272-6.051-7.33-7.05l-1.039-.938.779.259a119.052,119.052,0,0,0,20.751,3.955c.659.06,1.218.12,1.238.12a9.249,9.249,0,0,1-1.258.659c-2.836,1.418-5.952,3.156-8.109,4.494a8.288,8.288,0,0,1-1.3.719c-.08,0-.5-.08-.939-.14m10.106-7.55c-2.037-.559-11.164-2.137-17.775-3.056-1.058-.14-1.957-.28-1.957-.3-.08-.08,4.773-2.616,6.91-3.615,2.736-1.258,10.246-4.394,10.8-4.494h.02c.02.02.1.579.18,1.238a41.721,41.721,0,0,0,1.937,8.408c.527,1.566.678,1.955.41,1.955a2.569,2.569,0,0,1-.53-.138m-13.8-8.129a75.585,75.585,0,0,0-13.921,6.99,10.559,10.559,0,0,0-2.7,2.7,1.867,1.867,0,0,0-.12.679l2.676,2.537,6.371,2.037,15.159,2.716,17.336,2.976.18-1.5c-.06,0-.1-.02-.159-.02l-2.277-.36-.459-.819c-2.357-4.154-4.953-9.307-6.471-12.782a66.057,66.057,0,0,1-2.916-8.049c-.34-1.358-.38-1.438-.6-1.458h-.018c-.584,0-7.564,2.519-12.085,4.355" transform="translate(-1108.826 -0.001)" fill="none"/>
    </clipPath>
    <linearGradient id="linear-gradient-2" x1="-2.544" y1="7.742" x2="-2.542" y2="7.742" gradientUnits="objectBoundingBox">
      <stop offset="0" stop-color="#939fab"/>
      <stop offset="1" stop-color="#dcdee1"/>
    </linearGradient>
    <clipPath id="clip-path-5">
      <path id="Trazado_667423" data-name="Trazado 667423" d="M1092.184,168.185h0m-72.219,37.448c1.318-1.418,2.317-2.616,3.455-4.094a6.753,6.753,0,0,1,2-1.9c2.936-2.117,9.706-6.711,9.786-6.631a42.235,42.235,0,0,1-3.755,4.234,66.249,66.249,0,0,1-12.4,10.007c-.6.379-1.138.719-1.2.759a.09.09,0,0,1-.032.014,29.571,29.571,0,0,1,2.149-2.391m1.059,2.477c0-.02.619-.479,1.378-1.039a80.536,80.536,0,0,0,15.019-13.841c.42-.5.8-.959.839-.979h.04c.1-.02.22.16.759.959a14.408,14.408,0,0,1,2.238,5.812l.039.4-2.736,1.059c-4.894,1.9-9.407,3.775-12.463,5.172-.859.4-2.357,1.118-3.335,1.6-.954.486-1.737.859-1.776.859h0m5.792-11.324a36.806,36.806,0,0,0,2.676-4.614,37.177,37.177,0,0,0,1.677-4.174,3.389,3.389,0,0,1,.4-1.019,8.8,8.8,0,0,1,1.039.519,21.936,21.936,0,0,1,3.435,2.317,5.952,5.952,0,0,1-1.158.958c-1.9,1.358-4.773,3.535-6.451,4.873a15.619,15.619,0,0,1-1.688,1.289c-.027,0,.009-.06.07-.15m15.858,1.3a16.736,16.736,0,0,0-1.7-7.19c-.459-.919-.539-1.138-.439-1.238.38-.34,6.191-3.655,9.866-5.632,2.477-1.318,6.351-3.275,6.411-3.235h0c.04.04-2.7,3.894-4.334,6.071-1.957,2.6-5.432,6.95-7.829,9.786-1,1.179-1.857,2.157-1.9,2.177h-.005c-.056,0-.074-.295-.074-.74m4.194-1.838a87.7,87.7,0,0,0,13.421-15.418l.7-1.078.979.639a75.967,75.967,0,0,1,6.89,5.093c1.138.939,3.335,2.916,3.775,3.4l.239.26-1.617.459c-9.147,2.536-16.217,4.793-24.466,7.829-.919.339-1.7.619-1.758.619H1045c-.087,0,.008-.082,1.87-1.8m-9.008-9.507a14.668,14.668,0,0,0-3.715-2.736,5.379,5.379,0,0,1-.959-.559c0-.16,3.415-3.256,6.032-5.493,1.877-1.618,5.832-4.793,5.891-4.733a38.1,38.1,0,0,1-1.038,3.855,49.161,49.161,0,0,1-3.535,8.109c-.32.559-.8,1.378-1.059,1.837l-.5.8Zm5.572-2.5a41.7,41.7,0,0,0,4.055-11c.08-.3.16-.5.219-.5.28.06,2.876,1.278,4.833,2.257,1.8.9,4.494,2.337,4.634,2.456.02.02-.939.519-2.117,1.1-3.755,1.877-6.97,3.655-10.326,5.692-.959.579-1.757,1.059-1.777,1.059-.08,0-.06-.08.479-1.059m48.752-16.058a4.6,4.6,0,0,1,1.139.559,67.737,67.737,0,0,1,13.361,10.026c1.059,1.039,3.675,3.755,3.635,3.775,0,0-.919.08-2,.16a196.858,196.858,0,0,0-29.519,4.913c-.7.16-1.318.3-1.358.3s.739-.779,1.718-1.717c6.071-5.852,8.848-9.547,12.123-16.138.459-.978.859-1.817.9-1.877h0m-17.855,19.533a41.265,41.265,0,0,0-8.089-8.928c-.6-.5-1.258-1.039-1.478-1.2a2.227,2.227,0,0,1-.4-.339c0-.06,3.395-1.518,5.972-2.557,4.514-1.837,10.665-4.034,15.278-5.452,2.417-.759,4.993-1.5,5.033-1.458a38.353,38.353,0,0,1-2.117,3.295c-1.2,1.718-2.956,3.995-6.931,8.988-2.1,2.636-4.454,5.612-5.232,6.611-.8,1-1.458,1.837-1.478,1.837a6.921,6.921,0,0,1-.559-.8m-41.642-6.891a45.023,45.023,0,0,0-.28-12.043c-.06-.559-.12-1.038-.1-1.058.06-.06,2.836.6,4.334,1.018,2.277.639,7.11,2.257,7.11,2.377,0,.02-.539.479-1.178,1.039-2.616,2.177-5.133,4.473-8.149,7.389-.9.859-1.657,1.558-1.7,1.558s-.06-.12-.04-.28m31.816-7.43a40.453,40.453,0,0,0,3.854-13.3c.02-.38.08-.679.14-.679.18,0,3.815,1,5.712,1.558a117.825,117.825,0,0,1,13.6,4.973l1.458.659-1.018.239a148.881,148.881,0,0,0-23.028,7.13c-.579.24-1.1.439-1.138.439a5.128,5.128,0,0,1,.419-1.019m-5.033.679a65.076,65.076,0,0,0-7.829-3.835c-.8-.339-1.5-.619-1.518-.659-.14-.12,6.291-4.374,9.687-6.411,2.7-1.638,7.09-4.074,7.17-3.994a15.023,15.023,0,0,1-.44,2.636,50.058,50.058,0,0,1-5.032,11.544,13.185,13.185,0,0,1-.839,1.358h-.005a9.661,9.661,0,0,1-1.193-.64m-11.324-7.589a27.9,27.9,0,0,0-2.157-10.865,3.022,3.022,0,0,1-.239-.639c.06-.06,8.268,1.358,12,2.077,2.776.539,6.81,1.378,7.05,1.478.12.04-.3.279-1.638.879a86.685,86.685,0,0,0-13.081,7.11c-1.019.679-1.878,1.238-1.9,1.238a10.888,10.888,0,0,1-.04-1.278m-3.316,1.238c-2.137-.679-5.612-1.7-8.588-2.537-1.7-.459-3.076-.879-3.076-.919a47.252,47.252,0,0,1,3.535-3.535,92.749,92.749,0,0,1,7.669-5.952,7.686,7.686,0,0,1,.719,2.217,32.694,32.694,0,0,1,.959,9.147c-.04.839-.08,1.618-.12,1.718l-.06.2Zm-17.755-16.237a7.838,7.838,0,0,1,1.078.18c3.4.759,9.487,1.917,13.381,2.576a4.892,4.892,0,0,1,1.178.26,2.022,2.022,0,0,1-.54.34c-.659.339-3.315,1.917-4.194,2.516a38.253,38.253,0,0,0-5.652,4.513c-.579.579-1.079,1.059-1.079,1.059s-.119-.339-.22-.759a64.724,64.724,0,0,0-3.575-9.786c-.2-.412-.362-.792-.394-.895a.03.03,0,0,1,.015,0m1.458,9.706a41.571,41.571,0,0,0-10.306-11.644,8.523,8.523,0,0,1-.978-.779,5.58,5.58,0,0,1,.759.24c.759.259,1.738.559,2.9.879q1.315.362,2.636.7c1.2.3,2.2.579,2.217.579.14.14,2.157,6.59,2.836,9.067.259.939.46,1.738.439,1.738h0a4.479,4.479,0,0,1-.5-.78m-16.457-15.678a7.892,7.892,0,0,0,1.877,2.217s8.888,8.668,9.966,9.906c4.913,5.672,7.05,11.264,7.25,18.974a30.719,30.719,0,0,1-3.156,14.36c-4.154,9.067-12.922,19.074-26.443,30.178l1.978-.659a63.481,63.481,0,0,1,7.09-4.214,252.741,252.741,0,0,1,32.974-14.76c18.694-7.03,49.431-15.259,66.926-17.935l1.818-.28-.28-.439a61.588,61.588,0,0,0-4.015-5.652,47.988,47.988,0,0,0-14.18-11.8c-7.829-4.374-17.955-7.789-30.777-10.325-2.417-.48-7.729-1.4-12.043-2.057-9.147-1.418-15.059-2.4-21.57-3.515-2.336-.4-5.832-1-8.148-1.5a51.75,51.75,0,0,1-5.293-1.418c-1.438-.559-3.515-1.119-3.955-2.816a1.99,1.99,0,0,0-.02,1.738" transform="translate(-1001.57 -143.779)" fill="none"/>
    </clipPath>
    <radialGradient id="radial-gradient" cx="0.453" cy="0.457" r="0.09" gradientTransform="matrix(-0.813, -0.149, -0.244, 1.978, -0.708, -1.838)" gradientUnits="objectBoundingBox">
      <stop offset="0" stop-color="#ee352c"/>
      <stop offset="1" stop-color="#a91d22"/>
    </radialGradient>
    <clipPath id="clip-path-6">
      <rect id="Rectángulo_344435" data-name="Rectángulo 344435" width="239.264" height="193.442" fill="none"/>
    </clipPath>
    <filter id="Rectángulo_344425" x="630" y="0" width="628" height="380" filterUnits="userSpaceOnUse">
      <feOffset dy="3" input="SourceAlpha"/>
      <feGaussianBlur stdDeviation="3" result="blur-2"/>
      <feFlood flood-opacity="0.161"/>
      <feComposite operator="in" in2="blur-2"/>
      <feComposite in="SourceGraphic"/>
    </filter>
    <clipPath id="clip-path-7">
      <rect id="Rectángulo_344449" data-name="Rectángulo 344449" width="222.241" height="55.001" fill="none"/>
    </clipPath>
    <clipPath id="clip-path-8">
      <rect id="Rectángulo_344450" data-name="Rectángulo 344450" width="148.38" height="74.633" fill="none"/>
    </clipPath>
    <clipPath id="clip-path-9">
      <rect id="Rectángulo_344451" data-name="Rectángulo 344451" width="159.363" height="55.888" fill="none"/>
    </clipPath>
  </defs>
  <g id="Grupo_996306" data-name="Grupo 996306" transform="translate(-171.254 -6631)">
    <g id="Grupo_991643" data-name="Grupo 991643" transform="translate(0 -543)">
      <g transform="matrix(1, 0, 0, 1, 171.25, 7174)" filter="url(#Rectángulo_344423)">
        <rect id="Rectángulo_344423-2" data-name="Rectángulo 344423" width="610" height="362" rx="10" transform="translate(9 6)" fill="#fdfcff"/>
      </g>
      <g id="Grupo_991616" data-name="Grupo 991616" transform="translate(233.254 7223)">
        <rect id="Rectángulo_344426" data-name="Rectángulo 344426" width="176.032" height="1.612" transform="translate(0.348 34.365)" fill="#888080"/>
        <rect id="Rectángulo_344427" data-name="Rectángulo 344427" width="176.032" height="1.612" transform="translate(0.348 34.365)" fill="#666c70"/>
        <g id="Grupo_991615" data-name="Grupo 991615">
          <g id="Grupo_991614" data-name="Grupo 991614" clip-path="url(#clip-path)">
            <path id="Trazado_667362" data-name="Trazado 667362" d="M233.221,14.958H244.9l-6.17-9.95L227.4,22.985l-5.164.007L236.018,1.406A3.265,3.265,0,0,1,238.718,0a3.194,3.194,0,0,1,2.663,1.369l13.834,21.624-5.164-.007-2.434-4.017H235.8Z" transform="translate(-156.914)" fill="#d4d5dc"/>
            <path id="Trazado_667363" data-name="Trazado 667363" d="M431.35,19.5V.752h-4.387V21.341a2.136,2.136,0,0,0,.651,1.509,2.224,2.224,0,0,0,1.6.666h19.945l2.6-4.017Z" transform="translate(-301.466 -0.531)" fill="#d4d5dc"/>
            <path id="Trazado_667364" data-name="Trazado 667364" d="M149.528,16.142a7.7,7.7,0,0,0,0-15.395H130.374V23.518h4.372V4.771h14.485a3.684,3.684,0,0,1,0,7.368l-12.339-.007,13.065,11.385h6.355l-8.781-7.376Z" transform="translate(-92.053 -0.527)" fill="#d4d5dc"/>
            <path id="Trazado_667365" data-name="Trazado 667365" d="M11.385,23.529a11.382,11.382,0,1,1,0-22.763H24.62a11.385,11.385,0,0,1,0,22.77Zm12.932-4.01a7.368,7.368,0,1,0,0-14.736H11.682a7.368,7.368,0,0,0,0,14.736H24.317" transform="translate(0 -0.541)" fill="#d4d5dc"/>
            <path id="Trazado_667366" data-name="Trazado 667366" d="M338.146,23.528a11.382,11.382,0,1,1,0-22.763h15.721l-2.59,4.017H338.434a7.368,7.368,0,1,0,0,14.737h15.772l-2.567,4.009Z" transform="translate(-230.7 -0.54)" fill="#d4d5dc"/>
            <path id="Trazado_667367" data-name="Trazado 667367" d="M519.611,19.519a7.352,7.352,0,0,1-7.08-5.363h18.694l2.582-4.01H512.531a7.337,7.337,0,0,1,7.08-5.363h12.842L535.02.766h-15.7a11.382,11.382,0,1,0,0,22.763h13.5l2.575-4.01Z" transform="translate(-358.639 -0.541)" fill="#d4d5dc"/>
            <path id="Trazado_667368" data-name="Trazado 667368" d="M606.753,2.877a2.016,2.016,0,1,1,2.012,2,2,2,0,0,1-2.012-2m2.012,2.56a2.56,2.56,0,0,0,0-5.119,2.56,2.56,0,1,0,0,5.119m-.237-4.069a2.472,2.472,0,0,1,.762.074.808.808,0,0,1,.54.8l-.029.237a.708.708,0,0,1-.34.5l-.125.066.658,1.184h-.644l-.584-1.1h-.378v1.1h-.57V1.368h.71m.207,1.294.458-.185.089-.244-.222-.355a1.455,1.455,0,0,0-.532-.051h-.141v.836h.348" transform="translate(-428.024 -0.224)" fill="#d4d5dc"/>
            <path id="Trazado_667369" data-name="Trazado 667369" d="M233.221,14.958H244.9l-6.17-9.95L227.4,22.985l-5.164.007L236.018,1.406A3.265,3.265,0,0,1,238.718,0a3.194,3.194,0,0,1,2.663,1.369l13.834,21.624-5.164-.007-2.434-4.017H235.8Z" transform="translate(-156.914)" fill="#d40219"/>
            <path id="Trazado_667370" data-name="Trazado 667370" d="M431.35,19.5V.752h-4.387V21.341a2.136,2.136,0,0,0,.651,1.509,2.224,2.224,0,0,0,1.6.666h19.945l2.6-4.017Z" transform="translate(-301.466 -0.531)" fill="#d40219"/>
            <path id="Trazado_667371" data-name="Trazado 667371" d="M149.528,16.142a7.7,7.7,0,0,0,0-15.395H130.374V23.518h4.372V4.771h14.485a3.684,3.684,0,0,1,0,7.368l-12.339-.007,13.065,11.385h6.355l-8.781-7.376Z" transform="translate(-92.053 -0.527)" fill="#d40219"/>
            <path id="Trazado_667372" data-name="Trazado 667372" d="M11.385,23.529a11.382,11.382,0,1,1,0-22.763H24.62a11.385,11.385,0,0,1,0,22.77Zm12.932-4.01a7.368,7.368,0,1,0,0-14.736H11.682a7.368,7.368,0,0,0,0,14.736H24.317" transform="translate(0 -0.541)" fill="#d40219"/>
            <path id="Trazado_667373" data-name="Trazado 667373" d="M338.146,23.528a11.382,11.382,0,1,1,0-22.763h15.721l-2.59,4.017H338.434a7.368,7.368,0,1,0,0,14.737h15.772l-2.567,4.009Z" transform="translate(-230.7 -0.54)" fill="#d40219"/>
            <path id="Trazado_667374" data-name="Trazado 667374" d="M519.611,19.519a7.352,7.352,0,0,1-7.08-5.363h18.694l2.582-4.01H512.531a7.337,7.337,0,0,1,7.08-5.363h12.842L535.02.766h-15.7a11.382,11.382,0,1,0,0,22.763h13.5l2.575-4.01Z" transform="translate(-358.639 -0.541)" fill="#d40219"/>
            <path id="Trazado_667375" data-name="Trazado 667375" d="M606.753,2.877a2.016,2.016,0,1,1,2.012,2,2,2,0,0,1-2.012-2m2.012,2.56a2.56,2.56,0,0,0,0-5.119,2.56,2.56,0,1,0,0,5.119m-.237-4.069a2.472,2.472,0,0,1,.762.074.808.808,0,0,1,.54.8l-.029.237a.708.708,0,0,1-.34.5l-.125.066.658,1.184h-.644l-.584-1.1h-.378v1.1h-.57V1.368h.71m.207,1.294.458-.185.089-.244-.222-.355a1.455,1.455,0,0,0-.532-.051h-.141v.836h.348" transform="translate(-428.024 -0.224)" fill="#d40219"/>
            <path id="Trazado_667376" data-name="Trazado 667376" d="M1.064,160.7H6.383c4.853-.037,7.871,2.382,7.871,7.8s-3.018,7.849-7.871,7.79H1.064ZM4.415,173.7H6.146c3.973.037,4.55-2.722,4.55-5.208s-.577-5.245-4.55-5.2H4.415Z" transform="translate(-0.751 -113.462)" fill="#1f1b1a"/>
            <path id="Trazado_667377" data-name="Trazado 667377" d="M81.439,176.3l5.645-15.587h3.972L96.471,176.3H93.106L91.981,173H85.8l-1.162,3.3Zm9.7-5.889-2.131-6.65h-.052l-2.286,6.65Z" transform="translate(-57.502 -113.475)" fill="#1f1b1a"/>
            <path id="Trazado_667378" data-name="Trazado 667378" d="M160.271,160.7h12.643v2.6h-4.646v12.991h-3.344V163.294h-4.653Z" transform="translate(-113.163 -113.464)" fill="#1f1b1a"/>
            <path id="Trazado_667379" data-name="Trazado 667379" d="M232.292,176.3l5.637-15.587h3.98l5.415,15.587h-3.365l-1.125-3.3h-6.185l-1.161,3.3Zm9.7-5.889-2.138-6.65h-.045l-2.293,6.65Z" transform="translate(-164.015 -113.475)" fill="#1f1b1a"/>
            <path id="Trazado_667380" data-name="Trazado 667380" d="M320.536,176.246V160.658h5.852c2.781-.17,5.637,1,5.637,4.039a3.638,3.638,0,0,1-2.744,3.418v.037a3.979,3.979,0,0,1,3.432,4.062c0,3.092-3.884,4.217-6.274,4.032Zm5.963-9.321c1.405,0,2.182-.585,2.182-1.842s-.777-1.827-2.182-1.827h-2.612v3.669Zm0,6.739c1.575,0,2.655-.281,2.655-2.071s-1.08-2.079-2.655-2.079h-2.612v4.15Z" transform="translate(-226.321 -113.425)" fill="#1f1b1a"/>
            <path id="Trazado_667381" data-name="Trazado 667381" d="M396.662,176.3l5.637-15.587h3.972l5.422,15.587h-3.365L407.2,173h-6.177l-1.169,3.3Zm9.7-5.889-2.146-6.65h-.037l-2.286,6.65Z" transform="translate(-280.071 -113.475)" fill="#1f1b1a"/>
            <path id="Trazado_667382" data-name="Trazado 667382" d="M491.523,164.377a2.29,2.29,0,0,0-2.59-2.353c-1.235,0-2.486.644-2.486,2,0,1.687,1.509,1.886,2.849,2.2,2.382.6,5.874,1.272,5.874,4.409,0,3.869-3.366,5.208-6.71,5.208-3.573,0-6.1-1.383-5.985-5.319h3.41a2.463,2.463,0,0,0,2.611,2.893c1.339,0,3.107-.407,3.107-2.064,0-1.842-2.219-1.968-3.558-2.323-2.182-.532-5.164-1.531-5.164-4.3,0-3.551,3.277-5.134,6.48-5.134,3.019,0,5.379,1.635,5.379,4.772Z" transform="translate(-340.659 -112.692)" fill="#1f1b1a"/>
            <path id="Trazado_667383" data-name="Trazado 667383" d="M564.342,160.7H574.8v2.6h-7.11v3.647h6.658v2.589h-6.658V173.7h7.346v2.582h-10.69Z" transform="translate(-398.466 -113.464)" fill="#1f1b1a"/>
            <path id="Trazado_667384" data-name="Trazado 667384" d="M1.064,160.7H6.383c4.853-.037,7.871,2.382,7.871,7.8s-3.018,7.849-7.871,7.79H1.064ZM4.415,173.7H6.146c3.973.037,4.55-2.722,4.55-5.208s-.577-5.245-4.55-5.2H4.415Z" transform="translate(-0.751 -113.462)" fill="#1f1b1a"/>
            <path id="Trazado_667385" data-name="Trazado 667385" d="M81.439,176.3l5.645-15.587h3.972L96.471,176.3H93.106L91.981,173H85.8l-1.162,3.3Zm9.7-5.889-2.131-6.65h-.052l-2.286,6.65Z" transform="translate(-57.502 -113.475)" fill="#1f1b1a"/>
            <path id="Trazado_667386" data-name="Trazado 667386" d="M160.271,160.7h12.643v2.6h-4.646v12.991h-3.344V163.294h-4.653Z" transform="translate(-113.163 -113.464)" fill="#1f1b1a"/>
            <path id="Trazado_667387" data-name="Trazado 667387" d="M232.292,176.3l5.637-15.587h3.98l5.415,15.587h-3.365l-1.125-3.3h-6.185l-1.161,3.3Zm9.7-5.889-2.138-6.65h-.045l-2.293,6.65Z" transform="translate(-164.015 -113.475)" fill="#1f1b1a"/>
            <path id="Trazado_667388" data-name="Trazado 667388" d="M320.536,176.246V160.658h5.852c2.781-.17,5.637,1,5.637,4.039a3.638,3.638,0,0,1-2.744,3.418v.037a3.979,3.979,0,0,1,3.432,4.062c0,3.092-3.884,4.217-6.274,4.032Zm5.963-9.321c1.405,0,2.182-.585,2.182-1.842s-.777-1.827-2.182-1.827h-2.612v3.669Zm0,6.739c1.575,0,2.655-.281,2.655-2.071s-1.08-2.079-2.655-2.079h-2.612v4.15Z" transform="translate(-226.321 -113.425)" fill="#1f1b1a"/>
            <path id="Trazado_667389" data-name="Trazado 667389" d="M396.662,176.3l5.637-15.587h3.972l5.422,15.587h-3.365L407.2,173h-6.177l-1.169,3.3Zm9.7-5.889-2.146-6.65h-.037l-2.286,6.65Z" transform="translate(-280.071 -113.475)" fill="#1f1b1a"/>
            <path id="Trazado_667390" data-name="Trazado 667390" d="M491.523,164.377a2.29,2.29,0,0,0-2.59-2.353c-1.235,0-2.486.644-2.486,2,0,1.687,1.509,1.886,2.849,2.2,2.382.6,5.874,1.272,5.874,4.409,0,3.869-3.366,5.208-6.71,5.208-3.573,0-6.1-1.383-5.985-5.319h3.41a2.463,2.463,0,0,0,2.611,2.893c1.339,0,3.107-.407,3.107-2.064,0-1.842-2.219-1.968-3.558-2.323-2.182-.532-5.164-1.531-5.164-4.3,0-3.551,3.277-5.134,6.48-5.134,3.019,0,5.379,1.635,5.379,4.772Z" transform="translate(-340.659 -112.692)" fill="#1f1b1a"/>
            <path id="Trazado_667391" data-name="Trazado 667391" d="M564.342,160.7H574.8v2.6h-7.11v3.647h6.658v2.589h-6.658V173.7h7.346v2.582h-10.69Z" transform="translate(-398.466 -113.464)" fill="#1f1b1a"/>
          </g>
        </g>
      </g>
      <g id="Grupo_991618" data-name="Grupo 991618" transform="translate(539.863 7384.191)">
        <g id="Grupo_991617" data-name="Grupo 991617" transform="translate(0 0)" clip-path="url(#clip-path-2)">
          <path id="Trazado_667392" data-name="Trazado 667392" d="M0,85.6H6.365V60.524l9.815,21.865c1.165,2.625,2.72,3.547,5.831,3.547s4.664-.922,5.831-3.547l9.814-21.865V85.6h6.317V60.573c0-2.43-.972-3.6-2.964-4.228-4.81-1.506-8.066-.194-9.523,3.061l-9.62,21.525-9.33-21.525c-1.409-3.255-4.713-4.567-9.523-3.061C.971,56.977,0,58.144,0,60.573Z" transform="translate(0 4.96)" fill="#005077" fill-rule="evenodd"/>
          <path id="Trazado_667393" data-name="Trazado 667393" d="M45.242,64.42h6.316v13.8c-.048.778.243,2.527,3.742,2.576,1.749.049,13.653,0,13.75,0V64.371h6.366c.048,0,0,22.4,0,22.5.048,5.54-6.852,6.705-10.01,6.8H45.388V89.394s19.97.049,20.018,0c4.082-.388,3.6-2.428,3.6-3.109V84.633H55.543c-6.268-.1-10.253-2.818-10.3-5.976,0-.292.146-14.091,0-14.237" transform="translate(4.027 5.729)" fill="#005077" fill-rule="evenodd"/>
          <path id="Trazado_667394" data-name="Trazado 667394" d="M175.951,54.261c-3.887-.1-6.851.243-9.426,1.36-.729.292-1.846.292-1.992,1.215a6.62,6.62,0,0,1,.778,1.554,12.56,12.56,0,0,0,2.574,2.964,35.559,35.559,0,0,0,3.061,2.236c1.944,1.165,4.082,1.8,5.88,2.963,1.117.681,2.187,1.555,3.255,2.333a6.144,6.144,0,0,0,1.507,1.214V70a15.207,15.207,0,0,1-.73-1.555L179.4,66.992a24.2,24.2,0,0,0-5.1-4.859c-1.506-1.069-4.908-2.576-5.54-4.324-.048-.049-.1-.049-.1-.1a32.9,32.9,0,0,0,3.3-.778c1.652-.438,3.158-.34,4.859-.778.778-.243,1.555-.438,2.333-.681v-.437a34.491,34.491,0,0,0-2.43-2.867,68.253,68.253,0,0,0-7.969-5.976,49.4,49.4,0,0,0-5.1-2.477c-.535-.243-1.506-.389-1.895-.874A22.808,22.808,0,0,1,159.77,39.1c-1.409-2.72-2.769-5.636-3.984-8.454a51.8,51.8,0,0,0-2.43-5.54C148.3,16.847,142.91,11.843,134.5,6.936a23.324,23.324,0,0,0-6.219-1.993c-1.214-.1-2.43-.146-3.644-.243A22.079,22.079,0,0,1,122.4,3.048c-2.769-1.749-9.911-5.588-11.952-.535-1.312,3.158,1.943,6.268,3.109,7.871a22.581,22.581,0,0,1,2.43,3.645c.389.825.438,1.652.778,2.527a65.4,65.4,0,0,0,2.526,6.559,23.4,23.4,0,0,0,1.8,3.012c.389.535,1.117.778,1.214,1.653-.68.971-.729,2.428-1.117,3.644-1.7,5.491-1.068,12.244,1.457,16.325.779,1.215,2.576,3.888,5.1,2.867,2.187-.923,1.7-3.645,2.333-6.122.146-.535.049-.923.34-1.312v.1c.632,1.361,1.312,2.672,1.993,3.985a26.122,26.122,0,0,0,6.316,6.559c1.117.874,2.041,2.382,3.547,2.867v-.1h-.146c-.292-.438-.729-.632-1.068-.972a28.98,28.98,0,0,1-2.576-2.915,72.819,72.819,0,0,1-5.442-8.843c-.778-1.506-1.458-3.158-2.09-4.664-.243-.584-.243-1.458-.778-1.8a24.148,24.148,0,0,0-2.332,3.352c-.874,2.09-1.02,4.665-1.312,7.289-.194.1-.146.049-.243.146-1.555-.389-2.09-1.993-2.672-3.353a21.379,21.379,0,0,1-.438-12.973c.341-1.02,1.847-4.228,1.215-5.2-.292-.922-1.215-1.506-1.75-2.235a17.469,17.469,0,0,1-1.8-3.061c-1.166-2.721-1.7-5.734-2.964-8.455a24.7,24.7,0,0,0-2.43-3.741,24.147,24.147,0,0,1-2.672-3.79c-.243-.535-.583-1.409-.243-1.993a.962.962,0,0,1,.681-.68c.632-.486,2.43.194,3.109.437a29.342,29.342,0,0,1,4.762,2.479c.729.486,1.457,1.409,2.333,1.652h.971c1.555.34,3.3.1,4.761.535a27.363,27.363,0,0,1,7,3.352,43.217,43.217,0,0,1,15.208,16.618c.584,1.117.827,2.138,1.312,3.3,1.02,2.382,2.333,4.81,3.353,7.094a30.941,30.941,0,0,0,3.4,6.56c.778,1.02,3.693,1.555,5.005,2.09a27.628,27.628,0,0,1,3.3,1.36c1.7.971,3.3,2.187,4.907,3.3.778.534,3.207,1.749,3.3,2.769" transform="translate(9.804 0)" fill="#005077" fill-rule="evenodd"/>
          <path id="Trazado_667395" data-name="Trazado 667395" d="M125.226,11.053a8.27,8.27,0,0,0-1.992.243v.1h.146a15.576,15.576,0,0,0,1.554,1.993c.341.776.73,1.554,1.069,2.332.049-.048.1-.1.146-.146a2.614,2.614,0,0,0,.971-2.43c-.243-.291-.292-.631-.535-.971a7.559,7.559,0,0,0-1.36-1.117" transform="translate(10.969 0.983)" fill="#005077" fill-rule="evenodd"/>
          <path id="Trazado_667396" data-name="Trazado 667396" d="M77.456,85.55h18.22a14.128,14.128,0,0,0,5.88-1.214c2.721-1.263,4.082-2.964,4.082-5.2V74.471c0-1.8-1.555-3.547-4.518-4.664a15.245,15.245,0,0,0-5.443-.923H88c-2.576,0-3.79-.778-4.082-2.478a2.4,2.4,0,0,1-.048-.584V62.956a2.022,2.022,0,0,1,.048-.535c.292-1.311.971-1.7,3.207-1.895.194,0,.437-.049.632-.049H105.88V56.251H88.049a17.709,17.709,0,0,0-5.1.534C79.157,58,77.505,59.846,77.505,63.1v3.693c0,2.866,3.255,5.3,8.649,5.878.632,0,1.214.049,1.846.049h6.559a2.965,2.965,0,0,1,.681.049c2.041.194,2.866.534,3.5,1.263a1.655,1.655,0,0,1,.487,1.166v3.692A2.081,2.081,0,0,1,98.3,80.4a4.569,4.569,0,0,1-2.672.874c-.243,0-.438.048-.681.048H77.456Z" transform="translate(6.894 5.006)" fill="#df7900" fill-rule="evenodd"/>
          <path id="Trazado_667397" data-name="Trazado 667397" d="M139.652,78.164c0,4.373,3.207,6.8,9.766,7.289.583.048,1.215.1,1.8.1h16.52V81.322H151.119c-3.742,0-5.151-.922-5.151-3.158V56.251h-6.316Z" transform="translate(12.43 5.006)" fill="#df7900" fill-rule="evenodd"/>
          <path id="Trazado_667398" data-name="Trazado 667398" d="M107.037,78.4V63.337c0-3.839,2.672-6.171,8.017-6.9a9.908,9.908,0,0,1,1.7-.1h12.05a10.766,10.766,0,0,1,1.749.1c5.3.729,8.017,3.061,8.017,6.9V78.4c0,3.109-1.166,4.761-3.791,5.831l6.268,5.637h-7.386l-5.053-4.519-5.1.292h-6.753a13.359,13.359,0,0,1-3.742-.535c-4.034-1.068-5.976-3.207-5.976-6.705m6.851-.389a3.256,3.256,0,0,0,.1.681c.389,1.749,2.041,2.72,4.519,2.72h5.782l-5.3-4.761h7.386l4.615,4.13a2.987,2.987,0,0,0,1.6-1.992,3.031,3.031,0,0,0,.048-.632V63.677a2.212,2.212,0,0,0-.048-.535c-.389-1.652-2.041-2.576-4.47-2.576H118.5c-2.818,0-4.616,1.215-4.616,3.11Z" transform="translate(9.527 5.014)" fill="#df7900" fill-rule="evenodd"/>
          <path id="Trazado_667399" data-name="Trazado 667399" d="M168.222,83.5h.923V80h1.263v-.73h-3.45V80h1.263Zm7.094,0h.827V79.273h-1.264l-1.117,2.915-1.117-2.915h-1.312V83.5h.874V80.293l1.215,3.207h.632l1.214-3.207h.049Z" transform="translate(14.861 7.056)" fill="#df7900" fill-rule="evenodd"/>
          <path id="Trazado_667400" data-name="Trazado 667400" d="M1.294,47.872V31.934H6.25a8.5,8.5,0,0,1,2.576.292,3.67,3.67,0,0,1,1.8,1.555A5.247,5.247,0,0,1,11.3,36.5,5.3,5.3,0,0,1,10.186,40c-.729.923-1.993,1.36-3.79,1.36H3.043v6.511Zm1.749-8.357h3.4a3.2,3.2,0,0,0,2.333-.729A2.971,2.971,0,0,0,9.505,36.6,3.266,3.266,0,0,0,9.116,35a1.809,1.809,0,0,0-.874-.922A4.265,4.265,0,0,0,6.4,33.83H3.043Z" transform="translate(0.115 2.842)" fill="#005077" fill-rule="evenodd"/>
          <path id="Trazado_667401" data-name="Trazado 667401" d="M12.047,40.118a9.494,9.494,0,0,1,1.8-6.22,5.566,5.566,0,0,1,4.47-2.187,5.177,5.177,0,0,1,3.158.972A6.665,6.665,0,0,1,23.757,35.5a11.208,11.208,0,0,1,.825,4.421,9.583,9.583,0,0,1-1.6,5.782,5.56,5.56,0,0,1-4.664,2.479,5.488,5.488,0,0,1-4.665-2.527,9.33,9.33,0,0,1-1.6-5.539m1.8.048a7.1,7.1,0,0,0,1.312,4.567,3.845,3.845,0,0,0,6.316,0,7.722,7.722,0,0,0,1.312-4.859,9.539,9.539,0,0,0-.681-3.644A4.455,4.455,0,0,0,20.6,34.239a3.981,3.981,0,0,0-5.491.874c-.874,1.117-1.263,2.769-1.263,5.053" transform="translate(1.072 2.822)" fill="#005077" fill-rule="evenodd"/>
          <path id="Trazado_667402" data-name="Trazado 667402" d="M27.9,47.872,24.45,31.934H26.2l1.993,10.447c.243,1.069.388,2.187.583,3.255l.584-2.915,2.527-10.787h2.04L35.771,40a54.2,54.2,0,0,1,1.068,5.636c.146-1.019.341-2.186.633-3.449l2.041-10.253h1.8L37.715,47.872h-1.7L33.245,35.724l-.438-1.846c-.1.681-.243,1.312-.34,1.846L29.649,47.872Z" transform="translate(2.176 2.842)" fill="#005077" fill-rule="evenodd"/>
          <path id="Trazado_667403" data-name="Trazado 667403" d="M41.405,47.871V31.934h9.426v1.895H43.106v4.859h7.239v1.895H43.106v5.442h8.016v1.847Z" transform="translate(3.685 2.842)" fill="#005077" fill-rule="evenodd"/>
          <path id="Trazado_667404" data-name="Trazado 667404" d="M52.515,47.872V31.934H58.3a6.037,6.037,0,0,1,2.672.438,3.643,3.643,0,0,1,1.458,1.506,5.374,5.374,0,0,1,.534,2.382,4,4,0,0,1-3.692,4.372,4.491,4.491,0,0,1,1.117.874,11.538,11.538,0,0,1,1.36,2.041l2.284,4.324H61.843l-1.749-3.3a20.7,20.7,0,0,0-1.506-2.623,3.527,3.527,0,0,0-1.02-.923,2.993,2.993,0,0,0-1.312-.243H54.264v7.094Zm1.749-8.892h3.693a4.4,4.4,0,0,0,1.846-.292,2.349,2.349,0,0,0,1.02-.922,2.938,2.938,0,0,0,.34-1.458,2.578,2.578,0,0,0-.68-1.944,3,3,0,0,0-2.09-.68h-4.13Z" transform="translate(4.674 2.842)" fill="#005077" fill-rule="evenodd"/>
          <path id="Trazado_667405" data-name="Trazado 667405" d="M64.651,47.871V31.934h9.426v1.895H66.4v4.859h7.192v1.895H66.4v5.442h8.017v1.847Z" transform="translate(5.755 2.842)" fill="#005077" fill-rule="evenodd"/>
          <path id="Trazado_667406" data-name="Trazado 667406" d="M75.76,47.872V31.934h4.519a8.312,8.312,0,0,1,2.525.292A4.315,4.315,0,0,1,84.8,33.635a8.22,8.22,0,0,1,1.311,2.527,13.352,13.352,0,0,1,.438,3.644,11.915,11.915,0,0,1-.778,4.616,5.674,5.674,0,0,1-2.041,2.672,5.983,5.983,0,0,1-3.255.778Zm1.75-1.847h2.769a4.515,4.515,0,0,0,2.525-.583,3.417,3.417,0,0,0,1.361-1.75,11.483,11.483,0,0,0,.583-3.887,9.283,9.283,0,0,0-.632-3.839,3.557,3.557,0,0,0-1.7-1.846,5.845,5.845,0,0,0-2.187-.292H77.51Z" transform="translate(6.743 2.842)" fill="#005077" fill-rule="evenodd"/>
          <path id="Trazado_667407" data-name="Trazado 667407" d="M92.938,47.872V31.934h4.907a4.7,4.7,0,0,1,2.381.486,3.291,3.291,0,0,1,1.41,1.409,4.218,4.218,0,0,1,.583,2.187,4.262,4.262,0,0,1-.487,1.944,3.777,3.777,0,0,1-1.36,1.408,3.971,3.971,0,0,1,1.8,1.409,4.479,4.479,0,0,1,.632,2.479,5.242,5.242,0,0,1-.583,2.527,3.658,3.658,0,0,1-1.6,1.6,5.928,5.928,0,0,1-2.72.486Zm1.749-9.233h2.818a5.659,5.659,0,0,0,1.555-.146,1.987,1.987,0,0,0,1.068-.776,2.5,2.5,0,0,0,.341-1.458,3.248,3.248,0,0,0-.292-1.457,1.8,1.8,0,0,0-.923-.779,6.04,6.04,0,0,0-1.944-.194H94.687Zm0,7.386h3.255a5.8,5.8,0,0,0,1.555-.194,2.2,2.2,0,0,0,1.117-.972,2.71,2.71,0,0,0,.389-1.6,3.071,3.071,0,0,0-.34-1.555,2.351,2.351,0,0,0-1.02-.923,4.793,4.793,0,0,0-1.944-.291H94.687Z" transform="translate(8.272 2.842)" fill="#005077" fill-rule="evenodd"/>
          <path id="Trazado_667408" data-name="Trazado 667408" d="M107.937,47.872V41.118l-5.005-9.184h2.09l2.576,4.811c.534.971.971,1.846,1.36,2.72a30.278,30.278,0,0,1,1.409-2.818l2.527-4.713h1.992l-5.2,9.184v6.754Z" transform="translate(9.162 2.842)" fill="#005077" fill-rule="evenodd"/>
        </g>
      </g>
      <g id="postgresql-ar21" transform="translate(468.02 7219.984)">
        <path id="Trazado_667409" data-name="Trazado 667409" d="M23.816,53.489H10.636V40.234h13.9c5.085,0,7.63,2.272,7.63,6.731q0,6.525-8.345,6.527M33.291,40.08q-2.708-2.424-7.582-2.424l-18.875.1V69.469h3.8l-.035-13.5H24.647q5.283,0,8.317-2.424A8.141,8.141,0,0,0,36,46.813a8.575,8.575,0,0,0-2.709-6.731ZM57.9,62.813a6.464,6.464,0,0,1-1.805,2.7c-1.7,1.666-4.3,2.492-7.827,2.492-3.156,0-5.555-.808-7.271-2.424a8.463,8.463,0,0,1-2.537-6.489,9.954,9.954,0,0,1,.664-3.757,7.373,7.373,0,0,1,1.924-2.767,10.332,10.332,0,0,1,7.221-2.391c6.817,0,10.183,2.972,10.183,8.913a10.929,10.929,0,0,1-.581,3.722m.689-11.7q-3.477-3.17-10.294-3.171-6.438,0-9.953,3.239a10.246,10.246,0,0,0-3.169,7.908,10.375,10.375,0,0,0,3.272,7.978,10.928,10.928,0,0,0,4.209,2.368,19.412,19.412,0,0,0,5.64.757c4.545,0,7.963-1.045,10.352-3.136a10.153,10.153,0,0,0,3.169-7.941,10.146,10.146,0,0,0-3.207-7.978ZM87.343,63.727c0,4.292-3.825,6.4-11.473,6.4a33.48,33.48,0,0,1-5.908-.444,10.059,10.059,0,0,1-3.9-1.474,5.832,5.832,0,0,1-1.838-2.02,8.371,8.371,0,0,1-.884-3.169l3.535-.033A4.091,4.091,0,0,0,68.745,66.7q2.007,1.432,7.1,1.432,8.018,0,8.019-4.02,0-2.348-2.689-3.232-.545-.17-6.489-.9a40.883,40.883,0,0,1-7.405-1.313,4.543,4.543,0,0,1-3.166-4.53,5.1,5.1,0,0,1,2.828-4.769,14.163,14.163,0,0,1,3.494-1,29.034,29.034,0,0,1,4.858-.359q11.044,0,11.044,6.931H82.957q0-4.87-7.764-4.873a13.131,13.131,0,0,0-5.89,1.01,3.234,3.234,0,0,0-1.944,3.03q0,1.909,2.621,2.76a53.624,53.624,0,0,0,7.049,1.023,24.234,24.234,0,0,1,6.777,1.262c2.338.909,3.535,2.449,3.535,4.631Zm13.977,5.807-1.447.2-.9.068a9.421,9.421,0,0,1-5.012-1.01,3.9,3.9,0,0,1-1.515-3.535V50.793H88.226V48.664h4.191l.033-6.837h3.244v6.837h5.651v2.164l-5.651-.035V64.873a2.439,2.439,0,0,0,.833,2.171,5.436,5.436,0,0,0,2.979.6,2.438,2.438,0,0,0,.682-.025c.252-.04.624-.126,1.124-.258l.035,2.171Zm22.438-4.827a9.619,9.619,0,0,1-3.03,1.669,12.132,12.132,0,0,1-3.913.581c-6.787,0-10.175-2.777-10.175-8.408a7.616,7.616,0,0,1,2.6-6.125q2.6-2.212,7.335-2.212,4.764,0,7.234,2.229a7.652,7.652,0,0,1,2.469,5.974,7.973,7.973,0,0,1-2.52,6.3m5.764-16.058h-3.244l-.035,3.578a21.381,21.381,0,0,0-3.065-2.757,14.582,14.582,0,0,0-7.049-1.5q-6.336,0-9.67,2.893-3.166,2.651-3.166,7.693a11.676,11.676,0,0,0,.8,4.444,8.825,8.825,0,0,0,2.335,3.318q3.344,2.791,9.448,2.792c4.888,0,8.332-1.338,10.4-4.04v3.7a6.881,6.881,0,0,1-2.232,5.484q-2.231,1.939-7.34,1.944c-3.2,0-5.484-.442-6.817-1.323a5.465,5.465,0,0,1-2.111-3.527h-3.32a6.942,6.942,0,0,0,2.964,5.07q2.795,1.8,9.438,1.8,12.71,0,12.71-9.448V48.629Zm17.547,2.108a16.966,16.966,0,0,0-2.722-.237q-8,0-8,8.774v10.17h-3.207l-.035-20.812,3.244.033V52.4h.169a6.477,6.477,0,0,1,2.588-3.328,11.74,11.74,0,0,1,5.787-1.1h2.179V50.76Zm3.02,6.984a9.286,9.286,0,0,1,2.757-5.494,9.783,9.783,0,0,1,3.166-1.692A13.015,13.015,0,0,1,160,50a10.4,10.4,0,0,1,7.064,2.373,7.024,7.024,0,0,1,2.765,5.378H150.115m20.029-6.421a10.4,10.4,0,0,0-4.227-2.527,19.064,19.064,0,0,0-5.9-.821q-6.306,0-9.781,2.929a9.883,9.883,0,0,0-3.477,7.978A10.124,10.124,0,0,0,150.1,66.9q3.609,3.272,10.188,3.272a19.027,19.027,0,0,0,4.853-.593,13.448,13.448,0,0,0,3.9-1.679,9.058,9.058,0,0,0,3.711-5.191H169.22c-1.2,3.535-4.2,5.337-8.988,5.337-3.383,0-5.984-.869-7.827-2.611a7.682,7.682,0,0,1-2.348-5.8h23.127c0-3.53-1.01-6.3-3.1-8.332Z" transform="translate(0 47.825)" fill="#231f20"/>
        <path id="Trazado_667410" data-name="Trazado 667410" d="M105.281,61.421q0,9.267-14.947,9.266-8.957,0-13.079-3.194c-2.272-1.75-3.371-4.418-3.371-8h4.04q0,8.654,12.435,8.653,5.961,0,8.62-1.767a5.565,5.565,0,0,0,2.272-4.9,4.685,4.685,0,0,0-3.068-4.631c-1.161-.5-3.989-1.078-8.483-1.805q-8.483-1.3-11-2.585a6.708,6.708,0,0,1-3.646-6.469,7.048,7.048,0,0,1,3.1-6.332q3.333-2.28,11.447-2.28,14.657,0,14.651,9.733h-4.07q0-7.29-10.857-7.289-5.454,0-7.978,1.464a5.152,5.152,0,0,0-2.386,4.6,4.534,4.534,0,0,0,3.068,4.464q1.629.75,9.609,2.08,7.5,1.125,10.1,2.626,3.579,1.841,3.578,6.373Zm32.59,3.156a15.653,15.653,0,0,1-5.08,2.7,20.859,20.859,0,0,1-6.342.9c-4.8,0-8.635-1.262-11.579-3.863a13.022,13.022,0,0,1-4.418-10.286q0-6.7,4.381-10.44c2.921-2.495,6.817-3.742,11.614-3.742q7.332,0,11.526,3.913a11.974,11.974,0,0,1,3.275,4.456,14.947,14.947,0,0,1,1.06,5.815,13.294,13.294,0,0,1-4.434,10.544m2.133,2.1a13.971,13.971,0,0,0,4.638-5.36,16.684,16.684,0,0,0,1.5-7.266,15.308,15.308,0,0,0-4.908-11.867,16.619,16.619,0,0,0-6.312-3.641,27.668,27.668,0,0,0-8.483-1.192q-9.267,0-14.55,4.494t-5.282,12.185a15.233,15.233,0,0,0,5.3,12.081c3.527,3.063,8.408,4.6,14.563,4.6a35.956,35.956,0,0,0,6.3-.487,15.312,15.312,0,0,0,4.565-1.5l5.928,4.108,2.474-2.272-5.739-3.893Zm36.181,3.239H148.773V38.173l3.77-.068V67.266h23.683l-.035,2.651Z" transform="translate(102.24 47.369)" fill="#367faf"/>
        <path id="Trazado_667411" data-name="Trazado 667411" d="M99.651,59.916c.5-4.141.348-4.747,3.434-4.075l.757.068a17.808,17.808,0,0,0,7.3-1.227c3.921-1.818,6.246-4.858,2.381-4.06-8.822,1.818-9.428-1.166-9.428-1.166,9.317-13.821,13.2-31.366,9.847-35.658C104.774,2.082,88.9,7.624,88.64,7.768l-.083.015a31.265,31.265,0,0,0-5.883-.614,14.649,14.649,0,0,0-9.342,2.79S45.024-1.7,46.317,24.629c.278,5.6,8.029,42.381,17.27,31.272,3.378-4.065,6.64-7.5,6.64-7.5a8.524,8.524,0,0,0,5.6,1.429l.157-.134a6.135,6.135,0,0,0,.063,1.581c-2.381,2.659-1.682,3.131-6.438,4.108-4.815.992-1.987,2.76-.139,3.222,2.24.561,7.423,1.353,10.92-3.547l-.139.561c.934.747.871,5.37,1,8.673s.353,6.388,1.028,8.206S83.742,79,90,77.658c5.226-1.121,9.226-2.732,9.589-17.732" transform="translate(60.139 0.064)" fill="#231f20" stroke="#231f20" stroke-width="2.598"/>
        <path id="Trazado_667412" data-name="Trazado 667412" d="M113.529,50.623c-8.822,1.818-9.428-1.166-9.428-1.166,9.317-13.821,13.2-31.366,9.847-35.66-9.165-11.715-25.036-6.173-25.3-6.029l-.086.015a31.265,31.265,0,0,0-5.883-.614,14.649,14.649,0,0,0-9.342,2.79S45.031-1.706,46.324,24.628c.278,5.605,8.029,42.381,17.27,31.272,3.378-4.065,6.64-7.5,6.64-7.5a8.558,8.558,0,0,0,5.595,1.429l.159-.134a6.165,6.165,0,0,0,.063,1.581c-2.381,2.659-1.682,3.131-6.438,4.108-4.815.992-1.987,2.76-.139,3.222,2.24.561,7.423,1.353,10.92-3.547l-.139.561c.934.747,1.591,4.86,1.477,8.584s-.182,6.287.555,8.286,1.464,6.5,7.726,5.158c5.226-1.121,7.938-4.025,8.314-8.867.268-3.444.874-2.934.909-6.009l.485-1.457c.561-4.671.088-6.173,3.307-5.471l.757.068a17.8,17.8,0,0,0,7.3-1.227c3.921-1.818,6.246-4.858,2.381-4.06Z" transform="translate(60.149 0.063)" fill="#417ba2"/>
        <g id="Grupo_991621" data-name="Grupo 991621" transform="translate(106.434 6.292)">
          <g id="Grupo_991619" data-name="Grupo 991619">
            <path id="Trazado_667413" data-name="Trazado 667413" d="M80.816,53.362c-.242,8.685.061,17.429.909,19.555s2.669,6.262,8.928,4.918c5.226-1.121,7.13-3.29,7.953-8.079l1.931-15.308M73.342,9.827S45.014-1.752,46.327,24.577c.252,5.605,8.029,42.384,17.27,31.275,3.378-4.04,6.431-7.246,6.431-7.246M88.617,7.714c-1.01.308,15.755-6.118,25.268,6.06,3.358,4.292-.5,21.84-9.847,35.66" transform="translate(-46.282 -6.292)" fill="none" stroke="#fff" stroke-linecap="round" stroke-linejoin="round" stroke-width="0.866"/>
            <path id="Trazado_667414" data-name="Trazado 667414" d="M92.07,48.911s.606,2.987,9.43,1.166c3.863-.8,1.515,2.24-2.381,4.06-3.217,1.49-10.427,1.876-10.549-.187-.3-5.327,3.8-3.706,3.5-5.04-.268-1.2-2.1-2.381-3.313-5.32C87.7,41.023,74.24,21.342,92.494,24.266,93.163,24.127,87.732,6.9,70.65,6.623S54.132,27.629,54.132,27.629" transform="translate(-34.316 -5.791)" fill="none" stroke="#fff" stroke-linecap="round" stroke-linejoin="bevel" stroke-width="0.866"/>
          </g>
          <g id="Grupo_991620" data-name="Grupo 991620" transform="translate(19.52 18.544)">
            <path id="Trazado_667415" data-name="Trazado 667415" d="M63.562,24.679c-2.381,2.659-1.682,3.131-6.438,4.108-4.815.992-1.987,2.76-.139,3.222,2.24.561,7.423,1.353,10.92-3.547,1.065-1.49-.005-3.873-1.469-4.482a2.165,2.165,0,0,0-2.868.7Z" transform="translate(-53.331 1.715)" fill="none" stroke="#fff" stroke-linejoin="round" stroke-width="0.866"/>
            <path id="Trazado_667416" data-name="Trazado 667416" d="M64.088,39.984c-.24-1.565.515-3.424,1.32-5.605,1.212-3.267,4.04-6.534,1.775-16.9-1.666-7.721-12.871-1.608-12.877-.561a52.568,52.568,0,0,1-.187,10.268c-.909,6.474,4.115,11.95,9.9,11.387" transform="translate(-54.014 -13.636)" fill="none" stroke="#fff" stroke-linecap="round" stroke-linejoin="round" stroke-width="0.866"/>
          </g>
        </g>
        <g id="Grupo_991622" data-name="Grupo 991622" transform="translate(133.36 26.784)">
          <path id="Trazado_667417" data-name="Trazado 667417" d="M56.95,15.155c-.05.359.656,1.313,1.573,1.439a1.7,1.7,0,0,0,1.752-.975c.048-.356-.656-.752-1.575-.884s-1.7.058-1.752.417Z" transform="translate(-56.947 -13.972)" fill="#fff" stroke="#fff" stroke-width="0.289"/>
          <path id="Trazado_667418" data-name="Trazado 667418" d="M70.033,14.862c.05.359-.656,1.313-1.573,1.439a1.7,1.7,0,0,1-1.755-.975c-.05-.356.656-.752,1.575-.879s1.7.058,1.755.417Z" transform="translate(-42.071 -14.408)" fill="#fff" stroke="#fff" stroke-width="0.144"/>
        </g>
        <path id="Trazado_667419" data-name="Trazado 667419" d="M70.508,13.608c.151,2.8-.606,4.716-.7,7.7-.141,4.343,2.07,9.309-1.262,14.283" transform="translate(94.099 11.156)" fill="none" stroke="#fff" stroke-linecap="round" stroke-linejoin="round" stroke-width="0.866"/>
      </g>
      <g id="Grupo_991631" data-name="Grupo 991631" transform="translate(250.254 7309.192)">
        <g id="Grupo_991624" data-name="Grupo 991624" transform="translate(86.105 61.595)">
          <g id="Grupo_991623" data-name="Grupo 991623" clip-path="url(#clip-path-3)">
            <rect id="Rectángulo_344433" data-name="Rectángulo 344433" width="102.355" height="99.907" transform="translate(-31.36 18.209) rotate(-30.578)" fill="url(#linear-gradient)"/>
          </g>
        </g>
        <g id="Grupo_991626" data-name="Grupo 991626" transform="translate(106.133 0)">
          <g id="Grupo_991625" data-name="Grupo 991625" clip-path="url(#clip-path-4)">
            <rect id="Rectángulo_344434" data-name="Rectángulo 344434" width="41.722" height="24.986" transform="translate(0 0)" fill="url(#linear-gradient-2)"/>
          </g>
        </g>
        <g id="Grupo_991628" data-name="Grupo 991628" transform="translate(95.866 13.762)">
          <g id="Grupo_991627" data-name="Grupo 991627" clip-path="url(#clip-path-5)">
            <path id="Trazado_667422" data-name="Trazado 667422" d="M1001.326,83.71l-119.8-18L895.483-26.2l119.8,18Z" transform="translate(-893.012 9.933)" fill="url(#radial-gradient)"/>
          </g>
        </g>
        <g id="Grupo_991630" data-name="Grupo 991630">
          <g id="Grupo_991629" data-name="Grupo 991629" clip-path="url(#clip-path-6)">
            <path id="Trazado_667424" data-name="Trazado 667424" d="M43.014,1352.708c-.368,0-.737.035-1.1.035-7.442.4-12.461,3.671-15.4,10.067-2.51,5.784-2.236,13.345.028,19.165,2.633,5.686,6.887,8.688,13.987,9.821,1.5.246,2.51,1.071,5.42,4.469l3.58,4.195h6.493l-4.318-4.353a46.1,46.1,0,0,1-4.317-4.647c0-.182.913-.583,2.018-.919,3.644-1.1,6.669-3.917,8.786-8.231,1.713-3.464,1.959-4.535,2.2-8.845.642-12.829-6.122-20.85-17.385-20.758Zm5.693,33.549a15.28,15.28,0,0,1-10.74.737c-3.1-1.137-6.093-4.353-7.442-7.992-1.5-3.98-1.285-11.323.428-14.63,2.755-5.265,6.4-7.687,11.724-7.687,7.9,0,12.39,4.837,12.977,13.928.463,7.589-2.078,13.282-6.943,15.641Zm112.174-22.591a6.955,6.955,0,0,0-6.213,3.274l-1.1,1.72v-4.472h-4.714v26.817h4.711v-8.572c0-7.838.1-8.754,1.193-10.9,1.51-2.941,4.107-4.408,6.617-3.706l1.685.491v-4.647h-2.176Zm-27.694-.246a13.549,13.549,0,0,0-2.878.337c-6.308,1.649-9.864,7.687-9.646,13.9,0,5.2,1.011,7.8,3.521,10.53,5.142,4.219,9.793,4.556,16.069,2.292,1.071-.456,2.236-.983,2.236-.983v-4.219l-2.236,1.158c-5.079,2.211-8.9,2.211-11.969-.393a12.08,12.08,0,0,1-3.211-7.1h19.007v-3.616c0-7.371-4.437-12.025-10.9-11.906Zm-7.687,11.759s.7-4.6,3.307-6.4a7.107,7.107,0,0,1,4.1-1.313,6.559,6.559,0,0,1,3.98,1.344c2.387,1.836,2.787,6.336,2.787,6.336H125.5v.035Zm-113.645-4.836c-5.11-3.1-7.378-5.329-7.1-7.961.793-7.283,9.793-6.276,14.777-3.521l.035-4.9a19.218,19.218,0,0,0-6.7-1.257c-6.058-.091-9.976,1.9-11.811,5.939-2.7,5.967-.309,10.467,8.319,15.487,4.844,2.818,6.985,5.265,6.985,7.932,0,5.511-6.644,7.434-13.5,3.977-1.411-.7-2.6-1.288-2.668-1.288a42.32,42.32,0,0,0-.119,5.3,29.288,29.288,0,0,0,5.265,1.495c7.834,1.562,14.963-2.113,15.637-8.08.586-5.6-1.439-8.54-9.116-13.128Zm190.746-6.985a14.273,14.273,0,0,0-2.913.34c-6.3,1.65-9.849,7.687-9.607,13.9,0,5.2,1.008,7.771,3.517,10.495,5.142,4.223,9.793,4.563,16.1,2.3,1.067-.456,2.229-.976,2.229-.976v-4.226l-2.232,1.165c-5.089,2.2-8.916,2.2-11.969-.4a11.925,11.925,0,0,1-3.215-7.1h18.975v-3.615c0-7.336-4.437-11.994-10.9-11.871Zm-7.687,11.759s.709-4.591,3.31-6.43a7.07,7.07,0,0,1,4.1-1.316,6.558,6.558,0,0,1,3.981,1.348c2.387,1.836,2.787,6.367,2.787,6.367h-14.17Zm-86.4-4.714c-5.11-3.089-7.371-5.328-7.1-7.961.793-7.287,9.793-6.276,14.777-3.52l.035-4.9a19.132,19.132,0,0,0-6.7-1.25c-6.058-.091-9.976,1.9-11.814,5.939-2.692,5.967-.274,10.467,8.326,15.486,4.837,2.815,6.978,5.23,6.978,7.9,0,5.511-6.641,7.466-13.5,3.977-1.4-.7-2.6-1.281-2.668-1.281a42.334,42.334,0,0,0-.119,5.3,32.06,32.06,0,0,0,5.23,1.5c7.841,1.565,14.974-2.106,15.644-8.073.583-5.574-1.439-8.512-9.091-13.1v-.007Zm121.788-6.8a6.928,6.928,0,0,0-6.213,3.278l-1.1,1.713v-4.465H218.27v26.809h4.71v-8.571c0-7.834.095-8.754,1.194-10.9,1.509-2.938,4.106-4.408,6.616-3.7l1.685.491V1363.6H230.3Zm-159.275,6.644v-17.08H66.272V1391H86.258v-4.468H71.024v-16.283Zm109.906,5.324-3.917,10.193-3.767-10.249-3.826-11.358h-4.865c3.152,8.937,6.581,18.027,10.039,26.841,1.5.035,3,0,4.5,0l5.29-13.282,5.388-13.556h-4.651s-2.054,5.385-4.194,11.415Zm-98.955-32.713a2.6,2.6,0,0,0,1.931-.772,2.56,2.56,0,0,0,.793-1.9,2.516,2.516,0,0,0-.793-1.9,2.639,2.639,0,0,0-1.9-.737,2.6,2.6,0,0,0-1.93.765,2.553,2.553,0,0,0-.765,1.9,2.474,2.474,0,0,0,.765,1.9,2.578,2.578,0,0,0,1.9.737Zm-1.685-4.352a2.4,2.4,0,0,1,4.107,1.685,2.357,2.357,0,0,1-.7,1.713,2.293,2.293,0,0,1-1.685.674,2.238,2.238,0,0,1-1.685-.674,2.357,2.357,0,0,1-.7-1.713,2.264,2.264,0,0,1,.667-1.685m1.134,1.931h.309c.218,0,.432.21.614.611l.369.828H83.3l-.456-.92c-.186-.368-.368-.582-.583-.643a1.116,1.116,0,0,0,.639-.337.843.843,0,0,0,.21-.614.784.784,0,0,0-.273-.646,1.537,1.537,0,0,0-.983-.27h-.975v3.429h.491v-1.439Zm0-1.594h.428a1.1,1.1,0,0,1,.646.154c.116.091.148.211.148.428,0,.4-.246.583-.7.583h-.526v-1.166Zm-78.506,1.288c0-1.194-.035-2.081-.063-2.6h.028a7.814,7.814,0,0,0,.4,1.383L7.843,1349.1h.765l4.563-10.285a9.263,9.263,0,0,0,.4-1.288H13.6c-.091,1.018-.123,1.9-.123,2.608v9h1.562v-13.374H13.084l-4.194,9.3c-.155.369-.369.92-.642,1.65H8.183a10.7,10.7,0,0,0-.61-1.587l-4.1-9.4H1.392V1349.1h1.5v-8.965Zm15.546.025h1.348v8.329H18.465Zm.674-3.054a.95.95,0,0,0,.7-.281.973.973,0,0,0,.309-.7.883.883,0,0,0-.305-.7.982.982,0,0,0-.709-.281.961.961,0,0,0-.7.281.987.987,0,0,0-.309.7.845.845,0,0,0,.309.7,1.01,1.01,0,0,0,.7.281Zm10.285,11.566V1347.2a3.879,3.879,0,0,1-2.352.825,3.047,3.047,0,0,1-2.362-.982,3.8,3.8,0,0,1-.888-2.633,3.954,3.954,0,0,1,.948-2.78,3.082,3.082,0,0,1,2.387-1.011,3.917,3.917,0,0,1,2.267.738V1339.8a4.669,4.669,0,0,0-2.2-.491,4.718,4.718,0,0,0-3.615,1.44,5.38,5.38,0,0,0-1.341,3.791,4.861,4.861,0,0,0,1.222,3.433,4.342,4.342,0,0,0,3.307,1.376A5.4,5.4,0,0,0,29.423,1348.668Zm3.857-4.44a4.319,4.319,0,0,1,.7-2.6,1.921,1.921,0,0,1,1.562-.828,1.8,1.8,0,0,1,1.158.309v-1.594a2.425,2.425,0,0,0-.912-.123,2.328,2.328,0,0,0-1.474.527,3.223,3.223,0,0,0-1.035,1.615h-.035v-1.955H31.719v9.547h1.53v-4.9Zm8.786,5.089a4.518,4.518,0,0,0,3.457-1.383,6.021,6.021,0,0,0,.091-7.315,4.22,4.22,0,0,0-3.335-1.316,4.791,4.791,0,0,0-3.457,1.257,5.206,5.206,0,0,0-1.4,3.854,4.973,4.973,0,0,0,1.222,3.521,4.446,4.446,0,0,0,3.426,1.379Zm-2.176-7.778a3.018,3.018,0,0,1,2.3-.92,2.854,2.854,0,0,1,2.268.92,5.119,5.119,0,0,1,.06,5.479,2.79,2.79,0,0,1-2.3.982,2.984,2.984,0,0,1-2.327-.982,3.87,3.87,0,0,1-.856-2.7A3.747,3.747,0,0,1,39.89,1341.539Zm13.619,6.946a2.508,2.508,0,0,0,.892-1.959,2.39,2.39,0,0,0-.7-1.744,5.418,5.418,0,0,0-1.779-1.039,5.566,5.566,0,0,1-1.439-.8,1.311,1.311,0,0,1-.4-.983,1.156,1.156,0,0,1,.457-.948,1.886,1.886,0,0,1,1.229-.365,3.607,3.607,0,0,1,2.176.677V1339.8a4.488,4.488,0,0,0-2.053-.456,3.641,3.641,0,0,0-2.422.793,2.621,2.621,0,0,0-.337,3.7,4.949,4.949,0,0,0,1.713,1.071,6.433,6.433,0,0,1,1.562.888,1.168,1.168,0,0,1,.4.913c0,.891-.611,1.351-1.8,1.351a3.783,3.783,0,0,1-2.482-.913v1.649a4.513,4.513,0,0,0,2.352.583,4.151,4.151,0,0,0,2.633-.888ZM60.8,1339.3a4.793,4.793,0,0,0-3.458,1.257,5.236,5.236,0,0,0-1.4,3.854,4.992,4.992,0,0,0,1.222,3.521,4.983,4.983,0,0,0,6.887,0,5.142,5.142,0,0,0,1.288-3.672,5.236,5.236,0,0,0-1.194-3.643A4.316,4.316,0,0,0,60.8,1339.3Zm2.969,5.02a4.107,4.107,0,0,1-.765,2.7,2.79,2.79,0,0,1-2.3.982,2.984,2.984,0,0,1-2.327-.982,3.868,3.868,0,0,1-.856-2.7,3.925,3.925,0,0,1,.92-2.815,3.019,3.019,0,0,1,2.3-.92,2.9,2.9,0,0,1,2.26.92,4.653,4.653,0,0,1,.765,2.815ZM67.9,1349.1h1.527v-8.266h2.236v-1.285H69.427v-1.474c0-1.341.519-2.015,1.593-2.015a2.113,2.113,0,0,1,1,.246v-1.379a2.8,2.8,0,0,0-1.1-.151,2.849,2.849,0,0,0-2.05.765,3.22,3.22,0,0,0-.983,2.478v1.565H66.275v1.285H67.89v8.235Zm6.272-2.6c0,1.868.825,2.819,2.51,2.819a2.759,2.759,0,0,0,1.439-.316v-1.312a1.6,1.6,0,0,1-.983.309,1.3,1.3,0,0,1-1.1-.4,2.242,2.242,0,0,1-.34-1.376v-5.388h2.422v-1.285H75.7v-2.815c-.527.182-1.042.337-1.531.491v2.323H72.52v1.285h1.65v5.662Zm164.27,17.6a2.628,2.628,0,0,0-1.9-.737,2.627,2.627,0,0,0-2.7,2.668,2.5,2.5,0,0,0,.761,1.9,2.694,2.694,0,0,0,1.931.738,2.632,2.632,0,0,0,1.931-.766,2.585,2.585,0,0,0,.79-1.9,2.653,2.653,0,0,0-.825-1.9Zm-.246,3.616a2.463,2.463,0,0,1-3.37,0,2.381,2.381,0,0,1-.7-1.72,2.409,2.409,0,0,1,4.072-1.685,2.318,2.318,0,0,1,.7,1.685,2.2,2.2,0,0,1-.7,1.72m-1.376-1.562a1.319,1.319,0,0,0,.642-.337.845.845,0,0,0,.211-.617.782.782,0,0,0-.274-.643,1.54,1.54,0,0,0-.982-.271h-.976v3.426h.492v-1.439h.305c.211,0,.421.21.611.611l.365.825h.583l-.456-.92c-.158-.4-.341-.583-.526-.643Zm-.337-.309h-.526v-1.158h.432a1.075,1.075,0,0,1,.642.151c.123.091.151.21.151.428,0,.4-.246.579-.7.579Zm-85.4-26.687h.428v-3.429h1.133v-.428h-2.7v.428h1.134v3.429Zm2.6-2.576a6.179,6.179,0,0,0-.025-.762,2.127,2.127,0,0,0,.119.4l1.316,2.941h.211l1.32-2.97c.035-.091.064-.21.123-.368-.028.305-.028.55-.028.737v2.6h.456v-3.854h-.551l-1.193,2.661c-.028.1-.123.281-.183.492h-.035a2.791,2.791,0,0,0-.175-.456l-1.193-2.7h-.618v3.861h.432v-2.576Z" transform="translate(0 -1207.016)" fill="#231f1f"/>
          </g>
        </g>
      </g>
    </g>
    <g id="Grupo_991642" data-name="Grupo 991642" transform="translate(0 -543)">
      <g transform="matrix(1, 0, 0, 1, 171.25, 7174)" filter="url(#Rectángulo_344425)">
        <rect id="Rectángulo_344425-2" data-name="Rectángulo 344425" width="610" height="362" rx="10" transform="translate(639 6)" fill="#fdfcff"/>
      </g>
      <g id="Grupo_991632" data-name="Grupo 991632" transform="translate(-116 -409)">
        <text id="Redis" transform="translate(996.254 7672)" fill="#12263f" font-size="54" font-family="SimSun-ExtB"><tspan x="0" y="0">Redis</tspan></text>
        <rect id="Rectángulo_344436" data-name="Rectángulo 344436" width="29" height="9" transform="translate(989.254 7680)" fill="#afafaf"/>
        <rect id="Rectángulo_344442" data-name="Rectángulo 344442" width="29" height="9" transform="translate(991.254 7694)" fill="#afafaf"/>
        <rect id="Rectángulo_344443" data-name="Rectángulo 344443" width="18" height="15" transform="translate(1005.254 7707)" fill="#afafaf"/>
        <rect id="Rectángulo_344444" data-name="Rectángulo 344444" width="18" height="15" transform="translate(1027.254 7712)" fill="#afafaf"/>
        <rect id="Rectángulo_344437" data-name="Rectángulo 344437" width="29" height="13" transform="translate(1025.254 7682)" fill="#afafaf"/>
        <rect id="Rectángulo_344439" data-name="Rectángulo 344439" width="29" height="11" transform="translate(1093.254 7684)" fill="#afafaf"/>
        <rect id="Rectángulo_344440" data-name="Rectángulo 344440" width="29" height="11" transform="translate(1089.254 7697)" fill="#afafaf"/>
        <rect id="Rectángulo_344446" data-name="Rectángulo 344446" width="21" height="14" transform="translate(1094.254 7710)" fill="#afafaf"/>
        <rect id="Rectángulo_344441" data-name="Rectángulo 344441" width="29" height="9" transform="translate(1058.254 7693)" fill="#afafaf"/>
        <rect id="Rectángulo_344447" data-name="Rectángulo 344447" width="23" height="9" transform="translate(1050.254 7707)" fill="#afafaf"/>
        <rect id="Rectángulo_344448" data-name="Rectángulo 344448" width="23" height="9" transform="translate(1025.254 7699)" fill="#07644e"/>
        <rect id="Rectángulo_344445" data-name="Rectángulo 344445" width="17" height="9" transform="translate(1085.254 7708) rotate(90)" fill="#afafaf"/>
        <rect id="Rectángulo_344438" data-name="Rectángulo 344438" width="29" height="13" transform="translate(1060.254 7678)" fill="#db1a1a"/>
      </g>
      <g id="Grupo_991635" data-name="Grupo 991635" transform="translate(1135.254 7240)">
        <path id="Trazado_667425" data-name="Trazado 667425" d="M38.92,48.009h4.142v-21.6H38.92ZM0,13.029v34.98H8.149V34.56H34.776V48.009H38.92v-21.6H8.149V13.029Zm34.774,8.152H38.92v-8.15H34.776Zm4.144,0h4.142v-8.15H38.92Z" transform="translate(0.001 6.988)" fill="#cf212b"/>
        <g id="Grupo_991634" data-name="Grupo 991634" transform="translate(0 0)">
          <g id="Grupo_991633" data-name="Grupo 991633" clip-path="url(#clip-path-7)">
            <path id="Trazado_667426" data-name="Trazado 667426" d="M52.146,21.179H30.24v-8.15H52.146Zm0,26.833H30.24V26.478H52.146v8.084H38.392v5.3H52.146ZM69.7,30.281a8.858,8.858,0,0,1,4.277,8.081,9.4,9.4,0,0,1-9.848,9.647H52.146v-8.15H64.132q1.765,0,1.767-2.649t-1.767-2.647H52.146V26.478H63.522q1.763,0,1.765-2.649t-1.765-2.65H52.146v-8.15H63.522a9.43,9.43,0,0,1,7.336,2.99A9.6,9.6,0,0,1,73.3,22.674a8.973,8.973,0,0,1-3.6,7.607" transform="translate(16.22 6.989)" fill="#cf212b" fill-rule="evenodd"/>
            <path id="Trazado_667427" data-name="Trazado 667427" d="M9.82,10.925H3.735v5.1H0V4.947A5.18,5.18,0,0,1,1.26,1.461,4.1,4.1,0,0,1,4.514,0H9.82V3.735H4.514c-.519,0-.779.4-.779,1.212V7.189H9.82ZM51.889,0V3.735H45.6V7.066h6.291V10.8H45.6v5.23H41.866V0ZM19.641,16.029H15.9v-5.1H9.82V7.192H15.9V4.947c0-.807-.269-1.212-.808-1.212H9.82V0L15.1,0a4.124,4.124,0,0,1,3.285,1.464,5.174,5.174,0,0,1,1.26,3.483ZM51.889,10.8V7.066h5.476c.541,0,.811-.552.811-1.65q0-1.682-.811-1.681H51.889V0l5.476,0A4,4,0,0,1,60.73,1.713a5.949,5.949,0,0,1,1.183,3.7A5.827,5.827,0,0,1,60.73,9.089a4.007,4.007,0,0,1-3.365,1.71ZM93.955,0V3.735H88.649c-.519,0-.777.406-.777,1.212V7.192h6.084v3.733H87.871v5.1H84.133V4.947a5.181,5.181,0,0,1,1.261-3.486A4.1,4.1,0,0,1,88.649,0ZM222.241,3.735h-13.35v2.4h12.48V9.87h-12.48V12.3H222.21v3.732H205.155V0h17.086Zm-39.31,12.294h-3.769V9.87h-9.587v6.159h-3.733V0h3.733V6.13h9.587V0h3.769Zm-39.311,0H131.231a5.179,5.179,0,0,1-3.706-1.449A4.779,4.779,0,0,1,126,10.956V5.073a4.786,4.786,0,0,1,1.526-3.627A5.176,5.176,0,0,1,131.231,0H143.62V3.735H131.231c-1,0-1.5.444-1.5,1.335v5.886c0,.891.5,1.338,1.5,1.338H143.62Zm-49.665-5.1V7.192h6.084V4.947c0-.81-.267-1.212-.808-1.212H93.955V0h5.276a4.126,4.126,0,0,1,3.285,1.464,5.167,5.167,0,0,1,1.26,3.483V16.029h-3.736v-5.1Z" transform="translate(0 0)" fill="#7e7978" fill-rule="evenodd"/>
            <path id="Trazado_667428" data-name="Trazado 667428" d="M82.269,36.87H68.992V48.009H60.84V23.833a11.274,11.274,0,0,1,2.75-7.61,8.942,8.942,0,0,1,7.1-3.194H82.269v8.15H70.688q-1.7,0-1.7,2.653V28.72H82.269ZM103.7,48.009H95.55V36.87H82.269V28.72H95.55V23.833q0-2.653-1.767-2.65l-11.514,0v-8.15H93.783a9.013,9.013,0,0,1,7.166,3.194,11.275,11.275,0,0,1,2.75,7.61Z" transform="translate(32.633 6.989)" fill="#cf212b" fill-rule="evenodd"/>
            <path id="Trazado_667429" data-name="Trazado 667429" d="M132.732,37.209a11.272,11.272,0,0,1-2.647,7.541,9.162,9.162,0,0,1-7.2,3.259H92.725V39.86h30.159q1.7,0,1.7-2.65c0-1.764-.567-2.65-1.7-2.65H100.945a9.15,9.15,0,0,1-7.2-3.259,10.828,10.828,0,0,1-2.716-7.468,11.2,11.2,0,0,1,2.784-7.61,9.039,9.039,0,0,1,7.132-3.193H131.1v8.149H100.945q-1.7,0-1.7,2.653,0,2.579,1.7,2.581h21.939a9.153,9.153,0,0,1,7.2,3.259,11.259,11.259,0,0,1,2.647,7.537" transform="translate(48.825 6.989)" fill="#cf212b" fill-rule="evenodd"/>
            <path id="Trazado_667430" data-name="Trazado 667430" d="M157.671,21.178H128.533v5.23h27.238v8.154H128.533v5.3H157.6v8.154h-37.22V13.031h37.286Z" transform="translate(64.571 6.99)" fill="#cf212b" fill-rule="evenodd"/>
          </g>
        </g>
      </g>
      <g id="mongodb-ar21" transform="translate(1031.917 7247.971)">
        <path id="Trazado_667431" data-name="Trazado 667431" d="M16.212,5.154,19.39,11.13a17.927,17.927,0,0,0,2.4,2.985,82.866,82.866,0,0,1,7.462,8.439A73.342,73.342,0,0,1,40.873,45.99a57.677,57.677,0,0,1,2.466,15.9A56.013,56.013,0,0,1,26.916,103.31a47.514,47.514,0,0,1-5.842,5c-1.108,0-1.624-.875-2.078-1.624a12.973,12.973,0,0,1-1.624-4.673,22.408,22.408,0,0,1-.519-5.909V95.2C16.79,95,15.816,5.612,16.2,5.157Z" transform="translate(17.279 0.211)" fill="#599636"/>
        <path id="Trazado_667432" data-name="Trazado 667432" d="M33.491,5.173c-.131-.262-.262-.064-.391.064a5.952,5.952,0,0,1-1.108,3.571,16.872,16.872,0,0,1-2.857,2.857A62.149,62.149,0,0,0,15.179,29.452,72.11,72.11,0,0,0,7.134,58.535c-.321,3.7,1.166,16.75,2.338,20.513,3.177,10,8.891,18.37,16.324,25.64a70.971,70.971,0,0,0,5.778,4.932c.583,0,.65-.519.778-.909a17.812,17.812,0,0,0,.583-2.533c.583-3.244.909-6.492,1.3-9.736L33.518,5.173Z" transform="translate(0 0)" fill="#6cac48"/>
        <path id="Trazado_667433" data-name="Trazado 667433" d="M20.608,53.631a9.231,9.231,0,0,1,1.624-3.959,4.121,4.121,0,0,1-1.819-1.691,13.812,13.812,0,0,1-.974-2.143,36.749,36.749,0,0,1-1.364-8.375V35.774c-.321.262-.391,2.466-.391,2.793a64.928,64.928,0,0,1-1.166,8.762A7.85,7.85,0,0,1,15.481,50.7a1.273,1.273,0,0,0,.064.455,38.924,38.924,0,0,1,1.691,10.517v1.3c0,1.557-.064,1.233,1.233,1.749a5.7,5.7,0,0,1,1.624.65c.391,0,.455-.321.455-.583l-.2-2.143V56.672a15.668,15.668,0,0,1,.262-3.052Z" transform="translate(16.069 58.848)" fill="#c2bfbf"/>
        <g id="Grupo_991636" data-name="Grupo 991636" transform="translate(77.061 60.019)">
          <path id="Trazado_667434" data-name="Trazado 667434" d="M44.381,43.087v6.182a4.318,4.318,0,0,0,.042.732,1.565,1.565,0,0,0,1.191,1.384,14.791,14.791,0,0,0,1.875.366c.366.042.488.2.53.6.042,1.384-.08,1.548-1.423,1.464a80.463,80.463,0,0,0-9.4,0h-.3c-.976.042-1.057-.042-1.057-1.018,0-.164.042-.366.042-.53a.431.431,0,0,1,.488-.446c.655-.08,1.262-.244,1.875-.366a1.689,1.689,0,0,0,1.423-1.587,22.775,22.775,0,0,0,.119-2.849l.042-10.9a1.667,1.667,0,0,0-.893-1.548,11.579,11.579,0,0,0-2.322-.976,3.2,3.2,0,0,1-.691-.244c-.6-.286-.61-.813-.042-1.14a2.074,2.074,0,0,1,.691-.244,36.969,36.969,0,0,0,7.239-1.831c.488-.164.61-.119.655.366a3.486,3.486,0,0,1-.042.935,10.242,10.242,0,0,0-.08,1.548.562.562,0,0,0,.244.53c.2.122.408,0,.6-.119a22.125,22.125,0,0,1,2.643-1.786,12.49,12.49,0,0,1,4.316-1.586,6.028,6.028,0,0,1,4.923,1.464,9.227,9.227,0,0,1,1.545,1.789c.408.6.446.61.976.2a23.993,23.993,0,0,1,4.923-2.887,7.553,7.553,0,0,1,5.572-.244,6.686,6.686,0,0,1,3.989,3.864,10.971,10.971,0,0,1,.935,4.554v10.9a1.566,1.566,0,0,0,1.018,1.548,15.171,15.171,0,0,0,2.441.61c.53.119.53.119.53.655-.08,1.339-.2,1.423-1.506,1.339a87.582,87.582,0,0,0-9.8,0c-.655.042-.655.042-.691-.61V53c-.042-1.1-.042-1.1,1.018-1.339l1.057-.286a1.637,1.637,0,0,0,1.262-1.587l.119-3.051-.08-7.971a6.34,6.34,0,0,0-.446-2.075,4.988,4.988,0,0,0-5.411-3.131,9.194,9.194,0,0,0-4.393,1.75.876.876,0,0,0-.446.854,63.369,63.369,0,0,1,.164,7.81v5.655a1.566,1.566,0,0,0,1.384,1.75l1.875.408c.286.042.446.164.446.488v.3c-.042,1.14-.119,1.191-1.262,1.179-3.253-.164-6.51-.119-9.721,0-1.1.042-1.191-.08-1.14-1.191.042-.655.119-.691.732-.813l1.339-.244A1.772,1.772,0,0,0,55.2,49.555l.119-2.727-.08-8.177a6.546,6.546,0,0,0-.854-2.929,4.283,4.283,0,0,0-3.825-2.36A8.588,8.588,0,0,0,45.8,34.7a2.4,2.4,0,0,0-1.384,2.482v5.938Zm76.637.247v5.736q.01.612.08,1.22a1.25,1.25,0,0,0,.976,1.14,9.494,9.494,0,0,0,2.155.366c.408.042.488.2.53.53v.286c-.042,1.423-.2,1.586-1.587,1.506a78.39,78.39,0,0,0-9.275,0l-1.191.042c-.244,0-.3-.119-.366-.286a4.137,4.137,0,0,1,0-1.709c.042-.244.2-.3.446-.366.6-.08,1.1-.2,1.667-.3a1.535,1.535,0,0,0,1.423-1.709L116,46.376V36.369a1.513,1.513,0,0,0-.935-1.506,14.628,14.628,0,0,0-2.322-.976,3.429,3.429,0,0,1-.691-.286.738.738,0,0,1-.08-1.3,1.459,1.459,0,0,1,.813-.327,34.529,34.529,0,0,0,7.566-1.953c.286-.119.408-.042.53.2a1.35,1.35,0,0,1,.119.813l-.119,1.911c0,.244-.119.6.08.691.244.164.408-.2.61-.3a18.128,18.128,0,0,1,3.947-2.521,8.154,8.154,0,0,1,4.027-.893,6.839,6.839,0,0,1,5.938,3.947,10.684,10.684,0,0,1,1.057,4.069l.119,2.977.042,8.989a1.362,1.362,0,0,0,.976,1.384,13.306,13.306,0,0,0,2.2.53c.655.08.691.2.732.813v.2c-.08,1.384-.164,1.423-1.548,1.339a85.1,85.1,0,0,0-9.111,0c-.408.042-.813,0-1.191.042-.244,0-.408-.042-.446-.286a4.384,4.384,0,0,1-.042-1.628.448.448,0,0,1,.446-.408l1.875-.3a1.363,1.363,0,0,0,1.1-1.191l.08-1.14-.042-8.5a14.313,14.313,0,0,0-.244-2.929,4.745,4.745,0,0,0-4.227-3.78,7.639,7.639,0,0,0-5.126,1.3,2.244,2.244,0,0,0-1.1,2.033v6.144c0-.119,0-.119.042-.119Z" transform="translate(-35.47 -17.776)" fill="#47474a"/>
          <path id="Trazado_667435" data-name="Trazado 667435" d="M130.054,39.794a15.874,15.874,0,0,0-3.459-7.933,15.686,15.686,0,0,0-6.266-4.637,22.588,22.588,0,0,0-8.055-1.464c-1.14-.042-16.678.2-17.818,0a.608.608,0,0,0-.655.286,4.645,4.645,0,0,0-.53.935c-.488,1.1-.488,1.018.691,1.179a22.049,22.049,0,0,1,2.849.53A2.237,2.237,0,0,1,98.479,30.4c.08.446.164,14.764.164,21.437L98.479,56.6a4.462,4.462,0,0,1-.2,1.057,1.7,1.7,0,0,1-.935,1.1,4.822,4.822,0,0,1-1.709.446c-1.1.119-1.262.164-1.628,1.384l-.119.446c-.08.53-.042.61.488.61l12.162.119,4.762-.08,3.3-.408a20.5,20.5,0,0,0,9.924-4.718,16.52,16.52,0,0,0,3.905-5.126,18.062,18.062,0,0,0,1.75-7.281,14.464,14.464,0,0,0-.119-4.352Zm-5.9,5.775a16.287,16.287,0,0,1-2.033,7.4,11.261,11.261,0,0,1-7.525,5.775,13.338,13.338,0,0,1-4.465.244,13.519,13.519,0,0,1-3.173-.61,3.407,3.407,0,0,1-2.521-3.572L104.4,30.281c0-1.464.655-1.786,1.709-1.831a27.525,27.525,0,0,1,4.8.08,18.039,18.039,0,0,1,4.923,1.191,11.847,11.847,0,0,1,3.215,1.994,14.183,14.183,0,0,1,4.465,6.995,20.2,20.2,0,0,1,.655,6.792Zm39.707,3.989a3.843,3.843,0,0,0-.042-.691,7.8,7.8,0,0,0-3.375-5.248,12.709,12.709,0,0,0-3.905-1.831,4.323,4.323,0,0,0-.691-.2.348.348,0,0,1,.286-.286,10.386,10.386,0,0,0,2.277-1.464,7.644,7.644,0,0,0,2.521-3.947,7.015,7.015,0,0,0,.164-2.6,7,7,0,0,0-2.971-5.289A10.789,10.789,0,0,0,151.78,26c-4.393-.08-8.825,0-13.216,0a24.683,24.683,0,0,1-3.825-.119c-.244-.042-.6-.119-.774.164a5.786,5.786,0,0,0-.774,1.667c-.042.286.042.446.366.488l2.807.408a2.015,2.015,0,0,1,1.953,1.75,17.2,17.2,0,0,1,.119,2.033L138.356,40l-.042,15.049a14.247,14.247,0,0,1-.286,2.643,1.488,1.488,0,0,1-1.057,1.22,8.39,8.39,0,0,1-2.441.488,1.012,1.012,0,0,0-1.057.691,5.286,5.286,0,0,0-.366,1.14c-.08.488.042.655.53.6.366-.042,13.79.286,16.312.042a24.682,24.682,0,0,0,4.474-.813,15.368,15.368,0,0,0,6.792-3.989,8.751,8.751,0,0,0,2.521-5.858,7.316,7.316,0,0,0,.119-1.628ZM144.133,32.888l.119-3.253a.9.9,0,0,1,.854-1.018,11.919,11.919,0,0,1,2.929-.08,14.152,14.152,0,0,1,2.887.488,6.079,6.079,0,0,1,3.989,3.253,5.835,5.835,0,0,1,.569,2.482,7.822,7.822,0,0,1-.488,3.334,4.48,4.48,0,0,1-3.375,2.768,57.756,57.756,0,0,1-6.792.164c-.61,0-.655-.08-.655-.691V36.5a26.164,26.164,0,0,1-.042-3.581Zm13.216,21.884a6.24,6.24,0,0,1-3.742,3.78,7.113,7.113,0,0,1-2.977.53,23.7,23.7,0,0,1-3.78-.244,3.539,3.539,0,0,1-2.6-3.173c-.2-2.075-.08-4.191-.119-5.736v-5.37c0-.655.08-.854.774-.854l3.825.042,2.6.3a8.806,8.806,0,0,1,4.8,2.521,6.6,6.6,0,0,1,1.75,4.027,9.021,9.021,0,0,1-.488,4.149Z" transform="translate(74.633 -25.749)" fill="#838139"/>
          <path id="Trazado_667436" data-name="Trazado 667436" d="M132.584,34.584l1.057.164a2.623,2.623,0,0,0,2.887-1.953,4.108,4.108,0,0,0,0-2.322c-.244,0-.366.2-.488.286a3.909,3.909,0,0,1-2.033.854,9.358,9.358,0,0,1-4.352-.446l-1.994-.691a11.758,11.758,0,0,0-4.316-.566,14.958,14.958,0,0,0-5.858,1.831,7.949,7.949,0,0,0-3.989,4.8,9.5,9.5,0,0,0-.244,3.864,7.209,7.209,0,0,0,4.718,6.144c.164.042.286.119.446.164.366.2.408.408.08.691l-1.018.691L115.04,49.6a.91.91,0,0,0-.488,1.3,4.257,4.257,0,0,0,1.3,1.953,6.786,6.786,0,0,0,1.872,1.14c.446.2.446.3.042.655l-2.322,1.667a13.908,13.908,0,0,0-2.2,1.953,4.018,4.018,0,0,0-.976,3.661,6.876,6.876,0,0,0,2.113,3.661,8.632,8.632,0,0,0,3.742,2.033,15.959,15.959,0,0,0,15.5-4.352,8.867,8.867,0,0,0,2.6-5.953,5.715,5.715,0,0,0-4.393-5.938l-2.2-.408-6.712-.6a4.5,4.5,0,0,1-2.075-.53,1.393,1.393,0,0,1-.488-2.033,1.933,1.933,0,0,1,1.384-.774l1.3-.119a11.787,11.787,0,0,0,6.873-3.131A7.2,7.2,0,0,0,132,40.331a10.845,10.845,0,0,0,.08-5.358c-.119-.446-.08-.488.488-.408Zm-9.971,20.261a4.3,4.3,0,0,0,.732,0,23.845,23.845,0,0,1,5.126.655,10.656,10.656,0,0,1,1.587.61,3.9,3.9,0,0,1,2.033,4.108,5.14,5.14,0,0,1-2.849,3.989,8.705,8.705,0,0,1-3.459.976c-.446.042-.854,0-1.3,0a9.659,9.659,0,0,1-4.149-.691,6.416,6.416,0,0,1-2.4-1.628,4.2,4.2,0,0,1,.042-6.144,5.975,5.975,0,0,1,4.637-1.875Zm4.637-12.692a3.974,3.974,0,0,1-4.6,2.521,4.87,4.87,0,0,1-3.78-2.727,8.761,8.761,0,0,1-.732-6.468,3.982,3.982,0,0,1,3.253-3.215,4.982,4.982,0,0,1,5.614,2.685,8.883,8.883,0,0,1,.854,4.352,9.215,9.215,0,0,1-.61,2.849ZM76,39.385a11.246,11.246,0,0,0-2.685-5.858,10.743,10.743,0,0,0-8.3-3.581,14.31,14.31,0,0,0-7.81,2.238,10.6,10.6,0,0,0-4.76,6.224,14.158,14.158,0,0,0-.119,7.159C53.75,52,58.715,54.759,64.65,54.354a13.528,13.528,0,0,0,5-1.464A10.975,10.975,0,0,0,74.9,47.722a13.364,13.364,0,0,0,1.3-6.266L76,39.382Zm-5.775,9.031a4.941,4.941,0,0,1-4.191,3.417,6.8,6.8,0,0,1-4.962-1.262A8.453,8.453,0,0,1,58.51,47.52a15.6,15.6,0,0,1-1.1-10.656,6.1,6.1,0,0,1,1.709-2.971,5.547,5.547,0,0,1,5.209-1.3,7.406,7.406,0,0,1,4.465,2.971,11.667,11.667,0,0,1,2.033,5.209,21.426,21.426,0,0,1,.2,2.521,13.611,13.611,0,0,1-.774,5.126Zm94.654-8.7a11.016,11.016,0,0,0-2.849-6.3,10.863,10.863,0,0,0-8.215-3.459,14.493,14.493,0,0,0-7.566,2.075,10.357,10.357,0,0,0-5.084,6.712,14.2,14.2,0,0,0,.976,9.68,9.873,9.873,0,0,0,6.632,5.492,13.333,13.333,0,0,0,9.6-1.018,11.149,11.149,0,0,0,5.694-6.1A15.025,15.025,0,0,0,165,41.376a9.3,9.3,0,0,0-.119-1.667Zm-5.614,8.177a5.067,5.067,0,0,1-4.352,3.947,6.763,6.763,0,0,1-4.8-1.14,8.27,8.27,0,0,1-2.807-3.334,12.522,12.522,0,0,1-1.3-4.474,15.812,15.812,0,0,1,.2-5.694,5.8,5.8,0,0,1,.366-1.1,5.484,5.484,0,0,1,6.632-3.5,7.4,7.4,0,0,1,4.637,3.215,11.98,11.98,0,0,1,1.875,5.358,10.911,10.911,0,0,1,.119,2.277,13.842,13.842,0,0,1-.6,4.474Z" transform="translate(-3.956 -17.815)" fill="#47474a"/>
        </g>
      </g>
      <g id="cassandra" transform="translate(850.677 7338.129)">
        <g id="Grupo_991637" data-name="Grupo 991637" transform="translate(9.645 79.212)">
          <path id="Trazado_667437" data-name="Trazado 667437" d="M24.8,137.228a4.993,4.993,0,0,1,3.241.917c.122.978-.8,2.568-1.345,2.568a5.713,5.713,0,0,0-2.079-.367c-3.18,0-4.77,3.3-4.77,6.544,0,2.018.673,3.241,2.324,3.241a7.4,7.4,0,0,0,4.4-2.018,1.845,1.845,0,0,1,.55,1.345,2.684,2.684,0,0,1-.856,2.018,7.95,7.95,0,0,1-5.749,2.079c-3.119,0-5.32-1.773-5.32-5.932C15.322,142.12,18.869,137.228,24.8,137.228Zm10.274,12.72c1.712,0,4.831-3,5.687-8.745.061-.367.061-.428.122-.8a4.816,4.816,0,0,0-1.407-.245,4.3,4.3,0,0,0-3.792,2.018,9.956,9.956,0,0,0-1.773,5.565C33.913,149.153,34.341,149.948,35.075,149.948Zm-5.626-1.59a12.027,12.027,0,0,1,3.3-8.256,9.838,9.838,0,0,1,7.461-2.874,33.9,33.9,0,0,1,5.259.8c-.367,1.529-1.162,7.339-1.59,10.7a26.531,26.531,0,0,0-.183,4.159,13.026,13.026,0,0,1-3.914.612c-.306,0-.367-1.407-.306-2.813a13.152,13.152,0,0,0,.122-1.407,8.444,8.444,0,0,1-6.849,4.158c-2.018.061-3.3-1.651-3.3-5.076Zm24.706-11.13a5.315,5.315,0,0,1,3.425,1.162c-.061.978-.8,2.63-2.018,2.14a5.114,5.114,0,0,0-1.773-.306c-.917,0-1.773.428-1.773,1.284,0,.673.489,1.162,2.813,2.813,1.651,1.223,2.324,2.324,2.324,3.853,0,2.568-2.385,5.32-6.6,5.32-1.712,0-3.241-.673-3.669-1.345-.612-1.04-.122-3.119.55-2.752a9.5,9.5,0,0,0,3.608.917c1.162,0,1.9-.55,1.9-1.223,0-.612-.55-1.1-2.63-2.63-1.773-1.345-2.324-2.568-2.324-3.914,0-2.935,2.507-5.32,6.177-5.32Zm12.047,0a5.315,5.315,0,0,1,3.425,1.162c-.061.978-.8,2.63-2.018,2.14a5.114,5.114,0,0,0-1.773-.306c-.917,0-1.773.428-1.773,1.284,0,.673.489,1.162,2.813,2.813,1.651,1.223,2.324,2.324,2.324,3.853,0,2.568-2.385,5.32-6.6,5.32a4.9,4.9,0,0,1-3.669-1.345c-.612-1.04-.122-3.119.55-2.752a9.5,9.5,0,0,0,3.608.917c1.162,0,1.9-.55,1.9-1.223,0-.612-.55-1.1-2.63-2.63-1.773-1.345-2.324-2.568-2.324-3.914,0-2.935,2.507-5.32,6.177-5.32Zm10.947,12.72c1.712,0,4.831-3,5.687-8.745.061-.367.061-.428.122-.8a4.816,4.816,0,0,0-1.407-.245,4.3,4.3,0,0,0-3.792,2.018,9.956,9.956,0,0,0-1.773,5.565C76.049,149.153,76.416,149.948,77.149,149.948Zm-5.626-1.59a12.027,12.027,0,0,1,3.3-8.256,9.838,9.838,0,0,1,7.461-2.874,33.9,33.9,0,0,1,5.259.8c-.367,1.529-1.162,7.339-1.59,10.7a26.532,26.532,0,0,0-.183,4.159,13.026,13.026,0,0,1-3.914.612c-.306,0-.367-1.407-.306-2.813a13.153,13.153,0,0,0,.122-1.407,8.444,8.444,0,0,1-6.849,4.158c-1.957.061-3.3-1.651-3.3-5.076Zm23.911-6.6c1.59-2.568,3.669-4.525,6.6-4.525,2.507,0,3.3,2.324,2.813,5.565-.245,1.529-.673,3.73-.917,5.749a24.573,24.573,0,0,0-.367,4.281,15.543,15.543,0,0,1-4.159.612c-.245,0-.306-1.9.061-3.914.306-1.651.856-4.709,1.162-6.482.183-1.04.122-2.263-.856-2.263-1.284,0-4.342,2.079-5.871,10.519a1.767,1.767,0,0,1-.8,1.345,8.468,8.468,0,0,1-3.914.612c.428-2.14,1.1-6.482,1.59-9.724a35.164,35.164,0,0,0,.55-5.565c.612-.183,3.73-.856,4.036-.856.367,0,.428,1.1.122,3.669-.061.245-.061.612-.122.856h.061v.122Zm17.735,8.134c1.529,0,4.648-2.874,5.5-7.95.061-.306.122-.795.183-1.1a2.664,2.664,0,0,0-2.018-.673c-3.547,0-5.076,4.22-5.076,7.277.061,1.59.612,2.446,1.407,2.446Zm-2.263,3.608c-2.263,0-3.608-2.018-3.608-5.382,0-5.626,3.547-10.824,9.479-10.824a5.661,5.661,0,0,1,2.568.612c.306-1.59,1.04-6.544,1.1-8.011a30.286,30.286,0,0,1,4.036-.489c.367,0,.489.367.367,1.284-.856,5.259-2.324,15.289-2.63,17.49a35.286,35.286,0,0,0-.183,4.77,13.113,13.113,0,0,1-3.975.612c-.245,0-.367-1.59-.306-3.058.061-.428.122-1.1.122-1.223-1.9,2.813-4.281,4.22-6.972,4.22Zm20.426-11.252c1.835-4.1,4.036-5.015,5.5-5.015a2.621,2.621,0,0,1,1.468.612,7.714,7.714,0,0,1-1.59,4.342,3.745,3.745,0,0,0-1.529-.428c-1.162,0-3.547,1.835-5.015,9.785-.122.673-.306.917-.673,1.1a14.59,14.59,0,0,1-4.036.673c.55-2.874,1.407-8.684,1.773-12.109a18.128,18.128,0,0,0,.061-3.119,19.453,19.453,0,0,1,3.853-.917c.306,0,.55,1.9.061,5.015h.122v.061Zm12.292,7.705c1.712,0,4.831-3,5.687-8.745.061-.367.061-.428.122-.8a4.816,4.816,0,0,0-1.407-.245,4.3,4.3,0,0,0-3.792,2.018,9.956,9.956,0,0,0-1.773,5.565C142.524,149.153,142.891,149.948,143.624,149.948ZM138,148.358a12.028,12.028,0,0,1,3.3-8.256,9.839,9.839,0,0,1,7.461-2.874,33.9,33.9,0,0,1,5.259.8c-.367,1.529-1.162,7.339-1.59,10.7a26.532,26.532,0,0,0-.183,4.159,13.026,13.026,0,0,1-3.914.612c-.306,0-.367-1.407-.306-2.813a13.151,13.151,0,0,0,.122-1.407,8.444,8.444,0,0,1-6.849,4.158C139.344,153.495,138,151.783,138,148.358Z" transform="translate(-15.2 -129.4)" fill="#373535"/>
        </g>
        <path id="Trazado_667438" data-name="Trazado 667438" d="M142.93,32.525c1.162,13.393-19.936,26.174-47.15,28.5S45.633,54.357,44.471,40.964s19.936-26.174,47.15-28.5c27.153-2.324,50.147,6.6,51.309,20.059" transform="translate(-16.908 -4.622)" fill="#bbe6fb"/>
        <path id="Trazado_667439" data-name="Trazado 667439" d="M101.823,15.2c-10.4-.183-22.5,3.975-31.556,7.828A26.49,26.49,0,0,0,68.8,31.586c0,15.9,14.371,28.8,32.106,28.8s32.167-12.842,32.167-28.8A26.6,26.6,0,0,0,129.1,17.7,211.532,211.532,0,0,0,101.823,15.2" transform="translate(-26.376 -5.823)" fill="#fff"/>
        <path id="Trazado_667440" data-name="Trazado 667440" d="M104.968,15.181c-5.749-.367-15.656,2.63-23.911,5.626a23.848,23.848,0,0,0-1.957,9.6c0,13.943,12.659,25.257,25.991,25.257,13.271,0,25.012-11.314,25.991-25.257a21.59,21.59,0,0,0-3.425-12.476c-8.5-1.468-17.551-2.385-22.688-2.752" transform="translate(-30.377 -5.807)" fill="#fff"/>
        <path id="Trazado_667441" data-name="Trazado 667441" d="M94.62,28.745c.734-1.59,1.773-2.324,2.813-3.608a8.008,8.008,0,0,1-.367-1.651,2.806,2.806,0,0,1,2.813-2.813,2.857,2.857,0,0,1,1.04.183,20.566,20.566,0,0,1,17.123-3.73c.55.122,1.1.306,1.651.428a24.463,24.463,0,0,0-17.8,5.137,8,8,0,0,1,.55,1.712c0,1.59-1.04,1.957-2.568,1.957a3.106,3.106,0,0,1-1.04-.183,27.929,27.929,0,0,0-3,5.871c2.63,2.324,4.954,3.18,8.011,4.342,0-.122.122-.306.122-.428a8.854,8.854,0,0,1,8.867-8.562,8.549,8.549,0,0,1,8.439,7.094c2.14-1.345,4.159-2.385,5.687-4.342a4.96,4.96,0,0,1-.734-2.324,2.584,2.584,0,0,1,2.568-2.568,2.294,2.294,0,0,1,.612.061,22.227,22.227,0,0,0,1.773-5.137c-7.4-5.5-21.71-4.709-21.71-4.709s-11.375-.612-19.08,3.18a23.3,23.3,0,0,0,4.22,10.09" transform="translate(-34.767 -5.918)" fill="#373535"/>
        <path id="Trazado_667442" data-name="Trazado 667442" d="M132.986,29.738a4.553,4.553,0,0,1,1.04,1.284c.673,1.223-.673,2.385-2.14,2.385a1.041,1.041,0,0,1-.428-.061,27.228,27.228,0,0,1-6.91,7.339A20.951,20.951,0,0,1,134.82,45.21a30.729,30.729,0,0,0,3.669-13.76,9.854,9.854,0,0,0-3.853-7.95c-.061,1.9-1.1,4.525-1.651,6.238M101.919,53.466c1.284-3.547,4.4-6.238,7.4-8.623a16.353,16.353,0,0,1-1.345-2.752,21.215,21.215,0,0,1-9.3-5.871c0,.061-.061.183-.061.245a17.945,17.945,0,0,0-.306,6.238,3.744,3.744,0,0,1,3.058,3.669,5.941,5.941,0,0,1-1.712,3.363,17.315,17.315,0,0,0,2.263,3.73" transform="translate(-37.786 -9.051)" fill="#373535"/>
        <path id="Trazado_667443" data-name="Trazado 667443" d="M94.266,55.275c-1.529-1.529-2.568-4.525-3.547-6.421-.183,0-.367.061-.55.061-2.079,0-4.22-1.712-3.73-3.73A3.705,3.705,0,0,1,88.7,42.738a24.827,24.827,0,0,1,.183-7.95c.122-.673.489-.978.673-1.651a21.929,21.929,0,0,1-3.73-12.047V20.6c-3.853,1.957-6.727,4.954-6.727,9.724,0,10.58,6.115,20.976,15.166,25.012v-.061m22.321-14.616a8.614,8.614,0,0,1-8.072,5.749,8.2,8.2,0,0,1-5.259-1.835A24.464,24.464,0,0,0,96.162,54.6a16.66,16.66,0,0,0,1.773,1.835c2.079.55,5.015,0,7.277,0,9.112,0,17.246-4.036,21.893-11.191-3.18-2.2-6.849-4.281-10.519-4.587" transform="translate(-30.377 -7.924)" fill="#373535"/>
        <path id="Trazado_667444" data-name="Trazado 667444" d="M94.3,30.629a22.194,22.194,0,0,1,2.63-4.342,2.77,2.77,0,0,1-.183-.978A2.806,2.806,0,0,1,99.557,22.5a2.857,2.857,0,0,1,1.04.183,20.566,20.566,0,0,1,17.123-3.73c.55.122,1.1.306,1.651.428a22.788,22.788,0,0,0-17.184,4.831,3.571,3.571,0,0,1,.245,1.1,2.806,2.806,0,0,1-2.813,2.813,3.106,3.106,0,0,1-1.04-.183,18.461,18.461,0,0,0-2.568,4.709,21.217,21.217,0,0,0,8.072,5.443v-.428a8.564,8.564,0,0,1,17-1.468,21.952,21.952,0,0,0,5.565-5.076,2.445,2.445,0,0,1-.612-1.59,2.584,2.584,0,0,1,2.568-2.568,2.294,2.294,0,0,1,.612.061,22.227,22.227,0,0,0,1.773-5.137c-7.4-5.5-21.71-4.709-21.71-4.709s-11.375-.612-19.08,3.18a21.609,21.609,0,0,0,4.1,10.274" transform="translate(-34.689 -6.578)" fill="#1287b1"/>
        <path id="Trazado_667445" data-name="Trazado 667445" d="M133.2,30.943a2.508,2.508,0,0,1,.856,1.9,2.584,2.584,0,0,1-2.568,2.568,1.041,1.041,0,0,1-.428-.061,20.239,20.239,0,0,1-6.238,6.238,20.56,20.56,0,0,1,10.029,4.525,26.017,26.017,0,0,0,3.3-12.659A9.854,9.854,0,0,0,134.3,25.5a20.018,20.018,0,0,1-1.1,5.443M102.131,55.038a20.358,20.358,0,0,1,6.482-9.051,7.5,7.5,0,0,1-1.04-1.957,21.215,21.215,0,0,1-9.3-5.871c0,.061-.061.183-.061.245a17.945,17.945,0,0,0-.306,6.238,3.722,3.722,0,0,1,1.835,6.421,20.155,20.155,0,0,0,2.385,3.975" transform="translate(-37.63 -9.828)" fill="#1287b1"/>
        <path id="Trazado_667446" data-name="Trazado 667446" d="M94.111,55.99a20.689,20.689,0,0,1-3.792-5.137c-.183,0-.367.061-.55.061a3.706,3.706,0,0,1-3.73-3.73,3.775,3.775,0,0,1,2.079-3.363,19.565,19.565,0,0,1,.367-7.033c.122-.673.367-1.345.55-2.018a20.634,20.634,0,0,1-3.608-11.681V22.6c-3.853,1.957-6.727,4.954-6.727,9.724A25.954,25.954,0,0,0,94.05,56.051c.061,0,.061,0,.061-.061m22.077-13.332a8.614,8.614,0,0,1-8.072,5.749,8.2,8.2,0,0,1-5.259-1.835,21.193,21.193,0,0,0-6.666,9.112c.612.673,1.284,1.284,1.957,1.9a25.592,25.592,0,0,0,6.544.856,26.02,26.02,0,0,0,21.832-11.864,20.835,20.835,0,0,0-10.335-3.914" transform="translate(-30.222 -8.701)" fill="#1287b1"/>
        <path id="Trazado_667447" data-name="Trazado 667447" d="M124.263,41.117l7.889-1.9-7.95-.428,6.482-4.892-7.339,2.63,4.954-6.91-6.91,4.587,2.385-8.072L119.064,32.8l-.122-8.439-3.119,7.522L113.255,24.3l.122,8.929-4.464-8.011,2.446,8.5-7.277-5.259,5.687,7.155-9.051-3.3,7.094,5.259-9.112.306,9.357,2.385L98.7,42.279l9.234.673-7.767,4.954,8.011-2.874-5.565,7.033,7.033-5.687-2.507,9.418,5.443-7.705-.734,9.051,3.058-8.256,2.63,8.623.612-8.684,3.914,7.4-2.324-8.439,7.094,5.5-4.587-7.033,7.828,3.058-5.993-5.871,8.011.612Z" transform="translate(-37.991 -9.362)" fill="#fff"/>
        <path id="Trazado_667448" data-name="Trazado 667448" d="M2.8,47.949C27.323,23.426,46.892,15.842,64.688,12.418,67.012,11.99,67.5,6.792,67.5,6.792s.306,3.792,1.957,4.281S73.25,5.14,73.25,5.14s-1.957,5.749,0,6.115c1.957.306,5.626-5.626,5.626-5.626s-1.468,5.076-.489,5.443c.978.306,5.932-7.4,5.932-7.4S81.383,8.749,84.135,9.3c2.813.489,6.91-3.486,6.91-3.486s-3.18,3.608-1.773,4.159c6.115,2.14,11.008-5.749,11.008-5.749a27.464,27.464,0,0,1-4.1,7.277c6.421,1.651,11.191-8.011,11.191-8.011l-4.77,9.662C105.05,14.375,114.9,3,114.9,3s-5.076,8.867-8.072,10.7c1.651,1.345,7.583-3.975,7.583-3.975s-4.77,5.932-2.935,6.238c2.63,2.14,12.353-11.008,12.353-11.008a66.553,66.553,0,0,1-9.357,13.821c4.648,2.385,16.267-12.6,16.267-12.6s-.306,4.77-8.745,12.353c6.238-.8,14.31-12.659,14.31-12.659a39.273,39.273,0,0,1-10.029,15.166c6.115-.612,15.961-15.778,15.961-15.778s-3.792,10.519-11.5,16.634c8.562,1.9,20.915-10.885,20.915-10.885s-4.831,9.051-11.191,12.781c7.094,2.691,16.817-8.5,16.817-8.5s-9.724,14.983-25.2,14.31C127,29.358,111.655,14.191,78.754,15.414,35.212,17,26.039,35.473,2.8,47.949" transform="translate(-0.738 -1.088)" fill="rgba(55,53,53,0.35)"/>
        <path id="Trazado_667449" data-name="Trazado 667449" d="M4.4,45.026C28.923,20.5,48.492,12.92,66.288,9.5,68.612,9.067,69.1,3.869,69.1,3.869s.306,3.792,1.957,4.281S74.85,2.218,74.85,2.218s-1.957,5.749,0,6.115c1.957.306,5.626-5.626,5.626-5.626s-1.468,5.076-.489,5.443c.978.306,5.932-7.4,5.932-7.4s-2.935,5.076-.183,5.626c2.813.489,6.91-3.486,6.91-3.486S89.466,6.5,90.872,7.049C96.988,9.19,101.88,1.3,101.88,1.3a27.464,27.464,0,0,1-4.1,7.277C104.2,10.229,108.974.567,108.974.567l-4.77,9.662C106.65,11.575,116.557.2,116.557.2s-5.076,8.867-8.072,10.7c1.651,1.162,7.583-4.1,7.583-4.1s-4.77,5.932-2.935,6.238c2.63,2.14,12.353-11.008,12.353-11.008a68.231,68.231,0,0,1-9.418,13.821C120.716,18.179,132.4,3.2,132.4,3.2s-.306,4.77-8.745,12.353c6.238-.8,14.31-12.659,14.31-12.659a39.273,39.273,0,0,1-10.029,15.166c6.115-.612,15.961-15.778,15.961-15.778S140.1,12.8,132.4,18.913c8.562,1.9,20.915-10.885,20.915-10.885s-4.831,9.051-11.191,12.781c7.094,2.691,16.817-8.5,16.817-8.5s-9.724,14.983-25.2,14.31c-5.076-.245-20.426-15.411-53.327-14.188C36.873,14.082,27.639,32.49,4.4,45.026" transform="translate(-1.36)" fill="#373535"/>
        <path id="Trazado_667450" data-name="Trazado 667450" d="M1.8,67.98C14.765,74.462,26.629,67,41.55,71.221c11.375,3.18,25.2,7.155,43.97,4.4,18.774-2.691,34.8-10.885,42.5-25.44,2.385-6.482,12.109,1.468,12.109,1.468s-7.094-2.935-6.91-1.59c.183,1.407,10.641,6.238,10.641,6.238s-9.479-2.935-8.867-.734c.55,2.2,11.864,11.13,11.864,11.13s-12.9-9.662-13.943-8.317c-1.1,1.345,5.443,6.666,5.443,6.666s-10.763-6.666-14.555-4.709c-2.752,1.407,11.191,10.519,11.191,10.519s-9.051-6.91-11.191-5.076,10.213,16.634,10.213,16.634S119.95,67.246,118.544,67.98s3.853,8.011,3.853,8.011-6.849-7.583-8.745-6.3c-1.9,1.345,9.907,20.976,9.907,20.976s-12.781-20.12-18.1-16.756c8.256,18.163,5.2,20.731,5.2,20.731S109.615,76.113,99.28,76.6c-5.2.245,2.446,13.821,2.446,13.821s-7.033-12.414-11.742-12.17c8.623,16.389,5.565,22.994,5.565,22.994s1.407-14-10.274-21.771c4.464,3.975-2.813,21.771-2.813,21.771s6.36-26.235-4.709-21.221c-1.773.8-.122,13.087-.122,13.087s-2.2-14.066-5.565-13.332c-1.957.428-12.353,19.508-12.353,19.508s8.5-20.609,5.932-19.753c-1.9.612-5.443,9.112-5.443,9.112s1.712-8.378,0-8.867S48.828,88.65,48.828,88.65,55.983,80.272,54.76,78.5c-1.9-2.63-4.036-2.752-6.666-1.712-3.792,1.468-8.867,8.378-8.867,8.378s5.076-7.033,4.22-9.6C42.04,71.343,27.424,83.7,27.424,83.7s8.623-8.134,6.666-9.907c-1.957-1.712-12.72-1.223-16.022-1.223C8.221,72.689,4.8,70.365,1.8,67.98" transform="translate(-0.35 -18.428)" fill="rgba(55,53,53,0.35)"/>
        <path id="Trazado_667451" data-name="Trazado 667451" d="M.9,65.58c12.965,6.482,24.829-.978,39.75,3.241,11.375,3.18,25.2,7.155,43.97,4.4,18.774-2.691,34.8-10.885,42.5-25.44,2.385-6.482,12.109,1.468,12.109,1.468s-7.094-2.935-6.91-1.59c.183,1.407,10.641,6.238,10.641,6.238s-9.479-2.935-8.867-.734c.55,2.2,11.864,11.13,11.864,11.13s-12.781-9.724-13.821-8.378,5.443,6.666,5.443,6.666-10.763-6.666-14.555-4.709c-2.752,1.407,11.191,10.519,11.191,10.519s-9.051-6.91-11.191-5.076,10.213,16.634,10.213,16.634-14-15.166-15.411-14.432,3.853,8.011,3.853,8.011-6.972-7.522-8.867-6.238c-1.9,1.345,9.846,20.976,9.846,20.976s-12.781-20.181-18.041-16.817c8.317,18.224,5.2,20.793,5.2,20.793s-1.04-18.53-11.375-18.041c-5.2.245,2.446,13.821,2.446,13.821S93.916,75.67,89.207,75.915C97.83,92.3,94.772,98.909,94.772,98.909s1.407-14-10.274-21.771c4.464,3.975-2.813,21.771-2.813,21.771s6.36-26.235-4.709-21.221c-1.773.8-.122,13.087-.122,13.087s-2.2-14.066-5.565-13.332c-1.957.428-12.353,19.508-12.353,19.508s8.5-20.609,5.932-19.753c-1.9.612-5.443,9.112-5.443,9.112s1.712-8.378,0-8.867S48.05,86.311,48.05,86.311s7.155-8.378,5.932-10.152c-1.9-2.63-4.036-2.752-6.666-1.712-3.792,1.468-8.867,8.378-8.867,8.378s5.076-7.033,4.22-9.6C41.262,69,26.646,81.358,26.646,81.358s8.623-8.134,6.666-9.907c-1.957-1.712-12.72-1.223-16.022-1.223C7.321,70.289,3.9,67.965.9,65.58" transform="translate(0 -17.496)" fill="#373535"/>
      </g>
      <g id="Grupo_991639" data-name="Grupo 991639" transform="translate(1052.007 7376.532)">
        <g id="Grupo_991638" data-name="Grupo 991638" clip-path="url(#clip-path-8)">
          <path id="Trazado_667452" data-name="Trazado 667452" d="M154.75,49.738h6.987v4.09a8.749,8.749,0,0,1,3.017-3.672,7.286,7.286,0,0,1,4.12-1.252,7.623,7.623,0,0,1,3.314.835l-2.538,7.017a5.6,5.6,0,0,0-2.357-.718q-1.881,0-3.2,2.33-1.286,2.329-1.284,9.136l.032,1.584V82.228h-8.1Z" transform="translate(-115.063 -36.361)" fill="#555456"/>
          <path id="Trazado_667453" data-name="Trazado 667453" d="M235.515,0a4.955,4.955,0,0,1,3.672,1.551,5.123,5.123,0,0,1,1.552,3.763,5.149,5.149,0,0,1-1.521,3.733,4.971,4.971,0,0,1-3.643,1.524,5.1,5.1,0,0,1-3.735-1.553,5.322,5.322,0,0,1-1.522-3.824,5.006,5.006,0,0,1,1.522-3.671A5.009,5.009,0,0,1,235.515,0m-4.089,13.376h8.18V45.867h-8.18Z" transform="translate(-171.253)" fill="#555456"/>
          <path id="Trazado_667454" data-name="Trazado 667454" d="M315.078,49.734H323.2v32.49h-8.123V78.787a16.179,16.179,0,0,1-4.8,3.285,13.471,13.471,0,0,1-5.2.987,14.525,14.525,0,0,1-10.9-4.87,17.071,17.071,0,0,1-4.6-12.152,17.445,17.445,0,0,1,4.451-12.331A14.179,14.179,0,0,1,304.836,48.9a13.742,13.742,0,0,1,5.495,1.1,14.968,14.968,0,0,1,4.747,3.314Zm-8.567,6.689a8.245,8.245,0,0,0-6.3,2.688,9.56,9.56,0,0,0-2.513,6.838,9.741,9.741,0,0,0,2.54,6.927,8.338,8.338,0,0,0,6.3,2.716,8.461,8.461,0,0,0,6.389-2.655,9.811,9.811,0,0,0,2.539-7.019,9.471,9.471,0,0,0-2.539-6.866,8.547,8.547,0,0,0-6.419-2.629" transform="translate(-215.314 -36.358)" fill="#555456"/>
          <path id="Trazado_667455" data-name="Trazado 667455" d="M453.516,3.254h8.151V29.2l12-13.407h10.211L469.911,31.384l15.677,16.9H475.463l-13.8-14.963V48.287h-8.151Z" transform="translate(-337.208 -2.42)" fill="#555456"/>
          <path id="Trazado_667456" data-name="Trazado 667456" d="M35.512,95.359l-1.506-.133A32.652,32.652,0,0,0,31.13,80.5c-3.309-7.26-7.142-8.8-7.181-8.819l.269-.719.117-.734a63.947,63.947,0,0,1,14.5,4.357,63.407,63.407,0,0,1,10.626,5.723l-.891,1.22a63.919,63.919,0,0,0-10.355-5.565A58,58,0,0,0,30.5,73.2a48.621,48.621,0,0,1,5.626,3.879c6.487,5.172,9.188,13.441,9.3,13.79l-1.439.461c-.026-.078-2.683-8.19-8.8-13.07a46.972,46.972,0,0,0-6.126-4.143A27.131,27.131,0,0,1,32.5,79.871a33.536,33.536,0,0,1,3.007,15.488" transform="translate(-17.807 -52.217)" fill="#514e4d"/>
          <path id="Trazado_667457" data-name="Trazado 667457" d="M20.838,66.043A2.246,2.246,0,1,1,18.593,63.8a2.247,2.247,0,0,1,2.245,2.246" transform="translate(-12.155 -47.436)" fill="#ee871d"/>
          <path id="Trazado_667458" data-name="Trazado 667458" d="M60.311,49.7a2.247,2.247,0,1,1-2.246-2.246A2.246,2.246,0,0,1,60.311,49.7" transform="translate(-41.502 -35.28)" fill="#514e4d"/>
          <path id="Trazado_667459" data-name="Trazado 667459" d="M99.546,66.274A2.247,2.247,0,1,1,97.3,64.028a2.247,2.247,0,0,1,2.247,2.246" transform="translate(-70.674 -47.608)" fill="#514e4d"/>
          <path id="Trazado_667460" data-name="Trazado 667460" d="M115.9,105.515a2.247,2.247,0,1,1-2.249-2.245,2.248,2.248,0,0,1,2.249,2.245" transform="translate(-82.836 -76.786)" fill="#514e4d"/>
          <path id="Trazado_667461" data-name="Trazado 667461" d="M99.546,144.754a2.247,2.247,0,1,1-2.247-2.246,2.246,2.246,0,0,1,2.247,2.246" transform="translate(-70.674 -105.961)" fill="#514e4d"/>
          <path id="Trazado_667462" data-name="Trazado 667462" d="M60.311,161.1a2.247,2.247,0,1,1-2.246-2.248,2.249,2.249,0,0,1,2.246,2.248" transform="translate(-41.502 -118.115)" fill="#514e4d"/>
          <path id="Trazado_667463" data-name="Trazado 667463" d="M20.838,144.986a2.246,2.246,0,1,1-2.245-2.248,2.248,2.248,0,0,1,2.245,2.248" transform="translate(-12.155 -106.132)" fill="#514e4d"/>
          <path id="Trazado_667464" data-name="Trazado 667464" d="M4.492,105.515a2.246,2.246,0,1,1-2.247-2.245,2.247,2.247,0,0,1,2.247,2.245" transform="translate(0 -76.786)" fill="#514e4d"/>
          <path id="Trazado_667465" data-name="Trazado 667465" d="M154.75,202.86h10.532v2.695h-7.635v4.7h6.138v2.615h-6.138v4.569h7.635v2.695H154.75Z" transform="translate(-115.063 -150.835)" fill="#ee871d"/>
          <path id="Trazado_667466" data-name="Trazado 667466" d="M208.086,233.226V220.774h2.846v.625a8.9,8.9,0,0,1,3.192-.923c3.269,0,4.242,2.3,4.242,6.238v6.511h-2.844v-6.487c0-2.122-.3-3.666-1.945-3.666a8.989,8.989,0,0,0-2.644.622v9.53Z" transform="translate(-154.721 -163.934)" fill="#ee871d"/>
          <path id="Trazado_667467" data-name="Trazado 667467" d="M260.965,213.673v5.215c0,1.7.351,2.421,1.3,2.421.7,0,1.874-.077,1.874-.077l.122,2.325a14.59,14.59,0,0,1-2.4.345c-2.669,0-3.743-1.346-3.743-4.69v-5.54h-1.472v-2.495h1.472v-3.643h2.845v3.643h3.219v2.495Z" transform="translate(-190.829 -154.311)" fill="#ee871d"/>
          <path id="Trazado_667468" data-name="Trazado 667468" d="M302.565,230.776l.05,2.118a21.889,21.889,0,0,1-4.744.6c-3.864,0-5.311-2.22-5.311-6.364,0-4.194,1.823-6.665,5.29-6.665,3.492,0,5.189,2.1,5.189,5.694l-.2,2.02h-7.413c.028,1.644.723,2.819,2.673,2.819,1.77,0,4.466-.221,4.466-.221m-2.345-4.769c0-2.073-.65-3.145-2.37-3.145s-2.423,1.148-2.444,3.145Z" transform="translate(-217.53 -163.925)" fill="#ee871d"/>
          <path id="Trazado_667469" data-name="Trazado 667469" d="M344.039,220.766h2.843v1.326a9.828,9.828,0,0,1,3.62-1.627v3.046a13.5,13.5,0,0,0-3.62,1.2v8.508h-2.843Z" transform="translate(-255.808 -163.925)" fill="#ee871d"/>
          <path id="Trazado_667470" data-name="Trazado 667470" d="M378.867,220.768h2.847v.654a6.762,6.762,0,0,1,2.97-.953c3.041,0,4.689,2.024,4.689,6.39,0,4.989-1.87,6.638-5.489,6.638a13.553,13.553,0,0,1-2.171-.2v5.264h-2.847Zm2.847,2.973v7.06a10.432,10.432,0,0,0,1.971.2c2.146,0,2.795-1.473,2.795-4.142,0-2.321-.723-3.819-2.322-3.819a6.505,6.505,0,0,0-2.443.7" transform="translate(-281.704 -163.928)" fill="#ee871d"/>
          <path id="Trazado_667471" data-name="Trazado 667471" d="M430.656,220.766H433.5v1.326a9.769,9.769,0,0,1,3.615-1.627v3.046a13.429,13.429,0,0,0-3.615,1.2v8.508h-2.844Z" transform="translate(-320.211 -163.925)" fill="#ee871d"/>
          <path id="Trazado_667472" data-name="Trazado 667472" d="M464.715,202.77h2.843v2.97h-2.843Zm0,4.838h2.843V220.06h-2.843Z" transform="translate(-345.535 -150.768)" fill="#ee871d"/>
          <path id="Trazado_667473" data-name="Trazado 667473" d="M496.539,223.36s-3.068-.4-4.365-.4c-1.275,0-1.946.449-1.946,1.372,0,.746.5.971,2.468,1.321,3.1.575,4.268,1.372,4.268,3.843,0,2.92-1.993,3.994-4.841,3.994a30.435,30.435,0,0,1-4.617-.574l.1-2.323s2.97.4,4.24.4c1.648,0,2.272-.423,2.272-1.424,0-.772-.375-1-2.272-1.371-2.791-.575-4.462-1.224-4.462-3.794,0-2.844,2.292-3.944,4.588-3.944a29.262,29.262,0,0,1,4.616.578Z" transform="translate(-362.392 -163.925)" fill="#ee871d"/>
          <path id="Trazado_667474" data-name="Trazado 667474" d="M543.8,230.776l.047,2.118a21.835,21.835,0,0,1-4.739.6c-3.864,0-5.315-2.22-5.315-6.364,0-4.194,1.82-6.665,5.287-6.665,3.5,0,5.189,2.1,5.189,5.694l-.2,2.02h-7.408c.022,1.644.723,2.819,2.67,2.819,1.769,0,4.467-.221,4.467-.221m-2.347-4.769c0-2.073-.647-3.145-2.372-3.145s-2.417,1.148-2.443,3.145Z" transform="translate(-396.901 -163.925)" fill="#ee871d"/>
        </g>
      </g>
      <g id="couchdb" transform="translate(1237.665 7397.003)">
        <path id="Trazado_667475" data-name="Trazado 667475" d="M126.335,36.278V12.823H13.941V36.278H5.147V84.337H134.959V36.277h-8.624Z" transform="translate(-2.09 -5.799)" fill="red"/>
        <path id="Trazado_667476" data-name="Trazado 667476" d="M.71,83.268V31.841h8.8V8.387H126.591V31.841h8.624V83.268Zm3.668-1.846,126.7.111-.549-45H121.9V13.078H14.194V36.534H5.4l-.858,43.4-.165,1.489Z" transform="translate(0 -3.709)" fill="#eb1019"/>
        <path id="Trazado_667477" data-name="Trazado 667477" d="M32.848,4.484v10.57l4.006,5.419,11.776-4L48.581.514,32.847,4.483Z" transform="translate(-15.14)" fill="#fff"/>
        <path id="Trazado_667478" data-name="Trazado 667478" d="M37.412,84.909l26.574,6,69.12-6.44.016,20.961H37.359l.053-20.526ZM116.5,70.032l-7.222-3L94.257,56.781,76.311,62.242,37.4,59.3V73.1l24.676,7.08,70.509-6.264v-14.4Z" transform="translate(-17.266 -26.508)" fill="#bd101d" stroke="#bd101d" stroke-width="1"/>
        <path id="Trazado_667479" data-name="Trazado 667479" d="M13.358,24.434,8.91,29.139V41.756l6.28,2.673V37.142l2.672,2.094V34.257h6.13L35.337,51.338l4.183,1.141L45.2,76.021l2.947,1.222,2.085,8.613H66.673l-7.9-32.673L81.1,38.682,93.246,48.945,96.2,47.789l1.12,3.052,21.861-1.962-1.9-4.844-12.3-3.008L82.709,22.881,58.443,32.087l-7.457-9.813,11.233-11.42H72.926l4.224,3.558V10.853h8.415L83.532,6.13l-24.648-3.9L36.13,16.8Z" transform="translate(-3.863 -0.807)" fill="#fff"/>
        <path id="Trazado_667480" data-name="Trazado 667480" d="M21.793,180.34a14.463,14.463,0,0,1-5.956,1.061c-7.325,0-11.775-4.621-11.775-11.638,0-7.6,5.271-12.186,12.323-12.186A13.278,13.278,0,0,1,22,158.6l-.924,3.355a11.219,11.219,0,0,0-4.518-.89c-4.69,0-8.079,2.944-8.079,8.489,0,5.067,2.978,8.319,8.044,8.319a11.789,11.789,0,0,0,4.586-.856l.684,3.32Zm18.175-7.8c0,6.127-4.313,8.865-8.557,8.865-4.724,0-8.353-3.252-8.353-8.592,0-5.477,3.594-8.832,8.626-8.832C36.647,163.978,39.967,167.47,39.967,172.536Zm-12.563.171c0,3.218,1.574,5.648,4.142,5.648,2.4,0,4.073-2.363,4.073-5.717,0-2.6-1.164-5.579-4.039-5.579-2.979,0-4.177,2.874-4.177,5.647Zm30.37,3.32c0,1.985.069,3.628.138,5h-3.7l-.206-2.533H53.94a6.025,6.025,0,0,1-5.34,2.91c-3.046,0-5.819-1.814-5.819-7.257v-9.79h4.21v9.07c0,2.773.89,4.553,3.115,4.553a3.548,3.548,0,0,0,3.218-2.259,3.806,3.806,0,0,0,.24-1.3V164.354h4.21v11.672h0Zm16.185,4.484a12.063,12.063,0,0,1-4.724.891c-5.2,0-8.592-3.354-8.592-8.523,0-5,3.423-8.9,9.277-8.9a10.49,10.49,0,0,1,4.073.788l-.753,3.148a7.412,7.412,0,0,0-3.184-.651c-3.218,0-5.134,2.362-5.1,5.408,0,3.423,2.226,5.375,5.1,5.375a8.233,8.233,0,0,0,3.32-.651l.582,3.115Zm2.423-23.79h4.244v9.927H80.7a5.616,5.616,0,0,1,2.088-1.917,5.718,5.718,0,0,1,2.876-.753c2.841,0,5.82,1.883,5.82,7.222v9.824h-4.21V171.68c0-2.43-.891-4.245-3.218-4.245A3.434,3.434,0,0,0,80.8,169.8a3.54,3.54,0,0,0-.171,1.267v9.96H76.383v-24.3Zm19.152,1.541a42.478,42.478,0,0,1,6.709-.479c4.313,0,7.291.89,9.413,2.67,2.226,1.814,3.594,4.552,3.594,8.489,0,4.107-1.4,7.188-3.594,9.174-2.293,2.088-5.956,3.149-10.44,3.149a46.033,46.033,0,0,1-5.682-.308Zm4.21,19.545a15.706,15.706,0,0,0,2.328.1c5.477.035,8.729-2.978,8.729-8.832.035-5.1-2.91-8.009-8.181-8.009a13.433,13.433,0,0,0-2.876.24v16.5Zm18.685-19.545a35.221,35.221,0,0,1,6.127-.479c3.115,0,5.033.377,6.607,1.472a4.867,4.867,0,0,1,2.4,4.313,5.368,5.368,0,0,1-3.834,5v.068a5.816,5.816,0,0,1,4.656,5.716,5.987,5.987,0,0,1-2.225,4.758c-1.643,1.438-4.347,2.157-8.557,2.157a40.67,40.67,0,0,1-5.169-.308V158.262Zm4.176,9.105h2.157c2.91,0,4.553-1.369,4.553-3.32,0-2.157-1.643-3.148-4.313-3.148a11.467,11.467,0,0,0-2.4.171v6.3h0Zm0,10.612a13.393,13.393,0,0,0,2.225.1c2.7,0,5.1-1.026,5.1-3.868,0-2.67-2.328-3.765-5.238-3.765h-2.088Z" transform="translate(-1.579 -73.592)"/>
      </g>
      <g id="Grupo_991641" data-name="Grupo 991641" transform="translate(955.892 7458.825)">
        <g id="Grupo_991640" data-name="Grupo 991640" clip-path="url(#clip-path-9)">
          <path id="Trazado_667482" data-name="Trazado 667482" d="M37.038,80.776A1.878,1.878,0,1,1,35.16,78.9a1.88,1.88,0,0,1,1.878,1.878" transform="translate(-26.624 -63.115)" fill="#464641"/>
          <path id="Trazado_667483" data-name="Trazado 667483" d="M38.632,106.55a1.878,1.878,0,1,1-1.878-1.878,1.88,1.88,0,0,1,1.878,1.878" transform="translate(-27.899 -83.733)" fill="#464641"/>
          <path id="Trazado_667484" data-name="Trazado 667484" d="M44.377,133.857a1.878,1.878,0,1,1-1.878-1.878,1.88,1.88,0,0,1,1.878,1.878" transform="translate(-32.495 -105.577)" fill="#464641"/>
          <path id="Trazado_667485" data-name="Trazado 667485" d="M57.236,158.322a1.878,1.878,0,1,1-1.878-1.878,1.88,1.88,0,0,1,1.878,1.878" transform="translate(-42.782 -125.148)" fill="#464641"/>
          <path id="Trazado_667488" data-name="Trazado 667488" d="M125.339,29.514a1.878,1.878,0,1,1-1.878-1.878,1.88,1.88,0,0,1,1.878,1.878" transform="translate(-97.261 -22.108)" fill="#464641"/>
          <path id="Trazado_667489" data-name="Trazado 667489" d="M100.647,20.865a1.878,1.878,0,1,1-1.878-1.878,1.88,1.88,0,0,1,1.878,1.878" transform="translate(-77.508 -15.189)" fill="#464641"/>
          <path id="Trazado_667490" data-name="Trazado 667490" d="M132.169,36.227a12.519,12.519,0,1,1-12.52,12.519,12.519,12.519,0,0,1,12.52-12.519" transform="translate(-95.714 -28.98)" fill="#68b346"/>
          <path id="Trazado_667491" data-name="Trazado 667491" d="M132.169,36.227a12.519,12.519,0,1,1-12.52,12.519A12.519,12.519,0,0,1,132.169,36.227Z" transform="translate(-95.714 -28.98)" fill="none" stroke="#fff" stroke-miterlimit="10" stroke-width="3.5"/>
          <path id="Trazado_667492" data-name="Trazado 667492" d="M55.532,175.221a10.243,10.243,0,1,1-10.243,10.243,10.243,10.243,0,0,1,10.243-10.243" transform="translate(-36.229 -140.169)" fill="#68b346"/>
          <path id="Trazado_667493" data-name="Trazado 667493" d="M55.532,175.221a10.243,10.243,0,1,1-10.243,10.243A10.243,10.243,0,0,1,55.532,175.221Z" transform="translate(-36.229 -140.169)" fill="none" stroke="#fff" stroke-miterlimit="10" stroke-width="3.5"/>
          <path id="Trazado_667494" data-name="Trazado 667494" d="M27.028,1.75A6.829,6.829,0,1,1,20.2,8.579,6.829,6.829,0,0,1,27.028,1.75" transform="translate(-16.158 -1.4)" fill="#68b346"/>
          <circle id="Elipse_7687" data-name="Elipse 7687" cx="6.829" cy="6.829" r="6.829" transform="translate(4.041 0.35)" fill="none" stroke="#fff" stroke-miterlimit="10" stroke-width="3.5"/>
          <path id="Trazado_667495" data-name="Trazado 667495" d="M273.661,56.5h2.276V60.92c1.092-2.686,3.369-4.78,8.012-4.78,5.281,0,8.832,3.551,8.832,9.151V79.449H290.5v-13.7c0-4.6-2.823-7.466-7.057-7.466-4.6,0-7.512,3.551-7.512,8.832V79.449H273.66V56.5Z" transform="translate(-218.916 -44.909)" fill="#101010"/>
          <path id="Trazado_667496" data-name="Trazado 667496" d="M389.5,67.294c0-7.148,4.871-12.064,11.2-12.064,6.237,0,10.653,5.145,10.653,11.427,0,0,0,.683-.046,1.138H391.727c.136,5.509,3.824,9.424,9.059,9.424,4.279,0,7.239-1.821,8.6-3.551v2.686a12.028,12.028,0,0,1-8.6,3c-6.6,0-11.29-4.826-11.29-11.928v-.136Zm19.44-1.548a8.3,8.3,0,0,0-8.24-8.377,8.794,8.794,0,0,0-8.878,8.377Z" transform="translate(-311.579 -44.182)" fill="#101010"/>
          <path id="Trazado_667497" data-name="Trazado 667497" d="M528.552,55a12.064,12.064,0,1,1-12.065,12.064A11.858,11.858,0,0,1,528.552,55m0,21.989a9.925,9.925,0,1,0-9.788-9.924,9.637,9.637,0,0,0,9.788,9.924" transform="translate(-413.167 -43.999)" fill="#101010"/>
          <path id="Trazado_667498" data-name="Trazado 667498" d="M654.037,57.961h2.549l-9.743,20.76H661V71.208h2.367V89.692H661V80.905H643.247Z" transform="translate(-514.569 -46.366)" fill="#101010"/>
          <path id="Trazado_667499" data-name="Trazado 667499" d="M762.546,26.83h2.276V52.961c0,5.145-2.959,6.192-5.827,6.192a7.063,7.063,0,0,1-1.5-.137v-2.14a11.1,11.1,0,0,0,1.73.136c2.322,0,3.323-1.138,3.323-4.052Zm-.5-6.146a1.64,1.64,0,1,1,1.639,1.594,1.632,1.632,0,0,1-1.639-1.594" transform="translate(-605.961 -15.235)" fill="#101010"/>
        </g>
      </g>
    </g>
  </g>
</svg>
