<svg xmlns="http://www.w3.org/2000/svg" xmlns:xlink="http://www.w3.org/1999/xlink" width="610" height="408.029" viewBox="0 0 610 408.029">
  <defs>
    <clipPath id="clip-path">
      <rect id="Rectángulo_339001" data-name="Rectángulo 339001" width="610" height="366.784" fill="none"/>
    </clipPath>
    <clipPath id="clip-path-2">
      <rect id="Rectángulo_339013" data-name="Rectángulo 339013" width="610" height="408.029" transform="translate(0 -41.245)" fill="none"/>
    </clipPath>
    <clipPath id="clip-path-3">
      <rect id="Rectángulo_339047" data-name="Rectángulo 339047" width="169.944" height="118.907" fill="none"/>
    </clipPath>
  </defs>
  <g id="Grupo_970446" data-name="Grupo 970446" transform="translate(0 41.245)">
    <g id="Grupo_970447" data-name="Grupo 970447">
      <g id="Grupo_970446-2" data-name="Grupo 970446" clip-path="url(#clip-path)">
        <path id="Trazado_638220" data-name="Trazado 638220" d="M540.531,369.817H72.757c-7.435-6.485-13.9-14.348-19.8-22.331C20.705,303.867-1.173,249.171,6.624,195.2,10.581,167.812,23.2,140.384,46.06,125.34c21.806-14.346,49.8-15.518,75.319-10.566s49.63,15.423,74.527,22.962c38.9,11.78,80.472,14.656,120.235,5.591,68.381-15.589,144.575-102.208,217.793-49.346,32.171,23.226,50.217,63.238,53.8,102.439,4.219,46.164-8.875,92.189-25.752,135.262-5.328,13.6-11.7,27.759-21.449,38.134" transform="translate(-0.271 -4.138)" fill="#c5e4fe" opacity="0.57"/>
      </g>
    </g>
    <rect id="Rectángulo_339002" data-name="Rectángulo 339002" width="152.18" height="14.58" transform="translate(22.319 228.112)" fill="#0f1e36"/>
    <rect id="Rectángulo_339003" data-name="Rectángulo 339003" width="165.904" height="31.453" transform="translate(15.456 196.661)" fill="#bac6fc"/>
    <g id="Grupo_970449" data-name="Grupo 970449">
      <g id="Grupo_970448" data-name="Grupo 970448" clip-path="url(#clip-path-2)">
        <path id="Trazado_638221" data-name="Trazado 638221" d="M77.663,230.025h74.858a2.585,2.585,0,0,0,2.584-2.584v-5.615a2.585,2.585,0,0,0-2.584-2.584H77.663a2.585,2.585,0,0,0-2.584,2.584v5.615a2.585,2.585,0,0,0,2.584,2.584" transform="translate(-4.031 -11.771)" fill="#0f1e36"/>
        <path id="Trazado_638222" data-name="Trazado 638222" d="M53.073,224.717a3.92,3.92,0,1,0,3.921-3.921,3.921,3.921,0,0,0-3.921,3.921" transform="translate(-2.849 -11.854)" fill="#0f1e36"/>
        <path id="Trazado_638223" data-name="Trazado 638223" d="M149.976,226.781h1.811a1.047,1.047,0,0,0,1.048-1.048v-1.811a1.047,1.047,0,0,0-1.048-1.048h-1.811a1.048,1.048,0,0,0-1.048,1.048v1.811a1.047,1.047,0,0,0,1.048,1.048" transform="translate(-7.996 -11.966)" fill="#bac6fc"/>
        <path id="Trazado_638224" data-name="Trazado 638224" d="M124.629,226.781h18.965a1.047,1.047,0,0,0,1.048-1.048v-1.811a1.048,1.048,0,0,0-1.048-1.048H124.629a1.048,1.048,0,0,0-1.048,1.048v1.811a1.047,1.047,0,0,0,1.048,1.048" transform="translate(-6.635 -11.966)" fill="#bac6fc"/>
        <rect id="Rectángulo_339004" data-name="Rectángulo 339004" width="152.18" height="14.579" transform="translate(22.319 274.145)" fill="#0f1e36"/>
        <rect id="Rectángulo_339005" data-name="Rectángulo 339005" width="165.904" height="31.453" transform="translate(15.456 242.692)" fill="#bac6fc"/>
        <path id="Trazado_638225" data-name="Trazado 638225" d="M77.663,278.668h74.858a2.585,2.585,0,0,0,2.584-2.584v-5.615a2.585,2.585,0,0,0-2.584-2.584H77.663a2.585,2.585,0,0,0-2.584,2.584v5.615a2.585,2.585,0,0,0,2.584,2.584" transform="translate(-4.031 -14.382)" fill="#0f1e36"/>
        <path id="Trazado_638226" data-name="Trazado 638226" d="M53.073,273.36a3.92,3.92,0,1,0,3.921-3.921,3.921,3.921,0,0,0-3.921,3.921" transform="translate(-2.849 -14.466)" fill="#0f1e36"/>
        <path id="Trazado_638227" data-name="Trazado 638227" d="M149.976,275.424h1.811a1.047,1.047,0,0,0,1.048-1.048v-1.811a1.047,1.047,0,0,0-1.048-1.048h-1.811a1.048,1.048,0,0,0-1.048,1.048v1.811a1.047,1.047,0,0,0,1.048,1.048" transform="translate(-7.996 -14.577)" fill="#bac6fc"/>
        <path id="Trazado_638228" data-name="Trazado 638228" d="M124.629,275.424h18.965a1.047,1.047,0,0,0,1.048-1.048v-1.811a1.048,1.048,0,0,0-1.048-1.048H124.629a1.048,1.048,0,0,0-1.048,1.048v1.811a1.047,1.047,0,0,0,1.048,1.048" transform="translate(-6.635 -14.577)" fill="#bac6fc"/>
        <rect id="Rectángulo_339006" data-name="Rectángulo 339006" width="152.18" height="14.58" transform="translate(22.319 320.176)" fill="#0f1e36"/>
        <rect id="Rectángulo_339007" data-name="Rectángulo 339007" width="165.904" height="31.453" transform="translate(15.456 288.723)" fill="#6252d7"/>
        <path id="Trazado_638229" data-name="Trazado 638229" d="M77.663,327.311h74.858a2.585,2.585,0,0,0,2.584-2.584v-5.615a2.584,2.584,0,0,0-2.584-2.584H77.663a2.584,2.584,0,0,0-2.584,2.584v5.615a2.585,2.585,0,0,0,2.584,2.584" transform="translate(-4.031 -16.994)" fill="#0f1e36"/>
        <path id="Trazado_638230" data-name="Trazado 638230" d="M53.073,322a3.92,3.92,0,1,0,3.921-3.921A3.921,3.921,0,0,0,53.073,322" transform="translate(-2.849 -17.077)" fill="#0f1e36"/>
        <path id="Trazado_638231" data-name="Trazado 638231" d="M149.976,324.067h1.811a1.047,1.047,0,0,0,1.048-1.048v-1.811a1.047,1.047,0,0,0-1.048-1.048h-1.811a1.048,1.048,0,0,0-1.048,1.048v1.811a1.047,1.047,0,0,0,1.048,1.048" transform="translate(-7.996 -17.189)" fill="#fff"/>
        <path id="Trazado_638232" data-name="Trazado 638232" d="M124.629,324.067h18.965a1.047,1.047,0,0,0,1.048-1.048v-1.811a1.048,1.048,0,0,0-1.048-1.048H124.629a1.048,1.048,0,0,0-1.048,1.048v1.811a1.047,1.047,0,0,0,1.048,1.048" transform="translate(-6.635 -17.189)" fill="#fff"/>
        <rect id="Rectángulo_339008" data-name="Rectángulo 339008" width="165.904" height="31.453" transform="translate(15.456 334.755)" fill="#bac6fc"/>
        <path id="Trazado_638233" data-name="Trazado 638233" d="M77.663,375.954h74.858a2.585,2.585,0,0,0,2.584-2.584v-5.615a2.585,2.585,0,0,0-2.584-2.584H77.663a2.585,2.585,0,0,0-2.584,2.584v5.615a2.585,2.585,0,0,0,2.584,2.584" transform="translate(-4.031 -19.605)" fill="#0f1e36"/>
        <path id="Trazado_638234" data-name="Trazado 638234" d="M53.073,370.646a3.92,3.92,0,1,0,3.921-3.921,3.921,3.921,0,0,0-3.921,3.921" transform="translate(-2.849 -19.689)" fill="#0f1e36"/>
        <path id="Trazado_638235" data-name="Trazado 638235" d="M149.976,372.71h1.811a1.047,1.047,0,0,0,1.048-1.048v-1.811a1.047,1.047,0,0,0-1.048-1.048h-1.811a1.048,1.048,0,0,0-1.048,1.048v1.811a1.047,1.047,0,0,0,1.048,1.048" transform="translate(-7.996 -19.8)" fill="#bac6fc"/>
        <path id="Trazado_638236" data-name="Trazado 638236" d="M124.629,372.71h18.965a1.047,1.047,0,0,0,1.048-1.048v-1.811a1.048,1.048,0,0,0-1.048-1.048H124.629a1.048,1.048,0,0,0-1.048,1.048v1.811a1.047,1.047,0,0,0,1.048,1.048" transform="translate(-6.635 -19.8)" fill="#bac6fc"/>
        <path id="Trazado_638237" data-name="Trazado 638237" d="M639.873,201.395V191.91a4.357,4.357,0,0,0-4.357-4.356h0a4.327,4.327,0,0,1-4.081-2.846q-.578-1.61-1.309-3.158a4.328,4.328,0,0,1,.875-4.9h0a4.357,4.357,0,0,0,0-6.161l-6.706-6.707a4.357,4.357,0,0,0-6.161,0h0a4.324,4.324,0,0,1-4.9.874q-1.547-.73-3.159-1.308a4.327,4.327,0,0,1-2.846-4.081h0a4.356,4.356,0,0,0-4.356-4.356h-9.486a4.357,4.357,0,0,0-4.357,4.356h0a4.326,4.326,0,0,1-2.845,4.081q-1.61.578-3.157,1.308a4.326,4.326,0,0,1-4.9-.874h0a4.356,4.356,0,0,0-6.161,0l-6.707,6.707a4.357,4.357,0,0,0,0,6.161,4.327,4.327,0,0,1,.874,4.9q-.731,1.546-1.309,3.158a4.326,4.326,0,0,1-4.081,2.846,4.356,4.356,0,0,0-4.357,4.356v9.485a4.356,4.356,0,0,0,4.357,4.357,4.326,4.326,0,0,1,4.081,2.846q.578,1.61,1.309,3.158a4.325,4.325,0,0,1-.874,4.9h0a4.355,4.355,0,0,0,0,6.16l6.707,6.707a4.356,4.356,0,0,0,6.161,0h0a4.326,4.326,0,0,1,4.9-.874q1.546.73,3.157,1.308a4.326,4.326,0,0,1,2.845,4.081,4.357,4.357,0,0,0,4.357,4.357h9.486a4.356,4.356,0,0,0,4.356-4.357,4.327,4.327,0,0,1,2.846-4.081q1.61-.576,3.159-1.308a4.324,4.324,0,0,1,4.9.874h0a4.357,4.357,0,0,0,6.161,0L631,222.814a4.355,4.355,0,0,0,0-6.16h0a4.326,4.326,0,0,1-.875-4.9q.731-1.547,1.309-3.158a4.327,4.327,0,0,1,4.081-2.846h0a4.357,4.357,0,0,0,4.357-4.357m-29.324,7.853h0a17.56,17.56,0,1,1,5.143-12.417,17.56,17.56,0,0,1-5.143,12.417" transform="translate(-29.872 -8.317)" fill="#bac6fc"/>
        <path id="Trazado_638238" data-name="Trazado 638238" d="M279.09,87.934V81.328a3.034,3.034,0,0,0-3.034-3.033h0a3.014,3.014,0,0,1-2.843-1.983q-.4-1.12-.91-2.2a3.012,3.012,0,0,1,.608-3.41v0a3.034,3.034,0,0,0,0-4.291l-4.672-4.671a3.034,3.034,0,0,0-4.291,0,3.018,3.018,0,0,1-3.411.61q-1.077-.511-2.2-.912a3.014,3.014,0,0,1-1.981-2.843,3.035,3.035,0,0,0-3.035-3.035h-6.605a3.035,3.035,0,0,0-3.035,3.035,3.014,3.014,0,0,1-1.981,2.843q-1.121.4-2.2.91a3.012,3.012,0,0,1-3.411-.608,3.035,3.035,0,0,0-4.292,0l-4.671,4.671a3.034,3.034,0,0,0,0,4.291,3.015,3.015,0,0,1,.609,3.412q-.51,1.076-.911,2.2a3.014,3.014,0,0,1-2.843,1.983,3.033,3.033,0,0,0-3.034,3.033v6.606a3.033,3.033,0,0,0,3.034,3.034,3.014,3.014,0,0,1,2.843,1.983q.4,1.12.911,2.2a3.012,3.012,0,0,1-.609,3.411,3.035,3.035,0,0,0,0,4.292l4.671,4.671a3.033,3.033,0,0,0,4.292,0,3.014,3.014,0,0,1,3.411-.609q1.077.51,2.2.911a3.013,3.013,0,0,1,1.981,2.843,3.034,3.034,0,0,0,3.035,3.034h6.605a3.034,3.034,0,0,0,3.035-3.034,3.014,3.014,0,0,1,1.981-2.843q1.123-.4,2.2-.911a3.014,3.014,0,0,1,3.411.609,3.032,3.032,0,0,0,4.291,0l4.672-4.671a3.035,3.035,0,0,0,0-4.292h0a3.012,3.012,0,0,1-.608-3.411q.508-1.076.91-2.2a3.014,3.014,0,0,1,2.843-1.983h0a3.034,3.034,0,0,0,3.034-3.034M258.667,93.4h0a12.231,12.231,0,1,1,3.582-8.646,12.229,12.229,0,0,1-3.582,8.646" transform="translate(-11.862 -49.525)" fill="#bac6fc"/>
        <path id="Trazado_638294" data-name="Trazado 638294" d="M259.9,77.252V72.825a2.033,2.033,0,0,0-2.033-2.032h0a2.02,2.02,0,0,1-1.9-1.328q-.269-.75-.61-1.473a2.018,2.018,0,0,1,.408-2.285h0a2.033,2.033,0,0,0,0-2.875l-3.13-3.13a2.033,2.033,0,0,0-2.875,0,2.022,2.022,0,0,1-2.286.409q-.722-.342-1.474-.611a2.019,2.019,0,0,1-1.327-1.9,2.034,2.034,0,0,0-2.033-2.033h-4.426a2.034,2.034,0,0,0-2.033,2.033,2.019,2.019,0,0,1-1.327,1.9q-.751.269-1.474.61a2.018,2.018,0,0,1-2.285-.408,2.034,2.034,0,0,0-2.875,0l-3.13,3.13a2.033,2.033,0,0,0,0,2.875,2.02,2.02,0,0,1,.408,2.286q-.341.721-.611,1.473a2.02,2.02,0,0,1-1.9,1.328,2.032,2.032,0,0,0-2.033,2.032v4.426a2.032,2.032,0,0,0,2.033,2.033,2.02,2.02,0,0,1,1.9,1.328q.269.75.611,1.473a2.018,2.018,0,0,1-.408,2.285,2.034,2.034,0,0,0,0,2.875l3.13,3.13a2.032,2.032,0,0,0,2.875,0,2.02,2.02,0,0,1,2.285-.408q.722.341,1.474.611a2.019,2.019,0,0,1,1.327,1.9,2.033,2.033,0,0,0,2.033,2.033h4.426a2.033,2.033,0,0,0,2.033-2.033,2.019,2.019,0,0,1,1.327-1.9q.752-.268,1.474-.611a2.02,2.02,0,0,1,2.286.408,2.032,2.032,0,0,0,2.875,0l3.13-3.13a2.034,2.034,0,0,0,0-2.875h0a2.018,2.018,0,0,1-.408-2.285q.34-.721.61-1.473a2.02,2.02,0,0,1,1.9-1.328h0a2.033,2.033,0,0,0,2.033-2.033m-13.683,3.664h0a8.195,8.195,0,1,1,2.4-5.793,8.194,8.194,0,0,1-2.4,5.793" transform="translate(103.642 -87.214)" fill="#bac6fc"/>
        <path id="Trazado_638241" data-name="Trazado 638241" d="M511.464,176.128s2.985-15.416,2.131-18.915c-1.1-4.489.431-13.087,8.118-16.828,3.669-1.786,19.786-18.814,19.786-18.814s1.057,5.672-.938,8.3-5.71,7.679-5.71,7.679,13.9-7.287,14.906-8.422.731-5.779,1.652-8.344,3.124-7.715,3.923-6.329,2.033,16.011,2.182,18.511-1.252,9.037-3.246,11.665-13.663,9.972-15.678,12.243c-.664.749-4.154,2.849-5.014,5.329-1.751,5.044-.858,11.659-.858,11.659Z" transform="translate(-27.46 -6.132)" fill="#feb8a6"/>
        <path id="Trazado_638242" data-name="Trazado 638242" d="M285.355,181.36s-9.625,4.918-29.054,18.91c-14.522,10.458-37.25,18.583-42.91,18.507S206,211.613,206,211.613L193.112,235.8l-23.637,4.629s10.689,17.538,23.036,22.321,92.432,8.7,99.111-10.357c7.673-21.889-6.267-71.029-6.267-71.029" transform="translate(-9.099 -9.737)" fill="#fff"/>
        <path id="Trazado_638243" data-name="Trazado 638243" d="M194.786,199.768c-10.624-14.207-14.759-23.155-17.157-33.237a86.8,86.8,0,0,1-2.048-12.556c.956-4.256,2.857-2.283,3.887-11.861s-5.527-15.149-6.143-18.274-7.278-31.974-11.707-32.354-4.655,4.541-3.37,11.942,2.222,15.349,2.222,15.349-15.728,5.25-19.614,8.557.1,9.851,1.276,14.953,2.991,7.879,7.734,11.579c.644.5,1.42,3.072,2.3,7.069,4.031,18.318,14.6,64.493,22.63,80.484,13.22-2.914,25.406-9.845,33.361-19.886-5.365-7.764-9.435-16.5-13.372-21.765" transform="translate(-7.473 -4.911)" fill="#feb8a6"/>
        <line id="Línea_169" data-name="Línea 169" x1="3.131" y1="13.665" transform="translate(153.358 124.293)" fill="none" stroke="#ea7d77" stroke-miterlimit="10" stroke-width="1.543"/>
        <path id="Trazado_638244" data-name="Trazado 638244" d="M165.832,151.71c-.412-5.2,2.344-8.4,3.259-10.063s-4.274-5.853-5.687-7.457c-4.127-4.684-3.753-7.586-.288-7.553,3.053.028,5.369,1.681,8.41,3.259a63.387,63.387,0,0,1,7.582,4.68c4.6,3.16,3.819,12.025-1.48,18.655Z" transform="translate(-8.612 -6.799)" fill="#feb8a6"/>
        <path id="Trazado_638245" data-name="Trazado 638245" d="M166.209,155.072c-.412-5.2,1.951-11.763,2.867-13.425s-4.25-5.871-5.687-7.457c-4.147-4.577-4.433-7.8-.289-7.553,3.05.184,13.208,6.026,15.992,7.94" transform="translate(-8.597 -6.798)" fill="none" stroke="#ea7d77" stroke-miterlimit="10" stroke-width="1.543"/>
        <path id="Trazado_638246" data-name="Trazado 638246" d="M166.579,144.639s-6.863,1.137-10.5,2.007-9.964,2.961-11.837.974-3.745-9.394-3.745-9.394" transform="translate(-7.543 -7.421)" fill="none" stroke="#ea7d77" stroke-miterlimit="10" stroke-width="1.543"/>
        <line id="Línea_170" data-name="Línea 170" x1="3.428" y1="12.794" transform="translate(138.859 127.518)" fill="none" stroke="#ea7d77" stroke-miterlimit="10" stroke-width="1.543"/>
        <line id="Línea_171" data-name="Línea 171" x1="3.131" y1="13.665" transform="translate(146.969 125.227)" fill="none" stroke="#ea7d77" stroke-miterlimit="10" stroke-width="1.543"/>
        <line id="Línea_172" data-name="Línea 172" x1="3.589" y1="17.951" transform="translate(150.777 98.518)" fill="none" stroke="#ea7d77" stroke-miterlimit="10" stroke-width="1.543"/>
        <path id="Trazado_638247" data-name="Trazado 638247" d="M205.99,213.306c9.557,3.829,8.888,8.03,5.561,17.689s-18.523,21.864-24.96,24.324-11.918,1.634-14.481-1.994a17.326,17.326,0,0,1-2.64-11.206,42.974,42.974,0,0,0,.49-10.417l2.977,7.349s16.288-5.632,21.422-12.4a55.32,55.32,0,0,0,7.477-13.4,5.952,5.952,0,0,1,4.155.048" transform="translate(-9.092 -11.431)" fill="#e9ecf4"/>
        <path id="Trazado_638248" data-name="Trazado 638248" d="M313.884,110.069s-8.316-3.078-9.263,4.9c-.789,6.654,2.3,8.48,6.412,14.744a5.985,5.985,0,0,0,7.135,2.529Z" transform="translate(-16.348 -5.878)" fill="#feb8a6"/>
        <path id="Trazado_638249" data-name="Trazado 638249" d="M314.288,113.114c-3.128-1.2-5.742-.791-5.359,3.627.279,3.23,3.022,4.9,3.94,8.872a5.377,5.377,0,0,0,4.569,4.274Z" transform="translate(-16.584 -6.042)" fill="#ea7d77"/>
        <path id="Trazado_638250" data-name="Trazado 638250" d="M383.611,110.069s8.316-3.078,9.263,4.9c.789,6.654-2.3,8.48-6.412,14.744a5.983,5.983,0,0,1-7.134,2.529Z" transform="translate(-20.366 -5.878)" fill="#feb8a6"/>
        <path id="Trazado_638251" data-name="Trazado 638251" d="M383.5,113.114c3.128-1.2,5.742-.791,5.359,3.627-.279,3.23-3.023,4.9-3.94,8.872a5.377,5.377,0,0,1-4.569,4.274Z" transform="translate(-20.42 -6.042)" fill="#ea7d77"/>
        <path id="Trazado_638252" data-name="Trazado 638252" d="M389.855,255.409s5.516-30.742,9.948-45.173c1.59-5.175-2.319-21.716-2.319-21.716s-24.835-12.108-26.492-13.955c-8.229-9.171-9.553-51.579-9.553-51.579H327.267s-.954,36.269-7.447,50.861c-1.587,3.569-27.06,17.179-27.418,16.038l2.423,30.924,8.92,38.414Z" transform="translate(-15.699 -6.603)" fill="#feb8a6"/>
        <path id="Trazado_638253" data-name="Trazado 638253" d="M366.12,154.547a281.325,281.325,0,0,1-2.946-31.561H329s.261,23.812-4.273,40.428a33.212,33.212,0,0,0,15.826,6.506c12.291,1.445,23.046-5.265,25.564-15.373" transform="translate(-17.434 -6.603)" fill="#ea7d77"/>
        <path id="Trazado_638254" data-name="Trazado 638254" d="M373.511,140.629c-2.263,4.558-13.135,16.444-22,19.926a19.925,19.925,0,0,1-9.411.256c-11.322-2.534-18.805-12.3-23.754-19.429-3.278-4.72-5.889-13.122-6.406-21.739s-2.086-20.011-1.625-26.667c.714-10.3,7.962-21.743,15.781-24.332,21.281-7.05,53.962,12.748,54.039,19.979.069,6.815.749,20.232.459,29.146-.218,6.716-4.991,18.63-7.088,22.858" transform="translate(-16.656 -3.605)" fill="#feb8a6"/>
        <path id="Trazado_638255" data-name="Trazado 638255" d="M324.013,116.112a8.272,8.272,0,0,0,5.954.315s-2.934,5.7-5.954-.315" transform="translate(-17.396 -6.234)" fill="#ca6772"/>
        <path id="Trazado_638256" data-name="Trazado 638256" d="M361.58,115.9a8.27,8.27,0,0,1-5.92.707s3.3,5.494,5.92-.707" transform="translate(-19.095 -6.223)" fill="#ca6772"/>
        <path id="Trazado_638257" data-name="Trazado 638257" d="M333.02,132.139s.918,9.5,8.558,10.484a8.526,8.526,0,0,0,7.257-2.732,20.922,20.922,0,0,0,4.07-7.4c-4.825,1.453-15.164,1.412-19.886-.348" transform="translate(-17.879 -7.094)" fill="#fff"/>
        <path id="Trazado_638258" data-name="Trazado 638258" d="M351.549,97.37c-1.114.222-3.871-.128-3.552-3.072,0,0,3.332-2.646,8.674-1.03a15.049,15.049,0,0,1,6.913,4.579,26.438,26.438,0,0,0-12.035-.478" transform="translate(-18.682 -4.979)" fill="#0f1e36"/>
        <path id="Trazado_638259" data-name="Trazado 638259" d="M330.418,97.37c1.114.222,3.872-.128,3.551-3.072,0,0-3.332-2.646-8.674-1.03a15.048,15.048,0,0,0-6.913,4.579,26.438,26.438,0,0,1,12.035-.478" transform="translate(-17.093 -4.979)" fill="#0f1e36"/>
        <path id="Trazado_638260" data-name="Trazado 638260" d="M342.627,112.879A86.02,86.02,0,0,1,339,123.371l3.795,1.986" transform="translate(-18.2 -6.06)" fill="none" stroke="#ea7d77" stroke-miterlimit="10" stroke-width="1.543"/>
        <path id="Trazado_638261" data-name="Trazado 638261" d="M352.8,106.829c0,2.318,1.506,4.2,3.363,4.2s3.362-1.878,3.362-4.2-1.506-4.2-3.362-4.2-3.363,1.878-3.363,4.2" transform="translate(-18.941 -5.51)" fill="#0f1e36"/>
        <path id="Trazado_638262" data-name="Trazado 638262" d="M323.556,106.829c0,2.318,1.5,4.2,3.362,4.2s3.363-1.878,3.363-4.2-1.506-4.2-3.363-4.2-3.362,1.878-3.362,4.2" transform="translate(-17.371 -5.51)" fill="#0f1e36"/>
        <path id="Trazado_638263" data-name="Trazado 638263" d="M365.866,72.626c1.561,6.276,4.211,17.577,12.528,17.216,5.4-.234,4.493,17.827,4.493,17.827s9.387-20.109,6.658-31.061C386.1,62.795,374.1,64.895,374.1,64.895Z" transform="translate(-19.643 -3.478)" fill="#0f1e36"/>
        <path id="Trazado_638264" data-name="Trazado 638264" d="M373.166,68.2s-8.359,15.661-33.786,18.947c-17.325,2.239-29.371-.875-29.371-.875s-3.991-13.228-3.991-13.228l6.632-8.24c9.135-11.356,20.427-18.005,39.3-15.98C371,50.867,373.166,68.2,373.166,68.2" transform="translate(-16.43 -2.602)" fill="#0f1e36"/>
        <path id="Trazado_638265" data-name="Trazado 638265" d="M378.363,80.976s.777,14.769,1.943,18.267,1.166,15.935,1.166,15.935l2.088-6.639,2.468-16.515Z" transform="translate(-20.314 -4.347)" fill="#0f1e36"/>
        <path id="Trazado_638266" data-name="Trazado 638266" d="M315.046,73.071s-.777,22.25-1.943,25.747-1.167,15.935-1.167,15.935l-2.087-6.639-3.831-33.749Z" transform="translate(-16.43 -3.923)" fill="#0f1e36"/>
        <path id="Trazado_638267" data-name="Trazado 638267" d="M323.894,197.579l20.5-14.2,18.824,10.963-17.029,12.16Z" transform="translate(-17.389 -9.846)" fill="#c4c7cf"/>
        <path id="Trazado_638268" data-name="Trazado 638268" d="M387.5,177.246s17.027.49,31.117,11.524,53.331,39.2,58.877,38.064,5.914-8.428,5.914-8.428l36.635,23.827s-2.54,16.833-13.765,23.855c-4.21,2.633-18.946,6.962-36.313,4.874-28.946-3.48-65.2-16.842-72.207-27.336-12.881-19.289-10.256-66.38-10.256-66.38" transform="translate(-20.793 -9.516)" fill="#fff"/>
        <path id="Trazado_638269" data-name="Trazado 638269" d="M269.241,374.9H425.612c-4.982-33.451-15.447-104.079-14.867-113.846-16.507-28.589-12.041-53.712-11.2-80.368l-29.3-8.422c-3.594,13.959-9.113,18.7-24.5,21.483-16.7,3.016-26.262-7.142-32.725-18.9l-27.263,7.382c6.72,33.24,3.731,66.292-8.892,82.5.425,30.418-5.581,79.9-7.626,110.17" transform="translate(-14.455 -9.249)" fill="#2e0877"/>
        <path id="Trazado_638270" data-name="Trazado 638270" d="M512.474,161.7c-.65,11.633-4.188,25.651-14.652,47.522-2.729,5.7-6.732,14.871-9.955,23.394a51.459,51.459,0,0,0,32.877,13.947c5.792-24.665,9.648-56.5,11.782-82.2-9.185-1.913-13.6-9.58-20.052-2.66" transform="translate(-26.193 -8.529)" fill="#feb8a6"/>
        <path id="Trazado_638271" data-name="Trazado 638271" d="M488.512,220.691c-8.665,5.56-7.218,9.561-2.132,18.42S508.687,257.1,515.472,258.3s10.313-5.169,12.148-9.215,1.772-13.168.342-15.046a31.086,31.086,0,0,0-3.546-3.765l-2.593,7.042s-13.06-.027-19.375-5.706a55.325,55.325,0,0,1-9.864-11.749,5.957,5.957,0,0,0-4.072.83" transform="translate(-25.893 -11.8)" fill="#e9ecf4"/>
        <path id="Trazado_638272" data-name="Trazado 638272" d="M319.035,169.725l24.644,12.926-14.748,20.567-18.278-27.432Z" transform="translate(-16.678 -9.112)" fill="#fff"/>
        <path id="Trazado_638273" data-name="Trazado 638273" d="M372.367,168.726,345.552,182.6l14.22,17.723,18.708-24.7Z" transform="translate(-18.552 -9.059)" fill="#fff"/>
        <path id="Trazado_638274" data-name="Trazado 638274" d="M520.827,169.52a19.319,19.319,0,0,0,13.253-4.594" transform="translate(-27.962 -8.855)" fill="none" stroke="#ea7d77" stroke-miterlimit="10" stroke-width="1.543"/>
        <path id="Trazado_638275" data-name="Trazado 638275" d="M534.832,150.8s13.333-8.135,15.482-9.363,3.836-9.976,4.911-12.432a5.491,5.491,0,0,1,2.9-3.069" transform="translate(-28.714 -6.761)" fill="none" stroke="#ea7d77" stroke-miterlimit="10" stroke-width="1.543"/>
        <path id="Trazado_638276" data-name="Trazado 638276" d="M535.8,142.278l13.782-6.883c.918-.459,2.183-8.859,3.712-11.612a5.962,5.962,0,0,1,4.879-2.768" transform="translate(-28.766 -6.497)" fill="none" stroke="#ea7d77" stroke-miterlimit="10" stroke-width="1.543"/>
        <line id="Línea_173" data-name="Línea 173" x2="593.031" transform="translate(0 365.679)" fill="none" stroke="#0f1e36" stroke-miterlimit="10" stroke-width="1.417"/>
        <path id="Trazado_638277" data-name="Trazado 638277" d="M473,387.318H384.343a1.856,1.856,0,0,1-1.856-1.855v-1.132a1.856,1.856,0,0,1,1.856-1.855H473a1.856,1.856,0,0,1,1.856,1.855v1.132A1.856,1.856,0,0,1,473,387.318" transform="translate(-20.535 -20.535)" fill="#6252d7"/>
        <path id="Trazado_638278" data-name="Trazado 638278" d="M455.547,387.318H363.22a.019.019,0,0,1-.019-.019v-4.8a.019.019,0,0,1,.019-.019h92.327a.019.019,0,0,1,.019.019v4.8a.019.019,0,0,1-.019.019" transform="translate(-19.5 -20.535)" fill="#0f1e36"/>
        <path id="Trazado_638279" data-name="Trazado 638279" d="M527.892,381.9H419.39a3.073,3.073,0,0,1-2.82-4.294l31.876-73.556a3.073,3.073,0,0,1,2.82-1.851h108.5a3.073,3.073,0,0,1,2.82,4.294l-31.875,73.556a3.075,3.075,0,0,1-2.82,1.851" transform="translate(-22.351 -16.225)" fill="#0f1e36"/>
        <path id="Trazado_638280" data-name="Trazado 638280" d="M531.246,383.071H424.253a3.073,3.073,0,0,1-2.82-4.294l31.876-73.556a3.071,3.071,0,0,1,2.819-1.851H563.122a3.073,3.073,0,0,1,2.82,4.294L534.065,381.22a3.071,3.071,0,0,1-2.819,1.851" transform="translate(-22.612 -16.287)" fill="#6252d7"/>
        <path id="Trazado_638281" data-name="Trazado 638281" d="M509.51,350.688c-1.776,6.781-7.666,12.279-13.156,12.279s-8.5-5.5-6.724-12.279,7.666-12.278,13.156-12.278,8.5,5.5,6.724,12.278" transform="translate(-26.26 -18.169)" fill="#fff"/>
        <path id="Trazado_638282" data-name="Trazado 638282" d="M88.289,119.068h0Zm-.99,1.3L104.947,143.5h-2.278a6.809,6.809,0,0,0-6.8,6.8v34.577H78.727V150.3a6.809,6.809,0,0,0-6.8-6.8H69.65L87.3,120.366m0-4.832a2.759,2.759,0,0,0-2.208,1.093L64.922,143.062a2.778,2.778,0,0,0,2.209,4.462h4.8A2.777,2.777,0,0,1,74.7,150.3v35.824a2.777,2.777,0,0,0,2.777,2.777H97.114a2.778,2.778,0,0,0,2.778-2.777V150.3a2.777,2.777,0,0,1,2.776-2.777h4.8a2.777,2.777,0,0,0,2.209-4.462L89.506,116.627a2.76,2.76,0,0,0-2.207-1.093" transform="translate(-3.455 -6.203)" fill="#6252d7"/>
        <path id="Trazado_638283" data-name="Trazado 638283" d="M609.265,301.425v30.011a6.167,6.167,0,0,0,6.161,6.16h.135l-12.209,16-12.209-16h.135a6.168,6.168,0,0,0,6.161-6.16V301.425Zm1.886-4.024h-15.6a2.137,2.137,0,0,0-2.137,2.138v31.9a2.138,2.138,0,0,1-2.138,2.138h-3.947a2.137,2.137,0,0,0-1.7,3.433l16.021,21a2.137,2.137,0,0,0,3.4,0l16.021-21a2.137,2.137,0,0,0-1.7-3.433h-3.947a2.138,2.138,0,0,1-2.137-2.138v-31.9a2.138,2.138,0,0,0-2.138-2.138" transform="translate(-31.418 -15.967)" fill="#6252d7"/>
        <path id="Trazado_638284" data-name="Trazado 638284" d="M446.058,149.809l5.97,6.468,13.3-13.578" transform="translate(-23.948 -7.661)" fill="none" stroke="#5ec05d" stroke-linecap="round" stroke-linejoin="round" stroke-width="5.669"/>
        <path id="Trazado_638285" data-name="Trazado 638285" d="M471.924,165.239H436.914V130.229h35.011Zm.306-40.376H436.606a5.058,5.058,0,0,0-5.058,5.059v35.623a5.058,5.058,0,0,0,5.058,5.059H472.23a5.059,5.059,0,0,0,5.059-5.059V129.922a5.059,5.059,0,0,0-5.059-5.059" transform="translate(-23.169 -6.704)" fill="#5ec05d"/>
        <path id="Trazado_638286" data-name="Trazado 638286" d="M404.184,15.442h110.38V5.1a4.036,4.036,0,0,0-4.037-4.037H408.22A4.036,4.036,0,0,0,404.184,5.1Z" transform="translate(-21.7 -42.308)" fill="none" stroke="#6252d7" stroke-miterlimit="10" stroke-width="2.126"/>
        <g id="Grupo_970450" data-name="Grupo 970450" transform="translate(0 -42.251)">
          <rect id="Rectángulo_339009" data-name="Rectángulo 339009" width="110.382" height="76.467" rx="4.266" transform="translate(382.483 1.006)" fill="none" stroke="#6252d7" stroke-miterlimit="10" stroke-width="2.126"/>
          <path id="Trazado_638287" data-name="Trazado 638287" d="M430.821,8.909a2.532,2.532,0,1,0,2.531-2.531A2.531,2.531,0,0,0,430.821,8.909Z" transform="translate(-23.13 -0.342)" fill="none" stroke="#6252d7" stroke-miterlimit="10" stroke-width="2.126"/>
          <path id="Trazado_638288" data-name="Trazado 638288" d="M421.64,8.909a2.532,2.532,0,1,0,2.531-2.531A2.531,2.531,0,0,0,421.64,8.909Z" transform="translate(-22.637 -0.342)" fill="none" stroke="#6252d7" stroke-miterlimit="10" stroke-width="2.126"/>
          <path id="Trazado_638289" data-name="Trazado 638289" d="M412.459,8.909a2.532,2.532,0,1,0,2.531-2.531A2.531,2.531,0,0,0,412.459,8.909Z" transform="translate(-22.144 -0.342)" fill="none" stroke="#6252d7" stroke-miterlimit="10" stroke-width="2.126"/>
          <line id="Línea_174" data-name="Línea 174" x2="30.948" transform="translate(391.06 31.759)" fill="none" stroke="#6252d7" stroke-miterlimit="10" stroke-width="2.126"/>
          <line id="Línea_175" data-name="Línea 175" x2="37.314" transform="translate(391.06 39.24)" fill="none" stroke="#6252d7" stroke-miterlimit="10" stroke-width="2.126"/>
          <line id="Línea_176" data-name="Línea 176" x2="37.314" transform="translate(391.06 46.72)" fill="none" stroke="#6252d7" stroke-miterlimit="10" stroke-width="2.126"/>
          <line id="Línea_177" data-name="Línea 177" x2="12.97" transform="translate(391.06 61.303)" fill="none" stroke="#6252d7" stroke-miterlimit="10" stroke-width="2.126"/>
        </g>
        <path id="Trazado_638290" data-name="Trazado 638290" d="M539.678,34.425l-9.8,10.527a2.717,2.717,0,0,1-1.988.865l-43.1-.048a2.712,2.712,0,0,0-2.715,2.712l0,50.065a2.714,2.714,0,0,0,2.711,2.712l94.9.05a2.714,2.714,0,0,0,2.714-2.713l0-62.32a2.713,2.713,0,0,0-2.711-2.713H541.663a2.713,2.713,0,0,0-1.985.864" transform="translate(-25.882 -1.802)" fill="#ed7166"/>
        <path id="Trazado_638291" data-name="Trazado 638291" d="M491.284,39.035l78.867.047a3.728,3.728,0,0,1,3.726,3.728V56.094a3.727,3.727,0,0,1-3.729,3.728l-78.867-.047a3.726,3.726,0,0,1-3.725-3.728V42.763a3.727,3.727,0,0,1,3.729-3.728" transform="translate(-26.176 -2.096)" fill="#fff"/>
        <path id="Trazado_638292" data-name="Trazado 638292" d="M495.228,34.372,507.082,44.9a3.305,3.305,0,0,0,2.152.865l58.89.047a3.458,3.458,0,0,1,3.24,2.713l9.776,50.066a2.169,2.169,0,0,1-2.184,2.712l-94.906-.049a3.459,3.459,0,0,1-3.241-2.713L468.64,36.219a2.169,2.169,0,0,1,2.182-2.713l22.251,0a3.3,3.3,0,0,1,2.155.864" transform="translate(-25.158 -1.799)" fill="#ffa71e"/>
        <line id="Línea_178" data-name="Línea 178" x2="83.237" transform="translate(170.495 175.381)" fill="none" stroke="#5ec05d" stroke-linecap="round" stroke-linejoin="round" stroke-width="5.669"/>
        <rect id="Rectángulo_339010" data-name="Rectángulo 339010" width="14.896" height="51.95" transform="translate(185.277 123.431)" fill="#5ec05d"/>
        <rect id="Rectángulo_339011" data-name="Rectángulo 339011" width="14.897" height="42.929" transform="translate(207.743 132.451)" fill="#5ec05d"/>
        <rect id="Rectángulo_339012" data-name="Rectángulo 339012" width="14.896" height="31.337" transform="translate(229.316 144.044)" fill="#5ec05d"/>
        <path id="Trazado_638293" data-name="Trazado 638293" d="M562.866,260.572v-5.425a2.492,2.492,0,0,0-2.492-2.492h0a2.474,2.474,0,0,1-2.334-1.628q-.331-.92-.748-1.806a2.475,2.475,0,0,1,.5-2.8h0a2.49,2.49,0,0,0,0-3.523l-3.836-3.836a2.491,2.491,0,0,0-3.524,0,2.475,2.475,0,0,1-2.8.5q-.884-.419-1.807-.749a2.476,2.476,0,0,1-1.628-2.335,2.491,2.491,0,0,0-2.492-2.492h-5.425a2.491,2.491,0,0,0-2.492,2.492,2.474,2.474,0,0,1-1.627,2.335q-.921.329-1.806.748a2.473,2.473,0,0,1-2.8-.5h0a2.49,2.49,0,0,0-3.523,0l-3.836,3.836a2.49,2.49,0,0,0,0,3.523,2.475,2.475,0,0,1,.5,2.8q-.417.886-.749,1.807a2.473,2.473,0,0,1-2.334,1.628,2.491,2.491,0,0,0-2.492,2.492v5.425a2.491,2.491,0,0,0,2.492,2.492,2.474,2.474,0,0,1,2.334,1.627q.331.921.749,1.807a2.475,2.475,0,0,1-.5,2.8,2.491,2.491,0,0,0,0,3.524l3.836,3.836a2.491,2.491,0,0,0,3.523,0h0a2.473,2.473,0,0,1,2.8-.5q.884.417,1.806.748a2.474,2.474,0,0,1,1.627,2.335,2.492,2.492,0,0,0,2.492,2.492H541.7a2.492,2.492,0,0,0,2.492-2.492,2.475,2.475,0,0,1,1.628-2.335q.921-.331,1.807-.749a2.475,2.475,0,0,1,2.8.5,2.493,2.493,0,0,0,3.524,0l3.836-3.836a2.491,2.491,0,0,0,0-3.524,2.475,2.475,0,0,1-.5-2.8q.417-.884.748-1.807a2.475,2.475,0,0,1,2.334-1.627h0a2.492,2.492,0,0,0,2.492-2.492m-16.772,4.491h0a10.043,10.043,0,1,1,2.942-7.1,10.045,10.045,0,0,1-2.942,7.1" transform="translate(-27.656 -12.562)" fill="#6252d7"/>
        <g id="Grupo_970474" data-name="Grupo 970474" transform="translate(0.551 -41.245)">
          <g id="Grupo_970473" data-name="Grupo 970473">
            <g id="Grupo_970472" data-name="Grupo 970472" clip-path="url(#clip-path-3)">
              <path id="Trazado_638395" data-name="Trazado 638395" d="M146.9,118.907H8.216A8.215,8.215,0,0,1,0,110.691V15.868H146.047a9.072,9.072,0,0,1,9.072,9.071v85.752a8.216,8.216,0,0,1-8.216,8.216" fill="#e7a136"/>
              <path id="Trazado_638396" data-name="Trazado 638396" d="M148.462,118.907H10.14A8.216,8.216,0,0,1,2.1,108.988l12.82-60.476a9.07,9.07,0,0,1,8.874-7.19H160.369a9.072,9.072,0,0,1,8.874,10.953L156.5,112.395a8.215,8.215,0,0,1-8.037,6.512" fill="#ffa71e"/>
              <path id="Trazado_638397" data-name="Trazado 638397" d="M2.1,108.988l12.82-60.476a9.071,9.071,0,0,1,8.874-7.19H160.369a9.072,9.072,0,0,1,8.875,10.953" fill="none" stroke="#c98839" stroke-linecap="round" stroke-miterlimit="10" stroke-width="1"/>
              <path id="Trazado_638398" data-name="Trazado 638398" d="M61.084,0H5.193A5.193,5.193,0,0,0,0,5.193V15.868H70.44V9.356A9.356,9.356,0,0,0,61.084,0" fill="#e7a136"/>
              <line id="Línea_183" data-name="Línea 183" x2="52.32" transform="translate(18.119 15.868)" fill="none" stroke="#c98839" stroke-linecap="round" stroke-miterlimit="10" stroke-width="1"/>
            </g>
          </g>
          <text id="SQL" transform="translate(57.478 88.105)" fill="#fff" font-size="32.012" font-family="Montserrat-Bold, Montserrat" font-weight="700"><tspan x="0" y="0">SQL</tspan></text>
        </g>
      </g>
    </g>
  </g>
</svg>
