<svg xmlns="http://www.w3.org/2000/svg" xmlns:xlink="http://www.w3.org/1999/xlink" width="465.292" height="642.188" viewBox="0 0 465.292 642.188">
  <defs>
    <clipPath id="clip-path">
      <rect id="Rectángulo_344405" data-name="Rectángulo 344405" width="83.067" height="116.544" fill="none"/>
    </clipPath>
    <clipPath id="clip-path-2">
      <rect id="Rectángulo_344406" data-name="Rectángulo 344406" width="108.568" height="75.609" fill="none"/>
    </clipPath>
    <clipPath id="clip-path-3">
      <rect id="Rectángulo_344407" data-name="Rectángulo 344407" width="132.489" height="97.343" fill="none"/>
    </clipPath>
    <clipPath id="clip-path-4">
      <rect id="Rectángulo_344407-2" data-name="Rectángulo 344407" width="89.299" height="65.611" fill="none"/>
    </clipPath>
    <clipPath id="clip-path-5">
      <rect id="Rectángulo_344419" data-name="Rectángulo 344419" width="142.897" height="78.74" fill="none"/>
    </clipPath>
    <clipPath id="clip-path-6">
      <rect id="Rectángulo_344420" data-name="Rectángulo 344420" width="372.476" height="352.733" fill="none"/>
    </clipPath>
    <clipPath id="clip-path-7">
      <rect id="Rectángulo_344421" data-name="Rectángulo 344421" width="465.292" height="3.834" fill="none"/>
    </clipPath>
  </defs>
  <g id="Grupo_991613" data-name="Grupo 991613" transform="translate(-905.519 -6150.561)">
    <g id="Grupo_991609" data-name="Grupo 991609">
      <g id="Grupo_991583" data-name="Grupo 991583" transform="translate(942.789 6104.504)">
        <rect id="Rectángulo_344391" data-name="Rectángulo 344391" width="380.24" height="427.94" transform="translate(6.466 72.966)" fill="#aae0ff"/>
      </g>
      <g id="Grupo_991594" data-name="Grupo 991594" transform="translate(-75.585 -1772.292)">
        <path id="Trazado_667293" data-name="Trazado 667293" d="M661.052,1121.311H464.28a11.991,11.991,0,0,1-11.991-11.991V944.239a11.991,11.991,0,0,1,11.991-11.991H661.052a11.992,11.992,0,0,1,11.991,11.991v165.08a11.991,11.991,0,0,1-11.991,11.991" transform="translate(666.174 7139.545)" fill="#5896fa"/>
        <path id="Trazado_667294" data-name="Trazado 667294" d="M665.869,1145.149H532.789a7.918,7.918,0,1,1,0-15.835h133.08a7.918,7.918,0,1,1,0,15.835" transform="translate(629.805 7040.801)" fill="#fff"/>
        <path id="Trazado_667295" data-name="Trazado 667295" d="M665.869,1196.263H532.789a7.918,7.918,0,1,1,0-15.836h133.08a7.918,7.918,0,0,1,0,15.836" transform="translate(629.805 7015.19)" fill="#fff"/>
        <path id="Trazado_667296" data-name="Trazado 667296" d="M584.948,1194.9a2.788,2.788,0,1,1-2.787-2.787,2.788,2.788,0,0,1,2.787,2.787" transform="translate(602.496 7009.333)" fill="#80b2ff"/>
        <path id="Trazado_667297" data-name="Trazado 667297" d="M604.1,1194.9a2.787,2.787,0,1,1-2.788-2.787,2.788,2.788,0,0,1,2.788,2.787" transform="translate(592.897 7009.333)" fill="#80b2ff"/>
        <path id="Trazado_667298" data-name="Trazado 667298" d="M623.26,1194.9a2.788,2.788,0,1,1-2.788-2.787,2.788,2.788,0,0,1,2.788,2.787" transform="translate(583.299 7009.333)" fill="#80b2ff"/>
        <path id="Trazado_667299" data-name="Trazado 667299" d="M642.416,1194.9a2.787,2.787,0,1,1-2.788-2.787,2.788,2.788,0,0,1,2.788,2.787" transform="translate(573.7 7009.333)" fill="#80b2ff"/>
        <path id="Trazado_667300" data-name="Trazado 667300" d="M661.573,1194.9a2.787,2.787,0,1,1-2.788-2.787,2.788,2.788,0,0,1,2.788,2.787" transform="translate(564.101 7009.333)" fill="#80b2ff"/>
        <path id="Trazado_667301" data-name="Trazado 667301" d="M680.729,1194.9a2.787,2.787,0,1,1-2.787-2.787,2.788,2.788,0,0,1,2.787,2.787" transform="translate(554.503 7009.333)" fill="#80b2ff"/>
        <path id="Trazado_667302" data-name="Trazado 667302" d="M699.885,1194.9a2.787,2.787,0,1,1-2.788-2.787,2.788,2.788,0,0,1,2.788,2.787" transform="translate(544.904 7009.333)" fill="#80b2ff"/>
        <path id="Trazado_667303" data-name="Trazado 667303" d="M719.041,1194.9a2.787,2.787,0,1,1-2.788-2.787,2.788,2.788,0,0,1,2.788,2.787" transform="translate(535.305 7009.333)" fill="#80b2ff"/>
        <path id="Trazado_667304" data-name="Trazado 667304" d="M738.2,1194.9a2.788,2.788,0,1,1-2.787-2.787,2.788,2.788,0,0,1,2.787,2.787" transform="translate(525.706 7009.333)" fill="#80b2ff"/>
        <path id="Trazado_667305" data-name="Trazado 667305" d="M674.064,992.868a30.592,30.592,0,1,1-30.592-30.592,30.592,30.592,0,0,1,30.592,30.592" transform="translate(585.705 7124.5)" fill="#fff"/>
        <path id="Trazado_667306" data-name="Trazado 667306" d="M664.593,1001.74a9.663,9.663,0,0,0,7.505-3.676,9.421,9.421,0,0,0,2.068-5.974,9.612,9.612,0,1,0-19.224,0,9.407,9.407,0,0,0,2.068,5.974,9.7,9.7,0,0,0,7.582,3.676" transform="translate(564.629 7114.396)" fill="#005cea"/>
        <path id="Trazado_667307" data-name="Trazado 667307" d="M674.116,1041c0,6.09-34.006,6.09-34.006,0l.011-7.1c1.344-9.7,31.232-10.109,34,0Z" transform="translate(572.063 7092.332)" fill="#005cea"/>
        <path id="Trazado_667308" data-name="Trazado 667308" d="M547.237,1189.816v-.425a3.116,3.116,0,0,0-6.231,0v.425h-.473v5.615c0,.97,7.2.97,7.2,0v-5.615Zm-5.121-.425a2.016,2.016,0,1,1,4.031,0v.425h-4.031Zm2.535,3.253v1.622a.517.517,0,0,1-.541.5.481.481,0,0,1-.5-.5v-1.622a.948.948,0,0,1-.5-.832,1,1,0,0,1,2,0,1,1,0,0,1-.457.832" transform="translate(621.958 7012.259)" fill="#5896fa"/>
        <path id="Trazado_667309" data-name="Trazado 667309" d="M545.7,1139.942a2.038,2.038,0,0,0,1.583-.776,1.985,1.985,0,0,0,.437-1.26,2.028,2.028,0,1,0-4.056,0,1.987,1.987,0,0,0,.436,1.26,2.048,2.048,0,0,0,1.6.776" transform="translate(620.391 7037.517)" fill="#5896fa"/>
        <path id="Trazado_667310" data-name="Trazado 667310" d="M547.668,1148.225c0,1.285-7.213,1.285-7.213,0l.039-1.5c.283-2.048,6.59-2.133,7.175,0Z" transform="translate(621.997 7032.861)" fill="#5896fa"/>
        <path id="Trazado_667311" data-name="Trazado 667311" d="M609.547,1145.173H580.384a2.323,2.323,0,1,1,0-4.647h29.164a2.323,2.323,0,1,1,0,4.647" transform="translate(603.154 7035.183)" fill="#80b2ff"/>
        <path id="Trazado_667312" data-name="Trazado 667312" d="M686.641,1145.173H657.477a2.323,2.323,0,0,1,0-4.647h29.164a2.323,2.323,0,1,1,0,4.647" transform="translate(564.524 7035.183)" fill="#80b2ff"/>
        <path id="Trazado_667313" data-name="Trazado 667313" d="M660.3,1248.063H633.873a6.784,6.784,0,1,1,0-13.567H660.3a6.784,6.784,0,1,1,0,13.567" transform="translate(578.587 6988.097)" fill="#1251b3"/>
      </g>
      <g id="Grupo_991596" data-name="Grupo 991596" transform="translate(1001.344 6150.561)">
        <g id="Grupo_991595" data-name="Grupo 991595" clip-path="url(#clip-path)">
          <path id="Trazado_667314" data-name="Trazado 667314" d="M.345,69.982h0c0-.139,0-.2,0-.214,0,.026,0,.214,0,.214" transform="translate(-0.235 -47.57)" fill="#d9ffff"/>
          <path id="Trazado_667315" data-name="Trazado 667315" d="M.345,69.982h0c0-.139,0-.2,0-.214,0,.026,0,.214,0,.214" transform="translate(-0.235 -47.57)" fill="#d9ffff"/>
          <path id="Trazado_667316" data-name="Trazado 667316" d="M261.08,71.147s0-.189,0-.214c0,.014,0,.075,0,.214" transform="translate(-178.014 -48.365)" fill="#d9ffff"/>
          <path id="Trazado_667317" data-name="Trazado 667317" d="M261.08,71.147s0-.189,0-.214c0,.014,0,.075,0,.214" transform="translate(-178.014 -48.365)" fill="#d9ffff"/>
          <path id="Trazado_667318" data-name="Trazado 667318" d="M41.758,0C32.091,10.355,16.666,18.842.159,22.458.154,23.56.126,29.668,0,57.821c-.168,37.555,35.573,55.907,41.122,58.724,5.376-2.475,41.568-20.8,41.736-58.353.126-28.152.153-34.261.158-35.363C66.544,19.065,51.332,10.441,41.758,0" transform="translate(0)" fill="#fff"/>
          <path id="Trazado_667319" data-name="Trazado 667319" d="M51.331,21.333c-9.467,8.684-22.582,15.51-37,19.23l-.143,31.819c-.065,14.56,5.719,27.731,17.192,39.149A82.251,82.251,0,0,0,50.863,125.78c.173-.088.363-.187.549-.284V21.407c-.027-.025-.056-.049-.082-.074" transform="translate(-9.671 -14.546)" fill="#296acc"/>
          <path id="Trazado_667320" data-name="Trazado 667320" d="M131.2,21.566V125.655a82.278,82.278,0,0,0,19.063-13.789c11.574-11.316,17.476-24.435,17.541-38.994l.142-31.82C153.595,37.214,140.577,30.3,131.2,21.566" transform="translate(-89.453 -14.704)" fill="#2e77e6"/>
          <path id="Trazado_667321" data-name="Trazado 667321" d="M78.528,165.715v24.65c0,2.744,33.514,2.744,33.514,0v-24.65ZM96.98,178.8v6.987a1.7,1.7,0,1,1-3.391,0v-7a4.123,4.123,0,1,1,3.391.016" transform="translate(-53.543 -112.99)" fill="#fff"/>
          <path id="Trazado_667322" data-name="Trazado 667322" d="M115.4,127.012h-3.393v-1.66a10.43,10.43,0,1,0-20.86,0v1.66H87.754v-1.66a13.822,13.822,0,1,1,27.645,0Z" transform="translate(-59.834 -76.044)" fill="#fff"/>
        </g>
      </g>
      <g id="Grupo_991598" data-name="Grupo 991598" transform="translate(927.254 6276.573)">
        <g id="Grupo_991597" data-name="Grupo 991597" transform="translate(0 11)" clip-path="url(#clip-path-2)">
          <path id="Trazado_667323" data-name="Trazado 667323" d="M41.466,42.672V38.684A3.279,3.279,0,0,0,38.187,35.4H3.279A3.279,3.279,0,0,0,0,38.684v70.5H90.3V42.672Z" transform="translate(0 -33.574)" fill="#1251b3"/>
          <path id="Trazado_667324" data-name="Trazado 667324" d="M94.051,64.59H5.508L0,128.678H89.856Z" transform="translate(0 -53.069)" fill="#fff"/>
          <path id="Trazado_667325" data-name="Trazado 667325" d="M90.3,123.8H0L9.582,60.514a3.786,3.786,0,0,1,3.744-3.22H95.962a3.787,3.787,0,0,1,3.744,4.353Z" transform="translate(0 -48.195)" fill="#3383ff"/>
          <g id="Grupo_991604" data-name="Grupo 991604" transform="translate(80.601 1.831)">
            <path id="Trazado_667326" data-name="Trazado 667326" d="M264.06,15.251A12.973,12.973,0,1,1,251.087,2.278,12.973,12.973,0,0,1,264.06,15.251" transform="translate(-237.638 -1.804)" fill="#005cea"/>
            <path id="Trazado_667327" data-name="Trazado 667327" d="M249.274,26.894a13.447,13.447,0,1,1,13.449-13.448,13.464,13.464,0,0,1-13.449,13.448m0-25.946a12.5,12.5,0,1,0,12.5,12.5,12.511,12.511,0,0,0-12.5-12.5" transform="translate(-235.825)" fill="#fff"/>
            <path id="Trazado_667328" data-name="Trazado 667328" d="M270.433,53.314V62.5c0,1.023,12.489,1.023,12.489,0V53.314Zm6.876,4.878v2.6a.632.632,0,1,1-1.263,0V58.186a1.536,1.536,0,1,1,1.263.006" transform="translate(-263.228 -42.215)" fill="#fff"/>
            <path id="Trazado_667329" data-name="Trazado 667329" d="M285.989,28.226h-1.264v-.619a3.887,3.887,0,1,0-7.773,0v.619h-1.264v-.619a5.151,5.151,0,1,1,10.3,0Z" transform="translate(-267.389 -17.782)" fill="#fff"/>
          </g>
        </g>
      </g>
      <g id="Grupo_991600" data-name="Grupo 991600" transform="translate(1349.076 6200.861) rotate(90)">
        <g id="Grupo_991599" data-name="Grupo 991599" clip-path="url(#clip-path-3)">
          <path id="Trazado_667330" data-name="Trazado 667330" d="M247.772,93.465a21.683,21.683,0,1,1-21.683-21.683,21.684,21.684,0,0,1,21.683,21.683" transform="translate(-138.454 -48.622)" fill="#fff"/>
          <path id="Trazado_667331" data-name="Trazado 667331" d="M211.71,65.463a39.785,39.785,0,0,0,5.314-14.786l1.615.237,3.189.469.042,0a44.541,44.541,0,0,0-.838-17.324l-4.745,1.175a39.8,39.8,0,0,0-6.712-14.2l3.933-2.924a44.355,44.355,0,0,0-12.84-11.671l-2.533,4.2a39.721,39.721,0,0,0-14.786-5.314l.709-4.846a44.829,44.829,0,0,0-17.324.838l1.175,4.745a39.8,39.8,0,0,0-14.2,6.712L150.78,8.841a44.356,44.356,0,0,0-11.671,12.84l4.2,2.533A39.71,39.71,0,0,0,138,39l-3.428-.5-1.4-.194-.016-.01a44.835,44.835,0,0,0,.838,17.324l4.745-1.175a39.884,39.884,0,0,0,6.728,14.214l-3.933,2.924A44.264,44.264,0,0,0,154.353,83.24l2.533-4.2a39.814,39.814,0,0,0,14.8,5.324l-.557,3.765-.152,1.08a44.749,44.749,0,0,0,17.308-.847l-1.175-4.745A40.226,40.226,0,0,0,201.342,76.9l2.923,3.933A44.6,44.6,0,0,0,215.911,68Zm-45.4-2.052a21.678,21.678,0,1,1,29.755-7.382,21.676,21.676,0,0,1-29.755,7.382" transform="translate(-89.865 0)" fill="#005cea"/>
          <path id="Trazado_667332" data-name="Trazado 667332" d="M40.694,169.72a20.946,20.946,0,0,0-5.831-5.868l.478-.715.944-1.411.011-.019a23.452,23.452,0,0,0-8.428-3.516l-.513,2.522a20.956,20.956,0,0,0-8.271-.018l-.5-2.531a23.35,23.35,0,0,0-8.451,3.469l1.425,2.154a20.909,20.909,0,0,0-5.868,5.831l-2.145-1.432a23.6,23.6,0,0,0-3.516,8.428l2.522.513a20.952,20.952,0,0,0-.018,8.272L0,185.9a23.351,23.351,0,0,0,3.469,8.452l2.154-1.425a20.913,20.913,0,0,0,5.831,5.868l-1.015,1.516-.409.623-.008.005a23.6,23.6,0,0,0,8.428,3.516l.513-2.522a21,21,0,0,0,8.279.012l.5,2.531a23.3,23.3,0,0,0,8.444-3.464l-1.425-2.154a20.965,20.965,0,0,0,5.876-5.836l1.665,1.116.479.316a23.566,23.566,0,0,0,3.508-8.422l-2.522-.514a21.176,21.176,0,0,0,.02-8.285l2.531-.5a23.471,23.471,0,0,0-3.472-8.438ZM29.46,190.846a11.414,11.414,0,1,1,3.213-15.818,11.413,11.413,0,0,1-3.213,15.818" transform="translate(0 -107.134)" fill="#1251b3"/>
        </g>
      </g>
      <g id="Grupo_991605" data-name="Grupo 991605" transform="translate(927.254 6444.317)">
        <g id="Grupo_991599-2" data-name="Grupo 991599" clip-path="url(#clip-path-4)">
          <path id="Trazado_667330-2" data-name="Trazado 667330" d="M233.635,86.4A14.615,14.615,0,1,1,219.02,71.782,14.615,14.615,0,0,1,233.635,86.4" transform="translate(-159.954 -56.172)" fill="#fff"/>
          <path id="Trazado_667331-2" data-name="Trazado 667331" d="M185.944,44.122a26.815,26.815,0,0,0,3.581-9.966l1.089.159,2.15.316.028,0a30.021,30.021,0,0,0-.565-11.677l-3.2.792a26.827,26.827,0,0,0-4.524-9.574l2.651-1.97A29.9,29.9,0,0,0,178.5,4.339l-1.708,2.832a26.773,26.773,0,0,0-9.966-3.582l.478-3.266a30.215,30.215,0,0,0-11.676.565l.792,3.2a26.824,26.824,0,0,0-9.574,4.524l-1.97-2.651a29.9,29.9,0,0,0-7.866,8.655l2.832,1.708a26.765,26.765,0,0,0-3.582,9.966l-2.311-.34L133,25.816l-.011-.007a30.219,30.219,0,0,0,.565,11.676l3.2-.792a26.882,26.882,0,0,0,4.535,9.58l-2.651,1.97a29.834,29.834,0,0,0,8.644,7.86l1.708-2.832a26.835,26.835,0,0,0,9.977,3.588l-.375,2.538-.1.728a30.161,30.161,0,0,0,11.666-.571l-.792-3.2a27.113,27.113,0,0,0,9.591-4.528l1.97,2.651a30.058,30.058,0,0,0,7.849-8.65Zm-30.6-1.383A14.611,14.611,0,1,1,175.4,37.764a14.61,14.61,0,0,1-20.056,4.976" transform="translate(-103.819 0.001)" fill="#005cea"/>
          <path id="Trazado_667332-2" data-name="Trazado 667332" d="M27.428,165.953A14.118,14.118,0,0,0,23.5,162l.322-.482.636-.951.007-.013a15.807,15.807,0,0,0-5.68-2.37l-.346,1.7a14.124,14.124,0,0,0-5.575-.012l-.338-1.706a15.738,15.738,0,0,0-5.7,2.338l.961,1.452a14.093,14.093,0,0,0-3.955,3.93l-1.446-.965a15.909,15.909,0,0,0-2.37,5.68l1.7.346a14.122,14.122,0,0,0-.012,5.575L0,176.859a15.739,15.739,0,0,0,2.338,5.7L3.79,181.6a14.1,14.1,0,0,0,3.93,3.955l-.684,1.022-.276.42-.006,0a15.908,15.908,0,0,0,5.68,2.37l.346-1.7a14.153,14.153,0,0,0,5.58.008l.338,1.706a15.706,15.706,0,0,0,5.691-2.335l-.961-1.452a14.13,14.13,0,0,0,3.961-3.934l1.122.752.323.213a15.884,15.884,0,0,0,2.364-5.677l-1.7-.346a14.273,14.273,0,0,0,.013-5.584l1.706-.338a15.82,15.82,0,0,0-2.34-5.687Zm-7.572,14.239a7.693,7.693,0,1,1,2.166-10.662,7.692,7.692,0,0,1-2.166,10.662" transform="translate(0 -123.769)" fill="#1251b3"/>
        </g>
      </g>
      <g id="Grupo_991601" data-name="Grupo 991601" transform="translate(1245.505 6443.257)">
        <rect id="Rectángulo_344408" data-name="Rectángulo 344408" width="51.41" height="64.172" fill="#296acc"/>
        <rect id="Rectángulo_344409" data-name="Rectángulo 344409" width="51.41" height="64.172" transform="translate(6.667 6.626)" fill="#fff"/>
        <rect id="Rectángulo_344410" data-name="Rectángulo 344410" width="51.41" height="64.172" transform="translate(6.667 6.626)" fill="none" stroke="#5896fa" stroke-miterlimit="10" stroke-width="6.341"/>
        <rect id="Rectángulo_344411" data-name="Rectángulo 344411" width="51.41" height="64.172" transform="translate(15.134 13.133)" fill="#fff"/>
        <rect id="Rectángulo_344412" data-name="Rectángulo 344412" width="51.41" height="64.172" transform="translate(15.134 13.133)" fill="none" stroke="#5896fa" stroke-miterlimit="10" stroke-width="6.341"/>
        <rect id="Rectángulo_344413" data-name="Rectángulo 344413" width="51.41" height="64.172" transform="translate(21.295 19.759)" fill="#5896fa"/>
        <rect id="Rectángulo_344414" data-name="Rectángulo 344414" width="26.593" height="4.174" transform="translate(38.114 30.295)" fill="#005cea"/>
        <rect id="Rectángulo_344415" data-name="Rectángulo 344415" width="34.458" height="4.174" transform="translate(30.249 40.1)" fill="#005cea"/>
        <rect id="Rectángulo_344416" data-name="Rectángulo 344416" width="34.458" height="4.174" transform="translate(30.249 49.906)" fill="#005cea"/>
        <rect id="Rectángulo_344417" data-name="Rectángulo 344417" width="34.458" height="4.174" transform="translate(30.249 59.712)" fill="#005cea"/>
        <rect id="Rectángulo_344418" data-name="Rectángulo 344418" width="34.458" height="4.174" transform="translate(30.249 69.517)" fill="#005cea"/>
      </g>
      <g id="Grupo_991603" data-name="Grupo 991603" transform="translate(1075.091 6208.833)">
        <g id="Grupo_991602" data-name="Grupo 991602" clip-path="url(#clip-path-5)">
          <path id="Trazado_667333" data-name="Trazado 667333" d="M123.072,36.01A31.712,31.712,0,0,0,62.434,19.386,22.144,22.144,0,0,0,25.542,35.93H21.405A21.468,21.468,0,0,0,0,57.335H0a21.468,21.468,0,0,0,21.405,21.4H121.492a21.468,21.468,0,0,0,21.4-21.4h0A21.461,21.461,0,0,0,123.072,36.01" fill="#fff"/>
        </g>
      </g>
      <g id="Grupo_991608" data-name="Grupo 991608" transform="translate(960.301 6438.721)">
        <path id="Trazado_667334" data-name="Trazado 667334" d="M110.381,995.314l1.7,35.843h16.486l1.7-35.843Z" transform="translate(-75.238 -678.422)" fill="#0e0e0e"/>
        <path id="Trazado_667335" data-name="Trazado 667335" d="M1010.254,995.314l1.7,35.843h16.485l1.7-35.843Z" transform="translate(-688.606 -678.422)" fill="#0e0e0e"/>
        <g id="Grupo_991607" data-name="Grupo 991607" transform="translate(0 0.001)">
          <g id="Grupo_991606" data-name="Grupo 991606" clip-path="url(#clip-path-6)">
            <path id="Trazado_667336" data-name="Trazado 667336" d="M389.984,425.207q-2.725,8.455-5.965,17.355H110.351s-35.319-143.753,0-170.043a23.348,23.348,0,0,1,3.251-1.98c47.567-24.442,238.279-30.18,277,1.263.3.234.569.476.834.718,14.268,13.1,26.672,65.374-1.45,152.688" transform="translate(-64.518 -170.527)" fill="#2e0877"/>
            <path id="Trazado_667337" data-name="Trazado 667337" d="M247.27,638.729H144.153l10.055-100.753c17.981,7.8,65.853,49,93.062,100.753" transform="translate(-98.257 -366.694)" fill="#260565"/>
            <path id="Trazado_667338" data-name="Trazado 667338" d="M796.678,619.08q-2.725,8.456-5.965,17.355h-99.4c17.094-31.7,58.543-79.721,98.793-101.824Z" transform="translate(-471.212 -364.4)" fill="#260565"/>
            <path id="Trazado_667339" data-name="Trazado 667339" d="M359.759,533.547H321.817a12.714,12.714,0,0,0-12.6,11.047l-12.1,91.5H75.365l-12.1-91.5a12.714,12.714,0,0,0-12.6-11.047H12.718A12.714,12.714,0,0,0,.2,548.495L21.267,700.866H351.21l21.065-152.372a12.714,12.714,0,0,0-12.516-14.948" transform="translate(0 -363.675)" fill="#472687"/>
            <path id="Trazado_667340" data-name="Trazado 667340" d="M436.9,690.011c17.855,5.977,14.373,43.78,0,49.594H220.3c-16.176-4.175-17.544-54.182,5.787-50.42,142.776,26.845,149.694-15.982,210.817.826" transform="translate(-141.999 -467.571)" fill="#6c47b3"/>
            <path id="Trazado_667341" data-name="Trazado 667341" d="M407.7,327.446a200.731,200.731,0,0,0,1.508,27H510.769l6.015-99.171c-6.034-36.223-22.549-45-48.69-45-23.4,0-38.977,19.085-48.447,44.632-8.185,22.072-11.805,48.962-11.951,72.543" transform="translate(-277.888 -143.325)" fill="#007880"/>
            <path id="Trazado_667342" data-name="Trazado 667342" d="M407.708,424.911l36.754-2.212c-20.4-6.68-22.028-38-1.286-57.482l-23.517-14.764c-8.185,22.073-11.805,50.877-11.951,74.458" transform="translate(-277.901 -238.875)" fill="#005459"/>
            <path id="Trazado_667343" data-name="Trazado 667343" d="M385.737,625.8H525.278V578.313h-125.7Z" transform="translate(-262.925 -394.188)" fill="#0e0e0e"/>
            <path id="Trazado_667344" data-name="Trazado 667344" d="M737.2,610.087l-37.482,136.19H670.492c9.253-57.954,7.18-95.629,15.884-143.753,7.634-39.5,59.911-29.048,50.824,7.563" transform="translate(-457.018 -393.544)" fill="#0e0e0e"/>
            <path id="Trazado_667345" data-name="Trazado 667345" d="M729.3,1068.178c0-.09-.007-.179-.007-.269a18.281,18.281,0,1,1,36.561,0c0,.09-.005.179-.007.269Z" transform="translate(-497.102 -715.444)" fill="#b15626"/>
            <path id="Trazado_667346" data-name="Trazado 667346" d="M711.02,1033.971l-6.645-2.032c-4.386-8.629-23.092-7.56-20.487,2.941-7.34,1.093-11.2-2.563-11.2-2.563l-2.195,19.862h39.633Z" transform="translate(-457.019 -699.447)" fill="#b15626"/>
            <path id="Trazado_667347" data-name="Trazado 667347" d="M360.83,610.087l37.482,136.19h29.226c-9.253-57.954-7.18-95.629-15.884-143.753-7.634-39.5-59.911-29.048-50.824,7.563" transform="translate(-245.227 -393.544)" fill="#0e0e0e"/>
            <path id="Trazado_667348" data-name="Trazado 667348" d="M435.527,1068.178c0-.09.007-.179.007-.269a18.281,18.281,0,1,0-36.561,0c0,.09.005.179.007.269Z" transform="translate(-271.947 -715.444)" fill="#b15626"/>
            <path id="Trazado_667349" data-name="Trazado 667349" d="M445.322,1033.971l6.645-2.032c4.386-8.629,23.092-7.56,20.487,2.941,7.34,1.093,11.2-2.563,11.2-2.563l2.195,19.862H446.217Z" transform="translate(-303.539 -699.447)" fill="#b15626"/>
            <path id="Trazado_667350" data-name="Trazado 667350" d="M412.088,220.278c13.708,8.321,15.661,33.024,8.634,42.866l-39.114,29.138,39.823,20.506-6.469,21.181s-41.567-3.383-61.913-24.253c-19.536-20.039,28.091-78.9,59.04-89.439" transform="translate(-237.533 -150.145)" fill="#007880"/>
            <path id="Trazado_667351" data-name="Trazado 667351" d="M610.49,259.154c-11.725-14.723-3.627-37.473,11.319-36.8,48.673,17.134,63.7,64.711,48.277,86.068-13.21,18.3-71.321,25.344-71.321,25.344V313.729l40.376-8.724s-20.818-32.256-28.651-45.851" transform="translate(-408.128 -151.548)" fill="#007880"/>
            <path id="Trazado_667352" data-name="Trazado 667352" d="M501.439,518.755c-.755-6.709,3.17-15.1,13.267-16.931,17.634-3.2,24.018,6.473,25.685,13.391.434,1.8-1.205,3.708-2.719,3.54a2.98,2.98,0,0,1-2.839-2.4,6.821,6.821,0,0,0-3.077-4.763c1.823,3.572,1.061,7.158-3.9,7.158Z" transform="translate(-341.727 -341.622)" fill="#f7a594"/>
            <path id="Trazado_667353" data-name="Trazado 667353" d="M531.78,407.324l13.877-69.586H548.6c-.94,4.793-14.592,74.42-15.019,76.595H491.99l-4.543-7.009Z" transform="translate(-332.252 -230.208)" fill="#99c1ff"/>
            <path id="Trazado_667354" data-name="Trazado 667354" d="M647.364,337.738H750.631l-15.274,76.595H632.345Z" transform="translate(-431.017 -230.208)" fill="#fff"/>
            <path id="Trazado_667355" data-name="Trazado 667355" d="M584.949,170.451c0,7.918,23.736,13.169,31.495,4.847a8.776,8.776,0,0,0,2.292-4.7l4.471-20.054-28.348-10.689-.845,2.62Z" transform="translate(-398.711 -95.33)" fill="#f7a594"/>
            <path id="Trazado_667356" data-name="Trazado 667356" d="M640.612,178.024l4.471-20.054-26.819-7.222c-6.943,20.661,17.831,37.167,22.348,27.275" transform="translate(-420.588 -102.753)" fill="#f4856d"/>
            <path id="Trazado_667357" data-name="Trazado 667357" d="M609.277,43.936c-1.492,19.711,14.084,37.07,27.154,37.95S667.5,68.168,668.99,48.457s-10.665-36.7-27.154-37.95-31.066,13.718-32.559,33.429" transform="translate(-415.225 -7.113)" fill="#f7a594"/>
            <path id="Trazado_667358" data-name="Trazado 667358" d="M630.148,4.888c18.073-11.445,28.022-.682,37.021,10.735,6.315,8.012,10.788,13.768,18.648,14.973-15.119,19.071-45.357,6.49-54.884-12.62C630,28.854,617.173,37.864,608.3,36.824,605.419,24.719,613.8.248,630.148,4.888" transform="translate(-414.244 -0.001)" fill="#0e0e0e"/>
            <path id="Trazado_667359" data-name="Trazado 667359" d="M595.612,99.637a7.867,7.867,0,1,0,7.867-7.867,7.867,7.867,0,0,0-7.867,7.867" transform="translate(-405.979 -62.552)" fill="#f7a594"/>
          </g>
        </g>
      </g>
    </g>
    <g id="Grupo_991612" data-name="Grupo 991612" transform="translate(905.519 6788.915)">
      <g id="Grupo_991611" data-name="Grupo 991611" transform="translate(0 0)" clip-path="url(#clip-path-7)">
        <path id="Trazado_667361" data-name="Trazado 667361" d="M2.541,3.834H462.751c1.4,0,2.541-.858,2.541-1.917S464.154,0,462.751,0H2.541C1.137,0,0,.858,0,1.917S1.137,3.834,2.541,3.834" transform="translate(0 0)" fill="#2d5b98"/>
      </g>
    </g>
  </g>
</svg>
