<svg id="Grupo_996338" data-name="Grupo 996338" xmlns="http://www.w3.org/2000/svg" xmlns:xlink="http://www.w3.org/1999/xlink" width="186.459" height="175" viewBox="0 0 186.459 175">
  <defs>
    <clipPath id="clip-path">
      <rect id="Rect치ngulo_348092" data-name="Rect치ngulo 348092" width="186.459" height="175" fill="none"/>
    </clipPath>
  </defs>
  <path id="Trazado_704819" data-name="Trazado 704819" d="M0,0H162.261V138.094H0Z" transform="translate(12.345 10.675)" fill="#0f58b9"/>
  <g id="Grupo_996337" data-name="Grupo 996337">
    <g id="Grupo_996336" data-name="Grupo 996336" clip-path="url(#clip-path)">
      <path id="Trazado_704806" data-name="Trazado 704806" d="M52.207,41.974c0,.514-.009.99,0,1.466.061,2.74.154,5.481.175,8.222.005.676.158.892.859.876a31.625,31.625,0,0,1,4.152.1,5.624,5.624,0,0,1,5.068,5.148c.17,2.117.093,4.253.126,6.38,0,.251,0,.5,0,.881h1.2l47.988.009a5.535,5.535,0,0,0,5.873-5.6c.092-3.675.019-7.355.018-11.032a3.451,3.451,0,0,1,.009-.771c.166-.714-.114-1-.8-1.241a10.112,10.112,0,0,1-6.418-10.33,10.429,10.429,0,0,1,8.133-8.983c8.227-1.572,13.382,6.375,11.955,12.021a10.248,10.248,0,0,1-6.287,7.24,1.114,1.114,0,0,0-.8,1.282c.028,3.9.085,7.809-.032,11.708a11.644,11.644,0,0,1-11.865,11.51q-23.559.035-47.117,0c-1.808,0-1.821,0-1.832,1.763-.015,2.452.012,4.9-.025,7.355-.011.689.2.853.887.85,8.771-.044,17.544-.121,26.315-.044a11.8,11.8,0,0,1,11.943,12.188c0,1.193.018,2.389-.043,3.579a1.052,1.052,0,0,0,.776,1.217,9.665,9.665,0,0,1,6.4,8.771,10.148,10.148,0,0,1-6.985,10.153,10.086,10.086,0,0,1-6.923-18.927,1.22,1.22,0,0,0,.927-1.428c-.089-1.285-.008-2.581-.069-3.868-.172-3.621-2.4-5.767-6.024-5.778-6.192-.019-12.383,0-18.576.008q-3.773,0-7.546.013h-1c-.021.42-.048.733-.049,1.047-.01,4.452,0,8.9-.027,13.355a5.932,5.932,0,0,1-4.432,5.978,11.72,11.72,0,0,1-2.973.235q-17.9.019-35.8.005-1.935,0-3.87.017c-.284,0-.567.036-.98.064,0,.357,0,.667,0,.978q-.03,7.983-.071,15.967c0,.558.107.8.746.8Q25.861,125.1,36.5,125.1q35.8-.009,71.6,0a9.9,9.9,0,0,1,1.54.106,2.859,2.859,0,0,1,2.494,3.056,2.583,2.583,0,0,1-2.771,2.612c-6.643.032-13.287.016-19.93.014q-36.957-.007-73.915-.013c-.314,0-.628.03-.988.05-.02.321-.05.57-.049.819q.021,3.726.052,7.452a5.957,5.957,0,0,0,6.189,6.333c1.064.03,2.128.043,3.193.043q48.23,0,96.46,0h1.7a32.384,32.384,0,0,1-.76-3.39,45.5,45.5,0,0,1-.332-5.109c-.031-10.613-.019-21.226-.023-31.839,0-2.567,1.236-3.907,3.775-3.776,9.826.51,18.24-3.2,26.106-8.6.186-.127.362-.269.545-.4,1.648-1.178,2.687-1.242,4.314-.049a49.972,49.972,0,0,0,10.017,5.79c1.948.828,3.961,1.5,6.108,2.309.043-.495.1-.826.1-1.156q-.016-37.648-.038-75.294c0-1.613.064-3.225.056-4.838a5.72,5.72,0,0,0-6.081-6.045q-29.848,0-59.695,0a10.319,10.319,0,0,1-1.352-.043,2.867,2.867,0,0,1-2.772-3.282c.119-1.606,1.172-2.48,3.085-2.481q17.995-.006,35.991.009,12.239,0,24.478-.01a11.621,11.621,0,0,1,12.042,11.318c.037.611.043,1.225.043,1.838q0,39.147,0,78.295a15.468,15.468,0,0,1-.031,1.741c-.09.786.284,1.034.989,1.058,1.612.057,3.221.137,4.832.208a2.719,2.719,0,0,1,2.856,2.574,14.932,14.932,0,0,1,.1,1.929c.009,10.452.061,20.9,0,31.357-.065,10.664-4.571,18.992-13.459,24.909-5.605,3.732-11.254,7.4-16.839,11.163a3.88,3.88,0,0,1-4.884.031c-6.024-4.151-12.088-8.242-18.131-12.366a26.773,26.773,0,0,1-8.32-9.15,1.524,1.524,0,0,0-1.1-.657c-2.482-.039-4.965.029-7.447.017-.665,0-.91.207-.91.883q.014,7.936-.028,15.871c0,.712.358.771.91.765q4.643-.044,9.287-.055c.644,0,1.291,0,1.933.056a2.751,2.751,0,0,1,2.773,2.866,2.781,2.781,0,0,1-2.693,2.957,9.507,9.507,0,0,1-1.063.021q-42.086,0-84.172-.006a7.76,7.76,0,0,1-1.627-.151,2.617,2.617,0,0,1-2.186-2.775,2.67,2.67,0,0,1,2.2-2.784,13.149,13.149,0,0,1,2.4-.184c3.031-.023,6.063-.014,9.094-.022.345,0,.69-.04,1.081-.063V151.76c-.463-.038-.873-.1-1.284-.1-10.189,0-20.379-.031-30.568.016-3.883.018-7.235-1.092-9.827-4.081A11.906,11.906,0,0,1,8.7,139.483q.015-15.435.013-30.87c0-1.293.014-1.293-1.275-1.289a8.031,8.031,0,0,1-4.486-.886,5.62,5.62,0,0,1-2.847-4.368c-.12-1.313-.1-2.641-.1-3.962q-.013-19.162,0-38.325a12.445,12.445,0,0,1,.224-2.691,5.912,5.912,0,0,1,5.959-4.56c1.286-.022,2.572,0,3.927,0,.026-.314.061-.56.065-.807.053-2.708-.009-5.423.175-8.121a19.505,19.505,0,0,1,4.963-11.419,20.233,20.233,0,0,1,18.962-7.359A20.136,20.136,0,0,1,49.869,35.494a1.291,1.291,0,0,0,1.294.76c7.062-.022,14.125-.01,21.187-.01,1.739,0,3.482.064,5.217-.026A5.483,5.483,0,0,0,82.938,31c.168-3.088,0-6.192.112-9.284a2.177,2.177,0,0,0-1.534-2.463,9.859,9.859,0,0,1-2.18-16.556A9.293,9.293,0,0,1,89.208.629a10.256,10.256,0,0,1,6.7,8c.938,4.393-1.507,8.759-6,10.742a1.665,1.665,0,0,0-1.148,1.872c.06,3.192.155,6.391,0,9.577A11.561,11.561,0,0,1,79.61,41.676a14.245,14.245,0,0,1-3.168.276c-7.835,0-15.671-.037-23.507-.057a6.882,6.882,0,0,0-.728.08m4.552,16.7H5.815v43.079H56.758Zm123.919,49.067a51.975,51.975,0,0,1-25.788-8.756,1.645,1.645,0,0,0-2.193-.068,50.672,50.672,0,0,1-25.061,8.7c-.624.045-.632.382-.632.833,0,10.029-.066,20.059.017,30.086a21.293,21.293,0,0,0,9,17.858c5.569,4.059,11.363,7.808,17.036,11.725a1.227,1.227,0,0,0,1.629-.019q7.542-5.152,15.112-10.26c7.322-4.958,10.9-11.872,10.881-20.7-.021-9.449,0-18.9,0-28.346Zm-71.245,43.991H59.243v17.356h50.189ZM46.772,52.818c0-2.307-.016-4.432,0-6.558a14.709,14.709,0,0,0-6.662-12.884c-8.439-5.948-20.192-1.884-23.524,8.347-1.122,3.446-.67,7.03-.629,10.569.008.664.515.531.917.531q13.979,0,27.957-.006h1.939m51.953,58.9a4.4,4.4,0,1,0,.12-8.8,4.4,4.4,0,1,0-.12,8.8m21.786-70.261a4.281,4.281,0,0,0,4.436-4.255,4.474,4.474,0,0,0-4.338-4.53,4.373,4.373,0,0,0-4.411,4.421,4.226,4.226,0,0,0,4.312,4.364M90.343,10.32a4.447,4.447,0,0,0-4.294-4.463A4.4,4.4,0,0,0,81.6,10.365a4.369,4.369,0,0,0,8.738-.044" transform="translate(0 0)" fill="#161615"/>
      <path id="Trazado_704807" data-name="Trazado 704807" d="M45.757,15.291q-11.366,0-22.733,0A5.756,5.756,0,0,0,17,21.315c-.012,2.1.07,4.194,0,6.287a2.753,2.753,0,0,1-3.137,2.781,2.378,2.378,0,0,1-2.453-2.163,56.513,56.513,0,0,1,.275-9.916c.868-5.119,5.808-8.788,11.154-8.8Q41.121,9.467,59.4,9.494c3.386,0,6.771-.019,10.157,0a2.607,2.607,0,0,1,2.658,1.722,2.818,2.818,0,0,1-.579,3.144,3.745,3.745,0,0,1-2.86.929q-6.287.008-12.575,0H45.757" transform="translate(-2.529 -2.117)" fill="#161615"/>
      <path id="Trazado_704808" data-name="Trazado 704808" d="M58.43,118.619H7.486V75.54H58.43Zm-28.192-11.64c0,.806-.052,1.616.012,2.417a2.453,2.453,0,0,0,1.71,2.339,2.994,2.994,0,0,0,4.089-2.974c.048-1.321.033-2.646,0-3.967a.833.833,0,0,1,.663-.969A11.156,11.156,0,0,0,44,91.6a11.034,11.034,0,0,0-21.568-1.185c-1.277,5.186.41,10.293,5.536,12.695,1.915.9,2.715,1.862,2.267,3.867" transform="translate(-1.671 -16.862)" fill="#ffc321"/>
      <path id="Trazado_704809" data-name="Trazado 704809" d="M217.167,136.059v1.055c0,9.449-.016,18.9,0,28.346.019,8.828-3.559,15.742-10.881,20.7q-7.563,5.121-15.112,10.261a1.227,1.227,0,0,1-1.629.019c-5.674-3.917-11.468-7.666-17.036-11.725a21.29,21.29,0,0,1-9-17.857c-.083-10.028-.016-20.057-.017-30.086,0-.451.009-.788.632-.833a50.672,50.672,0,0,0,25.061-8.7,1.644,1.644,0,0,1,2.193.068,51.966,51.966,0,0,0,25.788,8.755m-26.892,44.392a21.815,21.815,0,0,0,.131-43.629c-12.8.155-21.744,9.851-21.9,21.616a21.721,21.721,0,0,0,21.769,22.013" transform="translate(-36.489 -28.315)" fill="#25ffff"/>
      <rect id="Rect치ngulo_348091" data-name="Rect치ngulo 348091" width="50.189" height="17.356" transform="translate(59.244 151.736)" fill="#fff"/>
      <path id="Trazado_704810" data-name="Trazado 704810" d="M51.324,61.615h-1.94q-13.977.006-27.956.007c-.4,0-.91.132-.917-.531-.042-3.539-.492-7.123.629-10.569,3.332-10.232,15.085-14.3,23.522-8.348a14.71,14.71,0,0,1,6.663,12.884c-.018,2.125,0,4.251,0,6.557" transform="translate(-4.551 -8.798)" fill="#0f58b9"/>
      <path id="Trazado_704811" data-name="Trazado 704811" d="M125.836,141.294a4.4,4.4,0,1,1,.12-8.8,4.4,4.4,0,1,1-.12,8.8" transform="translate(-27.11 -29.575)" fill="#ffc321"/>
      <path id="Trazado_704812" data-name="Trazado 704812" d="M153.9,50.846a4.226,4.226,0,0,1-4.312-4.364A4.374,4.374,0,0,1,154,42.061a4.475,4.475,0,0,1,4.338,4.53,4.282,4.282,0,0,1-4.437,4.255" transform="translate(-33.392 -9.389)" fill="#ffc321"/>
      <path id="Trazado_704813" data-name="Trazado 704813" d="M113.793,12a4.369,4.369,0,0,1-8.738.044A4.4,4.4,0,0,1,109.5,7.541,4.447,4.447,0,0,1,113.793,12" transform="translate(-23.45 -1.683)" fill="#ffc321"/>
      <path id="Trazado_704814" data-name="Trazado 704814" d="M34.415,108.9c.447-2-.353-2.97-2.267-3.867-5.126-2.4-6.813-7.509-5.537-12.695A11.034,11.034,0,0,1,48.18,93.525a11.157,11.157,0,0,1-7.29,12.223.832.832,0,0,0-.663.969c.033,1.322.049,2.646,0,3.967a2.994,2.994,0,0,1-4.089,2.974,2.453,2.453,0,0,1-1.71-2.339c-.064-.8-.012-1.611-.012-2.417m2.75-18.939c-3.122.037-5.239,2.054-5.225,4.976a5.534,5.534,0,0,0,5.493,5.545,5.144,5.144,0,0,0,5.1-5.208,5.363,5.363,0,0,0-5.368-5.312" transform="translate(-5.849 -18.784)" fill="#161615"/>
      <path id="Trazado_704815" data-name="Trazado 704815" d="M191.722,183.317a21.722,21.722,0,0,1-21.77-22.013c.157-11.764,9.1-21.461,21.9-21.616a21.815,21.815,0,0,1-.13,43.629m.062-37.816c-9.253-.249-16.225,7.9-16.12,16.069a16.092,16.092,0,0,0,32.183.086c.045-9.636-8.53-16.512-16.063-16.155" transform="translate(-37.936 -31.181)" fill="#161615"/>
      <path id="Trazado_704816" data-name="Trazado 704816" d="M38.813,91.632a5.363,5.363,0,0,1,5.368,5.312,5.144,5.144,0,0,1-5.1,5.208,5.534,5.534,0,0,1-5.493-5.545c-.014-2.922,2.1-4.939,5.225-4.976" transform="translate(-7.497 -20.454)" fill="#fff"/>
      <path id="Trazado_704817" data-name="Trazado 704817" d="M193.426,147.168c7.533-.357,16.108,6.52,16.063,16.155a16.092,16.092,0,0,1-32.183-.086c-.106-8.172,6.867-16.319,16.12-16.069m-11.4,13.911a10.741,10.741,0,0,0,.542,1.446c.75,1.46,1.541,2.9,2.34,4.334a17.366,17.366,0,0,0,1.359,2.218,2.567,2.567,0,0,0,3.593.722c.426-.227.844-.472,1.248-.733q5.721-3.7,11.432-7.412a6.036,6.036,0,0,0,1.117-.916,2.8,2.8,0,0,0,.273-3.329,2.442,2.442,0,0,0-2.785-1.247A7.9,7.9,0,0,0,199,157.212q-4.313,2.759-8.582,5.589c-.6.393-.946.461-1.314-.317a24.736,24.736,0,0,0-1.9-3.354,2.6,2.6,0,0,0-3.148-1.034,3.188,3.188,0,0,0-2.031,2.984" transform="translate(-39.578 -32.848)" fill="#cdfbfb"/>
      <path id="Trazado_704818" data-name="Trazado 704818" d="M183.378,163.644a3.188,3.188,0,0,1,2.031-2.984,2.6,2.6,0,0,1,3.148,1.034,24.733,24.733,0,0,1,1.9,3.354c.367.778.718.71,1.314.317q4.275-2.819,8.582-5.589a7.9,7.9,0,0,1,2.141-1.049,2.442,2.442,0,0,1,2.785,1.247,2.8,2.8,0,0,1-.273,3.329,6.035,6.035,0,0,1-1.117.916q-5.707,3.718-11.432,7.412c-.4.262-.823.506-1.248.733a2.567,2.567,0,0,1-3.593-.722,17.368,17.368,0,0,1-1.359-2.218c-.8-1.435-1.59-2.874-2.34-4.334a10.743,10.743,0,0,1-.542-1.446" transform="translate(-40.934 -35.413)" fill="#161615"/>
    </g>
  </g>
</svg>
