<svg id="Grupo_996317" data-name="Grupo 996317" xmlns="http://www.w3.org/2000/svg" xmlns:xlink="http://www.w3.org/1999/xlink" width="173.667" height="159.289" viewBox="0 0 173.667 159.289">
  <defs>
    <clipPath id="clip-path">
      <rect id="Rectángulo_348068" data-name="Rectángulo 348068" width="173.667" height="159.289" fill="none"/>
    </clipPath>
  </defs>
  <g id="Grupo_996316" data-name="Grupo 996316" clip-path="url(#clip-path)">
    <path id="Trazado_704715" data-name="Trazado 704715" d="M41.962,46.528c-.021-9.213-.022-18.425-.077-27.638a6.836,6.836,0,0,1,3.08-5.923,7.491,7.491,0,0,1,4.073-1.3c.5-.012.647-.1.672-.636.044-.956-.191-1.881-.165-2.832A8.141,8.141,0,0,1,55.62.183,7.929,7.929,0,0,1,57.709.007q53.8-.013,107.6.005a8.453,8.453,0,0,1,3.122.371,8.017,8.017,0,0,1,3.993,3.352,9.576,9.576,0,0,1,1.094,4.187c.24,2.893.119,5.78.12,8.668q.025,66.857-.012,133.714c0,2.118-.26,4.223-1.8,5.974a7.569,7.569,0,0,1-5.756,2.9c-5.737.052-11.475.034-17.212.035q-37.223,0-74.446,0a15.051,15.051,0,0,0-2.2.038,3.513,3.513,0,0,1-3.169-1.291c-2.582-2.605-5.193-5.183-7.791-7.772-3.438-3.425-6.865-6.862-10.322-10.268a3.449,3.449,0,0,1-1.266-3.02c.094-.777,0-1.576.018-2.364.016-.522-.206-.742-.709-.658a80.058,80.058,0,0,1-13.808.786c-2.235-.014-4.447-.31-6.671-.427a62.745,62.745,0,0,1-12.227-1.967,43.741,43.741,0,0,1-10.538-3.937,11.773,11.773,0,0,1-5.2-5.411,5.4,5.4,0,0,1-.51-2.223q-.026-21.891,0-43.781a6.537,6.537,0,0,1,1.9-4.327,20.413,20.413,0,0,1,8-5.048,66.9,66.9,0,0,1,10.6-2.928,50.507,50.507,0,0,1,5.858-.756,101.275,101.275,0,0,1,13.426-.617c2.166.072,4.341.2,6.5.448a25.414,25.414,0,0,1,2.806.356c.372.085.627-.027.619-.52-.03-1.69-.039-3.381-.012-5.071.01-.637-.4-.474-.737-.481A7.565,7.565,0,0,1,43.1,54.728a11.393,11.393,0,0,1-1.345-3.294c-.14-.353.144-.782.138-1.2-.013-1.1.043-2.192.072-3.287.208.071.228-.072.227-.212s-.027-.282-.233-.2M54.7,11.447a.982.982,0,0,0,.844.275c.564-.031,1.13-.035,1.695-.035H131a7.009,7.009,0,0,1,3.029.582,7.216,7.216,0,0,1,4.457,6.879q.06,15.718.028,31.437a7.186,7.186,0,0,1-1.55,4.47,7.562,7.562,0,0,1-6.388,2.938q-37.476-.046-74.953-.037c-.757,0-.941.183-.916.925.059,1.744.045,3.493-.007,5.238-.02.651.166.974.814,1.1,2.108.4,4.136,1.082,6.191,1.679a24.441,24.441,0,0,1,8.057,3.989,10.386,10.386,0,0,1,3.224,4.026,10.493,10.493,0,0,1,.566,4.185c-.009,13.523.014,27.047-.005,40.57a8.381,8.381,0,0,1-1.378,4.755c-1.5,2.253-3.729,3.562-6.032,4.751a38.985,38.985,0,0,1-10.718,3.523c-.687.13-.873.6-.83,1.783.028.765.552.577.962.577,4.579.01,9.158-.026,13.736.024a4.267,4.267,0,0,1,4.029,2.015,6.712,6.712,0,0,1,.592,3.3c.064,4.366.036,8.734.015,13.1,0,.577.119.824.748.735a10.957,10.957,0,0,1,1.524-.036q35.569,0,71.138,0,9.071,0,18.144-.037a2.873,2.873,0,0,0,2.145-.919c.986-1.028.979-2.275.979-3.544q-.005-68.335-.012-136.67c0-1.577.015-3.156-.039-4.732a3.406,3.406,0,0,0-.731-2.22,3.5,3.5,0,0,0-2.968-1.022L59.713,5.033c-.678,0-1.358-.015-2.035.026a2.788,2.788,0,0,0-2.931,3.006c.043,1.1-.04,2.2-.066,3.293l-.051.026.066.062M90.23,52.89q17.551,0,35.1,0c1.922,0,3.844,0,5.765-.043a2.109,2.109,0,0,0,2.379-2.339q.012-15.466-.01-30.933c0-.945-.095-1.985-1.115-2.419A6.04,6.04,0,0,0,130,16.728q-39.849,0-79.7,0c-.339,0-.68-.012-1.017.017a2.212,2.212,0,0,0-2.314,2.434c-.009.366-.008.732-.008,1.1q0,14.749,0,29.5c0,.366-.012.734.016,1.1a2.078,2.078,0,0,0,1.551,1.891,5.308,5.308,0,0,0,1.6.126q20.051,0,40.1,0M44.113,86.719a77.494,77.494,0,0,0,7.976-1.026A45.828,45.828,0,0,0,63.9,82.11a11.363,11.363,0,0,0,3.831-2.725,2.329,2.329,0,0,0,.085-3.353A7.8,7.8,0,0,0,65.8,74.245a23.385,23.385,0,0,0-5.531-2.6c-2.211-.732-4.48-1.224-6.752-1.733a77.267,77.267,0,0,0-10.751-1.427,81.908,81.908,0,0,0-8.962-.178c-1.052.031-2.143-.013-3.148.094-.965.1-1.984.249-2.959.343-2.419.233-4.811.583-7.2.991a16.752,16.752,0,0,1-3.961.657,2.131,2.131,0,0,0-1.7.6,1.516,1.516,0,0,1-.815.405A31,31,0,0,0,8.89,73.551a10.472,10.472,0,0,0-3.073,2.355c-1.1,1.292-.9,2.293.033,3.465a7.58,7.58,0,0,0,1.845,1.6,29.787,29.787,0,0,0,8.618,3.55,41.321,41.321,0,0,0,5.557,1.282c1.463.179,2.893.542,4.385.634,1.719.105,3.451.36,5.172.41a111.318,111.318,0,0,0,12.686-.131m24.38,12.829a1.854,1.854,0,0,0-.344.1,39.567,39.567,0,0,1-10.527,4.145,36.558,36.558,0,0,1-4.333.92c-1.033.132-2.078.5-3.141.62a15.31,15.31,0,0,0-2.3.2,10.866,10.866,0,0,1-2.232.406,64.508,64.508,0,0,1-7.734.375c-1.834-.045-3.682.126-5.506-.02-2.362-.189-4.731-.319-7.087-.635-2.455-.33-4.9-.71-7.305-1.277a49.37,49.37,0,0,1-8.226-2.661c-1.39-.6-2.756-1.222-4.092-1.924-.2-.1-.393-.3-.619-.178s-.16.419-.119.611a15.3,15.3,0,0,1,.136,4.275,5.139,5.139,0,0,0,2.324,4.683,22.423,22.423,0,0,0,7.459,3.364,67.093,67.093,0,0,0,9.546,1.991,59.549,59.549,0,0,0,6.651.71,97.148,97.148,0,0,0,12.632-.1c2.829-.277,5.646-.609,8.444-1.092a51.37,51.37,0,0,0,9-2.294,15.539,15.539,0,0,0,6.093-3.526,3.8,3.8,0,0,0,1.269-2.491c.056-2.033.017-4.068.017-6.191M5.069,88.7h.013c0,.761.023,1.522,0,2.282A3.955,3.955,0,0,0,6.2,93.889a10.971,10.971,0,0,0,3.2,2.318,45.249,45.249,0,0,0,12.749,3.811,66.612,66.612,0,0,0,8.329.948,104.639,104.639,0,0,0,10.81.14c2.467-.119,4.911-.421,7.347-.739a72.015,72.015,0,0,0,10.17-2.056,19.538,19.538,0,0,0,7.777-3.769,4.663,4.663,0,0,0,1.9-3.448c.033-1.718,0-3.438.017-5.155.005-.544-.13-.661-.6-.328a19.548,19.548,0,0,1-4.208,2.153,59.84,59.84,0,0,1-11.415,3.045,74.18,74.18,0,0,1-10.793,1.119,109.264,109.264,0,0,1-11.42-.129c-2.771-.213-5.541-.42-8.279-.906-5.655-1-11.22-2.3-16.205-5.333-.5-.3-.506,0-.507.349,0,.929,0,1.86,0,2.789m63.41,24.944a38.975,38.975,0,0,1-10.7,4.339,68.49,68.49,0,0,1-9.909,1.9,66.135,66.135,0,0,1-7.526.611c-3.18.005-6.366.146-9.543-.15-1.5-.14-3.027-.136-4.518-.358-3.046-.453-6.1-.875-9.094-1.63a45.107,45.107,0,0,1-11.438-4.309c-.6-.341-.7-.212-.693.4.023,1.634.088,3.272,0,4.9A4.023,4.023,0,0,0,6.788,122.9a19.285,19.285,0,0,0,4.873,2.686,52.2,52.2,0,0,0,11.4,3,63.663,63.663,0,0,0,7.932.86,94.664,94.664,0,0,0,17.034-.6,79.9,79.9,0,0,0,9.516-1.829,26.408,26.408,0,0,0,8.51-3.615c1.191-.843,2.339-1.811,2.405-3.4.088-2.073.022-4.153.022-6.362M58.18,140.3c.507.408.91.678,1.248,1.013q4.443,4.415,8.873,8.841c.123.123.134.423.377.358.3-.077.191-.352.192-.566,0-3.069,0-6.139.021-9.209,0-.516-.142-.668-.672-.664-2.854.025-5.708,0-8.561.016a2.891,2.891,0,0,0-1.478.211" transform="translate(0 0)"/>
    <path id="Trazado_704716" data-name="Trazado 704716" d="M61.82,68.57c.206-.079.231.061.233.2s-.019.282-.227.212a.35.35,0,0,1-.005-.415" transform="translate(-19.858 -22.042)" fill="#3591bb"/>
    <path id="Trazado_704717" data-name="Trazado 704717" d="M80.553,13.743c.026-1.1.109-2.2.066-3.294A2.788,2.788,0,0,1,83.55,7.443c.676-.041,1.356-.026,2.034-.026l105.138.012a3.5,3.5,0,0,1,2.968,1.022,3.407,3.407,0,0,1,.731,2.221c.054,1.576.039,3.155.039,4.732q.007,68.335.012,136.669c0,1.27.008,2.516-.979,3.545a2.871,2.871,0,0,1-2.145.919q-9.072.046-18.144.037-35.569.005-71.138,0a10.962,10.962,0,0,0-1.524.037c-.63.088-.751-.158-.748-.735.021-4.366.049-8.734-.014-13.1a6.715,6.715,0,0,0-.592-3.3,4.267,4.267,0,0,0-4.029-2.015c-4.578-.05-9.157-.014-13.736-.023-.41,0-.934.187-.962-.577-.043-1.18.142-1.653.83-1.784a39,39,0,0,0,10.719-3.523c2.3-1.189,4.529-2.5,6.032-4.751a8.382,8.382,0,0,0,1.377-4.754c.02-13.523,0-27.047.006-40.57a10.507,10.507,0,0,0-.566-4.186,10.386,10.386,0,0,0-3.224-4.026,24.429,24.429,0,0,0-8.056-3.989c-2.056-.6-4.084-1.282-6.191-1.68-.649-.122-.834-.446-.815-1.1.052-1.745.066-3.494.007-5.239-.024-.742.159-.925.916-.924q37.477.034,74.953.037a7.561,7.561,0,0,0,6.388-2.938,7.183,7.183,0,0,0,1.55-4.47q.02-15.718-.027-31.437a7.217,7.217,0,0,0-4.458-6.879,7.019,7.019,0,0,0-3.029-.582H83.106c-.565,0-1.131,0-1.695.035a.983.983,0,0,1-.843-.275l.03-.052Zm66.221,106.8q17.461,0,34.922.008a5.216,5.216,0,0,0,1.479-.2,2.19,2.19,0,0,0,1.734-2.446,2.134,2.134,0,0,0-1.9-2.278,7.375,7.375,0,0,0-1.583-.147l-69.082-.007c-.226,0-.453,0-.678.007a2.4,2.4,0,0,0-2.317,3.357c.418,1.191,1.195,1.7,2.845,1.7q17.292.005,34.584,0m.1,22.315q17.382,0,34.763.007a5.441,5.441,0,0,0,1.482-.181,2.193,2.193,0,0,0,1.794-2.4,2.155,2.155,0,0,0-1.931-2.338,7.764,7.764,0,0,0-1.414-.147l-69.271,0c-.226,0-.453,0-.678.01a2.387,2.387,0,0,0-2.278,3.319,2.854,2.854,0,0,0,2.855,1.759c11.559-.037,23.118-.02,34.678-.02m.105-33.489v-.007q12.755,0,25.51,0,5,0,10-.015a2.655,2.655,0,0,0,2.439-2.192,2.422,2.422,0,0,0-1.508-2.55,5.627,5.627,0,0,0-1.879-.3q-34.409.011-68.819.006c-.2,0-.4-.012-.593,0-1.656.121-3.09.865-2.833,2.925a2.689,2.689,0,0,0,2.259,2.128q17.712,0,35.425,0m-.2,22.317q17.294,0,34.587,0a5.77,5.77,0,0,0,2.2-.341,2.441,2.441,0,0,0-.265-4.5,10.2,10.2,0,0,0-1.819-.228q-34.375.022-68.752.013c-.226,0-.454-.017-.678.005-1.86.189-3,1-2.744,3a2.817,2.817,0,0,0,2.209,2.054q17.632,0,35.265,0m-6.637-35.8a2.231,2.231,0,0,0,1.2,1.906A2.077,2.077,0,0,0,144,97.661a3.357,3.357,0,0,0,1.056-1.489c2.1-5.214,4.2-10.424,6.282-15.647Q152.727,77.034,154,73.5a2.311,2.311,0,0,0-1.269-2.725,2.276,2.276,0,0,0-3.075.707,15.933,15.933,0,0,0-1.685,3.83c-.744,1.96-1.567,3.891-2.351,5.836-.585,1.452-1.15,2.913-1.75,4.359-.541,1.3-1.067,2.617-1.6,3.922-.459,1.121-.9,2.259-1.328,3.4a8.553,8.553,0,0,0-.8,3.048m-8.432,1.166a2.656,2.656,0,0,0,2.536-3.246,5.723,5.723,0,0,0-.584-.9c-1.491-2.569-2.984-5.138-4.544-7.666a1.6,1.6,0,0,1,.02-2.118,4.285,4.285,0,0,0,.366-.553c1.424-2.381,2.886-4.74,4.244-7.158a2.206,2.206,0,0,0,.109-2.593,2.434,2.434,0,0,0-2.185-1.147c-.881.039-1.552.069-2.1.984-.687,1.155-1.514,2.278-2.117,3.45-1.05,2.04-2.405,3.881-3.5,5.886-.639,1.17-1.138,2.183-.362,3.479,2.049,3.424,3.849,6.993,6.031,10.339a2.384,2.384,0,0,0,2.083,1.246m28.3-2.925a2.891,2.891,0,0,0,1.088,2.47,2.527,2.527,0,0,0,3.655-.957c1.1-1.892,2.291-3.731,3.336-5.652a53.924,53.924,0,0,0,2.793-5.187,2.186,2.186,0,0,0-.175-2.048c-1.688-2.492-3.037-5.184-4.683-7.7-.548-.837-1.067-1.7-1.625-2.53a2.628,2.628,0,0,0-3.78-.189,2.725,2.725,0,0,0,0,3.435q2.385,3.914,4.761,7.833a.714.714,0,0,1,0,.964,12.667,12.667,0,0,0-1.357,2.229c-.833,1.689-1.942,3.207-2.774,4.885-.454.916-1.187,1.71-1.238,2.446" transform="translate(-25.871 -2.384)" fill="#fbfbfb"/>
    <path id="Trazado_704718" data-name="Trazado 704718" d="M112.486,60.817q-20.051,0-40.1,0a5.31,5.31,0,0,1-1.6-.126A2.078,2.078,0,0,1,69.234,58.8c-.027-.364-.016-.732-.016-1.1q0-14.748,0-29.5c0-.366,0-.733.007-1.1a2.212,2.212,0,0,1,2.314-2.434c.337-.028.678-.017,1.017-.017q39.848,0,79.7,0a6.041,6.041,0,0,1,2.35.427c1.02.434,1.112,1.474,1.114,2.419q.028,15.466.011,30.933c0,1.533-.788,2.3-2.379,2.339-1.921.043-3.843.042-5.764.043q-17.551.005-35.1,0m2.689-30.388a7.75,7.75,0,0,0-3.484.482,12.473,12.473,0,0,0-7.525,17.258,12.833,12.833,0,0,0,12.587,6.938,13.525,13.525,0,0,0,4.96-1.645c.465-.251.644-.2.961.076a14.467,14.467,0,0,0,1.366,1.115,2.463,2.463,0,0,0,3.034-.178,2.654,2.654,0,0,0,.65-2.832,5.146,5.146,0,0,0-1.358-1.7.745.745,0,0,1-.183-1.037,14.151,14.151,0,0,0,1.484-3.965,8.953,8.953,0,0,0,.116-4.048,14.588,14.588,0,0,0-1.948-4.822,12.861,12.861,0,0,0-6.371-5.122,8.942,8.942,0,0,0-4.288-.517M97.038,34.883a2.357,2.357,0,0,0-1.174-2.2,11.344,11.344,0,0,0-9.645-2.029,6.73,6.73,0,0,0-4.65,4.031,6.175,6.175,0,0,0,.792,6.514,7.582,7.582,0,0,0,3.512,2.4,51.44,51.44,0,0,1,5.785,2.512c1.422.849,1.245,2.477-.281,3.436-1.8,1.133-5.708.162-7.013-1.428a2.832,2.832,0,0,0-3.3-.514,2.324,2.324,0,0,0-.667,3.433,9.236,9.236,0,0,0,3.155,2.67,11.765,11.765,0,0,0,5.558,1.5,8.831,8.831,0,0,0,6.054-2.124,7.051,7.051,0,0,0,2.674-5.667A6.683,6.683,0,0,0,95,42.2c-1.7-1.312-3.745-1.892-5.683-2.7-.826-.343-1.675-.637-2.472-1.037a1.192,1.192,0,0,1-.38-2.094c.97-1.1,2.269-.993,3.537-.844a9.111,9.111,0,0,1,3.427,1.528,2.371,2.371,0,0,0,3.611-2.175m35.975,8.132h-.022q0,4.772,0,9.543a2.708,2.708,0,0,0,2.342,2.522,65.5,65.5,0,0,0,7.281.013,2.473,2.473,0,0,0,2.4-2.78c-.18-1.341-.994-2.132-2.676-2.24a26.541,26.541,0,0,0-3.3.035c-.768.047-.984-.254-.967-.975.046-1.969.049-3.938.052-5.908,0-3.406.058-6.814-.033-10.218-.052-1.978-.967-2.48-2.426-2.609a2.4,2.4,0,0,0-2.609,2.4,9.674,9.674,0,0,0-.036,1.1q0,4.561,0,9.122" transform="translate(-22.257 -7.927)" fill="#ad84ff"/>
    <path id="Trazado_704719" data-name="Trazado 704719" d="M46.516,119.075a111.475,111.475,0,0,1-12.686.131c-1.721-.05-3.453-.3-5.172-.41-1.492-.091-2.921-.454-4.385-.633a41.219,41.219,0,0,1-5.557-1.283A29.766,29.766,0,0,1,10.1,113.33a7.58,7.58,0,0,1-1.845-1.6c-.938-1.172-1.131-2.173-.033-3.465a10.472,10.472,0,0,1,3.073-2.355,31,31,0,0,1,5.133-2.149,1.516,1.516,0,0,0,.815-.405,2.131,2.131,0,0,1,1.7-.6,16.753,16.753,0,0,0,3.961-.657c2.392-.408,4.784-.758,7.2-.991.974-.094,1.994-.24,2.959-.343,1-.107,2.1-.064,3.148-.095a81.908,81.908,0,0,1,8.962.179,77.267,77.267,0,0,1,10.751,1.427c2.272.508,4.541,1,6.752,1.733a23.385,23.385,0,0,1,5.531,2.6,7.787,7.787,0,0,1,2.018,1.787,2.329,2.329,0,0,1-.085,3.353,11.372,11.372,0,0,1-3.831,2.725,45.828,45.828,0,0,1-11.815,3.584,77.5,77.5,0,0,1-7.976,1.026" transform="translate(-2.402 -32.355)" fill="#d3e6ff"/>
    <path id="Trazado_704720" data-name="Trazado 704720" d="M70.807,146.732c0,2.124.039,4.16-.017,6.191a3.8,3.8,0,0,1-1.269,2.491,15.549,15.549,0,0,1-6.093,3.527,51.443,51.443,0,0,1-9,2.294c-2.8.483-5.615.815-8.444,1.092a97.031,97.031,0,0,1-12.632.1,59.554,59.554,0,0,1-6.651-.709,67.191,67.191,0,0,1-9.546-1.991,22.432,22.432,0,0,1-7.46-3.364,5.139,5.139,0,0,1-2.323-4.683,15.3,15.3,0,0,0-.136-4.275c-.041-.192-.117-.48.119-.61s.422.074.619.177c1.336.7,2.7,1.326,4.092,1.924a49.372,49.372,0,0,0,8.226,2.662c2.4.568,4.85.948,7.305,1.277,2.356.316,4.725.446,7.087.635,1.824.147,3.671-.025,5.506.02a64.367,64.367,0,0,0,7.734-.375,10.865,10.865,0,0,0,2.232-.406,15.4,15.4,0,0,1,2.3-.2c1.063-.124,2.109-.488,3.141-.619a36.7,36.7,0,0,0,4.333-.921,39.544,39.544,0,0,0,10.527-4.145,1.972,1.972,0,0,1,.344-.1" transform="translate(-2.313 -47.183)" fill="#89bad4"/>
    <path id="Trazado_704721" data-name="Trazado 704721" d="M7.472,129.187c0-.929,0-1.86,0-2.789,0-.351.008-.653.507-.349,4.985,3.033,10.55,4.33,16.206,5.333,2.738.486,5.508.693,8.279.906a109.246,109.246,0,0,0,11.419.129A74.178,74.178,0,0,0,54.677,131.3a59.859,59.859,0,0,0,11.416-3.045A19.543,19.543,0,0,0,70.3,126.1c.474-.333.609-.216.6.328-.016,1.718.016,3.437-.017,5.155a4.661,4.661,0,0,1-1.9,3.448,19.54,19.54,0,0,1-7.776,3.769,72.043,72.043,0,0,1-10.17,2.056c-2.437.318-4.88.62-7.347.74a104.646,104.646,0,0,1-10.81-.14,66.482,66.482,0,0,1-8.329-.949A45.232,45.232,0,0,1,11.807,136.7a10.972,10.972,0,0,1-3.2-2.318,3.955,3.955,0,0,1-1.125-2.91c.028-.759.005-1.521.005-2.282Z" transform="translate(-2.402 -40.489)" fill="#a8cff0"/>
    <path id="Trazado_704722" data-name="Trazado 704722" d="M70.875,167.5c0,2.21.066,4.29-.022,6.363-.066,1.586-1.214,2.554-2.405,3.4a26.391,26.391,0,0,1-8.51,3.615,79.9,79.9,0,0,1-9.516,1.829,94.653,94.653,0,0,1-17.034.6,63.788,63.788,0,0,1-7.932-.86,52.236,52.236,0,0,1-11.4-3,19.276,19.276,0,0,1-4.873-2.687,4.024,4.024,0,0,1-1.726-3.556c.089-1.629.024-3.267,0-4.9-.009-.611.093-.74.693-.4a45.138,45.138,0,0,0,11.438,4.309c3,.755,6.05,1.176,9.1,1.63,1.491.222,3.014.218,4.518.358,3.177.3,6.363.155,9.542.149a66.141,66.141,0,0,0,7.527-.611,68.49,68.49,0,0,0,9.909-1.9,38.986,38.986,0,0,0,10.7-4.339" transform="translate(-2.396 -53.863)" fill="#a8cff0"/>
    <path id="Trazado_704723" data-name="Trazado 704723" d="M85.755,206.69a2.89,2.89,0,0,1,1.478-.211c2.854-.013,5.708.009,8.561-.016.53,0,.676.148.672.664-.024,3.07-.018,6.14-.021,9.209,0,.214.1.489-.192.566-.243.064-.254-.235-.377-.358Q91.432,212.131,87,207.7c-.338-.335-.741-.605-1.248-1.013" transform="translate(-27.575 -66.39)" fill="#def5fd"/>
    <path id="Trazado_704724" data-name="Trazado 704724" d="M80.575,16.742l.045.038-.029.052-.066-.064.05-.026" transform="translate(-25.894 -5.384)" fill="#3591bb"/>
    <path id="Trazado_704725" data-name="Trazado 704725" d="M160.379,171.754q-17.292,0-34.583,0c-1.65,0-2.427-.512-2.845-1.7a2.4,2.4,0,0,1,2.317-3.357c.226-.012.452-.007.678-.007l69.082.007a7.41,7.41,0,0,1,1.583.147,2.133,2.133,0,0,1,1.9,2.278,2.191,2.191,0,0,1-1.733,2.446,5.265,5.265,0,0,1-1.479.2q-17.461-.016-34.923-.009" transform="translate(-39.477 -53.599)"/>
    <path id="Trazado_704726" data-name="Trazado 704726" d="M160.486,204.645c-11.559,0-23.118-.016-34.678.02a2.853,2.853,0,0,1-2.855-1.758,2.386,2.386,0,0,1,2.278-3.319c.226-.014.453-.01.678-.01l69.271,0a7.709,7.709,0,0,1,1.414.147,2.155,2.155,0,0,1,1.931,2.338,2.193,2.193,0,0,1-1.794,2.4,5.416,5.416,0,0,1-1.482.182q-17.381-.014-34.763-.007" transform="translate(-39.486 -64.176)"/>
    <path id="Trazado_704727" data-name="Trazado 704727" d="M160.631,155.287q-17.712,0-35.425,0a2.689,2.689,0,0,1-2.259-2.127c-.257-2.06,1.177-2.8,2.833-2.925.2-.015.4,0,.593,0q34.409,0,68.819-.005a5.609,5.609,0,0,1,1.879.3,2.423,2.423,0,0,1,1.508,2.551,2.655,2.655,0,0,1-2.439,2.191q-5,.016-10,.016-12.754,0-25.51,0Z" transform="translate(-39.525 -48.307)"/>
    <path id="Trazado_704728" data-name="Trazado 704728" d="M160.438,188.178H125.173a2.817,2.817,0,0,1-2.209-2.054c-.256-1.993.884-2.809,2.744-3a6.637,6.637,0,0,1,.678-.006q34.375,0,68.752-.013a10.324,10.324,0,0,1,1.819.228,2.441,2.441,0,0,1,.265,4.506,5.8,5.8,0,0,1-2.2.341q-17.294-.01-34.587,0" transform="translate(-39.529 -58.88)"/>
    <path id="Trazado_704729" data-name="Trazado 704729" d="M168.432,125.763a8.554,8.554,0,0,1,.8-3.048c.425-1.14.868-2.278,1.328-3.4.534-1.305,1.06-2.617,1.6-3.922.6-1.446,1.164-2.907,1.75-4.359.784-1.945,1.606-3.876,2.35-5.836a15.987,15.987,0,0,1,1.685-3.83,2.278,2.278,0,0,1,3.076-.707,2.311,2.311,0,0,1,1.269,2.725q-1.273,3.533-2.666,7.024c-2.077,5.223-4.184,10.433-6.282,15.648a3.359,3.359,0,0,1-1.056,1.488,2.077,2.077,0,0,1-2.659.122,2.231,2.231,0,0,1-1.2-1.906" transform="translate(-54.16 -32.271)"/>
    <path id="Trazado_704730" data-name="Trazado 704730" d="M151.972,127.49a2.383,2.383,0,0,1-2.084-1.246c-2.183-3.346-3.982-6.915-6.031-10.339-.775-1.3-.277-2.309.362-3.478,1.1-2,2.45-3.847,3.5-5.887.6-1.172,1.43-2.294,2.117-3.45.545-.916,1.216-.946,2.1-.984a2.435,2.435,0,0,1,2.185,1.147,2.207,2.207,0,0,1-.109,2.594c-1.358,2.417-2.82,4.777-4.244,7.158a4.31,4.31,0,0,1-.366.553,1.6,1.6,0,0,0-.02,2.118c1.56,2.527,3.054,5.1,4.544,7.665a5.656,5.656,0,0,1,.585.9,2.656,2.656,0,0,1-2.536,3.246" transform="translate(-46.132 -32.832)"/>
    <path id="Trazado_704731" data-name="Trazado 704731" d="M197.725,124.544c.051-.736.784-1.53,1.238-2.446.832-1.678,1.941-3.2,2.774-4.885a12.666,12.666,0,0,1,1.357-2.229.714.714,0,0,0,0-.964q-2.377-3.919-4.761-7.833a2.725,2.725,0,0,1,0-3.435,2.628,2.628,0,0,1,3.78.189c.558.834,1.077,1.693,1.625,2.53,1.646,2.515,2.995,5.207,4.683,7.7a2.186,2.186,0,0,1,.175,2.048A53.921,53.921,0,0,1,205.8,120.4c-1.045,1.921-2.238,3.76-3.336,5.652a2.527,2.527,0,0,1-3.655.957,2.891,2.891,0,0,1-1.088-2.47" transform="translate(-63.581 -32.811)"/>
    <path id="Trazado_704732" data-name="Trazado 704732" d="M131.159,33.133a8.943,8.943,0,0,1,4.288.517,12.856,12.856,0,0,1,6.371,5.122,14.593,14.593,0,0,1,1.948,4.822,8.972,8.972,0,0,1-.116,4.048,14.148,14.148,0,0,1-1.484,3.965.745.745,0,0,0,.184,1.037,5.163,5.163,0,0,1,1.358,1.7,2.657,2.657,0,0,1-.65,2.832,2.463,2.463,0,0,1-3.035.178,14.479,14.479,0,0,1-1.365-1.115c-.318-.28-.5-.327-.961-.076a13.528,13.528,0,0,1-4.96,1.645,12.833,12.833,0,0,1-12.588-6.938,12.473,12.473,0,0,1,7.525-17.258,7.742,7.742,0,0,1,3.485-.482m7.472,12.507a6.615,6.615,0,0,0-2.431-5.6,7.291,7.291,0,0,0-8.52-.952,6.8,6.8,0,0,0-3.5,4.97A7.166,7.166,0,0,0,126,50.572c2.121,2.28,4.941,2.592,7.908,1.857.716-.177.551-.478.224-.86-.366-.426-.752-.836-1.119-1.262a2.056,2.056,0,0,1-.25-2.421,2.449,2.449,0,0,1,2.21-1.451,3.435,3.435,0,0,1,2.581,1.4c.166.164.294.489.59.372.253-.1.252-.411.318-.652a5.193,5.193,0,0,0,.167-1.916" transform="translate(-38.241 -10.63)"/>
    <path id="Trazado_704733" data-name="Trazado 704733" d="M102.105,37.577a2.371,2.371,0,0,1-3.611,2.175,9.111,9.111,0,0,0-3.427-1.528c-1.267-.149-2.567-.258-3.537.844a1.192,1.192,0,0,0,.381,2.094c.8.4,1.647.693,2.472,1.037,1.939.805,3.982,1.385,5.684,2.7A6.685,6.685,0,0,1,102.9,50.1a7.053,7.053,0,0,1-2.674,5.667,8.831,8.831,0,0,1-6.054,2.124,11.763,11.763,0,0,1-5.558-1.5,9.236,9.236,0,0,1-3.155-2.67,2.325,2.325,0,0,1,.666-3.433,2.833,2.833,0,0,1,3.3.514c1.3,1.59,5.21,2.561,7.013,1.428,1.526-.959,1.7-2.588.281-3.436A51.439,51.439,0,0,0,90.94,46.29a7.579,7.579,0,0,1-3.512-2.4,6.174,6.174,0,0,1-.792-6.514,6.73,6.73,0,0,1,4.649-4.031,11.345,11.345,0,0,1,9.645,2.029,2.36,2.36,0,0,1,1.174,2.2" transform="translate(-27.324 -10.621)"/>
    <path id="Trazado_704734" data-name="Trazado 704734" d="M163.24,45.734q0-4.561,0-9.122a9.671,9.671,0,0,1,.036-1.1,2.4,2.4,0,0,1,2.609-2.4c1.459.13,2.374.631,2.426,2.609.091,3.4.037,6.812.033,10.218,0,1.97-.005,3.939-.052,5.908-.017.721.2,1.022.967.975a26.542,26.542,0,0,1,3.3-.035c1.682.107,2.5.9,2.676,2.24a2.473,2.473,0,0,1-2.4,2.78,65.5,65.5,0,0,1-7.281-.013,2.708,2.708,0,0,1-2.342-2.522q0-4.772,0-9.543Z" transform="translate(-52.484 -10.646)"/>
    <path id="Trazado_704735" data-name="Trazado 704735" d="M141.044,48.049a5.193,5.193,0,0,1-.167,1.916c-.066.241-.065.552-.318.652-.3.117-.425-.208-.59-.372a3.435,3.435,0,0,0-2.581-1.4,2.449,2.449,0,0,0-2.21,1.451,2.056,2.056,0,0,0,.25,2.421c.366.426.753.836,1.119,1.262.327.382.492.683-.224.86-2.967.735-5.786.423-7.908-1.857a7.166,7.166,0,0,1-1.823-6.518,6.8,6.8,0,0,1,3.5-4.97,7.291,7.291,0,0,1,8.52.952,6.615,6.615,0,0,1,2.431,5.6" transform="translate(-40.654 -13.04)" fill="#ad84ff"/>
  </g>
</svg>
