<svg xmlns="http://www.w3.org/2000/svg" xmlns:xlink="http://www.w3.org/1999/xlink" width="157.65" height="157.372" viewBox="0 0 157.65 157.372">
  <defs>
    <clipPath id="clip-path">
      <rect id="Rectángulo_348073" data-name="Rectángulo 348073" width="157.65" height="157.372" fill="none"/>
    </clipPath>
  </defs>
  <g id="Grupo_996323" data-name="Grupo 996323" transform="translate(-50.158 -19.667)">
    <g id="Grupo_996326" data-name="Grupo 996326" transform="translate(50.158 19.667)">
      <g id="Grupo_996325" data-name="Grupo 996325" clip-path="url(#clip-path)">
        <path id="Trazado_704746" data-name="Trazado 704746" d="M118.244,127.264a31.4,31.4,0,0,1-9.658,5.046,33.068,33.068,0,0,1-30.789-5.3,2.08,2.08,0,0,0-1.225-.385q-21.773-.012-43.545.017-14.86.009-29.719.008c-2.262,0-3.306-1.031-3.306-3.291Q0,63.318,0,3.281C0,.994,1.008,0,3.3,0q2.98,0,5.959,0c2.243,0,3.14.883,3.14,3.114q0,27.415,0,54.831,0,27.813.015,55.627c0,.178.026.356.044.59H67.7c-.286-.766-.584-1.511-.843-2.268-.3-.875-.619-1.748-.83-2.646-.129-.55-.35-.711-.9-.708-4.4.022-8.794.013-13.191.011-2.2,0-3.165-.919-3.165-3.126q0-25.628.024-51.255c0-2.2.97-3.131,3.175-3.135q7.589-.012,15.177-.006c2.09,0,3.082,1.013,3.084,3.155q.008,13.867.006,27.733c0,.155.015.31.027.559.153-.1.279-.147.334-.235a34.462,34.462,0,0,1,8.168-8.482,1.618,1.618,0,0,0,.519-1.115c.033-3.919.007-7.84.013-11.76,0-2.013.938-2.972,2.965-3,1.96-.031,3.92-.005,5.88-.007,3.2,0,6.41-.015,9.615-.013,1.984,0,2.97.989,2.976,2.982q.009,3.02-.017,6.04c0,.406.005.721.541.765a33.181,33.181,0,0,1,8.451,1.888c.027-.432.07-.81.07-1.188q-.011-17.522-.031-35.043c0-.238.01-.477.02-.714.1-2.264.982-3.133,3.271-3.138q7.589-.021,15.177,0c2.093.005,3.034.989,3.034,3.106q-.011,31.031-.01,62.063c0,1.507.135,3.014.234,4.519a32.933,32.933,0,0,1-2.494,14.185c-.1.258-.184.523-.316.9h.815c2.939-.012,5.879-.032,8.82-.029a6.566,6.566,0,0,1,1.574.156,2.437,2.437,0,0,1,1.9,2.433q.026,3.536.008,7.072c-.005,1.155-.339,1.686-1.5,2.607.859.91,1.69,1.863,2.595,2.74,4.375,4.236,8.8,8.425,13.145,12.688a5.254,5.254,0,0,1,.23,7.4c-2.1,2.309-4.3,4.543-6.551,6.7-2.065,1.979-5.138,1.8-7.366-.344-2.462-2.369-4.854-4.81-7.308-7.187-2.948-2.856-5.908-5.7-8.906-8.506-1.859-1.738-2.624-3.723-1.8-6.216a.806.806,0,0,0-.147-.686c-1.934-1.92-3.892-3.815-5.918-5.788M98.011,72.5a28.3,28.3,0,0,0-28.058,28.263c-.037,15.468,12.652,27.658,27.42,28.19A28.233,28.233,0,1,0,98.011,72.5M64.988,103.436c0-1.629-.028-3.182.008-4.734.034-1.454.2-2.907.2-4.361q.028-18.747.027-37.5c0-.642-.183-.8-.811-.794-2.912.041-5.825.036-8.737.036-1.873,0-1.847-.007-1.849,1.845q-.011,22.4-.038,44.8c0,.226.031.454.048.7ZM114.882,34.6c-.016.223-.04.4-.04.582q-.008,13.387-.013,26.774c0,3.019-.01,6.038-.066,9.056a1.32,1.32,0,0,0,.7,1.343,31.47,31.47,0,0,1,9.911,9.245c.211.309.437.609.792,1.1.036-.68.078-1.117.078-1.555q-.012-10.169-.034-20.338-.014-12.752,0-25.5c0-.566-.127-.792-.748-.785-3.31.032-6.62.02-9.93.027-.205,0-.41.033-.648.053M5.12,121.544H72.109c-.683-1.776-1.4-2.281-3.149-2.251-.212,0-.424.007-.635.007q-28.92.007-57.84.01a5.452,5.452,0,0,1-.79-.059,2.5,2.5,0,0,1-2.331-2.559c-.041-.819-.024-1.641-.024-2.462q0-52.757-.006-105.515c0-1.033.036-2.066,0-3.1-.007-.212-.233-.575-.39-.595A15.561,15.561,0,0,0,5.12,5Zm130.374,7.537c-2.052,2.014-4.021,3.972-6.022,5.894-.5.482-.5.778.012,1.267q8.218,7.885,16.4,15.81c.107.1.245.171.2.138,2.009-1.926,3.963-3.787,5.9-5.663.8-.773.8-.806-.02-1.607q-4.5-4.374-9.012-8.723c-2.478-2.384-4.973-4.749-7.454-7.116M95.72,62.915c-3.741,0-7.31,0-10.879,0-.415,0-.537.172-.534.579.018,2.169.008,4.338.015,6.507a1.435,1.435,0,0,0,.107.368,22.611,22.611,0,0,1,2.784-1.052c2.616-.62,5.257-1.135,7.883-1.715.227-.05.591-.263.6-.411.045-1.394.027-2.791.027-4.273m26.385,61.008,5.724,5.548,1.847-1.93-5.79-5.6-1.781,1.98m6.669-4.563c.585.652,1.14,1.29,1.722,1.9a.871.871,0,0,0,.547.273c1.865.02,3.73.012,5.593.012v-2.188Z" transform="translate(0 0)"/>
        <path id="Trazado_704747" data-name="Trazado 704747" d="M132.029,24.86c-6.114,6.2-12.2,12.43-18.369,18.583a2.672,2.672,0,0,0-.866,3.1,7.831,7.831,0,0,1-5.608,9.805,7.959,7.959,0,0,1-9.818-5.667,3.435,3.435,0,0,1-.257-1.151c.084-.834-.307-1.118-1.043-1.35-4.789-1.509-9.562-3.066-14.339-4.613A.8.8,0,0,0,80.7,43.8a7.637,7.637,0,0,1-9.662,2,1.443,1.443,0,0,0-1.811.184q-11.424,8.987-22.9,17.9a3.1,3.1,0,0,1-2.74.924,2.467,2.467,0,0,1-1.293-4.06,7.913,7.913,0,0,1,.957-.833q11.629-9.108,23.272-18.2a.739.739,0,0,0,.269-.939,8.077,8.077,0,0,1,7.272-10.225,7.991,7.991,0,0,1,8.519,7.414.9.9,0,0,0,.761.915q7.217,2.284,14.419,4.619a1.11,1.11,0,0,0,1.366-.362,7.627,7.627,0,0,1,8.436-2.285,1.747,1.747,0,0,0,2.1-.541c5.388-5.437,10.819-10.83,16.234-16.239a31.18,31.18,0,0,0,2.853-3.165c-.956.077-1.911.177-2.869.224a2.473,2.473,0,0,1-2.718-2.686,2.6,2.6,0,0,1,2.386-2.28c2.129-.246,4.264-.434,6.4-.64,1.028-.1,2.057-.186,3.085-.277a2.565,2.565,0,0,1,3.049,2.919c-.226,2.689-.566,5.367-.861,8.05-.066.6-.115,1.213-.225,1.809a2.437,2.437,0,0,1-2.782,2.117A2.509,2.509,0,0,1,132,27.564c0-.526.1-1.053.144-1.579.032-.356.054-.713.08-1.07l-.192-.054M74.649,35.615a3.045,3.045,0,1,0-.066,6.089,3.037,3.037,0,0,0,3.079-3.067,2.977,2.977,0,0,0-3.013-3.022m27.486,12.85a3.015,3.015,0,1,0,6.029.034,3.076,3.076,0,0,0-2.954-3.045,2.9,2.9,0,0,0-3.075,3.011" transform="translate(-15.08 -5.517)"/>
        <path id="Trazado_704748" data-name="Trazado 704748" d="M50.125,130.552q0,7.666,0,15.334c0,2.252-.915,3.172-3.186,3.172q-7.548,0-15.1,0c-2.254,0-3.2-.942-3.2-3.181q.009-15.293.02-30.587c0-.186,0-.371.006-.556a2.627,2.627,0,0,1,2.9-2.85c2.728-.029,5.455-.005,8.183-.007,2.41,0,4.82-.017,7.23-.01,2.147.006,3.111.965,3.115,3.112q.014,7.787,0,15.573h.026m-5.106,13.386a1.389,1.389,0,0,0,.078-.286q-.019-13.07-.033-26.142c0-.521-.191-.608-.651-.6-3.311.024-6.621.041-9.932.019-.623,0-.795.138-.794.791.013,8.529-.01,17.057-.021,25.586,0,.2.037.407.059.637Z" transform="translate(-10.373 -40.507)"/>
        <path id="Trazado_704749" data-name="Trazado 704749" d="M137.722,113.657a28.233,28.233,0,1,1-.638,56.452c-14.769-.531-27.457-12.722-27.42-28.189a28.3,28.3,0,0,1,28.058-28.263m24.8,27.986a24.561,24.561,0,0,0-24.765-24.364c-14.291-.037-24.57,12.35-24.47,24.521.112,13.638,11.127,24.875,24.628,24.691,13.419-.182,24.484-10.256,24.607-24.849" transform="translate(-39.71 -41.154)" fill="#fff"/>
        <path id="Trazado_704750" data-name="Trazado 704750" d="M95.521,135.254H84.37c-.018-.247-.048-.474-.048-.7q.019-22.4.038-44.8c0-1.852-.025-1.844,1.849-1.845,2.913,0,5.825,0,8.737-.036.628-.009.812.152.811.794q-.03,18.747-.027,37.5c0,1.453-.166,2.906-.2,4.361-.036,1.551-.008,3.1-.008,4.734" transform="translate(-30.534 -31.818)" fill="#ad84ff"/>
        <path id="Trazado_704751" data-name="Trazado 704751" d="M180.029,54.194c.238-.02.443-.052.648-.053,3.31-.007,6.621.006,9.93-.027.621-.006.748.219.748.785q-.015,12.752,0,25.5.011,10.169.034,20.339c0,.437-.042.875-.078,1.555-.355-.493-.582-.792-.792-1.1a31.477,31.477,0,0,0-9.911-9.245,1.319,1.319,0,0,1-.7-1.343c.056-3.018.063-6.037.066-9.056q.013-13.387.013-26.774c0-.179.024-.358.04-.582" transform="translate(-65.147 -19.595)" fill="#ad84ff"/>
        <path id="Trazado_704752" data-name="Trazado 704752" d="M8.028,124.373V7.824a15.564,15.564,0,0,1,1.825.028c.158.019.383.383.39.595.034,1.031,0,2.065,0,3.1q0,52.757.006,105.515c0,.821-.018,1.643.024,2.462a2.5,2.5,0,0,0,2.33,2.559,5.465,5.465,0,0,0,.79.059q28.92,0,57.84-.01c.212,0,.424,0,.636-.007,1.746-.03,2.467.475,3.149,2.251Z" transform="translate(-2.907 -2.828)" fill="#fff"/>
        <path id="Trazado_704753" data-name="Trazado 704753" d="M208.779,202.356c2.481,2.367,4.976,4.733,7.454,7.116q4.519,4.347,9.012,8.722c.824.8.82.834.02,1.608-1.939,1.875-3.892,3.736-5.9,5.662.049.034-.09-.035-.2-.137q-8.2-7.907-16.4-15.81c-.51-.49-.513-.786-.012-1.267,2-1.923,3.971-3.88,6.023-5.894" transform="translate(-73.284 -73.274)" fill="#ffc321"/>
        <path id="Trazado_704754" data-name="Trazado 704754" d="M143.579,98.627c0,1.483.018,2.879-.027,4.274,0,.147-.369.36-.6.41-2.626.579-5.267,1.095-7.884,1.715a22.6,22.6,0,0,0-2.784,1.052,1.427,1.427,0,0,1-.107-.368c-.007-2.169,0-4.338-.015-6.507,0-.407.119-.58.534-.579,3.568.006,7.137,0,10.879,0" transform="translate(-47.858 -35.712)" fill="#ad84ff"/>
        <path id="Trazado_704755" data-name="Trazado 704755" d="M191.42,193.145l1.782-1.98,5.789,5.6-1.847,1.93-5.724-5.548" transform="translate(-69.314 -69.222)" fill="#fff"/>
        <path id="Trazado_704756" data-name="Trazado 704756" d="M201.875,187.115h7.862V189.3c-1.863,0-3.728.008-5.593-.012a.871.871,0,0,1-.547-.273c-.582-.612-1.137-1.251-1.722-1.9" transform="translate(-73.1 -67.756)" fill="#fff"/>
        <path id="Trazado_704757" data-name="Trazado 704757" d="M91.618,47.183a2.977,2.977,0,0,1,3.013,3.022,3.037,3.037,0,0,1-3.08,3.066,3.045,3.045,0,1,1,.067-6.089" transform="translate(-32.049 -17.085)" fill="#ffc321"/>
        <path id="Trazado_704758" data-name="Trazado 704758" d="M136.473,65.618a2.9,2.9,0,0,1,3.075-3.011,3.076,3.076,0,0,1,2.954,3.045,3.015,3.015,0,1,1-6.029-.034" transform="translate(-49.418 -22.67)" fill="#ffc321"/>
        <path id="Trazado_704759" data-name="Trazado 704759" d="M47.869,146.8H36.575c-.022-.23-.059-.433-.059-.637.011-8.529.034-17.057.021-25.586,0-.653.171-.8.794-.791,3.311.022,6.621.006,9.932-.019.46,0,.651.083.651.6q0,13.071.033,26.142a1.389,1.389,0,0,1-.078.286" transform="translate(-13.223 -43.368)" fill="#ad84ff"/>
        <path id="Trazado_704760" data-name="Trazado 704760" d="M164.577,143.7c-.123,14.592-11.188,24.666-24.607,24.848-13.5.184-24.516-11.053-24.628-24.692-.1-12.171,10.179-24.558,24.47-24.521A24.56,24.56,0,0,1,164.577,143.7m-24.142,19.8a19.547,19.547,0,1,0-1.157-39.075c-11.825.353-19.036,10.745-18.912,19.646A19.634,19.634,0,0,0,140.434,163.5" transform="translate(-41.766 -43.213)"/>
        <path id="Trazado_704761" data-name="Trazado 704761" d="M143.286,166.38a19.634,19.634,0,0,1-20.069-19.429c-.124-8.9,7.087-19.294,18.912-19.646a19.547,19.547,0,1,1,1.157,39.075" transform="translate(-44.617 -46.094)" fill="#e7ddfb" stroke="#ad84ff" stroke-width="1"/>
      </g>
    </g>
  </g>
</svg>
