<svg id="Grupo_996321" data-name="Grupo 996321" xmlns="http://www.w3.org/2000/svg" xmlns:xlink="http://www.w3.org/1999/xlink" width="183.634" height="183.644" viewBox="0 0 183.634 183.644">
  <defs>
    <clipPath id="clip-path">
      <rect id="Rectángulo_348072" data-name="Rectángulo 348072" width="183.634" height="183.644" fill="none"/>
    </clipPath>
  </defs>
  <g id="Grupo_996320" data-name="Grupo 996320" clip-path="url(#clip-path)">
    <path id="Trazado_704736" data-name="Trazado 704736" d="M61.176,155.991c-19.411-1.534-35.425-9.468-47.482-24.763A61.791,61.791,0,0,1,.042,89.817a62.525,62.525,0,0,1,18.5-42.911c11.7-11.887,25.99-18.037,42.637-19.17V26.658c0-5.834-.009-11.667,0-17.5A8.958,8.958,0,0,1,67.527.549,17.611,17.611,0,0,1,72.062.034Q101.9-.015,131.749.012c4.719,0,9.438.02,14.157-.012A4.74,4.74,0,0,1,149.5,1.458q6.537,6.58,13.111,13.125,9.662,9.677,19.334,19.344A5.363,5.363,0,0,1,183.634,38q-.033,67.709-.024,135.419a10.1,10.1,0,0,1-1.876,6.573,9.809,9.809,0,0,1-8.163,3.633c-6.5.029-13.009.009-19.513.009q-41.466,0-82.932.008c-3.935,0-6.974-1.505-8.92-4.992a9.472,9.472,0,0,1-1.027-4.709q-.014-8.464,0-16.928v-1.023M67.3,88.761H104.06q10.284,0,20.566,0c2.6,0,3.987,1.3,3.867,3.87-.129,2.763-.337,5.535-.741,8.27a62.182,62.182,0,0,1-13.175,30.586,63.075,63.075,0,0,1-21.654,17.7,67.9,67.9,0,0,1-21.5,6.37c-1.346.163-2.7.236-4.12.355v1.028q0,8.464,0,16.928c0,2.656,1.046,3.656,3.722,3.655q51.414-.006,102.827,0c2.611,0,3.639-1,3.639-3.639q0-66.514,0-133.028V39.8h-1.175q-11.287,0-22.574-.006a9.858,9.858,0,0,1-5.243-1.2,9.22,9.22,0,0,1-4.68-8.424q.007-11.428,0-22.857V6.137h-.961q-36.109,0-72.218,0c-2.252,0-3.34,1.091-3.34,3.335q0,39.067,0,78.133v1.156M25.252,134.842a57.37,57.37,0,0,0,24.5,13.257,56.378,56.378,0,0,0,35.361-1.972A57.687,57.687,0,0,0,122.28,94.886h-.843q-27.595,0-55.19.028a2.454,2.454,0,0,0-1.563.655q-11.2,11.114-22.348,22.286c-5.643,5.627-11.3,11.238-17.083,16.987m-4.218-4.14a1.656,1.656,0,0,0,.336-.146q19.58-19.57,39.167-39.134a2.272,2.272,0,0,0,.648-1.794q-.016-27.443-.008-54.885V33.719C38.026,35,15.759,49.78,8.054,76.764c-3.5,12.271-2.478,24.475,2.045,36.369A54.379,54.379,0,0,0,21.034,130.7M149.99,10.515c-.018.17-.041.293-.041.416,0,6.529-.013,13.057,0,19.586a2.914,2.914,0,0,0,3.238,3.167q9.556.007,19.112-.013c.267,0,.534-.038.8-.058l-23.11-23.1" transform="translate(0 0)"/>
    <path id="Trazado_704737" data-name="Trazado 704737" d="M87.691,90.621V89.465q0-39.067,0-78.133C87.692,9.089,88.78,8,91.032,8q36.109,0,72.218,0h.961v1.18q0,11.428,0,22.856a9.22,9.22,0,0,0,4.68,8.424,9.859,9.859,0,0,0,5.243,1.2q11.288.021,22.574.005h1.175v1.061q0,66.514,0,133.028c0,2.639-1.028,3.639-3.639,3.639q-51.413-.01-102.827,0c-2.676,0-3.722-1-3.722-3.656q0-8.464,0-16.928v-1.028c1.417-.12,2.774-.193,4.12-.356a67.879,67.879,0,0,0,21.5-6.37,63.073,63.073,0,0,0,21.654-17.7,62.185,62.185,0,0,0,13.175-30.586c.4-2.735.612-5.507.741-8.269.121-2.569-1.267-3.868-3.867-3.871q-10.283-.012-20.565,0H87.691Zm6.118-39.782q0,11.666,0,23.334c0,2.232-.015,4.463,0,6.694a3.37,3.37,0,0,0,3.47,3.63c.254.015.51.008.765.008h58.919c.223,0,.447.008.669,0,2.25-.111,3.581-1.421,3.494-3.672-.1-2.478-.268-4.962-.578-7.422a62.373,62.373,0,0,0-5.956-20.04A64.3,64.3,0,0,0,97.855,17.184c-2.741-.092-4.045,1.243-4.045,4.009q0,14.823,0,29.645m97.953,94.978c-.252-14.427-11.072-27.585-27.726-27.6-16.471-.014-27.082,13.7-27.351,26.673-.325,15.7,12.284,28.392,27.262,28.332,15.434-.062,27.43-11.719,27.815-27.406M167.339,59.947h24.372V53.94H167.339Zm-.025,18.367h24.37v-6h-24.37Zm24.4,12.373h-24.37V96.7h24.37Z" transform="translate(-20.39 -1.859)" fill="#fff"/>
    <path id="Trazado_704738" data-name="Trazado 704738" d="M32.9,163.589c5.782-5.749,11.44-11.36,17.083-16.987q11.174-11.143,22.348-22.286a2.458,2.458,0,0,1,1.563-.655q27.595-.05,55.19-.028h.843a57.688,57.688,0,0,1-37.166,51.243A56.383,56.383,0,0,1,57.4,176.847a57.362,57.362,0,0,1-24.5-13.257" transform="translate(-7.651 -28.747)" fill="#25ffff"/>
    <path id="Trazado_704739" data-name="Trazado 704739" d="M22.839,140.918A54.368,54.368,0,0,1,11.9,123.349C7.38,111.455,6.355,99.251,9.859,86.98,17.564,60,39.831,45.218,62.981,43.935V44.96q0,27.443.009,54.885a2.272,2.272,0,0,1-.648,1.794q-19.6,19.552-39.168,39.134a1.616,1.616,0,0,1-.335.146" transform="translate(-1.805 -10.216)" fill="#ad84ff" stroke="#ad84ff" stroke-width="1"/>
    <path id="Trazado_704740" data-name="Trazado 704740" d="M195.418,13.7l23.11,23.1c-.263.02-.53.058-.8.058q-9.555.013-19.112.013a2.914,2.914,0,0,1-3.238-3.167c-.018-6.529-.006-13.057,0-19.586,0-.123.024-.246.041-.416" transform="translate(-45.428 -3.186)" fill="#fff"/>
    <path id="Trazado_704741" data-name="Trazado 704741" d="M95.662,53.621q0-14.823,0-29.645c0-2.766,1.3-4.1,4.045-4.009A64.3,64.3,0,0,1,156.45,56.148a62.384,62.384,0,0,1,5.956,20.04c.31,2.46.481,4.943.578,7.422.087,2.252-1.243,3.561-3.494,3.672-.223.012-.446,0-.669,0H99.9c-.256,0-.511.006-.765-.008a3.37,3.37,0,0,1-3.47-3.63c-.018-2.231,0-4.463,0-6.694V53.621m61.278,27.5c-1.425-15.386-7.01-28.757-18.38-39.29a57.012,57.012,0,0,0-36.707-15.686V81.123Z" transform="translate(-22.242 -4.642)"/>
    <path id="Trazado_704742" data-name="Trazado 704742" d="M206.6,179.209c-.385,15.687-12.381,27.343-27.815,27.405-14.979.061-27.588-12.635-27.262-28.332.269-12.969,10.881-26.687,27.351-26.673,16.654.015,27.474,13.172,27.726,27.6M157.63,178.9a21.423,21.423,0,1,0,21.439-21.209A21.106,21.106,0,0,0,157.63,178.9" transform="translate(-35.231 -35.252)"/>
    <rect id="Rectángulo_348069" data-name="Rectángulo 348069" width="24.372" height="6.007" transform="translate(146.949 52.081)"/>
    <rect id="Rectángulo_348070" data-name="Rectángulo 348070" width="24.37" height="6.003" transform="translate(146.924 70.452)"/>
    <rect id="Rectángulo_348071" data-name="Rectángulo 348071" width="24.37" height="6.008" transform="translate(146.959 88.828)"/>
    <path id="Trazado_704743" data-name="Trazado 704743" d="M158.818,83H103.731V28.021a57.012,57.012,0,0,1,36.707,15.686c11.369,10.534,16.954,23.9,18.38,39.29" transform="translate(-24.119 -6.515)" fill="#ffc321"/>
    <path id="Trazado_704744" data-name="Trazado 704744" d="M159.48,180.746A21.423,21.423,0,1,1,181.3,202.312a21.294,21.294,0,0,1-21.822-21.566m31.362-11.215L174.51,185.905l-6.726-6.827c-1.391,1.374-2.777,2.744-4,3.954,2.794,2.879,5.6,5.791,8.433,8.685,1.906,1.95,3.249,1.923,5.187-.02q8.407-8.427,16.828-16.842c.306-.306.6-.626.933-.974l-4.32-4.35" transform="translate(-37.082 -37.095)" fill="#d3e6ff"/>
    <path id="Trazado_704745" data-name="Trazado 704745" d="M192.145,172.559l4.32,4.35c-.333.348-.627.668-.933.974q-8.413,8.422-16.828,16.842c-1.938,1.943-3.281,1.97-5.187.02-2.829-2.894-5.639-5.806-8.433-8.685,1.226-1.21,2.613-2.58,4-3.954l6.726,6.827Z" transform="translate(-38.385 -40.123)"/>
  </g>
</svg>
