<svg xmlns="http://www.w3.org/2000/svg" xmlns:xlink="http://www.w3.org/1999/xlink" width="513" height="286" viewBox="0 0 513 286">
  <defs>
    <clipPath id="clip-path">
      <rect id="Rectángulo_345379" data-name="Rectángulo 345379" width="513" height="286" transform="translate(865 936)" fill="#fff" stroke="#707070" stroke-width="1" opacity="0.55"/>
    </clipPath>
    <clipPath id="clip-path-2">
      <rect id="Rectángulo_345378" data-name="Rectángulo 345378" width="552" height="368" transform="translate(-0.4 -0.267)" fill="none"/>
    </clipPath>
    <clipPath id="clip-path-5">
      <rect id="Rectángulo_345371" data-name="Rectángulo 345371" width="4.943" height="2.299" fill="none"/>
    </clipPath>
    <clipPath id="clip-path-6">
      <rect id="Rectángulo_345369" data-name="Rectángulo 345369" width="222.959" height="197.754" fill="none"/>
    </clipPath>
  </defs>
  <g id="Enmascarar_grupo_991950" data-name="Enmascarar grupo 991950" transform="translate(-865 -936)" clip-path="url(#clip-path)">
    <g id="Grupo_992383" data-name="Grupo 992383" transform="translate(845.4 893.267)">
      <g id="Grupo_992382" data-name="Grupo 992382" transform="translate(0 0)" clip-path="url(#clip-path-2)">
        <g id="Grupo_992381" data-name="Grupo 992381">
          <g id="Grupo_992380" data-name="Grupo 992380" clip-path="url(#clip-path-2)">
            <g id="Grupo_992373" data-name="Grupo 992373" opacity="0">
              <g id="Grupo_992372" data-name="Grupo 992372">
                <g id="Grupo_992371" data-name="Grupo 992371" clip-path="url(#clip-path-2)">
                  <rect id="Rectángulo_345336" data-name="Rectángulo 345336" width="552" height="368" transform="translate(-0.4 -0.267)" fill="#fff"/>
                </g>
              </g>
            </g>
            <path id="Trazado_678400" data-name="Trazado 678400" d="M883.384,543.382c-43.535-11.394,57.53-45.314,29.906-119.551-23.54-63.262-132.565-85.107-152.353-39.825-9.5,21.741-11.946,43.808-138.289,21.748-80.7-14.091-124.91,43.454-95.674,92.8s0,52.405-21.92,84.029,15.491,51.447,15.491,51.447l404.584.512c46.97-41.771,20.435-74.89-41.744-91.164" transform="translate(-439.493 -317.6)" fill="#eff9ff"/>
            <path id="Trazado_678401" data-name="Trazado 678401" d="M829.109,2612.86c-118.248,0-214.107,3.879-214.107,8.665s95.859,8.665,214.107,8.665,214.107-3.88,214.107-8.665-95.859-8.665-214.107-8.665" transform="translate(-542.568 -2305.123)" fill="#06378e"/>
            <rect id="Rectángulo_345338" data-name="Rectángulo 345338" width="2.605" height="63.153" transform="translate(318.448 221.782)" fill="#272737"/>
            <rect id="Rectángulo_345339" data-name="Rectángulo 345339" width="2.605" height="63.153" transform="translate(233.994 208.18)" fill="#272737"/>
            <path id="Trazado_678402" data-name="Trazado 678402" d="M2479.146,2384.146H2407.8a.56.56,0,0,0-.56.56v13.514a.56.56,0,0,0,.56.56h71.343a.56.56,0,0,0,.56-.56v-13.514a.56.56,0,0,0-.56-.56" transform="translate(-2123.724 -2103.346)" fill="#77787b"/>
            <rect id="Rectángulo_345340" data-name="Rectángulo 345340" width="63.153" height="2.605" transform="translate(288.174 295.433)" fill="#272737"/>
            <path id="Trazado_678403" data-name="Trazado 678403" d="M2496.193,2413h-11.526a1.577,1.577,0,0,0-1.577,1.577v4.3a1.577,1.577,0,0,0,1.577,1.577h11.526a1.577,1.577,0,0,0,1.577-1.577v-4.3a1.577,1.577,0,0,0-1.577-1.577" transform="translate(-2190.637 -2128.801)" fill="#939598"/>
            <rect id="Rectángulo_345341" data-name="Rectángulo 345341" width="10.085" height="1.253" transform="translate(294.855 286.131)" fill="#fff"/>
            <rect id="Rectángulo_345342" data-name="Rectángulo 345342" width="10.085" height="1.253" transform="translate(294.855 288.849)" fill="#fff"/>
            <path id="Trazado_678404" data-name="Trazado 678404" d="M2453.3,2413h-1.2a.278.278,0,0,0-.278.278v6.9a.278.278,0,0,0,.278.278h1.2a.278.278,0,0,0,.278-.278v-6.9a.278.278,0,0,0-.278-.278" transform="translate(-2163.047 -2128.801)" fill="#d1d3d4"/>
            <path id="Trazado_678405" data-name="Trazado 678405" d="M2723.823,2429.588a1.775,1.775,0,1,0,1.775,1.775,1.775,1.775,0,0,0-1.775-1.775" transform="translate(-2401.45 -2143.436)" fill="#e92411"/>
            <path id="Trazado_678406" data-name="Trazado 678406" d="M2779.641,2429.588a1.775,1.775,0,1,0,1.775,1.775,1.775,1.775,0,0,0-1.775-1.775" transform="translate(-2450.695 -2143.436)" fill="#e92411"/>
            <path id="Trazado_678407" data-name="Trazado 678407" d="M2835.459,2429.588a1.775,1.775,0,1,0,1.775,1.775,1.775,1.775,0,0,0-1.775-1.775" transform="translate(-2499.939 -2143.436)" fill="#ffd900"/>
            <path id="Trazado_678408" data-name="Trazado 678408" d="M2891.277,2429.588a1.775,1.775,0,1,0,1.775,1.775,1.775,1.775,0,0,0-1.775-1.775" transform="translate(-2549.183 -2143.436)" fill="#ffd900"/>
            <path id="Trazado_678409" data-name="Trazado 678409" d="M2947.1,2429.588a1.775,1.775,0,1,0,1.775,1.775,1.775,1.775,0,0,0-1.775-1.775" transform="translate(-2598.428 -2143.436)" fill="#ffd900"/>
            <path id="Trazado_678410" data-name="Trazado 678410" d="M2383.833,2404.27V2412a1.439,1.439,0,0,0,1.439,1.439h1.318v-10.612h-1.318a1.439,1.439,0,0,0-1.439,1.439" transform="translate(-2103.071 -2119.831)" fill="#939598"/>
            <path id="Trazado_678411" data-name="Trazado 678411" d="M3023.808,2402.831h-1.318v10.612h1.318a1.44,1.44,0,0,0,1.439-1.439v-7.733a1.439,1.439,0,0,0-1.439-1.439" transform="translate(-2666.508 -2119.831)" fill="#939598"/>
            <path id="Trazado_678412" data-name="Trazado 678412" d="M2479.146,2530.517H2407.8a.56.56,0,0,0-.56.56v13.514a.56.56,0,0,0,.56.56h71.343a.56.56,0,0,0,.56-.56v-13.514a.56.56,0,0,0-.56-.56" transform="translate(-2123.724 -2232.478)" fill="#77787b"/>
            <rect id="Rectángulo_345343" data-name="Rectángulo 345343" width="63.153" height="2.605" transform="translate(288.174 312.673)" fill="#272737"/>
            <path id="Trazado_678413" data-name="Trazado 678413" d="M2496.193,2559.368h-11.526a1.577,1.577,0,0,0-1.577,1.577v4.3a1.577,1.577,0,0,0,1.577,1.577h11.526a1.577,1.577,0,0,0,1.577-1.577v-4.3a1.577,1.577,0,0,0-1.577-1.577" transform="translate(-2190.637 -2257.931)" fill="#939598"/>
            <rect id="Rectángulo_345344" data-name="Rectángulo 345344" width="10.085" height="1.253" transform="translate(294.855 303.37)" fill="#fff"/>
            <rect id="Rectángulo_345345" data-name="Rectángulo 345345" width="10.085" height="1.253" transform="translate(294.855 306.088)" fill="#fff"/>
            <path id="Trazado_678414" data-name="Trazado 678414" d="M2453.3,2559.368h-1.2a.278.278,0,0,0-.278.278v6.9a.278.278,0,0,0,.278.278h1.2a.279.279,0,0,0,.278-.278v-6.9a.279.279,0,0,0-.278-.278" transform="translate(-2163.047 -2257.931)" fill="#d1d3d4"/>
            <path id="Trazado_678415" data-name="Trazado 678415" d="M2723.823,2575.959a1.775,1.775,0,1,0,1.775,1.775,1.775,1.775,0,0,0-1.775-1.775" transform="translate(-2401.45 -2272.568)" fill="#ffd900"/>
            <path id="Trazado_678416" data-name="Trazado 678416" d="M2779.641,2575.959a1.775,1.775,0,1,0,1.775,1.775,1.775,1.775,0,0,0-1.775-1.775" transform="translate(-2450.695 -2272.568)" fill="#ffd900"/>
            <path id="Trazado_678417" data-name="Trazado 678417" d="M2835.459,2575.959a1.775,1.775,0,1,0,1.775,1.775,1.775,1.775,0,0,0-1.775-1.775" transform="translate(-2499.939 -2272.568)" fill="#ffd900"/>
            <path id="Trazado_678418" data-name="Trazado 678418" d="M2891.277,2575.959a1.775,1.775,0,1,0,1.775,1.775,1.775,1.775,0,0,0-1.775-1.775" transform="translate(-2549.183 -2272.568)" fill="#ffd900"/>
            <path id="Trazado_678419" data-name="Trazado 678419" d="M2947.1,2575.959a1.775,1.775,0,1,0,1.775,1.775,1.775,1.775,0,0,0-1.775-1.775" transform="translate(-2598.428 -2272.568)" fill="#e92411"/>
            <path id="Trazado_678420" data-name="Trazado 678420" d="M2383.833,2550.641v7.733a1.439,1.439,0,0,0,1.439,1.439h1.318V2549.2h-1.318a1.439,1.439,0,0,0-1.439,1.439" transform="translate(-2103.071 -2248.963)" fill="#939598"/>
            <path id="Trazado_678421" data-name="Trazado 678421" d="M3023.808,2549.2h-1.318v10.612h1.318a1.44,1.44,0,0,0,1.439-1.44v-7.733a1.439,1.439,0,0,0-1.439-1.439" transform="translate(-2666.508 -2248.963)" fill="#939598"/>
            <path id="Trazado_678422" data-name="Trazado 678422" d="M1770.3,2237.775h-71.343a.56.56,0,0,0-.56.56v13.514a.56.56,0,0,0,.56.56H1770.3a.56.56,0,0,0,.56-.56v-13.514a.56.56,0,0,0-.56-.56" transform="translate(-1498.365 -1974.215)" fill="#77787b"/>
            <rect id="Rectángulo_345346" data-name="Rectángulo 345346" width="63.153" height="2.605" transform="translate(204.688 278.194)" fill="#272737"/>
            <path id="Trazado_678423" data-name="Trazado 678423" d="M1787.348,2266.627h-11.526a1.577,1.577,0,0,0-1.577,1.577v4.3a1.577,1.577,0,0,0,1.577,1.577h11.526a1.577,1.577,0,0,0,1.577-1.577v-4.3a1.577,1.577,0,0,0-1.577-1.577" transform="translate(-1565.278 -1999.669)" fill="#939598"/>
            <rect id="Rectángulo_345347" data-name="Rectángulo 345347" width="10.085" height="1.253" transform="translate(211.369 268.892)" fill="#fff"/>
            <rect id="Rectángulo_345348" data-name="Rectángulo 345348" width="10.085" height="1.253" transform="translate(211.369 271.61)" fill="#fff"/>
            <path id="Trazado_678424" data-name="Trazado 678424" d="M1744.453,2266.627h-1.2a.278.278,0,0,0-.278.278v6.9a.278.278,0,0,0,.278.278h1.2a.278.278,0,0,0,.278-.278v-6.9a.278.278,0,0,0-.278-.278" transform="translate(-1537.688 -1999.669)" fill="#d1d3d4"/>
            <path id="Trazado_678425" data-name="Trazado 678425" d="M2014.977,2283.218a1.775,1.775,0,1,0,1.775,1.775,1.775,1.775,0,0,0-1.775-1.775" transform="translate(-1776.091 -2014.306)" fill="#e92411"/>
            <path id="Trazado_678426" data-name="Trazado 678426" d="M2070.8,2283.218a1.775,1.775,0,1,0,1.775,1.775,1.775,1.775,0,0,0-1.775-1.775" transform="translate(-1825.336 -2014.306)" fill="#e92411"/>
            <path id="Trazado_678427" data-name="Trazado 678427" d="M2126.614,2283.218a1.775,1.775,0,1,0,1.775,1.775,1.775,1.775,0,0,0-1.775-1.775" transform="translate(-1874.58 -2014.306)" fill="#ffd900"/>
            <path id="Trazado_678428" data-name="Trazado 678428" d="M2182.432,2283.218a1.775,1.775,0,1,0,1.775,1.775,1.775,1.775,0,0,0-1.775-1.775" transform="translate(-1923.824 -2014.306)" fill="#ffd900"/>
            <path id="Trazado_678429" data-name="Trazado 678429" d="M2238.251,2283.218a1.775,1.775,0,1,0,1.775,1.775,1.775,1.775,0,0,0-1.775-1.775" transform="translate(-1973.069 -2014.306)" fill="#fff"/>
            <path id="Trazado_678430" data-name="Trazado 678430" d="M1674.988,2257.9v7.733a1.44,1.44,0,0,0,1.439,1.44h1.318V2256.46h-1.318a1.439,1.439,0,0,0-1.439,1.439" transform="translate(-1477.712 -1990.699)" fill="#939598"/>
            <path id="Trazado_678431" data-name="Trazado 678431" d="M2314.963,2256.459h-1.318v10.612h1.318a1.439,1.439,0,0,0,1.439-1.439V2257.9a1.439,1.439,0,0,0-1.439-1.439" transform="translate(-2041.149 -1990.698)" fill="#939598"/>
            <path id="Trazado_678432" data-name="Trazado 678432" d="M1770.3,2384.146h-71.343a.56.56,0,0,0-.56.56v13.514a.56.56,0,0,0,.56.56H1770.3a.56.56,0,0,0,.56-.56v-13.514a.56.56,0,0,0-.56-.56" transform="translate(-1498.365 -2103.346)" fill="#77787b"/>
            <rect id="Rectángulo_345349" data-name="Rectángulo 345349" width="63.153" height="2.605" transform="translate(204.688 295.433)" fill="#272737"/>
            <path id="Trazado_678433" data-name="Trazado 678433" d="M1787.348,2413h-11.526a1.577,1.577,0,0,0-1.577,1.577v4.3a1.577,1.577,0,0,0,1.577,1.577h11.526a1.577,1.577,0,0,0,1.577-1.577v-4.3a1.577,1.577,0,0,0-1.577-1.577" transform="translate(-1565.278 -2128.801)" fill="#939598"/>
            <rect id="Rectángulo_345350" data-name="Rectángulo 345350" width="10.085" height="1.253" transform="translate(211.369 286.131)" fill="#fff"/>
            <rect id="Rectángulo_345351" data-name="Rectángulo 345351" width="10.085" height="1.253" transform="translate(211.369 288.849)" fill="#fff"/>
            <path id="Trazado_678434" data-name="Trazado 678434" d="M1744.453,2413h-1.2a.278.278,0,0,0-.278.278v6.9a.278.278,0,0,0,.278.278h1.2a.278.278,0,0,0,.278-.278v-6.9a.278.278,0,0,0-.278-.278" transform="translate(-1537.688 -2128.801)" fill="#d1d3d4"/>
            <path id="Trazado_678435" data-name="Trazado 678435" d="M2014.977,2429.588a1.775,1.775,0,1,0,1.775,1.775,1.776,1.776,0,0,0-1.775-1.775" transform="translate(-1776.091 -2143.436)" fill="#e92411"/>
            <path id="Trazado_678436" data-name="Trazado 678436" d="M2070.8,2429.588a1.775,1.775,0,1,0,1.775,1.775,1.775,1.775,0,0,0-1.775-1.775" transform="translate(-1825.336 -2143.436)" fill="#e92411"/>
            <path id="Trazado_678437" data-name="Trazado 678437" d="M2126.614,2429.588a1.775,1.775,0,1,0,1.775,1.775,1.775,1.775,0,0,0-1.775-1.775" transform="translate(-1874.58 -2143.436)" fill="#e92411"/>
            <path id="Trazado_678438" data-name="Trazado 678438" d="M2182.432,2429.588a1.775,1.775,0,1,0,1.775,1.775,1.775,1.775,0,0,0-1.775-1.775" transform="translate(-1923.824 -2143.436)" fill="#ffd900"/>
            <path id="Trazado_678439" data-name="Trazado 678439" d="M2238.251,2429.588a1.775,1.775,0,1,0,1.775,1.775,1.775,1.775,0,0,0-1.775-1.775" transform="translate(-1973.069 -2143.436)" fill="#ffd900"/>
            <path id="Trazado_678440" data-name="Trazado 678440" d="M1674.988,2404.27V2412a1.439,1.439,0,0,0,1.439,1.439h1.318v-10.612h-1.318a1.439,1.439,0,0,0-1.439,1.439" transform="translate(-1477.712 -2119.831)" fill="#939598"/>
            <path id="Trazado_678441" data-name="Trazado 678441" d="M2314.963,2402.831h-1.318v10.612h1.318A1.439,1.439,0,0,0,2316.4,2412v-7.733a1.439,1.439,0,0,0-1.439-1.439" transform="translate(-2041.149 -2119.831)" fill="#939598"/>
            <path id="Trazado_678442" data-name="Trazado 678442" d="M1770.3,2530.517h-71.343a.56.56,0,0,0-.56.56v13.514a.56.56,0,0,0,.56.56H1770.3a.56.56,0,0,0,.56-.56v-13.514a.56.56,0,0,0-.56-.56" transform="translate(-1498.365 -2232.478)" fill="#77787b"/>
            <rect id="Rectángulo_345352" data-name="Rectángulo 345352" width="63.153" height="2.605" transform="translate(204.688 312.673)" fill="#272737"/>
            <path id="Trazado_678443" data-name="Trazado 678443" d="M1787.348,2559.368h-11.526a1.577,1.577,0,0,0-1.577,1.577v4.3a1.577,1.577,0,0,0,1.577,1.577h11.526a1.577,1.577,0,0,0,1.577-1.577v-4.3a1.577,1.577,0,0,0-1.577-1.577" transform="translate(-1565.278 -2257.931)" fill="#939598"/>
            <rect id="Rectángulo_345353" data-name="Rectángulo 345353" width="10.085" height="1.253" transform="translate(211.369 303.37)" fill="#fff"/>
            <rect id="Rectángulo_345354" data-name="Rectángulo 345354" width="10.085" height="1.253" transform="translate(211.369 306.088)" fill="#fff"/>
            <path id="Trazado_678444" data-name="Trazado 678444" d="M1744.453,2559.368h-1.2a.278.278,0,0,0-.278.278v6.9a.278.278,0,0,0,.278.278h1.2a.278.278,0,0,0,.278-.278v-6.9a.278.278,0,0,0-.278-.278" transform="translate(-1537.688 -2257.931)" fill="#d1d3d4"/>
            <path id="Trazado_678445" data-name="Trazado 678445" d="M2014.977,2575.959a1.775,1.775,0,1,0,1.775,1.775,1.776,1.776,0,0,0-1.775-1.775" transform="translate(-1776.091 -2272.568)" fill="#e92411"/>
            <path id="Trazado_678446" data-name="Trazado 678446" d="M2070.8,2575.959a1.775,1.775,0,1,0,1.775,1.775,1.775,1.775,0,0,0-1.775-1.775" transform="translate(-1825.336 -2272.568)" fill="#ffd900"/>
            <path id="Trazado_678447" data-name="Trazado 678447" d="M2126.614,2575.959a1.775,1.775,0,1,0,1.775,1.775,1.775,1.775,0,0,0-1.775-1.775" transform="translate(-1874.58 -2272.568)" fill="#ffd900"/>
            <path id="Trazado_678448" data-name="Trazado 678448" d="M2182.432,2575.959a1.775,1.775,0,1,0,1.775,1.775,1.775,1.775,0,0,0-1.775-1.775" transform="translate(-1923.824 -2272.568)" fill="#ffd900"/>
            <path id="Trazado_678449" data-name="Trazado 678449" d="M2238.251,2575.959a1.775,1.775,0,1,0,1.775,1.775,1.775,1.775,0,0,0-1.775-1.775" transform="translate(-1973.069 -2272.568)" fill="#fff"/>
            <path id="Trazado_678450" data-name="Trazado 678450" d="M1674.988,2550.641v7.733a1.439,1.439,0,0,0,1.439,1.439h1.318V2549.2h-1.318a1.439,1.439,0,0,0-1.439,1.439" transform="translate(-1477.712 -2248.963)" fill="#939598"/>
            <path id="Trazado_678451" data-name="Trazado 678451" d="M2314.963,2549.2h-1.318v10.612h1.318a1.439,1.439,0,0,0,1.439-1.44v-7.733a1.439,1.439,0,0,0-1.439-1.439" transform="translate(-2041.149 -2248.963)" fill="#939598"/>
            <path id="Trazado_678452" data-name="Trazado 678452" d="M1123.4,405.418H893.852a17.275,17.275,0,0,0-17.28,17.272v163.2a17.282,17.282,0,0,0,17.28,17.28h229.8a17.284,17.284,0,0,0,17.031-17.279V422.69a17.276,17.276,0,0,0-17.28-17.272" transform="translate(-773.331 -357.669)" fill="#78bfff"/>
            <path id="Trazado_678453" data-name="Trazado 678453" d="M1123.406,405.414H893.854a17.275,17.275,0,0,0-17.28,17.272v8.076h264.112v-8.076a17.275,17.275,0,0,0-17.28-17.272" transform="translate(-773.333 -357.665)" fill="#1f00bd"/>
            <path id="Trazado_678454" data-name="Trazado 678454" d="M2678.27,486.818a3.623,3.623,0,1,0,3.624,3.623,3.623,3.623,0,0,0-3.624-3.623" transform="translate(-2359.633 -429.482)" fill="#e92411"/>
            <path id="Trazado_678455" data-name="Trazado 678455" d="M2811.589,486.818a3.623,3.623,0,1,0,3.623,3.623,3.623,3.623,0,0,0-3.623-3.623" transform="translate(-2477.249 -429.482)" fill="#ffd900"/>
            <path id="Trazado_678456" data-name="Trazado 678456" d="M2944.905,486.818a3.623,3.623,0,1,0,3.623,3.623,3.623,3.623,0,0,0-3.623-3.623" transform="translate(-2594.864 -429.482)" fill="#2cd670"/>
            <path id="Trazado_678457" data-name="Trazado 678457" d="M1586.766,1693.218H1471.593a4.974,4.974,0,1,0,0,9.949h115.174a4.974,4.974,0,1,0,0-9.949" transform="translate(-1293.883 -1493.794)"/>
            <path id="Trazado_678458" data-name="Trazado 678458" d="M1831.464,1703.936l-.052-6.438-1.826-1.8h-49.635l.066,8.235.319,39.593,51.443-.414-.017-2.107Z" transform="translate(-1570.314 -1495.985)" fill="#1f00bd"/>
            <path id="Trazado_678459" data-name="Trazado 678459" d="M1849.286,1695.7H1797.84l.066,8.235.3,37.469,49.336-.4,2.107-.017-.3-37.055Z" transform="translate(-1586.094 -1495.984)" fill="#fff"/>
            <rect id="Rectángulo_345355" data-name="Rectángulo 345355" width="35.901" height="2.815" transform="translate(219.535 201.892) rotate(-0.46)" fill="#7888e2"/>
            <rect id="Rectángulo_345356" data-name="Rectángulo 345356" width="35.901" height="2.815" transform="translate(219.592 208.928) rotate(-0.46)" fill="#7888e2"/>
            <rect id="Rectángulo_345357" data-name="Rectángulo 345357" width="35.901" height="2.815" transform="translate(219.648 215.964) rotate(-0.46)" fill="#7888e2"/>
            <rect id="Rectángulo_345358" data-name="Rectángulo 345358" width="35.901" height="2.815" transform="translate(219.705 223) rotate(-0.46)" fill="#7888e2"/>
            <rect id="Rectángulo_345359" data-name="Rectángulo 345359" width="20.284" height="2.815" transform="translate(227.57 229.974) rotate(-0.46)" fill="#7888e2"/>
            <path id="Trazado_678460" data-name="Trazado 678460" d="M1803.771,1592.807a3.422,3.422,0,0,0-1.415-.27h-2.744v6h1.7v-1.569h1.046a3.426,3.426,0,0,0,1.415-.27,2.119,2.119,0,0,0,0-3.893m-.729,2.6a1.186,1.186,0,0,1-.789.227h-.943v-1.758h.943a1.171,1.171,0,0,1,.789.232.818.818,0,0,1,.266.652.8.8,0,0,1-.266.647" transform="translate(-1587.658 -1404.971)" fill="#fff"/>
            <path id="Trazado_678461" data-name="Trazado 678461" d="M1857.648,1595.894a2.091,2.091,0,0,0,.3-1.136,2.033,2.033,0,0,0-1.252-1.951,3.422,3.422,0,0,0-1.415-.27h-2.744v6h1.7v-1.595h.926l1.089,1.595h1.818l-1.295-1.886a2.058,2.058,0,0,0,.87-.759m-1.676-.489a1.186,1.186,0,0,1-.789.227h-.943v-1.758h.943a1.171,1.171,0,0,1,.789.232.818.818,0,0,1,.266.652.8.8,0,0,1-.266.647" transform="translate(-1634.354 -1404.971)" fill="#fff"/>
            <path id="Trazado_678462" data-name="Trazado 678462" d="M1908.841,1591.92a3.833,3.833,0,0,0-3.421,0,3.069,3.069,0,0,0,0,5.436,3.832,3.832,0,0,0,3.421,0,3.069,3.069,0,0,0,0-5.436m-.3,3.614a1.54,1.54,0,0,1-.583.6,1.688,1.688,0,0,1-1.646,0,1.539,1.539,0,0,1-.583-.6,1.98,1.98,0,0,1,0-1.792,1.542,1.542,0,0,1,.583-.6,1.689,1.689,0,0,1,1.646,0,1.543,1.543,0,0,1,.583.6,1.98,1.98,0,0,1,0,1.792" transform="translate(-1679.57 -1404.072)" fill="#fff"/>
            <path id="Trazado_678463" data-name="Trazado 678463" d="M1967.9,1593.137a1.747,1.747,0,0,1,.87-.214,1.777,1.777,0,0,1,1.415.7l1.08-.977a2.856,2.856,0,0,0-1.1-.84,3.635,3.635,0,0,0-1.484-.292,3.553,3.553,0,0,0-1.694.4,2.983,2.983,0,0,0-1.179,1.11,3.245,3.245,0,0,0,0,3.224,2.98,2.98,0,0,0,1.179,1.11,3.555,3.555,0,0,0,1.694.4,3.639,3.639,0,0,0,1.484-.291,2.856,2.856,0,0,0,1.1-.84l-1.08-.978a1.777,1.777,0,0,1-1.415.7,1.747,1.747,0,0,1-.87-.214,1.485,1.485,0,0,1-.592-.6,2.015,2.015,0,0,1,0-1.792,1.489,1.489,0,0,1,.592-.6" transform="translate(-1733.908 -1404.071)" fill="#fff"/>
            <path id="Trazado_678464" data-name="Trazado 678464" d="M2023.417,1596.129h2.667v-1.269h-2.667v-1.012h3.027v-1.312h-4.707v6h4.819v-1.312h-3.138Z" transform="translate(-1783.62 -1404.971)" fill="#fff"/>
            <path id="Trazado_678465" data-name="Trazado 678465" d="M2071.17,1594.3a8.311,8.311,0,0,0-1.136-.313,4.958,4.958,0,0,1-.883-.249.386.386,0,0,1-.274-.36.45.45,0,0,1,.232-.39,1.4,1.4,0,0,1,.737-.15,3.5,3.5,0,0,1,1.664.463l.523-1.26a3.576,3.576,0,0,0-1.012-.39,5.157,5.157,0,0,0-1.166-.133,3.689,3.689,0,0,0-1.462.257,2.006,2.006,0,0,0-.9.7,1.721,1.721,0,0,0-.3.99,1.448,1.448,0,0,0,.326.995,1.9,1.9,0,0,0,.78.536,8.575,8.575,0,0,0,1.132.313,5.143,5.143,0,0,1,.9.261.4.4,0,0,1,.279.382q0,.489-.977.489a3.552,3.552,0,0,1-1.046-.163,3.6,3.6,0,0,1-.935-.429l-.557,1.252a3.48,3.48,0,0,0,1.115.48,5.544,5.544,0,0,0,1.415.18,3.641,3.641,0,0,0,1.458-.262,2.047,2.047,0,0,0,.9-.7,1.689,1.689,0,0,0,.3-.978,1.42,1.42,0,0,0-.33-.99,1.961,1.961,0,0,0-.78-.532" transform="translate(-1823.635 -1404.072)" fill="#fff"/>
            <path id="Trazado_678466" data-name="Trazado 678466" d="M2118.274,1594.3a8.311,8.311,0,0,0-1.136-.313,4.964,4.964,0,0,1-.883-.249.386.386,0,0,1-.274-.36.45.45,0,0,1,.231-.39,1.4,1.4,0,0,1,.738-.15,3.494,3.494,0,0,1,1.663.463l.523-1.26a3.578,3.578,0,0,0-1.012-.39,5.155,5.155,0,0,0-1.166-.133,3.689,3.689,0,0,0-1.462.257,2.006,2.006,0,0,0-.9.7,1.72,1.72,0,0,0-.3.99,1.447,1.447,0,0,0,.325.995,1.9,1.9,0,0,0,.78.536,8.565,8.565,0,0,0,1.132.313,5.143,5.143,0,0,1,.9.261.4.4,0,0,1,.279.382q0,.489-.978.489a3.551,3.551,0,0,1-1.046-.163,3.6,3.6,0,0,1-.935-.429l-.557,1.252a3.476,3.476,0,0,0,1.115.48,5.544,5.544,0,0,0,1.415.18,3.644,3.644,0,0,0,1.458-.262,2.048,2.048,0,0,0,.9-.7,1.689,1.689,0,0,0,.3-.978,1.421,1.421,0,0,0-.33-.99,1.962,1.962,0,0,0-.78-.532" transform="translate(-1865.192 -1404.072)" fill="#fff"/>
            <path id="Trazado_678467" data-name="Trazado 678467" d="M2164.168,1627.774a.973.973,0,0,0-.7.266.916.916,0,0,0-.279.695.927.927,0,0,0,.283.695,1.022,1.022,0,0,0,1.394,0,.935.935,0,0,0,.279-.695.925.925,0,0,0-.274-.695.97.97,0,0,0-.7-.266" transform="translate(-1908.415 -1436.058)" fill="#fff"/>
            <path id="Trazado_678468" data-name="Trazado 678468" d="M2184.771,1627.774a.974.974,0,0,0-.7.266.917.917,0,0,0-.279.695.927.927,0,0,0,.283.695,1.022,1.022,0,0,0,1.394,0,.935.935,0,0,0,.279-.695.924.924,0,0,0-.274-.695.97.97,0,0,0-.7-.266" transform="translate(-1926.592 -1436.058)" fill="#fff"/>
            <path id="Trazado_678469" data-name="Trazado 678469" d="M2205.374,1627.774a.972.972,0,0,0-.7.266.916.916,0,0,0-.279.695.927.927,0,0,0,.283.695,1.022,1.022,0,0,0,1.393,0,.935.935,0,0,0,.279-.695.924.924,0,0,0-.274-.695.97.97,0,0,0-.7-.266" transform="translate(-1944.767 -1436.058)" fill="#fff"/>
            <path id="Trazado_678470" data-name="Trazado 678470" d="M1293.607,1320.093a.933.933,0,0,0,1.866,0v-16.937h159.334v16.937a.933.933,0,0,0,1.866,0v-18.8H1293.607Z" transform="translate(-1141.249 -1148.027)" fill="#fff"/>
            <path id="Trazado_678471" data-name="Trazado 678471" d="M1730.756,921.635l-31.059-.193a6.367,6.367,0,0,0-5.717,3.484l-3.8,7.484-27.1-.168a6.367,6.367,0,0,0-6.391,6.823l2.939,32.816a6.367,6.367,0,0,0,6.312,5.911l61.152.38a6.367,6.367,0,0,0,6.391-5.918l3.585-43.8a6.367,6.367,0,0,0-6.312-6.817" transform="translate(-1461.553 -812.917)" fill="#f58220"/>
            <rect id="Rectángulo_345360" data-name="Rectángulo 345360" width="11.986" height="47.443" transform="matrix(0.006, -1, 1, 0.006, 198.754, 134.073)" fill="#fff"/>
            <path id="Trazado_678472" data-name="Trazado 678472" d="M1781.913,723.623h-57.4a2.686,2.686,0,0,0-2.687,2.687v59.366a2.686,2.686,0,0,0,2.687,2.687h57.4a2.681,2.681,0,0,0,2.687-2.687V726.31a2.681,2.681,0,0,0-2.687-2.687" transform="translate(-1519.031 -638.396)" fill="#fff"/>
            <rect id="Rectángulo_345361" data-name="Rectángulo 345361" width="43.103" height="5.597" transform="translate(207.321 89.67)" fill="#7888e2"/>
            <path id="Trazado_678473" data-name="Trazado 678473" d="M2174.992,762.92a2.2,2.2,0,1,0-.343,3.4l1.278,1.278.623-.623-1.278-1.278a2.206,2.206,0,0,0-.28-2.773m-.623,2.493a1.322,1.322,0,1,1,0-1.869,1.323,1.323,0,0,1,0,1.869" transform="translate(-1915.51 -672.496)" fill="#7888e2"/>
            <rect id="Rectángulo_345362" data-name="Rectángulo 345362" width="28.599" height="2.768" transform="translate(207.321 102.7)" fill="#7888e2"/>
            <rect id="Rectángulo_345363" data-name="Rectángulo 345363" width="41.539" height="2.768" transform="translate(207.321 108.478)" fill="#7888e2"/>
            <rect id="Rectángulo_345364" data-name="Rectángulo 345364" width="47.279" height="2.768" transform="translate(207.321 134.738)" fill="#0cc3be"/>
            <rect id="Rectángulo_345365" data-name="Rectángulo 345365" width="22.528" height="2.768" transform="translate(207.321 140.668)" fill="#0cc3be"/>
            <rect id="Rectángulo_345366" data-name="Rectángulo 345366" width="48.429" height="2.768" transform="translate(212.612 115.618)" fill="#7888e2"/>
            <path id="Trazado_678474" data-name="Trazado 678474" d="M1761.557,982.495a1.286,1.286,0,1,0,1.286,1.286,1.286,1.286,0,0,0-1.286-1.286" transform="translate(-1552.949 -866.779)" fill="#7888e2"/>
            <rect id="Rectángulo_345367" data-name="Rectángulo 345367" width="48.429" height="2.768" transform="translate(212.612 121.548)" fill="#7888e2"/>
            <path id="Trazado_678475" data-name="Trazado 678475" d="M1761.557,1032.842a1.286,1.286,0,1,0,1.286,1.286,1.286,1.286,0,0,0-1.286-1.286" transform="translate(-1552.949 -911.196)" fill="#7888e2"/>
            <rect id="Rectángulo_345368" data-name="Rectángulo 345368" width="48.429" height="2.769" transform="translate(212.612 127.478)" fill="#dfdeee"/>
            <path id="Trazado_678476" data-name="Trazado 678476" d="M1761.557,1083.189a1.286,1.286,0,1,0,1.286,1.286,1.287,1.287,0,0,0-1.286-1.286" transform="translate(-1552.949 -955.613)" fill="#dfdeee"/>
            <path id="Trazado_678477" data-name="Trazado 678477" d="M1707.126,979.075l-13.041-.081-20.737-.13a6.924,6.924,0,0,0-6.218,3.79L1663,990.793l-29.472-.183a6.925,6.925,0,0,0-6.949,7.421l2.874,32.734.318,3.61a6.927,6.927,0,0,0,6.864,6.43l66.5.412a6.924,6.924,0,0,0,6.95-6.436l3.9-48.294a6.924,6.924,0,0,0-6.865-7.413" transform="translate(-1434.985 -863.575)" fill="#ffd900"/>
            <path id="Trazado_678478" data-name="Trazado 678478" d="M1728.787,980.048l-13.041-.081c3.415,8.613,12.637,34.465,1.688,44.23-10.232,9.125-49.317,7.444-66.324,7.541l.318,3.61a6.927,6.927,0,0,0,6.865,6.43l66.5.412a6.924,6.924,0,0,0,6.95-6.436l3.9-48.294a6.924,6.924,0,0,0-6.865-7.413" transform="translate(-1456.647 -864.549)" fill="#ffa001"/>
            <path id="Trazado_678483" data-name="Trazado 678483" d="M2590.159,1431.865a3.29,3.29,0,0,0-1.743-.3c-3.379-.01-13.515,0-13.515,0-.585,0-.638-2.13-1.822-2.13h-3.715c-.926,0-1.056.509-1.056.954,0,.326-.144,16.681-.144,16.681h22.073s.2,0,.2-.368c0-1.811.221-9.941.236-13.023.006-.964-.1-1.489-.515-1.817" transform="translate(-2265.691 -1261.082)" fill="#f58220"/>
            <path id="Trazado_678484" data-name="Trazado 678484" d="M2583.762,1451.454c-.039-1.748-.217-9.705-.326-12.57-.035-.929-.1-1.436-.513-1.75a3.378,3.378,0,0,0-1.746-.286c-3.379-.013-13.515,0-13.515,0-.584,0-.637-2.056-1.82-2.056h-3.714c-.929,0-1.056.49-1.056.918,0,.283.455,12.8.494,15.56.007.525.341.525.341.525h22.073s-.211,0-.217-.342" transform="translate(-2259.433 -1265.804)" fill="#ffd900"/>
            <path id="Trazado_678485" data-name="Trazado 678485" d="M1233.137,1431.865a3.292,3.292,0,0,0-1.744-.3c-3.379-.01-13.515,0-13.515,0-.585,0-.638-2.13-1.822-2.13h-3.715c-.926,0-1.056.509-1.056.954,0,.326-.144,16.681-.144,16.681h22.073s.2,0,.2-.368c0-1.811.221-9.941.236-13.023.006-.964-.1-1.489-.515-1.817" transform="translate(-1068.495 -1261.082)" fill="#f58220"/>
            <path id="Trazado_678486" data-name="Trazado 678486" d="M1226.739,1451.454c-.039-1.748-.217-9.705-.326-12.57-.035-.929-.1-1.436-.514-1.75a3.378,3.378,0,0,0-1.746-.286c-3.379-.013-13.515,0-13.515,0-.584,0-.637-2.056-1.821-2.056H1205.1c-.929,0-1.057.49-1.057.918,0,.283.455,12.8.494,15.56.007.525.342.525.342.525h22.073s-.211,0-.217-.342" transform="translate(-1062.237 -1265.804)" fill="#ffd900"/>
            <path id="Trazado_678489" data-name="Trazado 678489" d="M793.866,1703.776l-48.117,26.02c-7.149,56.964,48.117,88.591,48.117,88.591s55.266-31.628,48.117-88.591Z" transform="translate(-657.353 -1503.109)" fill="#1f00bd"/>
            <path id="Trazado_678490" data-name="Trazado 678490" d="M882.066,1821.264l-36.5,20.479c-5.422,43.209,36.5,66.456,36.5,66.456s41.92-23.247,36.5-66.456Z" transform="translate(-745.552 -1606.76)" fill="#005aff"/>
            <path id="Trazado_678491" data-name="Trazado 678491" d="M1011.7,2087.791H978.632a2.117,2.117,0,0,0-2.112,2.118v29.709a2.117,2.117,0,0,0,2.112,2.119H1011.7a2.117,2.117,0,0,0,2.112-2.119v-29.709a2.117,2.117,0,0,0-2.112-2.118" transform="translate(-861.508 -1841.896)" fill="#ffd900"/>
            <path id="Trazado_678492" data-name="Trazado 678492" d="M1021.616,1932.32a14.571,14.571,0,0,0-14.555,14.554v3.729h4.449v-3.729a10.105,10.105,0,1,1,20.211,0v3.729h4.449v-3.729a14.571,14.571,0,0,0-14.555-14.554" transform="translate(-888.452 -1704.736)" fill="#1e2427"/>
            <path id="Trazado_678493" data-name="Trazado 678493" d="M1106.542,2143.2a5.882,5.882,0,0,0-.439-8.248,5.675,5.675,0,0,0-4.5-1.416,5.839,5.839,0,0,0-3.482,9.664l-1.5,6.363a1.741,1.741,0,0,0,.318,1.489,1.687,1.687,0,0,0,1.344.666h8.089a1.687,1.687,0,0,0,1.344-.666,1.758,1.758,0,0,0,.318-1.489Z" transform="translate(-967.425 -1882.216)" fill="#1e2427"/>
            <rect id="Rectángulo_345370" data-name="Rectángulo 345370" width="0.679" height="30.948" transform="translate(118.27 247.563)" fill="#1e2427"/>
            <path id="Trazado_678494" data-name="Trazado 678494" d="M1224.136,2206.111a10.005,10.005,0,1,0,10.005,10.005,10.005,10.005,0,0,0-10.005-10.005" transform="translate(-1071.133 -1946.28)" fill="#e92411"/>
            <path id="Trazado_678495" data-name="Trazado 678495" d="M1244.775,2244.371l-2.657-2.657-2.432,2.432,5.089,5.089,9.026-9.026-2.432-2.432Z" transform="translate(-1093.678 -1974.216)" fill="#f5e9d9"/>
            <path id="Trazado_678496" data-name="Trazado 678496" d="M3338.587,633.6c-10.051-2.438-14.7,2.54-17.006-12.5s-12.78-12.143-12.78-12.143a10.758,10.758,0,0,0-4.2,1.973c-2.789-1.181-10.065-3.673-15.169-.1-4.837,3.388-4.894,10.806,3.341,20.935,3.118,3.835-11.283,14.284,10.738,23.184a20.081,20.081,0,0,0,18.357,7.916c16.038-1.327,19.438,17.169,19.438,17.169L3362.2,668.6a65.666,65.666,0,0,0-1.368-12.136c3.528,2.431,5.438,6.332,6.448,9.353l4.8-2.628c.393-17.839-17.493-25.7-33.5-29.59" transform="translate(-2899.094 -537.042)" fill="#62200d"/>
            <path id="Trazado_678497" data-name="Trazado 678497" d="M3958.458,2425.033l-9.323,6.787,7.923,8.4a5.618,5.618,0,0,0,5.506.427c3.3-1.315,2.307-5.925,2.307-5.925Z" transform="translate(-3484.015 -2139.418)" fill="#fbc5a9"/>
            <path id="Trazado_678498" data-name="Trazado 678498" d="M3935.04,2501.025l-5.289-5.33a.761.761,0,0,0-1.277.339c-1.314,5.219-6.8,5.068-8.993,4.786a1.072,1.072,0,0,0-1.167.779c-.528,1.884-1.753,6.051-2.543,7.111a13.823,13.823,0,0,1-5.095,3.85,4.811,4.811,0,0,0-2.372,2.2,2.278,2.278,0,0,0-.085,1.764l14.371.018,12.664-13.266a1.475,1.475,0,0,0-.019-2.058Z" transform="translate(-3447.799 -2201.558)" fill="#ffd900"/>
            <path id="Trazado_678499" data-name="Trazado 678499" d="M3935.04,2542.647c-2.524,2.793-11.911,13.1-13.167,13.225-1.124.112-9.734.393-13.569.514a2.278,2.278,0,0,0-.085,1.764l14.371.018,12.664-13.266a1.475,1.475,0,0,0-.019-2.058Z" transform="translate(-3447.799 -2243.18)" fill="#ff8500"/>
            <path id="Trazado_678500" data-name="Trazado 678500" d="M3980.9,2587.969a6.26,6.26,0,0,0-5.409-.275.113.113,0,0,0,.045.219,24.864,24.864,0,0,1,5.308.172c.06.008.116-.077.056-.116" transform="translate(-3507.2 -2282.499)" fill="#fff"/>
            <path id="Trazado_678501" data-name="Trazado 678501" d="M3971.347,2596.266a6.262,6.262,0,0,0-5.41-.275.113.113,0,0,0,.045.219,24.851,24.851,0,0,1,5.309.172c.059.008.116-.077.056-.116" transform="translate(-3498.773 -2289.819)" fill="#fff"/>
            <path id="Trazado_678502" data-name="Trazado 678502" d="M3961.795,2604.564a6.262,6.262,0,0,0-5.41-.275.113.113,0,0,0,.045.219,24.847,24.847,0,0,1,5.308.172c.06.008.116-.077.056-.116" transform="translate(-3490.346 -2297.14)" fill="#fff"/>
            <path id="Trazado_678503" data-name="Trazado 678503" d="M3952.244,2612.861a6.262,6.262,0,0,0-5.41-.275.113.113,0,0,0,.045.219,24.864,24.864,0,0,1,5.308.172c.059.008.116-.077.056-.115" transform="translate(-3481.92 -2304.459)" fill="#fff"/>
            <path id="Trazado_678504" data-name="Trazado 678504" d="M3327.567,2494.4l2.037,14.105h9.631l-.513-14.105Z" transform="translate(-2935.653 -2200.611)" fill="#ffc9ae"/>
            <path id="Trazado_678505" data-name="Trazado 678505" d="M3222.837,2592.04l-1.365-7.347a1.044,1.044,0,0,0-1.6-.653,7.864,7.864,0,0,1-9.253-.084,1.434,1.434,0,0,0-1.867.071,11.68,11.68,0,0,1-3.074,2.093c-2.72,1.181-11.5,3.85-12.679,5.6a1.991,1.991,0,0,0-.217.917,10.016,10.016,0,0,0,.039,1.452.424.424,0,0,0,.427.385l29.524-.009a.428.428,0,0,0,.419-.516Z" transform="translate(-2816.731 -2279.348)" fill="#ffd900"/>
            <path id="Trazado_678506" data-name="Trazado 678506" d="M3222.837,2654.934c-4.338.287-21.259,1.381-24.225,1.1-2.013-.188-4.286-.4-5.831-.511a10.019,10.019,0,0,0,.039,1.452.424.424,0,0,0,.427.385l29.524-.009a.428.428,0,0,0,.419-.516Z" transform="translate(-2816.731 -2342.242)" fill="#ff8500"/>
            <path id="Trazado_678507" data-name="Trazado 678507" d="M3270.1,2608.34a.113.113,0,0,0-.012.223,24.867,24.867,0,0,1,5.088,1.522c.056.023.132-.044.084-.1a6.262,6.262,0,0,0-5.16-1.647" transform="translate(-2884.863 -2301.103)" fill="#fff"/>
            <path id="Trazado_678508" data-name="Trazado 678508" d="M3258.744,2613.924a.113.113,0,0,0-.012.223,24.834,24.834,0,0,1,5.088,1.522c.056.023.132-.044.084-.1a6.262,6.262,0,0,0-5.16-1.647" transform="translate(-2874.846 -2306.029)" fill="#fff"/>
            <path id="Trazado_678509" data-name="Trazado 678509" d="M3247.389,2619.506a.113.113,0,0,0-.012.223,24.86,24.86,0,0,1,5.089,1.522c.056.023.132-.044.084-.1a6.263,6.263,0,0,0-5.16-1.647" transform="translate(-2864.829 -2310.954)" fill="#fff"/>
            <path id="Trazado_678510" data-name="Trazado 678510" d="M3236.035,2625.089a.113.113,0,0,0-.012.223,24.86,24.86,0,0,1,5.089,1.522c.056.023.132-.044.084-.1a6.263,6.263,0,0,0-5.16-1.647" transform="translate(-2854.812 -2315.879)" fill="#fff"/>
            <path id="Trazado_678511" data-name="Trazado 678511" d="M3330.448,1473.506l-5.4-16.423-43.5,1.8-2.766,19.063s-2.158,25.341-4.219,54.612c-1.35,19.171,1.194,40.029.56,56.556l20.957.773,6.243.23-1.725-53.144,5.1-32.654.054-.341s.733,27.7,4.474,35.941c6.367,14.031,41.016,46,41.016,46l21.375-15.87-35.176-38.939c-2.815-16.756-3.439-48.222-7-57.605" transform="translate(-2888.541 -1285.471)" fill="#1f00bd"/>
            <path id="Trazado_678512" data-name="Trazado 678512" d="M3421.582,1788.866a.3.3,0,0,0-.349.24l-7.7,41.783-.007.037,3.682,51.66a.3.3,0,0,0,.3.278h.022a.3.3,0,0,0,.277-.32l-3.676-51.584,7.69-41.746a.3.3,0,0,0-.24-.349" transform="translate(-3011.491 -1578.173)" fill="#3096ff"/>
            <path id="Trazado_678513" data-name="Trazado 678513" d="M3672.365,1598.852l-.03-41.95v-.035l-5.421-22.943a.3.3,0,1,0-.583.138l5.4,22.875.03,42.032v.117l40.471,43.644a.3.3,0,1,0,.439-.407Z" transform="translate(-3234.512 -1353.058)" fill="#3096ff"/>
            <path id="Trazado_678514" data-name="Trazado 678514" d="M3418.413,822.89l-.266,7.565,11.569-2.116-2.312-10.8Z" transform="translate(-3015.566 -721.255)" fill="#fbc5a9"/>
            <path id="Trazado_678515" data-name="Trazado 678515" d="M3419.395,826.278l9.11-8.735-8.991,5.347Z" transform="translate(-3016.666 -721.255)" fill="#f7a18a"/>
            <path id="Trazado_678516" data-name="Trazado 678516" d="M3493.724,768.175a6.513,6.513,0,0,0-.509.879c.065-.1.257-.41.509-.879" transform="translate(-3081.792 -677.701)" fill="#fbc5a9"/>
            <path id="Trazado_678517" data-name="Trazado 678517" d="M3355.536,645.055c-.252.469-.444.779-.509.879a6.51,6.51,0,0,1,.509-.879c1.93-3.595,7.417-16.557-12.892-16.436,0,0-11.549,21.491-2.774,27.345,5.882,3.924,17.452-6.513,17.452-6.513s2.488-1.267,1.012-4.284c-1.023-2.092-2.16-1.037-2.8-.113" transform="translate(-2943.604 -554.581)" fill="#fbc5a9"/>
            <g id="Grupo_992379" data-name="Grupo 992379" transform="translate(400.806 92.36)" opacity="0.5">
              <g id="Grupo_992378" data-name="Grupo 992378">
                <g id="Grupo_992377" data-name="Grupo 992377" clip-path="url(#clip-path-5)">
                  <path id="Trazado_678518" data-name="Trazado 678518" d="M3405.548,784.193c-1.365,0-2.473.507-2.475,1.142s1.1,1.153,2.468,1.157,2.473-.507,2.475-1.141-1.1-1.153-2.468-1.157" transform="translate(-3403.073 -784.192)" fill="#f3888a"/>
                </g>
              </g>
            </g>
            <path id="Trazado_678519" data-name="Trazado 678519" d="M3497.208,745.521c-2.1,4.638-.265,7.2-.265,7.2,2.89,1.183,6.718-2.023,5.016-5.48a3.316,3.316,0,0,0-4.752-1.724" transform="translate(-3084.425 -657.331)" fill="#fbc5a9"/>
            <path id="Trazado_678520" data-name="Trazado 678520" d="M3507.833,756.457c-1.827.6-2.628,3.331-2.2,5.058,0,.011,0,.023,0,.034-.015.151.22.166.256.03a6.035,6.035,0,0,1,.4-1.226,1.247,1.247,0,0,1,1.242-.726c.04,0,.062-.064.021-.081a1.12,1.12,0,0,0-1.566.667,5.116,5.116,0,0,1,1.877-3.706c.024-.017.009-.059-.022-.05" transform="translate(-3092.647 -667.362)" fill="#f7a18a"/>
            <path id="Trazado_678521" data-name="Trazado 678521" d="M3379.192,625.319a13.238,13.238,0,0,0-.539,1.521,3.251,3.251,0,0,0-.171.464c-.1.333-.186.67-.255,1.01a12.372,12.372,0,0,0-.228,2.018,11.261,11.261,0,0,0,.117,2.075,7.392,7.392,0,0,0,.5,1.953c.031.068.147.051.135-.032-.044-.324-.133-.645-.187-.968s-.1-.653-.139-.982c-.042-.384-.063-.77-.075-1.156,1.355,8.192,13.567,12.738,13.567,12.738s-.188-3.394,1.275-4.341c1.536-.995,5.285-15.58-14-14.3" transform="translate(-2980.14 -551.6)" fill="#62200d"/>
            <path id="Trazado_678522" data-name="Trazado 678522" d="M3396.941,620.51a.27.27,0,0,0-.182.152.022.022,0,0,0,.039.018.225.225,0,0,1,.123-.113.18.18,0,0,1-.143.143.021.021,0,1,0,0,.043.223.223,0,0,0,.187-.225.022.022,0,0,0-.029-.018" transform="translate(-2996.695 -547.427)" fill="#62200d"/>
            <path id="Trazado_678523" data-name="Trazado 678523" d="M3362.222,826.781a5.114,5.114,0,0,0-1.761-.165,7.966,7.966,0,0,0-1.615.157.939.939,0,0,0-.534.489,1.113,1.113,0,0,0,.219.841,2.875,2.875,0,0,0,3.455.862c.8-.4,1.167-1.689.237-2.183" transform="translate(-2962.762 -729.256)" fill="#62200d"/>
            <path id="Trazado_678524" data-name="Trazado 678524" d="M3369.767,834.278a3.045,3.045,0,0,0-1.193.411,3.672,3.672,0,0,0-.953.875,2.883,2.883,0,0,0,2.591.11,1.468,1.468,0,0,0,.775-1.417,4.017,4.017,0,0,0-1.22.021" transform="translate(-2970.99 -735.966)" fill="#ef4358"/>
            <path id="Trazado_678525" data-name="Trazado 678525" d="M3353.618,763.794a7.258,7.258,0,0,0,.605-.59,3.525,3.525,0,0,0,.622-1.86.2.2,0,0,0-.406-.015,3.17,3.17,0,0,1-.529,1.616,7.09,7.09,0,0,1-.566.549c-.75.684-1.683,1.535-1.6,2.256a.834.834,0,0,0,.471.636,7.766,7.766,0,0,0,1.932.836.2.2,0,0,0,.042,0,.2.2,0,0,0,.042-.4,7.5,7.5,0,0,1-1.818-.793.447.447,0,0,1-.266-.327c-.06-.514.861-1.354,1.469-1.909" transform="translate(-2956.978 -671.488)" fill="#f7a18a"/>
            <path id="Trazado_678526" data-name="Trazado 678526" d="M3399.719,767.449a.613.613,0,1,0,.321.677.539.539,0,0,0-.321-.677" transform="translate(-2998.786 -677.053)" fill="#5b1e13"/>
            <path id="Trazado_678527" data-name="Trazado 678527" d="M3361.042,761.841a.613.613,0,1,0,.416.623.539.539,0,0,0-.416-.623" transform="translate(-2964.746 -672.112)" fill="#5b1e13"/>
            <path id="Trazado_678528" data-name="Trazado 678528" d="M3393.312,746.487a.407.407,0,1,0,.288.761,1.728,1.728,0,0,1,1.731.381.407.407,0,0,0,.572-.579,2.545,2.545,0,0,0-2.592-.563" transform="translate(-2993.424 -658.429)" fill="#5b1e13"/>
            <path id="Trazado_678529" data-name="Trazado 678529" d="M3353.892,743.779a.407.407,0,1,0,.48.657,1.169,1.169,0,0,1,1.5.06.407.407,0,0,0,.552-.6,1.982,1.982,0,0,0-2.534-.119" transform="translate(-2958.73 -655.821)" fill="#5b1e13"/>
            <path id="Trazado_678530" data-name="Trazado 678530" d="M3407.061,653.608a16.638,16.638,0,0,0,5.278,2.289c-.873-6.7-9.428-7.6-9.428-7.6a11.471,11.471,0,0,1,4.639,3.657l-4.033-.347c4.02,8.276,11.216,7.347,11.216,7.347-4.908-.825-7.671-5.341-7.671-5.341" transform="translate(-3002.123 -571.938)" fill="#7c301e"/>
            <path id="Trazado_678531" data-name="Trazado 678531" d="M3007.413,917.18c-.458-.711-.728-.343-1.4-.908a6.613,6.613,0,0,0-7.109,2.775c-5.73,7.251-7.508,20.549-8.566,21.285-.054.037-22-15.9-22-15.9l-8.8,15.493s27.329,28.661,38.154,26.267a19.863,19.863,0,0,0,6.254-2.375,9.961,9.961,0,0,0,2.245-1.882c2.75-3.159,4.338-10.055,5.45-16.693,0,0-1.645-16.355-2.071-20.025a16.481,16.481,0,0,0-2.157-8.038" transform="translate(-2610.97 -808.195)" fill="#ed2b47"/>
            <path id="Trazado_678532" data-name="Trazado 678532" d="M3337.96,920.64c-3.179-2.35-8.567-3.831-15.242-2.046a29.431,29.431,0,0,0-6.181,2.472s-9.842,7.167-13.762,4.587a8.791,8.791,0,0,1-3.843-7.021,34.259,34.259,0,0,0-3.537-1c-.331,6.871-2.479,9.041-6.468,18.189s1.9,12.937,2.716,15.046,1.712,14.606,1.712,14.606-.543,8.417-.832,12.173c-.17,2.214-.941,6.706-1.64,10.507,24.336,8.115,46.466,2.114,50.544.868-.222-.9-.406-1.731-.512-2.395-.2-1.228-1.362-7.423-1.362-7.423a22.834,22.834,0,0,0,7.79.25c6.959-1.134,18.492-2.962,12.371-21.514s-17.644-34.26-21.754-37.3" transform="translate(-2900.354 -809.555)" fill="#e92411"/>
            <path id="Trazado_678533" data-name="Trazado 678533" d="M3508.635,1168.55c-10.594-3.059-26.946-14.479-24.551-20s-.976-12.055-.976-12.055.059,12.483-6.019,17.405a25.531,25.531,0,0,0,7.076,7.218c.355.254.723.55,1.1.882h0c3.888,2.866,10.208,7,16.678,9,2.695.933,7.8,2.322,12.606,1.539,6.884-1.122,18.24-2.921,12.568-20.909,2.517,13.33-8.17,19.9-18.486,16.925" transform="translate(-3067.564 -1002.637)" fill="#f58b37"/>
            <path id="Trazado_678534" data-name="Trazado 678534" d="M3526.925,980.468q-.137-.412-.276-.824c-6.185-18.192-17.429-33.482-21.479-36.475a17.9,17.9,0,0,0-4.71,4.792,17.514,17.514,0,0,0-2.79,12.843c1.8,11.67,3.159,14.893,3.188,14.961h0c-.134-.12-8.73-7.8-17.75-9.827,0,0,.059,12.483-6.019,17.405a25.531,25.531,0,0,0,7.076,7.218c.355.254.723.55,1.1.882h0c3.888,2.866,10.208,7,16.678,9,2.695.933,7.8,2.322,12.606,1.539,6.884-1.122,18.24-2.921,12.568-20.909q-.094-.3-.2-.605" transform="translate(-3067.564 -832.085)" fill="#e92411"/>
            <path id="Trazado_678535" data-name="Trazado 678535" d="M3471.632,1138.26a13.967,13.967,0,0,0-3.335,5.283,14.948,14.948,0,0,0-.961,4.209,11.242,11.242,0,0,0,1.115,6.143h0a11.233,11.233,0,0,0,2.279-2.564,24.965,24.965,0,0,0,3.321-9.8,36.967,36.967,0,0,0,.417-5.044,7.014,7.014,0,0,0-2.838,1.771" transform="translate(-3058.927 -1002.636)" fill="#781214"/>
            <path id="Trazado_678536" data-name="Trazado 678536" d="M3508.635,1168.55c-10.594-3.059-26.946-14.479-24.551-20s-.976-12.055-.976-12.055.059,12.483-6.019,17.405a25.531,25.531,0,0,0,7.076,7.218c.355.254.723.55,1.1.882h0c3.888,2.866,10.208,7,16.678,9,2.695.933,7.8,2.322,12.606,1.539,6.884-1.122,18.24-2.921,12.568-20.909,2.517,13.33-8.17,19.9-18.486,16.925" transform="translate(-3067.564 -1002.637)" fill="#c3233a"/>
            <path id="Trazado_678537" data-name="Trazado 678537" d="M3379.894,911.208s-2.231,5.3,2.147,7.058,12.186.331,14.4-1.763,6.195-5.08,7.239-5.335l-8.213-1.953Z" transform="translate(-2981.316 -802.13)" fill="#fbc5a9"/>
            <path id="Trazado_678538" data-name="Trazado 678538" d="M3361.07,925.657a8.791,8.791,0,0,1-3.843-7.02,34.1,34.1,0,0,0-3.536-1c-.293,2.609.358,9.637,5.745,11a17.258,17.258,0,0,0,16.2-4.528c2.238-2.191,3.943-4.288,5.38-5.514a29.321,29.321,0,0,0-6.181,2.472s-9.841,7.168-13.762,4.588" transform="translate(-2958.649 -809.559)" fill="#fff"/>
            <path id="Trazado_678539" data-name="Trazado 678539" d="M3349.357,632.337c-.834-.029-2.462,1.639-3.838,4.444s-1.324,8.5-.653,6.621a47.879,47.879,0,0,1,3.5-6.241s1.826-4.794.992-4.824" transform="translate(-2950.511 -557.861)" fill="#62200d"/>
            <path id="Trazado_678540" data-name="Trazado 678540" d="M3378.638,677.234a7.8,7.8,0,0,1-.695-4l-.257-.042.257.042-.257-.042-.257-.042a8.158,8.158,0,0,0,.719,4.262c1.695,3.851,5.653,5.872,8.675,6.889l.166-.494c-4.177-1.407-7.064-3.681-8.351-6.577" transform="translate(-2979.602 -593.871)" fill="#62200d"/>
            <path id="Trazado_678541" data-name="Trazado 678541" d="M3281.58,1078.383c-7.6-7.012-2.033-14.947-2.033-14.947s-3.956,1.14-3.391,8.294c.6,7.545,3.249,5.566,3.269,9.012s-2.456,15.443-2.456,15.443h0a19.866,19.866,0,0,0,6.254-2.375l-.276-3.457Z" transform="translate(-2890.249 -938.187)" fill="#c3233a"/>
            <path id="Trazado_678542" data-name="Trazado 678542" d="M3548.656,1100.145l-20.462-6.991,26.449,11.51-9.009-17.3Z" transform="translate(-3112.651 -959.301)" fill="#c3233a"/>
            <path id="Trazado_678543" data-name="Trazado 678543" d="M3375.654,1439.279s11.1,17.767,33.419,6.345c0,0-22.42,4.019-33.419-6.345" transform="translate(-2978.077 -1269.764)" fill="#c3233a"/>
            <path id="Trazado_678544" data-name="Trazado 678544" d="M3450.33,1769.033l-6.284,44.1s2.973,42.524,3.571,51.962l4.582.23-1.725-53.144,5.1-32.654Z" transform="translate(-3038.414 -1560.68)" fill="#1f0093"/>
            <path id="Trazado_678545" data-name="Trazado 678545" d="M3468.106,1723.8a55.723,55.723,0,0,0-9.1-1.683c-.237-.02-.324.293-.088.343,3,.63,6.094,1.042,9.139,1.516a.091.091,0,1,0,.045-.176" transform="translate(-3051.415 -1519.291)" fill="#3096ff"/>
            <path id="Trazado_678546" data-name="Trazado 678546" d="M3466.688,1567.4a.073.073,0,0,0-.146-.008,41.518,41.518,0,0,0-.092,8.558c.13,1.53.332,3.049.584,4.564a9.122,9.122,0,0,1,.3,2.219c-.06.573-.254.947-.634,1.035-2.27.528-3.323-6.707-3.441-8.016a84.817,84.817,0,0,1-.426-8.491c0-.095-.154-.075-.161.012a43.335,43.335,0,0,0,.424,11.2c.245,1.3,1.541,6.043,3.546,5.748,1.968-.29,1.02-3.123.736-5a78.516,78.516,0,0,1-.691-11.814" transform="translate(-3054.696 -1382.615)" fill="#3096ff"/>
            <path id="Trazado_678547" data-name="Trazado 678547" d="M3493.958,1708.352a.254.254,0,0,0-.477.173c.159.469.342.929.515,1.393a4.331,4.331,0,0,0,.527,1.2c.043.054.148.046.157-.033a3.4,3.4,0,0,0-.212-1.233,12.142,12.142,0,0,0-.51-1.5" transform="translate(-3082.013 -1507.006)" fill="#3096ff"/>
            <path id="Trazado_678548" data-name="Trazado 678548" d="M2953.348,924.515l-44.836,3.1,5,72.148,62-4.293-3.807-54.981Z" transform="translate(-2565.954 -815.628)" fill="#1f00bd"/>
            <path id="Trazado_678549" data-name="Trazado 678549" d="M2973.416,901.463l-44.836,3.1,5,72.148,62-4.293-3.807-54.981Z" transform="translate(-2583.658 -795.291)" fill="#fff"/>
            <path id="Trazado_678550" data-name="Trazado 678550" d="M3310.453,918.629l17.166-1.188-18.355-15.978Z" transform="translate(-2919.507 -795.291)" fill="#7888e2"/>
            <rect id="Rectángulo_345372" data-name="Rectángulo 345372" width="43.373" height="3.4" transform="translate(355.656 128.388) rotate(-3.96)" fill="#7888e2"/>
            <rect id="Rectángulo_345373" data-name="Rectángulo 345373" width="43.373" height="3.4" transform="matrix(0.998, -0.069, 0.069, 0.998, 356.243, 136.868)" fill="#7888e2"/>
            <rect id="Rectángulo_345374" data-name="Rectángulo 345374" width="43.373" height="3.4" transform="matrix(0.998, -0.069, 0.069, 0.998, 356.831, 145.348)" fill="#7888e2"/>
            <rect id="Rectángulo_345375" data-name="Rectángulo 345375" width="43.373" height="3.4" transform="translate(357.418 153.83) rotate(-3.96)" fill="#7888e2"/>
            <rect id="Rectángulo_345376" data-name="Rectángulo 345376" width="24.506" height="3.4" transform="translate(367.416 161.659) rotate(-3.96)" fill="#7888e2"/>
            <path id="Trazado_678551" data-name="Trazado 678551" d="M3480.187,1164.047s.128,7.629-2.489,10.013h0a20.346,20.346,0,0,0,2.791.623,25.227,25.227,0,0,0,2.54-7.62c-.694-.728-1.8-2.116-2.84-3.018" transform="translate(-3068.101 -1026.948)" fill="#f7a18a"/>
            <path id="Trazado_678552" data-name="Trazado 678552" d="M3442.115,1086a4.2,4.2,0,0,0-.479,2.8c1.1.5,3.848,4.293,6.1,5.674-.037-.1-3.027-5.667-3.16-7.184-.12-1.371-1.654-2.836-2.461-1.289" transform="translate(-3036.229 -957.506)" fill="#fbc5a9"/>
            <path id="Trazado_678553" data-name="Trazado 678553" d="M3343.6,1113.666s-11.375-.647-12.707.828.731,1.847.731,1.847-2.786,1.438.368,2.946c0,0-1.347,1.815,1.041,2.737l1.676.562a2.494,2.494,0,0,0,2.382,2.51c2.5.366,5.787.636,5.787.636s1.493,3.565,4.91,3.757c0,0,5.73-1.982,2.49-10.014-1.719-2.942-6.679-5.809-6.679-5.809" transform="translate(-2938.191 -982.376)" fill="#fbc5a9"/>
            <path id="Trazado_678554" data-name="Trazado 678554" d="M3373.066,1188.069h0l-7.827.093a.187.187,0,0,0,0,.375h0l7.827-.093a.187.187,0,0,0,0-.375" transform="translate(-2968.724 -1048.141)" fill="#f7a18a"/>
            <path id="Trazado_678555" data-name="Trazado 678555" d="M3351.849,1158.689c-2.136.512-9.589.254-9.664.251a.193.193,0,0,0-.194.181.188.188,0,0,0,.181.194c.153.005,2.014.07,4.119.07a32.285,32.285,0,0,0,5.645-.331.187.187,0,0,0-.087-.364" transform="translate(-2948.379 -1022.216)" fill="#f7a18a"/>
            <path id="Trazado_678556" data-name="Trazado 678556" d="M3348.5,1135.9l-9.45-.048h0a.187.187,0,0,0,0,.375l9.449.048h0a.187.187,0,0,0,0-.375" transform="translate(-2945.619 -1002.071)" fill="#f7a18a"/>
            <path id="Trazado_678557" data-name="Trazado 678557" d="M3436.75,1122.195a.187.187,0,1,0-.369-.065,20.666,20.666,0,0,0,.742,8.388.187.187,0,0,0,.178.13.184.184,0,0,0,.057-.009.187.187,0,0,0,.122-.235,20.246,20.246,0,0,1-.73-8.209" transform="translate(-3031.488 -989.831)" fill="#f7a18a"/>
            <path id="Trazado_678558" data-name="Trazado 678558" d="M2907.835,1128.922s2.07-1.166.1-2.249-13.9,3.844-13.9,3.844-1.294,1.4-2.816,3.243a19.269,19.269,0,0,0,4.871,14.093,4.7,4.7,0,0,0,3.209-4.693s3.421-1.515,5.955-2.836a2.827,2.827,0,0,0,1.615-3.573l1.584-1.224c2.211-1.874.095-3.315.095-3.315,2.813-2.788-.7-3.289-.7-3.289" transform="translate(-2550.656 -993.839)" fill="#fbc5a9"/>
            <path id="Trazado_678559" data-name="Trazado 678559" d="M2959.728,1211.6l-8.409,2.814a.212.212,0,0,0,.135.4l8.409-2.814a.212.212,0,0,0-.135-.4" transform="translate(-2603.591 -1068.895)" fill="#f7a18a"/>
            <path id="Trazado_678560" data-name="Trazado 678560" d="M2958.389,1173.063c-.079.031-7.957,3.081-10.433,3.329a.212.212,0,0,0,.021.423H2948c2.533-.254,10.219-3.229,10.545-3.356a.212.212,0,0,0-.154-.4" transform="translate(-2600.584 -1034.889)" fill="#f7a18a"/>
            <path id="Trazado_678561" data-name="Trazado 678561" d="M2955.4,1145.137l-10.093,3.569a.212.212,0,0,0,.071.412.215.215,0,0,0,.071-.012l10.093-3.57a.212.212,0,1,0-.141-.4" transform="translate(-2598.288 -1010.254)" fill="#f7a18a"/>
            <path id="Trazado_678562" data-name="Trazado 678562" d="M2919.991,1167.124a.212.212,0,0,0-.081.289c2.113,3.779,2.274,9,2.275,9.055a.212.212,0,0,0,.212.207h.006a.211.211,0,0,0,.206-.218c0-.053-.164-5.379-2.329-9.251a.212.212,0,0,0-.289-.082" transform="translate(-2575.986 -1029.639)" fill="#f7a18a"/>
            <path id="Trazado_678563" data-name="Trazado 678563" d="M517.819,722.289H442.171a3.7,3.7,0,0,0-3.7,3.7v54.275a3.7,3.7,0,0,0,3.7,3.7h75.649a3.7,3.7,0,0,0,3.7-3.7V725.989a3.7,3.7,0,0,0-3.7-3.7" transform="translate(-386.829 -637.219)" fill="#d21aa5"/>
            <path id="Trazado_678564" data-name="Trazado 678564" d="M517.906,722.289H442.086a3.613,3.613,0,0,0-3.614,3.614v5.182H521.52V725.9a3.613,3.613,0,0,0-3.614-3.614" transform="translate(-386.83 -637.219)" fill="#1f00bd"/>
            <path id="Trazado_678565" data-name="Trazado 678565" d="M506.7,745.313A1.686,1.686,0,1,0,508.391,747a1.686,1.686,0,0,0-1.686-1.686" transform="translate(-445.539 -657.532)" fill="#e92411"/>
            <path id="Trazado_678566" data-name="Trazado 678566" d="M576.037,745.313A1.686,1.686,0,1,0,577.723,747a1.686,1.686,0,0,0-1.686-1.686" transform="translate(-506.705 -657.532)" fill="#ffd900"/>
            <path id="Trazado_678567" data-name="Trazado 678567" d="M645.369,745.313A1.686,1.686,0,1,0,647.055,747a1.686,1.686,0,0,0-1.686-1.686" transform="translate(-567.871 -657.532)" fill="#2cd670"/>
            <path id="Trazado_678568" data-name="Trazado 678568" d="M925.879,821.3a1.027,1.027,0,0,0-1.147,1.021h0a1.023,1.023,0,0,0,.893,1.019,12.551,12.551,0,0,1,10.86,10.5,1.027,1.027,0,0,0,2.03-.319A14.611,14.611,0,0,0,925.879,821.3" transform="translate(-815.819 -724.565)" fill="#fff"/>
            <path id="Trazado_678569" data-name="Trazado 678569" d="M925.923,852a1.027,1.027,0,0,0-1.191,1.015h0a1.031,1.031,0,0,0,.865,1.014,8.97,8.97,0,0,1,7.257,6.935,1.029,1.029,0,0,0,1,.816h0a1.028,1.028,0,0,0,1-1.246A11.03,11.03,0,0,0,925.923,852" transform="translate(-815.819 -751.644)" fill="#fff"/>
            <path id="Trazado_678570" data-name="Trazado 678570" d="M926.037,884.433a1.029,1.029,0,0,0-1.3.99v0a1.019,1.019,0,0,0,.744.987,5.235,5.235,0,0,1,3.54,3.266,1.037,1.037,0,0,0,.972.694h0a1.025,1.025,0,0,0,.972-1.362,7.3,7.3,0,0,0-4.923-4.577" transform="translate(-815.82 -780.233)" fill="#fff"/>
            <path id="Trazado_678571" data-name="Trazado 678571" d="M768.235,886.934h4.227v12.622a4.386,4.386,0,0,1,3.246.06,4.34,4.34,0,0,1,1.039.621c.019-.052.04-.1.062-.157a3.379,3.379,0,0,1,4.387-1.89,3.2,3.2,0,0,1,1.412,1.165,5.283,5.283,0,0,1,5.2-.662,5.149,5.149,0,0,1,.888.484V886.934h4.227L780.578,874.88Z" transform="translate(-677.754 -771.839)" fill="#ffd900"/>
            <path id="Trazado_678572" data-name="Trazado 678572" d="M576.6,902.356V912.7a5.139,5.139,0,0,0-.888-.484,5.283,5.283,0,0,0-5.2.662,3.194,3.194,0,0,0-1.412-1.165,3.379,3.379,0,0,0-4.387,1.89c-.022.052-.042.1-.062.157a4.334,4.334,0,0,0-1.039-.621,4.386,4.386,0,0,0-3.246-.06V900.46h-4.227l9.892-9.66a12.1,12.1,0,0,0-13.956,5.043,7.47,7.47,0,0,0-11.409,6.255c0,.121,0,.241.009.361a10.256,10.256,0,0,0-2.7-.361,10.042,10.042,0,1,0,0,20.084h36.331a10.033,10.033,0,0,0,2.294-19.826" transform="translate(-465.664 -785.365)" fill="#fff"/>
            <path id="Trazado_678573" data-name="Trazado 678573" d="M3923.747,1854.329c-3.115-5.844-9.264-4.99-14.418-3.136-11.532,4.148-24.975,12.39-33.1,26.9-8.933,15.957-14.951,35.486-20.715,54.057-.8,2.564-2.925,7.749-3.275,11.546a34.42,34.42,0,0,1,5.259.5c1.355-2.148,2.638-4.664,3.434-5.959,9.3-15.135,20.129-28.323,32.208-37.484,10.712-8.124,22.172-10.941,29.673-27.276,2.325-5.065,3.334-11.9,1.838-16.916a12.118,12.118,0,0,0-.906-2.236" transform="translate(-3398.532 -1631.942)" fill="#008c5d"/>
            <path id="Trazado_678574" data-name="Trazado 678574" d="M3503.848,2178.608c-.166-4.122-.542-8.181-.85-12.26a126.529,126.529,0,0,0-2.581-19.108c-1.449-6.195-3.761-11.965-7.228-15.711-8.324-8.994-25.528-6.315-31.868,9.316-2.091,5.155-2.557,11.944-.441,16.424a10.954,10.954,0,0,0,11.322,6.16c6.043-.868,13.127-2.816,18.894.35a9.88,9.88,0,0,1,1.672,1.169c2.874,2.468,4.851,6.671,6.439,10.992,1.3,3.526,2.551,7.073,2.7,11.21l1.952.224c0-.043.008-.087.01-.13.026-.974-.048-1.923-.023-2.985.043-1.895.074-3.76,0-5.651" transform="translate(-3052.052 -1875.96)" fill="#00af60"/>
            <path id="Trazado_678575" data-name="Trazado 678575" d="M3687.032,1624.615c-6.094-7.825-15.631-10.083-23.242-3.529a14.662,14.662,0,0,0-3.8,4.886c-2.406,5.119-1.74,11.864-.257,17.187a47.827,47.827,0,0,0,5.239,12.265c2.293,3.713,5.031,6.758,7.192,10.654a52.519,52.519,0,0,1,5.251,16.034,147.447,147.447,0,0,1,1.9,18.278c.323,6.142.312,12.377.215,18.606-.048,3.088.569,14.177-.171,19.456l.206.024,1.665.046c2.282-4.627,2.495-10.152,3.812-15.53,5.111-20.877,12.411-43.571,11.545-65.445-.5-12.647-3.457-25.106-9.551-32.931" transform="translate(-3227.519 -1426.768)" fill="#2cd670"/>
            <path id="Trazado_678576" data-name="Trazado 678576" d="M3914.843,1997.645c-7.515,6.058-14.606,14.971-21.681,27.25-6.248,10.843-11.731,22.929-17.034,34.618q-1.043,2.3-2.078,4.574l.53.242q1.036-2.274,2.079-4.575c5.3-11.675,10.775-23.748,17.009-34.567,7.038-12.215,14.084-21.075,21.542-27.087a155.4,155.4,0,0,1,15.017-10.333l-.311-.493a155.773,155.773,0,0,0-15.072,10.372" transform="translate(-3417.773 -1753.216)" fill="#1c1c1b"/>
            <path id="Trazado_678577" data-name="Trazado 678577" d="M3588.951,2301.17c-5.474-4.867-12.09-4.648-17.406-4.472l.02.582c5.212-.172,11.7-.387,17,4.322,7.965,7.319,10.5,19.841,12.994,35.452l.575-.092c-2.509-15.724-5.073-28.343-13.179-35.792" transform="translate(-3150.896 -2026.137)" fill="#1c1c1b"/>
            <path id="Trazado_678578" data-name="Trazado 678578" d="M3820.565,1863.131l-.5.3c5.345,8.737,8.028,20.03,8.2,34.526.155,12.847-1.621,26.6-3.338,39.891-.737,5.7-1.433,11.089-1.989,16.428l.579.06c.555-5.332,1.25-10.715,1.987-16.414,1.72-13.316,3.5-27.084,3.343-39.973-.177-14.6-2.888-25.993-8.289-34.823" transform="translate(-3370.149 -1643.696)" fill="#1c1c1b"/>
            <path id="Trazado_678579" data-name="Trazado 678579" d="M247.093,2267.278c-6.241-7.59-17.1-11.608-26.5-13.472-4.205-.833-9.267-1.091-12.039,2.178a6.383,6.383,0,0,0-.824,1.241c-1.405,2.768-.8,6.436.959,9.1,5.665,8.6,15.058,9.745,23.655,13.789a82.17,82.17,0,0,1,25.415,19.235c.616.675,1.593,2,2.644,3.114,1.444-.237,2.909-.356,4.37-.448-.164-2.045-1.754-4.783-2.327-6.146-4.153-9.869-8.485-20.248-15.349-28.595" transform="translate(-182.576 -1987.882)" fill="#00af60"/>
            <path id="Trazado_678580" data-name="Trazado 678580" d="M721.966,2381.253a19.94,19.94,0,0,0-6.505,8.751,49.787,49.787,0,0,0-2.772,10.437c-.39,2.22-.837,4.431-1.111,6.67-.126,1.027-.162,2.036-.189,3.061-.015.574-.108,1.091-.118,1.618,0,.023,0,.047,0,.071l1.623-.186a15.621,15.621,0,0,1,2.611-6.163,17.182,17.182,0,0,1,5.7-6.168,10.291,10.291,0,0,1,1.423-.689c4.879-1.907,10.678-1.087,15.652-.818a13.353,13.353,0,0,0,5.977-1.064,8.846,8.846,0,0,0,3.6-2.649c1.9-2.5,1.74-6.159.181-8.883-4.728-8.257-18.88-9.136-26.069-3.987" transform="translate(-627.498 -2097.97)" fill="#008c5d"/>
            <path id="Trazado_678581" data-name="Trazado 678581" d="M639.337,2108.854c-6.082-3.3-14.052-1.757-19.356,2.685s-8.166,11.289-9,18.157c-1.444,11.878,3.843,23.93,7.38,35.069.911,2.87.9,5.855,2.639,8.286l1.38-.08.171-.02c-.437-2.835.442-8.863.505-10.534a98.6,98.6,0,0,1,.8-10.086,56.436,56.436,0,0,1,2.181-9.965,25.422,25.422,0,0,1,4.88-8.86c1.919-2.183,4.286-3.924,6.308-6.011a25.891,25.891,0,0,0,4.744-6.818c1.4-2.933,2.18-6.609.358-9.3a8.274,8.274,0,0,0-2.985-2.52" transform="translate(-538.805 -1858.915)" fill="#2cd670"/>
            <path id="Trazado_678582" data-name="Trazado 678582" d="M336.685,2345.116c-5.451-6.42-11.027-11.015-17.046-14.047a129.805,129.805,0,0,0-12.127-5.116l-.139.364a129.4,129.4,0,0,1,12.091,5.1c13.353,6.726,21.739,19.628,29.849,32.1q.787,1.211,1.568,2.409l.326-.213q-.782-1.2-1.568-2.408a176.31,176.31,0,0,0-12.954-18.194" transform="translate(-271.17 -2052.007)" fill="#1c1c1b"/>
            <path id="Trazado_678583" data-name="Trazado 678583" d="M728.05,2471.07c-6.954,4.3-9.5,11.23-12.1,19.841l.373.113c2.578-8.531,5.094-15.392,11.929-19.621,4.574-2.747,9.961-2.847,14.289-2.927l-.007-.389c-4.375.081-9.82.182-14.485,2.984" transform="translate(-631.627 -2177.4)" fill="#1c1c1b"/>
            <path id="Trazado_678584" data-name="Trazado 678584" d="M686.5,2241.4l-.281-.27c-4.772,4.97-7.4,11.243-8.033,19.177-.558,7,.457,14.4,1.439,21.563.42,3.062.816,5.954,1.1,8.822l.388-.038c-.283-2.875-.68-5.771-1.1-8.837-.979-7.141-1.991-14.524-1.436-21.479.626-7.841,3.218-14.036,7.925-18.939" transform="translate(-598.174 -1977.174)" fill="#1c1c1b"/>
            <text id="DBMS" transform="translate(229.6 157.733)" font-size="15" font-family="Roboto-Black, Roboto" font-weight="800"><tspan x="-20.955" y="0">DBMS</tspan></text>
            <g id="Grupo_992384" data-name="Grupo 992384" transform="translate(127.364 47.749)" opacity="0.1">
              <g id="Grupo_992375" data-name="Grupo 992375">
                <g id="Grupo_992374" data-name="Grupo 992374" clip-path="url(#clip-path-6)">
                  <path id="Trazado_678487" data-name="Trazado 678487" d="M1081.392,405.418c.187,59.718,2.107,135.742,4.192,197.754h136.189c-13.308-63.963-28.626-137.561-41.174-197.754Z" transform="translate(-1081.392 -405.418)" fill="#fff"/>
                  <path id="Trazado_678488" data-name="Trazado 678488" d="M2223.212,405.418l46.55,197.754h41.928c-13.114-63.043-28.422-136.6-41.17-197.752Z" transform="translate(-2088.731 -405.418)" fill="#fff"/>
                </g>
              </g>
            </g>
          </g>
        </g>
      </g>
    </g>
  </g>
</svg>
