<svg xmlns="http://www.w3.org/2000/svg" xmlns:xlink="http://www.w3.org/1999/xlink" width="137" height="137" viewBox="0 0 137 137">
  <defs>
    <filter id="Elipse_7738" x="0" y="0" width="137" height="137" filterUnits="userSpaceOnUse">
      <feOffset dy="3" input="SourceAlpha"/>
      <feGaussianBlur stdDeviation="3" result="blur"/>
      <feFlood flood-opacity="0.161"/>
      <feComposite operator="in" in2="blur"/>
      <feComposite in="SourceGraphic"/>
    </filter>
  </defs>
  <g id="Grupo_996311" data-name="Grupo 996311" transform="translate(-6271 4794.619)">
    <g transform="matrix(1, 0, 0, 1, 6271, -4794.62)" filter="url(#Elipse_7738)">
      <circle id="Elipse_7738-2" data-name="Elipse 7738" cx="59.5" cy="59.5" r="59.5" transform="translate(9 6)" fill="#1b3f5e"/>
    </g>
    <g id="grupo" transform="translate(6287 -4778)">
      <path id="Trazado_680323" data-name="Trazado 680323" d="M311.752,165.7v-9.747a7.218,7.218,0,0,0-1.385-4.273,7.323,7.323,0,0,0-3.622-2.671l-1.385-1.385.267-.284L316.759,144s1.669,3.338,5.007,3.338S326.773,144,326.773,144l11.933,3.572a6.7,6.7,0,0,1,4.757,6.409v13.386H331.78V165.7a10.014,10.014,0,0,0-20.028,0Zm0,0" transform="translate(-241.652 -113.957)" fill="#529ddf"/>
      <path id="Trazado_680324" data-name="Trazado 680324" d="M39.712,160.039V165.7a10.014,10.014,0,1,0-20.028,0v1.669H8V153.981a6.7,6.7,0,0,1,4.757-6.409L24.69,144s1.669,3.338,5.007,3.338S34.7,144,34.7,144l10.565,3.171a17.619,17.619,0,0,0-5.558,12.868Zm0,0" transform="translate(-6.331 -113.957)" fill="#529ddf"/>
      <path id="Trazado_680325" data-name="Trazado 680325" d="M326.485,359.367H318.14A3.348,3.348,0,0,0,314.8,362.7v-10.4a10.013,10.013,0,0,0-7.761-9.747l-10.415-2.4-.067-.017a6.967,6.967,0,0,1,1.3-.567L309.794,336s1.669,3.338,5.007,3.338S319.809,336,319.809,336l11.933,3.572a6.7,6.7,0,0,1,4.757,6.409v13.386Zm0,0" transform="translate(-234.688 -265.9)" fill="#b4dd7f"/>
      <path id="Trazado_680326" data-name="Trazado 680326" d="M47.89,340.156l-10.432,2.4a10.013,10.013,0,0,0-7.761,9.747v10.4a3.348,3.348,0,0,0-3.338-3.338H8V345.981a6.7,6.7,0,0,1,4.757-6.409L24.69,336s1.669,3.338,5.007,3.338S34.7,336,34.7,336l11.933,3.572a6.965,6.965,0,0,1,1.3.567Zm0,0" transform="translate(-6.331 -265.9)" fill="#b4dd7f"/>
      <path id="Trazado_680327" data-name="Trazado 680327" d="M123.683,380.374H112V364.969a10.013,10.013,0,0,1,7.761-9.747l10.432-2.4L133.7,352H147.05l3.505.851.016-.033,10.415,2.4a10.013,10.013,0,0,1,7.761,9.747v15.405Zm0,0" transform="translate(-88.633 -278.562)" fill="#e6e9ed"/>
      <path id="Trazado_680328" data-name="Trazado 680328" d="M232.345,416l1.669,15.021H224L225.669,416Zm0,0" transform="translate(-177.267 -329.21)" fill="#529ddf"/>
      <path id="Trazado_680329" data-name="Trazado 680329" d="M233.6,379.088l-.15.25-1.669,5.007H225.1l-1.669-5.007-.15-.25L228.439,376Zm0,0" transform="translate(-176.698 -297.555)" fill="#529ddf"/>
      <path id="Trazado_680330" data-name="Trazado 680330" d="M258.131,352.8l.067.017-.016.033-1.836,9.163-3.188-1.919L248,357.007,254.676,352Zm0,0" transform="translate(-196.26 -278.562)" fill="#ccd1d9"/>
      <path id="Trazado_680331" data-name="Trazado 680331" d="M199.249,352.8l3.455-.8,6.676,5.007-5.157,3.088-3.188,1.919-1.836-9.2Zm0,0" transform="translate(-157.64 -278.562)" fill="#ccd1d9"/>
      <path id="Trazado_680332" data-name="Trazado 680332" d="M356.028,18.014v1.669h-2.654a5.7,5.7,0,0,1-4.023-1.669,5.7,5.7,0,0,1-4.023,1.669H336V18.014a10.014,10.014,0,0,1,20.029,0Zm0,0" transform="translate(-265.9 -6.331)" fill="#b27946"/>
      <path id="Trazado_680333" data-name="Trazado 680333" d="M84.028,19.683H74.7a5.7,5.7,0,0,1-4.023-1.669,5.7,5.7,0,0,1-4.023,1.669H64V18.014a10.014,10.014,0,0,1,20.028,0Zm0,0" transform="translate(-50.648 -6.331)" fill="#b27946"/>
      <path id="Trazado_680334" data-name="Trazado 680334" d="M360,121.52a9.948,9.948,0,0,0,10.014,0v4.69s-1.669,3.338-5.007,3.338S360,126.21,360,126.21Zm0,0" transform="translate(-284.893 -96.167)" fill="#f0d0b4"/>
      <path id="Trazado_680335" data-name="Trazado 680335" d="M351.021,69.67a9.948,9.948,0,0,1-10.014,0A9.988,9.988,0,0,1,336,61.008V57.67h9.33A5.7,5.7,0,0,0,349.352,56a5.7,5.7,0,0,0,4.023,1.669h2.654v3.338a9.923,9.923,0,0,1-2.937,7.077,9.614,9.614,0,0,1-2.07,1.585Zm0,0" transform="translate(-265.9 -44.317)" fill="#f0d0b4"/>
      <path id="Trazado_680336" data-name="Trazado 680336" d="M88,121.52l5.007,1.352a9.775,9.775,0,0,0,5.007-1.352v4.69s-1.669,3.338-5.007,3.338S88,126.21,88,126.21Zm0,0" transform="translate(-69.641 -96.167)" fill="#f0d0b4"/>
      <path id="Trazado_680337" data-name="Trazado 680337" d="M79.021,69.67a9.775,9.775,0,0,1-5.007,1.352L69.007,69.67a9.615,9.615,0,0,1-2.07-1.585A9.923,9.923,0,0,1,64,61.008V57.669h2.654A5.7,5.7,0,0,0,70.676,56,5.7,5.7,0,0,0,74.7,57.669h9.33v3.338a9.987,9.987,0,0,1-5.007,8.662Zm0,0" transform="translate(-50.648 -44.317)" fill="#f0d0b4"/>
      <path id="Trazado_680338" data-name="Trazado 680338" d="M342.676,210.014a5.7,5.7,0,0,1-4.023,1.669H336v-1.669a10.014,10.014,0,0,1,20.029,0v1.669H346.7a5.7,5.7,0,0,1-4.023-1.669Zm0,0" transform="translate(-265.9 -158.274)" fill="#b27946"/>
      <path id="Trazado_680339" data-name="Trazado 680339" d="M81.375,211.683a5.7,5.7,0,0,1-4.023-1.669,5.7,5.7,0,0,1-4.023,1.669H64v-1.669a10.014,10.014,0,0,1,20.028,0v1.669Zm0,0" transform="translate(-50.647 -158.274)" fill="#b27946"/>
      <path id="Trazado_680340" data-name="Trazado 680340" d="M165.559,140.84a17.666,17.666,0,0,1,18.927-3.488,17.869,17.869,0,0,1,5.741,3.838l1.486,1.486a7.322,7.322,0,0,1,3.622,2.671,7.218,7.218,0,0,1,1.385,4.273V162.7c0-.217-.016-.434-.033-.651a6.83,6.83,0,0,0-6.643-6.009,1.655,1.655,0,0,0-.284-.016h-3.054l-1.669-3.338A19.936,19.936,0,0,1,174,156.028H166.96a1.655,1.655,0,0,0-.284.016,6.83,6.83,0,0,0-6.643,6.009c-.017.218-.033.434-.033.651v-9a17.619,17.619,0,0,1,5.558-12.868Zm0,0" transform="translate(-126.62 -107.626)" fill="#fcd770"/>
      <g id="Grupo_993905" data-name="Grupo 993905" transform="translate(13.352 45.064)">
        <path id="Trazado_680341" data-name="Trazado 680341" d="M360,313.52a9.948,9.948,0,0,0,10.014,0v4.69s-1.669,3.338-5.007,3.338S360,318.21,360,318.21Zm0,0" transform="translate(-298.245 -293.174)" fill="#f0d0b4"/>
        <path id="Trazado_680342" data-name="Trazado 680342" d="M88,313.52l5.007,1.352a9.774,9.774,0,0,0,5.007-1.352v4.69s-1.669,3.338-5.007,3.338S88,318.21,88,318.21Zm0,0" transform="translate(-82.993 -293.174)" fill="#f0d0b4"/>
        <path id="Trazado_680343" data-name="Trazado 680343" d="M79.021,261.67a9.774,9.774,0,0,1-5.007,1.352l-5.007-1.352a9.614,9.614,0,0,1-2.07-1.585A9.923,9.923,0,0,1,64,253.008v-3.338h9.33A5.7,5.7,0,0,0,77.352,248a5.7,5.7,0,0,0,4.023,1.669h2.654v3.338a9.988,9.988,0,0,1-5.007,8.662Zm0,0" transform="translate(-64 -241.324)" fill="#f0d0b4"/>
        <path id="Trazado_680344" data-name="Trazado 680344" d="M341.007,261.67A9.988,9.988,0,0,1,336,253.008V249.67h2.654A5.7,5.7,0,0,0,342.676,248a5.7,5.7,0,0,0,4.023,1.669h9.33v3.338a9.923,9.923,0,0,1-2.937,7.077,9.615,9.615,0,0,1-2.07,1.585,9.948,9.948,0,0,1-10.014,0Zm0,0" transform="translate(-279.253 -241.324)" fill="#f0d0b4"/>
        <path id="Trazado_680345" data-name="Trazado 680345" d="M216,331.8V326.8l.15-.317c4.924,1.9,5.725,1.986,6.526,1.986a11.635,11.635,0,0,0,6.526-1.986l.15.317V331.8l-6.676,5.007Zm0,0" transform="translate(-184.288 -303.431)" fill="#f0d0b4"/>
        <path id="Trazado_680346" data-name="Trazado 680346" d="M308.967,238.738v.016a6.671,6.671,0,0,1-6.676,6.66l-.451-.117a11.377,11.377,0,0,0,.451-3.222v-10a6.83,6.83,0,0,1,6.643,6.009c.017.218.033.434.033.651Zm0,0" transform="translate(-252.219 -228.724)" fill="#f0d0b4"/>
        <path id="Trazado_680347" data-name="Trazado 680347" d="M166.676,242.076a11.376,11.376,0,0,0,.451,3.222l-.451.117a6.671,6.671,0,0,1-6.676-6.66v-.016c0-.217.016-.434.033-.651a6.83,6.83,0,0,1,6.643-6.009Zm0,0" transform="translate(-139.972 -228.724)" fill="#f0d0b4"/>
        <path id="Trazado_680348" data-name="Trazado 680348" d="M215.367,219.354v10a11.376,11.376,0,0,1-.451,3.222,11.666,11.666,0,0,1-11.233,8.462c-.8,0-1.6-.083-6.526-1.986a12.107,12.107,0,0,1-1.736-1.435,11.625,11.625,0,0,1-2.971-5.041,11.376,11.376,0,0,1-.451-3.222v-10a1.656,1.656,0,0,1,.284-.016h7.044A19.936,19.936,0,0,0,210.359,216l1.669,3.338h3.054a1.656,1.656,0,0,1,.284.016Zm0,0" transform="translate(-165.295 -216)" fill="#f0d0b4"/>
      </g>
      <path id="Trazado_680349" data-name="Trazado 680349" d="M103.481,53.409V40.017a8.294,8.294,0,0,0-5.947-7.993L86.79,28.8V26.265A11.671,11.671,0,0,0,91.8,16.692V11.683a11.683,11.683,0,0,0-23.367,0v5.007a11.666,11.666,0,0,0,5.007,9.573V28.8L63.97,31.64a19.288,19.288,0,0,0-25.438-.292L30.043,28.8V26.265a11.671,11.671,0,0,0,5.007-9.573V11.683a11.683,11.683,0,0,0-23.367,0v5.007a11.666,11.666,0,0,0,5.007,9.573V28.8L5.947,32.022A8.3,8.3,0,0,0,0,40.017V53.409H3.338V40.017a4.974,4.974,0,0,1,3.569-4.8L17.654,32a7.259,7.259,0,0,0,5.713,3.053A7.259,7.259,0,0,0,29.079,32l6.845,2.053a19.265,19.265,0,0,0-4.059,9.7A11.667,11.667,0,0,0,11.683,51.74v5.007a11.666,11.666,0,0,0,5.007,9.573v2.535L5.947,72.079A8.3,8.3,0,0,0,0,80.074V95.135H20.028A1.672,1.672,0,0,1,21.7,96.8v6.676H81.783V96.8a1.672,1.672,0,0,1,1.669-1.669h20.028V80.074a8.294,8.294,0,0,0-5.947-7.993L86.79,68.858V66.322A11.671,11.671,0,0,0,91.8,56.749V51.742A11.673,11.673,0,0,0,71.769,43.58V42a8.975,8.975,0,0,0-4.587-7.833L74.4,32a6.873,6.873,0,0,0,11.426,0l10.749,3.225a4.974,4.974,0,0,1,3.567,4.8V53.409ZM23.367,3.338a8.355,8.355,0,0,1,8.345,8.345H24.058a4.057,4.057,0,0,1-2.849-1.18l-1.18-1.18-1.18,1.18A4.057,4.057,0,0,1,16,11.683h-.978a8.355,8.355,0,0,1,8.345-8.345ZM15.021,16.69V15.021H16a7.309,7.309,0,0,0,4.029-1.2,7.309,7.309,0,0,0,4.029,1.2h7.654V16.69a8.345,8.345,0,0,1-16.69,0Zm8.345,15.021a4.271,4.271,0,0,1-3.338-2.128v-1.7a11.583,11.583,0,0,0,6.676,0v1.7a4.264,4.264,0,0,1-3.338,2.129ZM69.245,61.006a11.734,11.734,0,0,0,4.193,5.316v2.535L62.7,72.081a8.2,8.2,0,0,0-1.033.394l-1.577-.363V68.823a13.422,13.422,0,0,0,4.053-5.474,8.312,8.312,0,0,0,5.107-2.342ZM51.74,71.769a13.261,13.261,0,0,0,5.007-.983V72.6L51.74,76.359,46.733,72.6V70.786a13.261,13.261,0,0,0,5.007.983Zm-7.057,3.47,4.069,3.053L44.567,80.8l-1.059-5.292ZM49.9,88.459h3.689l1.3,11.683H48.6Zm3.979-3.338H49.6l-.958-2.874,3.094-1.856,3.093,1.856Zm.853-6.829L58.8,75.239l1.175.271L58.913,80.8Zm12.4-19.845A5.005,5.005,0,0,1,65.021,59.8a13.537,13.537,0,0,0,.072-1.379V50.43a5.04,5.04,0,0,1,3.313,4.15,4.979,4.979,0,0,1-1.276,3.867Zm-5.375-.03a10.014,10.014,0,1,1-20.028,0V50.071h5.666a21.465,21.465,0,0,0,10.341-2.642l1.32,2.642h2.7ZM38.46,59.8a4.934,4.934,0,0,1-.072-9.364v7.985A13.534,13.534,0,0,0,38.46,59.8Zm.883,3.553A13.393,13.393,0,0,0,43.4,68.823v3.288l-1.577.363a8.638,8.638,0,0,0-1.032-.394L30.043,68.858V66.322a11.745,11.745,0,0,0,4.193-5.316,8.312,8.312,0,0,0,5.107,2.342ZM23.367,43.4a8.355,8.355,0,0,1,8.345,8.345h-.978a4.057,4.057,0,0,1-2.849-1.18L26.7,49.38l-1.18,1.18a4.057,4.057,0,0,1-2.849,1.18H15.021A8.355,8.355,0,0,1,23.367,43.4ZM15.021,56.747V55.078h7.654a7.309,7.309,0,0,0,4.029-1.2,7.309,7.309,0,0,0,4.029,1.2h.978v1.669a8.345,8.345,0,1,1-16.69,0Zm8.345,11.683a11.613,11.613,0,0,0,3.338-.492v1.7a4.264,4.264,0,0,1-3.338,2.129,4.271,4.271,0,0,1-3.338-2.128v-1.7A11.669,11.669,0,0,0,23.367,68.431ZM20.028,91.8H13.352V80.114H10.014V91.8H3.338V80.074a4.974,4.974,0,0,1,3.569-4.8l10.747-3.225a7.259,7.259,0,0,0,5.713,3.053,7.259,7.259,0,0,0,5.713-3.053l6.329,1.9-4.655,1.073A11.632,11.632,0,0,0,21.7,86.411v2.048h3.338V86.411A8.309,8.309,0,0,1,31.5,78.28l8.749-2.019L42.221,86.1l3.492-2.094L46.7,86.97l-1.462,13.172h-8.52V86.79H33.381v13.352H25.036V96.8A5.014,5.014,0,0,0,20.028,91.8ZM96.574,75.279a4.974,4.974,0,0,1,3.569,4.8V91.8H93.466V80.114H90.128V91.8H83.452A5.014,5.014,0,0,0,78.445,96.8v3.338H70.1V86.79H66.762v13.352h-8.52L56.778,86.97l.988-2.964L61.257,86.1l1.967-9.841,8.751,2.019a8.309,8.309,0,0,1,6.469,8.132v2.048h3.338V86.411a11.632,11.632,0,0,0-9.056-11.384l-4.655-1.073,6.329-1.9a6.872,6.872,0,0,0,11.426,0ZM83.452,69.641a3.682,3.682,0,0,1-6.676,0v-1.7a11.565,11.565,0,0,0,6.676,0Zm-3.338-4.548a8.355,8.355,0,0,1-8.345-8.345V55.078h.978a7.309,7.309,0,0,0,4.029-1.2,7.309,7.309,0,0,0,4.029,1.2h7.654v1.669A8.355,8.355,0,0,1,80.114,65.093Zm0-21.7a8.355,8.355,0,0,1,8.345,8.345H80.805a4.057,4.057,0,0,1-2.849-1.18l-1.18-1.18L75.6,50.56a4.057,4.057,0,0,1-2.849,1.18h-.978A8.355,8.355,0,0,1,80.114,43.4ZM68.431,48.544a8.768,8.768,0,0,0-5.294-1.811H61.117l-2.053-4.106-1.573,1.048a18.146,18.146,0,0,1-10.1,3.058H40.344a8.768,8.768,0,0,0-5.294,1.811V46.076A16.034,16.034,0,0,1,62.42,34.738l1.771,1.771.374.126A5.647,5.647,0,0,1,68.431,42ZM80.114,3.338a8.355,8.355,0,0,1,8.345,8.345h-.978a4.057,4.057,0,0,1-2.849-1.18l-1.18-1.18-1.18,1.18a4.057,4.057,0,0,1-2.849,1.18H71.769a8.355,8.355,0,0,1,8.345-8.345ZM71.769,16.69V15.021h7.654a7.309,7.309,0,0,0,4.029-1.2,7.309,7.309,0,0,0,4.029,1.2h.978V16.69a8.345,8.345,0,0,1-16.69,0Zm8.345,15.021a4.268,4.268,0,0,1-3.338-2.128v-1.7a11.565,11.565,0,0,0,6.676,0v1.7a4.264,4.264,0,0,1-3.338,2.129Zm0,0" transform="translate(0 0)"/>
      <path id="Trazado_680350" data-name="Trazado 680350" d="M184,0h3.338V3.338H184Zm0,0" transform="translate(-145.612)"/>
      <path id="Trazado_680351" data-name="Trazado 680351" d="M184,32h3.338V50.359H184Zm0,0" transform="translate(-145.612 -25.324)"/>
      <path id="Trazado_680352" data-name="Trazado 680352" d="M296,0h3.338V3.338H296Zm0,0" transform="translate(-234.246)"/>
      <path id="Trazado_680353" data-name="Trazado 680353" d="M296,32h3.338V50.359H296Zm0,0" transform="translate(-234.246 -25.324)"/>
      <path id="Trazado_680354" data-name="Trazado 680354" d="M216,32h3.338V43.683H216Zm0,0" transform="translate(-170.936 -25.324)"/>
      <path id="Trazado_680355" data-name="Trazado 680355" d="M216,104h3.338v3.338H216Zm0,0" transform="translate(-170.936 -82.302)"/>
      <path id="Trazado_680356" data-name="Trazado 680356" d="M264,32h3.338V43.683H264Zm0,0" transform="translate(-208.922 -25.324)"/>
      <path id="Trazado_680357" data-name="Trazado 680357" d="M264,104h3.338v3.338H264Zm0,0" transform="translate(-208.922 -82.302)"/>
    </g>
  </g>
</svg>
