<svg xmlns="http://www.w3.org/2000/svg" xmlns:xlink="http://www.w3.org/1999/xlink" width="137" height="137" viewBox="0 0 137 137">
  <defs>
    <filter id="Elipse_7682" x="0" y="0" width="137" height="137" filterUnits="userSpaceOnUse">
      <feOffset dy="3" input="SourceAlpha"/>
      <feGaussianBlur stdDeviation="3" result="blur"/>
      <feFlood flood-opacity="0.161"/>
      <feComposite operator="in" in2="blur"/>
      <feComposite in="SourceGraphic"/>
    </filter>
  </defs>
  <g id="Grupo_996309" data-name="Grupo 996309" transform="translate(-733 -6904.576)">
    <g id="Grupo_996308" data-name="Grupo 996308">
      <g transform="matrix(1, 0, 0, 1, 733, 6904.58)" filter="url(#Elipse_7682)">
        <circle id="Elipse_7682-2" data-name="Elipse 7682" cx="59.5" cy="59.5" r="59.5" transform="translate(9 6)" fill="#1b3f5e"/>
      </g>
      <g id="desarrollo-de-aplicaciones" transform="translate(750 6922.504)">
        <path id="Trazado_680272" data-name="Trazado 680272" d="M59.718,58.209v3.209H18V58.209A3.218,3.218,0,0,1,21.209,55h35.3A3.218,3.218,0,0,1,59.718,58.209Z" transform="translate(10.882 33.249)" fill="#dedede"/>
        <path id="Trazado_680273" data-name="Trazado 680273" d="M53.7,51l1.6,6.418H20L21.6,51Z" transform="translate(12.091 30.831)" fill="#969696"/>
        <path id="Trazado_680274" data-name="Trazado 680274" d="M7.418,55.836A6.418,6.418,0,0,1,1,49.418V43h99.481v6.418a6.418,6.418,0,0,1-6.418,6.418Z" transform="translate(0.605 25.995)" fill="#b5b5b5"/>
        <path id="Trazado_680275" data-name="Trazado 680275" d="M100.481,7.418V68.39H1V7.418A6.418,6.418,0,0,1,7.418,1H94.063A6.418,6.418,0,0,1,100.481,7.418Z" transform="translate(0.605 0.605)" fill="#f2f2f2"/>
        <path id="Trazado_680276" data-name="Trazado 680276" d="M29.825,52.6H54.1L53.7,51H21.6L20,57.418h3.615A6.418,6.418,0,0,1,29.825,52.6Z" transform="translate(12.091 30.831)" fill="gray"/>
        <path id="Trazado_680277" data-name="Trazado 680277" d="M23.109,55h-1.9A3.218,3.218,0,0,0,18,58.209v3.209H59.718V58.209H27.627A4.8,4.8,0,0,1,23.109,55Z" transform="translate(10.882 33.249)" fill="#b5b5b5"/>
        <path id="Trazado_680278" data-name="Trazado 680278" d="M97.272,43v6.418a3.208,3.208,0,0,1-3.209,3.209H7.418a3.208,3.208,0,0,1-3.209-3.209V43H1v6.418a6.418,6.418,0,0,0,6.418,6.418H94.063a6.418,6.418,0,0,0,6.418-6.418V43Z" transform="translate(0.605 25.995)" fill="#a3a3a3"/>
        <path id="Trazado_680279" data-name="Trazado 680279" d="M94.063,1H7.418A6.418,6.418,0,0,0,1,7.418V68.39H4.209V7.418A3.208,3.208,0,0,1,7.418,4.209H94.063a3.208,3.208,0,0,1,3.209,3.209V68.39h3.209V7.418A6.418,6.418,0,0,0,94.063,1Z" transform="translate(0.605 0.605)" fill="#dedede"/>
        <path id="Trazado_680280" data-name="Trazado 680280" d="M90.436,3H7C7,34.93,45.753,60.763,93.645,60.763V6.209A3.208,3.208,0,0,0,90.436,3Z" transform="translate(4.232 1.814)" fill="#fff"/>
        <path id="Trazado_680281" data-name="Trazado 680281" d="M31,57H75.927v3.209a6.418,6.418,0,0,1-6.418,6.418H37.418A6.418,6.418,0,0,1,31,60.209Z" transform="translate(18.74 34.458)" fill="#5acafa"/>
        <path id="Trazado_680282" data-name="Trazado 680282" d="M75.927,21.418v1.6H64.7s0,4.814-3.209,4.814H45.441c-3.209,0-3.209-4.814-3.209-4.814H31v-1.6A6.418,6.418,0,0,1,37.418,15H69.509A6.418,6.418,0,0,1,75.927,21.418Z" transform="translate(18.74 9.068)" fill="#5acafa"/>
        <path id="Trazado_680283" data-name="Trazado 680283" d="M75.927,20V79.368H31V20H42.232s0,4.814,3.209,4.814H61.486C64.7,24.814,64.7,20,64.7,20Z" transform="translate(18.74 12.091)" fill="#dedede"/>
        <path id="Trazado_680284" data-name="Trazado 680284" d="M41.209,24.814H57.254c3.209,0,3.209-4.814,3.209-4.814H38S38,24.814,41.209,24.814Z" transform="translate(22.972 12.091)" fill="#5acafa"/>
        <path id="Trazado_680285" data-name="Trazado 680285" d="M69.509,63.418H37.418A6.418,6.418,0,0,1,31,57v3.209a6.418,6.418,0,0,0,6.418,6.418H69.509a6.418,6.418,0,0,0,6.418-6.418V57A6.418,6.418,0,0,1,69.509,63.418Z" transform="translate(18.74 34.458)" fill="#1c99eb"/>
        <path id="Trazado_680286" data-name="Trazado 680286" d="M62.277,20s0,4.814-3.209,4.814H43.023c-3.209,0-3.209-4.814-3.209-4.814H35c0,26.606,17.223,48.136,38.509,48.136V20Z" transform="translate(21.159 12.091)" fill="#f2f2f2"/>
        <path id="Trazado_680287" data-name="Trazado 680287" d="M37.418,18.209H69.509A6.4,6.4,0,0,1,75.7,23.023h.226v-1.6A6.418,6.418,0,0,0,69.509,15H37.418A6.418,6.418,0,0,0,31,21.418v1.6h.226A6.4,6.4,0,0,1,37.418,18.209Z" transform="translate(18.74 9.068)" fill="#1c99eb"/>
        <circle id="Elipse_7742" data-name="Elipse 7742" cx="16" cy="16" r="16" transform="translate(56 46.69)" fill="#0af"/>
        <path id="Trazado_680288" data-name="Trazado 680288" d="M38,44.232l8.023,8.023L60.463,37.814,55.65,33l-9.627,9.627-3.209-3.209Z" transform="translate(22.972 19.95)" fill="#f2f2f2"/>
        <path id="Trazado_680289" data-name="Trazado 680289" d="M40.3,25.859V19.441H36.72a14.358,14.358,0,0,0-1.855-4.469L37.4,12.439,32.861,7.9l-2.534,2.534A14.357,14.357,0,0,0,25.859,8.58V5H19.441V8.58a14.357,14.357,0,0,0-4.469,1.855L12.439,7.9,7.9,12.439l2.534,2.534A14.357,14.357,0,0,0,8.58,19.441H5v6.418H8.58a14.357,14.357,0,0,0,1.855,4.469L7.9,32.861,12.439,37.4l2.534-2.534a14.358,14.358,0,0,0,4.469,1.855V40.3h6.418V36.72a14.358,14.358,0,0,0,4.469-1.855L32.861,37.4,37.4,32.861l-2.534-2.534a14.358,14.358,0,0,0,1.855-4.469Z" transform="translate(3.023 3.023)" fill="#939393"/>
        <ellipse id="Elipse_7743" data-name="Elipse 7743" cx="6.5" cy="6" rx="6.5" ry="6" transform="translate(19 19.69)" fill="#fff"/>
        <circle id="Elipse_7744" data-name="Elipse 7744" cx="6.5" cy="6.5" r="6.5" transform="translate(37 55.69)" fill="none"/>
        <path id="Trazado_680290" data-name="Trazado 680290" d="M27.232,45.65a6.418,6.418,0,1,1,12.836,0V32.735a14.251,14.251,0,0,0-3.209-1.155V28H30.441v3.58a14.358,14.358,0,0,0-4.469,1.855L23.439,30.9,18.9,35.439l2.534,2.534a14.357,14.357,0,0,0-1.855,4.469H16v6.418h3.58a14.251,14.251,0,0,0,1.155,3.209H33.65a6.418,6.418,0,0,1-6.418-6.418Z" transform="translate(9.672 16.927)" fill="#8e8d92"/>
        <path id="Trazado_680291" data-name="Trazado 680291" d="M27,45.418h6.418V39A6.418,6.418,0,0,1,27,45.418Z" transform="translate(16.322 23.577)" fill="#8e8d92"/>
        <path id="Trazado_680292" data-name="Trazado 680292" d="M51.623,49.193l-3.792,3.792-8.023-8.023L42.376,42.4a15.741,15.741,0,0,1-2.431-10.611,16.037,16.037,0,1,0,27.02,13.5,15.913,15.913,0,0,1-15.334,3.9Z" transform="translate(21.163 19.219)" fill="#007aff"/>
        <path id="Trazado_680293" data-name="Trazado 680293" d="M46.023,48.987,49.814,45.2a16.056,16.056,0,0,1-9.247-6.79L38,40.964Z" transform="translate(22.972 23.217)" fill="#dedede"/>
        <path id="Trazado_680294" data-name="Trazado 680294" d="M27,56h6.418v1.6H27Z" transform="translate(16.322 33.854)" fill="#b5b5b5"/>
        <g id="Grupo_993904" data-name="Grupo 993904" transform="translate(43.322 70.585)">
          <path id="Trazado_680295" data-name="Trazado 680295" d="M27,52h6.418v4.814H27Z" transform="translate(-27 -39.149)" fill="#706f73"/>
          <path id="Trazado_680296" data-name="Trazado 680296" d="M27,52h1.98a6.515,6.515,0,0,1,4.98,3.209H27Z" transform="translate(-27 -39.149)" fill="#706f73"/>
          <path id="Trazado_680297" data-name="Trazado 680297" d="M27,43.991h6.418v8.037H27Z" transform="translate(-27 -43.991)" fill="#706f73"/>
        </g>
        <path id="Trazado_680298" data-name="Trazado 680298" d="M27,50h6.418v3.209H27Z" transform="translate(16.322 30.227)" fill="#454547"/>
        <path id="Trazado_680299" data-name="Trazado 680299" d="M27,43.028v1.6h4.814l1.68-1.68" transform="translate(16.322 25.966)" fill="#666569"/>
        <path id="Trazado_680300" data-name="Trazado 680300" d="M27,54h6.418v3.209H27Z" transform="translate(16.322 32.645)" fill="#454547"/>
        <path id="Trazado_680301" data-name="Trazado 680301" d="M32.98,15h4.836l-7.11,7.111L29.2,23.623V18.732Z" transform="translate(17.649 9.068)" fill="#e8e6e6"/>
        <path id="Trazado_680302" data-name="Trazado 680302" d="M27,57h6.418v3.209H27Z" transform="translate(16.322 34.458)" fill="gray"/>
        <path id="Trazado_680303" data-name="Trazado 680303" d="M27,49h6.418v1.622H27Z" transform="translate(16.322 29.622)" fill="#7c7b7b"/>
        <path id="Trazado_680304" data-name="Trazado 680304" d="M30.209,40.552a12.757,12.757,0,0,1,3.209,1.391V18.862A8.872,8.872,0,0,1,34.307,15h-.889C29.874,15,27,18.459,27,22.726V36.244h3.209Z" transform="translate(16.322 9.068)" fill="#e8e6e6"/>
        <path id="Trazado_680305" data-name="Trazado 680305" d="M33.418,41.418A6.418,6.418,0,0,0,27,35V47.836A6.418,6.418,0,0,0,33.418,41.418Z" transform="translate(16.322 21.159)" fill="#cfcfcf"/>
        <path id="Trazado_680306" data-name="Trazado 680306" d="M30.209,31.58V28H27V39.232a6.418,6.418,0,0,1,6.418,6.418V32.735A14.251,14.251,0,0,0,30.209,31.58Z" transform="translate(16.322 16.927)" fill="#706f73"/>
        <path id="Trazado_680307" data-name="Trazado 680307" d="M33.418,39A6.418,6.418,0,0,1,27,45.418h6.418Z" transform="translate(16.322 23.577)" fill="#666569"/>
        <path id="Trazado_680308" data-name="Trazado 680308" d="M3.209,8.023A4.813,4.813,0,0,1,8.023,3.209h3.209V0H8.023A8.032,8.032,0,0,0,0,8.023v67.39a8.032,8.032,0,0,0,8.023,8.023H31.64l-.852,3.411a4.812,4.812,0,0,0-3.511,4.611v3.209a1.605,1.605,0,0,0,1.6,1.6H43.322V93.063H30.486v-1.6a1.605,1.605,0,0,1,1.6-1.6H43.322V86.645H34.146l.8-3.209h8.374V80.227H8.023a4.813,4.813,0,0,1-4.814-4.814V70.6H43.322V67.39H3.209Z"/>
        <path id="Trazado_680309" data-name="Trazado 680309" d="M9,0h3.211V3.209H9Z" transform="translate(5.441)"/>
        <path id="Trazado_680310" data-name="Trazado 680310" d="M86.808,0H13V3.209H86.808a4.813,4.813,0,0,1,4.814,4.814v67.39a4.813,4.813,0,0,1-3.209,4.518V30.486a8.032,8.032,0,0,0-8.023-8.023H48.3a8.032,8.032,0,0,0-8.023,8.023V94.667A8.032,8.032,0,0,0,48.3,102.69H80.39a8.032,8.032,0,0,0,8.023-8.023V83.275a8.037,8.037,0,0,0,6.418-7.862V8.023A8.032,8.032,0,0,0,86.808,0ZM48.3,25.672H80.39A4.813,4.813,0,0,1,85.2,30.486H75.577a1.605,1.605,0,0,0-1.6,1.6c0,.032-.09,3.209-1.6,3.209H56.322c-1.515,0-1.6-3.182-1.6-3.209a1.605,1.605,0,0,0-1.6-1.6H43.486A4.813,4.813,0,0,1,48.3,25.672ZM85.2,33.7V89.854H43.486V33.7h8.172c.4,2.195,1.657,4.814,4.664,4.814H72.368c3.007,0,4.266-2.619,4.664-4.814ZM80.39,99.481H48.3a4.813,4.813,0,0,1-4.814-4.814v-1.6H85.2v1.6A4.813,4.813,0,0,1,80.39,99.481Z" transform="translate(7.859)"/>
        <path id="Trazado_680311" data-name="Trazado 680311" d="M4,46H7.209v3.209H4Z" transform="translate(2.418 27.808)"/>
        <path id="Trazado_680312" data-name="Trazado 680312" d="M8,46h9.627v3.209H8Z" transform="translate(4.836 27.808)"/>
        <path id="Trazado_680313" data-name="Trazado 680313" d="M41,18H53.836v3.209H41Z" transform="translate(24.786 10.882)"/>
        <path id="Trazado_680314" data-name="Trazado 680314" d="M41,59H53.836v3.209H41Z" transform="translate(24.786 35.667)"/>
        <path id="Trazado_680315" data-name="Trazado 680315" d="M7.37,14.178l1.664,1.666a16.027,16.027,0,0,0-1.077,2.6H5.6a1.605,1.605,0,0,0-1.6,1.6v6.418a1.605,1.605,0,0,0,1.6,1.6H7.957a16.034,16.034,0,0,0,1.078,2.6L7.37,32.331a1.606,1.606,0,0,0,0,2.269l4.539,4.539a1.606,1.606,0,0,0,2.269,0l1.666-1.664a16.027,16.027,0,0,0,2.6,1.077V40.9a1.605,1.605,0,0,0,1.6,1.6h6.418a1.605,1.605,0,0,0,1.6-1.6V38.552a16.034,16.034,0,0,0,2.6-1.078l1.666,1.666a1.606,1.606,0,0,0,2.269,0L39.139,34.6a1.606,1.606,0,0,0,0-2.269l-1.664-1.666a16.027,16.027,0,0,0,1.077-2.6H40.9a1.605,1.605,0,0,0,1.6-1.6V20.045a1.605,1.605,0,0,0-1.6-1.6H38.552a16.034,16.034,0,0,0-1.078-2.6l1.666-1.666a1.606,1.606,0,0,0,0-2.269L34.6,7.37a1.606,1.606,0,0,0-2.269,0L30.666,9.035a16.034,16.034,0,0,0-2.6-1.078V5.6a1.605,1.605,0,0,0-1.6-1.6H20.045a1.605,1.605,0,0,0-1.6,1.6V7.957a16.034,16.034,0,0,0-2.6,1.078L14.178,7.37a1.606,1.606,0,0,0-2.269,0L7.37,11.909a1.606,1.606,0,0,0,0,2.269Zm3.37,6.224a12.691,12.691,0,0,1,1.648-3.968,1.6,1.6,0,0,0-.223-1.991l-1.4-1.4,2.278-2.269,1.4,1.4a1.6,1.6,0,0,0,1.991.223A12.691,12.691,0,0,1,20.4,10.749,1.607,1.607,0,0,0,21.65,9.183V7.209h3.209V9.183a1.607,1.607,0,0,0,1.248,1.566A12.691,12.691,0,0,1,30.075,12.4a1.6,1.6,0,0,0,1.991-.223l1.4-1.4,2.269,2.269-1.4,1.4a1.6,1.6,0,0,0-.223,1.991A12.691,12.691,0,0,1,35.76,20.4a1.607,1.607,0,0,0,1.566,1.248H39.3v3.209H37.326a1.607,1.607,0,0,0-1.566,1.248,12.691,12.691,0,0,1-1.648,3.968,1.6,1.6,0,0,0,.223,1.991l1.4,1.4-2.269,2.269-1.4-1.4a1.6,1.6,0,0,0-1.991-.223,12.691,12.691,0,0,1-3.968,1.648,1.607,1.607,0,0,0-1.248,1.566V39.3H21.65V37.326A1.607,1.607,0,0,0,20.4,35.76a12.691,12.691,0,0,1-3.968-1.648,1.6,1.6,0,0,0-1.991.223l-1.4,1.4-2.269-2.269,1.4-1.4a1.6,1.6,0,0,0,.223-1.991,12.691,12.691,0,0,1-1.648-3.968,1.607,1.607,0,0,0-1.566-1.248H7.209V21.65H9.183A1.607,1.607,0,0,0,10.749,20.4Z" transform="translate(2.418 2.418)"/>
        <path id="Trazado_680316" data-name="Trazado 680316" d="M19.023,27.045A8.023,8.023,0,1,0,11,19.023,8.024,8.024,0,0,0,19.023,27.045Zm0-12.836a4.814,4.814,0,1,1-4.814,4.814A4.813,4.813,0,0,1,19.023,14.209Z" transform="translate(6.65 6.65)"/>
        <path id="Trazado_680317" data-name="Trazado 680317" d="M29.441,28.6v2.352a16.034,16.034,0,0,0-2.6,1.078L25.178,30.37a1.606,1.606,0,0,0-2.269,0L18.37,34.909a1.606,1.606,0,0,0,0,2.269l1.664,1.665a16.027,16.027,0,0,0-1.077,2.6H16.6a1.605,1.605,0,0,0-1.6,1.6v6.418h3.209V44.65h1.974A1.607,1.607,0,0,0,21.749,43.4,12.691,12.691,0,0,1,23.4,39.434a1.6,1.6,0,0,0-.223-1.991l-1.4-1.4,2.269-2.269,1.4,1.4a1.6,1.6,0,0,0,1.991.223A12.691,12.691,0,0,1,31.4,33.749a1.607,1.607,0,0,0,1.248-1.566V30.209h1.6V27H31.045a1.605,1.605,0,0,0-1.6,1.6Z" transform="translate(9.068 16.322)"/>
        <path id="Trazado_680318" data-name="Trazado 680318" d="M30.023,37.209V34A8.032,8.032,0,0,0,22,42.023h3.209A4.813,4.813,0,0,1,30.023,37.209Z" transform="translate(13.3 20.554)"/>
        <path id="Trazado_680319" data-name="Trazado 680319" d="M34,45.65A17.65,17.65,0,1,0,51.65,28,17.65,17.65,0,0,0,34,45.65Zm32.091,0A14.441,14.441,0,1,1,51.65,31.209,14.44,14.44,0,0,1,66.091,45.65Z" transform="translate(20.554 16.927)"/>
        <path id="Trazado_680320" data-name="Trazado 680320" d="M44.552,38.888a1.606,1.606,0,0,0-2.269,0L37.47,43.7a1.606,1.606,0,0,0,0,2.269l8.023,8.023a1.606,1.606,0,0,0,2.269,0L62.2,39.552a1.606,1.606,0,0,0,0-2.269L57.388,32.47a1.606,1.606,0,0,0-2.269,0l-8.493,8.493Zm11.7-3.015L58.8,38.418,46.627,50.59l-5.754-5.754,2.545-2.545,2.075,2.075a1.606,1.606,0,0,0,2.269,0Z" transform="translate(22.368 19.345)"/>
        <path id="Trazado_680321" data-name="Trazado 680321" d="M57,4h3.209V7.209H57Z" transform="translate(34.458 2.418)"/>
        <path id="Trazado_680322" data-name="Trazado 680322" d="M42,4H62.859V7.209H42Z" transform="translate(25.39 2.418)"/>
      </g>
    </g>
  </g>
</svg>
