<svg xmlns="http://www.w3.org/2000/svg" xmlns:xlink="http://www.w3.org/1999/xlink" width="137" height="137" viewBox="0 0 137 137">
  <defs>
    <filter id="Elipse_7751" x="0" y="0" width="137" height="137" filterUnits="userSpaceOnUse">
      <feOffset dy="3" input="SourceAlpha"/>
      <feGaussianBlur stdDeviation="3" result="blur"/>
      <feFlood flood-opacity="0.161"/>
      <feComposite operator="in" in2="blur"/>
      <feComposite in="SourceGraphic"/>
    </filter>
  </defs>
  <g id="Grupo_996307" data-name="Grupo 996307" transform="translate(-383 -9381.494)">
    <g transform="matrix(1, 0, 0, 1, 383, 9381.49)" filter="url(#Elipse_7751)">
      <circle id="Elipse_7751-2" data-name="Elipse 7751" cx="59.5" cy="59.5" r="59.5" transform="translate(9 6)" fill="#1b3f5e"/>
    </g>
    <g id="Website_optimization" data-name="Website optimization" transform="translate(402 9404.111)">
      <path id="Trazado_680439" data-name="Trazado 680439" d="M95.8,19H3V76.6H95.8Z" transform="translate(0.6 10.2)" fill="#ade7f7"/>
      <path id="Trazado_680440" data-name="Trazado 680440" d="M11,3V70.2H78.2V3Z" transform="translate(5.4 0.6)" fill="#e6e6e6"/>
      <path id="Trazado_680441" data-name="Trazado 680441" d="M32,19H78.4V76.6H32Z" transform="translate(18 10.2)" fill="#d6f4fc"/>
      <path id="Trazado_680442" data-name="Trazado 680442" d="M32,3H65.6V70.2H32Z" transform="translate(18 0.6)" fill="#ccc"/>
      <path id="Trazado_680443" data-name="Trazado 680443" d="M69.4,37.4V47H65.72a23.99,23.99,0,0,1-3.5,8.432H22.184A23.99,23.99,0,0,1,18.68,47H15V37.4h3.68a23.99,23.99,0,0,1,3.5-8.432L19.576,26.36l6.784-6.784,2.608,2.608a23.991,23.991,0,0,1,8.432-3.5V15H47v3.68a23.991,23.991,0,0,1,8.432,3.5l2.608-2.608,6.784,6.784-2.608,2.608a23.99,23.99,0,0,1,3.5,8.432Z" transform="translate(7.8 7.8)" fill="#ff0"/>
      <path id="Trazado_680444" data-name="Trazado 680444" d="M59.2,37.4V47H55.52a23.99,23.99,0,0,1-3.5,8.432H32V15h4.8v3.68a23.991,23.991,0,0,1,8.432,3.5l2.608-2.608,6.784,6.784-2.608,2.608a23.99,23.99,0,0,1,3.5,8.432Z" transform="translate(18 7.8)" fill="#ffda00"/>
      <path id="Trazado_680445" data-name="Trazado 680445" d="M33.2,26S30,38.64,30,40.4a3.2,3.2,0,1,0,6.4,0C36.4,38.64,33.2,26,33.2,26Z" transform="translate(16.8 14.4)" fill="#fc297a"/>
      <path id="Trazado_680446" data-name="Trazado 680446" d="M11,3H78.2V15.8H11Z" transform="translate(5.4 0.6)" fill="#124b97"/>
      <path id="Trazado_680447" data-name="Trazado 680447" d="M32,3H65.6V15.8H32Z" transform="translate(18 0.6)" fill="#0f58b9"/>
      <path id="Trazado_680448" data-name="Trazado 680448" d="M3,51v6.4H95.8V51Z" transform="translate(0.6 29.4)" fill="#124b97"/>
      <path id="Trazado_680449" data-name="Trazado 680449" d="M32,51H78.4v6.4H32Z" transform="translate(18 29.4)" fill="#0f58b9"/>
      <path id="Trazado_680450" data-name="Trazado 680450" d="M96.4,27.6H85.2V3.6A1.6,1.6,0,0,0,83.6,2H16.4a1.6,1.6,0,0,0-1.6,1.6v24H3.6A1.6,1.6,0,0,0,2,29.2V86.8a1.6,1.6,0,0,0,1.6,1.6H42.98l-2.133,6.4H35.6a1.6,1.6,0,1,0,0,3.2H64.4a1.6,1.6,0,0,0,0-3.2H59.153L57.02,88.4H96.4A1.6,1.6,0,0,0,98,86.8V29.2a1.6,1.6,0,0,0-1.6-1.6ZM18,18H82V69.2H18ZM82,5.2v9.6H18V5.2ZM14.8,30.8v40a1.6,1.6,0,0,0,1.6,1.6H83.6a1.6,1.6,0,0,0,1.6-1.6v-40h9.6v48H5.2v-48Zm40.98,64H44.22l2.134-6.4h7.294ZM94.8,85.2H5.2V82H94.8Z"/>
      <path id="Trazado_680451" data-name="Trazado 680451" d="M70,36.4H67.592a25.343,25.343,0,0,0-2.745-6.6l1.727-1.726a1.577,1.577,0,0,0,0-2.223l-6.8-6.8a1.6,1.6,0,0,0-2.262,0L55.8,20.752a25.369,25.369,0,0,0-6.6-2.745V15.6A1.6,1.6,0,0,0,47.6,14H38a1.6,1.6,0,0,0-1.6,1.6v2.408a25.369,25.369,0,0,0-6.6,2.745L28.07,19.024a1.574,1.574,0,0,0-2.22,0l-6.831,6.831a1.568,1.568,0,0,0,0,2.212L20.752,29.8a25.343,25.343,0,0,0-2.745,6.6H15.6A1.6,1.6,0,0,0,14,38v9.6a1.6,1.6,0,0,0,1.6,1.6h2.408a25.367,25.367,0,0,0,2.647,6.4H16.4a1.6,1.6,0,0,0,0,3.2H69.2a1.6,1.6,0,0,0,0-3.2H64.945a25.367,25.367,0,0,0,2.647-6.4H70a1.6,1.6,0,0,0,1.6-1.6V38A1.6,1.6,0,0,0,70,36.4ZM68.4,46H66.32a1.6,1.6,0,0,0-1.568,1.279A27.231,27.231,0,0,1,61.3,55.6h-37a27.03,27.03,0,0,1-3.454-8.32A1.6,1.6,0,0,0,19.28,46H17.2V39.6h2.08a1.6,1.6,0,0,0,1.568-1.279,22.243,22.243,0,0,1,3.27-7.869,1.6,1.6,0,0,0-.2-2.015L22.439,26.96l4.521-4.521,1.477,1.477a1.6,1.6,0,0,0,2.015.2,22.243,22.243,0,0,1,7.869-3.27A1.6,1.6,0,0,0,39.6,19.28V17.2H46v2.08a1.6,1.6,0,0,0,1.279,1.568,22.243,22.243,0,0,1,7.869,3.27,1.6,1.6,0,0,0,2.015-.2l1.477-1.477,4.521,4.521-1.477,1.477a1.6,1.6,0,0,0-.2,2.015,22.243,22.243,0,0,1,3.27,7.869A1.6,1.6,0,0,0,66.32,39.6H68.4Z" transform="translate(7.2 7.2)"/>
      <path id="Trazado_680452" data-name="Trazado 680452" d="M32.6,25.4a1.6,1.6,0,0,0,1.6-1.6V20.6a1.6,1.6,0,1,0-3.2,0v3.2A1.6,1.6,0,0,0,32.6,25.4Z" transform="translate(17.4 10.2)"/>
      <path id="Trazado_680453" data-name="Trazado 680453" d="M24.84,22.985a1.6,1.6,0,1,0-2.263,2.263l2.263,2.263A1.6,1.6,0,0,0,27.1,25.248Z" transform="translate(12.065 12.31)"/>
      <path id="Trazado_680454" data-name="Trazado 680454" d="M41.208,22.985l-2.263,2.263a1.6,1.6,0,1,0,2.263,2.263l2.263-2.263a1.6,1.6,0,1,0-2.263-2.263Z" transform="translate(21.886 12.31)"/>
      <path id="Trazado_680455" data-name="Trazado 680455" d="M46.8,31H43.6a1.6,1.6,0,1,0,0,3.2h3.2a1.6,1.6,0,1,0,0-3.2Z" transform="translate(24 17.4)"/>
      <path id="Trazado_680456" data-name="Trazado 680456" d="M22.8,31H19.6a1.6,1.6,0,1,0,0,3.2h3.2a1.6,1.6,0,1,0,0-3.2Z" transform="translate(9.6 17.4)"/>
      <path id="Trazado_680457" data-name="Trazado 680457" d="M33.8,25a1.6,1.6,0,0,0-1.551,1.207C31.487,29.216,29,39.175,29,41a4.8,4.8,0,0,0,9.6,0c0-1.825-2.487-11.784-3.249-14.793A1.6,1.6,0,0,0,33.8,25Zm0,17.6A1.6,1.6,0,0,1,32.2,41a78.172,78.172,0,0,1,1.6-7.683A78.174,78.174,0,0,1,35.4,41a1.6,1.6,0,0,1-1.6,1.6Z" transform="translate(16.2 13.8)"/>
      <path id="Trazado_680458" data-name="Trazado 680458" d="M47.6,9.2h3.2a1.6,1.6,0,0,0,0-3.2H47.6a1.6,1.6,0,0,0,0,3.2Z" transform="translate(26.4 2.4)"/>
      <path id="Trazado_680459" data-name="Trazado 680459" d="M41.6,9.2h3.2a1.6,1.6,0,0,0,0-3.2H41.6a1.6,1.6,0,0,0,0,3.2Z" transform="translate(22.8 2.4)"/>
      <path id="Trazado_680460" data-name="Trazado 680460" d="M35.6,9.2h3.2a1.6,1.6,0,0,0,0-3.2H35.6a1.6,1.6,0,0,0,0,3.2Z" transform="translate(19.2 2.4)"/>
      <path id="Trazado_680461" data-name="Trazado 680461" d="M15.6,9.2h16a1.6,1.6,0,1,0,0-3.2h-16a1.6,1.6,0,1,0,0,3.2Z" transform="translate(7.2 2.4)"/>
    </g>
  </g>
</svg>
