<svg xmlns="http://www.w3.org/2000/svg" xmlns:xlink="http://www.w3.org/1999/xlink" width="137" height="137" viewBox="0 0 137 137">
  <defs>
    <filter id="Elipse_7752" x="0" y="0" width="137" height="137" filterUnits="userSpaceOnUse">
      <feOffset dy="3" input="SourceAlpha"/>
      <feGaussianBlur stdDeviation="3" result="blur"/>
      <feFlood flood-opacity="0.161"/>
      <feComposite operator="in" in2="blur"/>
      <feComposite in="SourceGraphic"/>
    </filter>
  </defs>
  <g id="Grupo_996310" data-name="Grupo 996310" transform="translate(-6338 2287.618)">
    <g transform="matrix(1, 0, 0, 1, 6338, -2287.62)" filter="url(#Elipse_7752)">
      <circle id="Elipse_7752-2" data-name="Elipse 7752" cx="59.5" cy="59.5" r="59.5" transform="translate(9 6)" fill="#1b3f5e"/>
    </g>
    <g id="Computer-Engineer-Gear-Monitor-Construction" transform="translate(6359.792 -2272.417)">
      <path id="Trazado_680492" data-name="Trazado 680492" d="M88.347,19.828V60.794H3V19.828A6.828,6.828,0,0,1,9.828,13H81.519A6.828,6.828,0,0,1,88.347,19.828Z" transform="translate(0.707 7.776)" fill="#5aaae7"/>
      <path id="Trazado_680493" data-name="Trazado 680493" d="M88.347,41v6.828a6.828,6.828,0,0,1-6.828,6.828H9.828A6.828,6.828,0,0,1,3,47.828V41Z" transform="translate(0.707 27.571)" fill="#c6c5ca"/>
      <path id="Trazado_680494" data-name="Trazado 680494" d="M64.311,19.828V41.216c-.29.085-.6.171-.9.256l-.8,5.667H55.776l-.8-5.667A16.728,16.728,0,0,1,50.5,39.611L45.91,43.059,41.08,38.229l3.448-4.592a16.728,16.728,0,0,1-1.861-4.472L37,28.362V21.535l5.667-.8a16.091,16.091,0,0,1,1.775-4.319.691.691,0,0,1,.085-.154L42.087,13h15.4a6.828,6.828,0,0,1,6.828,6.828Z" transform="translate(24.743 7.776)" fill="#3d9ae2"/>
      <path id="Trazado_680495" data-name="Trazado 680495" d="M73.713,31.406a16.728,16.728,0,0,1-1.861,4.472L75.3,40.47,70.47,45.3l-4.592-3.448a.692.692,0,0,1-.154.085,16.091,16.091,0,0,1-4.319,1.775l-.8,5.667H53.776l-.8-5.667A16.728,16.728,0,0,1,48.5,41.853L43.91,45.3,39.08,40.47l3.448-4.592a16.728,16.728,0,0,1-1.861-4.472L35,30.6V23.776l5.667-.8a16.091,16.091,0,0,1,1.775-4.319.691.691,0,0,1,.085-.154L39.08,13.91,43.91,9.08,48.5,12.528a16.728,16.728,0,0,1,4.472-1.861L53.776,5H60.6l.8,5.667a16.728,16.728,0,0,1,4.472,1.861L70.47,9.08,75.3,13.91,71.853,18.5a16.728,16.728,0,0,1,1.861,4.472l5.667.8V30.6Z" transform="translate(23.329 2.121)" fill="#ff9811"/>
      <circle id="Elipse_7755" data-name="Elipse 7755" cx="8.5" cy="8.5" r="8.5" transform="translate(72 20.417)" fill="#ffd422"/>
      <path id="Trazado_680496" data-name="Trazado 680496" d="M55.96,58.007a3.337,3.337,0,0,1,1.007,2.407,3.424,3.424,0,0,1-3.414,3.414H19.414a3.414,3.414,0,1,1,0-6.828H53.553A3.337,3.337,0,0,1,55.96,58.007Z" transform="translate(9.897 38.882)" fill="#898890"/>
      <path id="Trazado_680497" data-name="Trazado 680497" d="M47.311,62.656H20L21.707,49H45.6Z" transform="translate(12.725 33.226)" fill="#acabb1"/>
      <path id="Trazado_680498" data-name="Trazado 680498" d="M49.967,57.21v3.585H9V57.21a10.241,10.241,0,0,1,6.074-9.353l4.679-2.083,4.609-2.048V39.15a11.856,11.856,0,0,1-6.691-9.081H15.828a3.414,3.414,0,0,1,0-6.828h1.707V19.828a3.414,3.414,0,1,1,0-6.828h23.9a3.414,3.414,0,0,1,0,6.828v3.414h1.707a3.414,3.414,0,0,1,0,6.828H41.3A11.867,11.867,0,0,1,34.6,39.15v4.575l4.609,2.048,4.677,2.082A10.242,10.242,0,0,1,49.967,57.21Z" transform="translate(4.949 7.776)" fill="#3d9ae2"/>
      <path id="Trazado_680499" data-name="Trazado 680499" d="M38.649,41.637v7H23.287L20.18,34.672l1.4-1.4L26.7,34.979,27.9,30.2l4.677,2.082A10.242,10.242,0,0,1,38.649,41.637Z" transform="translate(12.852 19.936)" fill="#b4dd7f"/>
      <path id="Trazado_680500" data-name="Trazado 680500" d="M39.718,12.007a3.337,3.337,0,0,1,1.007,2.407,3.424,3.424,0,0,1-3.414,3.414h-23.9a3.414,3.414,0,1,1,0-6.828h23.9a3.337,3.337,0,0,1,2.407,1.007Z" transform="translate(5.656 6.362)" fill="#f7910c"/>
      <path id="Trazado_680501" data-name="Trazado 680501" d="M29.535,15.178H21V5.09a10.214,10.214,0,0,1,8.381,8.381,9.337,9.337,0,0,1,.154,1.707Z" transform="translate(13.432 2.184)" fill="#ff9811"/>
      <path id="Trazado_680502" data-name="Trazado 680502" d="M28.023,31.048l-1.195,4.779-5.121-1.707L20,30.707,23.414,29Z" transform="translate(12.725 19.087)" fill="#63902a"/>
      <path id="Trazado_680503" data-name="Trazado 680503" d="M23.135,32.82l3.107,13.963H16L19.107,32.82l2.014,2.014Z" transform="translate(9.897 21.788)" fill="#63902a"/>
      <path id="Trazado_680504" data-name="Trazado 680504" d="M23.828,6.568V16.656H17V4.707A1.707,1.707,0,0,1,18.707,3h3.414a1.707,1.707,0,0,1,1.707,1.707Z" transform="translate(10.604 0.707)" fill="#ffa733"/>
      <path id="Trazado_680505" data-name="Trazado 680505" d="M22.121,30l1.707,3.414-1.4,1.4-2.014,2.014L18.4,34.814l-1.4-1.4L18.707,30Z" transform="translate(10.604 19.794)" fill="#63902a"/>
      <path id="Trazado_680506" data-name="Trazado 680506" d="M21.323,30.707l-1.707,3.414-5.121,1.707L13.3,31.048,17.909,29Z" transform="translate(7.988 19.087)" fill="#63902a"/>
      <path id="Trazado_680507" data-name="Trazado 680507" d="M25.469,34.672,22.362,48.635H7v-7a10.241,10.241,0,0,1,6.074-9.353L17.754,30.2l1.195,4.779,5.121-1.707Z" transform="translate(3.535 19.936)" fill="#b4dd7f"/>
      <path id="Trazado_680508" data-name="Trazado 680508" d="M20.535,5.09V15.178H12a9.337,9.337,0,0,1,.154-1.707A10.228,10.228,0,0,1,20.535,5.09Z" transform="translate(7.069 2.184)" fill="#ff9811"/>
      <path id="Trazado_680509" data-name="Trazado 680509" d="M26.242,26v5.121l-3.414,1.707H19.414L16,31.121V26Z" transform="translate(9.897 16.967)" fill="#ffc477"/>
      <g id="Grupo_993948" data-name="Grupo 993948" transform="translate(13.949 27.604)">
        <path id="Trazado_680510" data-name="Trazado 680510" d="M15.828,17v6.828H12.414a3.414,3.414,0,1,1,0-6.828Z" transform="translate(-9 -17)" fill="#ffb655"/>
        <path id="Trazado_680511" data-name="Trazado 680511" d="M31.828,20.414a3.424,3.424,0,0,1-3.414,3.414H25V17h3.414a3.424,3.424,0,0,1,3.414,3.414Z" transform="translate(2.311 -17)" fill="#ffb655"/>
        <path id="Trazado_680512" data-name="Trazado 680512" d="M26.242,26v3.96A11.877,11.877,0,0,1,16,29.96V26Z" transform="translate(-4.051 -10.638)" fill="#ffb655"/>
      </g>
      <path id="Trazado_680513" data-name="Trazado 680513" d="M35.9,18.414v5.121a9.344,9.344,0,0,1-.137,1.707,11.931,11.931,0,0,1-23.624,0A9.344,9.344,0,0,1,12,23.535V15H35.9Z" transform="translate(7.069 9.19)" fill="#ffc477"/>
      <path id="Trazado_680514" data-name="Trazado 680514" d="M12,15H35.9v3.414H12Z" transform="translate(7.069 9.19)" fill="#ffb655"/>
      <path id="Trazado_680515" data-name="Trazado 680515" d="M45.5,52.414H20.75L21.177,49h23.9Z" transform="translate(13.255 33.226)" fill="#898890"/>
      <path id="Trazado_680516" data-name="Trazado 680516" d="M31,12h8.535v3.414H31Z" transform="translate(20.501 7.069)"/>
      <path id="Trazado_680517" data-name="Trazado 680517" d="M87.347,49.794V66.864H53.208V61.572a11.949,11.949,0,0,0-7.084-10.907l-8.279-3.687V44.537a13.758,13.758,0,0,0,6.384-8.4h.444a5.121,5.121,0,1,0,0-10.242V25.59a5.092,5.092,0,0,0-.085-9.644A11.836,11.836,0,0,0,41.174,8.93a11.532,11.532,0,0,0-5.035-2.987V5.414A3.424,3.424,0,0,0,32.725,2H29.311A3.424,3.424,0,0,0,25.9,5.414v.512a11.88,11.88,0,0,0-8.449,10.02,5.092,5.092,0,0,0-.085,9.644V25.9a5.121,5.121,0,0,0,0,10.242h.444a13.758,13.758,0,0,0,6.384,8.4v2.441l-8.279,3.687A11.949,11.949,0,0,0,8.828,61.572v5.292H5.414V27.6a5.136,5.136,0,0,1,5.121-5.121V19.069A8.535,8.535,0,0,0,2,27.6V75.4a8.535,8.535,0,0,0,8.535,8.535H32.5l-1.28,10.242H29.311a5.121,5.121,0,0,0,0,10.242H63.45a5.121,5.121,0,1,0,0-10.242H61.538l-1.28-10.242H82.226A8.535,8.535,0,0,0,90.761,75.4v-25.6ZM17.362,32.725a1.707,1.707,0,0,1,0-3.414Zm22.19,23.9a1.707,1.707,0,0,0,.819-.2,1.736,1.736,0,0,0,.836-1.092l.7-2.8,2.816,1.246a8.535,8.535,0,0,1,5.07,7.8v5.292H37.5L34.91,55.171l4.1,1.366a2.023,2.023,0,0,0,.546.085Zm-.8-5.513-.41,1.6-2.7-.9-.632-1.246,1.178-.58Zm7.63-20.091a1.707,1.707,0,0,1-1.707,1.707V29.311A1.707,1.707,0,0,1,46.38,31.018ZM36.139,9.562a8.716,8.716,0,0,1,2.629,1.775,8.386,8.386,0,0,1,2.321,4.319h-4.95ZM29.311,5.414h3.414V15.656H29.311ZM25.9,9.562v6.094h-4.95A8.468,8.468,0,0,1,25.9,9.562ZM17.362,20.776a1.707,1.707,0,0,1,1.707-1.707h23.9a1.707,1.707,0,0,1,0,3.414h-23.9A1.707,1.707,0,0,1,17.362,20.776Zm3.414,11.949V25.9H41.26v6.828a10.242,10.242,0,1,1-20.483,0Zm9.235,25.229a1.536,1.536,0,0,0,2.014,0l1.98,8.91H28.031Zm-.324-5.087.683-1.366h1.3l.683,1.366-1.331,1.348Zm2.629-4.779H29.721L27.6,47.029V45.937a13.352,13.352,0,0,0,6.828,0v1.092Zm-6.469,1.895,1.178.58-.632,1.246-2.7.9-.41-1.6Zm-13.6,11.59a8.535,8.535,0,0,1,5.071-7.8l2.815-1.246.7,2.8a1.736,1.736,0,0,0,.836,1.092,1.707,1.707,0,0,0,.819.2,2.023,2.023,0,0,0,.546-.085l4.1-1.366L24.532,66.864H12.242ZM63.45,97.589a1.707,1.707,0,1,1,0,3.414H29.311a1.707,1.707,0,0,1,0-3.414Zm-28.8-3.414,1.28-10.242H56.827l1.28,10.242ZM87.347,75.4a5.136,5.136,0,0,1-5.121,5.121H10.535A5.136,5.136,0,0,1,5.414,75.4V70.278H87.347Z" transform="translate(0)"/>
      <path id="Trazado_680518" data-name="Trazado 680518" d="M46,44h3.414v3.414H46Z" transform="translate(31.105 29.692)"/>
      <path id="Trazado_680519" data-name="Trazado 680519" d="M15,18h3.414v3.414H15Z" transform="translate(9.19 11.311)"/>
      <path id="Trazado_680520" data-name="Trazado 680520" d="M21,18h3.414v3.414H21Z" transform="translate(13.432 11.311)"/>
      <path id="Trazado_680521" data-name="Trazado 680521" d="M80.33,22.793l-4.578-.654a18.539,18.539,0,0,0-1.159-2.8l2.774-3.7a1.707,1.707,0,0,0-.159-2.231L72.381,8.587a1.707,1.707,0,0,0-2.229-.159l-3.7,2.772a18.606,18.606,0,0,0-2.8-1.157L63,5.465A1.707,1.707,0,0,0,61.311,4H54.483a1.707,1.707,0,0,0-1.69,1.465l-.654,4.578a18.529,18.529,0,0,0-2.8,1.157l-3.7-2.772a1.707,1.707,0,0,0-2.229.159l-4.827,4.827a1.707,1.707,0,0,0-.159,2.231l2.774,3.7a18.538,18.538,0,0,0-1.159,2.8l-4.578.654A1.707,1.707,0,0,0,34,24.483v6.828A1.707,1.707,0,0,0,35.465,33l4.578.654a18.537,18.537,0,0,0,1.159,2.8l-2.774,3.7a1.707,1.707,0,0,0,.159,2.231l4.827,4.827a1.707,1.707,0,0,0,2.229.159l3.7-2.772a18.529,18.529,0,0,0,2.8,1.157l.654,4.578a1.707,1.707,0,0,0,1.69,1.465h6.828A1.707,1.707,0,0,0,63,50.33l.654-4.578a18.605,18.605,0,0,0,2.8-1.157l3.7,2.772a1.707,1.707,0,0,0,2.229-.159l4.827-4.827a1.707,1.707,0,0,0,.159-2.231l-2.774-3.7a18.538,18.538,0,0,0,1.159-2.8L80.33,33a1.707,1.707,0,0,0,1.465-1.69V24.483a1.707,1.707,0,0,0-1.465-1.69ZM78.38,29.831l-4.2.6A1.707,1.707,0,0,0,72.765,31.7,15.231,15.231,0,0,1,71.1,35.722a1.707,1.707,0,0,0,.1,1.9l2.547,3.4-2.731,2.731-3.4-2.547a1.707,1.707,0,0,0-1.895-.1A15.122,15.122,0,0,1,61.7,42.761a1.707,1.707,0,0,0-1.27,1.413l-.6,4.206H55.963l-.6-4.2a1.707,1.707,0,0,0-1.27-1.413A15.122,15.122,0,0,1,50.073,41.1a1.707,1.707,0,0,0-1.895.1l-3.4,2.547-2.731-2.731,2.547-3.4a1.707,1.707,0,0,0,.1-1.9A15.231,15.231,0,0,1,43.031,31.7a1.707,1.707,0,0,0-1.412-1.267l-4.206-.6V25.963l4.2-.6A1.707,1.707,0,0,0,43.03,24.1,15.231,15.231,0,0,1,44.7,20.073a1.707,1.707,0,0,0-.1-1.9l-2.547-3.4,2.731-2.731,3.4,2.547a1.707,1.707,0,0,0,1.895.1,15.122,15.122,0,0,1,4.022-1.664,1.707,1.707,0,0,0,1.27-1.413l.6-4.206h3.868l.6,4.2a1.707,1.707,0,0,0,1.27,1.413A15.122,15.122,0,0,1,65.722,14.7a1.707,1.707,0,0,0,1.895-.1l3.4-2.547,2.731,2.731-2.547,3.4a1.707,1.707,0,0,0-.1,1.9,15.231,15.231,0,0,1,1.668,4.023,1.707,1.707,0,0,0,1.412,1.267l4.206.6Z" transform="translate(22.622 1.414)"/>
      <path id="Trazado_680522" data-name="Trazado 680522" d="M52.242,12A10.242,10.242,0,1,0,62.483,22.242,10.242,10.242,0,0,0,52.242,12Zm0,17.069a6.828,6.828,0,1,1,6.828-6.828A6.828,6.828,0,0,1,52.242,29.069Z" transform="translate(28.278 7.069)"/>
      <path id="Trazado_680523" data-name="Trazado 680523" d="M36,32H49.656v3.414H36Z" transform="translate(24.036 21.208)"/>
      <path id="Trazado_680524" data-name="Trazado 680524" d="M36,36H49.656v3.414H36Z" transform="translate(24.036 24.036)"/>
    </g>
  </g>
</svg>
