<svg xmlns="http://www.w3.org/2000/svg" xmlns:xlink="http://www.w3.org/1999/xlink" width="137" height="137" viewBox="0 0 137 137">
  <defs>
    <filter id="Elipse_7753" x="0" y="0" width="137" height="137" filterUnits="userSpaceOnUse">
      <feOffset dy="3" input="SourceAlpha"/>
      <feGaussianBlur stdDeviation="3" result="blur"/>
      <feFlood flood-opacity="0.161"/>
      <feComposite operator="in" in2="blur"/>
      <feComposite in="SourceGraphic"/>
    </filter>
  </defs>
  <g id="Grupo_996311" data-name="Grupo 996311" transform="translate(-6730 2287.618)">
    <g transform="matrix(1, 0, 0, 1, 6730, -2287.62)" filter="url(#Elipse_7753)">
      <circle id="Elipse_7753-2" data-name="Elipse 7753" cx="59.5" cy="59.5" r="59.5" transform="translate(9 6)" fill="#1b3f5e"/>
    </g>
    <g id="protocolos" transform="translate(6740.82 -2281.044)">
      <path id="Trazado_680525" data-name="Trazado 680525" d="M108.189,111.219l5.948,3.434a37.8,37.8,0,0,1-9.811,16.973l-5.952-3.438a31.131,31.131,0,0,1-11.009,6.364v6.881a38.107,38.107,0,0,1-19.6,0v-6.881a31.131,31.131,0,0,1-11.009-6.364L50.8,131.626a37.8,37.8,0,0,1-9.811-16.973l5.948-3.434a31.381,31.381,0,0,1,0-12.724L40.99,95.061A37.768,37.768,0,0,1,50.8,78.088l5.956,3.434a31.185,31.185,0,0,1,11.009-6.36V68.281a38.1,38.1,0,0,1,19.6,0v6.881a31.185,31.185,0,0,1,11.009,6.36l5.956-3.434a37.768,37.768,0,0,1,9.806,16.973L108.189,98.5a31.381,31.381,0,0,1,0,12.724Z" transform="translate(-20.665 -30.721)" fill="#878787"/>
      <path id="Trazado_680526" data-name="Trazado 680526" d="M109.419,30.22V89.567a4.2,4.2,0,0,1-4.2,4.2H91.554a37.54,37.54,0,0,0,3.367-8.39l-5.948-3.434a31.336,31.336,0,0,0,0-12.724l5.948-3.434a37.768,37.768,0,0,0-9.806-16.973L79.159,52.25A31.184,31.184,0,0,0,68.15,45.89V39.009a38.124,38.124,0,0,0-19.6,0V45.89a31.185,31.185,0,0,0-11.009,6.36l-5.956-3.434a37.768,37.768,0,0,0-9.806,16.973l5.948,3.434a31.336,31.336,0,0,0,0,12.724l-5.948,3.434a37.54,37.54,0,0,0,3.367,8.39h-13.1a4.2,4.2,0,0,1-4.2-4.2V20.7a4.2,4.2,0,0,1,4.2-4.2H35.686a4.2,4.2,0,0,1,3.494,1.867l5.116,7.65h60.919a4.2,4.2,0,0,1,4.2,4.2Z" transform="translate(-1.449 -1.449)" fill="#f0c020"/>
      <path id="Trazado_680527" data-name="Trazado 680527" d="M112.922,111.357a40.356,40.356,0,0,1-2.888,7.629h-3.321a37.539,37.539,0,0,0,3.367-8.39l-5.948-3.434a31.336,31.336,0,0,0,0-12.724L110.08,91a37.768,37.768,0,0,0-9.806-16.973l-5.956,3.434a31.184,31.184,0,0,0-11.009-6.36V64.225a38.124,38.124,0,0,0-19.6,0v6.881A31.184,31.184,0,0,0,52.7,77.466l-5.956-3.434A37.768,37.768,0,0,0,36.933,91l5.948,3.434a31.336,31.336,0,0,0,0,12.724L36.933,110.6a37.54,37.54,0,0,0,3.367,8.39H36.979a40.357,40.357,0,0,1-2.888-7.629,2.941,2.941,0,0,1,1.37-3.308l4.17-2.409a33.952,33.952,0,0,1,0-9.68l-4.17-2.409a2.938,2.938,0,0,1-1.37-3.3,40.749,40.749,0,0,1,10.567-18.3,2.945,2.945,0,0,1,3.552-.467l4.174,2.4a33.769,33.769,0,0,1,8.377-4.838V64.225a2.942,2.942,0,0,1,2.182-2.841,41.046,41.046,0,0,1,21.126,0,2.942,2.942,0,0,1,2.182,2.841V69.05a33.769,33.769,0,0,1,8.377,4.838l4.174-2.4a2.945,2.945,0,0,1,3.552.467,40.749,40.749,0,0,1,10.567,18.3,2.938,2.938,0,0,1-1.37,3.3l-4.17,2.409a33.952,33.952,0,0,1,0,9.68l4.17,2.409a2.941,2.941,0,0,1,1.37,3.308Z" transform="translate(-16.608 -26.665)" fill="#e8a61e"/>
      <circle id="Elipse_7756" data-name="Elipse 7756" cx="21.044" cy="21.044" r="21.044" transform="translate(35.855 53.092)" fill="#efefef"/>
      <g id="Grupo_993949" data-name="Grupo 993949" transform="translate(40.927 61.918)">
        <path id="Trazado_680528" data-name="Trazado 680528" d="M102.756,152.434,90,140.971h5.841V128h6.913Z" transform="translate(-90.003 -128)" fill="#b4dd7f"/>
        <path id="Trazado_680529" data-name="Trazado 680529" d="M135.656,128l12.753,11.463h-5.841v12.971h-6.913Z" transform="translate(-116.466 -128)" fill="#72c2e9"/>
      </g>
      <g id="Grupo_993950" data-name="Grupo 993950" transform="translate(9.552 18.203)">
        <path id="Trazado_680530" data-name="Trazado 680530" d="M108.524,93.915V91.781a1.051,1.051,0,0,1,2.1,0v2.133A1.051,1.051,0,0,1,108.524,93.915Zm0-6.337V35.619H48.655a5.244,5.244,0,0,1-4.368-2.334l-4.8-7.183H16.4a1.051,1.051,0,0,1,0-2.1H40.046a1.05,1.05,0,0,1,.873.467l5.116,7.65a3.146,3.146,0,0,0,2.62,1.4h60.919a1.051,1.051,0,0,1,1.051,1.051v53.01A1.051,1.051,0,0,1,108.524,87.578Z" transform="translate(-15.361 -24)" fill="#f8e5b2"/>
      </g>
      <g id="Grupo_993951" data-name="Grupo 993951" transform="translate(37.832 55.069)">
        <path id="Trazado_680531" data-name="Trazado 680531" d="M101.706,157.28a26.431,26.431,0,0,1-14.212-4.125,1.051,1.051,0,0,1,1.128-1.773,24.41,24.41,0,0,0,30.342-37.868,1.051,1.051,0,0,1,1.486-1.486,26.508,26.508,0,0,1-18.744,45.252Zm-17.693-6.768c-.357-.321-.71-.656-1.051-1a1.051,1.051,0,0,1,1.487-1.485c.314.314.639.622.968.917A1.051,1.051,0,0,1,84.013,150.512Z" transform="translate(-82.641 -111.705)" fill="#efefef"/>
      </g>
      <path id="Trazado_680532" data-name="Trazado 680532" d="M165.3,93.353l0,0a1.052,1.052,0,0,0,1.11-1.786h0a1.068,1.068,0,0,0-1.446.336,1.05,1.05,0,0,0,.336,1.446Z" transform="translate(-92.434 -44.877)"/>
      <path id="Trazado_680533" data-name="Trazado 680533" d="M83.136,101.813a1.068,1.068,0,0,0,1.269-.164,39,39,0,0,0,6.308-8.276h13.053a5.262,5.262,0,0,0,5.254-5.254V28.771a5.262,5.262,0,0,0-5.254-5.254H44.373a1.051,1.051,0,0,0,0,2.1h59.394a3.165,3.165,0,0,1,3.153,3.153V88.118a3.165,3.165,0,0,1-3.153,3.153H91.83A38.62,38.62,0,0,0,94.485,84.2,1.049,1.049,0,0,0,94,83.019l-5.3-3.056a32.45,32.45,0,0,0,0-11.656l5.3-3.06a1.044,1.044,0,0,0,.488-1.182A38.873,38.873,0,0,0,84.41,46.622a1.077,1.077,0,0,0-1.27-.168l-5.3,3.06c-1.594-1.363-2.668.5-1.686,1.332h0c.743.619,1.285,1.326,2.081.862l5.25-3.026a36.858,36.858,0,0,1,8.756,15.153L87,66.862a1.047,1.047,0,0,0-.5,1.122,30.3,30.3,0,0,1,0,12.3A1.051,1.051,0,0,0,87,81.41l5.242,3.022a36.608,36.608,0,0,1-3.056,7.385,37.05,37.05,0,0,1-5.7,7.772l-5.246-3.031a1.067,1.067,0,0,0-1.227.126,29.959,29.959,0,0,1-10.635,6.15,1.044,1.044,0,0,0-.723,1V109.9a37.269,37.269,0,0,1-17.5,0V103.83a1.043,1.043,0,0,0-.723-1,29.959,29.959,0,0,1-10.635-6.15,1.067,1.067,0,0,0-1.227-.126l-5.246,3.026a36.654,36.654,0,0,1-8.76-15.153L26.8,81.41a1.06,1.06,0,0,0,.5-1.127,30.284,30.284,0,0,1,0-12.295,1.057,1.057,0,0,0-.5-1.126l-5.242-3.026a36.859,36.859,0,0,1,8.756-15.153l5.25,3.026a1.067,1.067,0,0,0,1.223-.126,30.055,30.055,0,0,1,10.639-6.145,1.043,1.043,0,0,0,.723-1V38.375a37.263,37.263,0,0,1,17.5,0v6.065a1.043,1.043,0,0,0,.723,1,30.619,30.619,0,0,1,2.909,1.13,1.05,1.05,0,0,0,.857-1.917c-.782-.353-1.585-.677-2.388-.963V37.56a1.048,1.048,0,0,0-.778-1.013,39.266,39.266,0,0,0-20.151,0,1.048,1.048,0,0,0-.778,1.013v6.129a32.192,32.192,0,0,0-10.084,5.826l-5.3-3.06a1.075,1.075,0,0,0-1.269.168,38.881,38.881,0,0,0-10.08,17.444,1.053,1.053,0,0,0,.492,1.182l5.3,3.06a32.582,32.582,0,0,0,0,11.656l-5.3,3.056a1.058,1.058,0,0,0-.492,1.185,38.919,38.919,0,0,0,2.659,7.066H10.594a3.165,3.165,0,0,1-3.153-3.153V19.254A3.165,3.165,0,0,1,10.594,16.1H34.238a3.134,3.134,0,0,1,2.618,1.4l1.29,1.929A1.052,1.052,0,0,0,39.9,18.262l-1.29-1.929A5.243,5.243,0,0,0,34.238,14H10.594A5.261,5.261,0,0,0,5.34,19.254V88.118a5.262,5.262,0,0,0,5.254,5.254H23.083a38.829,38.829,0,0,0,6.308,8.276,1.07,1.07,0,0,0,1.27.164l5.3-3.06a32.03,32.03,0,0,0,10.084,5.826v6.133a1.048,1.048,0,0,0,.778,1.013,39.117,39.117,0,0,0,20.151,0,1.048,1.048,0,0,0,.778-1.013v-6.133a32.024,32.024,0,0,0,10.084-5.826Z" transform="translate(0 0)"/>
      <path id="Trazado_680534" data-name="Trazado 680534" d="M88.995,31.53a1.052,1.052,0,1,0,1.455.29A1.078,1.078,0,0,0,88.995,31.53Z" transform="translate(-48.221 -10.065)"/>
      <path id="Trazado_680535" data-name="Trazado 680535" d="M97.848,195.363a1.076,1.076,0,0,0-1.462.239,1.049,1.049,0,0,0,.231,1.463l0,0a1.05,1.05,0,1,0,1.231-1.7A0,0,0,0,0,97.848,195.363Z" transform="translate(-52.66 -105.021)"/>
      <path id="Trazado_680536" data-name="Trazado 680536" d="M75.439,126.583a22,22,0,0,0,5.86,14.989,1.082,1.082,0,0,0,1.484.059,1.046,1.046,0,0,0,.059-1.483,19.962,19.962,0,1,1,6.431,4.649,1.051,1.051,0,0,0-.87,1.913,21.887,21.887,0,0,0,9.121,1.971h.009a22.1,22.1,0,1,0-22.093-22.1Z" transform="translate(-40.634 -52.45)"/>
      <path id="Trazado_680537" data-name="Trazado 680537" d="M102.356,150.985V126.551a1.048,1.048,0,0,0-1.051-1.051H94.4a1.049,1.049,0,0,0-1.051,1.051v11.92H88.553a1.053,1.053,0,0,0-.7,1.833L100.6,151.767a1.051,1.051,0,0,0,1.753-.782Zm-2.1-2.358-8.962-8.054h3.1a1.056,1.056,0,0,0,1.051-1.051V127.6h4.809Z" transform="translate(-47.627 -64.632)"/>
      <path id="Trazado_680538" data-name="Trazado 680538" d="M141.121,152.037a1.049,1.049,0,0,0,1.051-1.051V139.065h4.792a1.053,1.053,0,0,0,.7-1.832L134.913,125.77a1.052,1.052,0,0,0-1.753.782v24.434a1.048,1.048,0,0,0,1.051,1.051Zm-5.864-23.127,8.962,8.054h-3.1a1.053,1.053,0,0,0-1.051,1.051v11.921h-4.813Z" transform="translate(-74.092 -64.633)"/>
    </g>
  </g>
</svg>
