<svg xmlns="http://www.w3.org/2000/svg" xmlns:xlink="http://www.w3.org/1999/xlink" width="506" height="488" viewBox="0 0 506 488">
  <defs>
    <clipPath id="clip-path">
      <rect id="Rectángulo_345668" data-name="Rectángulo 345668" width="466.028" height="484.266" fill="none"/>
    </clipPath>
    <clipPath id="clip-path-2">
      <rect id="Rectángulo_346209" data-name="Rectángulo 346209" width="47.59" height="83.249" fill="none" stroke="#cef0f2" stroke-width="1"/>
    </clipPath>
    <clipPath id="clip-path-3">
      <rect id="Rectángulo_346292" data-name="Rectángulo 346292" width="94.483" height="75.735" fill="none" stroke="#707070" stroke-width="2"/>
    </clipPath>
    <clipPath id="clip-path-4">
      <rect id="Rectángulo_346291" data-name="Rectángulo 346291" width="97.674" height="74.14" fill="none" stroke="#707070" stroke-width="2"/>
    </clipPath>
  </defs>
  <g id="Grupo_993761" data-name="Grupo 993761" transform="translate(-915 -1746)">
    <rect id="Rectángulo_345639" data-name="Rectángulo 345639" width="506" height="488" rx="12" transform="translate(915 1746)" fill="#2165be"/>
    <g id="Grupo_992502" data-name="Grupo 992502" transform="translate(934.986 1749.734)">
      <g id="Grupo_992501" data-name="Grupo 992501" transform="translate(0 0)" clip-path="url(#clip-path)">
        <path id="Trazado_678795" data-name="Trazado 678795" d="M10.892,117.061A78.487,78.487,0,0,1,96.848,46.809,78.8,78.8,0,0,1,149.77,75.224,78.5,78.5,0,0,1,81.143,203.015a78.823,78.823,0,0,1-52.923-28.44A78.522,78.522,0,0,1,10.892,117.061Zm47.722,32.677a39.374,39.374,0,0,0,26.462,14.207,39.232,39.232,0,0,0,34.3-63.882A39.394,39.394,0,0,0,92.916,85.855a39.232,39.232,0,0,0-34.3,63.882Z" transform="translate(279.517 37.664)" fill="none" stroke="#d2dcff" stroke-miterlimit="10" stroke-width="1.401"/>
        <path id="Trazado_678796" data-name="Trazado 678796" d="M52.374,174.576A77.63,77.63,0,0,0,79.85,195.964L96.874,160.6a38.728,38.728,0,0,1-14.106-10.86,39.24,39.24,0,0,1,34.3-63.882A38.752,38.752,0,0,1,130.9,89.914l17-35.367A77.473,77.473,0,0,0,121,46.809,78.486,78.486,0,0,0,52.374,174.576Z" transform="translate(255.363 37.664)" fill="none" stroke="#d2dcff" stroke-miterlimit="10" stroke-width="1.401"/>
        <rect id="Rectángulo_345640" data-name="Rectángulo 345640" width="102.625" height="64.147" transform="translate(1.165 279.294)" fill="none" stroke="#d4ddff" stroke-miterlimit="10" stroke-width="1.091"/>
        <rect id="Rectángulo_345641" data-name="Rectángulo 345641" width="52.369" height="3.364" transform="translate(43.397 294.441)" fill="#d4ddff"/>
        <rect id="Rectángulo_345642" data-name="Rectángulo 345642" width="52.369" height="3.364" transform="translate(43.397 304.538)" fill="#d4ddff"/>
        <rect id="Rectángulo_345643" data-name="Rectángulo 345643" width="52.369" height="3.364" transform="translate(43.397 314.637)" fill="#d4ddff"/>
        <rect id="Rectángulo_345644" data-name="Rectángulo 345644" width="52.369" height="3.364" transform="translate(43.397 324.734)" fill="#d4ddff"/>
        <rect id="Rectángulo_345645" data-name="Rectángulo 345645" width="23.956" height="36.178" transform="translate(11.838 291.706)" fill="none" stroke="#d4ddff" stroke-miterlimit="10" stroke-width="1.341"/>
        <rect id="Rectángulo_345646" data-name="Rectángulo 345646" width="102.625" height="64.147" transform="translate(1.165 361.549)" fill="none" stroke="#d4ddff" stroke-miterlimit="10" stroke-width="1.091"/>
        <rect id="Rectángulo_345647" data-name="Rectángulo 345647" width="52.369" height="3.364" transform="translate(10.244 375.469)" fill="#d4ddff"/>
        <rect id="Rectángulo_345648" data-name="Rectángulo 345648" width="52.369" height="3.364" transform="translate(10.244 385.566)" fill="#d4ddff"/>
        <rect id="Rectángulo_345649" data-name="Rectángulo 345649" width="52.369" height="3.364" transform="translate(10.244 395.663)" fill="#d4ddff"/>
        <rect id="Rectángulo_345650" data-name="Rectángulo 345650" width="52.369" height="3.364" transform="translate(10.244 405.759)" fill="#d4ddff"/>
        <path id="Trazado_678797" data-name="Trazado 678797" d="M217.1,222.578,211.813,210.2a13.46,13.46,0,1,0,6.376-1.038Z" transform="translate(-133.424 169.723)" fill="#d4ddff"/>
        <rect id="Rectángulo_345651" data-name="Rectángulo 345651" width="102.627" height="64.147" transform="translate(0.989 198.5)" fill="none" stroke="#d4ddff" stroke-miterlimit="10" stroke-width="1.091"/>
        <rect id="Rectángulo_345652" data-name="Rectángulo 345652" width="72.188" height="3.364" transform="translate(15.028 222.827)" fill="#d4ddff"/>
        <rect id="Rectángulo_345653" data-name="Rectángulo 345653" width="52.369" height="3.364" transform="translate(24.936 233.008)" fill="#d4ddff"/>
        <path id="Trazado_678798" data-name="Trazado 678798" d="M132.685,110.015v.009l-.076.08c-.185.2-2.23,7.541-2.306,7.816l6.912,4.005c.2-.2,5.556-5.626,5.635-5.887l.031-.105.007,0,7.483,1,.005.007,0,.109c.011.272,3.755,6.911,3.9,7.159l7.72-2.056c0-.284-.051-7.907-.178-8.148l-.053-.1,0-.007,6-4.587h.009l.08.076c.2.187,7.541,2.232,7.816,2.306l4.005-6.911c-.2-.2-5.626-5.556-5.885-5.637l-.105-.031-.005-.007,1-7.481.005-.007.11,0c.272-.009,6.911-3.755,7.157-3.9L179.895,80c-.286,0-7.909.051-8.148.178l-.1.053-.009,0-4.585-6v-.009l.076-.078c.185-.2,2.23-7.543,2.306-7.816l-6.912-4.007c-.2.2-5.556,5.628-5.635,5.887l-.031.105-.007.005-7.483-1-.005-.007,0-.109c-.011-.272-3.755-6.911-3.9-7.159l-7.72,2.056c0,.284.051,7.907.178,8.148l.053.1,0,.009-6,4.585h-.009l-.08-.076c-.2-.187-7.541-2.232-7.816-2.306l-4.005,6.912c.2.2,5.626,5.556,5.885,5.635l.105.031.005.007-1,7.481-.005.007-.111,0c-.272.009-6.911,3.755-7.157,3.9l2.054,7.72c.286,0,7.909-.051,8.148-.178l.1-.053.009,0Zm3.286-25.949a16.066,16.066,0,1,1,5.844,21.957A16.067,16.067,0,0,1,135.971,84.066Z" transform="translate(70.704 48.721)" fill="none" stroke="#94abff" stroke-miterlimit="10" stroke-width="1.401"/>
        <path id="Trazado_678799" data-name="Trazado 678799" d="M33.269,155.922c-.168.281,25.134,34.892,56.955,16.942s-56.955-16.942-56.955-16.942" transform="translate(308.653 126.513)" fill="#52538c"/>
        <path id="Trazado_678800" data-name="Trazado 678800" d="M45.218,223.852c.324-.005,15.789-40.111-16.178-57.794s16.178,57.794,16.178,57.794" transform="translate(384.036 132.569)" fill="#52538c"/>
        <path id="Trazado_678801" data-name="Trazado 678801" d="M27.533,138.7c-.226.139,2.973,33.635,31.769,32.117S27.533,138.7,27.533,138.7" transform="translate(349.105 112.551)" fill="#52538c"/>
        <path id="Trazado_678802" data-name="Trazado 678802" d="M42.073,130c-.158-.216-32.827,6.088-28.686,34.961S42.073,130,42.073,130" transform="translate(400.363 105.481)" fill="#52538c"/>
        <path id="Trazado_678803" data-name="Trazado 678803" d="M48.329,166.379c.138-.23-18.031-28.416-42.857-13.577s42.857,13.577,42.857,13.577" transform="translate(417.698 120.49)" fill="#52538c"/>
        <path id="Trazado_678804" data-name="Trazado 678804" d="M48.057,190.9c.237-.121-.478-33.765-29.3-34.432s29.3,34.432,29.3,34.432" transform="translate(398.505 126.961)" fill="#52538c"/>
        <path id="Trazado_678805" data-name="Trazado 678805" d="M35.885,189.085c.015.268,30.706,13.233,42.982-13.166s-42.982,13.166-42.982,13.166" transform="translate(320.376 135.381)" fill="#52538c"/>
        <path id="Trazado_678806" data-name="Trazado 678806" d="M47.978,153.434S33.4,165.88,31.137,179.584s-4.456,70.742-4.456,70.742v34.133" transform="translate(369.719 124.503)" fill="none" stroke="#52538c" stroke-miterlimit="10" stroke-width="1.037"/>
        <path id="Trazado_678807" data-name="Trazado 678807" d="M27.527,226.763l.609,6.8,4.465,49.9H61.98l4.465-49.9.609-6.8Z" transform="translate(349.111 184.005)" fill="#de743e"/>
        <path id="Trazado_678808" data-name="Trazado 678808" d="M27.527,226.763l.609,6.8h38.31l.609-6.8Z" transform="translate(349.111 184.005)" fill="#a44217"/>
        <rect id="Rectángulo_345654" data-name="Rectángulo 345654" width="42.538" height="8.048" transform="translate(375.159 406.464)" fill="#de743e"/>
        <path id="Trazado_678809" data-name="Trazado 678809" d="M59.89,259.266a2.433,2.433,0,1,0,2.422-2.677,2.559,2.559,0,0,0-2.422,2.677" transform="translate(292.809 208.207)" fill="#95ebff"/>
        <path id="Trazado_678810" data-name="Trazado 678810" d="M64.9,259.266a2.433,2.433,0,1,0,2.422-2.677,2.559,2.559,0,0,0-2.422,2.677" transform="translate(278.735 208.207)" fill="#95ebff"/>
        <path id="Trazado_678811" data-name="Trazado 678811" d="M71.8,259.266a2.433,2.433,0,1,0,2.422-2.677,2.559,2.559,0,0,0-2.422,2.677" transform="translate(259.322 208.207)" fill="#95ebff"/>
        <path id="Trazado_678812" data-name="Trazado 678812" d="M77.2,259.266a2.433,2.433,0,1,0,2.422-2.677,2.559,2.559,0,0,0-2.422,2.677" transform="translate(244.134 208.207)" fill="#95ebff"/>
        <path id="Trazado_678813" data-name="Trazado 678813" d="M48.31,165.928s9.15,33.923,11.347,41.381c1.645,5.588.246,15.314-13.675,15.314" transform="translate(322.53 134.641)" fill="none" stroke="#a2aedb" stroke-linecap="round" stroke-linejoin="round" stroke-width="1.401"/>
        <path id="Trazado_678814" data-name="Trazado 678814" d="M72.94,141.8c-.085.893-.1,26.067,3.7,39.218,1.42,4.918,2.313,5.981,2.313,5.981s-13.89,3.737-19.069-6.3c-6.384-12.378-14.046-27.269-6.749-34.461,8.327-8.2,19.806-4.434,19.806-4.434" transform="translate(296.206 114.36)" fill="#95ebff"/>
        <rect id="Rectángulo_345655" data-name="Rectángulo 345655" width="156.172" height="3.079" transform="matrix(-0.081, -0.997, 0.997, -0.081, 252.496, 442.442)" fill="#20284d"/>
        <path id="Trazado_678815" data-name="Trazado 678815" d="M160.943,145.222c1.333,7.333,2.427,18.527,13.327,18.531,8.1,0,24.266,0,24.266,0" transform="translate(-24.047 117.839)" fill="none" stroke="#a2aedb" stroke-linecap="round" stroke-linejoin="round" stroke-width="1.401"/>
        <path id="Trazado_678816" data-name="Trazado 678816" d="M81.521,241.04l3.036,6.182-6.941,3.473-4.478-6.518Z" transform="translate(248.987 195.59)" fill="#f8b58f"/>
        <path id="Trazado_678817" data-name="Trazado 678817" d="M65.5,251.977l.822-7.746h-7.8v7.746Z" transform="translate(293.689 198.18)" fill="#f8b58f"/>
        <path id="Trazado_678818" data-name="Trazado 678818" d="M156.374,121.378c.165.109-20.625,69.054-20.625,69.054s-.614,2.346-3.842,2.786-25.076,0-25.076,0,5.164-7.626,13.946-7.186,9.809-.284,9.809-.284l8.117-75.515Z" transform="translate(116.133 89.447)" fill="#f4a087"/>
        <path id="Trazado_678819" data-name="Trazado 678819" d="M121.036,90.676l8.327,13.428s-11,12.758-11,12.318-7.039-17.011-7.039-17.011Z" transform="translate(135.006 73.578)" fill="#f4a086"/>
        <path id="Trazado_678820" data-name="Trazado 678820" d="M143.6,90.264s-10.889,9.612-19.248,6.97-11.146-6.691-7.479-11.557,14.372-6.186,19.652-6.773,5.865-3.96,9.825-3.373,7.836,3.373,8.1,8.358,0,19.131,0,19.131l-.033,2.574-3.739-5.425-.248-4.675-2.319.275Z" transform="translate(102.617 61.234)" fill="#242b58"/>
        <path id="Trazado_678821" data-name="Trazado 678821" d="M136.65,91.194s4.107-3.52,5.132-1.027-2.565,5.427-2.565,5.427,4.179,3.52,3.739,5.425-9.092,16.133-14.665,14.665S114.8,97.5,115.386,92.221s11-12.613,12.9-10.852,8.36,9.825,8.36,9.825" transform="translate(114.08 65.809)" fill="#f8b690"/>
        <path id="Trazado_678822" data-name="Trazado 678822" d="M148.089,84.989c-.147.44-14.055,13.705-21.7,9.532s-6.306-9.532-6.306-9.532l25.811-6.181Z" transform="translate(100.587 63.948)" fill="#242b58"/>
        <path id="Trazado_678823" data-name="Trazado 678823" d="M145.323,129.717c-.293-.587-23.757-28.891-38.129-30.65s-20.531-.88-20.531-.88l-11,12.318s-5.4,22.92,11,48.837c16.424,25.956,34.847,33.492,34.847,33.492L152.8,133.97Z" transform="translate(177.706 79.494)" fill="#f6f1ff"/>
        <path id="Trazado_678824" data-name="Trazado 678824" d="M221.044,111.7l22.025,14.49s-22.969,19.5-44.7,28.3-67.781,21.118-72.474,17.158c-2.052-1.371-4.266-2.935-7.333-8.653,0,0-19.324-3.623-14.812-4.838,3.813-.293,28.01-5.134,29.918,4.692,51.327-12.611,64.7-30.392,87.377-51.152" transform="translate(36.258 90.642)" fill="#f8b690"/>
        <path id="Trazado_678825" data-name="Trazado 678825" d="M80.862,156.153c-.784-.458-28.057,51.148-23.215,69.337,9.744,36.6,49.617,87.571,49.617,87.571l8.383-3.137s-21.192-79.729-22.5-87.31,11.764-10.456,17.515-7.057L137.325,316.98h8.889s2.875-64.828,0-84.172a132.646,132.646,0,0,1,1.277-46.529c2.353-12.287-10.166-23.527-10.166-23.527Z" transform="translate(214.861 126.707)" fill="#151d53"/>
        <path id="Trazado_678826" data-name="Trazado 678826" d="M95.935,243.837s6.255,4.17,6.115,6.115-6.115,5.559-6.115,5.559l-1.945-1.25-6.672,7.644H70.777s-2.085-1.389,0-2.362l14.287-6.673,2.694-7.043c2.516,1.882,6.729.239,8.177-1.991" transform="translate(237.445 197.86)" fill="#52538c"/>
        <path id="Trazado_678827" data-name="Trazado 678827" d="M87.533,246.907s-2.543,4.309-7.806,1.945c0,0-7.066,3.614-9.708,4.587s-11.814,2.92-12.649,3.476-.545,2.5-.545,2.5H75.858s5.28-2.92,6.809-2.641.964,2.641.964,2.641h7.144s.583-7.742,0-9.035c-.634-1.4-1.436-3.058-3.242-3.474" transform="translate(272.146 200.351)" fill="#52538c"/>
        <path id="Trazado_678828" data-name="Trazado 678828" d="M61.2,208.3h45.373a8.655,8.655,0,1,0,0-17.31H61.2a8.655,8.655,0,0,0,0,17.31" transform="translate(255.609 154.975)" fill="#95ebff"/>
        <path id="Trazado_678829" data-name="Trazado 678829" d="M83.378,261.387c3.889-.913,7.191-3.4,10.365-5.826a16.688,16.688,0,0,0,2.576-2.264,13.851,13.851,0,0,0,2.455-4.826,4.33,4.33,0,0,0,.241-2.753,1.765,1.765,0,0,0-1.59-1.181c-.654.071-1.072.846-1.484,1.322a43.286,43.286,0,0,0-2.953,3.931,87.971,87.971,0,0,1-5.619,7.95,20.452,20.452,0,0,1-3.991,3.646" transform="translate(215.838 198.423)" fill="#f8b690"/>
        <path id="Trazado_678830" data-name="Trazado 678830" d="M93.922,133.289c-.047.078-.1.154-.145.232-2.27,3.579-5.456,6.481-7.963,9.9-4.041,5.512-5.5,13.517-1.118,19.247,2.993,3.909,7.041,5.092,11.814,4.987a14.991,14.991,0,0,0,5.269-.806,12.3,12.3,0,0,0,4.963-4.1c1.616-2.1,2.92-4.692,2.487-7.3-.346-2.092-1.739-3.829-2.86-5.632a17.7,17.7,0,0,1-2.119-4.693c-1.136-4.192-.259-8.662,1.056-12.8,1.31-4.11,3.145-8.153,3.753-12.454.179-1.277.513-3.353-.4-4.456-1.348-1.632-5.757-2.368-7.018-.384-.793,1.252-1.158,3.326-1.728,4.732q-1.258,3.092-2.518,6.184a48.593,48.593,0,0,1-3.478,7.349" transform="translate(208.134 92.366)" fill="#232c54"/>
        <path id="Trazado_678831" data-name="Trazado 678831" d="M93.555,250.115c.217.172-4.721,4.972-4.721,4.972l-7.418-15.848,9.532-1.23Z" transform="translate(224.986 193.131)" fill="#f8b690"/>
        <path id="Trazado_678832" data-name="Trazado 678832" d="M131.711,296.957s-51.965-74.49-50.144-84.509,24.857-32.517,45.483-40.078c0,0-4.9,51.555,2.991,79.618L142.3,295.579Z" transform="translate(176.057 139.868)" fill="#0e2036"/>
        <path id="Trazado_678833" data-name="Trazado 678833" d="M161.831,134.134a2.462,2.462,0,0,0-.947.906c-1.232,2.029-2.214,4.264-3.313,6.369q-3.921,7.508-7.858,15.008l-.944,1.8s-54.865-1.319-56.731,0-9.581,9.03-9.581,9.03,2.473,1.014,3.733,0c6.967-5.6,18.163-2.239,18.163-2.239q13,1.546,26.005,3.1,8.934,1.068,17.866,2.143,3.434.413,6.867.831c1.259.152,2.416.656,3.623.85,2,.322,3.031-1.652,3.739-3.3a160.6,160.6,0,0,0,9.612-30.209,1.757,1.757,0,0,0,.018-.976,1.684,1.684,0,0,0-.748-.746c-2.052-1.29-7.01-3.909-9.5-2.567" transform="translate(144.515 108.54)" fill="#f49f86"/>
        <path id="Trazado_678834" data-name="Trazado 678834" d="M90.573,109.375c-.134.317,0,14.332,0,14.332s-1.9,6.47-6.5,5.847a11.35,11.35,0,0,1-6.719-2.985V112.262Z" transform="translate(235.342 88.752)" fill="#ee9c84"/>
        <path id="Trazado_678835" data-name="Trazado 678835" d="M87.318,98.007c-1.129.109-2.3.217-3.442.321a6.855,6.855,0,0,0-6.512,7.072l1.219,16.923c.331,4.585,5.51,7.519,10.1,5.686,5.96-2.386,10.82-5.068,10.959-5.454.21-.581,0-18.779,0-18.779s-2.527-2.712-3.579-.194c-.368.88-.737.362-1.06-.683a7.224,7.224,0,0,0-7.681-4.891" transform="translate(226.184 79.498)" fill="#f8b690"/>
        <path id="Trazado_678836" data-name="Trazado 678836" d="M79.369,116.272c-3.462,2.775-8.8,6.423-13.368,4.751a3.959,3.959,0,0,1-.438,1.17c-3.275,5.049-7.438,9.72-9.039,15.52-1.958,7.09.246,14.6,2.549,21.583.964,2.924,2.746,5.55,3.63,8.421,1.063,3.451-.118,6.751-.105,10.162.024,6.164-1.465,12.231-2.75,18.21-.781,3.63-1.489,7.277-2.174,10.927-.659,3.521-2,7.572-1.956,11.133a29.632,29.632,0,0,1,5.94-.283l6.547-.092q8.714-.12,17.426-.243l30.934-.429c1.81-.025,2.317.015,1.8-1.842-2.335-8.436-7.1-15.872-9.927-24.179a76.378,76.378,0,0,1-4.2-21.018c-.243-5.248.178-10.506,0-15.756a60.682,60.682,0,0,0-1.955-13.535c-.951-3.567-2.127-8.282-4.351-11.247A40.384,40.384,0,0,0,89.6,121.38a34.053,34.053,0,0,0-4.951-3.038c-.65-.324-4.719-2.522-5.28-2.07" transform="translate(246.546 94.299)" fill="#c7d3ff"/>
        <path id="Trazado_678837" data-name="Trazado 678837" d="M176.553,147.674c0-.176-27.246-7.516-27.246-7.516l-11.7,24.136s-53.865-8.833-56.852-8.336S71.3,157.7,70.18,159.068s-1.741,10.327-1.741,10.327,1.119-1.493,2.487-3.733,2.241,2.241,5.847,1a56.873,56.873,0,0,0,7.465-3.358s51.132,26.748,62.951,23.389,29.363-39.015,29.363-39.015" transform="translate(165.501 113.73)" fill="#f7b690"/>
        <path id="Trazado_678838" data-name="Trazado 678838" d="M189.123,171.889s4.02,18.986-15.885,29.137-61.9,23.686-67.873,24.681c0,0-28.671,64.6-34.129,76.445-4.494,9.751-4.679,11.494-4.679,11.494l-11.35-1.355s16.323-80.015,21.5-92.355,36.772-41.8,49.835-47.175Z" transform="translate(176.569 139.478)" fill="#12263f"/>
        <path id="Trazado_678839" data-name="Trazado 678839" d="M98.768,243.871c.326-.165.632-.027,1.241.241a12.516,12.516,0,0,1,3.9,2.456c1.158,1.161,1.049,2.994,1.453,4.518a27.783,27.783,0,0,0,2.212,5.719,10.248,10.248,0,0,1-3.694,1.609c-.161-2.819-3.157-4.795-5.061-6.467a62.1,62.1,0,0,0-7.172,7.842,7.9,7.9,0,0,1-2.666,2.75,6.932,6.932,0,0,1-1.5.462q-3.709.837-7.414,1.677c-.744.168-4.739-.324-3.043-1.5,3.416-2.368,7.168-4.244,10.407-6.864a57.947,57.947,0,0,0,5.51-5.686q1.856-1.981,3.572-4.085c.591-.723,1.13-1.5,1.737-2.206a1.889,1.889,0,0,1,.522-.466" transform="translate(219.693 197.829)" fill="#222b55"/>
        <path id="Trazado_678840" data-name="Trazado 678840" d="M46.025,103.277a3.092,3.092,0,0,0,.072.476c.453,3.462,2.243,5.275,5.8,5.465,3.627.167,7.206-.859,10.666-1.766,2.1-.549,4.414,1.17,5.871,2.554.62.6,1.025,1.455,1.86,1.813.908.382,1.766-.143,2.531.788a2.986,2.986,0,0,1,.476,2.339,5.984,5.984,0,0,1-1.025,2.2,4.586,4.586,0,0,0-.692,1.192,4.016,4.016,0,0,0,.071,2.125,24.1,24.1,0,0,1,.263,5.7,40.051,40.051,0,0,1-2.578,9.688c-2.052,5.465-4.654,10.834-5.32,16.633-.382,3.436.024,7.206,2.313,9.807,2.554,2.864,6.706,3.579,10.524,4.034,3.054.357,6.563.929,8.137,3.579a10.339,10.339,0,0,1,1.074,3.6,51.931,51.931,0,0,0,3.507,13,23.214,23.214,0,0,0,6.42,8.709c1.288,1.027,2.791,1.766,4.009,2.887a35.855,35.855,0,0,1,3.1,3.722,28.463,28.463,0,0,0,3.389,3.6,18.365,18.365,0,0,0,2.911,2.147,13.151,13.151,0,0,0,8.209,1.956,13.8,13.8,0,0,0,7.874-4.032,18.781,18.781,0,0,0,4.581-7.206,17.722,17.722,0,0,0,.645-9.713,28.178,28.178,0,0,0-3.15-7.539,37.684,37.684,0,0,0-5.393-7.827c-3.938-4.177-9.521-6.4-13.124-10.954a24.861,24.861,0,0,1-3.675-6.9,52.178,52.178,0,0,1-1.743-5.679c-2.315-9.258-2.386-18.852-3.842-28.253a57.2,57.2,0,0,0-3.579-13.459c-4.2-9.95-14.961-16.607-25.366-17.8-4.534-.525-10.356-.812-15.3.645a12.928,12.928,0,0,0-8.3,6.371c-.192.406-.359.812-.525,1.217a10.627,10.627,0,0,0-.692,4.867" transform="translate(251.633 72.826)" fill="#232c54"/>
        <line id="Línea_346" data-name="Línea 346" x2="0.136" transform="translate(291.845 178.775)" fill="#232c54"/>
        <path id="Trazado_678841" data-name="Trazado 678841" d="M46.339,102.078a3.092,3.092,0,0,0,.072.476,5.69,5.69,0,0,0,6.275,1.743,25.639,25.639,0,0,0,2.791-1.717c4.51-2.65,10.309-.741,14.8,1.907,5.583,3.293,10.762,8.209,11.907,14.58,1.264,7.278-3.007,14.461-2.791,21.835.214,7.255,4.724,13.673,9.736,18.922,3.2,3.317,6.657,6.371,9.448,10.023a34.135,34.135,0,0,1,6.992,19.281c.19,5.059-.692,10.548,1.241,15.106a18.365,18.365,0,0,0,2.911,2.147,13.151,13.151,0,0,0,8.209,1.956,13.8,13.8,0,0,0,7.874-4.032,18.781,18.781,0,0,0,4.581-7.206,16.807,16.807,0,0,0,.429-5.775c-.6-5.416-4.2-10.046-8.374-13.579-4.154-3.531-8.949-6.228-13.126-9.711a45.561,45.561,0,0,1-16.227-34.649c.005-2.886.284-5.775.132-8.66a22.482,22.482,0,0,0-1.8-7.052,47.582,47.582,0,0,0-2.409-5.393,47.751,47.751,0,0,0-6.327-8.333c-.808-.917-1.619-1.833-2.514-2.665a33.956,33.956,0,0,0-3.931-3.011,46.138,46.138,0,0,0-6-3.637A32.891,32.891,0,0,0,62,91.7c-5.447-.924-10.9-.956-14.147,4.2a9.393,9.393,0,0,0-1.509,6.177" transform="translate(251.319 74.025)" fill="#354380"/>
        <path id="Trazado_678842" data-name="Trazado 678842" d="M74.734,97.475a16.037,16.037,0,0,0,2.186,14.973c1.6,2.116,3.572,3.824,5,5.818A8,8,0,0,1,83.67,124.8c-.745,3.57-3.79,6.576-5.11,10.146a14.251,14.251,0,0,0,.784,12.042,8.974,8.974,0,0,0,6.487,4.472l.054-.232a9.293,9.293,0,0,1-5.065-5.007c-1.862-4.532-.831-9.523,1.63-13.694,1.192-2.2,2.666-4.574,3.1-7.392,1.107-5.8-4.416-9.717-7.693-13.426A15.323,15.323,0,0,1,74.96,97.551Z" transform="translate(246.5 79.095)" fill="#354380"/>
        <rect id="Rectángulo_345656" data-name="Rectángulo 345656" width="141.481" height="3.779" transform="translate(115.704 282.86)" fill="#20284d"/>
        <rect id="Rectángulo_345657" data-name="Rectángulo 345657" width="3.079" height="156.172" transform="translate(121.515 442.442) rotate(-175.376)" fill="#20284d"/>
        <rect id="Rectángulo_345658" data-name="Rectángulo 345658" width="17.647" height="2.895" transform="translate(209.327 279.962)" fill="#c8ccdb"/>
        <rect id="Rectángulo_345659" data-name="Rectángulo 345659" width="71.77" height="2.534" transform="translate(138.122 256.978) rotate(-98.634)" fill="#a2aedb"/>
        <rect id="Rectángulo_345660" data-name="Rectángulo 345660" width="84.097" height="5.557" transform="matrix(-0.15, -0.989, 0.989, -0.15, 134.543, 265.096)" fill="#c8ccdb"/>
        <path id="Trazado_678843" data-name="Trazado 678843" d="M159.121,296.093s30.266-22.859,23.172-46.395-17.969-17.12-17.969-17.12-2.366-46.315-18.444-35.209-29.32,34.508-27.9,36.176-9.93-15.464-9.93,9.762,22.226,52.785,22.226,52.785c7.566,2.552,28.847,0,28.847,0" transform="translate(86.936 158.758)" fill="#94abff"/>
        <path id="Trazado_678844" data-name="Trazado 678844" d="M136.2,202.157c1.161,1.016-11.6,59.772-7.4,76.532" transform="translate(97.983 164.039)" fill="none" stroke="#fff" stroke-linecap="round" stroke-linejoin="round" stroke-width="0.896"/>
        <path id="Trazado_678845" data-name="Trazado 678845" d="M145.757,222.707c.536.362-13.236,20.681-29.514,26.1" transform="translate(109.687 180.714)" fill="none" stroke="#fff" stroke-linecap="round" stroke-linejoin="round" stroke-width="0.896"/>
        <path id="Trazado_678846" data-name="Trazado 678846" d="M132.545,218.981s9.976,15.04,25.233,21.743" transform="translate(68.152 177.69)" fill="none" stroke="#fff" stroke-linecap="round" stroke-linejoin="round" stroke-width="0.896"/>
        <path id="Trazado_678847" data-name="Trazado 678847" d="M119.072,253.339l1.458,3.527,7.556,18.292,19.862-.025,7.934-18.267,1.516-3.527Z" transform="translate(92.937 205.57)" fill="#de743e"/>
        <path id="Trazado_678848" data-name="Trazado 678848" d="M119.072,252.709v1.141l1.458,3.527h35.352l1.516-3.527v-1.141Z" transform="translate(92.937 205.059)" fill="#a44217"/>
        <path id="Trazado_678849" data-name="Trazado 678849" d="M121.5,257.6l41.768-2.243,0-4.523-45.6.018Z" transform="translate(89.627 203.54)" fill="#de743e"/>
        <rect id="Rectángulo_345661" data-name="Rectángulo 345661" width="8.782" height="65.299" transform="translate(37.372 114.605)" fill="#d4ddff"/>
        <rect id="Rectángulo_345662" data-name="Rectángulo 345662" width="8.782" height="57.325" transform="translate(22.944 122.579)" fill="#d4ddff"/>
        <rect id="Rectángulo_345663" data-name="Rectángulo 345663" width="8.782" height="69.704" transform="translate(7.889 109.975)" fill="#d4ddff"/>
        <rect id="Rectángulo_345664" data-name="Rectángulo 345664" width="8.782" height="55.218" transform="translate(53.606 124.685)" fill="#d4ddff"/>
        <rect id="Rectángulo_345665" data-name="Rectángulo 345665" width="8.782" height="60.451" transform="translate(69.84 119.452)" fill="#d4ddff"/>
        <rect id="Rectángulo_345666" data-name="Rectángulo 345666" width="8.782" height="57.325" transform="translate(86.074 122.579)" fill="#d4ddff"/>
        <path id="Trazado_678850" data-name="Trazado 678850" d="M295.346,128.566S274,103.311,273.851,104.773s-13.008,8.981-13.008,8.981L233.556,77.483l-10.664,25.541-22.27-39.758" transform="translate(-192.733 51.338)" fill="none" stroke="#18898d" stroke-linecap="round" stroke-linejoin="round" stroke-width="0.823"/>
        <path id="Trazado_678851" data-name="Trazado 678851" d="M302.246,63.267v65.3H200.622" transform="translate(-199.634 51.338)" fill="none" stroke="#d4ddff" stroke-linecap="round" stroke-linejoin="round" stroke-width="0.929"/>
        <path id="Trazado_678852" data-name="Trazado 678852" d="M144.214,138.6l0,.009-.091.06c-.225.156-3.791,6.891-3.924,7.144l5.9,5.389c.239-.154,6.628-4.309,6.762-4.547l.053-.1.009,0,7.1,2.574.005.007-.022.107c-.049.268,2.192,7.554,2.277,7.825l7.981-.359c.062-.279,1.641-7.735,1.567-8l-.031-.105,0-.007,6.838-3.2.007,0,.062.091c.156.225,6.891,3.791,7.144,3.924l5.389-5.9c-.154-.239-4.309-6.628-4.547-6.762l-.1-.053,0-.009,2.574-7.1.007-.005.107.022c.268.049,7.554-2.192,7.825-2.277l-.359-7.981c-.279-.062-7.735-1.639-8-1.567l-.105.031-.007,0-3.2-6.838,0-.007.091-.062c.225-.154,3.791-6.891,3.924-7.144l-5.9-5.389c-.239.154-6.628,4.311-6.762,4.547l-.053.1-.009,0-7.1-2.572-.005-.009.022-.107c.049-.268-2.192-7.554-2.277-7.825l-7.981.359c-.062.279-1.639,7.737-1.567,8l.031.105,0,.009-6.838,3.2-.009,0-.06-.091c-.156-.225-6.891-3.791-7.144-3.924l-5.389,5.9c.154.239,4.309,6.63,4.547,6.762l.1.053,0,.009-2.574,7.1-.007,0-.107-.022c-.268-.049-7.554,2.192-7.825,2.279l.359,7.981c.279.06,7.735,1.639,8,1.567l.105-.031.007,0Zm8.753-24.648a16.066,16.066,0,1,1,1.02,22.7A16.064,16.064,0,0,1,152.966,113.95Z" transform="translate(28.824 75.067)" fill="none" stroke="#cef0f2" stroke-miterlimit="10" stroke-width="1.401"/>
        <path id="Trazado_678853" data-name="Trazado 678853" d="M181.346,284.471c2.54-.232,5.4-1.654,8.262-3.282a160.232,160.232,0,0,0,2.694-21.375,134.75,134.75,0,0,0-13.316,2.666c2.474-.645,7.952-4.039,13.539-6.854q.2-4.619.207-9.468a183.178,183.178,0,0,0-2.983-34.343,63.3,63.3,0,0,0-11.039,4.087c2.4-1.174,6.117-5.295,10-8.825-2.637-10.742-6.347-17.442-10.459-17.442-6.619,0-12.2,17.334-13.926,41,4.44,4.1,8.68,9.438,10.726,11.6-1.5-1.581-6.23-2.866-11.128-4.337q-.152,4.046-.156,8.266a200.167,200.167,0,0,0,1.561,25.512c4.889,3.085,9.575,6.826,12.117,7.552-3.8-1.087-7.623-2.085-11.461-3.029,2.563,15.906,7.1,26.487,12.267,26.487,4.3,0,8.157-7.311,10.809-18.913l-7.709.7" transform="translate(-23.348 153.876)" fill="#222b54"/>
        <path id="Trazado_678854" data-name="Trazado 678854" d="M158.829,288.964c2.527.371,5.73-.545,9.01-1.7a226.685,226.685,0,0,0,9.267-23.86,117.144,117.144,0,0,0-13.7-.279c2.592-.12,8.945-2.643,15.222-4.472q1.636-5.255,3.152-10.818A257.783,257.783,0,0,0,189.6,207.67a57.962,57.962,0,0,0-11.945,1.924c2.688-.744,7.565-4.543,12.414-7.624.8-12.99-.7-21.611-4.67-22.641-6.4-1.659-17.192,16.837-26.242,43.567,3.012,5.817,5.447,13.01,6.749,16-.956-2.192-5.126-4.851-9.4-7.767q-1.41,4.608-2.728,9.448a282.847,282.847,0,0,0-6.447,29.675c3.764,4.768,7.126,10.236,9.356,11.707-3.333-2.2-6.717-4.3-10.133-6.349-2.482,18.9-1.4,32.182,3.6,33.477,4.154,1.078,10.162-6.347,16.345-19l-7.671-1.125" transform="translate(12.587 145.431)" fill="#5f65a3"/>
        <path id="Trazado_678855" data-name="Trazado 678855" d="M222.262,274.3c2-1.545,3.648-4.166,5.2-6.949a135.418,135.418,0,0,0-8.753-17.707c-3.357,2.929-6.637,5.943-9.735,9.206,1.732-1.824,4.554-7.358,7.766-12.51q-2.212-3.622-4.7-7.311a156.813,156.813,0,0,0-20.16-24.507,64.859,64.859,0,0,0-7.106,9.059c1.4-2.188,2.378-7.325,3.8-12.1-7.726-6.748-14.269-9.843-17.7-7.626-5.521,3.569-1.255,19.756,9.481,38.682,5.811.725,12.1,2.5,14.914,3.038-2.067-.393-6.672,1.179-11.514,2.7q1.956,3.163,4.123,6.371a171.1,171.1,0,0,0,14.43,18.558c5.666-.288,11.5.029,13.993-.788-3.728,1.221-7.431,2.523-11.117,3.875C215.507,287,224.735,292.6,229.048,289.817c3.585-2.317,3.04-9.956-.717-20.208q-3.035,2.348-6.068,4.692" transform="translate(-70.588 164.841)" fill="#94abff"/>
        <path id="Trazado_678856" data-name="Trazado 678856" d="M149.629,246.175l1.48,7.231,6.309,31.1H215.39l6.309-31.1,1.48-7.231Z" transform="translate(-28.196 199.756)" fill="#de743e"/>
        <path id="Trazado_678857" data-name="Trazado 678857" d="M149.629,244.522v2.994l1.48,7.229H221.7l1.48-7.229v-2.994Z" transform="translate(-28.196 198.415)" fill="#a44217"/>
        <rect id="Rectángulo_345667" data-name="Rectángulo 345667" width="84.676" height="12.425" transform="translate(116.988 436.442)" fill="#de743e"/>
        <path id="Trazado_678858" data-name="Trazado 678858" d="M76.175,107.395l0,.007-.074.06c-.2.165-1.962,7.275-2.025,7.541l7.025,6.6c.261-.082,7.248-2.286,7.4-2.5l.054-.078h.007l9.305,5.445,0,.007-.04.085c-.11.237,1.388,7.407,1.446,7.673l9.193,2.9c.2-.187,5.538-5.2,5.583-5.46l.016-.094.005,0,10.747.868.005.005v.1c0,.259,4.465,6.07,4.632,6.286l9.539-1.38c.1-.254,2.732-7.09,2.661-7.34l-.027-.092,0-.005,10.061-3.88.005,0,.042.085c.118.234,6.657,3.532,6.9,3.654l8-5.382c-.02-.272-.616-7.574-.788-7.769l-.063-.071v-.007l7.38-7.86h.007l.076.058c.2.159,7.528.3,7.8.3l4.869-8.318c-.138-.235-3.842-6.556-4.081-6.657l-.087-.036,0-.007,3.239-10.284.005,0,.094.02c.254.054,6.911-3,7.159-3.117l.777-9.606c-.226-.154-6.306-4.241-6.565-4.228l-.1.005-.005,0-1.543-10.671,0-.007.092-.022c.254-.062,4.925-5.7,5.1-5.914L186.539,39.3c-.27-.042-7.521-1.085-7.749-.962l-.083.047-.007,0-6.021-8.945,0-.007.072-.06c.2-.165,1.964-7.275,2.027-7.541l-7.027-6.6c-.261.082-7.246,2.286-7.4,2.5l-.056.076-.005,0-9.307-5.445,0-.007.042-.085c.109-.237-1.389-7.407-1.447-7.675L140.385,1.7c-.2.187-5.536,5.2-5.581,5.46l-.016.094-.005,0-10.747-.869-.005-.005V6.286c0-.261-4.465-6.07-4.634-6.286l-9.537,1.38c-.1.254-2.732,7.09-2.661,7.34l.025.092,0,.005L97.161,12.7l-.007,0-.042-.085c-.116-.234-6.657-3.532-6.9-3.654l-7.994,5.382c.02.272.616,7.574.788,7.769l.062.071v.007l-7.38,7.86h-.007l-.074-.058c-.206-.159-7.53-.3-7.8-.3l-4.867,8.316c.136.237,3.84,6.557,4.081,6.659l.087.036,0,.005L63.867,54.994l-.007,0-.092-.022c-.255-.053-6.912,3-7.159,3.119L55.831,67.7c.225.154,6.306,4.241,6.565,4.228l.094-.005.007,0L64.04,82.6l0,.007-.092.022c-.254.062-4.925,5.7-5.1,5.914l3.469,8.992c.27.042,7.521,1.085,7.749.96l.083-.045.007,0Zm23.308-62.4a34.215,34.215,0,1,1,1.523,48.364,34.216,34.216,0,0,1-1.523-48.364" transform="translate(171.871)" fill="#cef0f2"/>
        <path id="Trazado_678859" data-name="Trazado 678859" d="M62.814,258.8H92.145a2.144,2.144,0,0,0,2.138-2.137V254.45a2.144,2.144,0,0,0-2.138-2.138H62.814a2.144,2.144,0,0,0-2.137,2.138v2.217a2.144,2.144,0,0,0,2.137,2.137" transform="translate(261.832 204.737)" fill="#a2aedb"/>
        <line id="Línea_347" data-name="Línea 347" y2="96.726" transform="translate(339.498 361.549)" fill="none" stroke="#a2aedb" stroke-miterlimit="10" stroke-width="2.945"/>
      </g>
    </g>
    <g id="Grupo_993595" data-name="Grupo 993595" transform="translate(1057 1779)">
      <g id="Grupo_993594" data-name="Grupo 993594" clip-path="url(#clip-path-2)">
        <path id="Trazado_679971" data-name="Trazado 679971" d="M12.778,42.612V19.357a11.016,11.016,0,1,1,22.032,0V42.612h8.174V19.778a19.189,19.189,0,1,0-38.378,0V42.612Z" fill="none" stroke="#cef0f2" stroke-width="1"/>
        <path id="Trazado_679972" data-name="Trazado 679972" d="M12.778,42.612V19.357a11.016,11.016,0,1,1,22.032,0V42.612h8.174V19.778a19.189,19.189,0,1,0-38.378,0V42.612Z" fill="none" stroke="#cef0f2" stroke-linecap="round" stroke-linejoin="round" stroke-width="1.175"/>
        <rect id="Rectángulo_346207" data-name="Rectángulo 346207" width="46.415" height="46.414" transform="translate(0.587 36.247)" fill="none" stroke="#cef0f2" stroke-width="1"/>
        <rect id="Rectángulo_346208" data-name="Rectángulo 346208" width="46.415" height="46.414" transform="translate(0.587 36.247)" fill="none" stroke="#cef0f2" stroke-linecap="round" stroke-linejoin="round" stroke-width="1.175"/>
        <path id="Trazado_679973" data-name="Trazado 679973" d="M32.215,54.166a8.421,8.421,0,1,0-10.967,8.028V70.03H26.34V62.194a8.425,8.425,0,0,0,5.875-8.028" fill="none" stroke="#cef0f2" stroke-width="1"/>
      </g>
    </g>
    <g id="Grupo_993760" data-name="Grupo 993760" transform="translate(942.052 1773.712)">
      <g id="Enmascarar_grupo_993758" data-name="Enmascarar grupo 993758" transform="translate(-3 -3)" clip-path="url(#clip-path-3)">
        <g id="Grupo_993757" data-name="Grupo 993757" transform="translate(0 0)">
          <g id="Grupo_993756" data-name="Grupo 993756" transform="translate(0 0)" clip-path="url(#clip-path-4)">
            <path id="Trazado_680247" data-name="Trazado 680247" d="M3.813,2.706,6.141,40.434a2.548,2.548,0,0,0,2.543,2.392H76.606a2.548,2.548,0,0,0,2.548-2.549V10.9a2.548,2.548,0,0,0-2.565-2.549l-41.771.27a2.551,2.551,0,0,1-1.805-.733L25.754.734A2.548,2.548,0,0,0,23.966,0H6.356A2.549,2.549,0,0,0,3.813,2.706" transform="translate(5.277 4.787)" fill="none" stroke="#96a1c9" stroke-width="2"/>
            <path id="Trazado_680249" data-name="Trazado 680249" d="M.012,16.579,5.678,62.823A1.64,1.64,0,0,0,7.3,64.262H79.63a1.638,1.638,0,0,0,1.633-1.509l3.642-46.246a1.639,1.639,0,0,0-1.633-1.767H1.639A1.639,1.639,0,0,0,.012,16.579" transform="translate(4.787 6.686)" fill="none" stroke="#b3bee6" stroke-width="2"/>
          </g>
        </g>
      </g>
    </g>
  </g>
</svg>
