<svg xmlns="http://www.w3.org/2000/svg" xmlns:xlink="http://www.w3.org/1999/xlink" width="505.019" height="317" viewBox="0 0 505.019 317">
  <defs>
    <clipPath id="clip-path">
      <rect id="Rectángulo_345265" data-name="Rectángulo 345265" width="505" height="305.114" transform="translate(0 48)" fill="none"/>
    </clipPath>
    <clipPath id="clip-path-2">
      <path id="Trazado_678284" data-name="Trazado 678284" d="M190.868,186.481a69.094,69.094,0,0,0,121.638,44.866c10.317-12.072,57.151-48.127,57.151-65.252,0-38.159-71.539-67-109.7-67s-69.093,49.225-69.093,87.384" transform="translate(-190.868 -99.097)" fill="none"/>
    </clipPath>
  </defs>
  <g id="Grupo_992365" data-name="Grupo 992365" transform="translate(-915 -4544)">
    <path id="Rectángulo_345331" data-name="Rectángulo 345331" d="M45,0H460a45,45,0,0,1,45,45V317a0,0,0,0,1,0,0H0a0,0,0,0,1,0,0V45A45,45,0,0,1,45,0Z" transform="translate(915.019 4544)" fill="#bddaff" opacity="0.28"/>
    <g id="Grupo_992362" data-name="Grupo 992362" transform="translate(915 4507.886)">
      <g id="Grupo_992357" data-name="Grupo 992357">
        <g id="Grupo_992356" data-name="Grupo 992356" clip-path="url(#clip-path)">
          <path id="Trazado_678222" data-name="Trazado 678222" d="M446.093,130.388s25.772-54-2.36-94.856C421.786,3.66,402.1,27.7,427.986,60.474c17.544,22.211,19,35.55,18.107,69.914" transform="translate(-34.317 -1.697)" fill="#b3c6f2"/>
          <path id="Trazado_678223" data-name="Trazado 678223" d="M424.2,25.931a88.98,88.98,0,0,1,15.521,22.754,105.3,105.3,0,0,1,5.264,12.8,111.421,111.421,0,0,1,3.664,13.352,116.045,116.045,0,0,1,1.974,13.7c.255,2.3.282,4.607.425,6.91,0,2.306.1,4.615-.027,6.919l-.136,3.457c-.061,1.15-.178,2.3-.263,3.448-.149,2.3-.456,4.585-.743,6.871-.269,2.288-.752,4.544-1.118,6.815-.429,2.261-.963,4.5-1.457,6.745a154.977,154.977,0,0,0,2.867-27.352c.038-1.145.022-2.291-.016-3.436l-.061-3.435c-.16-2.284-.2-4.577-.472-6.851a121.486,121.486,0,0,0-10.664-39.58,108.675,108.675,0,0,0-6.572-12.065A80.764,80.764,0,0,0,424.2,25.931" transform="translate(-35.02 -2.141)" fill="#fff"/>
          <path id="Trazado_678224" data-name="Trazado 678224" d="M443.679,133.958s5.091-34.407-27.236-59.464c-33.537-25.995-36.064,5.675-6.378,24.9s33.614,34.561,33.614,34.561" transform="translate(-32.149 -5.339)" fill="#92ace0"/>
          <path id="Trazado_678225" data-name="Trazado 678225" d="M393.107,68.512a111.361,111.361,0,0,1,17.959,11.881A115.821,115.821,0,0,1,426.591,95.4a84.862,84.862,0,0,1,11.759,18.126,68.844,68.844,0,0,1,3.767,10.136,61.378,61.378,0,0,1,1.866,10.614,69.393,69.393,0,0,0-6.591-20.286,89.144,89.144,0,0,0-11.857-17.7A125.135,125.135,0,0,0,410.392,81.21q-4.069-3.484-8.408-6.65-4.3-3.205-8.876-6.049" transform="translate(-32.453 -5.656)" fill="#fff"/>
          <path id="Trazado_678226" data-name="Trazado 678226" d="M448.561,137s14.41-31.656,55.162-35.142c42.278-3.616,27.2,24.35-8.168,24.376S448.561,137,448.561,137" transform="translate(-37.031 -8.382)" fill="#b3c6f2"/>
          <path id="Trazado_678227" data-name="Trazado 678227" d="M527,110.078q-5.379-.1-10.738.259c-3.571.209-7.132.54-10.672,1.017a125.186,125.186,0,0,0-20.906,4.44,89.123,89.123,0,0,0-19.567,8.422,69.393,69.393,0,0,0-16.551,13.454,61.334,61.334,0,0,1,7.331-7.9,68.742,68.742,0,0,1,8.667-6.466,84.886,84.886,0,0,1,19.717-8.834,115.737,115.737,0,0,1,21.186-4.171A111.407,111.407,0,0,1,527,110.078" transform="translate(-37.031 -9.053)" fill="#fff"/>
          <path id="Trazado_678228" data-name="Trazado 678228" d="M448.561,133.735s.764-41.131,43.357-64.065c44.187-23.793,40.966,13.646,2.59,30.295s-45.947,33.77-45.947,33.77" transform="translate(-37.031 -5.116)" fill="#92ace0"/>
          <path id="Trazado_678229" data-name="Trazado 678229" d="M520.723,67.372c-3.934,1.587-7.785,3.356-11.56,5.272q-5.677,2.84-11.127,6.091A147.058,147.058,0,0,0,477.4,93.366a105.031,105.031,0,0,0-17.278,18.377,81.162,81.162,0,0,0-11.562,22.437,73.273,73.273,0,0,1,4.3-11.99,81.405,81.405,0,0,1,6.393-11.063,100.758,100.758,0,0,1,17.251-18.815,137.708,137.708,0,0,1,21-14.495,134.231,134.231,0,0,1,23.217-10.446" transform="translate(-37.031 -5.562)" fill="#fff"/>
          <path id="Trazado_678230" data-name="Trazado 678230" d="M47.508,359.393S.581,304.993,15.5,233.3C34.721,140.93,137.72,161.2,198.827,197.866s153.622,53.821,171.05-36.564C385.1,82.361,537.169,180.43,452.331,359.393Z" transform="translate(-1.038 -11.039)" fill="#d0ddf7"/>
          <path id="Trazado_678231" data-name="Trazado 678231" d="M145.889,368.319c-13.028,0-32.106-26.55-24.775-55.1,11.03-42.963,73.532-49.945,107.219-5.707,30.328,39.827,69.918,66.624,98.555,26.073,25.833-36.582-9.773-74.885-51.013-69.687s75.635-59.9,129.391-3.313c40.816,42.967,17.6,107.738,17.6,107.738Z" transform="translate(-9.864 -19.592)" fill="#fff"/>
          <path id="Trazado_678235" data-name="Trazado 678235" d="M416.472,285.039H85.117a5.288,5.288,0,0,1-5.288-5.287V90.13a5.288,5.288,0,0,1,5.288-5.287H416.472a5.288,5.288,0,0,1,5.287,5.287V279.751a5.287,5.287,0,0,1-5.287,5.287" transform="translate(-6.59 -7.004)" fill="#3557b5"/>
          <path id="Trazado_678236" data-name="Trazado 678236" d="M411.243,268.35H91.831a3,3,0,0,1-3-3V96.845a3,3,0,0,1,3-3H411.243a3,3,0,0,1,3,3v168.5a3,3,0,0,1-3,3" transform="translate(-7.333 -7.747)" fill="#fff"/>
          <path id="Trazado_678237" data-name="Trazado 678237" d="M329.054,188.127a69.093,69.093,0,1,1-69.093-69.093,69.093,69.093,0,0,1,69.093,69.093" transform="translate(-15.757 -9.827)" fill="#d0ddf7"/>
          <path id="Trazado_678238" data-name="Trazado 678238" d="M422.847,330.66H77.09a7.26,7.26,0,0,1-7.261-7.261v-9.876H430.108V323.4a7.26,7.26,0,0,1-7.261,7.261" transform="translate(-5.765 -25.883)" fill="#3557b5"/>
          <path id="Trazado_678239" data-name="Trazado 678239" d="M422.847,325.951H77.09a7.26,7.26,0,0,1-7.261-7.261v5.136a7.26,7.26,0,0,0,7.261,7.26H422.847a7.26,7.26,0,0,0,7.261-7.26V318.69a7.26,7.26,0,0,1-7.261,7.261" transform="translate(-5.765 -26.31)" fill="#2f499f"/>
          <path id="Trazado_678240" data-name="Trazado 678240" d="M305.142,320.389H218.15a6.867,6.867,0,0,1-6.867-6.867H312.009a6.867,6.867,0,0,1-6.867,6.867" transform="translate(-17.443 -25.883)" fill="#b3c6f2"/>
          <rect id="Rectángulo_345263" data-name="Rectángulo 345263" width="49.939" height="9.605" transform="translate(105.664 278.034)" fill="#2f499f"/>
          <rect id="Rectángulo_345264" data-name="Rectángulo 345264" width="49.939" height="9.605" transform="translate(332.804 278.034)" fill="#2f499f"/>
          <path id="Trazado_678241" data-name="Trazado 678241" d="M275.272,296.423H254.644a3.245,3.245,0,1,1,0-6.49h20.628a3.245,3.245,0,1,1,0,6.49" transform="translate(-20.754 -23.936)" fill="#d0ddf7"/>
          <path id="Trazado_678242" data-name="Trazado 678242" d="M268.471,89.132a2.521,2.521,0,1,1-2.52-2.519,2.521,2.521,0,0,1,2.52,2.519" transform="translate(-21.748 -7.15)" fill="#203d8e"/>
        </g>
      </g>
      <g id="Grupo_992359" data-name="Grupo 992359" transform="translate(175.111 90.916)">
        <g id="Grupo_992358" data-name="Grupo 992358" clip-path="url(#clip-path-2)">
          <path id="Trazado_678243" data-name="Trazado 678243" d="M294.166,158.031c2.9-16.08-4.428-10.952-4.757-25.379s-9.927-20.072-9.927-20.072c-14.2-10.117-27.238-5.418-34.627-.73,0,0-9.6,5.644-9.926,20.072s-9.085,10.03-6.187,26.11c1.573,8.731-11.82,15.3-11.125,24.163.669,8.531,18.371,19.435,41.873,20.507a9.338,9.338,0,0,0,1.145.07c.275,0,.545-.011.819-.015s.543.015.818.015a9.336,9.336,0,0,0,1.145-.07c23.5-1.072,41.2-11.975,41.873-20.507.7-8.865-12.7-15.431-11.125-24.163" transform="translate(-193.074 -99.714)" fill="#23377a"/>
          <path id="Trazado_678244" data-name="Trazado 678244" d="M341.488,182.668s5.773-6.838,7.45-8.769,6.185-3.418,8.457-3.546,6.177-4.207,8.849-4.462-2.074,6.735-2.074,6.735,4.856.352,7.817-.724,5.907-3.728,7.154-4.058,1.03,2.91-4.209,7.067a21.023,21.023,0,0,1-11.7,4.461c-.69.013-8.6,1.618-9.933,3.518s-4.615,7.292-4.615,7.292Z" transform="translate(-203.303 -104.611)" fill="#f5b8a5"/>
          <path id="Trazado_678245" data-name="Trazado 678245" d="M358.5,170.352a14.969,14.969,0,0,0-3.668.814,51.674,51.674,0,0,1,10.442,1.461s4.747-6.99,2.075-6.736-6.578,4.334-8.85,4.462" transform="translate(-204.404 -104.611)" fill="#ea9686"/>
          <path id="Trazado_678246" data-name="Trazado 678246" d="M349.158,186.12s-17.3,37.673-25.667,38.246c-5.606.384-18.277-13.913-18.277-13.913l11.342-13.523s4.756,5.3,6.362,6.106,15.575-18.858,15.575-18.858Z" transform="translate(-200.308 -106.121)" fill="#f5b8a5"/>
          <path id="Trazado_678247" data-name="Trazado 678247" d="M291.354,173.684,319,197.611l-14.209,16.943-29.676-29.58Z" transform="translate(-197.823 -105.255)" fill="#b3c6f2"/>
          <path id="Trazado_678248" data-name="Trazado 678248" d="M295.51,193.525l10.961,22.666L296.31,206.064Z" transform="translate(-199.507 -106.893)" fill="#92ace0" fill-rule="evenodd"/>
          <path id="Trazado_678249" data-name="Trazado 678249" d="M320.156,201.874l-4.795,19.572a84.244,84.244,0,0,1-6.555-6.04Z" transform="translate(-200.604 -107.582)" fill="#ea9686" fill-rule="evenodd"/>
          <path id="Trazado_678250" data-name="Trazado 678250" d="M230.053,247.336s-32.227-20.967-31.445-29.322c.524-5.6,16.448-20.581,16.448-20.581l8.752,14.608s-4.855,6.232-5.906,7.688,15.785,17.394,15.785,17.394Z" transform="translate(-191.506 -107.215)" fill="#f5b8a5"/>
          <path id="Trazado_678251" data-name="Trazado 678251" d="M211.609,202.312h0l8.239,16.655c.587-.773,1.342-1.756,2.093-2.728L224,210.963l-4.527-7.555Z" transform="translate(-192.58 -107.618)" fill="#ea9686"/>
          <path id="Trazado_678252" data-name="Trazado 678252" d="M227.42,247.547a4.944,4.944,0,0,0,.87-1.174c1.449-2.662,2-9.49,2-9.49l-9.068,6.229c2.307,1.7,4.447,3.218,6.2,4.435" transform="translate(-193.374 -110.472)" fill="#ea9686"/>
          <path id="Trazado_678253" data-name="Trazado 678253" d="M289.244,138.558a4.19,4.19,0,0,0-5.083.788l-.95,6.784a20.7,20.7,0,0,1-.587,2.758c7.809,2.008,10.532-8.583,6.62-10.33" transform="translate(-198.443 -102.313)" fill="#f5b8a5"/>
          <path id="Trazado_678254" data-name="Trazado 678254" d="M242.59,138.558a4.19,4.19,0,0,1,5.083.788l.95,6.784a20.855,20.855,0,0,0,.587,2.758c-7.809,2.008-10.532-8.583-6.62-10.33" transform="translate(-194.992 -102.313)" fill="#f5b8a5"/>
          <path id="Trazado_678255" data-name="Trazado 678255" d="M245.837,141.878s-.957-1.384-2-.255c-.917,1-.487,4.451,2.915,4.842a5,5,0,0,1-1.826-2.973,1.5,1.5,0,0,1,.908-1.615" transform="translate(-195.207 -102.571)" fill="#ea9686" fill-rule="evenodd"/>
          <path id="Trazado_678256" data-name="Trazado 678256" d="M286.452,141.878s.957-1.384,2-.255c.917,1,.487,4.451-2.915,4.842a5,5,0,0,0,1.826-2.973,1.5,1.5,0,0,0-.908-1.615" transform="translate(-198.683 -102.571)" fill="#ea9686" fill-rule="evenodd"/>
          <path id="Trazado_678257" data-name="Trazado 678257" d="M265.5,145.135h0c-4.119,0-7.489,3.926-7.489,8.724v16.7c0,4.8,3.37,8.725,7.489,8.725s7.489-3.926,7.489-8.725v-16.7c0-4.8-3.371-8.724-7.489-8.724" transform="translate(-196.411 -102.898)" fill="#ea9686" fill-rule="evenodd"/>
          <path id="Trazado_678258" data-name="Trazado 678258" d="M247.83,133.592c0-8.483,7.623-15.423,16.939-15.423h0c9.316,0,16.939,6.94,16.939,15.423,0,0,.9,29.449-16.939,29.452h0c-17.834,0-16.939-29.452-16.939-29.452" transform="translate(-195.57 -100.672)" fill="#f5b8a5" fill-rule="evenodd"/>
          <path id="Trazado_678259" data-name="Trazado 678259" d="M277.019,141.118a1.429,1.429,0,0,1,1.424,1.425v.006a1.644,1.644,0,0,0-.227-.027c-.561,0-1.014.257-1.014.573s.453.573,1.014.573a1.643,1.643,0,0,0,.227-.026v1.641a1.424,1.424,0,1,1-2.849,0v-2.742a1.429,1.429,0,0,1,1.425-1.425" transform="translate(-197.863 -102.566)" fill="#23377a" fill-rule="evenodd"/>
          <path id="Trazado_678260" data-name="Trazado 678260" d="M278.16,141.785c.484.006,2.342-.9,1.253-.758a13.77,13.77,0,0,1-2.266.082s.205,1.049,1.1,1.1a1.8,1.8,0,0,0,1.18-.372c.342-.3-.62.14-1.264-.049" transform="translate(-197.991 -102.557)" fill="#23377a" fill-rule="evenodd"/>
          <path id="Trazado_678261" data-name="Trazado 678261" d="M262.742,137.744a.688.688,0,0,1-.427.022c-1.885-.508-4.233.486-5.35,1.279a.688.688,0,1,1-.8-1.123c1.144-.811,3.977-2.167,6.5-1.484a.688.688,0,0,1,.068,1.306" transform="translate(-196.235 -102.164)" fill="#23377a"/>
          <path id="Trazado_678262" data-name="Trazado 678262" d="M274.45,137.744a.688.688,0,0,0,.427.022c1.885-.508,4.233.486,5.35,1.279a.688.688,0,1,0,.8-1.123c-1.144-.811-3.976-2.167-6.5-1.484a.688.688,0,0,0-.068,1.306" transform="translate(-197.732 -102.164)" fill="#23377a"/>
          <path id="Trazado_678263" data-name="Trazado 678263" d="M260.576,141.118a1.429,1.429,0,0,0-1.425,1.425v.006a1.659,1.659,0,0,1,.228-.027c.56,0,1.013.257,1.013.573s-.453.573-1.013.573a1.658,1.658,0,0,1-.228-.026v1.641a1.425,1.425,0,1,0,2.85,0v-2.742a1.429,1.429,0,0,0-1.425-1.425" transform="translate(-196.505 -102.566)" fill="#23377a" fill-rule="evenodd"/>
          <path id="Trazado_678264" data-name="Trazado 678264" d="M262.773,154.358a5.428,5.428,0,1,0,10.855,0Z" transform="translate(-196.804 -103.659)" fill="#e27466" fill-rule="evenodd"/>
          <path id="Trazado_678265" data-name="Trazado 678265" d="M273.288,156.19a5.372,5.372,0,0,0,.339-1.832H262.772a5.37,5.37,0,0,0,.339,1.832Z" transform="translate(-196.804 -103.659)" fill="#fff" fill-rule="evenodd"/>
          <path id="Trazado_678266" data-name="Trazado 678266" d="M259.457,141.785c-.483.006-2.342-.9-1.253-.758a13.77,13.77,0,0,0,2.266.082s-.206,1.049-1.1,1.1a1.8,1.8,0,0,1-1.18-.372c-.342-.3.62.14,1.264-.049" transform="translate(-196.399 -102.557)" fill="#23377a" fill-rule="evenodd"/>
          <path id="Trazado_678267" data-name="Trazado 678267" d="M233.281,238.825c.194-6.446,3.412-56.049,3.907-63.5a3.256,3.256,0,0,1,2.64-2.979,93.67,93.67,0,0,0,10.352-2.233c2.421-.868,4.89-1.609,5.482-.944a8.026,8.026,0,0,0,7.386,4.867,8.451,8.451,0,0,0,7.592-4.751c.592-.666,2.856-.04,5.277.828a93.646,93.646,0,0,0,10.351,2.233,3.255,3.255,0,0,1,2.64,2.979c.5,7.454,3.714,57.057,3.908,63.5s5.633,16.821,4.957,18.079c0,0-12.719,9.014-34.725,8.347-22.007.667-34.725-8.347-34.725-8.347-.675-1.258,4.763-11.633,4.958-18.079" transform="translate(-193.955 -104.86)" fill="#b3c6f2" fill-rule="evenodd"/>
          <path id="Trazado_678268" data-name="Trazado 678268" d="M276.929,169.742c-1.988-.655-3.7-1.025-4.2-.46a8.451,8.451,0,0,1-7.592,4.751,8.026,8.026,0,0,1-7.386-4.866c-.489-.55-2.263-.136-4.23.514l11.724,20.752Z" transform="translate(-196.04 -104.861)" fill="#fff" fill-rule="evenodd"/>
          <path id="Trazado_678269" data-name="Trazado 678269" d="M234.365,233.247v31.944a66.6,66.6,0,0,0,29.187,5.372c22.007.668,34.725-8.346,34.725-8.346.675-1.258-4.763-11.634-4.958-18.079-.047-1.544-.267-5.567-.582-10.89Z" transform="translate(-194.459 -110.172)" fill="#2f499f" fill-rule="evenodd"/>
          <path id="Trazado_678270" data-name="Trazado 678270" d="M293.319,250.742c.111,3.684,1.935,8.651,3.351,12.466,1.055-.6,1.606-.993,1.606-.993.675-1.258-4.763-11.633-4.958-18.079-.047-1.544-.267-5.567-.582-10.89H234.365v6.606h58.372c.315,5.323.535,9.346.582,10.89" transform="translate(-194.459 -110.172)" fill="#1d3987" fill-rule="evenodd"/>
          <path id="Trazado_678271" data-name="Trazado 678271" d="M274.341,169.1a.677.677,0,0,1,.141-.086l.1-.043c.92-.266,3.045.385,5.139,1.136a93.669,93.669,0,0,0,10.352,2.233,3.255,3.255,0,0,1,2.64,2.978c.5,7.454,3.713,57.058,3.907,63.5s7.925,19.777,7.249,21.035c0,0-10.662,8.046-27.68,8.046Z" transform="translate(-197.759 -104.861)" fill="#4764b5" fill-rule="evenodd"/>
          <path id="Trazado_678272" data-name="Trazado 678272" d="M237.053,173.684,209.41,197.611l14.209,16.943,29.676-29.58Z" transform="translate(-192.399 -105.255)" fill="#b3c6f2"/>
          <path id="Trazado_678273" data-name="Trazado 678273" d="M235.86,193.525,224.9,216.192l10.161-10.128Z" transform="translate(-193.677 -106.893)" fill="#92ace0" fill-rule="evenodd"/>
          <path id="Trazado_678274" data-name="Trazado 678274" d="M276.095,126.35s-3.738,5.887-14.863,5.887-14.474,5.642-13.06,11.477c0,0-4.932,1.22-5.193,0s-1.738-16.431-1.3-17.735.721-5.26,3.4-6.062,7.181-4.889,12.623-5.237,7.577-2.5,11.595-1.077,13.477,10.358,14.136,10.976,2.744,7.571,2.918,8.44,0,5.844,0,5.844l-5.148-3.5s-5.8-3.692-5.108-9.017" transform="translate(-195.056 -100.255)" fill="#23377a"/>
          <path id="Trazado_678275" data-name="Trazado 678275" d="M255.354,169.1a.677.677,0,0,0-.141-.086l-.1-.043c-.92-.266-3.045.385-5.139,1.136a93.67,93.67,0,0,1-10.352,2.233,3.256,3.256,0,0,0-2.64,2.978c-.5,7.454-3.713,57.058-3.907,63.5s-7.925,19.777-7.249,21.035c0,0,10.662,8.046,27.68,8.046Z" transform="translate(-193.751 -104.861)" fill="#4764b5" fill-rule="evenodd"/>
          <path id="Trazado_678276" data-name="Trazado 678276" d="M267.545,200.691a1.373,1.373,0,1,1-1.373-1.373,1.373,1.373,0,0,1,1.373,1.373" transform="translate(-196.971 -107.371)" fill="#4764b5" fill-rule="evenodd"/>
          <path id="Trazado_678277" data-name="Trazado 678277" d="M267.545,208.635a1.373,1.373,0,1,1-1.373-1.373,1.373,1.373,0,0,1,1.373,1.373" transform="translate(-196.971 -108.027)" fill="#4764b5" fill-rule="evenodd"/>
          <path id="Trazado_678278" data-name="Trazado 678278" d="M267.545,216.578a1.373,1.373,0,1,1-1.373-1.373,1.373,1.373,0,0,1,1.373,1.373" transform="translate(-196.971 -108.682)" fill="#4764b5" fill-rule="evenodd"/>
          <path id="Trazado_678279" data-name="Trazado 678279" d="M247.61,144.317l.673,3.214-8.965,4.447s-4.868-2.942-4.52-5.84,5.562-11.125,7.3-12.863,2.086-7.3,9.271-9.386,6.437-3.014,11.5-3.014,9.686.117,11.549,0,2.12-.927,4.251,0,6.418,5.679,6.651,6.142,3.708,9.19,3.708,9.19.928,6.28,1.159,6.889,1.506,3.053-1.506,4.323a49.367,49.367,0,0,1-8.045,2.2L279.1,147.53l1.446-10.035,1.415-10.826-10.889-1.043s-11.574.232-12.511.464-9.264,4.867-9.852,5.678-2.672,4.439-2.672,4.439v4.586Z" transform="translate(-194.493 -100.859)" fill="#23377a"/>
          <path id="Trazado_678280" data-name="Trazado 678280" d="M235.921,240.349c-.647-.158-2.7-.369-2.7-.369l.544-3.6a4.264,4.264,0,0,0-3.051.457c-1.1.666-4.173,5.772-4.281,9.974s5.446,6.043,7.439,5.623c0,0,.825.05,1.167-1.363a1.2,1.2,0,0,0-.821-1.476s1.1.127,1.362-1.707a1.293,1.293,0,0,0-1.017-1.561s1.337.051,1.449-1.166c.092-.992.151-1.765-.692-2.039a1.449,1.449,0,0,0,1.3-1.4c.107-1.31-.7-1.366-.7-1.366" transform="translate(-193.804 -110.422)" fill="#f5b8a5"/>
          <path id="Trazado_678281" data-name="Trazado 678281" d="M236.02,249.125a2.972,2.972,0,0,1-3.1.556c-1.919-.674.6.823,1.774.971.041,0,.079-.005.119,0,.272-.022.957-.225,1.2-1.522" transform="translate(-194.282 -111.483)" fill="#ea9686"/>
          <path id="Trazado_678282" data-name="Trazado 678282" d="M236.537,245.857a5.632,5.632,0,0,0,.03-1.1c-.007.054-.179,1.156-.817,1.444a6.084,6.084,0,0,1-2.906,0c-.236-.168-.149.57,2.244.823,0,0,1.337.051,1.449-1.166" transform="translate(-194.326 -111.122)" fill="#ea9686"/>
          <path id="Trazado_678283" data-name="Trazado 678283" d="M235.9,243.523a1.449,1.449,0,0,0,1.3-1.4,1.68,1.68,0,0,0-.14-.936,1.623,1.623,0,0,1-1.1,1.516,6.481,6.481,0,0,1-2.515,0c.005-.021-.46.127,2.461.822" transform="translate(-194.38 -110.827)" fill="#ea9686"/>
        </g>
      </g>
      <g id="Grupo_992361" data-name="Grupo 992361">
        <g id="Grupo_992363" data-name="Grupo 992363">
          <path id="Trazado_678285" data-name="Trazado 678285" d="M269.12,142.74s.95,3.973,1.917,5.354.1,2.211-2.246,2.176.761-.518.864-1.762-1.279-3.109-.536-5.769" transform="translate(-22.118 -11.784)" fill="#e27466"/>
          <path id="Trazado_678286" data-name="Trazado 678286" d="M390.311,254.9a10.882,10.882,0,1,1-10.882-10.882A10.881,10.881,0,0,1,390.311,254.9" transform="translate(-30.426 -20.145)" fill="#d4484c"/>
          <path id="Trazado_678287" data-name="Trazado 678287" d="M356.811,254.9a10.882,10.882,0,1,1-10.882-10.882A10.881,10.881,0,0,1,356.811,254.9" transform="translate(-27.66 -20.145)" fill="#4764b5"/>
          <path id="Trazado_678288" data-name="Trazado 678288" d="M349.767,256.378l-.845.845,2.631,2.631.845-.845a.271.271,0,0,0,0-.383l-2.248-2.248a.27.27,0,0,0-.383,0m-8.133-3.125c.313,1.465,2.131,3.393,2.9,4.152s2.687,2.584,4.152,2.9a3.481,3.481,0,0,0,2.627-.246l-2.609-2.609-.006.008c-.255.141-.934.284-2.116-1.044l-.194-.194-.668-.667-.193-.194c-1.328-1.182-1.185-1.861-1.044-2.115l.008-.007-2.609-2.609a3.473,3.473,0,0,0-.245,2.627m1.294-3.715-.845.845,2.631,2.631.845-.845a.271.271,0,0,0,0-.383l-2.249-2.249a.271.271,0,0,0-.383,0" transform="translate(-28.192 -20.594)" fill="#fff"/>
          <path id="Trazado_678289" data-name="Trazado 678289" d="M423.811,254.9a10.882,10.882,0,1,1-10.882-10.882A10.881,10.881,0,0,1,423.811,254.9" transform="translate(-33.191 -20.145)" fill="#4764b5"/>
          <path id="Trazado_678290" data-name="Trazado 678290" d="M413.752,256.17h0a1.728,1.728,0,0,1-1.728-1.728v-3.495a1.728,1.728,0,1,1,3.457,0v3.495a1.728,1.728,0,0,1-1.728,1.728" transform="translate(-34.015 -20.574)" fill="#fff"/>
          <path id="Trazado_678291" data-name="Trazado 678291" d="M410.191,253.292v1.042a3.41,3.41,0,0,0,3.41,3.409v3.545" transform="translate(-33.863 -20.911)" fill="none" stroke="#fff" stroke-miterlimit="10" stroke-width="1"/>
          <path id="Trazado_678292" data-name="Trazado 678292" d="M417.318,253.292v1.042a3.41,3.41,0,0,1-3.41,3.409" transform="translate(-34.17 -20.911)" fill="none" stroke="#fff" stroke-miterlimit="10" stroke-width="1"/>
          <line id="Línea_283" data-name="Línea 283" x2="3.085" transform="translate(378.22 240.377)" fill="none" stroke="#fff" stroke-miterlimit="10" stroke-width="1"/>
          <path id="Trazado_678293" data-name="Trazado 678293" d="M382.028,258.683H375.1a.755.755,0,0,1-.755-.755V253.4a.755.755,0,0,1,.755-.755h6.929a.754.754,0,0,1,.755.755v4.531a.755.755,0,0,1-.755.755" transform="translate(-30.904 -20.857)" fill="#fff"/>
          <path id="Trazado_678294" data-name="Trazado 678294" d="M386.749,257.926l-2.339-.7a.386.386,0,0,1-.274-.369v-2.234a.386.386,0,0,1,.274-.369l2.339-.7a.386.386,0,0,1,.5.369v3.641a.386.386,0,0,1-.5.369" transform="translate(-31.713 -20.93)" fill="#fff"/>
          <rect id="Rectángulo_345266" data-name="Rectángulo 345266" width="123.767" height="21.611" transform="translate(182.32 304.746)" fill="#d4484c"/>
          <rect id="Rectángulo_345267" data-name="Rectángulo 345267" width="43.009" height="15.585" transform="translate(182.319 307.759)" fill="#fff"/>
          <rect id="Rectángulo_345268" data-name="Rectángulo 345268" width="43.009" height="1.106" transform="translate(182.319 320.559)" fill="#e6e7e8"/>
          <rect id="Rectángulo_345269" data-name="Rectángulo 345269" width="43.009" height="1.106" transform="translate(182.319 317.793)" fill="#e6e7e8"/>
          <rect id="Rectángulo_345270" data-name="Rectángulo 345270" width="43.009" height="1.106" transform="translate(182.319 315.027)" fill="#e6e7e8"/>
          <rect id="Rectángulo_345271" data-name="Rectángulo 345271" width="43.009" height="1.106" transform="translate(182.319 312.262)" fill="#e6e7e8"/>
          <rect id="Rectángulo_345272" data-name="Rectángulo 345272" width="43.009" height="1.106" transform="translate(182.319 309.496)" fill="#e6e7e8"/>
          <rect id="Rectángulo_345273" data-name="Rectángulo 345273" width="4.457" height="21.611" transform="translate(236.179 304.745)" fill="#ef5b5b"/>
          <rect id="Rectángulo_345274" data-name="Rectángulo 345274" width="4.457" height="21.611" transform="translate(291.712 304.745)" fill="#ef5b5b"/>
          <rect id="Rectángulo_345275" data-name="Rectángulo 345275" width="30.425" height="9.836" transform="translate(252.369 310.603)" fill="#ef5b5b"/>
          <rect id="Rectángulo_345276" data-name="Rectángulo 345276" width="123.767" height="21.611" transform="translate(101.38 326.417)" fill="#f4a945"/>
          <rect id="Rectángulo_345277" data-name="Rectángulo 345277" width="43.009" height="15.585" transform="translate(182.139 329.43)" fill="#fff"/>
          <rect id="Rectángulo_345278" data-name="Rectángulo 345278" width="43.009" height="1.106" transform="translate(182.139 342.23)" fill="#e6e7e8"/>
          <rect id="Rectángulo_345279" data-name="Rectángulo 345279" width="43.009" height="1.106" transform="translate(182.139 339.464)" fill="#e6e7e8"/>
          <rect id="Rectángulo_345280" data-name="Rectángulo 345280" width="43.009" height="1.106" transform="translate(182.139 336.698)" fill="#e6e7e8"/>
          <rect id="Rectángulo_345281" data-name="Rectángulo 345281" width="43.009" height="1.106" transform="translate(182.139 333.933)" fill="#e6e7e8"/>
          <rect id="Rectángulo_345282" data-name="Rectángulo 345282" width="43.009" height="1.106" transform="translate(182.139 331.167)" fill="#e6e7e8"/>
          <rect id="Rectángulo_345283" data-name="Rectángulo 345283" width="4.457" height="21.611" transform="translate(166.832 326.416)" fill="#ffca8a"/>
          <rect id="Rectángulo_345284" data-name="Rectángulo 345284" width="4.457" height="21.611" transform="translate(111.299 326.416)" fill="#ffca8a"/>
          <rect id="Rectángulo_345285" data-name="Rectángulo 345285" width="30.425" height="9.836" transform="translate(124.673 332.274)" fill="#ffca8a"/>
          <rect id="Rectángulo_345286" data-name="Rectángulo 345286" width="123.767" height="21.611" transform="translate(263.26 326.417)" fill="#00a79d"/>
          <rect id="Rectángulo_345287" data-name="Rectángulo 345287" width="43.009" height="15.585" transform="translate(344.019 329.43)" fill="#fff"/>
          <rect id="Rectángulo_345288" data-name="Rectángulo 345288" width="43.009" height="1.106" transform="translate(344.019 342.23)" fill="#e6e7e8"/>
          <rect id="Rectángulo_345289" data-name="Rectángulo 345289" width="43.009" height="1.106" transform="translate(344.019 339.464)" fill="#e6e7e8"/>
          <rect id="Rectángulo_345290" data-name="Rectángulo 345290" width="43.009" height="1.106" transform="translate(344.019 336.698)" fill="#e6e7e8"/>
          <rect id="Rectángulo_345291" data-name="Rectángulo 345291" width="43.009" height="1.106" transform="translate(344.019 333.933)" fill="#e6e7e8"/>
          <rect id="Rectángulo_345292" data-name="Rectángulo 345292" width="43.009" height="1.106" transform="translate(344.019 331.167)" fill="#e6e7e8"/>
          <rect id="Rectángulo_345293" data-name="Rectángulo 345293" width="4.457" height="21.611" transform="translate(328.711 326.416)" fill="#12c6b4"/>
          <rect id="Rectángulo_345294" data-name="Rectángulo 345294" width="4.457" height="21.611" transform="translate(273.177 326.416)" fill="#12c6b4"/>
          <rect id="Rectángulo_345295" data-name="Rectángulo 345295" width="30.425" height="9.836" transform="translate(286.553 332.274)" fill="#12c6b4"/>
          <path id="Trazado_678295" data-name="Trazado 678295" d="M45.74,110.917H4.475a3.752,3.752,0,0,1-3.761-3.743V88.552A3.751,3.751,0,0,1,4.475,84.81H45.74A3.751,3.751,0,0,1,49.5,88.552v18.621a3.752,3.752,0,0,1-3.761,3.743" transform="translate(-0.059 -7.002)" fill="#f4a945"/>
          <path id="Trazado_678296" data-name="Trazado 678296" d="M18.051,112.876v8.047l9.073-9.073Z" transform="translate(-1.49 -9.234)" fill="#f4a945"/>
          <path id="Trazado_678297" data-name="Trazado 678297" d="M29.388,98.832A2.292,2.292,0,1,1,27.1,96.54a2.292,2.292,0,0,1,2.292,2.292" transform="translate(-2.048 -7.97)" fill="#fff"/>
          <path id="Trazado_678298" data-name="Trazado 678298" d="M16.94,98.832a2.292,2.292,0,1,1-2.292-2.292,2.292,2.292,0,0,1,2.292,2.292" transform="translate(-1.02 -7.97)" fill="#fff"/>
          <path id="Trazado_678299" data-name="Trazado 678299" d="M41.837,98.832a2.293,2.293,0,1,1-2.293-2.292,2.293,2.293,0,0,1,2.293,2.292" transform="translate(-3.075 -7.97)" fill="#fff"/>
          <path id="Trazado_678300" data-name="Trazado 678300" d="M469.479,79.256h63.1a2.349,2.349,0,0,1,2.35,2.35V108.44a2.349,2.349,0,0,1-2.35,2.35H505.683l-9.633,6.837,2.064-6.837H469.479a2.35,2.35,0,0,1-2.35-2.35V81.606a2.35,2.35,0,0,1,2.35-2.35" transform="translate(-38.564 -6.543)" fill="#3557b5"/>
          <rect id="Rectángulo_345296" data-name="Rectángulo 345296" width="31.196" height="3.49" transform="translate(435.193 79.504)" fill="#fff"/>
          <rect id="Rectángulo_345297" data-name="Rectángulo 345297" width="55.878" height="3.49" transform="translate(435.193 86.643)" fill="#fff"/>
          <rect id="Rectángulo_345298" data-name="Rectángulo 345298" width="55.878" height="3.49" transform="translate(435.193 93.606)" fill="#fff"/>
          <path id="Trazado_678301" data-name="Trazado 678301" d="M501.575,379.112s7.993-17.557,30.595-19.491c23.448-2.006,15.086,13.506-4.53,13.519s-26.065,5.972-26.065,5.972" transform="translate(-41.408 -29.674)" fill="#b3c6f2"/>
          <path id="Trazado_678302" data-name="Trazado 678302" d="M545.077,364.18q-2.984-.055-5.956.144c-1.98.116-3.955.3-5.919.564a69.323,69.323,0,0,0-11.595,2.462,49.42,49.42,0,0,0-10.852,4.672,38.48,38.48,0,0,0-9.18,7.462,34.062,34.062,0,0,1,4.066-4.381,38.1,38.1,0,0,1,4.807-3.586,47.07,47.07,0,0,1,10.935-4.9,64.228,64.228,0,0,1,11.751-2.314,61.776,61.776,0,0,1,11.942-.124" transform="translate(-41.408 -30.046)" fill="#fff"/>
          <path id="Trazado_678303" data-name="Trazado 678303" d="M501.209,375.465s-11.785-23.851,5.863-49.681c18.309-26.8,27.585-4.337,10.491,16.63s-16.354,33.051-16.354,33.051" transform="translate(-41.059 -25.883)" fill="#b3c6f2"/>
          <path id="Trazado_678304" data-name="Trazado 678304" d="M523.046,315.839q-2.662,3.139-5.042,6.487c-1.6,2.217-3.128,4.487-4.559,6.815a95.65,95.65,0,0,0-7.482,14.533,68.2,68.2,0,0,0-4.475,15.668,53.064,53.064,0,0,0-.035,16.314,46.813,46.813,0,0,1-1.133-8.164,52.5,52.5,0,0,1,.362-8.262,64.967,64.967,0,0,1,4.3-15.955,88.626,88.626,0,0,1,7.776-14.57,85.2,85.2,0,0,1,10.285-12.865" transform="translate(-41.302 -26.074)" fill="#fff"/>
          <path id="Trazado_678305" data-name="Trazado 678305" d="M501.575,377.3s.424-22.812,24.047-35.533c24.508-13.2,22.721,7.569,1.437,16.8s-25.484,18.73-25.484,18.73" transform="translate(-41.408 -27.862)" fill="#92ace0"/>
          <path id="Trazado_678306" data-name="Trazado 678306" d="M541.6,340.493c-2.182.88-4.317,1.861-6.411,2.924s-4.161,2.173-6.172,3.378a81.633,81.633,0,0,0-11.445,8.115,58.27,58.27,0,0,0-9.583,10.193,45.012,45.012,0,0,0-6.413,12.444,40.615,40.615,0,0,1,2.385-6.65,45.11,45.11,0,0,1,3.546-6.136,55.9,55.9,0,0,1,9.567-10.435,76.382,76.382,0,0,1,11.648-8.04,74.466,74.466,0,0,1,12.877-5.794" transform="translate(-41.408 -28.11)" fill="#fff"/>
          <path id="Trazado_678307" data-name="Trazado 678307" d="M49.345,377.455s7.822-49.026-24.158-74.926c-24.951-20.208-34.971,3.547-6.672,23.546,19.178,13.553,23.467,23.826,30.83,51.38" transform="translate(-0.116 -24.34)" fill="#b3c6f2"/>
          <path id="Trazado_678308" data-name="Trazado 678308" d="M7.2,299.69a73.835,73.835,0,0,1,17.7,14.461,87.255,87.255,0,0,1,7.2,8.948,92.516,92.516,0,0,1,6.052,9.765,96.23,96.23,0,0,1,4.79,10.44c.741,1.767,1.306,3.6,1.961,5.4.544,1.836,1.168,3.649,1.6,5.513L47.2,357c.223.93.4,1.871.6,2.806.422,1.865.714,3.756,1.023,5.641s.468,3.794.71,5.686c.19,1.9.292,3.807.427,5.709A128.657,128.657,0,0,0,45.82,354.4c-.239-.919-.52-1.828-.82-2.729l-.856-2.719c-.664-1.78-1.236-3.595-1.984-5.341A96.076,96.076,0,0,0,37.337,333.3,96.3,96.3,0,0,0,24.376,314.62a90.2,90.2,0,0,0-8.063-8.057A67.029,67.029,0,0,0,7.2,299.69" transform="translate(-0.595 -24.741)" fill="#fff"/>
          <path id="Trazado_678309" data-name="Trazado 678309" d="M49.818,381.3s-.618-23.051-24.6-35.708c-24.877-13.131-22.9,7.839-1.311,16.992S49.818,381.3,49.818,381.3" transform="translate(-0.589 -28.183)" fill="#92ace0"/>
          <path id="Trazado_678310" data-name="Trazado 678310" d="M9.234,344.437a73.883,73.883,0,0,1,13.088,5.7,76.77,76.77,0,0,1,11.858,8.02,56.258,56.258,0,0,1,9.754,10.488,45.544,45.544,0,0,1,3.621,6.187,40.573,40.573,0,0,1,2.436,6.717,46.009,46.009,0,0,0-6.629-12.491,59.093,59.093,0,0,0-9.77-10.2,82.931,82.931,0,0,0-11.617-8.112q-3.056-1.808-6.252-3.379-3.178-1.6-6.489-2.932" transform="translate(-0.762 -28.435)" fill="#fff"/>
          <path id="Trazado_678311" data-name="Trazado 678311" d="M53.659,381.695S56.88,358.862,82.137,349c26.2-10.234,21.865,10.377-.618,17.031s-27.86,15.666-27.86,15.666" transform="translate(-4.43 -28.58)" fill="#b3c6f2"/>
          <path id="Trazado_678312" data-name="Trazado 678312" d="M98.351,349.72q-3.439.947-6.779,2.18-3.347,1.2-6.595,2.65A82.929,82.929,0,0,0,72.519,361.3a59.1,59.1,0,0,0-10.861,9.029,46.01,46.01,0,0,0-8,11.661,40.682,40.682,0,0,1,3.179-6.4,45.538,45.538,0,0,1,4.3-5.739,56.258,56.258,0,0,1,10.878-9.318A76.791,76.791,0,0,1,84.7,353.9a73.841,73.841,0,0,1,13.649-4.184" transform="translate(-4.43 -28.871)" fill="#fff"/>
          <path id="Trazado_678313" data-name="Trazado 678313" d="M53.561,379.624s-7.234-26.3,15.544-48.872c23.63-23.422,28.609.987,7.332,18.776s-22.876,30.1-22.876,30.1" transform="translate(-4.332 -26.51)" fill="#92ace0"/>
          <path id="Trazado_678314" data-name="Trazado 678314" d="M87,323.824q-3.306,2.622-6.361,5.521-3.076,2.872-5.931,5.962a97.481,97.481,0,0,0-10.375,13.176A69.559,69.559,0,0,0,56.8,363.411a53.808,53.808,0,0,0-3.14,16.437,48.605,48.605,0,0,1,.484-8.431,53.928,53.928,0,0,1,1.988-8.234,66.8,66.8,0,0,1,7.438-15.2A91.352,91.352,0,0,1,74.2,334.823a89.091,89.091,0,0,1,12.8-11" transform="translate(-4.428 -26.733)" fill="#fff"/>
          <path id="Trazado_678315" data-name="Trazado 678315" d="M478.364,148.987s-6.192-7.684-.629-15.941c0,0,2.65-7.822,14.188-5.823s17.74,8.577,15.031,19.846l-21.112,6.576Z" transform="translate(-39.248 -10.476)" fill="#23377a"/>
          <path id="Trazado_678316" data-name="Trazado 678316" d="M504.791,156.12s-1.589,3.559-5.143,3.858-2.8-5.322-1.584-5.728,3.535-2.6,4.867-1.906,1.861,3.775,1.861,3.775" transform="translate(-41.034 -12.566)" fill="#23377a"/>
          <path id="Trazado_678317" data-name="Trazado 678317" d="M463.048,258.807l11.973,99.442H483l4.109-103.742H463.048Z" transform="translate(-38.227 -21.011)" fill="#23377a"/>
          <path id="Trazado_678318" data-name="Trazado 678318" d="M487.113,254.507H464.066c-.622,2.473-1.017,4.3-1.017,4.3s7.253,6.867,23.571,8.127Z" transform="translate(-38.227 -21.011)" fill="#172b60"/>
          <path id="Trazado_678319" data-name="Trazado 678319" d="M474.413,367.584l-18.719,6.074v2.9h27.336l-.636-8.971Z" transform="translate(-37.62 -30.346)" fill="#172b60"/>
          <path id="Trazado_678320" data-name="Trazado 678320" d="M469.809,371.467a.647.647,0,0,0,.225-.04.636.636,0,0,0,.37-.819l-.744-1.974a.635.635,0,1,0-1.189.449l.744,1.974a.635.635,0,0,0,.595.411" transform="translate(-38.671 -30.399)" fill="#fff"/>
          <path id="Trazado_678321" data-name="Trazado 678321" d="M472.385,370.658a.646.646,0,0,0,.225-.04.636.636,0,0,0,.37-.819l-.744-1.974a.635.635,0,1,0-1.189.449l.744,1.974a.635.635,0,0,0,.595.411" transform="translate(-38.884 -30.332)" fill="#fff"/>
          <path id="Trazado_678322" data-name="Trazado 678322" d="M513.969,258.807,502,358.249h-7.982l-4.109-103.742h24.064Z" transform="translate(-40.444 -21.011)" fill="#23377a"/>
          <path id="Trazado_678323" data-name="Trazado 678323" d="M513.239,264.871l.729-6.064v-4.3H489.9l.5,12.529a84.572,84.572,0,0,0,22.839-2.164" transform="translate(-40.444 -21.011)" fill="#172b60"/>
          <path id="Trazado_678324" data-name="Trazado 678324" d="M502.309,367.584l18.719,6.074v2.9H493.692l.636-8.971Z" transform="translate(-40.757 -30.346)" fill="#172b60"/>
          <path id="Trazado_678325" data-name="Trazado 678325" d="M509.192,371.467a.647.647,0,0,1-.225-.04.636.636,0,0,1-.37-.819l.744-1.974a.635.635,0,1,1,1.189.449l-.744,1.974a.635.635,0,0,1-.595.411" transform="translate(-41.984 -30.399)" fill="#fff"/>
          <path id="Trazado_678326" data-name="Trazado 678326" d="M506.617,370.658a.647.647,0,0,1-.225-.04.636.636,0,0,1-.37-.819l.744-1.974a.635.635,0,1,1,1.189.449l-.744,1.974a.635.635,0,0,1-.594.411" transform="translate(-41.772 -30.332)" fill="#fff"/>
          <path id="Trazado_678327" data-name="Trazado 678327" d="M482.864,188.849s-21.1,12.311-32.906,14.975S429.167,177.8,429.167,177.8l8.063-4.1s6.372,8.858,11.535,14.667c0,0,14.937-12.248,21.695-15.594Z" transform="translate(-35.43 -14.263)" fill="#23377a"/>
          <path id="Trazado_678328" data-name="Trazado 678328" d="M478.181,193.746c-6.609,3.538-16.755,8.611-24.242,10.743,13.48-7.074,18.924-17.6,18.924-17.6s2.981,3.478,5.317,6.855" transform="translate(-37.475 -15.429)" fill="#172b60"/>
          <path id="Trazado_678329" data-name="Trazado 678329" d="M494.522,172.37s8.5.713,13.9,1.629l6.416,75.123s-16.7,6.72-29.532,5.7l-4.888.106s-13.238-.513-20.57-3.975l13.145-78.218,10.989-.367Z" transform="translate(-37.963 -14.23)" fill="#23377a"/>
          <path id="Trazado_678330" data-name="Trazado 678330" d="M499.035,228.087a1.318,1.318,0,1,1-1.318-1.318,1.318,1.318,0,0,1,1.318,1.318" transform="translate(-40.98 -18.721)" fill="#4764b5"/>
          <path id="Trazado_678331" data-name="Trazado 678331" d="M499.035,239.325a1.318,1.318,0,1,1-1.318-1.318,1.318,1.318,0,0,1,1.318,1.318" transform="translate(-40.98 -19.649)" fill="#4764b5"/>
          <path id="Trazado_678332" data-name="Trazado 678332" d="M484.169,228.087a1.318,1.318,0,1,1-1.318-1.318,1.318,1.318,0,0,1,1.318,1.318" transform="translate(-39.753 -18.721)" fill="#4764b5"/>
          <path id="Trazado_678333" data-name="Trazado 678333" d="M484.169,239.325a1.318,1.318,0,1,1-1.318-1.318,1.318,1.318,0,0,1,1.318,1.318" transform="translate(-39.753 -19.649)" fill="#4764b5"/>
          <path id="Trazado_678334" data-name="Trazado 678334" d="M489.038,210.345l14.654-24.518-1.323-2.219,2.961-.084-6-10.818,0-.014c-2.035-.2-3.445-.32-3.445-.32h-10.54l-3.8.127-5.225,10.383,2.636.393-1.718,2.228Z" transform="translate(-39.323 -14.23)" fill="#172b60"/>
          <path id="Trazado_678335" data-name="Trazado 678335" d="M489.734,210.342l8.34-37.841-3.51,3.442-3.511.7s-2.975.5-2.982.528-3.33-4.84-3.33-4.84Z" transform="translate(-40.018 -14.227)" fill="#dae1ef"/>
          <path id="Trazado_678336" data-name="Trazado 678336" d="M486.587,164.189v7.282c0,2.691,1.927,4.017,4.617,4.017s5.128-1.326,5.128-4.017V163.2a4.873,4.873,0,1,0-9.745,0Z" transform="translate(-40.17 -13.07)" fill="#f5b8a5"/>
          <path id="Trazado_678337" data-name="Trazado 678337" d="M492.892,158.912l-5.772.535-.533.223v8.891c8.595-1.12,9.746-5.842,9.746-5.842l-2.47-3.806Z" transform="translate(-40.17 -13.119)" fill="#ea9686"/>
          <path id="Trazado_678338" data-name="Trazado 678338" d="M506.436,147.275c-2.858-1.386-4.695,2.547-4.695,2.547a52.585,52.585,0,0,0-2.558-8.4,23.665,23.665,0,0,0-10.495-3.714c-6.934-.906-9.9,4.323-10.2,7.1-.834,7.92,2.589,18.54,10.663,18.752,1.6.042,7.526-1.257,12-8.92,5.817,1.883,8.138-5.979,5.28-7.365" transform="translate(-39.492 -11.36)" fill="#f5b8a5"/>
          <path id="Trazado_678339" data-name="Trazado 678339" d="M506.077,150.426a1.279,1.279,0,0,1,1.808-.089c.959.654-.048,3.89-2.765,3.971a4.054,4.054,0,0,0,2.008-2.142c.362-1.355-.662-1.772-1.051-1.739" transform="translate(-41.7 -12.385)" fill="#ea9686"/>
          <path id="Trazado_678340" data-name="Trazado 678340" d="M512.793,174.146s23.706,19.095,28.586,30.174S515.8,234.376,515.8,234.376l-.759-9.989s6.678-9.751,11.39-15.932c0,0-8.4-6.249-12.509-11.064Z" transform="translate(-42.334 -14.377)" fill="#23377a"/>
          <path id="Trazado_678341" data-name="Trazado 678341" d="M528.645,229.925c-3.613,2.976-7.157,5.494-9.523,7.1a2.673,2.673,0,0,1-.895-2.01,38.421,38.421,0,0,1,.592-5.918,19.6,19.6,0,0,0,9.826.828" transform="translate(-42.782 -18.913)" fill="#172b60"/>
          <path id="Trazado_678342" data-name="Trazado 678342" d="M526.5,209.847s-8.4-6.249-12.508-11.065l-.38-7.784Z" transform="translate(-42.402 -15.768)" fill="#172b60"/>
          <path id="Trazado_678343" data-name="Trazado 678343" d="M514.437,231.212c.479-.067,1.979-.072,1.979-.072l-.133-2.646a3.1,3.1,0,0,1,2.173.55c.747.561,2.6,4.477,2.376,7.525s-4.377,3.978-5.788,3.529c0,0-.6-.023-.746-1.07a.869.869,0,0,1,.7-1.008s-.806.011-.862-1.335a.94.94,0,0,1,.848-1.055s-.971-.06-.964-.949c.005-.724.018-1.287.649-1.425a1.054,1.054,0,0,1-.838-1.108c.018-.955.6-.938.6-.938" transform="translate(-42.42 -18.862)" fill="#f5b8a5"/>
          <path id="Trazado_678344" data-name="Trazado 678344" d="M514.182,237.573a2.162,2.162,0,0,0,2.2.627c1.437-.35-.492.551-1.354.573-.03,0-.056-.01-.085-.012-.2-.036-.676-.232-.761-1.188" transform="translate(-42.449 -19.613)" fill="#ea9686"/>
          <path id="Trazado_678345" data-name="Trazado 678345" d="M514.038,235.17a4.1,4.1,0,0,1,.058-.8c0,.04.046.85.486,1.1a4.435,4.435,0,0,0,2.1.21c.183-.105.066.423-1.682.433,0,0-.971-.06-.964-.949" transform="translate(-42.437 -19.349)" fill="#ea9686"/>
          <path id="Trazado_678346" data-name="Trazado 678346" d="M514.67,233.529a1.054,1.054,0,0,1-.838-1.108,1.228,1.228,0,0,1,.17-.666,1.178,1.178,0,0,0,.689,1.175,4.707,4.707,0,0,0,1.819.183c0-.017.324.125-1.84.417" transform="translate(-42.42 -19.133)" fill="#ea9686"/>
          <path id="Trazado_678347" data-name="Trazado 678347" d="M488.479,150.671a17.108,17.108,0,0,1-1.413,3.946c-.713,1.018-.076,1.629,1.655,1.6s-.56-.382-.637-1.3.942-2.291.395-4.251" transform="translate(-40.186 -12.439)" fill="#e27466"/>
          <path id="Trazado_678348" data-name="Trazado 678348" d="M481.32,148.11a.458.458,0,0,1-.3-.8,3.514,3.514,0,0,1,4.248-.217.459.459,0,0,1-.508.763,2.617,2.617,0,0,0-3.134.14.456.456,0,0,1-.3.115" transform="translate(-39.698 -12.092)" fill="#23377a"/>
          <path id="Trazado_678349" data-name="Trazado 678349" d="M496.337,148.11a.458.458,0,0,0,.3-.8,3.514,3.514,0,0,0-4.248-.217.459.459,0,0,0,.508.763,2.617,2.617,0,0,1,3.134.14.456.456,0,0,0,.3.115" transform="translate(-40.633 -12.092)" fill="#23377a"/>
          <path id="Trazado_678350" data-name="Trazado 678350" d="M486.227,159.647s3.722,2.442,6.588-.827a11.912,11.912,0,0,1-6.588.827" transform="translate(-40.141 -13.111)" fill="#e27466"/>
          <path id="Trazado_678351" data-name="Trazado 678351" d="M489.88,182.269l-1.7,14.9,1.838,13.986,3.192-14.481-.539-14.482-1.335.861Z" transform="translate(-40.302 -15.041)" fill="#23377a"/>
          <path id="Trazado_678352" data-name="Trazado 678352" d="M486.43,171.056l4.622,5.484-2.972,4.079-3.34-8.391Z" transform="translate(-40.018 -14.122)" fill="#fff"/>
          <path id="Trazado_678353" data-name="Trazado 678353" d="M491.62,176.5l5.128-5.933,1.894,1.789-3.786,8.223Z" transform="translate(-40.586 -14.081)" fill="#fff"/>
          <path id="Trazado_678354" data-name="Trazado 678354" d="M481.779,172.4l-3.15,9.836H482.9l-2.927,2.774,9.253,25.329-4.994-38.009Z" transform="translate(-39.513 -14.227)" fill="#4764b5"/>
          <path id="Trazado_678355" data-name="Trazado 678355" d="M500.477,172.717l3.748,9.537h-4.04l2.486,2.331-12.486,25.772,8.34-37.841Z" transform="translate(-40.467 -14.242)" fill="#4764b5"/>
          <path id="Trazado_678356" data-name="Trazado 678356" d="M491.177,177.608l-2.1,3.185,2.311,1.243,2.351-1.515Z" transform="translate(-40.376 -14.663)" fill="#23377a"/>
          <rect id="Rectángulo_345299" data-name="Rectángulo 345299" width="27.336" height="1.759" transform="translate(418.075 346.209)" fill="#23377a"/>
          <rect id="Rectángulo_345300" data-name="Rectángulo 345300" width="27.336" height="1.759" transform="translate(452.904 346.209)" fill="#23377a"/>
          <path id="Trazado_678357" data-name="Trazado 678357" d="M483.469,148.885a.98.98,0,0,0-.977.977v0a1.08,1.08,0,0,1,.157-.018c.383,0,.695.176.695.394s-.311.393-.695.393a1.225,1.225,0,0,1-.157-.017v1.125a.977.977,0,0,0,1.954,0v-1.88a.98.98,0,0,0-.977-.977" transform="translate(-39.832 -12.291)" fill="#23377a" fill-rule="evenodd"/>
          <path id="Trazado_678358" data-name="Trazado 678358" d="M494.611,148.885a.98.98,0,0,0-.977.977v0a1.08,1.08,0,0,1,.157-.018c.383,0,.695.176.695.394s-.311.393-.695.393a1.225,1.225,0,0,1-.157-.017v1.125a.977.977,0,0,0,1.954,0v-1.88a.98.98,0,0,0-.977-.977" transform="translate(-40.752 -12.291)" fill="#23377a" fill-rule="evenodd"/>
          <path id="Trazado_678359" data-name="Trazado 678359" d="M482.491,138.76s1.208,4.452,8.73,5.148a15.068,15.068,0,0,1,10.86,5.634V139.3s-8.67-5.216-10.408-5.041-6.866-.7-7.909,1.217a11.649,11.649,0,0,0-1.272,3.284" transform="translate(-39.832 -11.08)" fill="#23377a"/>
          <path id="Trazado_678360" data-name="Trazado 678360" d="M429.8,176.263s-7.095-5.844-7.139-6.887,3.57.87,3.57.87-3.308-4.606-2.527-6.085,4.476,4.433,4.476,4.433-2.477-6.258-1.607-7.128,4,5.954,4,5.954-1.825-5.542-.651-6.03,3.694,7.16,3.694,7.16.7-2.824,2-2.824,0,7.578,0,7.578Z" transform="translate(-34.893 -13.322)" fill="#f5b8a5"/>
          <path id="Trazado_678361" data-name="Trazado 678361" d="M3.72,137.241H153.864a3.72,3.72,0,0,1,3.72,3.721v93.626a3.718,3.718,0,0,1-3.718,3.718H3.719A3.718,3.718,0,0,1,0,234.588V140.961a3.72,3.72,0,0,1,3.72-3.72" transform="translate(0 -11.33)" fill="#3557b5"/>
          <path id="Trazado_678362" data-name="Trazado 678362" d="M6.143,235.157h146a1.842,1.842,0,0,0,1.842-1.843v-81.6a1.843,1.843,0,0,0-1.842-1.843h-146A1.844,1.844,0,0,0,4.3,151.718v81.6a1.843,1.843,0,0,0,1.843,1.843" transform="translate(-0.355 -12.373)" fill="#fff"/>
          <path id="Trazado_678363" data-name="Trazado 678363" d="M17.788,143.88a1.567,1.567,0,1,1,1.567,1.567,1.567,1.567,0,0,1-1.567-1.567" transform="translate(-1.468 -11.749)" fill="#fff"/>
          <path id="Trazado_678364" data-name="Trazado 678364" d="M11.045,143.88a1.567,1.567,0,1,1,1.566,1.567,1.566,1.566,0,0,1-1.566-1.567" transform="translate(-0.912 -11.749)" fill="#fff"/>
          <path id="Trazado_678365" data-name="Trazado 678365" d="M4.3,143.88a1.567,1.567,0,1,1,1.567,1.567A1.567,1.567,0,0,1,4.3,143.88" transform="translate(-0.355 -11.749)" fill="#fff"/>
          <rect id="Rectángulo_345301" data-name="Rectángulo 345301" width="4.983" height="9.155" transform="translate(16.878 204.389)" fill="#b3c6f2"/>
          <rect id="Rectángulo_345302" data-name="Rectángulo 345302" width="4.983" height="13.675" transform="translate(24.266 199.869)" fill="#b3c6f2"/>
          <rect id="Rectángulo_345303" data-name="Rectángulo 345303" width="4.983" height="21.555" transform="translate(31.655 191.989)" fill="#b3c6f2"/>
          <rect id="Rectángulo_345304" data-name="Rectángulo 345304" width="4.983" height="17.035" transform="translate(39.042 196.508)" fill="#b3c6f2"/>
          <rect id="Rectángulo_345305" data-name="Rectángulo 345305" width="4.983" height="26.538" transform="translate(46.43 187.005)" fill="#b3c6f2"/>
          <path id="Trazado_678366" data-name="Trazado 678366" d="M45.327,175.11A14.776,14.776,0,1,1,30.55,160.334,14.776,14.776,0,0,1,45.327,175.11" transform="translate(-1.302 -13.236)" fill="#3557b5"/>
          <path id="Trazado_678367" data-name="Trazado 678367" d="M43.706,175.271a12.994,12.994,0,1,1-12.994-12.994,12.994,12.994,0,0,1,12.994,12.994" transform="translate(-1.463 -13.397)" fill="#fff"/>
          <rect id="Rectángulo_345306" data-name="Rectángulo 345306" width="42.183" height="2.434" transform="translate(49.443 155.455)" fill="#3557b5"/>
          <rect id="Rectángulo_345307" data-name="Rectángulo 345307" width="42.183" height="2.434" transform="translate(49.443 160.756)" fill="#3557b5"/>
          <rect id="Rectángulo_345308" data-name="Rectángulo 345308" width="21.091" height="2.434" transform="translate(49.443 166.058)" fill="#3557b5"/>
          <rect id="Rectángulo_345309" data-name="Rectángulo 345309" width="42.183" height="2.434" transform="translate(100.317 155.455)" fill="#3557b5"/>
          <rect id="Rectángulo_345310" data-name="Rectángulo 345310" width="42.183" height="2.434" transform="translate(100.317 160.756)" fill="#3557b5"/>
          <rect id="Rectángulo_345311" data-name="Rectángulo 345311" width="42.183" height="2.434" transform="translate(100.317 166.058)" fill="#3557b5"/>
          <path id="Trazado_678368" data-name="Trazado 678368" d="M142.495,207.07l-13.211,13.211-5.244-5.244-11.908,11.908-8.46-8.46-3.621,3.621-7.243-7.242L77.047,230.625h65.621V206.9Z" transform="translate(-6.361 -17.08)" fill="#b3c6f2"/>
          <path id="Trazado_678369" data-name="Trazado 678369" d="M77.047,230.624l15.761-15.761,7.243,7.243,3.621-3.622,8.46,8.46,11.908-11.907,5.244,5.243L142.5,207.07l.173-.173" transform="translate(-6.361 -17.08)" fill="none" stroke="#3557b5" stroke-miterlimit="10" stroke-width="1"/>
          <path id="Trazado_678370" data-name="Trazado 678370" d="M145.653,208.955l-2.459-2.459,3.359-.9,3.358-.9-.9,3.358-.9,3.359Z" transform="translate(-11.821 -16.899)" fill="#3557b5"/>
          <path id="Trazado_678371" data-name="Trazado 678371" d="M72.965,203.833v26.538h75.559" transform="translate(-6.024 -16.828)" fill="none" stroke="#b7e2f7" stroke-miterlimit="10" stroke-width="1"/>
          <rect id="Rectángulo_345312" data-name="Rectángulo 345312" width="52.04" height="63.526" transform="translate(307.019 76.208)" fill="#fff"/>
          <rect id="Rectángulo_345313" data-name="Rectángulo 345313" width="36.509" height="11.393" transform="translate(314.763 68.568)" fill="#3557b5"/>
          <rect id="Rectángulo_345314" data-name="Rectángulo 345314" width="31.971" height="7.484" transform="translate(317.032 70.522)" fill="#fff"/>
          <rect id="Rectángulo_345315" data-name="Rectángulo 345315" width="14.69" height="8.426" transform="translate(325.673 61.976)" fill="#3557b5"/>
          <path id="Trazado_678372" data-name="Trazado 678372" d="M390.809,150.924H329.656v-72.6h13.832v4.351h-9.253V146.2h52.039V82.674h-9.3V78.323h13.832Z" transform="translate(-27.215 -6.466)" fill="#3557b5"/>
          <path id="Trazado_678373" data-name="Trazado 678373" d="M346.307,121.306l-4.417-4.417,2.136-2.136,2.281,2.28,3.955-3.954,2.136,2.136Z" transform="translate(-28.225 -9.335)" fill="#00a79d"/>
          <rect id="Rectángulo_345316" data-name="Rectángulo 345316" width="26.536" height="3.021" transform="translate(326.574 105.813)" fill="#00a79d"/>
          <rect id="Rectángulo_345317" data-name="Rectángulo 345317" width="26.536" height="2.767" transform="translate(326.574 89.75)" fill="#d4484c"/>
          <rect id="Rectángulo_345318" data-name="Rectángulo 345318" width="13.268" height="2.767" transform="translate(326.574 94.192)" fill="#d4484c"/>
          <path id="Trazado_678374" data-name="Trazado 678374" d="M346.307,131.495l-4.417-4.417,2.136-2.136,2.281,2.28,3.955-3.954L352.4,125.4Z" transform="translate(-28.225 -10.176)" fill="#00a79d"/>
          <rect id="Rectángulo_345319" data-name="Rectángulo 345319" width="26.536" height="3.021" transform="translate(326.574 115.16)" fill="#00a79d"/>
          <path id="Trazado_678375" data-name="Trazado 678375" d="M346.307,141.684l-4.417-4.417,2.136-2.136,2.281,2.28,3.955-3.954,2.136,2.136Z" transform="translate(-28.225 -11.018)" fill="#00a79d"/>
          <rect id="Rectángulo_345320" data-name="Rectángulo 345320" width="26.536" height="3.021" transform="translate(326.574 124.507)" fill="#00a79d"/>
          <path id="Trazado_678384" data-name="Trazado 678384" d="M131.334,303.81h79.29a1,1,0,0,0,1-1V257.916a1,1,0,0,0-1-1h-79.29a1,1,0,0,0-1,1v44.893a1,1,0,0,0,1,1" transform="translate(-10.76 -21.21)" fill="#b3c6f2"/>
          <path id="Trazado_678385" data-name="Trazado 678385" d="M186.427,281.352a12.446,12.446,0,1,1-12.446-12.446,12.446,12.446,0,0,1,12.446,12.446" transform="translate(-13.336 -22.2)" fill="#92ace0"/>
          <path id="Trazado_678386" data-name="Trazado 678386" d="M171.582,282.061v-4.094a.476.476,0,0,1,.714-.413l3.546,2.048,3.545,2.047a.475.475,0,0,1,0,.824l-3.545,2.047-3.546,2.048a.476.476,0,0,1-.714-.413Z" transform="translate(-14.165 -22.908)" fill="#fff"/>
          <g id="Grupo_992364" data-name="Grupo 992364" transform="translate(54.817 36.251)">
            <path id="Trazado_678376" data-name="Trazado 678376" d="M108.794,0H165.6a2.469,2.469,0,0,1,2.468,2.468V75.43A2.467,2.467,0,0,1,165.6,77.9H108.793a2.467,2.467,0,0,1-2.467-2.467V2.468A2.468,2.468,0,0,1,108.794,0" transform="translate(-41.616 0)" fill="#3557b5"/>
            <path id="Trazado_678377" data-name="Trazado 678377" d="M111.85,80.06h54.06a1.222,1.222,0,0,0,1.223-1.223V13.857a1.223,1.223,0,0,0-1.223-1.223H111.85a1.223,1.223,0,0,0-1.223,1.223V78.838a1.223,1.223,0,0,0,1.223,1.223" transform="translate(-43.299 -4.945)" fill="#fff"/>
            <path id="Trazado_678378" data-name="Trazado 678378" d="M124.115,6.111a1.04,1.04,0,1,1,1.039,1.039,1.039,1.039,0,0,1-1.039-1.039" transform="translate(-48.578 -1.985)" fill="#fff"/>
            <path id="Trazado_678379" data-name="Trazado 678379" d="M117.371,6.111a1.04,1.04,0,1,1,1.04,1.039,1.039,1.039,0,0,1-1.04-1.039" transform="translate(-45.939 -1.985)" fill="#fff"/>
            <path id="Trazado_678380" data-name="Trazado 678380" d="M110.627,6.111a1.04,1.04,0,1,1,1.039,1.039,1.039,1.039,0,0,1-1.039-1.039" transform="translate(-43.299 -1.985)" fill="#fff"/>
            <path id="Trazado_678381" data-name="Trazado 678381" d="M134.585,28.789a7.37,7.37,0,1,1-7.37-7.37,7.37,7.37,0,0,1,7.37,7.37" transform="translate(-46.907 -8.383)" fill="#d4484c"/>
            <rect id="Rectángulo_345321" data-name="Rectángulo 345321" width="27.983" height="1.615" transform="translate(90.513 16.148)" fill="#d4484c"/>
            <rect id="Rectángulo_345322" data-name="Rectángulo 345322" width="27.983" height="1.615" transform="translate(90.513 19.665)" fill="#d4484c"/>
            <rect id="Rectángulo_345323" data-name="Rectángulo 345323" width="13.991" height="1.615" transform="translate(90.514 23.182)" fill="#d4484c"/>
            <path id="Trazado_678382" data-name="Trazado 678382" d="M134.585,61.69a7.37,7.37,0,1,1-7.37-7.37,7.37,7.37,0,0,1,7.37,7.37" transform="translate(-46.907 -21.261)" fill="#f4a945"/>
            <rect id="Rectángulo_345324" data-name="Rectángulo 345324" width="27.983" height="1.615" transform="translate(90.513 36.171)" fill="#f4a945"/>
            <rect id="Rectángulo_345325" data-name="Rectángulo 345325" width="27.983" height="1.615" transform="translate(90.513 39.688)" fill="#f4a945"/>
            <rect id="Rectángulo_345326" data-name="Rectángulo 345326" width="13.991" height="1.615" transform="translate(90.514 43.205)" fill="#f4a945"/>
            <path id="Trazado_678383" data-name="Trazado 678383" d="M134.585,94.721a7.37,7.37,0,1,1-7.37-7.37,7.37,7.37,0,0,1,7.37,7.37" transform="translate(-46.907 -34.189)" fill="#00a79d"/>
            <rect id="Rectángulo_345327" data-name="Rectángulo 345327" width="27.983" height="1.615" transform="translate(90.513 56.274)" fill="#00a79d"/>
            <rect id="Rectángulo_345328" data-name="Rectángulo 345328" width="27.983" height="1.615" transform="translate(90.513 59.791)" fill="#00a79d"/>
            <rect id="Rectángulo_345329" data-name="Rectángulo 345329" width="13.991" height="1.615" transform="translate(90.514 63.308)" fill="#00a79d"/>
            <rect id="Rectángulo_345330" data-name="Rectángulo 345330" width="335" height="234.244" fill="none"/>
          </g>
        </g>
      </g>
    </g>
  </g>
</svg>
