<svg xmlns="http://www.w3.org/2000/svg" xmlns:xlink="http://www.w3.org/1999/xlink" width="505" height="305" viewBox="0 0 505 305">
  <defs>
    <clipPath id="clip-path">
      <rect id="Rectángulo_345252" data-name="Rectángulo 345252" width="505" height="305" transform="translate(915.019 3567)" fill="#fff" stroke="#707070" stroke-width="1" opacity="0.25"/>
    </clipPath>
    <clipPath id="clip-path-2">
      <rect id="Rectángulo_345248" data-name="Rectángulo 345248" width="525" height="362" transform="translate(915.057 3586.813)" fill="#fff" stroke="#707070" stroke-width="1" opacity="0.47"/>
    </clipPath>
    <clipPath id="clip-path-3">
      <rect id="Rectángulo_345247" data-name="Rectángulo 345247" width="510.441" height="368.156" fill="none"/>
    </clipPath>
    <clipPath id="clip-path-4">
      <rect id="Rectángulo_345246" data-name="Rectángulo 345246" width="510.441" height="385.398" fill="none"/>
    </clipPath>
    <clipPath id="clip-path-5">
      <rect id="Rectángulo_345221" data-name="Rectángulo 345221" width="171.413" height="74.585" fill="none"/>
    </clipPath>
    <clipPath id="clip-path-6">
      <rect id="Rectángulo_345223" data-name="Rectángulo 345223" width="35.649" height="2.139" fill="none"/>
    </clipPath>
    <clipPath id="clip-path-9">
      <rect id="Rectángulo_345226" data-name="Rectángulo 345226" width="58.467" height="2.139" fill="none"/>
    </clipPath>
    <clipPath id="clip-path-10">
      <rect id="Rectángulo_345227" data-name="Rectángulo 345227" width="119.548" height="2.139" fill="none"/>
    </clipPath>
    <clipPath id="clip-path-12">
      <rect id="Rectángulo_345229" data-name="Rectángulo 345229" width="56.565" height="2.139" fill="none"/>
    </clipPath>
  </defs>
  <g id="Grupo_992355" data-name="Grupo 992355" transform="translate(-915.019 -3567)">
    <g id="Enmascarar_grupo_991948" data-name="Enmascarar grupo 991948" clip-path="url(#clip-path)">
      <g id="Enmascarar_grupo_991947" data-name="Enmascarar grupo 991947" transform="translate(-20.038 -16.813)" clip-path="url(#clip-path-2)">
        <g id="Grupo_933091" data-name="Grupo 933091" transform="translate(939.399 3587.01)">
          <g id="Grupo_932475" data-name="Grupo 932475" transform="translate(0 0)">
            <g id="Grupo_932474" data-name="Grupo 932474" transform="translate(49.033 12.365)">
              <g id="Grupo_932465" data-name="Grupo 932465" transform="translate(214.397 111.833)">
                <path id="Trazado_669691" data-name="Trazado 669691" d="M1500.624,945.12a11.836,11.836,0,0,1-3.129,8.027h-172.81l-1.591-1.061a13.113,13.113,0,0,1-4-4.066,11.869,11.869,0,0,1-1.39-3.334c-1.8-7.26,3.249-14.68,10.649-15.075a11.548,11.548,0,0,1,8.453,3.044c-.02-.337-.05-.674-.05-1.018a17.961,17.961,0,0,1,35.6-3.582,18.483,18.483,0,0,1,.348,3.582c0,.577-.031,1.146-.085,1.708h.085a11.6,11.6,0,0,1,8.523,3.729l.008.008a11.777,11.777,0,0,1,1.615-5.464,11.59,11.59,0,0,1,20.887,1.773,11.555,11.555,0,0,1,15.973-1.111,16.573,16.573,0,0,1,16.391-14.7,16.353,16.353,0,0,1,7.64,1.9,24.576,24.576,0,0,1,24.7-14.648c13.979,1.239,24.186,14.42,22.126,28.438-.008.062-.015.124-.027.182a11.79,11.79,0,0,1,10.095,11.667Z" transform="translate(-1317.335 -904.735)" fill="#fff"/>
              </g>
              <g id="Grupo_932466" data-name="Grupo 932466" transform="translate(59.974 149.485)">
                <path id="Trazado_669692" data-name="Trazado 669692" d="M688.994,1071.151a1.839,1.839,0,0,1-.486,1.246H661.676l-.247-.165a2.034,2.034,0,0,1-.622-.631,1.841,1.841,0,0,1-.216-.518,1.871,1.871,0,0,1,1.653-2.341,1.793,1.793,0,0,1,1.313.473c0-.052-.008-.1-.008-.158a2.789,2.789,0,0,1,5.527-.556,2.868,2.868,0,0,1,.054.556c0,.089,0,.178-.013.265h.013a1.8,1.8,0,0,1,1.324.579h0a1.831,1.831,0,0,1,.251-.849,4.757,4.757,0,0,0,4.572-.314,1.791,1.791,0,0,1,1.151.417,2.573,2.573,0,0,1,2.545-2.282,2.537,2.537,0,0,1,1.186.295,3.816,3.816,0,0,1,3.835-2.275,3.874,3.874,0,0,1,3.435,4.416c0,.01,0,.019,0,.029a1.831,1.831,0,0,1,1.568,1.812Z" transform="translate(-660.534 -1064.88)" fill="#fff"/>
              </g>
              <g id="Grupo_932467" data-name="Grupo 932467" transform="translate(251.978 55.256)" opacity="0.5">
                <path id="Trazado_669693" data-name="Trazado 669693" d="M1477.18,692.1a9.641,9.641,0,0,0,.527,3.16h.983v.043l9.453-.006h.2l7.328-.006a.289.289,0,0,0,.031.029,2.162,2.162,0,0,0,.2.172,1.392,1.392,0,0,0,.063-.172c0-.009.006-.02.009-.029l18.7-.02h2.827l8.45-.005,4.6-.006h.006l10.126-.006,14.488-.012h.04a.45.45,0,0,1,.052,0c.375.009,2.414.009,2.546,0h.063l23.981-.02,5.235-.006h.006c.011,0,.023,0,.034,0,.1.015.6.017,1.247.009,1.522-.017,3.905-.08,4.155-.1a8.807,8.807,0,0,0,3.246-7.128,7.454,7.454,0,0,0-7.606-7.024,6.977,6.977,0,0,0-2.279.384,10.143,10.143,0,0,0,.146-1.654,9.862,9.862,0,0,0-9.812-9.912,9.717,9.717,0,0,0-6.247,2.268,15.454,15.454,0,0,0-28.872,6.5l-.006,0c-.109-.075-.218-.146-.33-.215a9.66,9.66,0,0,0-5.158-1.48,9.822,9.822,0,0,0-9.41,7.1,7.012,7.012,0,0,0-4.482-1.611,1.731,1.731,0,0,0-.175.006,6.981,6.981,0,0,0-2.42.487,14.245,14.245,0,0,0-3.822-7.936,13.974,13.974,0,0,0-10.141-4.352,14.143,14.143,0,0,0-14.017,12.813,9.533,9.533,0,0,0-4.3-1.018A9.71,9.71,0,0,0,1477.18,692.1Z" transform="translate(-1477.18 -664.099)" fill="#fff"/>
              </g>
              <g id="Grupo_932468" data-name="Grupo 932468" transform="translate(69.259 168.145)" opacity="0.5">
                <path id="Trazado_669694" data-name="Trazado 669694" d="M700.028,1172.249a9.64,9.64,0,0,0,.527,3.16h.983v.043l9.453-.006h.2l7.328-.006a.3.3,0,0,0,.031.029,2.219,2.219,0,0,0,.2.172,1.392,1.392,0,0,0,.063-.172c0-.009.006-.02.009-.029l18.7-.02h2.827l8.449-.006,4.6-.006h.006l10.127-.005,14.487-.012h.04a.43.43,0,0,1,.052,0c.376.009,2.414.009,2.546,0h.063l23.981-.02,5.236-.006h.006l.035,0c.1.014.6.017,1.247.009,1.522-.017,3.905-.08,4.154-.1a8.807,8.807,0,0,0,3.246-7.128,7.454,7.454,0,0,0-7.607-7.024,6.985,6.985,0,0,0-2.279.384,10.145,10.145,0,0,0,.146-1.654,9.862,9.862,0,0,0-9.811-9.912,9.715,9.715,0,0,0-6.248,2.268,15.454,15.454,0,0,0-28.872,6.5l-.006,0c-.109-.075-.218-.146-.33-.215a9.662,9.662,0,0,0-5.158-1.48,9.822,9.822,0,0,0-9.41,7.1,7.012,7.012,0,0,0-4.482-1.611,1.747,1.747,0,0,0-.175.006,6.98,6.98,0,0,0-2.42.488,14.243,14.243,0,0,0-3.822-7.937,13.976,13.976,0,0,0-10.141-4.352,14.143,14.143,0,0,0-14.018,12.813,9.535,9.535,0,0,0-4.3-1.018A9.71,9.71,0,0,0,700.028,1172.249Z" transform="translate(-700.028 -1144.246)" fill="#fff"/>
              </g>
              <g id="Grupo_932469" data-name="Grupo 932469" transform="translate(130.455)">
                <path id="Trazado_669695" data-name="Trazado 669695" d="M960.307,459.74a10.557,10.557,0,0,0,.577,3.459h1.077v.047l10.35-.006h.22l8.023-.006a.311.311,0,0,0,.035.032,2.356,2.356,0,0,0,.216.188,1.494,1.494,0,0,0,.069-.188c0-.009.006-.022.009-.032l20.47-.022h3.1l9.251-.006,5.038-.006h.006l11.087-.006,15.862-.013h.044a.49.49,0,0,1,.056,0c.412.01,2.644.01,2.788,0h.069l26.255-.022,5.732-.006h.006c.013,0,.025,0,.038,0,.113.016.653.019,1.365.009,1.667-.019,4.276-.088,4.548-.11a9.642,9.642,0,0,0,3.554-7.8,8.161,8.161,0,0,0-8.328-7.691,7.643,7.643,0,0,0-2.5.42,11.093,11.093,0,0,0,.16-1.811,10.8,10.8,0,0,0-10.742-10.852,10.637,10.637,0,0,0-6.84,2.483,16.92,16.92,0,0,0-31.611,7.113l-.006,0c-.119-.082-.238-.16-.361-.235a10.579,10.579,0,0,0-5.648-1.62,10.754,10.754,0,0,0-10.3,7.772,7.675,7.675,0,0,0-4.906-1.764,1.829,1.829,0,0,0-.192.007,7.646,7.646,0,0,0-2.649.533,15.6,15.6,0,0,0-4.184-8.689,15.3,15.3,0,0,0-11.1-4.765,15.484,15.484,0,0,0-15.347,14.029,10.435,10.435,0,0,0-4.706-1.114A10.631,10.631,0,0,0,960.307,459.74Z" transform="translate(-960.307 -429.081)" fill="#fff"/>
              </g>
              <g id="Grupo_932470" data-name="Grupo 932470" transform="translate(311.714 39.235)">
                <path id="Trazado_669696" data-name="Trazado 669696" d="M1731.25,604.351a2.46,2.46,0,0,0,.65,1.669h35.926l.331-.221a2.724,2.724,0,0,0,.832-.845,2.456,2.456,0,0,0,.289-.693,2.5,2.5,0,0,0-2.213-3.134,2.4,2.4,0,0,0-1.757.633c0-.07.011-.14.011-.212a3.734,3.734,0,0,0-7.4-.745,3.869,3.869,0,0,0-.072.745c0,.12.007.238.018.355h-.018a2.412,2.412,0,0,0-1.772.775l0,0a2.446,2.446,0,0,0-.336-1.136,6.373,6.373,0,0,1-6.122-.421,2.4,2.4,0,0,0-1.541.559,3.445,3.445,0,0,0-3.407-3.055,3.4,3.4,0,0,0-1.588.394,5.109,5.109,0,0,0-5.134-3.045,5.186,5.186,0,0,0-4.6,5.912c0,.013,0,.026.006.038a2.452,2.452,0,0,0-2.1,2.425Z" transform="translate(-1731.25 -595.956)" fill="#fff"/>
              </g>
              <g id="Grupo_932471" data-name="Grupo 932471" transform="translate(0 99.545)">
                <path id="Trazado_669697" data-name="Trazado 669697" d="M405.45,884.478a9.379,9.379,0,0,0,2.479,6.361H544.88l1.261-.841a10.393,10.393,0,0,0,3.173-3.222,9.412,9.412,0,0,0,1.1-2.642c1.424-5.754-2.575-11.634-8.439-11.947a9.15,9.15,0,0,0-6.7,2.412c.015-.267.04-.534.04-.807a14.234,14.234,0,0,0-28.211-2.839,14.643,14.643,0,0,0-.276,2.839c0,.457.025.908.067,1.353h-.067a9.2,9.2,0,0,0-6.754,2.955l-.006.006a9.333,9.333,0,0,0-1.28-4.33,9.185,9.185,0,0,0-16.552,1.406,9.157,9.157,0,0,0-12.659-.881,13.133,13.133,0,0,0-12.99-11.646,12.96,12.96,0,0,0-6.055,1.5,19.477,19.477,0,0,0-19.572-11.609,19.772,19.772,0,0,0-17.535,22.537c.006.049.012.1.021.144a9.343,9.343,0,0,0-8,9.246Z" transform="translate(-405.45 -852.472)" fill="#fff"/>
              </g>
              <g id="Grupo_932472" data-name="Grupo 932472" transform="translate(38.775 85.142)" opacity="0.8">
                <path id="Trazado_669698" data-name="Trazado 669698" d="M570.372,799.7a2.486,2.486,0,0,0,.658,1.687h36.328l.335-.223a2.756,2.756,0,0,0,.841-.855,2.489,2.489,0,0,0,.292-.7,2.532,2.532,0,0,0-2.238-3.169,2.428,2.428,0,0,0-1.777.64c0-.071.011-.142.011-.214a3.776,3.776,0,0,0-7.483-.753,3.883,3.883,0,0,0-.073.753c0,.121.007.241.018.359h-.018a2.44,2.44,0,0,0-1.792.784h0a2.476,2.476,0,0,0-.339-1.149,6.445,6.445,0,0,1-6.191-.425,2.427,2.427,0,0,0-1.558.565,3.484,3.484,0,0,0-3.446-3.089,3.438,3.438,0,0,0-1.606.4,5.166,5.166,0,0,0-5.192-3.079,5.245,5.245,0,0,0-4.651,5.978c0,.013,0,.026.006.038a2.478,2.478,0,0,0-2.122,2.452Z" transform="translate(-570.372 -791.212)" fill="#fff"/>
              </g>
              <g id="Grupo_932473" data-name="Grupo 932473" transform="translate(47.121 47.06)">
                <path id="Trazado_669699" data-name="Trazado 669699" d="M605.868,648.831a5.742,5.742,0,0,0,1.518,3.894h83.829l.772-.515a6.36,6.36,0,0,0,1.942-1.972,5.761,5.761,0,0,0,.674-1.617,5.844,5.844,0,0,0-5.166-7.312,5.6,5.6,0,0,0-4.1,1.476c.009-.163.024-.327.024-.494a8.713,8.713,0,0,0-17.268-1.737,8.973,8.973,0,0,0-.169,1.737c0,.28.015.556.041.828h-.041a5.629,5.629,0,0,0-4.134,1.809l0,0a5.714,5.714,0,0,0-.783-2.65,5.622,5.622,0,0,0-10.132.86,5.6,5.6,0,0,0-7.748-.539,8.039,8.039,0,0,0-7.951-7.129,7.933,7.933,0,0,0-3.706.92,11.921,11.921,0,0,0-11.98-7.106,12.1,12.1,0,0,0-10.733,13.795c0,.03.007.06.013.088a5.719,5.719,0,0,0-4.9,5.659Z" transform="translate(-605.868 -629.24)" fill="#fff"/>
              </g>
            </g>
          </g>
          <g id="Grupo_932571" data-name="Grupo 932571" transform="translate(19.321 50.858)">
            <g id="Grupo_932564" data-name="Grupo 932564" transform="translate(7.68 40.919)">
              <path id="Trazado_669725" data-name="Trazado 669725" d="M317.616,766.841l-3.578,9.379s-2.34-4.076-2.294-4.2,1.608-4.094,1.608-4.094Z" transform="translate(-311.743 -766.841)" fill="#0097bf"/>
            </g>
            <g id="Grupo_932565" data-name="Grupo 932565" transform="translate(0 39.501)">
              <path id="Trazado_669726" data-name="Trazado 669726" d="M280.565,760.812l19.624,4.508L279.077,790.54Z" transform="translate(-279.077 -760.812)" fill="#aedeff"/>
            </g>
            <g id="Grupo_932566" data-name="Grupo 932566" transform="translate(0 40.802)">
              <path id="Trazado_669727" data-name="Trazado 669727" d="M279.077,794.771l7.15-28.428,6.4.117-2.46.789Z" transform="translate(-279.077 -766.344)" fill="#5eb9f7"/>
            </g>
            <g id="Grupo_932570" data-name="Grupo 932570" transform="translate(16.672)">
              <g id="Grupo_932567" data-name="Grupo 932567" transform="translate(0 35.631)">
                <path id="Trazado_669728" data-name="Trazado 669728" d="M351.805,744.673l-.227-.321c-1.01.714-1.587,1.17-1.593,1.174l.244.309C350.235,745.83,350.8,745.38,351.805,744.673Z" transform="translate(-349.985 -744.351)" fill="#615370"/>
              </g>
              <g id="Grupo_932568" data-name="Grupo 932568" transform="translate(4.958 1.794)">
                <path id="Trazado_669729" data-name="Trazado 669729" d="M412.6,640.152l-.39-.056a12.073,12.073,0,0,0-.078-3.945l.387-.073a12.421,12.421,0,0,1,.161,3.386C412.66,639.692,412.633,639.924,412.6,640.152Zm-3.514,7.244-.287-.269a13.324,13.324,0,0,0,2.244-3.257l.354.173A13.714,13.714,0,0,1,409.087,647.4Zm1.691-14.951a13.62,13.62,0,0,0-2.436-3.117l.273-.284a14.015,14.015,0,0,1,2.506,3.208Zm-8.646,19.015-.1-.382a14.043,14.043,0,0,0,3.669-1.485l.2.34A14.449,14.449,0,0,1,402.131,651.461Zm3.034-24.518c-.572-.338-1.183-.657-1.815-.951a18.117,18.117,0,0,0-1.8-.721l.127-.373a18.533,18.533,0,0,1,1.837.737c.644.3,1.266.625,1.849.969Zm-1.22-24.509-.178-.351c1.185-.6,2.427-1.157,3.694-1.648l.143.367C406.349,601.288,405.118,601.837,403.945,602.433Zm-7.159,49.418c-.345-.031-.694-.072-1.037-.122a11.425,11.425,0,0,1-1.687-.379l.115-.377a11.061,11.061,0,0,0,1.629.366c.336.049.677.09,1.015.12.426.038.855.06,1.276.065l-.006.394C397.66,651.913,397.221,651.89,396.786,651.851Zm.46-45.052-.25-.3a36.541,36.541,0,0,1,3.265-2.391l.215.33A36.241,36.241,0,0,0,397.246,606.8Zm.424,17.585c-.26-.032-.525-.061-.787-.084a24.222,24.222,0,0,0-3.2-.065l-.017-.394a24.658,24.658,0,0,1,3.253.067c.266.024.536.053.8.086Zm-5.983-11.841-.312-.24a35.4,35.4,0,0,1,2.645-3.065l.283.274A35.016,35.016,0,0,0,391.687,612.543Zm-1.238,36.926a13.48,13.48,0,0,1-2.787-2.967l.323-.225a13.078,13.078,0,0,0,2.7,2.881Zm-4.64-23.852-.111-.378a38.327,38.327,0,0,1,3.94-.938l.07.388A37.845,37.845,0,0,0,385.809,625.618Zm1.765-6.218-.359-.163a35.719,35.719,0,0,1,1.881-3.586l.338.2A35.382,35.382,0,0,0,387.575,619.4Zm-1.819,23.513a22.8,22.8,0,0,1-1.143-3.895l.386-.078a22.378,22.378,0,0,0,1.123,3.827Zm-.64-15.9-.386-.077a35.33,35.33,0,0,1,1.024-3.918l.375.121A34.864,34.864,0,0,0,385.116,627.008Zm-1,7.986a31.369,31.369,0,0,1,.058-4.051l.393.031a31.014,31.014,0,0,0-.057,4Zm-5.788-6.489-.168-.356c1.248-.59,2.5-1.129,3.713-1.6l.143.367C380.806,627.384,379.565,627.919,378.326,628.505Zm-7.045,3.865-.209-.334c1.148-.717,2.322-1.406,3.486-2.046l.19.345C373.59,630.972,372.423,631.657,371.281,632.37Z" transform="translate(-371.072 -600.434)" fill="#615370"/>
              </g>
              <g id="Grupo_932569" data-name="Grupo 932569" transform="translate(45.227)">
                <path id="Trazado_669730" data-name="Trazado 669730" d="M544.353,593.186l-.091-.383c-.641.152-1.285.32-1.914.5l.107.379C543.08,593.5,543.718,593.337,544.353,593.186Z" transform="translate(-542.348 -592.803)" fill="#615370"/>
              </g>
            </g>
          </g>
          <g id="Grupo_932578" data-name="Grupo 932578" transform="translate(418.492 45.444)">
            <g id="Grupo_932572" data-name="Grupo 932572" transform="translate(16.359 13.986)">
              <path id="Trazado_669731" data-name="Trazado 669731" d="M2054.911,636.579l-8.474-6.139s4.736-1.253,4.847-1.173,3.686,2.726,3.686,2.726Z" transform="translate(-2046.437 -629.263)" fill="#0097bf"/>
            </g>
            <g id="Grupo_932573" data-name="Grupo 932573" transform="translate(0 0)">
              <path id="Trazado_669732" data-name="Trazado 669732" d="M2006.381,579.316l-9.847,18.535-19.677-28.076Z" transform="translate(-1976.857 -569.775)" fill="#aedeff"/>
            </g>
            <g id="Grupo_932574" data-name="Grupo 932574" transform="translate(0 0)">
              <path id="Trazado_669733" data-name="Trazado 669733" d="M1976.857,569.775l26.682,14.889-1.85,6.414-.128-2.69Z" transform="translate(-1976.857 -569.775)" fill="#5eb9f7"/>
            </g>
            <g id="Grupo_932577" data-name="Grupo 932577" transform="translate(2.261 25.555)">
              <g id="Grupo_932575" data-name="Grupo 932575" transform="translate(25.492)">
                <path id="Trazado_669734" data-name="Trazado 669734" d="M2095.641,680.529l.385-.142c-.446-1.21-.748-1.914-.751-1.921l-.377.162C2094.9,678.635,2095.2,679.331,2095.641,680.529Z" transform="translate(-2094.897 -678.466)" fill="#615370"/>
              </g>
              <g id="Grupo_932576" data-name="Grupo 932576" transform="translate(0 5.913)">
                <path id="Trazado_669735" data-name="Trazado 669735" d="M1995.028,743.225l.162-.378a12.582,12.582,0,0,0,3.992.989l-.031.409a12.956,12.956,0,0,1-3.452-.754C1995.474,743.409,1995.249,743.319,1995.028,743.225Zm-6.341-5.5.348-.217a13.889,13.889,0,0,0,2.672,3.14l-.27.31A14.3,14.3,0,0,1,1988.687,737.728Zm14.593,5.747a14.192,14.192,0,0,0,3.8-1.609l.212.352a14.61,14.61,0,0,1-3.907,1.654Zm-16.8-13.848.411.007a14.636,14.636,0,0,0,.5,4.1l-.4.107A15.05,15.05,0,0,1,1986.476,729.626Zm23.861,9.688c.495-.485.982-1.013,1.449-1.569A19.071,19.071,0,0,0,2013,736.13l.341.228a19.387,19.387,0,0,1-1.239,1.65c-.476.567-.972,1.105-1.476,1.6Zm25,5.4.4-.085a42.092,42.092,0,0,1,.66,4.165l-.408.044A41.7,41.7,0,0,0,2035.34,744.716Zm-47.81-20.577c.124-.339.26-.679.4-1.011a11.925,11.925,0,0,1,.838-1.6l.348.218a11.5,11.5,0,0,0-.809,1.541c-.14.325-.273.657-.395.989-.153.418-.292.844-.411,1.266l-.4-.112C1987.231,725,1987.373,724.567,1987.53,724.139Zm45.227,12.652.374-.169a38.14,38.14,0,0,1,1.524,3.934l-.39.127A37.689,37.689,0,0,0,2032.757,736.791Zm-17.817-4.33c.1-.253.2-.512.3-.77a25.309,25.309,0,0,0,.931-3.2l.4.089a25.714,25.714,0,0,1-.947,3.256c-.1.262-.2.525-.3.783Zm13.539-2.82.326-.25a37.05,37.05,0,0,1,2.37,3.492l-.352.211A36.478,36.478,0,0,0,2028.478,729.641Zm-36.837-11.236a14.053,14.053,0,0,1,3.741-2l.139.386a13.63,13.63,0,0,0-3.632,1.944Zm25.266,1.782.41-.009a39.981,39.981,0,0,1-.122,4.22l-.409-.035A39.481,39.481,0,0,0,2016.907,720.187Zm5.781,3.46.261-.317a37.246,37.246,0,0,1,3.1,2.864l-.3.285A36.784,36.784,0,0,0,2022.689,723.647Zm-23.177-8.193a23.757,23.757,0,0,1,4.23-.1l-.026.41a23.351,23.351,0,0,0-4.156.095Zm16.183,3.658.182-.368a36.771,36.771,0,0,1,3.667,2.091l-.224.344A36.419,36.419,0,0,0,2015.695,719.113Zm-7.768-3.17a32.732,32.732,0,0,1,4.063,1.154l-.137.387a32.328,32.328,0,0,0-4.012-1.139Zm8.1-4.071.4-.073c.256,1.416.461,2.82.608,4.171l-.408.044C2016.483,714.673,2016.28,713.279,2016.025,711.872Zm-1.984-8.138.393-.12c.411,1.35.787,2.718,1.117,4.063l-.4.1C2014.823,706.438,2014.45,705.078,2014.041,703.735Z" transform="translate(-1986.474 -703.615)" fill="#615370"/>
              </g>
            </g>
          </g>
        </g>
        <g id="Grupo_992277" data-name="Grupo 992277" transform="translate(929.597 3580.923)">
          <g id="Grupo_992333" data-name="Grupo 992333" transform="translate(0 0)" clip-path="url(#clip-path-3)">
            <g id="Grupo_992332" data-name="Grupo 992332" transform="translate(0 -17.241)">
              <g id="Grupo_992331" data-name="Grupo 992331" clip-path="url(#clip-path-4)">
                <path id="Trazado_678099" data-name="Trazado 678099" d="M322.966,95.528a.693.693,0,0,0,.307-.074l6.585-3.464,6.584,3.464a.663.663,0,0,0,.691-.051.65.65,0,0,0,.261-.64l-1.254-7.334,5.325-5.194a.652.652,0,0,0-.364-1.116l-7.363-1.07-3.292-6.672a.682.682,0,0,0-1.177,0l-3.292,6.672-7.363,1.07a.652.652,0,0,0-.364,1.116l5.325,5.194-1.254,7.334a.651.651,0,0,0,.261.64.634.634,0,0,0,.384.125m6.892-4.933a.692.692,0,0,0-.307.074l-5.714,3.005,1.091-6.364a.641.641,0,0,0-.189-.579l-4.623-4.508,6.39-.929a.658.658,0,0,0,.5-.358l2.857-5.791,2.857,5.791a.658.658,0,0,0,.5.358l6.39.929-4.623,4.508a.641.641,0,0,0-.189.579l1.091,6.364-5.714-3.005a.693.693,0,0,0-.307-.074" transform="translate(58.662 -55.122)" fill="#82cad1"/>
                <path id="Trazado_678100" data-name="Trazado 678100" d="M1887.253,1242.337a.476.476,0,0,0,.211-.051l4.527-2.381,4.527,2.381a.456.456,0,0,0,.475-.035.447.447,0,0,0,.179-.44l-.862-5.042,3.661-3.571a.448.448,0,0,0-.25-.767l-5.062-.736-2.264-4.587a.469.469,0,0,0-.809,0l-2.263,4.587-5.062.736a.448.448,0,0,0-.25.767l3.661,3.571-.862,5.042a.447.447,0,0,0,.179.44.433.433,0,0,0,.264.086m4.738-3.391a.476.476,0,0,0-.211.051l-3.928,2.066.75-4.376a.44.44,0,0,0-.13-.4l-3.179-3.1,4.393-.639a.453.453,0,0,0,.341-.246l1.964-3.981,1.964,3.981a.453.453,0,0,0,.341.246l4.393.639-3.178,3.1a.44.44,0,0,0-.13.4l.75,4.376L1892.2,1239a.473.473,0,0,0-.211-.051" transform="translate(-1871.893 -935.027)" fill="#82cad1"/>
                <g id="Grupo_992335" data-name="Grupo 992335" transform="translate(329.505 20.474)">
                  <path id="Trazado_678101" data-name="Trazado 678101" d="M666.16,17.9H682.9a.582.582,0,0,0,.582-.582V.583A.582.582,0,0,0,682.9,0H666.16a.582.582,0,0,0-.582.582V17.321a.582.582,0,0,0,.582.582m16.156-1.164H666.742V1.165h15.574Z" transform="translate(-665.578 -0.001)" fill="#86c3d1"/>
                  <path id="Trazado_678102" data-name="Trazado 678102" d="M681.236,22.109a.583.583,0,0,1-.424-.183l-4.578-4.864a.582.582,0,1,1,.848-.8l4.105,4.362,7.451-9.891a.582.582,0,1,1,.93.7L681.7,21.877a.58.58,0,0,1-.433.231Z" transform="translate(-674.358 -7.926)" fill="#86c3d1"/>
                </g>
                <path id="Trazado_678103" data-name="Trazado 678103" d="M96.475,650.81h11.7a.406.406,0,0,0,.407-.407v-11.7a.407.407,0,0,0-.407-.407h-11.7a.407.407,0,0,0-.407.407v11.7a.406.406,0,0,0,.407.407m11.29-.814H96.882V639.113h10.883Z" transform="translate(346.199 -481.727)" fill="#86c3d1"/>
                <path id="Trazado_678104" data-name="Trazado 678104" d="M109.309,653.75a.406.406,0,0,0,.3-.128l3.2-3.4a.407.407,0,1,0-.593-.558l-2.869,3.048-5.207-6.913a.407.407,0,1,0-.65.489l5.5,7.3a.4.4,0,0,0,.3.161Z" transform="translate(340.063 -487.266)" fill="#86c3d1"/>
                <g id="Grupo_992334" data-name="Grupo 992334" transform="translate(115.377 23.823)">
                  <path id="Trazado_678105" data-name="Trazado 678105" d="M1473.036,56.915h11.7a.407.407,0,0,0,.407-.407v-11.7a.407.407,0,0,0-.407-.407h-11.7a.407.407,0,0,0-.407.407v11.7a.407.407,0,0,0,.407.407m11.29-.814h-10.883V45.218h10.883Z" transform="translate(-1472.629 -44.404)" fill="#86c3d1"/>
                  <path id="Trazado_678106" data-name="Trazado 678106" d="M1483.572,59.855a.406.406,0,0,1-.3-.128l-3.2-3.4a.407.407,0,0,1,.593-.558l2.869,3.048,5.207-6.912a.407.407,0,1,1,.65.489l-5.5,7.3a.405.405,0,0,1-.3.161Z" transform="translate(-1478.767 -49.943)" fill="#86c3d1"/>
                </g>
                <path id="Trazado_678107" data-name="Trazado 678107" d="M1632.53,198.248h14.908v-1.139a16.042,16.042,0,0,1,4.089-10.366,15.04,15.04,0,0,0-8.28-24.389,16.049,16.049,0,0,0-3.263-.342A15.1,15.1,0,0,0,1624.9,177.1a14.9,14.9,0,0,0,3.961,10.115,14.494,14.494,0,0,1,3.671,9.884Zm13.693-1.215h-12.478a15.672,15.672,0,0,0-3.994-10.641,13.7,13.7,0,0,1-3.638-9.294,13.887,13.887,0,0,1,13.871-13.872,14.593,14.593,0,0,1,3.012.318,13.815,13.815,0,0,1,10.6,10.836,13.63,13.63,0,0,1-3,11.574,17.261,17.261,0,0,0-4.379,11.078" transform="translate(-1575.305 -122.27)" fill="#86c3d1"/>
                <path id="Trazado_678108" data-name="Trazado 678108" d="M1646.017,311.159h16.774a2.379,2.379,0,0,0,2.378-2.378V307.16a2.379,2.379,0,0,0-2.378-2.378h-16.774a2.379,2.379,0,0,0-2.378,2.378v1.621a2.379,2.379,0,0,0,2.378,2.378M1662.791,306a1.165,1.165,0,0,1,1.163,1.163v1.621a1.165,1.165,0,0,1-1.163,1.163h-16.774a1.165,1.165,0,0,1-1.163-1.163V307.16a1.165,1.165,0,0,1,1.163-1.163Z" transform="translate(-1590.005 -230.02)" fill="#86c3d1"/>
                <path id="Trazado_678109" data-name="Trazado 678109" d="M1662.575,333.664h1.97a6.588,6.588,0,0,0,6.581-6.581v-1.258h-15.131v1.258a6.588,6.588,0,0,0,6.581,6.581m7.336-6.623v.043a5.371,5.371,0,0,1-5.366,5.366h-1.97a5.371,5.371,0,0,1-5.366-5.366v-.043Z" transform="translate(-1598.992 -245.902)" fill="#86c3d1"/>
                <path id="Trazado_678110" data-name="Trazado 678110" d="M1701.306,257.766h.031a.613.613,0,0,0,.574-.655l-1.234-15.378a.617.617,0,0,0-.652-.558.608.608,0,0,0-.558.653l1.234,15.378a.609.609,0,0,0,.6.56" transform="translate(-1640.443 -182.015)" fill="#86c3d1"/>
                <path id="Trazado_678111" data-name="Trazado 678111" d="M1664.837,257.767a.609.609,0,0,0,.605-.56l1.234-15.378a.608.608,0,0,0-.558-.653.648.648,0,0,0-.653.558l-1.234,15.378a.608.608,0,0,0,.558.652Z" transform="translate(-1596.564 -182.016)" fill="#86c3d1"/>
                <path id="Trazado_678112" data-name="Trazado 678112" d="M1675.55,249.416a.606.606,0,0,0,.406-.157l2.525-2.273a.607.607,0,1,0-.812-.9l-2.088,1.88-1.7-1.763a.665.665,0,0,0-.475-.188.611.611,0,0,0-.449.242l-1.516,2.02a.609.609,0,1,0,.973.731l1.087-1.45,1.611,1.673a.6.6,0,0,0,.437.187" transform="translate(-1610.308 -185.604)" fill="#86c3d1"/>
                <path id="Trazado_678113" data-name="Trazado 678113" d="M466.262,505.383V183.8a5.365,5.365,0,0,1,5.365-5.365h243.96a5.365,5.365,0,0,1,5.365,5.365V505.383a5.365,5.365,0,0,1-5.365,5.365H471.627a5.365,5.365,0,0,1-5.365-5.365" transform="translate(-356.982 -134.666)" fill="#594b66"/>
                <path id="Trazado_678114" data-name="Trazado 678114" d="M731.372,515.246V199.741a1.84,1.84,0,0,0-1.84-1.84H488.555a1.84,1.84,0,0,0-1.84,1.84V515.246a1.84,1.84,0,0,0,1.84,1.84H729.532a1.84,1.84,0,0,0,1.84-1.84" transform="translate(-372.418 -149.357)" fill="#fff"/>
                <rect id="Rectángulo_345218" data-name="Rectángulo 345218" width="213.696" height="58.464" transform="translate(129.025 59.612)" fill="#c5ebf7"/>
                <rect id="Rectángulo_345219" data-name="Rectángulo 345219" width="207.245" height="233.049" transform="translate(131.444 126.543)" fill="#c5ebf7"/>
                <rect id="Rectángulo_345220" data-name="Rectángulo 345220" width="58.541" height="58.705" transform="translate(284.381 59.348)" fill="#6aa2e8"/>
                <path id="Trazado_678115" data-name="Trazado 678115" d="M872.544,302.092h45.563a2.419,2.419,0,0,0,0-4.838H872.544a2.419,2.419,0,0,0,0,4.838" transform="translate(-655.622 -224.339)" fill="#6aa2e8"/>
                <path id="Trazado_678116" data-name="Trazado 678116" d="M872.544,369.491h64.109a2.419,2.419,0,0,0,0-4.838H872.544a2.419,2.419,0,0,0,0,4.838" transform="translate(-674.167 -275.205)" fill="#6aa2e8"/>
                <path id="Trazado_678117" data-name="Trazado 678117" d="M1191.432,367.854h42.737a2.419,2.419,0,1,0,0-4.839h-42.737a2.419,2.419,0,1,0,0,4.839" transform="translate(-1049.906 -273.97)" fill="#6aa2e8"/>
                <path id="Trazado_678118" data-name="Trazado 678118" d="M879.132,425.371h93.139a2.419,2.419,0,0,0,0-4.838H879.132a2.419,2.419,0,0,0,0,4.838" transform="translate(-711.402 -317.378)" fill="#6aa2e8"/>
                <g id="Grupo_992279" data-name="Grupo 992279" transform="translate(160.127 244.782)" opacity="0.37">
                  <g id="Grupo_992278" data-name="Grupo 992278">
                    <g id="Grupo_992277-2" data-name="Grupo 992277" clip-path="url(#clip-path-5)">
                      <path id="Trazado_678120" data-name="Trazado 678120" d="M610.607,997.9H740.951a12.13,12.13,0,0,1,12.13,12.131v13.708l16.8,9.122-16.8,11.149v16.345a12.129,12.129,0,0,1-12.13,12.13H610.607a12.133,12.133,0,0,1-12.135-12.13v-50.324A12.133,12.133,0,0,1,610.607,997.9" transform="translate(-598.473 -997.903)" fill="#3b3348"/>
                    </g>
                  </g>
                </g>
                <path id="Trazado_678121" data-name="Trazado 678121" d="M621.376,985.937H751.72a12.13,12.13,0,0,1,12.131,12.131v13.708l16.8,9.122-16.8,11.149v16.345a12.129,12.129,0,0,1-12.131,12.13H621.376a12.133,12.133,0,0,1-12.135-12.13V998.068a12.133,12.133,0,0,1,12.135-12.131" transform="translate(-451.756 -744.09)" fill="#fff"/>
                <path id="Trazado_678122" data-name="Trazado 678122" d="M1112.3,1033.447h-45.7a.071.071,0,0,0-.071.07v6.074a.071.071,0,0,0,.071.071h45.7a.071.071,0,0,0,.07-.071v-6.074a.071.071,0,0,0-.07-.07" transform="translate(-895.638 -779.946)" fill="#4979bd"/>
                <path id="Trazado_678123" data-name="Trazado 678123" d="M1083.053,1149.054h-54.487a.046.046,0,0,0-.046.046v3.986a.046.046,0,0,0,.046.046h54.487a.046.046,0,0,0,.046-.046V1149.1a.046.046,0,0,0-.046-.046" transform="translate(-857.049 -867.195)" fill="#6aa2e8"/>
                <path id="Trazado_678124" data-name="Trazado 678124" d="M1083.053,1201.315h-54.487a.046.046,0,0,0-.046.046v3.986a.046.046,0,0,0,.046.047h54.487a.046.046,0,0,0,.046-.047v-3.986a.046.046,0,0,0-.046-.046" transform="translate(-857.049 -906.637)" fill="#6aa2e8"/>
                <path id="Trazado_678125" data-name="Trazado 678125" d="M821.749,1149.054H767.261a.046.046,0,0,0-.046.046v3.986a.046.046,0,0,0,.046.046h54.487a.046.046,0,0,0,.046-.046V1149.1a.046.046,0,0,0-.046-.046" transform="translate(-531.646 -867.195)" fill="#6aa2e8"/>
                <path id="Trazado_678126" data-name="Trazado 678126" d="M863.734,1103.128H737.962a.046.046,0,0,0-.046.046v3.986a.046.046,0,0,0,.046.046H863.734a.046.046,0,0,0,.046-.046v-3.986a.046.046,0,0,0-.046-.046" transform="translate(-566.445 -832.535)" fill="#6aa2e8"/>
                <path id="Trazado_678388" data-name="Trazado 678388" d="M0,0H133.1V181.263H0Z" transform="translate(11.981 104.558)" fill="#fff" stroke="#1d3987" stroke-width="3"/>
                <g id="Grupo_992282" data-name="Grupo 992282" transform="translate(21.488 126.899)" style="mix-blend-mode: multiply;isolation: isolate">
                  <g id="Grupo_992281" data-name="Grupo 992281">
                    <g id="Grupo_992280" data-name="Grupo 992280" clip-path="url(#clip-path-6)">
                      <path id="Trazado_678127" data-name="Trazado 678127" d="M1718.2,519.47h33.512a1.07,1.07,0,0,0,0-2.139H1718.2a1.07,1.07,0,0,0,0,2.139" transform="translate(-1717.127 -517.331)" fill="#f5dec4"/>
                    </g>
                  </g>
                </g>
                <g id="Grupo_992285" data-name="Grupo 992285" transform="translate(21.488 135.455)" style="mix-blend-mode: multiply;isolation: isolate">
                  <g id="Grupo_992284" data-name="Grupo 992284">
                    <g id="Grupo_992283" data-name="Grupo 992283" clip-path="url(#clip-path-6)">
                      <path id="Trazado_678128" data-name="Trazado 678128" d="M1718.2,554.35h33.512a1.07,1.07,0,0,0,0-2.139H1718.2a1.07,1.07,0,0,0,0,2.139" transform="translate(-1717.127 -552.211)" fill="#f5dec4"/>
                    </g>
                  </g>
                </g>
                <g id="Grupo_992288" data-name="Grupo 992288" transform="translate(21.488 144.725)" style="mix-blend-mode: multiply;isolation: isolate">
                  <g id="Grupo_992287" data-name="Grupo 992287">
                    <g id="Grupo_992286" data-name="Grupo 992286" clip-path="url(#clip-path-6)">
                      <path id="Trazado_678129" data-name="Trazado 678129" d="M1718.2,592.138h33.512a1.069,1.069,0,0,0,0-2.139H1718.2a1.069,1.069,0,0,0,0,2.139" transform="translate(-1717.127 -589.999)" fill="#f5dec4"/>
                    </g>
                  </g>
                </g>
                <path id="Trazado_678130" data-name="Trazado 678130" d="M1718.2,630.894h33.512a1.069,1.069,0,0,0,0-2.139H1718.2a1.069,1.069,0,0,0,0,2.139" transform="translate(-1695.639 -474.524)" fill="#0f58b9"/>
                <g id="Grupo_992291" data-name="Grupo 992291" transform="translate(77.578 169.204)" style="mix-blend-mode: multiply;isolation: isolate">
                  <g id="Grupo_992290" data-name="Grupo 992290">
                    <g id="Grupo_992289" data-name="Grupo 992289" clip-path="url(#clip-path-9)">
                      <path id="Trazado_678131" data-name="Trazado 678131" d="M1396.519,691.935h56.328a1.069,1.069,0,1,0,0-2.139h-56.328a1.069,1.069,0,1,0,0,2.139" transform="translate(-1395.449 -689.796)" fill="#f5dec4"/>
                    </g>
                  </g>
                </g>
                <path id="Trazado_678132" data-name="Trazado 678132" d="M1396.517,719.065h117.409a1.069,1.069,0,1,0,0-2.139H1396.517a1.069,1.069,0,0,0,0,2.139" transform="translate(-1378.952 -541.067)" fill="#0f58b9"/>
                <g id="Grupo_992294" data-name="Grupo 992294" transform="translate(16.496 182.752)" style="mix-blend-mode: multiply;isolation: isolate">
                  <g id="Grupo_992293" data-name="Grupo 992293">
                    <g id="Grupo_992292" data-name="Grupo 992292" clip-path="url(#clip-path-10)">
                      <path id="Trazado_678133" data-name="Trazado 678133" d="M1396.517,747.163h117.409a1.069,1.069,0,1,0,0-2.139H1396.517a1.069,1.069,0,0,0,0,2.139" transform="translate(-1395.448 -745.024)" fill="#f5dec4"/>
                    </g>
                  </g>
                </g>
                <g id="Grupo_992297" data-name="Grupo 992297" transform="translate(16.496 190.357)" style="mix-blend-mode: multiply;isolation: isolate">
                  <g id="Grupo_992296" data-name="Grupo 992296">
                    <g id="Grupo_992295" data-name="Grupo 992295" clip-path="url(#clip-path-10)">
                      <path id="Trazado_678134" data-name="Trazado 678134" d="M1396.517,778.168h117.409a1.07,1.07,0,1,0,0-2.139H1396.517a1.07,1.07,0,0,0,0,2.139" transform="translate(-1395.448 -776.029)" fill="#f5dec4"/>
                    </g>
                  </g>
                </g>
                <g id="Grupo_992300" data-name="Grupo 992300" transform="translate(16.258 169.204)" style="mix-blend-mode: multiply;isolation: isolate">
                  <g id="Grupo_992299" data-name="Grupo 992299">
                    <g id="Grupo_992298" data-name="Grupo 992298" clip-path="url(#clip-path-12)">
                      <path id="Trazado_678135" data-name="Trazado 678135" d="M1654.246,691.935h54.427a1.069,1.069,0,1,0,0-2.139h-54.427a1.069,1.069,0,1,0,0,2.139" transform="translate(-1653.176 -689.796)" fill="#f5dec4"/>
                    </g>
                  </g>
                </g>
                <g id="Grupo_992303" data-name="Grupo 992303" transform="translate(77.578 204.855)" style="mix-blend-mode: multiply;isolation: isolate">
                  <g id="Grupo_992302" data-name="Grupo 992302">
                    <g id="Grupo_992301" data-name="Grupo 992301" clip-path="url(#clip-path-9)">
                      <path id="Trazado_678136" data-name="Trazado 678136" d="M1396.519,837.272h56.328a1.07,1.07,0,1,0,0-2.139h-56.328a1.07,1.07,0,1,0,0,2.139" transform="translate(-1395.449 -835.133)" fill="#f5dec4"/>
                    </g>
                  </g>
                </g>
                <g id="Grupo_992306" data-name="Grupo 992306" transform="translate(16.496 211.51)" style="mix-blend-mode: multiply;isolation: isolate">
                  <g id="Grupo_992305" data-name="Grupo 992305">
                    <g id="Grupo_992304" data-name="Grupo 992304" clip-path="url(#clip-path-10)">
                      <path id="Trazado_678137" data-name="Trazado 678137" d="M1396.517,864.4h117.409a1.069,1.069,0,1,0,0-2.139H1396.517a1.069,1.069,0,0,0,0,2.139" transform="translate(-1395.448 -862.262)" fill="#f5dec4"/>
                    </g>
                  </g>
                </g>
                <g id="Grupo_992309" data-name="Grupo 992309" transform="translate(16.496 218.402)" style="mix-blend-mode: multiply;isolation: isolate">
                  <g id="Grupo_992308" data-name="Grupo 992308">
                    <g id="Grupo_992307" data-name="Grupo 992307" clip-path="url(#clip-path-10)">
                      <path id="Trazado_678138" data-name="Trazado 678138" d="M1396.517,892.5h117.409a1.069,1.069,0,1,0,0-2.139H1396.517a1.069,1.069,0,0,0,0,2.139" transform="translate(-1395.448 -890.36)" fill="#f5dec4"/>
                    </g>
                  </g>
                </g>
                <g id="Grupo_992312" data-name="Grupo 992312" transform="translate(16.496 226.008)" style="mix-blend-mode: multiply;isolation: isolate">
                  <g id="Grupo_992311" data-name="Grupo 992311">
                    <g id="Grupo_992310" data-name="Grupo 992310" clip-path="url(#clip-path-10)">
                      <path id="Trazado_678139" data-name="Trazado 678139" d="M1396.517,923.5h117.409a1.07,1.07,0,1,0,0-2.139H1396.517a1.07,1.07,0,0,0,0,2.139" transform="translate(-1395.448 -921.365)" fill="#f5dec4"/>
                    </g>
                  </g>
                </g>
                <path id="Trazado_678140" data-name="Trazado 678140" d="M1654.246,837.272h54.427a1.07,1.07,0,1,0,0-2.139h-54.427a1.07,1.07,0,1,0,0,2.139" transform="translate(-1636.918 -630.278)" fill="#0f58b9"/>
                <g id="Grupo_992315" data-name="Grupo 992315" transform="translate(77.578 234.801)" style="mix-blend-mode: multiply;isolation: isolate">
                  <g id="Grupo_992314" data-name="Grupo 992314">
                    <g id="Grupo_992313" data-name="Grupo 992313" clip-path="url(#clip-path-9)">
                      <path id="Trazado_678141" data-name="Trazado 678141" d="M1396.519,959.354h56.328a1.069,1.069,0,1,0,0-2.139h-56.328a1.069,1.069,0,1,0,0,2.139" transform="translate(-1395.449 -957.215)" fill="#f5dec4"/>
                    </g>
                  </g>
                </g>
                <g id="Grupo_992318" data-name="Grupo 992318" transform="translate(16.496 241.456)" style="mix-blend-mode: multiply;isolation: isolate">
                  <g id="Grupo_992317" data-name="Grupo 992317">
                    <g id="Grupo_992316" data-name="Grupo 992316" clip-path="url(#clip-path-10)">
                      <path id="Trazado_678142" data-name="Trazado 678142" d="M1396.517,986.483h117.409a1.069,1.069,0,1,0,0-2.139H1396.517a1.069,1.069,0,0,0,0,2.139" transform="translate(-1395.448 -984.344)" fill="#f5dec4"/>
                    </g>
                  </g>
                </g>
                <g id="Grupo_992321" data-name="Grupo 992321" transform="translate(16.496 248.348)" style="mix-blend-mode: multiply;isolation: isolate">
                  <g id="Grupo_992320" data-name="Grupo 992320">
                    <g id="Grupo_992319" data-name="Grupo 992319" clip-path="url(#clip-path-10)">
                      <path id="Trazado_678143" data-name="Trazado 678143" d="M1396.517,1014.582h117.409a1.07,1.07,0,1,0,0-2.139H1396.517a1.07,1.07,0,0,0,0,2.139" transform="translate(-1395.448 -1012.443)" fill="#f5dec4"/>
                    </g>
                  </g>
                </g>
                <g id="Grupo_992324" data-name="Grupo 992324" transform="translate(16.496 255.954)" style="mix-blend-mode: multiply;isolation: isolate">
                  <g id="Grupo_992323" data-name="Grupo 992323">
                    <g id="Grupo_992322" data-name="Grupo 992322" clip-path="url(#clip-path-10)">
                      <path id="Trazado_678144" data-name="Trazado 678144" d="M1396.517,1045.587h117.409a1.07,1.07,0,1,0,0-2.139H1396.517a1.07,1.07,0,0,0,0,2.139" transform="translate(-1395.448 -1043.448)" fill="#f5dec4"/>
                    </g>
                  </g>
                </g>
                <g id="Grupo_992327" data-name="Grupo 992327" transform="translate(16.258 234.801)" style="mix-blend-mode: multiply;isolation: isolate">
                  <g id="Grupo_992326" data-name="Grupo 992326">
                    <g id="Grupo_992325" data-name="Grupo 992325" clip-path="url(#clip-path-12)">
                      <path id="Trazado_678145" data-name="Trazado 678145" d="M1654.246,959.354h54.427a1.069,1.069,0,1,0,0-2.139h-54.427a1.069,1.069,0,1,0,0,2.139" transform="translate(-1653.176 -957.215)" fill="#f5dec4"/>
                    </g>
                  </g>
                </g>
                <path id="Trazado_678151" data-name="Trazado 678151" d="M588.368,317.747a.241.241,0,0,0,.1-.022l25.581-11.681a.356.356,0,0,0,.185-.337.348.348,0,0,0-.2-.326L585.818,294.4a.235.235,0,0,0-.168,0l-26.334,10.044a.345.345,0,0,0-.2.326.36.36,0,0,0,.188.34l28.968,12.615a.229.229,0,0,0,.094.019m24.706-12-24.708,11.281L560.3,304.8l25.429-9.7Z" transform="translate(-273.037 -222.176)" fill="#fff"/>
                <path id="Trazado_678152" data-name="Trazado 678152" d="M621.078,375.851a.248.248,0,0,0,.145-.049c.088-.066,8.974-6.655,15.439-8.607a.353.353,0,0,0,.213-.394c-.02-.156-.508-3.83-2.4-5.872a.244.244,0,0,0-.4.033.413.413,0,0,0,.027.5,11.128,11.128,0,0,1,2.161,5.139c-6.029,1.914-13.937,7.583-15.171,8.484-6.332-5.894-15.43-9.236-17.222-9.858a16.817,16.817,0,0,1,2.632-5,.415.415,0,0,0,.011-.5.246.246,0,0,0-.4-.014,17.457,17.457,0,0,0-2.89,5.612.429.429,0,0,0,.011.29.3.3,0,0,0,.181.181c.1.033,10.561,3.449,17.487,9.987a.252.252,0,0,0,.171.071" transform="translate(-306.5 -271.402)" fill="#fff"/>
                <path id="Trazado_678153" data-name="Trazado 678153" d="M667.71,352.049h3.573a.275.275,0,0,0,.24-.167.421.421,0,0,0,.011-.342l-1.625-3.953a.426.426,0,0,0,.01-.093V333.355l20-5.2a.354.354,0,0,0,.219-.413c-.033-.192-.183-.323-.334-.271l-20.221,5.256a.338.338,0,0,0-.225.342v14.222a.41.41,0,0,0-.069.263l-1.821,3.972a.417.417,0,0,0,0,.348.276.276,0,0,0,.244.175m3.113-.7h-2.628l1.385-3.022Z" transform="translate(-375.515 -247.136)" fill="#fff"/>
                <path id="Trazado_678154" data-name="Trazado 678154" d="M278.985,303.1h.2v36.384H304.8c3.917,0,4.947.869,5.122,1.538.019,0,.061,1.612.071,2.056H278.985a.806.806,0,0,1-.806-.806V303.908a.806.806,0,0,1,.806-.806" transform="translate(100.114 -228.752)" fill="#86c3d1"/>
                <path id="Trazado_678155" data-name="Trazado 678155" d="M307.85,339.244a.363.363,0,0,0,.364-.363V301.436a.369.369,0,0,0-.008-.073,5.442,5.442,0,0,0-5.554-4.068H277.041a.363.363,0,0,0-.364.364V335.1a.363.363,0,0,0,.364.364h25.611c4.051,0,4.673.937,4.767,1.251.013.166.039,1.012.067,2.15v.012a.383.383,0,0,0,.364.363m-.364-37.768v34.192c-.845-.616-2.462-.927-4.835-.927H277.4V298.022h25.247a4.657,4.657,0,0,1,4.835,3.454" transform="translate(102.262 -224.37)" fill="#86c3d1"/>
                <path id="Trazado_678156" data-name="Trazado 678156" d="M148.766,339.865a5.593,5.593,0,0,1,1.969-.378h25.309V303.1h.6a.806.806,0,0,1,.806.806v38.365a.806.806,0,0,1-.806.807h-27.86Z" transform="translate(264.403 -228.753)" fill="#86c3d1"/>
                <path id="Trazado_678157" data-name="Trazado 678157" d="M267.661,343.813a.363.363,0,0,0,.364-.366l-.232-44.284a.363.363,0,0,0-.133-.279.355.355,0,0,0-.3-.075,4.622,4.622,0,0,0-3.281,3.571.38.38,0,0,0-.012.094l.012,40.86a.363.363,0,0,0,.213.331.368.368,0,0,0,.389-.056l1.379-1.2,1.348,1.3a.365.365,0,0,0,.252.1m-.592-44.141.224,42.917-.967-.932a.366.366,0,0,0-.491-.014l-1.028.894-.012-40.015a4.144,4.144,0,0,1,2.274-2.85" transform="translate(145.544 -225.507)" fill="#86c3d1"/>
                <line id="Línea_265" data-name="Línea 265" x1="17.94" transform="translate(419.46 78.327)" fill="#86c3d1"/>
                <path id="Trazado_678158" data-name="Trazado 678158" d="M165.795,318.56h17.94a.364.364,0,1,0,0-.727h-17.94a.364.364,0,1,0,0,.727" transform="translate(253.666 -239.87)" fill="#86c3d1"/>
                <line id="Línea_266" data-name="Línea 266" x1="17.94" transform="translate(419.46 86.085)" fill="#86c3d1"/>
                <path id="Trazado_678159" data-name="Trazado 678159" d="M165.795,350.188h17.94a.364.364,0,1,0,0-.727h-17.94a.364.364,0,1,0,0,.727" transform="translate(253.666 -263.74)" fill="#86c3d1"/>
                <line id="Línea_267" data-name="Línea 267" x1="4.97" transform="translate(432.552 82.145)" fill="#86c3d1"/>
                <path id="Trazado_678160" data-name="Trazado 678160" d="M165.3,334.126h4.97a.364.364,0,0,0,0-.727H165.3a.364.364,0,0,0,0,.727" transform="translate(267.251 -251.618)" fill="#86c3d1"/>
                <line id="Línea_268" data-name="Línea 268" x1="4.97" transform="translate(432.552 89.661)" fill="#86c3d1"/>
                <path id="Trazado_678161" data-name="Trazado 678161" d="M165.3,364.764h4.97a.364.364,0,0,0,0-.727H165.3a.364.364,0,0,0,0,.727" transform="translate(267.251 -274.74)" fill="#86c3d1"/>
                <line id="Línea_269" data-name="Línea 269" x1="9.334" transform="translate(418.733 82.145)" fill="#86c3d1"/>
                <path id="Trazado_678162" data-name="Trazado 678162" d="M203.844,334.126h9.334a.364.364,0,1,0,0-.727h-9.334a.364.364,0,0,0,0,.727" transform="translate(214.889 -251.618)" fill="#86c3d1"/>
                <line id="Línea_270" data-name="Línea 270" x1="17.94" transform="translate(419.46 93.479)" fill="#86c3d1"/>
                <path id="Trazado_678163" data-name="Trazado 678163" d="M165.795,380.33h17.94a.364.364,0,1,0,0-.727h-17.94a.364.364,0,1,0,0,.727" transform="translate(253.666 -286.488)" fill="#86c3d1"/>
                <line id="Línea_271" data-name="Línea 271" x1="17.94" transform="translate(419.46 101.479)" fill="#86c3d1"/>
                <path id="Trazado_678164" data-name="Trazado 678164" d="M165.795,412.945h17.94a.364.364,0,1,0,0-.727h-17.94a.364.364,0,1,0,0,.727" transform="translate(253.666 -311.103)" fill="#86c3d1"/>
                <line id="Línea_272" data-name="Línea 272" x1="4.97" transform="translate(432.552 97.297)" fill="#86c3d1"/>
                <path id="Trazado_678165" data-name="Trazado 678165" d="M165.3,395.9h4.97a.364.364,0,0,0,0-.727H165.3a.364.364,0,0,0,0,.727" transform="translate(267.251 -298.236)" fill="#86c3d1"/>
                <line id="Línea_273" data-name="Línea 273" x1="9.334" transform="translate(418.733 97.297)" fill="#86c3d1"/>
                <path id="Trazado_678166" data-name="Trazado 678166" d="M203.844,395.9h9.334a.364.364,0,1,0,0-.727h-9.334a.364.364,0,0,0,0,.727" transform="translate(214.889 -298.236)" fill="#86c3d1"/>
                <line id="Línea_274" data-name="Línea 274" x1="17.94" transform="translate(385.762 78.327)" fill="#86c3d1"/>
                <path id="Trazado_678167" data-name="Trazado 678167" d="M303.172,318.56h17.94a.364.364,0,1,0,0-.727h-17.94a.364.364,0,0,0,0,.727" transform="translate(82.59 -239.87)" fill="#86c3d1"/>
                <line id="Línea_275" data-name="Línea 275" x1="17.94" transform="translate(385.762 86.085)" fill="#86c3d1"/>
                <path id="Trazado_678168" data-name="Trazado 678168" d="M303.172,350.188h17.94a.364.364,0,1,0,0-.727h-17.94a.364.364,0,0,0,0,.727" transform="translate(82.59 -263.74)" fill="#86c3d1"/>
                <line id="Línea_276" data-name="Línea 276" x1="4.97" transform="translate(398.853 82.145)" fill="#86c3d1"/>
                <path id="Trazado_678169" data-name="Trazado 678169" d="M302.676,334.126h4.97a.364.364,0,1,0,0-.727h-4.97a.364.364,0,0,0,0,.727" transform="translate(96.177 -251.618)" fill="#86c3d1"/>
                <line id="Línea_277" data-name="Línea 277" x1="4.97" transform="translate(398.853 89.661)" fill="#86c3d1"/>
                <path id="Trazado_678170" data-name="Trazado 678170" d="M302.676,364.764h4.97a.364.364,0,1,0,0-.727h-4.97a.364.364,0,0,0,0,.727" transform="translate(96.177 -274.74)" fill="#86c3d1"/>
                <line id="Línea_278" data-name="Línea 278" x1="9.334" transform="translate(385.034 82.145)" fill="#86c3d1"/>
                <path id="Trazado_678171" data-name="Trazado 678171" d="M341.222,334.126h9.334a.364.364,0,0,0,0-.727h-9.334a.364.364,0,0,0,0,.727" transform="translate(43.813 -251.618)" fill="#86c3d1"/>
                <line id="Línea_279" data-name="Línea 279" x1="17.94" transform="translate(385.762 93.479)" fill="#86c3d1"/>
                <path id="Trazado_678172" data-name="Trazado 678172" d="M303.172,380.33h17.94a.364.364,0,1,0,0-.727h-17.94a.364.364,0,0,0,0,.727" transform="translate(82.59 -286.488)" fill="#86c3d1"/>
                <line id="Línea_280" data-name="Línea 280" x1="17.94" transform="translate(385.762 101.479)" fill="#86c3d1"/>
                <path id="Trazado_678173" data-name="Trazado 678173" d="M303.172,412.945h17.94a.364.364,0,1,0,0-.727h-17.94a.364.364,0,0,0,0,.727" transform="translate(82.59 -311.103)" fill="#86c3d1"/>
                <line id="Línea_281" data-name="Línea 281" x1="4.97" transform="translate(398.853 97.297)" fill="#86c3d1"/>
                <path id="Trazado_678174" data-name="Trazado 678174" d="M302.676,395.9h4.97a.364.364,0,1,0,0-.727h-4.97a.364.364,0,0,0,0,.727" transform="translate(96.177 -298.236)" fill="#86c3d1"/>
                <line id="Línea_282" data-name="Línea 282" x1="9.334" transform="translate(385.034 97.297)" fill="#86c3d1"/>
                <path id="Trazado_678175" data-name="Trazado 678175" d="M341.222,395.9h9.334a.364.364,0,0,0,0-.727h-9.334a.364.364,0,0,0,0,.727" transform="translate(43.813 -298.236)" fill="#86c3d1"/>
                <path id="Trazado_678176" data-name="Trazado 678176" d="M153.027,301.379a5.163,5.163,0,0,1,5.387-4.083h25.308a.363.363,0,0,1,.364.363v37.446a.364.364,0,0,1-.364.364H158.413a5.114,5.114,0,0,0-2.338.531l-.02-.782a5.935,5.935,0,0,1,2.358-.477h24.945V298.023H158.413a4.392,4.392,0,0,0-4.664,3.414v34.6l-.135,3.026c-.047.061-.055.153-.134.174a.362.362,0,0,1-.409-.168.528.528,0,0,1-.049-.37Z" transform="translate(256.726 -224.371)" fill="#86c3d1"/>
                <path id="Trazado_678177" data-name="Trazado 678177" d="M1661.786,1151.469c-13.338,0-27.913-4.394-35.054-19.38-12.792-26.835,37.859-89.857,48.122-102.92l11.252,5.412c-23.215,29.568-52.938,77.437-46.335,91.294,8.66,18.163,37.393,8.767,37.68,8.672l4.6,13.7a66.137,66.137,0,0,1-20.26,3.224" transform="translate(-1606.289 -776.718)" fill="#7699d9"/>
                <path id="Trazado_678178" data-name="Trazado 678178" d="M1548.61,1140.666c-13.338,0-27.913-4.394-35.054-19.38-12.792-26.835,37.751-93.368,48.014-106.431l11.36,8.923c-23.215,29.568-52.939,77.437-46.335,91.294,8.66,18.163,37.393,8.768,37.68,8.672l4.6,13.7a66.138,66.138,0,0,1-20.259,3.224" transform="translate(-1465.35 -765.915)" fill="#7699d9"/>
                <path id="Trazado_678179" data-name="Trazado 678179" d="M1434.535,1009.118h-94.922a1.293,1.293,0,0,0-1.293,1.293v126.522a1.293,1.293,0,0,0,1.293,1.293h94.922a1.293,1.293,0,0,0,1.293-1.293V1010.411a1.293,1.293,0,0,0-1.293-1.293" transform="translate(-1285.77 -761.585)" fill="#efc266"/>
                <path id="Trazado_678180" data-name="Trazado 678180" d="M1453.69,1061.346H1379.02a2.052,2.052,0,0,1-2.052-2.052V1002.01a.253.253,0,0,1,.253-.253h78.268a.253.253,0,0,1,.253.253v57.284a2.051,2.051,0,0,1-2.052,2.052" transform="translate(-1315.164 -756.03)" fill="#6aa2e8"/>
                <path id="Trazado_678181" data-name="Trazado 678181" d="M1454.472,1308.172h-78.11a1.234,1.234,0,0,0-1.235,1.234v44.931a1.234,1.234,0,0,0,1.235,1.234h78.11a1.234,1.234,0,0,0,1.235-1.234v-44.931a1.234,1.234,0,0,0-1.235-1.234" transform="translate(-1314.677 -987.282)" fill="#6aa2e8"/>
                <rect id="Rectángulo_345239" data-name="Rectángulo 345239" width="9.931" height="46.949" transform="translate(116.765 282.97)" fill="#3e3148"/>
                <path id="Trazado_678182" data-name="Trazado 678182" d="M1440.208,1218h-13.092v10.157h13.092Zm-11.286,1.806h9.48v6.546h-9.48Z" transform="translate(-1311.931 -919.226)" fill="#6aa2e8"/>
                <rect id="Rectángulo_345240" data-name="Rectángulo 345240" width="9.931" height="46.949" transform="translate(76.738 282.97)" fill="#3e3148"/>
                <path id="Trazado_678183" data-name="Trazado 678183" d="M1603.384,1218h-13.091v10.157h13.091ZM1592.1,1219.8h9.48v6.546h-9.48Z" transform="translate(-1515.134 -919.226)" fill="#6aa2e8"/>
                <rect id="Rectángulo_345241" data-name="Rectángulo 345241" width="67.376" height="2.596" transform="translate(66.769 333.982)" fill="#4979bd"/>
                <path id="Trazado_678184" data-name="Trazado 678184" d="M1404.321,1380.408c.059.55-.334.842-.839.843l-2.716.006c-.5,0-.885-.272-.845-.812l.5-6.489,3.2-.007Zm-1.078-1.924-.372-3.506-1.685,0-.263,3.522a.473.473,0,0,0,.446.528l1.432,0a.474.474,0,0,0,.442-.544" transform="translate(-1269.38 -1036.925)" fill="#6aa2e8"/>
                <rect id="Rectángulo_345242" data-name="Rectángulo 345242" width="4.31" height="3.346" transform="translate(131.041 337.793) rotate(-90.127)" fill="#6aa2e8"/>
                <rect id="Rectángulo_345243" data-name="Rectángulo 345243" width="67.376" height="2.596" transform="translate(66.769 257.013)" fill="#4979bd"/>
                <path id="Trazado_678185" data-name="Trazado 678185" d="M1404.321,1066.631c.059.55-.334.842-.839.844l-2.716.006c-.5,0-.885-.272-.845-.812l.5-6.488,3.2-.007Zm-1.078-1.924-.372-3.506-1.685,0-.263,3.522a.473.473,0,0,0,.446.528l1.432,0a.474.474,0,0,0,.442-.545" transform="translate(-1269.38 -800.116)" fill="#7c98d6"/>
                <rect id="Rectángulo_345244" data-name="Rectángulo 345244" width="4.31" height="3.346" transform="translate(131.041 260.824) rotate(-90.127)" fill="#c8d7fa"/>
                <path id="Trazado_678197" data-name="Trazado 678197" d="M550.4,824.428a.386.386,0,0,1-.107-.047,8.137,8.137,0,0,1-2.794-10.224c1.166-2.706,2.546-4.27,4.343-4.923,2.254-.818,5.046-.207,9.636,2.105a.382.382,0,0,1-.344.682c-4.323-2.181-7.024-2.8-9.032-2.07-1.585.576-2.825,2.009-3.9,4.509a7.253,7.253,0,0,0,2.5,9.277.381.381,0,0,1-.3.691" transform="translate(-217.451 -610.472)" fill="#3c251d"/>
                <g id="Grupo_992340" data-name="Grupo 992340" transform="translate(0 -59.939)">
                  <path id="Trazado_678186" data-name="Trazado 678186" d="M202.8,623.283c1.552,5.83,6.583,9.923,10.654,14.376s7.509,10.8,5.047,16.307c-1.789,4-6.292,6.429-7.6,10.613-1,3.217.182,6.782,2.192,9.486s4.765,4.739,7.379,6.866a25.817,25.817,0,0,1,6.483,6.985c1.575,2.781,2.185,6.277.893,9.2-2.519,5.7-10.646,6.781-13.9,12.1-2.32,3.8-1.511,8.645-.626,13.006-9.08,3.061-18.966,1.1-28.481-.029-22.334-2.657-44.934-.556-67.42-1.063-5.138-.116-10.525-.442-14.9-3.135s-7.249-8.532-4.958-13.133,8.924-6.979,8.856-12.11c-.034-2.55-1.885-4.73-3.954-6.219s-4.45-2.539-6.384-4.2a13.319,13.319,0,0,1-1.642-17.762,30.536,30.536,0,0,0,2.46-3.015c2.64-4.322.013-9.786-2.149-14.367-2.055-4.354-3.708-9.029-3.66-13.844s2.043-9.81,6.029-12.511c2.051-1.39,4.485-2.1,6.626-3.348,10.785-6.279,10.316-22.844,19.583-31.2,4.343-3.917,10.387-5.515,16.235-5.558s11.6,1.328,17.293,2.69l11.256,2.7c7.215,1.727,14.552,3.5,20.941,7.273s11.806,9.9,12.868,17.245c.607,4.2-.217,8.56.873,12.657" transform="translate(227.448 -438.273)" fill="#3e3148"/>
                  <path id="Trazado_678187" data-name="Trazado 678187" d="M117.763,974.081l-.971,8.544a8.325,8.325,0,0,1-6.3,7.164c-9.131,2.234-26.7,8-36.155,17.188-16.112,15.662-18.61,104.345-18.61,104.345l161.753-.625s1.249-85.249-28.006-106.352c-10.895-7.859-26.338-13.292-33.814-15.548a6.966,6.966,0,0,1-4.9-5.858l-1.418-11.82Z" transform="translate(247.183 -732.907)" fill="#f5b8a5"/>
                  <path id="Trazado_678188" data-name="Trazado 678188" d="M208.266,1101.987l3.836,61.647-105.721.408,5.708-65.492s-11.658-8.288-19.885-11.364c2.636-12.563,6.117-22.946,10.7-27.405,9.456-9.192,27.024-14.954,36.155-17.188a8.272,8.272,0,0,0,1.928-.8l.452-.075s-5.933,12.178,7.806,15.3,33.725-15.926,33.725-15.926l.162-.007a6.843,6.843,0,0,0,1.1.514c7.476,2.256,22.919,7.688,33.814,15.549,8.828,6.367,14.864,18.591,19.01,32.535-6.233,1.365-22.758,5.516-28.788,12.3" transform="translate(218.672 -785.713)" fill="#4764b5"/>
                  <path id="Trazado_678189" data-name="Trazado 678189" d="M270.592,1123.489a61.292,61.292,0,0,0-9.85,3.169c-1.1.425-2.2.849-3.29,1.248-19.83,7.253-41.333,6.956-62.158,6.675-6.016-.084-12.233-.161-18.282-.066l-2.99.058c-10.736.229-21.825.419-31.535-3.747q.67-1.839,1.388-3.475c9.023,3.891,19.7,3.705,30.07,3.475l3-.059c6.115-.1,12.362-.011,18.4.066,20.471.289,41.636.567,60.819-6.448,1.072-.391,2.148-.8,3.227-1.222a80.374,80.374,0,0,1,8.366-2.875,38.261,38.261,0,0,1,2.834,3.2" transform="translate(172.8 -845.485)" fill="#f5dec4"/>
                  <path id="Trazado_678190" data-name="Trazado 678190" d="M292.138,1081.193a94.977,94.977,0,0,1-14.681,4.761c-6.137,1.281-12.387,1.35-18.432,1.416-6.605.051-13.459.143-20.141-1.112a101.814,101.814,0,0,1-11.538-3.092l-1.416-.439c-5.565-1.716-11.209-3.279-16.875-4.755,1.55-.924,3.158-1.8,4.8-2.611,4.42,1.2,8.829,2.444,13.183,3.787l1.423.439a99.805,99.805,0,0,0,11.113,2.99c6.327,1.185,12.983,1.109,19.413,1.046,5.866-.062,11.93-.128,17.7-1.336a92.012,92.012,0,0,0,14.1-4.593l10.691-4.13q2.293,1.065,4.571,2.254Z" transform="translate(121.01 -810.223)" fill="#f5dec4"/>
                  <path id="Trazado_678191" data-name="Trazado 678191" d="M196.725,1476.428c18.656,3.641,38.176,3.008,57.126,2.38,4.216-.143,8.424-.285,12.617-.38,11.195-.247,22.47-.136,33.729.265l.234,3.753c-11.305-.412-22.63-.529-33.875-.271-4.183.095-8.38.238-12.581.377-19.033.635-38.644,1.277-57.579-2.355Z" transform="translate(129.737 -1114.266)" fill="#f5dec4"/>
                  <path id="Trazado_678192" data-name="Trazado 678192" d="M137.108,1213.742c7.853,1.087,15.991,1.017,24.064.952,8.955-.077,18.216-.154,27.277-.747a239.783,239.783,0,0,0,51.033-8.978c.437,1.167.87,2.339,1.275,3.544a243.633,243.633,0,0,1-52.067,9.174c-9.167.6-18.48.677-27.683.754-8,.051-16.288.132-24.412-.988-8.032-1.105-15.918-3.37-23.544-5.562-4.991-1.434-10.083-2.858-15.223-3.992q.419-1.866.863-3.65c5.218,1.153,10.359,2.591,15.4,4.038,7.5,2.159,15.256,4.388,23.021,5.456" transform="translate(213.59 -908.85)" fill="#f5dec4"/>
                  <path id="Trazado_678193" data-name="Trazado 678193" d="M249.948,1394.027c-5.657-.509-11.384-1.2-16.921-1.859a315.81,315.81,0,0,0-31.894-2.6l.326-3.743a316.614,316.614,0,0,1,32.014,2.624c5.511.662,11.209,1.343,16.811,1.848,17.121,1.541,34.551,1.51,51.549,1.363l.233,3.745c-17.151.155-34.75.188-52.119-1.376" transform="translate(126.94 -1045.885)" fill="#f5dec4"/>
                  <path id="Trazado_678194" data-name="Trazado 678194" d="M303.4,1317.677l.233,3.745a409.364,409.364,0,0,1-98.274-7.8l.327-3.747a401.315,401.315,0,0,0,97.714,7.8" transform="translate(124.337 -988.566)" fill="#f5dec4"/>
                  <path id="Trazado_678195" data-name="Trazado 678195" d="M314.494,943.816c0-1.1.763-7.545.658-9.65l3.229-10.077,31.259-3.677,1.985,4.754c-5.165,8.838-21.445,22.055-37.131,18.65" transform="translate(49.574 -694.638)" fill="#3c251d"/>
                  <path id="Trazado_678196" data-name="Trazado 678196" d="M542.825,794.769s-8.582-12.016-17.637-10.273-13.094,20.059-4.434,25.092,20.851-.46,20.851-.46Z" transform="translate(-191.045 -591.932)" fill="#ea9686"/>
                  <path id="Trazado_678198" data-name="Trazado 678198" d="M305.231,666.316c5.043-14.507,11.678-40.492-20.16-51.988-25.659-9.265-58.675,4.392-57.969,33.544s-7,30.1,2.587,45.063c6.954,10.848,33.791,17.389,52.141,7.4s23.4-34.022,23.4-34.022" transform="translate(113.709 -461.467)" fill="#f5b8a5"/>
                  <path id="Trazado_678199" data-name="Trazado 678199" d="M463.129,844.795a.286.286,0,0,0,.187-.514,6.007,6.007,0,0,1-2.04-4.882c.064-1.183.678-1.871,1.607-2.914a21.478,21.478,0,0,0,2.25-2.89.286.286,0,1,0-.481-.308,21.043,21.043,0,0,1-2.2,2.818c-.973,1.092-1.676,1.881-1.751,3.263a6.517,6.517,0,0,0,2.268,5.371.285.285,0,0,0,.156.057" transform="translate(-99.842 -628.784)" fill="#3c251d"/>
                  <path id="Trazado_678200" data-name="Trazado 678200" d="M379.6,816.273c.126-2.312.989-4.146,1.927-4.095s1.6,1.967,1.471,4.28-.989,4.146-1.927,4.095-1.6-1.967-1.471-4.28" transform="translate(2.218 -612.953)" fill="#3c251d"/>
                  <path id="Trazado_678201" data-name="Trazado 678201" d="M508.292,802.444c.126-2.312.989-4.146,1.927-4.095s1.6,1.967,1.471,4.28-.989,4.146-1.927,4.095-1.6-1.967-1.471-4.28" transform="translate(-158.04 -602.516)" fill="#3c251d"/>
                  <path id="Trazado_678202" data-name="Trazado 678202" d="M362.345,783.234a1.238,1.238,0,0,0,1.209-1.805c-.1-.189-2.589-4.679-11.661-4.627a1.243,1.243,0,0,0,.02,2.485c7.482-.078,9.376,3.18,9.451,3.318a1.264,1.264,0,0,0,.981.629" transform="translate(28.631 -586.256)" fill="#3e3148"/>
                  <path id="Trazado_678203" data-name="Trazado 678203" d="M480.937,772.369a1.246,1.246,0,0,1-.667-.269,1.233,1.233,0,0,1-.2-1.723c.132-.168,3.381-4.142,12.3-2.475a1.243,1.243,0,0,1-.463,2.442c-7.348-1.41-9.793,1.458-9.891,1.581a1.264,1.264,0,0,1-1.077.444" transform="translate(-132.731 -579.23)" fill="#3e3148"/>
                  <path id="Trazado_678204" data-name="Trazado 678204" d="M368.86,888.13a6.405,6.405,0,0,0,.635.179c3.067.7,6.262-.045,9.254-.755,4.351-1.032,8.923-2.172,12.16-5.257a9.594,9.594,0,0,0,2.55-3.847,6.472,6.472,0,0,0-.1-4.558,8.527,8.527,0,0,0-4.3-3.924,6.814,6.814,0,0,0-4.835-.452,13.739,13.739,0,0,0-3.973,2.515,18.8,18.8,0,0,1-7.383,3.572c-2.485.524-5.458-.111-7.548,1.659a5.123,5.123,0,0,0-1.331,5.418,8.04,8.04,0,0,0,4.876,5.449" transform="translate(-4.701 -656.031)" fill="#fff"/>
                  <path id="Trazado_678205" data-name="Trazado 678205" d="M196.9,1324.725h.046a.6.6,0,0,0,.543-.635l-5.463-69.613a.649.649,0,0,0-.635-.543.6.6,0,0,0-.543.635l5.463,69.614a.594.594,0,0,0,.589.543" transform="translate(234.038 -946.348)" fill="#3c251d"/>
                  <path id="Trazado_678206" data-name="Trazado 678206" d="M215.666,1266.2a.6.6,0,0,0,.345-.11.594.594,0,0,0,.133-.823l-2.851-3.95a.587.587,0,0,0-.823-.133.594.594,0,0,0-.134.823l2.851,3.95a.583.583,0,0,0,.478.244" transform="translate(210.03 -951.736)" fill="#3c251d"/>
                  <path id="Trazado_678207" data-name="Trazado 678207" d="M594.572,1303.389a.59.59,0,0,0,.589-.538l6.654-77.79a.593.593,0,0,0-.538-.639.584.584,0,0,0-.639.538l-6.654,77.79a.593.593,0,0,0,.538.639Z" transform="translate(-269.175 -924.074)" fill="#3c251d"/>
                  <path id="Trazado_678208" data-name="Trazado 678208" d="M599.7,1238.69a.559.559,0,0,0,.17-.027.582.582,0,0,0,.391-.731l-1.536-5.044a.586.586,0,0,0-1.122.34l1.536,5.045a.585.585,0,0,0,.561.418" transform="translate(-268.527 -930.147)" fill="#3c251d"/>
                  <path id="Trazado_678209" data-name="Trazado 678209" d="M285.132,655.278s-14.286-13.236-19.673-41.262c0,0-8.665,12.185-24.591,10.723,0,0,12.647-4.387,13.349-12.672,0,0-21.78,17.059-36.535,19.5,0,0-3.981-25.1,18.5-35.825a44.854,44.854,0,0,1,40.985.731s-1.405-4.143-3.279-5.362c0,0,4.684,1.706,5.152,5.605a13.673,13.673,0,0,1,6.324-.731s-2.108,0-2.576,1.706c0,0,30.446,17.547,14.989,49.229l-6.089,10.235Z" transform="translate(122.858 -446.111)" fill="#3e3148"/>
                  <path id="Trazado_678210" data-name="Trazado 678210" d="M186.808,823.638s10.586-10.294,19.186-6.966,9.31,22.071-.108,25.481-20.435-4.168-20.435-4.168Z" transform="translate(220.155 -615.846)" fill="#ea9686"/>
                  <path id="Trazado_678211" data-name="Trazado 678211" d="M212.187,856.047a.382.382,0,0,0,.114-.027,8.138,8.138,0,0,0,4.571-9.563c-.665-2.87-1.744-4.655-3.4-5.618-2.072-1.206-4.928-1.1-9.857.355a.382.382,0,0,0,.217.732c4.643-1.376,7.41-1.5,9.256-.428,1.457.849,2.422,2.48,3.037,5.132a7.253,7.253,0,0,1-4.114,8.683.381.381,0,0,0,.172.734" transform="translate(211.321 -633.959)" fill="#3c251d"/>
                  <path id="Trazado_678387" data-name="Trazado 678387" d="M208.3,856.048a.382.382,0,0,1-.114-.027,8.138,8.138,0,0,1-4.571-9.563c.665-2.87,1.744-4.655,3.4-5.618,2.073-1.206,4.929-1.1,9.857.355a.382.382,0,0,1-.217.732c-4.643-1.376-7.41-1.5-9.256-.428-1.457.849-2.422,2.48-3.037,5.132a7.253,7.253,0,0,0,4.114,8.683.381.381,0,0,1-.172.734" transform="translate(123.125 -642.032)" fill="#3c251d"/>
                  <path id="Trazado_678212" data-name="Trazado 678212" d="M260.738,914.155a2.529,2.529,0,1,0-2.529,2.529,2.529,2.529,0,0,0,2.529-2.529" transform="translate(154.888 -688.007)" fill="#eebd63"/>
                  <path id="Trazado_678213" data-name="Trazado 678213" d="M577.22,887.98a2.529,2.529,0,1,0-2.53,2.529,2.529,2.529,0,0,0,2.53-2.529" transform="translate(-239.226 -668.253)" fill="#eebd63"/>
                </g>
                <g id="Grupo_992330" data-name="Grupo 992330" transform="translate(138.392 153.062)" opacity="0.37">
                  <g id="Grupo_992329" data-name="Grupo 992329">
                    <g id="Grupo_992328" data-name="Grupo 992328" clip-path="url(#clip-path-5)">
                      <path id="Trazado_678214" data-name="Trazado 678214" d="M846.359,623.99H716.014a12.129,12.129,0,0,0-12.13,12.13v13.708l-16.8,9.122,16.8,11.149v16.345a12.129,12.129,0,0,0,12.13,12.13H846.359a12.133,12.133,0,0,0,12.135-12.13V636.12a12.133,12.133,0,0,0-12.135-12.13" transform="translate(-687.08 -623.99)" fill="#3b3348"/>
                    </g>
                  </g>
                </g>
                <path id="Trazado_678215" data-name="Trazado 678215" d="M835.589,612.025H705.245a12.129,12.129,0,0,0-12.131,12.13v13.708l-16.8,9.122,16.8,11.149V674.48a12.129,12.129,0,0,0,12.131,12.13H835.589a12.133,12.133,0,0,0,12.135-12.13V624.155a12.133,12.133,0,0,0-12.135-12.13" transform="translate(-535.278 -461.898)" fill="#fff"/>
                <path id="Trazado_678216" data-name="Trazado 678216" d="M731.023,659.534h45.7a.071.071,0,0,1,.07.07v6.075a.071.071,0,0,1-.07.071h-45.7a.071.071,0,0,1-.07-.071V659.6a.071.071,0,0,1,.07-.07" transform="translate(-477.749 -497.753)" fill="#4979bd"/>
                <path id="Trazado_678217" data-name="Trazado 678217" d="M733.375,775.142h54.487a.046.046,0,0,1,.046.046v3.986a.046.046,0,0,1-.046.046H733.375a.047.047,0,0,1-.046-.046v-3.986a.046.046,0,0,1,.046-.046" transform="translate(-489.449 -585.003)" fill="#6aa2e8"/>
                <path id="Trazado_678218" data-name="Trazado 678218" d="M733.375,827.4h54.487a.046.046,0,0,1,.046.046v3.987a.046.046,0,0,1-.046.046H733.375a.046.046,0,0,1-.046-.046v-3.987a.046.046,0,0,1,.046-.046" transform="translate(-489.449 -624.444)" fill="#6aa2e8"/>
                <path id="Trazado_678219" data-name="Trazado 678219" d="M994.679,775.142h54.487a.046.046,0,0,1,.046.046v3.986a.046.046,0,0,1-.046.046H994.679a.046.046,0,0,1-.046-.046v-3.986a.046.046,0,0,1,.046-.046" transform="translate(-814.849 -585.003)" fill="#6aa2e8"/>
                <path id="Trazado_678220" data-name="Trazado 678220" d="M733.374,729.215H859.145a.046.046,0,0,1,.046.046v3.987a.046.046,0,0,1-.046.046H733.374a.046.046,0,0,1-.046-.046v-3.987a.046.046,0,0,1,.046-.046" transform="translate(-560.731 -550.341)" fill="#6aa2e8"/>
                <path id="Trazado_678221" data-name="Trazado 678221" d="M11.987-24.172,19.151-1.844l7.141-22.328H36.476V7.921H28.717V.427l.749-15.341L21.708,7.921H16.594L8.813-14.936,9.563.427V7.921H1.826V-24.172Zm42.5,32.093a8.387,8.387,0,0,1-.705-2.138,6.907,6.907,0,0,1-5.731,2.579,8.462,8.462,0,0,1-5.731-2.039A6.49,6.49,0,0,1,39.958,1.2a6.67,6.67,0,0,1,2.865-5.863q2.865-1.984,8.332-1.984h2.292V-7.911q0-3.3-2.843-3.3A2.324,2.324,0,0,0,47.959-8.6H40.531a6.659,6.659,0,0,1,2.943-5.614,12.366,12.366,0,0,1,7.505-2.157,10.842,10.842,0,0,1,7.208,2.226A7.74,7.74,0,0,1,60.9-8.037V2.52a10.812,10.812,0,0,0,1.014,5.025v.375ZM49.833,3.071a4.143,4.143,0,0,0,2.3-.6,3.73,3.73,0,0,0,1.311-1.345V-2.681h-2.16q-3.879,0-3.879,3.483a2.126,2.126,0,0,0,.683,1.642A2.473,2.473,0,0,0,49.833,3.071Z" transform="translate(70.998 152.14)" fill="#0f58b9"/>
                <path id="Trazado_678119" data-name="Trazado 678119" d="M5.166,1541.378H501.095a4.849,4.849,0,1,0,0-9.677H5.166a4.849,4.849,0,1,0,0,9.677" transform="translate(4.18 -1215.98)" fill="#3e3148"/>
              </g>
            </g>
          </g>
        </g>
      </g>
    </g>
  </g>
</svg>
