<svg xmlns="http://www.w3.org/2000/svg" xmlns:xlink="http://www.w3.org/1999/xlink" width="70.707" height="42.651" viewBox="0 0 70.707 42.651">
  <defs>
    <filter id="Trazado_679814" x="2.978" y="0" width="62.083" height="36.566" filterUnits="userSpaceOnUse">
      <feOffset dy="3" input="SourceAlpha"/>
      <feGaussianBlur stdDeviation="3" result="blur"/>
      <feFlood flood-opacity="0.161"/>
      <feComposite operator="in" in2="blur"/>
      <feComposite in="SourceGraphic"/>
    </filter>
  </defs>
  <g id="Grupo_996297" data-name="Grupo 996297" transform="translate(11603.429 12384.515)">
    <g id="Grupo_994839" data-name="Grupo 994839" transform="translate(-5.517 -3.133)">
      <path id="Trazado_679812" data-name="Trazado 679812" d="M1264.937,1959.447v10.221h-.039a8.538,8.538,0,0,1-1.7,4.14,14.715,14.715,0,0,1-2.19,2.31,21.816,21.816,0,0,1-2.15,1.59c-.68.45-1.41.87-2.19,1.28-.68.36-1.39.7-2.14,1.03-.7.31-1.43.61-2.19.88-.69.26-1.41.51-2.15.75q-1.065.33-2.189.63c-.7.2-1.411.37-2.141.54s-1.45.32-2.19.46c-.71.14-1.42.26-2.15.37s-1.45.23-2.19.32c-.7.09-1.41.17-2.14.24s-1.45.13-2.19.18c-.71.051-1.43.091-2.151.11s-1.45.05-2.19.06c-.35.01-.71.01-1.07.01s-.72,0-1.07-.01q-1.11-.015-2.19-.06c-.72-.02-1.44-.06-2.15-.11-.73-.05-1.46-.11-2.18-.18s-1.45-.15-2.15-.24c-.74-.09-1.47-.2-2.19-.32s-1.44-.23-2.15-.37c-.74-.14-1.47-.29-2.181-.45-.73-.17-1.45-.35-2.15-.55q-1.125-.3-2.19-.63c-.74-.24-1.46-.49-2.15-.75-.75-.27-1.48-.57-2.18-.87-.75-.34-1.47-.68-2.15-1.04q-1.17-.616-2.19-1.29a19.192,19.192,0,0,1-2.14-1.58,14.648,14.648,0,0,1-2.19-2.3,8.489,8.489,0,0,1-1.71-4.15h-.04v-10.221h4.34c6.011-4.84,17.642-8.121,31.013-8.121s25.012,3.281,31.012,8.121Z" transform="translate(-12792.145 -14323.3)" fill="#815acd"/>
      <path id="Trazado_679813" data-name="Trazado 679813" d="M1264.943,1935.28c0,8.63-15.828,15.625-35.353,15.625s-35.353-7-35.353-15.625,15.828-15.625,35.353-15.625,35.353,7,35.353,15.625" transform="translate(-12792.148 -14298.54)" fill="#b590ff"/>
      <g transform="matrix(1, 0, 0, 1, -11597.91, -12381.38)" filter="url(#Trazado_679814)">
        <path id="Trazado_679814-2" data-name="Trazado 679814" d="M1268.471,1935.709l-19.349,12,38.026,6.565,6.057-3.029-31.128-6.254,13.293-7.873Z" transform="translate(-1237.14 -1929.71)" fill="#fff"/>
      </g>
    </g>
  </g>
</svg>
