<svg xmlns="http://www.w3.org/2000/svg" xmlns:xlink="http://www.w3.org/1999/xlink" width="400" height="768" viewBox="0 0 400 768">
  <defs>
    <clipPath id="clip-path">
      <rect id="Rectángulo_344970" data-name="Rectángulo 344970" width="400" height="768" rx="12" transform="translate(1020 1038)" fill="#0f58b9" opacity="0.46"/>
    </clipPath>
    <clipPath id="clip-path-2">
      <rect id="Rectángulo_344902" data-name="Rectángulo 344902" width="383.708" height="370.156" fill="none"/>
    </clipPath>
    <clipPath id="clip-path-3">
      <rect id="Rectángulo_344901" data-name="Rectángulo 344901" width="383.708" height="335.439" fill="#6594d2"/>
    </clipPath>
    <clipPath id="clip-path-4">
      <rect id="Rectángulo_344906" data-name="Rectángulo 344906" width="400" height="772.873" transform="translate(0 -387)" fill="none"/>
    </clipPath>
    <clipPath id="clip-path-5">
      <rect id="Rectángulo_344905" data-name="Rectángulo 344905" width="361.049" height="712.496" fill="none"/>
    </clipPath>
    <clipPath id="clip-path-6">
      <rect id="Rectángulo_344924" data-name="Rectángulo 344924" width="455.018" height="438.948" fill="none"/>
    </clipPath>
    <clipPath id="clip-path-7">
      <rect id="Rectángulo_338168" data-name="Rectángulo 338168" width="452.874" height="282.852" fill="none"/>
    </clipPath>
    <clipPath id="clip-path-8">
      <rect id="Rectángulo_344910" data-name="Rectángulo 344910" width="485.286" height="468.147" fill="none"/>
    </clipPath>
    <clipPath id="clip-path-9">
      <rect id="Rectángulo_344907" data-name="Rectángulo 344907" width="11.921" height="9.654" fill="none"/>
    </clipPath>
    <clipPath id="clip-path-10">
      <rect id="Rectángulo_344908" data-name="Rectángulo 344908" width="8.314" height="13.312" fill="none"/>
    </clipPath>
    <clipPath id="clip-path-11">
      <rect id="Rectángulo_344909" data-name="Rectángulo 344909" width="75.816" height="92.227" fill="none"/>
    </clipPath>
    <clipPath id="clip-path-13">
      <rect id="Rectángulo_344950" data-name="Rectángulo 344950" width="194.549" height="144.967" fill="none"/>
    </clipPath>
    <clipPath id="clip-path-16">
      <rect id="Rectángulo_344968" data-name="Rectángulo 344968" width="277.341" height="224.719" fill="none"/>
    </clipPath>
    <clipPath id="clip-path-17">
      <rect id="Rectángulo_344960" data-name="Rectángulo 344960" width="209.063" height="150.99" transform="translate(1.577 13.614)" fill="none"/>
    </clipPath>
    <clipPath id="clip-path-18">
      <rect id="Rectángulo_344957" data-name="Rectángulo 344957" width="4.853" height="153.427" transform="translate(206.81 12.319)" fill="none"/>
    </clipPath>
    <clipPath id="clip-path-19">
      <rect id="Rectángulo_344959" data-name="Rectángulo 344959" width="4.853" height="59.416" transform="translate(206.81 105.085)" fill="none"/>
    </clipPath>
    <clipPath id="clip-path-22">
      <rect id="Rectángulo_344965" data-name="Rectángulo 344965" width="104.962" height="2.581" transform="translate(94.586 25.122)" fill="none"/>
    </clipPath>
    <clipPath id="clip-path-23">
      <rect id="Rectángulo_344967" data-name="Rectángulo 344967" width="277.341" height="227.719" fill="none"/>
    </clipPath>
  </defs>
  <g id="Enmascarar_grupo_991934" data-name="Enmascarar grupo 991934" transform="translate(-1020 -1038)" clip-path="url(#clip-path)">
    <rect id="Rectángulo_344945" data-name="Rectángulo 344945" width="400" height="768" rx="12" transform="translate(1020 1038)" fill="#0f58b9" opacity="0.46"/>
    <g id="Grupo_991905" data-name="Grupo 991905" transform="translate(0 -587.45)">
      <g id="Grupo_991853" data-name="Grupo 991853" transform="translate(1020 2007.577)">
        <g id="Grupo_991852" data-name="Grupo 991852" transform="translate(8.146 7.858)" clip-path="url(#clip-path-2)">
          <path id="Trazado_668270" data-name="Trazado 668270" d="M327.921,62.58c-7.213-12.27-17.3-22.314-30.059-30.5C255.379,4.8,197.645-5.024,148.014,2.389c-35.454,5.295-59.091,29.4-74.212,60.8C55.935,100.3,39.715,137.214,19.376,173.25c-23.349,41.367-33.815,84.355,16.908,120.044,43.9,30.885,98.94,22.873,149.256,21.883,16.675-.328,33.469.225,49.879,3.452,32.6,6.412,64.277,29.2,96.343,7.92,24.375-16.178,38.733-46.748,45.689-74.44,4.146-16.505,7.405-34.715,5.871-52.232-1.681-19.191-10.534-33.641-19.64-49.985A291.2,291.2,0,0,1,337.1,84.616a89.574,89.574,0,0,0-9.175-22.035" transform="translate(0 0)" fill="#abc4e7"/>
        </g>
      </g>
      <g id="Grupo_991858" data-name="Grupo 991858" transform="translate(1020 2007.577)">
        <g id="Grupo_991857" data-name="Grupo 991857" clip-path="url(#clip-path-4)">
          <g id="Grupo_991856" data-name="Grupo 991856" transform="translate(18.235 7.535)" opacity="0.3">
            <g id="Grupo_991855" data-name="Grupo 991855" transform="translate(0 -155.534)">
              <g id="Grupo_991854" data-name="Grupo 991854" transform="translate(0 -242.261)" clip-path="url(#clip-path-5)">
                <rect id="Rectángulo_344903" data-name="Rectángulo 344903" width="5.116" height="709.778" transform="translate(170.292 1.111)" fill="#263238"/>
                <rect id="Rectángulo_344904" data-name="Rectángulo 344904" width="5.116" height="709.778" transform="translate(170.292 1.111)" fill="none" stroke="#000" stroke-linecap="round" stroke-linejoin="round" stroke-width="1"/>
                <line id="Línea_201" data-name="Línea 201" x2="360.203" transform="translate(0.423 107.987)" fill="none" stroke="#000" stroke-linecap="round" stroke-linejoin="round" stroke-width="1"/>
                <line id="Línea_202" data-name="Línea 202" x2="360.203" transform="translate(0.423 230.447)" fill="none" stroke="#000" stroke-linecap="round" stroke-linejoin="round" stroke-width="1"/>
                <line id="Línea_203" data-name="Línea 203" x2="360.203" transform="translate(0.423 352.908)" fill="none" stroke="#000" stroke-linecap="round" stroke-linejoin="round" stroke-width="1"/>
                <line id="Línea_204" data-name="Línea 204" x2="360.203" transform="translate(0.423 475.368)" fill="none" stroke="#000" stroke-linecap="round" stroke-linejoin="round" stroke-width="1"/>
                <line id="Línea_205" data-name="Línea 205" x2="360.203" transform="translate(0.423 597.829)" fill="none" stroke="#000" stroke-linecap="round" stroke-linejoin="round" stroke-width="1"/>
                <path id="Trazado_668418" data-name="Trazado 668418" d="M0,0V603.633" transform="translate(123.219 107.75)" fill="none" stroke="#000" stroke-linecap="round" stroke-width="1"/>
                <line id="Línea_207" data-name="Línea 207" y2="703.591" transform="translate(71.031 7.792)" fill="none" stroke="#000" stroke-linecap="round" stroke-linejoin="round" stroke-width="1"/>
                <line id="Línea_208" data-name="Línea 208" y2="703.591" transform="translate(18.842 7.792)" fill="none" stroke="#000" stroke-linecap="round" stroke-linejoin="round" stroke-width="1"/>
                <line id="Línea_209" data-name="Línea 209" y2="703.591" transform="translate(328.904 7.792)" fill="none" stroke="#000" stroke-linecap="round" stroke-linejoin="round" stroke-width="1"/>
                <line id="Línea_210" data-name="Línea 210" y2="703.591" transform="translate(276.715 7.792)" fill="none" stroke="#000" stroke-linecap="round" stroke-linejoin="round" stroke-width="1"/>
                <line id="Línea_211" data-name="Línea 211" y2="703.591" transform="translate(224.527 7.792)" fill="none" stroke="#000" stroke-linecap="round" stroke-linejoin="round" stroke-width="1"/>
                <line id="Línea_212" data-name="Línea 212" x2="360.203" transform="translate(0.423 711.383)" fill="none" stroke="#000" stroke-linecap="round" stroke-linejoin="round" stroke-width="1"/>
                <rect id="Rectángulo_344969" data-name="Rectángulo 344969" width="37" height="29" transform="translate(108.765 280.134)" fill="#90b2df"/>
                <rect id="Rectángulo_344972" data-name="Rectángulo 344972" width="37" height="40" transform="translate(108.765 319.134)" fill="#90b2df"/>
              </g>
            </g>
          </g>
        </g>
      </g>
      <g id="Grupo_991900" data-name="Grupo 991900" transform="translate(-28.595 -60.934)">
        <rect id="Rectángulo_344916" data-name="Rectángulo 344916" width="333.762" height="238.539" transform="translate(1090.527 2037.969)" fill="#263238"/>
        <rect id="Rectángulo_344917" data-name="Rectángulo 344917" width="333.762" height="238.539" transform="translate(1090.527 2037.969)" fill="none" stroke="#263238" stroke-miterlimit="10" stroke-width="1"/>
        <rect id="Rectángulo_344918" data-name="Rectángulo 344918" width="333.762" height="238.539" transform="translate(1086.267 2030.757)" fill="#fff"/>
        <rect id="Rectángulo_344919" data-name="Rectángulo 344919" width="333.762" height="238.539" transform="translate(1086.267 2030.757)" fill="none" stroke="#263238" stroke-miterlimit="10" stroke-width="1"/>
        <rect id="Rectángulo_344920" data-name="Rectángulo 344920" width="333.762" height="30.779" transform="translate(1086.267 2030.757)" fill="#adadad"/>
        <rect id="Rectángulo_344921" data-name="Rectángulo 344921" width="333.762" height="30.779" transform="translate(1086.267 2030.757)" fill="none" stroke="#263238" stroke-miterlimit="10" stroke-width="1"/>
        <path id="Trazado_668337" data-name="Trazado 668337" d="M33.617,0H0V30.779H33.617Z" transform="translate(1086.266 2030.757)" fill="#0f58b9"/>
        <rect id="Rectángulo_344923" data-name="Rectángulo 344923" width="33.617" height="30.779" transform="translate(1086.266 2030.757)" fill="none" stroke="#263238" stroke-miterlimit="10" stroke-width="1"/>
        <g id="Grupo_991873" data-name="Grupo 991873" transform="translate(1022.172 2007.577)">
          <g id="Grupo_991872" data-name="Grupo 991872" clip-path="url(#clip-path-6)">
            <path id="Trazado_668308" data-name="Trazado 668308" d="M392.535,42.048a3.229,3.229,0,1,0-3.229,3.229,3.229,3.229,0,0,0,3.229-3.229" transform="translate(-14.729 -1.481)" fill="#263238"/>
            <path id="Trazado_668309" data-name="Trazado 668309" d="M371.555,42.048a3.229,3.229,0,1,0-3.229,3.229,3.229,3.229,0,0,0,3.229-3.229" transform="translate(-13.929 -1.481)" fill="#263238"/>
            <path id="Trazado_668310" data-name="Trazado 668310" d="M350.575,42.048a3.229,3.229,0,1,0-3.229,3.229,3.229,3.229,0,0,0,3.229-3.229" transform="translate(-13.128 -1.481)" fill="#263238"/>
          </g>
        </g>
        <g id="Grupo_991881" data-name="Grupo 991881" transform="translate(1004.206 2050.853)">
          <g id="Grupo_970157" data-name="Grupo 970157" transform="translate(0 0)" clip-path="url(#clip-path-7)">
            <path id="Trazado_636855" data-name="Trazado 636855" d="M149.254,213.4c0-1.327.063-70.323.159-177.425l-.159.159,228,.033h.019l-.193-.193c.007,63.953.014,124.443.02,177.425l.173-.174-228.016.174,228.016.174h.174V213.4c.006-52.982.013-113.472.02-177.425v-.193h-.213l-228,.033h-.16v.159c.1,107.1.158,176.1.16,177.425" transform="translate(-35.193 -9.239)" fill="#263238"/>
            <path id="Trazado_636856" data-name="Trazado 636856" d="M233.8,225.15c.107,0,.193-19.286.193-43.073S233.911,139,233.8,139s-.193,19.283-.193,43.076.086,43.073.193,43.073" transform="translate(45.576 -35.885)" fill="#263238"/>
            <path id="Trazado_636857" data-name="Trazado 636857" d="M367.194,225.15c.107,0,.193-19.286.193-43.073S367.3,139,367.194,139,367,158.284,367,182.077s.086,43.073.193,43.073" transform="translate(-186.768 -35.885)" fill="#263238"/>
            <path id="Trazado_636858" data-name="Trazado 636858" d="M279.342,216.8c.107,0,.193-24.656.193-55.064s-.086-55.07-.193-55.07-.193,24.651-.193,55.07.086,55.064.193,55.064" transform="translate(-33.744 -27.538)" fill="#263238"/>
            <path id="Trazado_636859" data-name="Trazado 636859" d="M187.034,216.8c.107,0,.193-24.656.193-55.064s-.086-55.07-.193-55.07-.193,24.651-.193,55.07.086,55.064.193,55.064" transform="translate(127.042 -27.538)" fill="#263238"/>
            <path id="Trazado_636860" data-name="Trazado 636860" d="M419.551,216.8c.107,0,.193-24.656.193-55.064s-.086-55.07-.193-55.07-.193,24.651-.193,55.07.086,55.064.193,55.064" transform="translate(-277.965 -27.538)" fill="#263238"/>
            <path id="Trazado_636861" data-name="Trazado 636861" d="M319.275,210.876c.107,0,.193-28.469.193-63.579s-.086-63.585-.193-63.585-.193,28.463-.193,63.585.086,63.579.193,63.579" transform="translate(-103.301 -21.611)" fill="#263238"/>
            <path id="Trazado_636862" data-name="Trazado 636862" d="M232.781,138.72a.808.808,0,1,0,.808-.808.808.808,0,0,0-.808.808" transform="translate(45.791 -35.604)" fill="#263238"/>
            <path id="Trazado_636863" data-name="Trazado 636863" d="M278.32,106.389a.808.808,0,1,0,.808-.808.808.808,0,0,0-.808.808" transform="translate(-33.531 -27.257)" fill="#263238"/>
            <path id="Trazado_636864" data-name="Trazado 636864" d="M278.423,108.517a2.834,2.834,0,1,0-2.835-2.834,2.838,2.838,0,0,0,2.835,2.834m0-5.483a2.649,2.649,0,1,1-2.649,2.649,2.652,2.652,0,0,1,2.649-2.649" transform="translate(-32.824 -26.552)" fill="#263238"/>
            <path id="Trazado_636865" data-name="Trazado 636865" d="M318.252,83.431a.808.808,0,1,0,.808-.808.808.808,0,0,0-.808.808" transform="translate(-103.086 -21.33)" fill="#263238"/>
            <path id="Trazado_636866" data-name="Trazado 636866" d="M366.172,139.81a.808.808,0,1,0,.808-.808.808.808,0,0,0-.808.808" transform="translate(-186.554 -35.885)" fill="#263238"/>
            <path id="Trazado_636867" data-name="Trazado 636867" d="M418.554,106.389a.808.808,0,1,0,.808-.808.808.808,0,0,0-.808.808" transform="translate(-277.795 -27.257)" fill="#263238"/>
            <path id="Trazado_636868" data-name="Trazado 636868" d="M186.011,107.478a.808.808,0,1,0,.808-.808.808.808,0,0,0-.808.808" transform="translate(127.257 -27.538)" fill="#263238"/>
            <path id="Trazado_636869" data-name="Trazado 636869" d="M166.755,152.024a2.856,2.856,0,0,0,.637.206,13.631,13.631,0,0,1,1.834.628,17.67,17.67,0,0,1,5.888,4.469c2.2,2.387,4.412,5.713,7.183,9.449a45.744,45.744,0,0,0,4.881,5.665,27.038,27.038,0,0,0,3.169,2.62,22,22,0,0,0,3.816,2.087,21.519,21.519,0,0,0,9.143,1.538,24.57,24.57,0,0,0,4.918-.616,12.828,12.828,0,0,0,4.76-2.095A15.429,15.429,0,0,0,216.7,172.1c1.026-1.485,1.947-3.056,2.838-4.655,1.775-3.212,3.619-6.447,5.717-9.692,2.059-3.29,3.967-6.757,6.1-10.166a48.671,48.671,0,0,1,7.467-9.633,21.694,21.694,0,0,1,5.015-3.592,16.645,16.645,0,0,1,5.958-1.745,21.188,21.188,0,0,1,6.34.358,21.409,21.409,0,0,1,6.016,2.283,31.319,31.319,0,0,1,9.407,8.772,97.287,97.287,0,0,1,6.722,10.811,110.309,110.309,0,0,0,6.513,10.576,52,52,0,0,0,7.885,8.99c.749.632,1.486,1.27,2.288,1.82a26.318,26.318,0,0,0,2.423,1.584,21.059,21.059,0,0,0,5.254,2.161,17.406,17.406,0,0,0,2.746.512,9.433,9.433,0,0,0,1.379.081c.459,0,.917.035,1.372.017a20.857,20.857,0,0,0,5.261-.976,35.627,35.627,0,0,0,8.893-4.646c2.641-1.818,5.056-3.7,7.417-5.4a39.538,39.538,0,0,1,7.043-4.267,23.277,23.277,0,0,1,7.011-1.992,17.262,17.262,0,0,1,6.3.407,10.484,10.484,0,0,1,1.363.438,8.735,8.735,0,0,1,1.273.5,16.361,16.361,0,0,1,2.225,1.234,23.768,23.768,0,0,1,3.349,2.679l1.165,1.277a10.7,10.7,0,0,1,.935,1.086l1.179,1.553a2.9,2.9,0,0,0,.436.509,2.814,2.814,0,0,0-.338-.575l-1.093-1.63a10.2,10.2,0,0,0-.9-1.133l-1.139-1.329a23.173,23.173,0,0,0-3.346-2.815,16.454,16.454,0,0,0-2.262-1.313,8.991,8.991,0,0,0-1.3-.542,10.743,10.743,0,0,0-1.4-.477,17.718,17.718,0,0,0-6.513-.519,23.819,23.819,0,0,0-7.243,1.962,40.018,40.018,0,0,0-7.22,4.274c-2.392,1.691-4.82,3.55-7.443,5.327a34.9,34.9,0,0,1-8.683,4.471,19.939,19.939,0,0,1-5.009.9c-.431.014-.864-.019-1.3-.025a8.826,8.826,0,0,1-1.3-.082,16.509,16.509,0,0,1-2.6-.5,23.62,23.62,0,0,1-9.519-5.382,51.149,51.149,0,0,1-7.685-8.826,110.065,110.065,0,0,1-6.427-10.491,97.651,97.651,0,0,0-6.789-10.946,32.37,32.37,0,0,0-9.76-9.091,22.083,22.083,0,0,0-13.044-2.781,17.8,17.8,0,0,0-6.36,1.87,22.808,22.808,0,0,0-5.276,3.788A49.551,49.551,0,0,0,230.413,147c-2.142,3.45-4.04,6.924-6.064,10.186-2.082,3.246-3.954,6.562-5.7,9.76-1.777,3.154-3.511,6.328-6.224,8.249A11.908,11.908,0,0,1,208,177.168a23.775,23.775,0,0,1-4.731.625,20.74,20.74,0,0,1-8.8-1.4,21.281,21.281,0,0,1-3.688-1.972,26.465,26.465,0,0,1-3.1-2.512,45.736,45.736,0,0,1-4.872-5.522,118.022,118.022,0,0,0-7.369-9.364,17.19,17.19,0,0,0-6.129-4.378,10.82,10.82,0,0,0-1.9-.527,2.832,2.832,0,0,0-.663-.09" transform="translate(-32.82 -33.913)" fill="#0f58b9"/>
            <rect id="Rectángulo_338118" data-name="Rectángulo 338118" width="39.757" height="2.212" transform="translate(275.127 46.656)" fill="#263238"/>
            <rect id="Rectángulo_338119" data-name="Rectángulo 338119" width="19.646" height="2.212" transform="translate(295.237 51.834)" fill="#263238"/>
            <path id="Trazado_636870" data-name="Trazado 636870" d="M152.331,16.534h221.6a3.343,3.343,0,0,1,3.343,3.343V31.009H148.988V19.877a3.343,3.343,0,0,1,3.343-3.343" transform="translate(-34.927 -4.268)" fill="#263238"/>
            <path id="Trazado_636871" data-name="Trazado 636871" d="M160.74,26.125a1.557,1.557,0,1,0,1.557-1.557,1.557,1.557,0,0,0-1.557,1.557" transform="translate(169.778 -6.343)" fill="#fff"/>
            <path id="Trazado_636872" data-name="Trazado 636872" d="M169.9,26.125a1.557,1.557,0,1,0,1.557-1.557,1.557,1.557,0,0,0-1.557,1.557" transform="translate(153.816 -6.343)" fill="#fff"/>
            <path id="Trazado_636873" data-name="Trazado 636873" d="M179.067,26.125a1.557,1.557,0,1,0,1.557-1.557,1.557,1.557,0,0,0-1.557,1.557" transform="translate(137.855 -6.343)" fill="#fff"/>
            <path id="Trazado_636874" data-name="Trazado 636874" d="M33.221,203.037h88.834a2.4,2.4,0,0,0,2.4-2.4V179.182a2.4,2.4,0,0,0-2.4-2.4H33.221a2.4,2.4,0,0,0-2.4,2.4v21.458a2.4,2.4,0,0,0,2.4,2.4" transform="translate(305.555 -45.639)" fill="#e6e6e6"/>
            <path id="Trazado_636875" data-name="Trazado 636875" d="M44.992,197.153a5.7,5.7,0,1,0,.882-8.02,5.705,5.705,0,0,0-.882,8.02" transform="translate(365.28 -48.503)" fill="#fff"/>
            <path id="Trazado_636876" data-name="Trazado 636876" d="M47.1,192.958a26.423,26.423,0,0,0,3.087,3.28l.754.728.135.13.129-.132a18.329,18.329,0,0,0,2.309-2.574,18.318,18.318,0,0,0-2.575,2.309h.264l-.746-.735a26.376,26.376,0,0,0-3.357-3" transform="translate(364.412 -49.814)" fill="#263238"/>
            <path id="Trazado_636877" data-name="Trazado 636877" d="M73.054,191.82c0,.107,11.9.193,26.58.193s26.582-.086,26.582-.193-11.9-.193-26.582-.193-26.58.086-26.58.193" transform="translate(272.464 -49.471)" fill="#263238"/>
            <path id="Trazado_636878" data-name="Trazado 636878" d="M73.894,198.818c0,.107,6.881.193,15.366.193s15.368-.086,15.368-.193-6.879-.193-15.368-.193-15.366.086-15.366.193" transform="translate(293.429 -51.277)" fill="#263238"/>
            <path id="Trazado_636879" data-name="Trazado 636879" d="M70.02,129.859h88.423a1.941,1.941,0,0,0,1.941-1.941V93.467a1.941,1.941,0,0,0-1.941-1.941H70.02a1.94,1.94,0,0,0-1.941,1.941v34.452a1.94,1.94,0,0,0,1.941,1.941" transform="translate(241.987 -23.629)" fill="#e0e0e0"/>
            <path id="Trazado_636880" data-name="Trazado 636880" d="M82.329,106.36a4.3,4.3,0,1,0,4.3-4.3,4.3,4.3,0,0,0-4.3,4.3" transform="translate(300.864 -26.347)" fill="#472687"/>
            <rect id="Rectángulo_338120" data-name="Rectángulo 338120" width="29.983" height="1.665" transform="translate(348.908 77.041)" fill="#472687"/>
            <rect id="Rectángulo_338121" data-name="Rectángulo 338121" width="58.326" height="1.665" transform="translate(320.565 80.824)" fill="#fff"/>
            <path id="Trazado_636881" data-name="Trazado 636881" d="M82.329,124.193a4.3,4.3,0,1,0,4.3-4.3,4.3,4.3,0,0,0-4.3,4.3" transform="translate(300.864 -30.951)" fill="#2e0877"/>
            <rect id="Rectángulo_338122" data-name="Rectángulo 338122" width="15.311" height="1.665" transform="translate(363.58 90.27)" fill="#2e0877"/>
            <rect id="Rectángulo_338123" data-name="Rectángulo 338123" width="58.326" height="1.665" transform="translate(320.565 94.052)" fill="#fff"/>
            <path id="Trazado_636882" data-name="Trazado 636882" d="M92.943,278.038H206.163A2.936,2.936,0,0,0,209.1,275.1V230.354a2.936,2.936,0,0,0-2.936-2.936H92.943a2.936,2.936,0,0,0-2.936,2.936V275.1a2.936,2.936,0,0,0,2.936,2.936" transform="translate(177.005 -58.711)" fill="#e0e0e0"/>
            <path id="Trazado_636883" data-name="Trazado 636883" d="M102.257,256.82l.067-10.268a13.108,13.108,0,0,1,8.471,3.3,12.145,12.145,0,0,1,4.082,10.634,14.614,14.614,0,0,1-.24,1.492c0,.012,0,.024-.007.036h0l-12.372-2.784Z" transform="translate(262.06 -63.65)" fill="#43208b"/>
            <path id="Trazado_636884" data-name="Trazado 636884" d="M122.455,253.672a12.179,12.179,0,0,1,9.986-6.99q.194-.02.392-.035c.083-.006.165-.014.249-.019q.367-.02.745-.021l.034,0h.033l-.068,10.268-.016,2.412-12.375,2.7-.016,0h0a12.21,12.21,0,0,1-.274-2.662,13.323,13.323,0,0,1,1.309-5.657" transform="translate(229.111 -63.664)" fill="#6530ce"/>
            <path id="Trazado_636886" data-name="Trazado 636886" d="M115.984,265.373l12.372,2.784a12.681,12.681,0,0,1-24.763-.084l12.375-2.7" transform="translate(247.67 -68.509)" fill="#472687"/>
            <rect id="Rectángulo_338126" data-name="Rectángulo 338126" width="62.859" height="2.848" transform="translate(279.108 185.972)" fill="#fff"/>
            <rect id="Rectángulo_338127" data-name="Rectángulo 338127" width="62.859" height="2.848" transform="translate(279.108 193.479)" fill="#fff"/>
            <rect id="Rectángulo_338128" data-name="Rectángulo 338128" width="33.973" height="2.848" transform="translate(307.994 201.781)" fill="#fff"/>
            <path id="Trazado_636888" data-name="Trazado 636888" d="M283.377,298.593h111.7a6.239,6.239,0,0,0,6.24-6.239V185.272a6.24,6.24,0,0,0-6.24-6.24h-111.7a6.239,6.239,0,0,0-6.239,6.24V292.354a6.239,6.239,0,0,0,6.239,6.239" transform="translate(-154.034 -46.219)" fill="#e6e6e6"/>
            <rect id="Rectángulo_338129" data-name="Rectángulo 338129" width="4.076" height="1.174" transform="translate(234.529 214.718)" fill="#263238"/>
            <rect id="Rectángulo_338130" data-name="Rectángulo 338130" width="5.212" height="1.174" transform="translate(224.172 220.997)" fill="#263238"/>
            <rect id="Rectángulo_338131" data-name="Rectángulo 338131" width="5.212" height="1.174" transform="translate(206.029 220.997)" fill="#263238"/>
            <rect id="Rectángulo_338132" data-name="Rectángulo 338132" width="5.212" height="1.174" transform="translate(187.886 220.997)" fill="#263238"/>
            <rect id="Rectángulo_338133" data-name="Rectángulo 338133" width="5.212" height="1.174" transform="translate(169.742 220.997)" fill="#263238"/>
            <rect id="Rectángulo_338134" data-name="Rectángulo 338134" width="5.212" height="1.174" transform="translate(151.599 220.997)" fill="#263238"/>
            <rect id="Rectángulo_338135" data-name="Rectángulo 338135" width="5.212" height="1.174" transform="translate(133.455 220.997)" fill="#263238"/>
            <rect id="Rectángulo_338136" data-name="Rectángulo 338136" width="4.076" height="1.174" transform="translate(234.529 199.034)" fill="#263238"/>
            <rect id="Rectángulo_338137" data-name="Rectángulo 338137" width="4.076" height="1.174" transform="translate(234.529 169.512)" fill="#263238"/>
            <rect id="Rectángulo_338138" data-name="Rectángulo 338138" width="4.076" height="1.174" transform="translate(234.529 154.676)" fill="#263238"/>
            <rect id="Rectángulo_338139" data-name="Rectángulo 338139" width="4.076" height="1.174" transform="translate(234.322 184.273)" fill="#263238"/>
            <path id="Trazado_636889" data-name="Trazado 636889" d="M296.939,266.508s.148.013.437.02l1.283.019,4.931.036,18.137.062,59.835.056,14.179,0h.191v-.191c-.026-20.008-.048-37.615-.065-50.237-.024-6.294-.044-11.343-.058-14.835-.014-1.727-.025-3.068-.033-3.993-.007-.445-.013-.787-.017-1.034s-.018-.351-.018-.351-.012.119-.018.351-.01.589-.017,1.034c-.008.925-.019,2.266-.033,3.993-.013,3.492-.033,8.541-.057,14.835-.016,12.622-.039,30.228-.065,50.237l.191-.191-14.179,0-59.835.056-18.137.062-4.931.036-1.283.019c-.289.007-.437.02-.437.02" transform="translate(-163.338 -50.615)" fill="#263238"/>
            <path id="Trazado_636890" data-name="Trazado 636890" d="M302.51,249.125c0,.107,21.494.193,48,.193s48.006-.086,48.006-.193-21.489-.193-48.006-.193-48,.086-48,.193" transform="translate(-170.056 -64.265)" fill="#263238"/>
            <path id="Trazado_636891" data-name="Trazado 636891" d="M302.51,229.227c0,.107,21.494.193,48,.193s48.006-.086,48.006-.193-21.489-.193-48.006-.193-48,.086-48,.193" transform="translate(-170.056 -59.128)" fill="#263238"/>
            <path id="Trazado_636892" data-name="Trazado 636892" d="M302.51,209.229c0,.107,21.494.193,48,.193s48.006-.086,48.006-.193-21.489-.193-48.006-.193-48,.086-48,.193" transform="translate(-170.056 -53.965)" fill="#263238"/>
            <path id="Trazado_636893" data-name="Trazado 636893" d="M302.51,269.022c0,.107,21.494.193,48,.193s48.006-.086,48.006-.193-21.489-.193-48.006-.193-48,.086-48,.193" transform="translate(-170.056 -69.401)" fill="#263238"/>
            <path id="Trazado_636894" data-name="Trazado 636894" d="M397.714,263.71v-13.1l-8.162-12.671-5.539,4.25-11.369-17.66-6.706,4.722-9.328-16.292-7.579,6.175-11.369-21.613L325.417,221.68,315.5,209.594l-11.661-3.337V263.71Z" transform="translate(-170.243 -50.993)" fill="#0f58b9"/>
            <path id="Trazado_636895" data-name="Trazado 636895" d="M303.844,202.991a1.1,1.1,0,0,0,.206.015l.608.014,2.366.028,8.948.05-.085-.042,9.588,12.533.045.059h.076l24.007.033-.159-.091,10.093,16.8,9.909,16.47.145.24.165-.227,13-17.881-.26-.008,11.863,18.482,3.308,5.109.878,1.334c.2.3.314.447.314.447s-.086-.165-.273-.473l-.839-1.358-3.236-5.156L382.765,230.82l-.124-.2-.137.187-13.05,17.848.31.013-9.9-16.477-10.105-16.8-.054-.09H349.6l-24.007.033.121.06-9.659-12.478-.033-.042h-.053l-8.948.05-2.366.028-.608.014a1.1,1.1,0,0,0-.206.015" transform="translate(-171.39 -52.377)" fill="#263238"/>
            <path id="Trazado_636896" data-name="Trazado 636896" d="M328.544,246.006a.922.922,0,1,0,.921-.887.9.9,0,0,0-.921.887" transform="translate(-121.238 -63.28)" fill="#263238"/>
            <path id="Trazado_636897" data-name="Trazado 636897" d="M365.871,224.789a.922.922,0,1,0,.921-.886.9.9,0,0,0-.921.886" transform="translate(-186.256 -57.803)" fill="#263238"/>
            <path id="Trazado_636898" data-name="Trazado 636898" d="M394.889,219.576a.922.922,0,1,0,.921-.886.9.9,0,0,0-.921.886" transform="translate(-236.8 -56.457)" fill="#263238"/>
            <path id="Trazado_636899" data-name="Trazado 636899" d="M301.265,317.063a5.961,5.961,0,1,0,5.956-5.734,5.849,5.849,0,0,0-5.956,5.734" transform="translate(-83.793 -80.373)" fill="#fff"/>
            <rect id="Rectángulo_338140" data-name="Rectángulo 338140" width="69.968" height="2.146" transform="translate(138.667 232.85)" fill="#fff"/>
            <rect id="Rectángulo_338141" data-name="Rectángulo 338141" width="29.051" height="2.146" transform="translate(179.583 238.209)" fill="#fff"/>
            <path id="Trazado_636900" data-name="Trazado 636900" d="M394.311,122.231h75.124a3.662,3.662,0,0,0,3.662-3.662V57.509a3.663,3.663,0,0,0-3.662-3.662H394.311a3.663,3.663,0,0,0-3.663,3.662v61.059a3.663,3.663,0,0,0,3.663,3.662" transform="translate(-310.021 -13.901)" fill="#e6e6e6"/>
            <rect id="Rectángulo_338142" data-name="Rectángulo 338142" width="4.445" height="33.555" transform="translate(144.244 67.325)" fill="#6594d2"/>
            <rect id="Rectángulo_338143" data-name="Rectángulo 338143" width="4.445" height="36.277" transform="translate(124.043 64.603)" fill="#6594d2"/>
            <rect id="Rectángulo_338144" data-name="Rectángulo 338144" width="4.445" height="40.884" transform="translate(103.118 59.996)" fill="#2165be"/>
            <rect id="Rectángulo_338145" data-name="Rectángulo 338145" width="4.445" height="16.338" transform="translate(112.948 84.542)" fill="#2165be"/>
            <rect id="Rectángulo_338148" data-name="Rectángulo 338148" width="4.445" height="37.149" transform="translate(139.063 63.731)" fill="#2165be"/>
            <rect id="Rectángulo_338151" data-name="Rectángulo 338151" width="4.445" height="44.932" transform="translate(118.5 55.948)" fill="#0f58b9"/>
            <path id="Trazado_668340" data-name="Trazado 668340" d="M4.445,0H0V44.932H4.445Z" transform="translate(91.656 55.948)" fill="#6594d2"/>
            <rect id="Rectángulo_338157" data-name="Rectángulo 338157" width="4.445" height="53.805" transform="translate(97.456 47.075)" fill="#0f58b9"/>
            <rect id="Rectángulo_338160" data-name="Rectángulo 338160" width="4.445" height="23.578" transform="translate(133.627 77.302)" fill="#0f58b9"/>
            <path id="Trazado_636901" data-name="Trazado 636901" d="M400,138.664c0,.107,15.86.193,35.42.193s35.422-.086,35.422-.193-15.856-.193-35.422-.193-35.42.086-35.42.193" transform="translate(-314.705 -35.748)" fill="#263238"/>
            <rect id="Rectángulo_338163" data-name="Rectángulo 338163" width="2.712" height="0.894" transform="translate(155.485 94.911)" fill="#263238"/>
            <rect id="Rectángulo_338164" data-name="Rectángulo 338164" width="2.712" height="0.894" transform="translate(155.485 82.971)" fill="#263238"/>
            <rect id="Rectángulo_338165" data-name="Rectángulo 338165" width="2.712" height="0.894" transform="translate(155.485 60.498)" fill="#263238"/>
            <rect id="Rectángulo_338166" data-name="Rectángulo 338166" width="2.712" height="0.894" transform="translate(155.485 49.205)" fill="#263238"/>
            <rect id="Rectángulo_338167" data-name="Rectángulo 338167" width="2.712" height="0.894" transform="translate(155.348 71.734)" fill="#263238"/>
            <path id="Trazado_636902" data-name="Trazado 636902" d="M265.062,70.066h79.776a2.4,2.4,0,0,0,2.4-2.4V48.751a2.4,2.4,0,0,0-2.4-2.4H265.062a2.4,2.4,0,0,0-2.4,2.4V67.67a2.4,2.4,0,0,0,2.4,2.4" transform="translate(-89.214 -11.967)" fill="#0f4998"/>
            <path id="Trazado_636903" data-name="Trazado 636903" d="M275.461,64.751a5.153,5.153,0,1,0,.8-7.244,5.153,5.153,0,0,0-.8,7.244" transform="translate(-35.268 -14.554)" fill="#fff"/>
            <path id="Trazado_636904" data-name="Trazado 636904" d="M279.485,66.694a5.187,5.187,0,1,0-.576-.032,5.381,5.381,0,0,0,.576.032m-.02-10.308a5.135,5.135,0,1,1-3.2,1.129,5.114,5.114,0,0,1,3.2-1.129" transform="translate(-35.261 -14.547)" fill="#263238"/>
            <path id="Trazado_636905" data-name="Trazado 636905" d="M277.369,60.962a21.559,21.559,0,0,0,2.775,2.976l.681.657.135.131.129-.132a14.908,14.908,0,0,0,2.073-2.338,14.953,14.953,0,0,0-2.338,2.073h.264l-.674-.665a21.628,21.628,0,0,0-3.045-2.7" transform="translate(-36.051 -15.737)" fill="#2e0877"/>
            <path id="Trazado_636906" data-name="Trazado 636906" d="M300.808,59.927c0,.107,10.75.193,24.008.193s24.01-.086,24.01-.193-10.748-.193-24.01-.193-24.008.086-24.008.193" transform="translate(-119.103 -15.421)" fill="#fff"/>
            <path id="Trazado_636907" data-name="Trazado 636907" d="M301.566,66.248c0,.107,6.215.193,13.88.193s13.881-.086,13.881-.193-6.214-.193-13.881-.193-13.88.086-13.88.193" transform="translate(-100.166 -17.053)" fill="#fff"/>
          </g>
        </g>
        <rect id="Rectángulo_344925" data-name="Rectángulo 344925" width="455.018" height="438.948" transform="translate(1022.172 2007.577)" fill="none"/>
      </g>
      <g id="Grupo_991901" data-name="Grupo 991901" transform="translate(-35.851 -82.273)">
        <g id="Grupo_991868" data-name="Grupo 991868" transform="translate(1020 2007.577)" clip-path="url(#clip-path-8)">
          <path id="Trazado_668272" data-name="Trazado 668272" d="M422.38,390.449c.046.029.954-3.485.986-3.713.367-2.642-.475-7.964-3.165-9.263a3.535,3.535,0,0,0-4.81,2.131c-.722,1.982.193,4.413,1.275,6.086,1.272,1.963,5.711,4.758,5.714,4.76" transform="translate(10.723 9.742)" fill="#263238"/>
          <path id="Trazado_668273" data-name="Trazado 668273" d="M370.608,389.211c2.144.937,7.388.819,7.391.819.055,0-1.126-3.434-1.226-3.641-1.151-2.408-4.789-6.381-7.749-5.982a3.536,3.536,0,0,0-2.837,4.432c.491,2.051,2.6,3.574,4.421,4.372" transform="translate(9.456 9.826)" fill="#263238"/>
          <path id="Trazado_668274" data-name="Trazado 668274" d="M372.406,404.784c2.224.324,6.9-1.033,7.275-1.143a62.657,62.657,0,0,0,2.838,7.854c.643,1.49,1.339,2.972,2.054,4.448-.427-.626-.813-1.182-.875-1.254-1.746-2.018-6.3-4.889-9.054-3.722a3.535,3.535,0,0,0-1.568,5.023c1.017,1.849,3.449,2.762,5.419,3.05,2,.291,6.014-.786,7.072-1.085.281.564.554,1.129.836,1.692,1.356,2.7,2.721,5.386,3.977,8.062.443.943.845,1.888,1.252,2.831-.381-.555-.7-1.019-.761-1.084-1.746-2.018-6.3-4.89-9.054-3.723a3.536,3.536,0,0,0-1.566,5.023c1.016,1.848,3.448,2.762,5.419,3.049,1.909.278,5.623-.682,6.881-1.032.386.98.776,1.959,1.1,2.926.21.665.46,1.29.634,1.969s.371,1.333.555,1.988c.306,1.276.63,2.591.9,3.845.193.87.36,1.7.53,2.54-.43-.944-1.312-2.774-1.4-2.918-1.42-2.259-5.49-5.789-8.386-5.051a3.536,3.536,0,0,0-2.309,4.728c.724,1.98,2.99,3.252,4.9,3.835,2.1.642,6.743.055,7.322-.022.278,1.388.535,2.74.758,4.02.472,2.673.833,5.081,1.112,7.148h1.952c-.334-2.142-.766-4.666-1.323-7.473-.277-1.411-.6-2.911-.949-4.45a38.782,38.782,0,0,0,4.085-1.921c1.529,1.656,5.447,3.594,5.955,3.841-.533,1.311-1.065,2.581-1.586,3.771-1.017,2.342-1.984,4.429-2.851,6.233h2.106c.739-1.647,1.542-3.5,2.376-5.544.547-1.329,1.106-2.761,1.664-4.236.562.118,5.161,1.051,7.3.567,1.943-.439,4.3-1.538,5.166-3.459a3.534,3.534,0,0,0-1.95-4.886c-2.832-.952-7.154,2.265-8.738,4.411-.094.126-.954,1.614-1.481,2.56.225-.6.45-1.187.675-1.812.451-1.232.867-2.475,1.317-3.81q.294-.979.592-1.978c.211-.655.352-1.376.532-2.069.385-1.617.7-3.274.972-4.951,1.08.393,4.935,1.734,6.932,1.593s4.481-.87,5.631-2.638a3.535,3.535,0,0,0-1.188-5.125c-2.655-1.37-7.415,1.155-9.305,3.036-.118.118-1.323,1.621-1.97,2.459.159-1.01.322-2.016.449-3.042.368-2.963.648-5.972.941-8.973.089-.92.189-1.834.285-2.751.383.145,4.93,1.837,7.166,1.68,1.987-.139,4.48-.87,5.631-2.637a3.534,3.534,0,0,0-1.188-5.125c-2.655-1.37-7.415,1.154-9.305,3.036-.143.142-1.873,2.306-2.287,2.879.213-2.018.444-4.027.753-6a62.352,62.352,0,0,1,1.721-7.89c.178.068,4.916,1.856,7.206,1.695,1.988-.14,4.481-.87,5.632-2.638A3.536,3.536,0,0,0,430,397.014c-2.656-1.37-7.416,1.155-9.306,3.036-.124.124-1.443,1.772-2.054,2.57l-.152-.079a45.594,45.594,0,0,1,3.134-7.491c.679-1.329,1.4-2.561,2.135-3.745.848.423,4.745,2.315,6.823,2.4,1.991.08,4.55-.372,5.887-2a3.535,3.535,0,0,0-.618-5.225c-2.489-1.653-7.5.333-9.583,2-.113.09-1.164,1.138-1.919,1.91.337-.528.677-1.081,1.011-1.582,1.249-1.881,2.509-3.528,3.638-4.977.648-.819,1.251-1.546,1.821-2.221,1.049-.018,5.276-.147,7.124-1.015,1.8-.846,3.865-2.427,4.3-4.49a3.536,3.536,0,0,0-2.956-4.353c-2.971-.32-6.5,3.752-7.585,6.188-.093.211-1.182,3.673-1.127,3.672h.064c-.562.639-1.157,1.329-1.793,2.1-1.161,1.427-2.461,3.051-3.757,4.913a62.649,62.649,0,0,0-3.9,6.205,46.066,46.066,0,0,0-3.329,7.492c-.01.031-.017.064-.027.094.015-.875-.023-3.323-.047-3.51-.343-2.646-2.561-7.556-5.5-8.1a3.536,3.536,0,0,0-4.078,3.326c-.172,2.1,1.352,4.206,2.838,5.533,1.675,1.5,6.327,2.946,6.7,3.06a62.541,62.541,0,0,0-1.964,8.116c-.286,1.6-.523,3.217-.741,4.843-.011-.757-.027-1.434-.039-1.529-.344-2.646-2.56-7.556-5.5-8.1a3.536,3.536,0,0,0-4.078,3.325c-.172,2.1,1.352,4.206,2.839,5.533,1.508,1.347,5.448,2.662,6.5,3-.077.625-.161,1.247-.236,1.872-.358,3-.7,5.992-1.131,8.918-.15,1.031-.336,2.042-.518,3.052-.011-.672-.026-1.238-.037-1.324-.343-2.646-2.559-7.556-5.5-8.1a3.535,3.535,0,0,0-4.078,3.326c-.172,2.1,1.352,4.2,2.837,5.532,1.439,1.285,5.067,2.533,6.309,2.936-.218,1.029-.434,2.061-.692,3.05-.191.67-.328,1.329-.558,1.992q-.319.993-.633,1.964c-.449,1.234-.9,2.51-1.373,3.7-.319.832-.639,1.618-.958,2.412.161-1.025.435-3.037.439-3.208a13.737,13.737,0,0,0-1.84-6.678,4.238,4.238,0,0,0-.049-.782,3.535,3.535,0,0,0-4.323-3c-2.887.769-4.718,5.836-4.855,8.5-.008.157.1,1.872.178,2.953-.146-.628-.28-1.239-.437-1.883-.3-1.277-.642-2.543-1-3.905q-.3-.979-.6-1.976c-.185-.664-.465-1.341-.7-2.019-.571-1.561-1.226-3.115-1.92-4.667,1.118-.268,5.073-1.276,6.661-2.495s3.257-3.2,3.242-5.305a3.536,3.536,0,0,0-3.818-3.62c-2.97.323-5.548,5.054-6.086,7.667-.034.163-.21,2.08-.286,3.137-.425-.929-.843-1.86-1.3-2.785-1.327-2.673-2.753-5.339-4.166-8-.433-.817-.854-1.634-1.279-2.452.4-.091,5.125-1.188,6.9-2.552,1.581-1.213,3.257-3.2,3.243-5.307a3.536,3.536,0,0,0-3.819-3.619c-2.97.322-5.547,5.053-6.086,7.666-.04.2-.289,2.957-.319,3.662-.935-1.8-1.85-3.6-2.68-5.417a62.134,62.134,0,0,1-2.917-7.531c.186-.042,5.124-1.164,6.946-2.562,1.581-1.213,3.257-3.2,3.242-5.306a3.536,3.536,0,0,0-3.818-3.62c-2.971.323-5.548,5.054-6.086,7.667-.036.171-.228,2.275-.3,3.278l-.169.018a45.6,45.6,0,0,1-1.52-7.979c-.166-1.483-.242-2.911-.285-4.3.941-.115,5.236-.686,7.015-1.763,1.7-1.032,3.588-2.82,3.806-4.918a3.537,3.537,0,0,0-3.4-4.017c-2.987-.005-6.069,4.414-6.892,6.952-.045.138-.344,1.591-.548,2.652-.009-.627-.031-1.275-.029-1.877,0-2.259.148-4.327.288-6.158.089-1.04.19-1.98.293-2.857.865-.6,4.32-3.033,5.384-4.776,1.036-1.7,1.884-4.157,1.111-6.118a3.537,3.537,0,0,0-4.868-2c-2.654,1.373-3.351,6.714-2.912,9.346.038.227,1.04,3.716,1.086,3.685l.051-.036c-.116.842-.232,1.747-.337,2.738-.183,1.831-.37,3.9-.424,6.17a62.632,62.632,0,0,0,.174,7.325,46.045,46.045,0,0,0,1.357,8.084c.008.031.022.063.03.093-.47-.738-1.853-2.758-1.977-2.9-1.746-2.017-6.3-4.889-9.054-3.722a3.535,3.535,0,0,0-1.566,5.023c1.016,1.849,3.448,2.763,5.42,3.05" transform="translate(9.467 9.443)" fill="#263238"/>
          <g id="Grupo_991861" data-name="Grupo 991861" transform="translate(375.536 390.206)" opacity="0.3">
            <g id="Grupo_991860" data-name="Grupo 991860" transform="translate(0)">
              <g id="Grupo_991859" data-name="Grupo 991859" clip-path="url(#clip-path-9)">
                <path id="Trazado_668275" data-name="Trazado 668275" d="M370.608,389.211c2.144.937,7.388.819,7.391.819.055,0-1.126-3.434-1.226-3.641-1.151-2.408-4.789-6.381-7.749-5.982a3.536,3.536,0,0,0-2.837,4.432c.491,2.051,2.6,3.574,4.421,4.372" transform="translate(-366.08 -380.381)" fill="#263238"/>
              </g>
            </g>
          </g>
          <g id="Grupo_991864" data-name="Grupo 991864" transform="translate(425.856 386.88)" opacity="0.3">
            <g id="Grupo_991863" data-name="Grupo 991863" transform="translate(0)">
              <g id="Grupo_991862" data-name="Grupo 991862" clip-path="url(#clip-path-10)">
                <path id="Trazado_668276" data-name="Trazado 668276" d="M422.38,390.449c.046.029.954-3.485.986-3.713.367-2.642-.475-7.964-3.165-9.263a3.535,3.535,0,0,0-4.81,2.131c-.722,1.982.193,4.413,1.275,6.086,1.272,1.963,5.711,4.758,5.714,4.76" transform="translate(-415.133 -377.137)" fill="#263238"/>
              </g>
            </g>
          </g>
          <g id="Grupo_991867" data-name="Grupo 991867" transform="translate(375.977 374.997)" opacity="0.3">
            <g id="Grupo_991866" data-name="Grupo 991866">
              <g id="Grupo_991865" data-name="Grupo 991865" clip-path="url(#clip-path-11)">
                <path id="Trazado_668277" data-name="Trazado 668277" d="M372.406,404.784c2.224.324,6.9-1.033,7.275-1.143a62.657,62.657,0,0,0,2.838,7.854c.643,1.49,1.339,2.972,2.054,4.448-.427-.626-.813-1.182-.875-1.254-1.746-2.018-6.3-4.889-9.054-3.722a3.535,3.535,0,0,0-1.568,5.023c1.017,1.849,3.449,2.762,5.419,3.05,2,.291,6.014-.786,7.072-1.085.281.564.554,1.129.836,1.692,1.356,2.7,2.721,5.386,3.977,8.062.443.943.845,1.888,1.252,2.831-.381-.555-.7-1.019-.761-1.084-1.746-2.018-6.3-4.89-9.054-3.723a3.536,3.536,0,0,0-1.566,5.023c1.016,1.848,3.448,2.762,5.419,3.049,1.909.278,5.623-.682,6.881-1.032.386.98.776,1.959,1.1,2.926.21.665.46,1.29.634,1.969s.371,1.333.555,1.988c.306,1.276.63,2.591.9,3.845.193.87.36,1.7.53,2.54-.43-.944-1.312-2.774-1.4-2.918-1.42-2.259-5.49-5.789-8.386-5.051a3.536,3.536,0,0,0-2.309,4.728c.724,1.98,2.99,3.252,4.9,3.835,2.1.642,6.743.055,7.322-.022.278,1.388.535,2.74.758,4.02.472,2.673.833,5.081,1.112,7.148h1.952c-.334-2.142-.766-4.666-1.323-7.473-.277-1.411-.6-2.911-.949-4.45a38.782,38.782,0,0,0,4.085-1.921c1.529,1.656,5.447,3.594,5.955,3.841-.533,1.311-1.065,2.581-1.586,3.771-1.017,2.342-1.984,4.429-2.851,6.233h2.106c.739-1.647,1.542-3.5,2.376-5.544.547-1.329,1.106-2.761,1.664-4.236.562.118,5.161,1.051,7.3.567,1.943-.439,4.3-1.538,5.166-3.459a3.534,3.534,0,0,0-1.95-4.886c-2.832-.952-7.154,2.265-8.738,4.411-.094.126-.954,1.614-1.481,2.56.225-.6.45-1.187.675-1.812.451-1.232.867-2.475,1.317-3.81q.294-.979.592-1.978c.211-.655.352-1.376.532-2.069.385-1.617.7-3.274.972-4.951,1.08.393,4.935,1.734,6.932,1.593s4.481-.87,5.631-2.638a3.535,3.535,0,0,0-1.188-5.125c-2.655-1.37-7.415,1.155-9.305,3.036-.118.118-1.323,1.621-1.97,2.459.159-1.01.322-2.016.449-3.042.368-2.963.648-5.972.941-8.973.089-.92.189-1.834.285-2.751.383.145,4.93,1.837,7.166,1.68,1.987-.139,4.48-.87,5.631-2.637a3.534,3.534,0,0,0-1.188-5.125c-2.655-1.37-7.415,1.154-9.305,3.036-.143.142-1.873,2.306-2.287,2.879.213-2.018.444-4.027.753-6a62.352,62.352,0,0,1,1.721-7.89c.178.068,4.916,1.856,7.206,1.695,1.988-.14,4.481-.87,5.632-2.638A3.536,3.536,0,0,0,430,397.014c-2.656-1.37-7.416,1.155-9.306,3.036-.124.124-1.443,1.772-2.054,2.57l-.152-.079a45.594,45.594,0,0,1,3.134-7.491c.679-1.329,1.4-2.561,2.135-3.745.848.423,4.745,2.315,6.823,2.4,1.991.08,4.55-.372,5.887-2a3.535,3.535,0,0,0-.618-5.225c-2.489-1.653-7.5.333-9.583,2-.113.09-1.164,1.138-1.919,1.91.337-.528.677-1.081,1.011-1.582,1.249-1.881,2.509-3.528,3.638-4.977.648-.819,1.251-1.546,1.821-2.221,1.049-.018,5.276-.147,7.124-1.015,1.8-.846,3.865-2.427,4.3-4.49a3.536,3.536,0,0,0-2.956-4.353c-2.971-.32-6.5,3.752-7.585,6.188-.093.211-1.182,3.673-1.127,3.672h.064c-.562.639-1.157,1.329-1.793,2.1-1.161,1.427-2.461,3.051-3.757,4.913a62.649,62.649,0,0,0-3.9,6.205,46.066,46.066,0,0,0-3.329,7.492c-.01.031-.017.064-.027.094.015-.875-.023-3.323-.047-3.51-.343-2.646-2.561-7.556-5.5-8.1a3.536,3.536,0,0,0-4.078,3.326c-.172,2.1,1.352,4.206,2.838,5.533,1.675,1.5,6.327,2.946,6.7,3.06a62.541,62.541,0,0,0-1.964,8.116c-.286,1.6-.523,3.217-.741,4.843-.011-.757-.027-1.434-.039-1.529-.344-2.646-2.56-7.556-5.5-8.1a3.536,3.536,0,0,0-4.078,3.325c-.172,2.1,1.352,4.206,2.839,5.533,1.508,1.347,5.448,2.662,6.5,3-.077.625-.161,1.247-.236,1.872-.358,3-.7,5.992-1.131,8.918-.15,1.031-.336,2.042-.518,3.052-.011-.672-.026-1.238-.037-1.324-.343-2.646-2.559-7.556-5.5-8.1a3.535,3.535,0,0,0-4.078,3.326c-.172,2.1,1.352,4.2,2.837,5.532,1.439,1.285,5.067,2.533,6.309,2.936-.218,1.029-.434,2.061-.692,3.05-.191.67-.328,1.329-.558,1.992q-.319.993-.633,1.964c-.449,1.234-.9,2.51-1.373,3.7-.319.832-.639,1.618-.958,2.412.161-1.025.435-3.037.439-3.208a13.737,13.737,0,0,0-1.84-6.678,4.238,4.238,0,0,0-.049-.782,3.535,3.535,0,0,0-4.323-3c-2.887.769-4.718,5.836-4.855,8.5-.008.157.1,1.872.178,2.953-.146-.628-.28-1.239-.437-1.883-.3-1.277-.642-2.543-1-3.905q-.3-.979-.6-1.976c-.185-.664-.465-1.341-.7-2.019-.571-1.561-1.226-3.115-1.92-4.667,1.118-.268,5.073-1.276,6.661-2.495s3.257-3.2,3.242-5.305a3.536,3.536,0,0,0-3.818-3.62c-2.97.323-5.548,5.054-6.086,7.667-.034.163-.21,2.08-.286,3.137-.425-.929-.843-1.86-1.3-2.785-1.327-2.673-2.753-5.339-4.166-8-.433-.817-.854-1.634-1.279-2.452.4-.091,5.125-1.188,6.9-2.552,1.581-1.213,3.257-3.2,3.243-5.307a3.536,3.536,0,0,0-3.819-3.619c-2.97.322-5.547,5.053-6.086,7.666-.04.2-.289,2.957-.319,3.662-.935-1.8-1.85-3.6-2.68-5.417a62.134,62.134,0,0,1-2.917-7.531c.186-.042,5.124-1.164,6.946-2.562,1.581-1.213,3.257-3.2,3.242-5.306a3.536,3.536,0,0,0-3.818-3.62c-2.971.323-5.548,5.054-6.086,7.667-.036.171-.228,2.275-.3,3.278l-.169.018a45.6,45.6,0,0,1-1.52-7.979c-.166-1.483-.242-2.911-.285-4.3.941-.115,5.236-.686,7.015-1.763,1.7-1.032,3.588-2.82,3.806-4.918a3.537,3.537,0,0,0-3.4-4.017c-2.987-.005-6.069,4.414-6.892,6.952-.045.138-.344,1.591-.548,2.652-.009-.627-.031-1.275-.029-1.877,0-2.259.148-4.327.288-6.158.089-1.04.19-1.98.293-2.857.865-.6,4.32-3.033,5.384-4.776,1.036-1.7,1.884-4.157,1.111-6.118a3.537,3.537,0,0,0-4.868-2c-2.654,1.373-3.351,6.714-2.912,9.346.038.227,1.04,3.716,1.086,3.685l.051-.036c-.116.842-.232,1.747-.337,2.738-.183,1.831-.37,3.9-.424,6.17a62.632,62.632,0,0,0,.174,7.325,46.045,46.045,0,0,0,1.357,8.084c.008.031.022.063.03.093-.47-.738-1.853-2.758-1.977-2.9-1.746-2.017-6.3-4.889-9.054-3.722a3.535,3.535,0,0,0-1.566,5.023c1.016,1.849,3.448,2.763,5.42,3.05" transform="translate(-366.51 -365.554)" fill="#263238"/>
              </g>
            </g>
          </g>
        </g>
        <g id="Grupo_991904" data-name="Grupo 991904" transform="translate(1156.175 2222.59)">
          <path id="Trazado_668324" data-name="Trazado 668324" d="M296.319,398.715,284.9,417.886l-94.224,8.974-28.146-6.526a32.2,32.2,0,0,1-5.71.408c-3.671,0-24.474,13.868-24.066,15.092s1.631,2.855,4.894,0,5.3-3.263,5.3-3.263-8.566,7.75-5.3,7.75,8.974-4.079,8.974-4.079-4.487,4.894-2.039,4.894,11.013-5.3,11.013-5.3,8.157.815,15.908,2.039,18.355.408,18.355.408,87.29,7.88,91.777,7.75S311,417.886,311,417.886Z" transform="translate(-132.746 -204.713)" fill="#263238"/>
          <path id="Trazado_668325" data-name="Trazado 668325" d="M296.319,398.715,284.9,417.886l-94.224,8.974-28.146-6.526a32.2,32.2,0,0,1-5.71.408c-3.671,0-24.474,13.868-24.066,15.092s1.631,2.855,4.894,0,5.3-3.263,5.3-3.263-8.566,7.75-5.3,7.75,8.974-4.079,8.974-4.079-4.487,4.894-2.039,4.894,11.013-5.3,11.013-5.3,8.157.815,15.908,2.039,18.355.408,18.355.408,87.29,7.88,91.777,7.75S311,417.886,311,417.886Z" transform="translate(-132.746 -204.713)" fill="none" stroke="#263238" stroke-linecap="round" stroke-linejoin="round" stroke-width="1"/>
          <path id="Trazado_668326" data-name="Trazado 668326" d="M319.305,325.892s-6.664-9.33-4-12.884,30.212-20.881,35.987-19.993,8.886,17.772,8.886,17.772,17.772,12.883,19.1,36.431-8.442,67.531-9.774,77.75-1.333,35.1-1.333,35.1H304.644s-1.778-36.431-1.778-39.985S286.872,407.2,288.205,395.2,319.749,329,319.749,329Z" transform="translate(-128.733 -207.444)" fill="#263238"/>
          <path id="Trazado_668327" data-name="Trazado 668327" d="M319.305,325.892s-6.664-9.33-4-12.884,30.212-20.881,35.987-19.993,8.886,17.772,8.886,17.772,17.772,12.883,19.1,36.431-8.442,67.531-9.774,77.75-1.333,35.1-1.333,35.1H304.644s-1.778-36.431-1.778-39.985S286.872,407.2,288.205,395.2,319.749,329,319.749,329Z" transform="translate(-128.733 -207.444)" fill="none" stroke="#263238" stroke-linecap="round" stroke-linejoin="round" stroke-width="1"/>
          <path id="Trazado_668328" data-name="Trazado 668328" d="M356.945,329.828a27.555,27.555,0,0,0-20.882,9.33c-9.33,10.218-43.984,79.972-43.984,79.972s-87.968,12.883-95.965,11.107-19.993-4.887-21.326-5.331-15.884,1.807-20.771,3.139-16.778,10.083-15.842,11.207,5.808-.937,5.808-.937-3.185,2.061-1.124,2.435,6.556-1.5,6.556-1.5-3,2.81-.374,2.81,8.8-2.81,8.8-2.81-3.372,3.184-1.5,3.372,11.053-5.621,11.8-6,5.62,1.873,12.551,3.185a77.023,77.023,0,0,0,15.924.749s81.116,7.119,89.358,7.119,12.177,0,12.926-.562,65.192-73.435,69.313-78.68,4.683-5.995,4.683-5.995" transform="translate(-132.607 -206.493)" fill="#fff"/>
          <path id="Trazado_668329" data-name="Trazado 668329" d="M356.945,329.828a27.555,27.555,0,0,0-20.882,9.33c-9.33,10.218-43.984,79.972-43.984,79.972s-87.968,12.883-95.965,11.107-19.993-4.887-21.326-5.331-15.884,1.807-20.771,3.139-16.778,10.083-15.842,11.207,5.808-.937,5.808-.937-3.185,2.061-1.124,2.435,6.556-1.5,6.556-1.5-3,2.81-.374,2.81,8.8-2.81,8.8-2.81-3.372,3.184-1.5,3.372,11.053-5.621,11.8-6,5.62,1.873,12.551,3.185a77.023,77.023,0,0,0,15.924.749s81.116,7.119,89.358,7.119,12.177,0,12.926-.562,65.192-73.435,69.313-78.68,4.683-5.995,4.683-5.995" transform="translate(-132.607 -206.493)" fill="none" stroke="#263238" stroke-linecap="round" stroke-linejoin="round" stroke-width="1"/>
          <path id="Trazado_668330" data-name="Trazado 668330" d="M352.387,329.827a29.666,29.666,0,0,0-20.882,9.33C328.181,342.8,321.642,354,314.6,366.9c6.909,1.347,20.413,5.838,32.461,20.682,8.722-9.941,15.367-17.578,16.6-19.148,4.121-5.246,5.667-7.135,5.667-7.135" transform="translate(-128.049 -206.493)" fill="#263238"/>
          <path id="Trazado_668331" data-name="Trazado 668331" d="M352.387,329.827a29.666,29.666,0,0,0-20.882,9.33C328.181,342.8,321.642,354,314.6,366.9c6.909,1.347,20.413,5.838,32.461,20.682,8.722-9.941,15.367-17.578,16.6-19.148,4.121-5.246,5.667-7.135,5.667-7.135" transform="translate(-128.049 -206.493)" fill="none" stroke="#263238" stroke-linecap="round" stroke-linejoin="round" stroke-width="1"/>
          <line id="Línea_218" data-name="Línea 218" y1="7.313" x2="10.775" transform="translate(25.239 225.445)" fill="none" stroke="#263238" stroke-linecap="round" stroke-linejoin="round" stroke-width="1"/>
          <path id="Trazado_668332" data-name="Trazado 668332" d="M149.132,436.728s13.363-8.675,14.142-9.26" transform="translate(-132.323 -203.971)" fill="none" stroke="#263238" stroke-linecap="round" stroke-linejoin="round" stroke-width="1"/>
          <path id="Trazado_668333" data-name="Trazado 668333" d="M143.836,435.81s8.671-6.96,14.512-9.1" transform="translate(-132.46 -203.99)" fill="none" stroke="#263238" stroke-linecap="round" stroke-linejoin="round" stroke-width="1"/>
          <path id="Trazado_668334" data-name="Trazado 668334" d="M395.811,382.439h0a7.451,7.451,0,0,0-7.154,5.369L368.3,457.755h15.52l19.144-65.783a7.451,7.451,0,0,0-7.154-9.533" transform="translate(-126.661 -205.134)" fill="#0f58b9"/>
          <path id="Trazado_668335" data-name="Trazado 668335" d="M395.811,382.439h0a7.451,7.451,0,0,0-7.154,5.369L368.3,457.755h15.52l19.144-65.783A7.451,7.451,0,0,0,395.811,382.439Z" transform="translate(-126.661 -205.134)" fill="none" stroke="#263238" stroke-linecap="round" stroke-linejoin="round" stroke-width="1"/>
          <g id="Grupo_991880" data-name="Grupo 991880" transform="translate(135.496)">
            <path id="Trazado_668311" data-name="Trazado 668311" d="M270.751,228.7a37.349,37.349,0,0,0-5.805,22.617c1.084,12.845,8.627,23.58,9.753,29.262s-4.441,15.3-2.855,17.343,9.633,1.984,9.633,1.984,13.189,14.372,18.2,15.117,13.22-6.781,13.22-6.781l9.308,10.523,27.454-21.17s-7.208-11.669-7.523-14.315,9.472-18.132,5.908-40.526-24.553-33.315-44.669-33.154-32.622,19.1-32.622,19.1" transform="translate(-264.83 -209.597)" fill="#fff"/>
            <path id="Trazado_668312" data-name="Trazado 668312" d="M270.751,228.7a37.349,37.349,0,0,0-5.805,22.617c1.084,12.845,8.627,23.58,9.753,29.262s-4.441,15.3-2.855,17.343,9.633,1.984,9.633,1.984,13.189,14.372,18.2,15.117,13.22-6.781,13.22-6.781l9.308,10.523,27.454-21.17s-7.208-11.669-7.523-14.315,9.472-18.132,5.908-40.526-24.553-33.315-44.669-33.154S270.751,228.7,270.751,228.7Z" transform="translate(-264.83 -209.597)" fill="none" stroke="#263238" stroke-linecap="round" stroke-linejoin="round" stroke-width="1"/>
            <path id="Trazado_668313" data-name="Trazado 668313" d="M328.153,258.8s-1.655-4.536-5.916-2.914-3.718,8.518-3.718,8.518,4.713-2.511,4.909-.864-2.66,3.38-2.66,3.38" transform="translate(-263.444 -208.411)" fill="none" stroke="#263238" stroke-linecap="round" stroke-linejoin="round" stroke-width="1"/>
            <path id="Trazado_668314" data-name="Trazado 668314" d="M311.685,305.944l10.4-7.454-5.992,11.817Z" transform="translate(-263.62 -207.301)" fill="#263238"/>
            <path id="Trazado_668315" data-name="Trazado 668315" d="M311.685,305.944l10.4-7.454-5.992,11.817Z" transform="translate(-263.62 -207.301)" fill="none" stroke="#263238" stroke-linecap="round" stroke-linejoin="round" stroke-width="1"/>
            <path id="Trazado_668316" data-name="Trazado 668316" d="M348.033,242.753c-3.565-22.394-24.553-33.315-44.668-33.154s-32.624,19.1-32.624,19.1a37.646,37.646,0,0,0-5.538,14.784c.37-.339.806-.763,1.328-1.307,4.38-4.548,8.043-12.658,18.064-11.167s3.46,15.313,5.909,20.838,14.412,4.546,16.282,5.218,4.844,10.608,8.446,7.046,2.814-10.179,7.068-12.028,12.384,2.55,13.226,9.609-9.031,18.078-9.031,18.078,8.164,4.4,16.086,4.981a6.526,6.526,0,0,1-.455-1.475c-.315-2.647,9.473-18.132,5.908-40.526" transform="translate(-264.82 -209.597)" fill="#263238"/>
            <path id="Trazado_668317" data-name="Trazado 668317" d="M348.033,242.753c-3.565-22.394-24.553-33.315-44.668-33.154s-32.624,19.1-32.624,19.1a37.646,37.646,0,0,0-5.538,14.784c.37-.339.806-.763,1.328-1.307,4.38-4.548,8.043-12.658,18.064-11.167s3.46,15.313,5.909,20.838,14.412,4.546,16.282,5.218,4.844,10.608,8.446,7.046,2.814-10.179,7.068-12.028,12.384,2.55,13.226,9.609-9.031,18.078-9.031,18.078,8.164,4.4,16.086,4.981a6.526,6.526,0,0,1-.455-1.475C341.81,280.632,351.6,265.147,348.033,242.753Z" transform="translate(-264.82 -209.597)" fill="none" stroke="#263238" stroke-linecap="round" stroke-linejoin="round" stroke-width="1"/>
            <path id="Trazado_668318" data-name="Trazado 668318" d="M340.795,232.023s1.9-14.1,14.693-15.621S378.957,236.87,375.6,246.22s-15.082,16.115-22.245,16.074-11.4-20.565-12.557-30.27" transform="translate(-262.868 -209.423)" fill="#263238"/>
            <path id="Trazado_668319" data-name="Trazado 668319" d="M340.795,232.023s1.9-14.1,14.693-15.621S378.957,236.87,375.6,246.22s-15.082,16.115-22.245,16.074S341.952,241.729,340.795,232.023Z" transform="translate(-262.868 -209.423)" fill="none" stroke="#263238" stroke-linecap="round" stroke-linejoin="round" stroke-width="1"/>
            <path id="Trazado_668320" data-name="Trazado 668320" d="M286.648,297.209s7.552-.453,10.03-9.7" transform="translate(-264.266 -207.585)" fill="none" stroke="#263238" stroke-linecap="round" stroke-linejoin="round" stroke-width="1"/>
            <path id="Trazado_668321" data-name="Trazado 668321" d="M281.621,273.874c.907,1.617,1.1,3.228.44,3.6s-1.937-.636-2.844-2.253-1.1-3.228-.44-3.6,1.937.636,2.844,2.253" transform="translate(-264.48 -207.997)" fill="#263238"/>
            <path id="Trazado_668322" data-name="Trazado 668322" d="M288.333,270.327c2.389,5.65,1.579,11.392-1.811,12.826s-8.075-1.984-10.464-7.633-1.58-11.393,1.811-12.826S285.944,264.677,288.333,270.327Z" transform="translate(-264.576 -208.234)" fill="none" stroke="#263238" stroke-linecap="round" stroke-linejoin="round" stroke-width="1"/>
            <line id="Línea_216" data-name="Línea 216" x1="4.859" y2="2.742" transform="translate(6.622 67.285)" fill="none" stroke="#263238" stroke-linecap="round" stroke-linejoin="round" stroke-width="1"/>
            <line id="Línea_217" data-name="Línea 217" y1="12.557" x2="30.271" transform="translate(22.934 47.918)" fill="none" stroke="#263238" stroke-linecap="round" stroke-linejoin="round" stroke-width="1"/>
            <path id="Trazado_668323" data-name="Trazado 668323" d="M273.019,265.661s.8-5.12,5.95-5.734" transform="translate(-264.619 -208.297)" fill="none" stroke="#263238" stroke-linecap="round" stroke-linejoin="round" stroke-width="2"/>
          </g>
        </g>
        <g id="Grupo_991903" data-name="Grupo 991903" transform="translate(1020 2007.577)">
          <line id="Línea_213" data-name="Línea 213" y1="10.755" x2="3.764" transform="translate(76.324 401.361)" fill="none" stroke="#263238" stroke-linecap="round" stroke-linejoin="round" stroke-width="1"/>
          <g id="Grupo_991902" data-name="Grupo 991902">
            <g id="Grupo_991871" data-name="Grupo 991871">
              <g id="Grupo_991870" data-name="Grupo 991870" clip-path="url(#clip-path-8)">
                <path id="Trazado_668278" data-name="Trazado 668278" d="M69.141,393.828s-5.581-6.088-11.162-5.074-8.117,7.611-8.117,11.669,5.582,17.25,5.582,17.25,4.058-4.566,13.19-11.162,9.64-13.191.508-12.683" transform="translate(1.288 10.039)" fill="#0f58b9"/>
                <path id="Trazado_668279" data-name="Trazado 668279" d="M69.141,393.828s-5.581-6.088-11.162-5.074-8.117,7.611-8.117,11.669,5.582,17.25,5.582,17.25,4.058-4.566,13.19-11.162S78.273,393.32,69.141,393.828Z" transform="translate(1.288 10.039)" fill="none" stroke="#263238" stroke-linecap="round" stroke-linejoin="round" stroke-width="1"/>
                <path id="Trazado_668280" data-name="Trazado 668280" d="M68.937,393.7a27.886,27.886,0,0,0-11.162,11.669" transform="translate(1.492 10.17)" fill="none" stroke="#263238" stroke-linecap="round" stroke-linejoin="round" stroke-width="1"/>
                <path id="Trazado_668281" data-name="Trazado 668281" d="M77.657,386.836s4.611-5,9.207-4.156,6.672,6.287,6.663,9.632-4.636,14.2-4.636,14.2a72.549,72.549,0,0,0-10.843-9.224c-7.51-5.453-7.913-10.889-.391-10.451" transform="translate(1.865 9.883)" fill="#0f58b9"/>
                <path id="Trazado_668282" data-name="Trazado 668282" d="M77.657,386.836s4.611-5,9.207-4.156,6.672,6.287,6.663,9.632-4.636,14.2-4.636,14.2a72.549,72.549,0,0,0-10.843-9.224C70.538,391.834,70.135,386.4,77.657,386.836Z" transform="translate(1.865 9.883)" fill="none" stroke="#263238" stroke-linecap="round" stroke-linejoin="round" stroke-width="1"/>
                <path id="Trazado_668283" data-name="Trazado 668283" d="M77.52,386.729a22.973,22.973,0,0,1,9.171,9.638" transform="translate(2.002 9.99)" fill="none" stroke="#263238" stroke-linecap="round" stroke-linejoin="round" stroke-width="1"/>
                <line id="Línea_215" data-name="Línea 215" y1="10.216" x2="6.99" transform="translate(75.786 379.853)" fill="none" stroke="#263238" stroke-linecap="round" stroke-linejoin="round" stroke-width="1"/>
                <path id="Trazado_668284" data-name="Trazado 668284" d="M73.278,377.622s-.114-6.8-4.109-9.227-9.164.256-11.383,2.76S51.8,384.84,51.8,384.84a72.614,72.614,0,0,1,14.233.326c9.235.923,13.152-2.866,7.243-7.544" transform="translate(1.338 9.492)" fill="#0f58b9"/>
                <path id="Trazado_668285" data-name="Trazado 668285" d="M73.278,377.622s-.114-6.8-4.109-9.227-9.164.256-11.383,2.76S51.8,384.84,51.8,384.84a72.614,72.614,0,0,1,14.233.326C75.269,386.09,79.187,382.3,73.278,377.622Z" transform="translate(1.338 9.492)" fill="none" stroke="#263238" stroke-linecap="round" stroke-linejoin="round" stroke-width="1"/>
                <path id="Trazado_668286" data-name="Trazado 668286" d="M73.071,377.379a22.973,22.973,0,0,0-13.259,1.1" transform="translate(1.545 9.735)" fill="none" stroke="#263238" stroke-linecap="round" stroke-linejoin="round" stroke-width="1"/>
                <path id="Trazado_668287" data-name="Trazado 668287" d="M78.648,368.665s.084-5.008,3.025-6.792,6.746.189,8.378,2.031,4.406,10.074,4.406,10.074a53.4,53.4,0,0,0-10.477.24c-6.8.68-9.682-2.11-5.332-5.553" transform="translate(1.978 9.33)" fill="#624894"/>
                <path id="Trazado_668288" data-name="Trazado 668288" d="M78.648,368.665s.084-5.008,3.025-6.792,6.746.189,8.378,2.031,4.406,10.074,4.406,10.074a53.4,53.4,0,0,0-10.477.24C77.182,374.9,74.3,372.107,78.648,368.665Z" transform="translate(1.978 9.33)" fill="#0f58b9" stroke="#263238" stroke-linecap="round" stroke-linejoin="round" stroke-width="1"/>
                <path id="Trazado_668289" data-name="Trazado 668289" d="M78.6,368.485a16.909,16.909,0,0,1,9.76.806" transform="translate(2.03 9.509)" fill="none" stroke="#263238" stroke-linecap="round" stroke-linejoin="round" stroke-width="1"/>
                <path id="Trazado_668290" data-name="Trazado 668290" d="M92.226,409.132H56.188l3.652,37.52H88.574Z" transform="translate(1.451 10.569)" fill="#fff"/>
                <path id="Trazado_668291" data-name="Trazado 668291" d="M92.226,409.132H56.188l3.652,37.52H88.574Z" transform="translate(1.451 10.569)" fill="none" stroke="#263238" stroke-linecap="round" stroke-linejoin="round" stroke-width="1"/>
                <path id="Trazado_668292" data-name="Trazado 668292" d="M82,425.1a1.613,1.613,0,1,0,1.614-1.614A1.613,1.613,0,0,0,82,425.1" transform="translate(2.118 10.94)" fill="#263238"/>
                <path id="Trazado_668293" data-name="Trazado 668293" d="M82,425.1a1.613,1.613,0,1,0,1.614-1.614A1.613,1.613,0,0,0,82,425.1Z" transform="translate(2.118 10.94)" fill="none" stroke="#263238" stroke-linecap="round" stroke-linejoin="round" stroke-width="1"/>
                <path id="Trazado_668294" data-name="Trazado 668294" d="M76.237,425.1a1.613,1.613,0,1,0,1.614-1.614,1.613,1.613,0,0,0-1.614,1.614" transform="translate(1.969 10.94)" fill="#263238"/>
                <path id="Trazado_668295" data-name="Trazado 668295" d="M76.237,425.1a1.613,1.613,0,1,0,1.614-1.614A1.613,1.613,0,0,0,76.237,425.1Z" transform="translate(1.969 10.94)" fill="none" stroke="#263238" stroke-linecap="round" stroke-linejoin="round" stroke-width="1"/>
                <path id="Trazado_668296" data-name="Trazado 668296" d="M57.359,421.173H91l.157-1.614H57.2Z" transform="translate(1.478 10.838)" fill="#263238"/>
                <path id="Trazado_668297" data-name="Trazado 668297" d="M57.359,421.173H91l.157-1.614H57.2Z" transform="translate(1.478 10.838)" fill="none" stroke="#263238" stroke-linecap="round" stroke-linejoin="round" stroke-width="1"/>
                <path id="Trazado_668298" data-name="Trazado 668298" d="M89.54,435.724l.68-6.99H58.095l.681,6.99Z" transform="translate(1.501 11.075)" fill="#263238"/>
                <path id="Trazado_668299" data-name="Trazado 668299" d="M89.54,435.724l.68-6.99H58.095l.681,6.99Z" transform="translate(1.501 11.075)" fill="none" stroke="#263238" stroke-linecap="round" stroke-linejoin="round" stroke-width="1"/>
                <path id="Trazado_668300" data-name="Trazado 668300" d="M87.769,425.1a1.6,1.6,0,0,0,1.9,1.585l.3-3.085a1.593,1.593,0,0,0-.584-.114,1.614,1.614,0,0,0-1.613,1.614" transform="translate(2.267 10.94)" fill="#263238"/>
                <path id="Trazado_668301" data-name="Trazado 668301" d="M87.769,425.1a1.6,1.6,0,0,0,1.9,1.585l.3-3.085a1.593,1.593,0,0,0-.584-.114A1.614,1.614,0,0,0,87.769,425.1Z" transform="translate(2.267 10.94)" fill="none" stroke="#263238" stroke-linecap="round" stroke-linejoin="round" stroke-width="1"/>
                <path id="Trazado_668302" data-name="Trazado 668302" d="M70.471,425.1a1.613,1.613,0,1,0,1.613-1.614,1.613,1.613,0,0,0-1.613,1.614" transform="translate(1.82 10.94)" fill="#263238"/>
                <path id="Trazado_668303" data-name="Trazado 668303" d="M70.471,425.1a1.613,1.613,0,1,0,1.613-1.614A1.613,1.613,0,0,0,70.471,425.1Z" transform="translate(1.82 10.94)" fill="none" stroke="#263238" stroke-linecap="round" stroke-linejoin="round" stroke-width="1"/>
                <path id="Trazado_668304" data-name="Trazado 668304" d="M58.939,425.1a1.613,1.613,0,1,0,1.613-1.614,1.613,1.613,0,0,0-1.613,1.614" transform="translate(1.522 10.94)" fill="#263238"/>
                <path id="Trazado_668305" data-name="Trazado 668305" d="M58.939,425.1a1.613,1.613,0,1,0,1.613-1.614A1.613,1.613,0,0,0,58.939,425.1Z" transform="translate(1.522 10.94)" fill="none" stroke="#263238" stroke-linecap="round" stroke-linejoin="round" stroke-width="1"/>
                <path id="Trazado_668306" data-name="Trazado 668306" d="M64.705,425.1a1.613,1.613,0,1,0,1.614-1.614,1.613,1.613,0,0,0-1.614,1.614" transform="translate(1.671 10.94)" fill="#263238"/>
                <path id="Trazado_668307" data-name="Trazado 668307" d="M64.705,425.1a1.613,1.613,0,1,0,1.614-1.614A1.613,1.613,0,0,0,64.705,425.1Z" transform="translate(1.671 10.94)" fill="none" stroke="#263238" stroke-linecap="round" stroke-linejoin="round" stroke-width="1"/>
              </g>
            </g>
            <g id="Grupo_991901-2" data-name="Grupo 991901" transform="translate(41.577 383.078)">
              <g id="Grupo_991900-2" data-name="Grupo 991900">
                <line id="Línea_214" data-name="Línea 214" y2="40.06" transform="translate(35.016)" fill="none" stroke="#263238" stroke-linecap="round" stroke-linejoin="round" stroke-width="1"/>
                <rect id="Rectángulo_344912" data-name="Rectángulo 344912" width="3.048" height="65.714" transform="translate(50.797 5.211) rotate(-13.545)" fill="#263238"/>
                <rect id="Rectángulo_344913" data-name="Rectángulo 344913" width="3.048" height="65.714" transform="translate(50.797 5.211) rotate(-13.545)" fill="none" stroke="#263238" stroke-linecap="round" stroke-linejoin="round" stroke-width="1"/>
                <rect id="Rectángulo_344914" data-name="Rectángulo 344914" width="76.554" height="5.081" transform="translate(67.256 68.299)" fill="#263238"/>
                <rect id="Rectángulo_344915" data-name="Rectángulo 344915" width="76.554" height="5.081" transform="translate(67.256 68.299)" fill="none" stroke="#263238" stroke-linecap="round" stroke-linejoin="round" stroke-width="1"/>
                <rect id="Rectángulo_344926" data-name="Rectángulo 344926" width="240.407" height="10.954" transform="translate(5 73.601)" fill="#0f58b9"/>
              </g>
            </g>
          </g>
        </g>
      </g>
    </g>
    <g id="Grupo_991915" data-name="Grupo 991915" transform="translate(1051.661 1111.179)">
      <rect id="Rectángulo_344948" data-name="Rectángulo 344948" width="193.549" height="143.967" transform="translate(0.5 0.5)" fill="#263238"/>
      <g id="Grupo_991910" data-name="Grupo 991910">
        <g id="Grupo_991909" data-name="Grupo 991909" clip-path="url(#clip-path-13)">
          <rect id="Rectángulo_344949" data-name="Rectángulo 344949" width="193.549" height="143.967" transform="translate(0.5 0.5)" fill="none" stroke="#263238" stroke-linecap="round" stroke-linejoin="round" stroke-width="1"/>
        </g>
      </g>
      <rect id="Rectángulo_344951" data-name="Rectángulo 344951" width="189.826" height="141.197" transform="translate(2.362 1.885)" fill="#fff"/>
      <g id="Grupo_991912" data-name="Grupo 991912">
        <g id="Grupo_991911" data-name="Grupo 991911" clip-path="url(#clip-path-13)">
          <rect id="Rectángulo_344952" data-name="Rectángulo 344952" width="189.826" height="141.197" transform="translate(2.362 1.885)" fill="none" stroke="#263238" stroke-linecap="round" stroke-linejoin="round" stroke-width="1"/>
        </g>
      </g>
      <line id="Línea_220" data-name="Línea 220" x1="20.694" transform="translate(162.281 112.437)" fill="none" stroke="#263238" stroke-linecap="round" stroke-linejoin="round" stroke-width="1"/>
      <line id="Línea_221" data-name="Línea 221" x1="20.694" transform="translate(162.281 107.838)" fill="none" stroke="#263238" stroke-linecap="round" stroke-linejoin="round" stroke-width="1"/>
      <line id="Línea_222" data-name="Línea 222" x1="20.694" transform="translate(162.281 103.239)" fill="none" stroke="#263238" stroke-linecap="round" stroke-linejoin="round" stroke-width="1"/>
      <line id="Línea_223" data-name="Línea 223" x1="20.694" transform="translate(36.746 20.339)" fill="none" stroke="#263238" stroke-linecap="round" stroke-linejoin="round" stroke-width="1"/>
      <line id="Línea_224" data-name="Línea 224" x1="20.694" transform="translate(36.746 15.74)" fill="none" stroke="#263238" stroke-linecap="round" stroke-linejoin="round" stroke-width="1"/>
      <line id="Línea_225" data-name="Línea 225" x1="20.694" transform="translate(36.746 11.142)" fill="none" stroke="#263238" stroke-linecap="round" stroke-linejoin="round" stroke-width="1"/>
      <line id="Línea_226" data-name="Línea 226" x1="20.694" transform="translate(162.281 46.15)" fill="none" stroke="#263238" stroke-linecap="round" stroke-linejoin="round" stroke-width="1"/>
      <line id="Línea_227" data-name="Línea 227" x1="20.694" transform="translate(162.281 41.551)" fill="none" stroke="#263238" stroke-linecap="round" stroke-linejoin="round" stroke-width="1"/>
      <line id="Línea_228" data-name="Línea 228" x1="20.694" transform="translate(162.281 36.952)" fill="none" stroke="#263238" stroke-linecap="round" stroke-linejoin="round" stroke-width="1"/>
      <g id="Grupo_991914" data-name="Grupo 991914">
        <g id="Grupo_991913" data-name="Grupo 991913" clip-path="url(#clip-path-13)">
          <path id="Trazado_668353" data-name="Trazado 668353" d="M127.526,120.656a48.1,48.1,0,1,0-48.1-48.1,48.1,48.1,0,0,0,48.1,48.1m0-67.414a19.311,19.311,0,1,1-19.311,19.311,19.311,19.311,0,0,1,19.311-19.311" transform="translate(-60.503 -0.14)" fill="#fff"/>
          <path id="Trazado_668354" data-name="Trazado 668354" d="M127.526,120.656a48.1,48.1,0,1,0-48.1-48.1A48.1,48.1,0,0,0,127.526,120.656Zm0-67.414a19.311,19.311,0,1,1-19.311,19.311A19.311,19.311,0,0,1,127.526,53.242Z" transform="translate(-60.503 -0.14)" fill="none" stroke="#263238" stroke-linecap="round" stroke-linejoin="round" stroke-width="1"/>
          <path id="Trazado_668355" data-name="Trazado 668355" d="M92.329,18l35.2,45.169-21.118,9.386Z" transform="translate(-25.306 54.415)" fill="#92e3a9"/>
          <path id="Trazado_668356" data-name="Trazado 668356" d="M92.329,18l35.2,45.169-21.118,9.386Z" transform="translate(-25.306 54.415)" fill="#0f58b9" stroke="#263238" stroke-linecap="round" stroke-linejoin="round" stroke-width="1"/>
          <path id="Trazado_668357" data-name="Trazado 668357" d="M82.944,118.9l44.582-38.13-10.559-8.212Z" transform="translate(-15.921 -46.482)" fill="#0f58b9"/>
          <path id="Trazado_668358" data-name="Trazado 668358" d="M82.944,118.9l44.582-38.13-10.559-8.212Z" transform="translate(-15.921 -46.482)" fill="none" stroke="#263238" stroke-linecap="round" stroke-linejoin="round" stroke-width="1"/>
          <path id="Trazado_668359" data-name="Trazado 668359" d="M185.6,118.9,142.778,72.553l-15.252,38.129Z" transform="translate(-118.578 -46.482)" fill="#0f58b9"/>
          <path id="Trazado_668360" data-name="Trazado 668360" d="M185.6,118.9,142.778,72.553l-15.252,38.129Z" transform="translate(-118.578 -46.482)" fill="none" stroke="#263238" stroke-linecap="round" stroke-linejoin="round" stroke-width="1"/>
          <path id="Trazado_668361" data-name="Trazado 668361" d="M19.59,20.932,22.523,26.8H96.436V15.066" transform="translate(78.524 103.104)" fill="#fff"/>
          <path id="Trazado_668362" data-name="Trazado 668362" d="M19.59,20.932,22.523,26.8H96.436V15.066" transform="translate(78.524 103.104)" fill="none" stroke="#263238" stroke-linecap="round" stroke-linejoin="round" stroke-width="1"/>
          <path id="Trazado_668363" data-name="Trazado 668363" d="M19.589,119.482l5.866-5.866H83.53V123" transform="translate(91.43 -91.651)" fill="#fff"/>
          <path id="Trazado_668364" data-name="Trazado 668364" d="M19.589,119.482l5.866-5.866H83.53V123" transform="translate(91.43 -91.651)" fill="none" stroke="#263238" stroke-linecap="round" stroke-linejoin="round" stroke-width="1"/>
          <line id="Línea_229" data-name="Línea 229" y1="26.984" transform="translate(32.413 15.512)" fill="#fff"/>
          <line id="Línea_230" data-name="Línea 230" y1="26.984" transform="translate(32.413 15.512)" fill="none" stroke="#263238" stroke-linecap="round" stroke-linejoin="round" stroke-width="1"/>
        </g>
      </g>
    </g>
    <path id="Trazado_638237" data-name="Trazado 638237" d="M639.873,201.395V191.91a4.357,4.357,0,0,0-4.357-4.356h0a4.327,4.327,0,0,1-4.081-2.846q-.578-1.61-1.309-3.158a4.328,4.328,0,0,1,.875-4.9h0a4.357,4.357,0,0,0,0-6.161l-6.706-6.707a4.357,4.357,0,0,0-6.161,0h0a4.324,4.324,0,0,1-4.9.874q-1.547-.73-3.159-1.308a4.327,4.327,0,0,1-2.846-4.081h0a4.356,4.356,0,0,0-4.356-4.356h-9.486a4.357,4.357,0,0,0-4.357,4.356h0a4.326,4.326,0,0,1-2.845,4.081q-1.61.578-3.157,1.308a4.326,4.326,0,0,1-4.9-.874h0a4.356,4.356,0,0,0-6.161,0l-6.707,6.707a4.357,4.357,0,0,0,0,6.161,4.327,4.327,0,0,1,.874,4.9q-.731,1.546-1.309,3.158a4.326,4.326,0,0,1-4.081,2.846,4.356,4.356,0,0,0-4.357,4.356v9.485a4.356,4.356,0,0,0,4.357,4.357,4.326,4.326,0,0,1,4.081,2.846q.578,1.61,1.309,3.158a4.325,4.325,0,0,1-.874,4.9h0a4.355,4.355,0,0,0,0,6.16l6.707,6.707a4.356,4.356,0,0,0,6.161,0h0a4.326,4.326,0,0,1,4.9-.874q1.546.73,3.157,1.308a4.326,4.326,0,0,1,2.845,4.081,4.357,4.357,0,0,0,4.357,4.357h9.486a4.356,4.356,0,0,0,4.356-4.357,4.327,4.327,0,0,1,2.846-4.081q1.61-.576,3.159-1.308a4.324,4.324,0,0,1,4.9.874h0a4.357,4.357,0,0,0,6.161,0L631,222.814a4.355,4.355,0,0,0,0-6.16h0a4.326,4.326,0,0,1-.875-4.9q.731-1.547,1.309-3.158a4.327,4.327,0,0,1,4.081-2.846h0a4.357,4.357,0,0,0,4.357-4.357m-29.324,7.853h0a17.56,17.56,0,1,1,5.143-12.417,17.56,17.56,0,0,1-5.143,12.417" transform="translate(732.874 914.526)" fill="#2165be"/>
    <path id="Trazado_638293" data-name="Trazado 638293" d="M562.866,260.572v-5.425a2.492,2.492,0,0,0-2.492-2.492h0a2.474,2.474,0,0,1-2.334-1.628q-.331-.92-.748-1.806a2.475,2.475,0,0,1,.5-2.8h0a2.49,2.49,0,0,0,0-3.523l-3.836-3.836a2.491,2.491,0,0,0-3.524,0,2.475,2.475,0,0,1-2.8.5q-.884-.419-1.807-.749a2.476,2.476,0,0,1-1.628-2.335,2.491,2.491,0,0,0-2.492-2.492h-5.425a2.491,2.491,0,0,0-2.492,2.492,2.474,2.474,0,0,1-1.627,2.335q-.921.329-1.806.748a2.473,2.473,0,0,1-2.8-.5h0a2.49,2.49,0,0,0-3.523,0l-3.836,3.836a2.49,2.49,0,0,0,0,3.523,2.475,2.475,0,0,1,.5,2.8q-.417.886-.749,1.807a2.473,2.473,0,0,1-2.334,1.628,2.491,2.491,0,0,0-2.492,2.492v5.425a2.491,2.491,0,0,0,2.492,2.492,2.474,2.474,0,0,1,2.334,1.627q.331.921.749,1.807a2.475,2.475,0,0,1-.5,2.8,2.491,2.491,0,0,0,0,3.524l3.836,3.836a2.491,2.491,0,0,0,3.523,0h0a2.473,2.473,0,0,1,2.8-.5q.884.417,1.806.748a2.474,2.474,0,0,1,1.627,2.335,2.492,2.492,0,0,0,2.492,2.492H541.7a2.492,2.492,0,0,0,2.492-2.492,2.475,2.475,0,0,1,1.628-2.335q.921-.331,1.807-.749a2.475,2.475,0,0,1,2.8.5,2.493,2.493,0,0,0,3.524,0l3.836-3.836a2.491,2.491,0,0,0,0-3.524,2.475,2.475,0,0,1-.5-2.8q.417-.884.748-1.807a2.475,2.475,0,0,1,2.334-1.627h0a2.492,2.492,0,0,0,2.492-2.492m-16.772,4.491h0a10.043,10.043,0,1,1,2.942-7.1,10.045,10.045,0,0,1-2.942,7.1" transform="translate(829.09 911.549)" fill="#6594d2"/>
    <g id="Grupo_991916" data-name="Grupo 991916" transform="translate(1127 1182.663)">
      <g id="Enmascarar_grupo_991933" data-name="Enmascarar grupo 991933" clip-path="url(#clip-path-16)">
        <path id="Trazado_668365" data-name="Trazado 668365" d="M0,0V167.987H212.036V9.333H57.366L51.516,0Z" fill="#263238"/>
        <rect id="Rectángulo_344955" data-name="Rectángulo 344955" width="209.063" height="150.99" transform="translate(1.577 13.614)" fill="#fff"/>
        <g id="Grupo_991923" data-name="Grupo 991923">
          <g id="Grupo_991922" data-name="Grupo 991922" clip-path="url(#clip-path-17)">
            <g id="Grupo_991918" data-name="Grupo 991918" opacity="0.17">
              <g id="Grupo_991917" data-name="Grupo 991917">
                <g id="Grupo_991916-2" data-name="Grupo 991916" clip-path="url(#clip-path-18)">
                  <rect id="Rectángulo_344956" data-name="Rectángulo 344956" width="4.853" height="153.428" transform="translate(206.81 12.318)"/>
                </g>
              </g>
            </g>
            <g id="Grupo_991921" data-name="Grupo 991921" opacity="0.17">
              <g id="Grupo_991920" data-name="Grupo 991920">
                <g id="Grupo_991919" data-name="Grupo 991919" clip-path="url(#clip-path-19)">
                  <rect id="Rectángulo_344958" data-name="Rectángulo 344958" width="4.853" height="59.417" transform="translate(206.81 105.084)"/>
                </g>
              </g>
            </g>
          </g>
        </g>
        <path id="Trazado_668419" data-name="Trazado 668419" d="M0,0H209.063V6.171H0Z" transform="translate(1.577 13.614)" fill="#0f58b9"/>
        <g id="Grupo_991925" data-name="Grupo 991925">
          <g id="Grupo_991924" data-name="Grupo 991924" clip-path="url(#clip-path-17)">
            <rect id="Rectángulo_344962" data-name="Rectángulo 344962" width="210.17" height="8.213" transform="translate(0.746 11.572)" fill="none" stroke="#263238" stroke-miterlimit="10" stroke-width="1"/>
          </g>
        </g>
        <g id="Grupo_991930" data-name="Grupo 991930">
          <g id="Grupo_991929" data-name="Grupo 991929" clip-path="url(#clip-path-16)">
            <rect id="Rectángulo_344964" data-name="Rectángulo 344964" width="209.063" height="150.99" transform="translate(1.577 13.614)" fill="none" stroke="#263238" stroke-linecap="round" stroke-linejoin="round" stroke-width="1"/>
            <g id="Grupo_991928" data-name="Grupo 991928" opacity="0.17">
              <g id="Grupo_991927" data-name="Grupo 991927">
                <g id="Grupo_991926" data-name="Grupo 991926" clip-path="url(#clip-path-22)">
                  <path id="Trazado_668366" data-name="Trazado 668366" d="M110.5,27.7H95.876a1.29,1.29,0,0,1,0-2.581H110.5a1.29,1.29,0,1,1,0,2.581"/>
                  <path id="Trazado_668367" data-name="Trazado 668367" d="M139.754,27.7H125.128a1.29,1.29,0,0,1,0-2.581h14.626a1.29,1.29,0,1,1,0,2.581"/>
                  <path id="Trazado_668368" data-name="Trazado 668368" d="M169.006,27.7H154.38a1.29,1.29,0,0,1,0-2.581h14.626a1.29,1.29,0,0,1,0,2.581"/>
                  <path id="Trazado_668369" data-name="Trazado 668369" d="M198.258,27.7H183.632a1.29,1.29,0,0,1,0-2.581h14.626a1.29,1.29,0,0,1,0,2.581"/>
                </g>
              </g>
            </g>
          </g>
        </g>
        <line id="Línea_231" data-name="Línea 231" x2="188.322" transform="translate(12.981 100.385)" fill="none" stroke="#263238" stroke-miterlimit="10" stroke-width="0.5"/>
        <line id="Línea_232" data-name="Línea 232" y1="1.456" transform="translate(12.981 98.929)" fill="none" stroke="#263238" stroke-miterlimit="10" stroke-width="0.5"/>
        <line id="Línea_233" data-name="Línea 233" y1="1.456" transform="translate(36.521 98.929)" fill="none" stroke="#263238" stroke-miterlimit="10" stroke-width="0.5"/>
        <line id="Línea_234" data-name="Línea 234" y1="1.456" transform="translate(60.061 98.929)" fill="none" stroke="#263238" stroke-miterlimit="10" stroke-width="0.5"/>
        <line id="Línea_235" data-name="Línea 235" y1="1.456" transform="translate(83.602 98.929)" fill="none" stroke="#263238" stroke-miterlimit="10" stroke-width="0.5"/>
        <line id="Línea_236" data-name="Línea 236" y1="1.456" transform="translate(107.142 98.929)" fill="none" stroke="#263238" stroke-miterlimit="10" stroke-width="0.5"/>
        <line id="Línea_237" data-name="Línea 237" y1="1.456" transform="translate(130.682 98.929)" fill="none" stroke="#263238" stroke-miterlimit="10" stroke-width="0.5"/>
        <line id="Línea_238" data-name="Línea 238" y1="1.456" transform="translate(154.222 98.929)" fill="none" stroke="#263238" stroke-miterlimit="10" stroke-width="0.5"/>
        <line id="Línea_239" data-name="Línea 239" y1="1.456" transform="translate(177.762 98.929)" fill="none" stroke="#263238" stroke-miterlimit="10" stroke-width="0.5"/>
        <line id="Línea_240" data-name="Línea 240" y1="1.456" transform="translate(201.303 98.929)" fill="none" stroke="#263238" stroke-miterlimit="10" stroke-width="0.5"/>
        <line id="Línea_241" data-name="Línea 241" x1="23.54" y2="7.279" transform="translate(24.751 85.207)" fill="none" stroke="#263238" stroke-linecap="round" stroke-miterlimit="10" stroke-width="2"/>
        <line id="Línea_242" data-name="Línea 242" x1="23.54" y2="16.015" transform="translate(48.291 69.192)" fill="none" stroke="#263238" stroke-linecap="round" stroke-miterlimit="10" stroke-width="2"/>
        <line id="Línea_243" data-name="Línea 243" x1="23.54" y2="21.838" transform="translate(71.832 47.354)" fill="none" stroke="#263238" stroke-linecap="round" stroke-miterlimit="10" stroke-width="2"/>
        <line id="Línea_244" data-name="Línea 244" x1="23.54" y2="2.184" transform="translate(95.372 45.17)" fill="none" stroke="#263238" stroke-linecap="round" stroke-miterlimit="10" stroke-width="2"/>
        <line id="Línea_245" data-name="Línea 245" x1="23.54" y1="16.015" transform="translate(118.912 45.17)" fill="none" stroke="#263238" stroke-linecap="round" stroke-miterlimit="10" stroke-width="2"/>
        <line id="Línea_246" data-name="Línea 246" x1="23.54" y1="15.287" transform="translate(142.452 61.185)" fill="none" stroke="#263238" stroke-linecap="round" stroke-miterlimit="10" stroke-width="2"/>
        <line id="Línea_247" data-name="Línea 247" x1="23.54" y2="32.029" transform="translate(165.993 44.442)" fill="none" stroke="#263238" stroke-linecap="round" stroke-miterlimit="10" stroke-width="2"/>
        <g id="Grupo_991932" data-name="Grupo 991932">
          <g id="Enmascarar_grupo_991931" data-name="Enmascarar grupo 991931" clip-path="url(#clip-path-23)">
            <path id="Trazado_668370" data-name="Trazado 668370" d="M24.751,89.486h0a3,3,0,1,1-3,3,3,3,0,0,1,3-3" fill="#c6ff00"/>
            <path id="Trazado_668371" data-name="Trazado 668371" d="M24.751,89.486h0a3,3,0,1,1-3,3A3,3,0,0,1,24.751,89.486Z" fill="#0f58b9" stroke="#263238" stroke-miterlimit="10" stroke-width="1"/>
            <path id="Trazado_668372" data-name="Trazado 668372" d="M48.291,82.207h0a3,3,0,1,1-3,3,3,3,0,0,1,3-3" fill="#0f58b9"/>
            <path id="Trazado_668373" data-name="Trazado 668373" d="M48.291,82.207h0a3,3,0,1,1-3,3A3,3,0,0,1,48.291,82.207Z" fill="none" stroke="#263238" stroke-miterlimit="10" stroke-width="1"/>
            <path id="Trazado_668374" data-name="Trazado 668374" d="M71.831,66.192h0a3,3,0,1,1-3,3,3,3,0,0,1,3-3" fill="#0f58b9"/>
            <path id="Trazado_668375" data-name="Trazado 668375" d="M71.831,66.192h0a3,3,0,1,1-3,3A3,3,0,0,1,71.831,66.192Z" fill="none" stroke="#263238" stroke-miterlimit="10" stroke-width="1"/>
            <path id="Trazado_668376" data-name="Trazado 668376" d="M95.372,44.354h0a3,3,0,1,1-3,3,3,3,0,0,1,3-3" fill="#0f58b9"/>
            <path id="Trazado_668377" data-name="Trazado 668377" d="M95.372,44.354h0a3,3,0,1,1-3,3A3,3,0,0,1,95.372,44.354Z" fill="none" stroke="#263238" stroke-miterlimit="10" stroke-width="1"/>
            <path id="Trazado_668378" data-name="Trazado 668378" d="M118.912,42.17h0a3,3,0,1,1-3,3,3,3,0,0,1,3-3" fill="#0f58b9"/>
            <path id="Trazado_668379" data-name="Trazado 668379" d="M118.912,42.17h0a3,3,0,1,1-3,3A3,3,0,0,1,118.912,42.17Z" fill="none" stroke="#263238" stroke-miterlimit="10" stroke-width="1"/>
            <path id="Trazado_668380" data-name="Trazado 668380" d="M142.452,58.185h0a3,3,0,1,1-3,3,3,3,0,0,1,3-3" fill="#0f58b9"/>
            <path id="Trazado_668381" data-name="Trazado 668381" d="M142.452,58.185h0a3,3,0,1,1-3,3A3,3,0,0,1,142.452,58.185Z" fill="none" stroke="#263238" stroke-miterlimit="10" stroke-width="1"/>
            <path id="Trazado_668382" data-name="Trazado 668382" d="M165.992,73.472h0a3,3,0,1,1-3,3,3,3,0,0,1,3-3" fill="#0f58b9"/>
            <path id="Trazado_668383" data-name="Trazado 668383" d="M165.992,73.472h0a3,3,0,1,1-3,3A3,3,0,0,1,165.992,73.472Z" fill="none" stroke="#263238" stroke-miterlimit="10" stroke-width="1"/>
            <path id="Trazado_668384" data-name="Trazado 668384" d="M189.533,41.442h0a3,3,0,1,1-3,3,3,3,0,0,1,3-3" fill="#0f58b9"/>
            <path id="Trazado_668385" data-name="Trazado 668385" d="M189.533,41.442h0a3,3,0,1,1-3,3A3,3,0,0,1,189.533,41.442Z" fill="none" stroke="#263238" stroke-miterlimit="10" stroke-width="1"/>
            <path id="Trazado_668386" data-name="Trazado 668386" d="M100.326,138.157l-21.16,3.731A21.487,21.487,0,0,1,96.6,117a22.016,22.016,0,0,1,3.731-.326Z" fill="#263238"/>
            <path id="Trazado_668387" data-name="Trazado 668387" d="M100.326,138.157l-21.16,3.731A21.487,21.487,0,0,1,96.6,117a22.016,22.016,0,0,1,3.731-.326Z" fill="none" stroke="#263238" stroke-linecap="round" stroke-linejoin="round" stroke-width="1"/>
            <path id="Trazado_668388" data-name="Trazado 668388" d="M100.326,138.157,87.1,155.088a20.444,20.444,0,0,1-7.932-13.2Z" fill="#0f58b9"/>
            <path id="Trazado_668389" data-name="Trazado 668389" d="M100.326,138.157,87.1,155.088a20.444,20.444,0,0,1-7.932-13.2Z" fill="none" stroke="#263238" stroke-miterlimit="10" stroke-width="1"/>
            <path id="Trazado_668390" data-name="Trazado 668390" d="M100.326,138.157l18.608-10.743a21.487,21.487,0,0,1-7.865,29.351A21.134,21.134,0,0,1,87.1,155.088Z" fill="#fff"/>
            <path id="Trazado_668391" data-name="Trazado 668391" d="M100.326,138.157l18.608-10.743a21.487,21.487,0,0,1-7.865,29.351A21.134,21.134,0,0,1,87.1,155.088Z" fill="none" stroke="#263238" stroke-linecap="round" stroke-linejoin="round" stroke-width="1"/>
            <path id="Trazado_668392" data-name="Trazado 668392" d="M100.326,138.157V116.671a20.874,20.874,0,0,1,18.608,10.743Z" fill="#0f58b9"/>
            <path id="Trazado_668393" data-name="Trazado 668393" d="M100.326,138.157V116.671a20.874,20.874,0,0,1,18.608,10.743Z" fill="none" stroke="#263238" stroke-miterlimit="10" stroke-width="1"/>
            <path id="Trazado_668394" data-name="Trazado 668394" d="M110.8,138.157a10.476,10.476,0,1,0-10.476,10.476A10.476,10.476,0,0,0,110.8,138.157" fill="#fff"/>
            <path id="Trazado_668395" data-name="Trazado 668395" d="M110.8,138.157a10.476,10.476,0,1,0-10.476,10.476A10.476,10.476,0,0,0,110.8,138.157Z" fill="none" stroke="#263238" stroke-linecap="round" stroke-linejoin="round" stroke-width="1"/>
            <path id="Trazado_668396" data-name="Trazado 668396" d="M36.77,138.193,40.5,159.354a21.489,21.489,0,0,1-24.891-17.43,22.015,22.015,0,0,1-.326-3.731Z" fill="#263238"/>
            <path id="Trazado_668397" data-name="Trazado 668397" d="M36.77,138.193,40.5,159.354a21.489,21.489,0,0,1-24.891-17.43,22.015,22.015,0,0,1-.326-3.731Z" fill="none" stroke="#263238" stroke-linecap="round" stroke-linejoin="round" stroke-width="1"/>
            <path id="Trazado_668398" data-name="Trazado 668398" d="M36.77,138.193,53.7,151.422a20.444,20.444,0,0,1-13.2,7.932Z" fill="#0f58b9"/>
            <path id="Trazado_668399" data-name="Trazado 668399" d="M36.77,138.193,53.7,151.422a20.444,20.444,0,0,1-13.2,7.932Z" fill="none" stroke="#263238" stroke-miterlimit="10" stroke-width="1"/>
            <path id="Trazado_668400" data-name="Trazado 668400" d="M36.77,138.193,26.027,119.586a21.486,21.486,0,0,1,29.351,7.865A21.134,21.134,0,0,1,53.7,151.422Z" fill="#fff"/>
            <path id="Trazado_668401" data-name="Trazado 668401" d="M36.77,138.193,26.027,119.586a21.486,21.486,0,0,1,29.351,7.865A21.134,21.134,0,0,1,53.7,151.422Z" fill="none" stroke="#263238" stroke-linecap="round" stroke-linejoin="round" stroke-width="1"/>
            <path id="Trazado_668402" data-name="Trazado 668402" d="M36.77,138.193H15.284a20.873,20.873,0,0,1,10.743-18.607Z" fill="#0f58b9"/>
            <path id="Trazado_668403" data-name="Trazado 668403" d="M36.77,138.193H15.284a20.873,20.873,0,0,1,10.743-18.607Z" fill="none" stroke="#263238" stroke-miterlimit="10" stroke-width="1"/>
            <path id="Trazado_668404" data-name="Trazado 668404" d="M36.77,127.718a10.476,10.476,0,1,0,10.476,10.476A10.476,10.476,0,0,0,36.77,127.718" fill="#fff"/>
            <path id="Trazado_668405" data-name="Trazado 668405" d="M36.77,127.718a10.476,10.476,0,1,0,10.476,10.476A10.476,10.476,0,0,0,36.77,127.718Z" fill="none" stroke="#263238" stroke-linecap="round" stroke-linejoin="round" stroke-width="1"/>
            <path id="Trazado_668406" data-name="Trazado 668406" d="M163.81,138.193l3.731,21.161a21.489,21.489,0,0,1-24.891-17.43,22.016,22.016,0,0,1-.326-3.731Z" fill="#263238"/>
            <path id="Trazado_668407" data-name="Trazado 668407" d="M163.81,138.193l3.731,21.161a21.489,21.489,0,0,1-24.891-17.43,22.016,22.016,0,0,1-.326-3.731Z" fill="none" stroke="#263238" stroke-linecap="round" stroke-linejoin="round" stroke-width="1"/>
            <path id="Trazado_668408" data-name="Trazado 668408" d="M163.81,138.193l16.931,13.229a20.444,20.444,0,0,1-13.2,7.932Z" fill="#0f58b9"/>
            <path id="Trazado_668409" data-name="Trazado 668409" d="M163.81,138.193l16.931,13.229a20.444,20.444,0,0,1-13.2,7.932Z" fill="none" stroke="#263238" stroke-miterlimit="10" stroke-width="1"/>
            <path id="Trazado_668410" data-name="Trazado 668410" d="M163.81,138.193l-10.743-18.607a21.486,21.486,0,0,1,29.351,7.865,21.134,21.134,0,0,1-1.677,23.971Z" fill="#fff"/>
            <path id="Trazado_668411" data-name="Trazado 668411" d="M163.81,138.193l-10.743-18.607a21.486,21.486,0,0,1,29.351,7.865,21.134,21.134,0,0,1-1.677,23.971Z" fill="none" stroke="#263238" stroke-linecap="round" stroke-linejoin="round" stroke-width="1"/>
            <path id="Trazado_668412" data-name="Trazado 668412" d="M163.81,138.193H142.324a20.873,20.873,0,0,1,10.743-18.607Z" fill="#0f58b9"/>
            <path id="Trazado_668413" data-name="Trazado 668413" d="M163.81,138.193H142.324a20.873,20.873,0,0,1,10.743-18.607Z" fill="none" stroke="#263238" stroke-miterlimit="10" stroke-width="1"/>
            <path id="Trazado_668414" data-name="Trazado 668414" d="M163.81,127.718a10.476,10.476,0,1,0,10.476,10.476,10.476,10.476,0,0,0-10.476-10.476" fill="#fff"/>
            <path id="Trazado_668415" data-name="Trazado 668415" d="M163.81,127.718a10.476,10.476,0,1,0,10.476,10.476A10.476,10.476,0,0,0,163.81,127.718Z" fill="none" stroke="#263238" stroke-linecap="round" stroke-linejoin="round" stroke-width="1"/>
            <line id="Línea_248" data-name="Línea 248" x2="23.79" transform="translate(13.499 36.669)" fill="none" stroke="#263238" stroke-miterlimit="10" stroke-width="1"/>
            <line id="Línea_249" data-name="Línea 249" x2="23.79" transform="translate(13.499 40.719)" fill="none" stroke="#263238" stroke-miterlimit="10" stroke-width="1"/>
            <line id="Línea_250" data-name="Línea 250" x2="23.79" transform="translate(13.499 44.768)" fill="none" stroke="#263238" stroke-miterlimit="10" stroke-width="1"/>
            <line id="Línea_251" data-name="Línea 251" x2="23.79" transform="translate(13.499 48.817)" fill="none" stroke="#263238" stroke-miterlimit="10" stroke-width="1"/>
            <path id="Trazado_668416" data-name="Trazado 668416" d="M198.586,45.913h23.249l27.353,23.933" fill="none" stroke="#263238" stroke-linecap="round" stroke-linejoin="round" stroke-width="1"/>
            <line id="Línea_252" data-name="Línea 252" x2="23.79" transform="translate(253.551 63.001)" fill="none" stroke="#263238" stroke-miterlimit="10" stroke-width="1"/>
            <line id="Línea_253" data-name="Línea 253" x2="23.79" transform="translate(253.551 67.05)" fill="none" stroke="#263238" stroke-miterlimit="10" stroke-width="1"/>
            <line id="Línea_254" data-name="Línea 254" x2="23.79" transform="translate(253.551 71.1)" fill="none" stroke="#263238" stroke-miterlimit="10" stroke-width="1"/>
            <line id="Línea_255" data-name="Línea 255" x2="23.79" transform="translate(253.551 75.149)" fill="none" stroke="#263238" stroke-miterlimit="10" stroke-width="1"/>
            <line id="Línea_256" data-name="Línea 256" x2="23.79" transform="translate(253.551 132.065)" fill="none" stroke="#263238" stroke-miterlimit="10" stroke-width="1"/>
            <line id="Línea_257" data-name="Línea 257" x2="23.79" transform="translate(253.551 136.115)" fill="none" stroke="#263238" stroke-miterlimit="10" stroke-width="1"/>
            <line id="Línea_258" data-name="Línea 258" x2="23.79" transform="translate(253.551 140.164)" fill="none" stroke="#263238" stroke-miterlimit="10" stroke-width="1"/>
            <line id="Línea_259" data-name="Línea 259" x2="23.79" transform="translate(253.551 144.214)" fill="none" stroke="#263238" stroke-miterlimit="10" stroke-width="1"/>
            <g id="Grupo_991935" data-name="Grupo 991935" transform="translate(0 0.683)">
              <g id="Grupo_991934" data-name="Grupo 991934">
                <line id="Línea_260" data-name="Línea 260" x2="23.79" transform="translate(25.159 209.071)" fill="none" stroke="#263238" stroke-miterlimit="10" stroke-width="1"/>
                <line id="Línea_261" data-name="Línea 261" x2="23.79" transform="translate(25.159 213.12)" fill="none" stroke="#263238" stroke-miterlimit="10" stroke-width="1"/>
                <line id="Línea_262" data-name="Línea 262" x2="23.79" transform="translate(25.159 217.17)" fill="none" stroke="#263238" stroke-miterlimit="10" stroke-width="1"/>
              </g>
              <line id="Línea_263" data-name="Línea 263" x2="23.79" transform="translate(25.159 221.219)" fill="none" stroke="#263238" stroke-miterlimit="10" stroke-width="1"/>
            </g>
            <path id="Trazado_668417" data-name="Trazado 668417" d="M174.653,125.919l9.573-10.941H222.52l27.352,22.566" fill="none" stroke="#263238" stroke-miterlimit="10" stroke-width="1"/>
            <line id="Línea_264" data-name="Línea 264" y2="47.096" transform="translate(36.523 158.742)" fill="none" stroke="#263238" stroke-miterlimit="10" stroke-width="1"/>
          </g>
        </g>
      </g>
    </g>
  </g>
</svg>
