<svg xmlns="http://www.w3.org/2000/svg" xmlns:xlink="http://www.w3.org/1999/xlink" width="455.234" height="343.784" viewBox="0 0 455.234 343.784">
  <defs>
    <linearGradient id="linear-gradient" x1="0.5" x2="0.5" y2="1" gradientUnits="objectBoundingBox">
      <stop offset="0" stop-color="#ffc931"/>
      <stop offset="1" stop-color="#fff200"/>
    </linearGradient>
    <clipPath id="clip-path">
      <path id="Trazado_681174" data-name="Trazado 681174" d="M1092.2,1802.652l-8.656-9.242-32.356,18.975V1903.4l90.868-51.727v-78.053Z" transform="translate(-1051.193 -1773.618)" fill="#ce9905"/>
    </clipPath>
    <clipPath id="clip-path-2">
      <path id="Trazado_681184" data-name="Trazado 681184" d="M1082.07,1903.168l-30.877,54.9,90.868-51.736,30.877-54.9Z" transform="translate(-1051.193 -1851.432)" fill="url(#linear-gradient)"/>
    </clipPath>
    <linearGradient id="linear-gradient-2" x1="0.463" y1="0.524" x2="0.5" y2="1" gradientUnits="objectBoundingBox">
      <stop offset="0" stop-color="#25ffff"/>
      <stop offset="1" stop-color="#138080"/>
    </linearGradient>
    <linearGradient id="linear-gradient-3" x1="0.892" y1="0.324" x2="0.853" y2="0.943" xlink:href="#linear-gradient-2"/>
    <linearGradient id="linear-gradient-4" x1="0.71" y1="0.264" x2="0.073" y2="0.981" gradientUnits="objectBoundingBox">
      <stop offset="0" stop-color="#ffc931"/>
      <stop offset="1" stop-color="#ce9905"/>
    </linearGradient>
    <linearGradient id="linear-gradient-5" x1="-0.107" y1="0.381" x2="1.154" y2="-0.432" gradientUnits="objectBoundingBox">
      <stop offset="0" stop-color="#125d99"/>
      <stop offset="1" stop-color="#0f88cc"/>
    </linearGradient>
    <linearGradient id="linear-gradient-6" x1="0.356" y1="0.409" x2="0.373" y2="0.978" xlink:href="#linear-gradient-2"/>
  </defs>
  <g id="Grupo_996307" data-name="Grupo 996307" transform="translate(-903.605 -183.167)">
    <g id="Grupo_996280" data-name="Grupo 996280" transform="translate(15621.342 11266.276)">
      <g id="Grupo_994465" data-name="Grupo 994465" transform="translate(-14713.027 -11080.057)" clip-path="url(#clip-path)">
        <path id="Trazado_682854" data-name="Trazado 682854" d="M0,0H90.868V129.78H0Z" transform="translate(0)" fill="#1bdfdf"/>
      </g>
      <path id="Trazado_681175" data-name="Trazado 681175" d="M1035.363,1893.681l4.708,3.052v91.014l-4.708-3.052Z" transform="translate(-15753.1 -12938.023)" fill="#17cdcd"/>
      <path id="Trazado_681176" data-name="Trazado 681176" d="M1067.719,1829.891l4.708,3.052-32.356,18.975-4.709-3.052Z" transform="translate(-15753.1 -12893.209)" fill="#25ffff"/>
      <path id="Trazado_681177" data-name="Trazado 681177" d="M1225.922,1763.357l4.708,3.052-49.857,29.033-3.511-3.749Z" transform="translate(-15852.79 -12846.466)" fill="#25ffff"/>
      <path id="Trazado_681178" data-name="Trazado 681178" d="M1067.7,1918.769v-53.093a5.531,5.531,0,0,1,2.755-4.784l76.185-44.22a2.728,2.728,0,0,1,4.1,2.36v41.482Z" transform="translate(-15775.816 -12883.66)" fill="#fff"/>
      <path id="Trazado_681179" data-name="Trazado 681179" d="M1131.626,1928.4l-31.165,18.106c-.551.32-1,.131-1-.42a2.1,2.1,0,0,1,1-1.584l31.165-18.106c.551-.32,1-.131,1,.42a2.1,2.1,0,0,1-1,1.584" transform="translate(-15798.13 -12960.899)" fill="#cdc9c7"/>
      <path id="Trazado_681180" data-name="Trazado 681180" d="M1166.54,1878.979l-66.079,38.39c-.551.32-1,.131-1-.42a2.1,2.1,0,0,1,1-1.585l66.079-38.389c.551-.32,1-.131,1,.42a2.1,2.1,0,0,1-1,1.584" transform="translate(-15798.13 -12926.177)" fill="#cdc9c7"/>
      <path id="Trazado_681181" data-name="Trazado 681181" d="M1166.54,1897.745l-66.079,38.389c-.551.32-1,.131-1-.42a2.1,2.1,0,0,1,1-1.585l66.079-38.389c.551-.32,1-.131,1,.42a2.1,2.1,0,0,1-1,1.585" transform="translate(-15798.13 -12939.36)" fill="#cdc9c7"/>
      <path id="Trazado_681182" data-name="Trazado 681182" d="M1166.54,1916.512l-66.079,38.39c-.551.32-1,.131-1-.42a2.1,2.1,0,0,1,1-1.585l66.079-38.389c.551-.32,1-.131,1,.42a2.1,2.1,0,0,1-1,1.584" transform="translate(-15798.13 -12952.545)" fill="#cdc9c7"/>
      <path id="Trazado_681183" data-name="Trazado 681183" d="M1166.54,1935.279l-66.079,38.39c-.551.32-1,.131-1-.42a2.1,2.1,0,0,1,1-1.585l66.079-38.389c.551-.32,1-.131,1,.42a2.1,2.1,0,0,1-1,1.585" transform="translate(-15798.13 -12965.73)" fill="#cdc9c7"/>
      <g id="Grupo_994469" data-name="Grupo 994469" transform="translate(-14713.027 -11056.91)" clip-path="url(#clip-path-2)">
        <path id="Trazado_682273" data-name="Trazado 682273" d="M0,0H129.237V115.274H0Z" transform="translate(-7.799 0.573) rotate(-4.205)" fill="url(#linear-gradient-2)"/>
      </g>
    </g>
    <g id="Grupo_996283" data-name="Grupo 996283" transform="translate(-763.966 -1056.044)">
      <g id="Grupo_995213" data-name="Grupo 995213" transform="translate(2039.638 1475.324)">
        <path id="Trazado_682425" data-name="Trazado 682425" d="M2101.23,1682V1621.57l29.29,13.56v13.56l48.818,22.781v47.712a2.07,2.07,0,0,1-2.959,1.871l-72.083-34.206A5.368,5.368,0,0,1,2101.23,1682Z" transform="translate(-2096.172 -1621.57)" fill="#29eeee"/>
        <path id="Trazado_682426" data-name="Trazado 682426" d="M2076.03,1695.1V1634.67l29.29,13.56v13.56l48.818,22.781v47.712a2.07,2.07,0,0,1-2.959,1.871l-72.082-34.206A5.368,5.368,0,0,1,2076.03,1695.1Z" transform="translate(-2076.03 -1632.041)" fill="url(#linear-gradient-3)"/>
        <path id="Trazado_682427" data-name="Trazado 682427" d="M2081.088,1621.57l-5.058,2.629,29.29,13.56,5.058-2.629Z" transform="translate(-2076.03 -1621.57)" fill="#29eeee" stroke="#06c9c9" stroke-miterlimit="10" stroke-width="0.22"/>
        <path id="Trazado_682428" data-name="Trazado 682428" d="M2468.5,1870.19l-5.058,2.629-.436,49.785,5.494-2.629Z" transform="translate(-2385.338 -1820.289)" fill="#12afaf"/>
        <path id="Trazado_682429" data-name="Trazado 682429" d="M2227.018,1689.13l-5.058,2.629v13.56l5.058-2.629Z" transform="translate(-2192.67 -1675.57)" fill="url(#linear-gradient-4)"/>
      </g>
      <g id="Grupo_995217" data-name="Grupo 995217" transform="translate(2042.061 1438.599)">
        <g id="Grupo_995214" data-name="Grupo 995214" transform="translate(0 0)">
          <path id="Trazado_682430" data-name="Trazado 682430" d="M2088.1,1523.576v-82.9c0-1.784,1.447-2.569,3.231-1.752l58.636,26.845a5.764,5.764,0,0,1,3.232,4.711v82.9c0,1.784-1.447,2.569-3.232,1.752l-58.636-26.845A5.763,5.763,0,0,1,2088.1,1523.576Z" transform="translate(-2088.1 -1438.599)" fill="url(#linear-gradient-5)"/>
          <path id="Trazado_682431" data-name="Trazado 682431" d="M2160.969,1565.744l-57.22-26.2a1.784,1.784,0,0,1-1-1.459V1456.6c0-.552.448-.795,1-.542l57.22,26.2a1.783,1.783,0,0,1,1,1.459V1565.2C2161.969,1565.754,2161.522,1566,2160.969,1565.744Z" transform="translate(-2099.81 -1452.477)" fill="#fefefe"/>
        </g>
        <path id="Trazado_682432" data-name="Trazado 682432" d="M2166.868,1545.974l-22.713-10.491a.855.855,0,0,1-.436-.719v-.327c0-.283.2-.423.436-.311l22.713,10.49a.854.854,0,0,1,.436.719v.327c0,.283-.2.423-.436.311Z" transform="translate(-2132.557 -1514.921)" fill="#c9c7c7"/>
        <path id="Trazado_682433" data-name="Trazado 682433" d="M2166.868,1566.282l-22.713-10.49a.854.854,0,0,1-.436-.718v-.327c0-.283.2-.423.436-.311l22.713,10.489a.855.855,0,0,1,.436.719v.327C2167.3,1566.254,2167.107,1566.394,2166.868,1566.282Z" transform="translate(-2132.557 -1531.155)" fill="#c9c7c7"/>
        <path id="Trazado_682434" data-name="Trazado 682434" d="M2166.861,1608.379l-22.635-10.457a.926.926,0,0,1-.516-.751v-.327c0-.283.233-.409.516-.279l22.635,10.457a.854.854,0,0,1,.435.719v.327C2167.3,1608.351,2167.1,1608.492,2166.861,1608.379Z" transform="translate(-2132.548 -1564.818)" fill="#c9c7c7"/>
        <path id="Trazado_682435" data-name="Trazado 682435" d="M2186.115,1638.746l-41.879-19.174a.925.925,0,0,1-.516-.751v-.327c0-.283.233-.409.516-.279l41.879,19.174a.925.925,0,0,1,.516.751v.327C2186.631,1638.75,2186.4,1638.876,2186.115,1638.746Z" transform="translate(-2132.556 -1582.123)" fill="#c9c7c7"/>
        <path id="Trazado_682436" data-name="Trazado 682436" d="M2186.115,1660.4l-41.879-19.174a.924.924,0,0,1-.516-.751v-.327c0-.283.233-.409.516-.279l41.879,19.174a.925.925,0,0,1,.516.751v.327C2186.631,1660.4,2186.4,1660.527,2186.115,1660.4Z" transform="translate(-2132.556 -1599.427)" fill="#c9c7c7"/>
        <path id="Trazado_682437" data-name="Trazado 682437" d="M2186.115,1682.056l-41.879-19.174a.925.925,0,0,1-.516-.751v-.327c0-.283.233-.409.516-.279l41.879,19.174a.925.925,0,0,1,.516.751v.327C2186.631,1682.06,2186.4,1682.186,2186.115,1682.056Z" transform="translate(-2132.556 -1616.74)" fill="#c9c7c7"/>
        <path id="Trazado_682438" data-name="Trazado 682438" d="M2186.115,1703.706l-41.879-19.174a.924.924,0,0,1-.516-.751v-.327c0-.283.233-.409.516-.279l41.879,19.174a.924.924,0,0,1,.516.751v.327C2186.631,1703.71,2186.4,1703.837,2186.115,1703.706Z" transform="translate(-2132.556 -1634.044)" fill="#c9c7c7"/>
        <path id="Trazado_682439" data-name="Trazado 682439" d="M2186.115,1725.356l-41.879-19.174a.924.924,0,0,1-.516-.75v-.327c0-.283.233-.41.516-.279L2186.115,1724a.925.925,0,0,1,.516.751v.327C2186.631,1725.36,2186.4,1725.487,2186.115,1725.356Z" transform="translate(-2132.556 -1651.349)" fill="#c9c7c7"/>
        <path id="Trazado_682440" data-name="Trazado 682440" d="M2166.65,1586.6l-22.494-10.5a.854.854,0,0,1-.436-.719v-.327c0-.283.2-.424.436-.311l22.494,10.5a.855.855,0,0,1,.436.719v.327C2167.085,1586.568,2166.888,1586.708,2166.65,1586.6Z" transform="translate(-2132.556 -1547.38)" fill="#c9c7c7"/>
        <path id="Trazado_682441" data-name="Trazado 682441" d="M2186.115,1757.206l-41.879-19.174a.925.925,0,0,1-.516-.751v-.327c0-.283.233-.41.516-.279l41.879,19.174a.924.924,0,0,1,.516.75v.327C2186.631,1757.21,2186.4,1757.337,2186.115,1757.206Z" transform="translate(-2132.556 -1676.806)" fill="#c9c7c7"/>
        <path id="Trazado_682442" data-name="Trazado 682442" d="M2186.115,1777.506l-41.879-19.174a.925.925,0,0,1-.516-.751v-.327c0-.283.233-.409.516-.279l41.879,19.174a.924.924,0,0,1,.516.751v.327C2186.631,1777.51,2186.4,1777.636,2186.115,1777.506Z" transform="translate(-2132.556 -1693.032)" fill="#c9c7c7"/>
        <path id="Trazado_682443" data-name="Trazado 682443" d="M2170.8,1790.8l-26.574-12.167a.926.926,0,0,1-.516-.751v-.327c0-.283.233-.409.516-.279l26.574,12.165a.924.924,0,0,1,.516.75v.327c0,.283-.233.409-.516.279Z" transform="translate(-2132.548 -1709.257)" fill="#c9c7c7"/>
        <path id="Trazado_682444" data-name="Trazado 682444" d="M2213.356,1537.627l-21.37-9.783a.924.924,0,0,1-.516-.751v-.949c0-.283.233-.409.516-.279l21.37,9.783a.924.924,0,0,1,.516.751v.949C2213.872,1537.631,2213.639,1537.758,2213.356,1537.627Z" transform="translate(-2170.722 -1508.308)" fill="#c9c7c7"/>
        <path id="Trazado_682445" data-name="Trazado 682445" d="M2158.561,1838.305l-14.335-6.563a.926.926,0,0,1-.516-.751v-.327c0-.283.233-.41.516-.279l14.335,6.563a.925.925,0,0,1,.516.75v.327C2159.077,1838.309,2158.844,1838.436,2158.561,1838.305Z" transform="translate(-2132.548 -1751.707)" fill="#c9c7c7"/>
        <path id="Trazado_682446" data-name="Trazado 682446" d="M2161.2,1856.083l-16.976-7.772a.925.925,0,0,1-.516-.751v-.327c0-.283.233-.409.516-.279l16.976,7.772a.923.923,0,0,1,.516.751v.327C2161.718,1856.087,2161.486,1856.214,2161.2,1856.083Z" transform="translate(-2132.548 -1764.951)" fill="#c9c7c7"/>
        <path id="Trazado_682447" data-name="Trazado 682447" d="M2301.891,1903.925l-14.335-6.563a.925.925,0,0,1-.516-.751v-.327c0-.283.233-.41.516-.279l14.335,6.563a.924.924,0,0,1,.516.75v.327C2302.407,1903.93,2302.174,1904.056,2301.891,1903.925Z" transform="translate(-2247.11 -1804.156)" fill="#c9c7c7"/>
        <path id="Trazado_682448" data-name="Trazado 682448" d="M2304.532,1921.7l-16.976-7.772a.924.924,0,0,1-.516-.75v-.327c0-.283.233-.409.516-.279l16.976,7.772a.925.925,0,0,1,.516.751v.327C2305.048,1921.708,2304.815,1921.834,2304.532,1921.7Z" transform="translate(-2247.11 -1817.4)" fill="#c9c7c7"/>
        <g id="Grupo_995216" data-name="Grupo 995216" transform="translate(36.713 29.788)">
          <path id="Trazado_682449" data-name="Trazado 682449" d="M2289.574,1610.078l-18.564-8.1V1587.01l18.564,8.1Z" transform="translate(-2271.01 -1587.01)" fill="#c9c7c7"/>
          <g id="Grupo_995215" data-name="Grupo 995215" transform="translate(1.798 8.888)">
            <path id="Trazado_682450" data-name="Trazado 682450" d="M2281.708,1637.707l-1.739-.759v-5.658l1.739.761Z" transform="translate(-2279.97 -1631.29)" fill="#fff"/>
            <path id="Trazado_682451" data-name="Trazado 682451" d="M2295.568,1650.927l-1.738-.759v-3.858l1.738.759Z" transform="translate(-2291.048 -1643.296)" fill="#fff"/>
            <path id="Trazado_682452" data-name="Trazado 682452" d="M2309.428,1649.807l-1.738-.759v-5.658l1.738.759Z" transform="translate(-2302.126 -1640.962)" fill="#fff"/>
            <path id="Trazado_682453" data-name="Trazado 682453" d="M2323.288,1647.664l-1.738-.759v-7.715l1.738.759Z" transform="translate(-2313.205 -1637.605)" fill="#fff"/>
            <path id="Trazado_682454" data-name="Trazado 682454" d="M2337.148,1643.539l-1.739-.759V1632.51l1.739.759Z" transform="translate(-2324.282 -1632.265)" fill="#fff"/>
            <path id="Trazado_682455" data-name="Trazado 682455" d="M2351.008,1667.957l-1.738-.759v-5.658l1.738.759Z" transform="translate(-2335.36 -1655.469)" fill="#fff"/>
          </g>
        </g>
      </g>
      <g id="Grupo_995218" data-name="Grupo 995218" transform="translate(2030.5 1480.555)">
        <path id="Trazado_682456" data-name="Trazado 682456" d="M2055.69,1708.059V1647.63l29.29,13.56v13.56l48.818,22.781v47.712a2.07,2.07,0,0,1-2.958,1.871l-72.083-34.206A5.368,5.368,0,0,1,2055.69,1708.059Z" transform="translate(-2050.634 -1647.63)" fill="#29eeee"/>
        <path id="Trazado_682457" data-name="Trazado 682457" d="M2030.5,1721.159V1660.73l29.29,13.56v13.56l48.817,22.781v47.712a2.07,2.07,0,0,1-2.958,1.871l-72.083-34.206a5.368,5.368,0,0,1-3.067-4.849Z" transform="translate(-2030.937 -1658.102)" stroke="#06c9c9" stroke-miterlimit="10" stroke-width="0.22" fill="url(#linear-gradient-6)"/>
        <path id="Trazado_682458" data-name="Trazado 682458" d="M2035.556,1647.63l-5.056,2.629,29.29,13.56,5.056-2.63Z" transform="translate(-2030.5 -1647.63)" fill="#29eeee" stroke="#06c9c9" stroke-miterlimit="10" stroke-width="0.22"/>
        <path id="Trazado_682459" data-name="Trazado 682459" d="M2422.964,1896.25l-5.056,2.629-.438,49.785,5.494-2.629Z" transform="translate(-2339.8 -1846.349)" fill="#12afaf"/>
        <path id="Trazado_682460" data-name="Trazado 682460" d="M2181.486,1715.19l-5.056,2.629v13.56l5.056-2.629Z" transform="translate(-2147.14 -1701.63)" fill="#12afaf"/>
      </g>
    </g>
  </g>
</svg>
