<svg id="Grupo_996313" data-name="Grupo 996313" xmlns="http://www.w3.org/2000/svg" xmlns:xlink="http://www.w3.org/1999/xlink" width="161.544" height="167.93" viewBox="0 0 161.544 167.93">
  <defs>
    <clipPath id="clip-path">
      <rect id="Rectángulo_348063" data-name="Rectángulo 348063" width="161.544" height="167.93" fill="none"/>
    </clipPath>
  </defs>
  <rect id="Rectángulo_348057" data-name="Rectángulo 348057" width="94.369" height="128.986" transform="translate(25.237 25.263)" fill="#fff"/>
  <g id="Grupo_996312" data-name="Grupo 996312">
    <g id="Grupo_996311" data-name="Grupo 996311" clip-path="url(#clip-path)">
      <path id="Trazado_704706" data-name="Trazado 704706" d="M0,.713A9.58,9.58,0,0,1,2.462.03Q50.743-.022,99.024,0c2.018,0,2.372.348,2.392,2.375.021,2.075.047,4.151-.006,6.225-.04,1.534.647,2.137,2.144,2.1,2.192-.052,4.387.017,6.579-.02,1.356-.023,1.954.6,1.943,1.928-.017,2.075.036,4.151-.011,6.225-.036,1.561.586,2.3,2.208,2.251,2.132-.063,4.268,0,6.4-.016a1.706,1.706,0,0,1,1.953,1.958q-.007,28.813-.014,57.627a4.839,4.839,0,0,1-.148.785h-4.675V79.156q0-25.167,0-50.334c0-2.8-.125-2.927-2.893-2.927q-43.035,0-86.07,0c-2.75,0-2.868.123-2.868,2.95q0,60.917,0,121.834c0,2.758.152,2.912,2.926,2.912q43.3,0,86.6,0c2.3,0,2.3-.011,2.3-2.327,0-1.355,0-2.71,0-4.236h4.719v11.362h-2.2l-96.384-.02c-2.594,0-2.791-.2-2.8-2.869,0-1.719.011-3.439,0-5.158-.019-2.059-.29-2.321-2.407-2.335-1.956-.012-3.914-.049-5.868.01-1.608.048-2.249-.652-2.19-2.244.072-1.954.022-3.912.015-5.869-.009-2.337-.244-2.58-2.517-2.586-2.009-.006-4.021.064-6.026-.026A8.55,8.55,0,0,1,0,136.62V.713M4.735,68.468v49.085c0,4.148-.044,8.3.039,12.444a3.105,3.105,0,0,0,.868,2.292,3.174,3.174,0,0,0,5.031-2.8q0-57.888,0-115.775c0-2.957.061-3.02,2.968-3.02H93.3a7.866,7.866,0,0,0,1.771-.045,2.089,2.089,0,0,0,1.284-.759A3.3,3.3,0,0,0,93.42,4.747q-43.031,0-86.061,0c-2.311,0-2.62.334-2.621,2.717q0,30.5,0,61m10.679,10.8v55.32c0,2.194-.058,4.39.041,6.579a2.439,2.439,0,0,0,.828,1.778,3.071,3.071,0,0,0,4.842-2.8q0-58.077,0-116.155c0-2.709.216-2.92,2.945-2.921l76.831,0c1.541,0,3.091.093,4.619-.05A2.2,2.2,0,0,0,107.132,20c1.106-2.918-.047-4.538-3.086-4.538l-85.545,0c-2.911,0-3.087.178-3.087,3.153q0,30.328,0,60.657" transform="translate(0 -0.001)"/>
      <path id="Trazado_704707" data-name="Trazado 704707" d="M252.724,273.378c-14.3,10.806-30.659,5.143-37.95-4.923a26.226,26.226,0,0,1,37.674-35.847c9.621,7.735,14.091,23.66,3.742,37.236,1.041,1.1,2.048,2.269,3.181,3.3a1.814,1.814,0,0,0,1.528.247,8.538,8.538,0,0,1,9.459,2.207q11.884,11.881,23.738,23.793a8.381,8.381,0,0,1,1.844,9.656,8.522,8.522,0,0,1-8.3,5,8.3,8.3,0,0,1-5.53-2.531Q270.037,299.438,258,287.334a7.94,7.94,0,0,1-1.966-8.838,1.865,1.865,0,0,0-.53-2.441c-.98-.837-1.863-1.787-2.778-2.678m4.608-20.389a21.389,21.389,0,1,0-21.474,21.444,21.385,21.385,0,0,0,21.474-21.444m35.114,52.71a20.828,20.828,0,0,0-1.962-3.107c-2.1-2.248-4.323-4.389-6.5-6.569q-8.478-8.488-16.965-16.969c-2.067-2.058-4.846-1.868-6.195.36-1,1.649-.653,3.365,1.066,5.088Q273.44,296.078,285,307.64c.375.375.759.947,1.2,1.013,1.22.182,2.672.556,3.659.08,1.049-.505,1.671-1.9,2.583-3.034" transform="translate(-135.189 -146.124)"/>
      <path id="Trazado_704708" data-name="Trazado 704708" d="M104.756,150.074l-3.876-2.739c1.485-2.125,2.9-4.154,4.316-6.178,1.5-2.135,2.949-4.3,4.541-6.366a2.408,2.408,0,0,1,1.849-.775c4.122.446,8.224,1.075,12.347,1.5a3.889,3.889,0,0,0,2.534-.719c2.863-2.2,5.58-4.6,8.441-6.8a4.875,4.875,0,0,1,2.687-.95c4.146-.1,8.3-.077,12.443-.02a1.623,1.623,0,0,0,1.82-1.21c1.384-3.591,2.84-7.154,4.3-10.716a4.227,4.227,0,0,1,.967-1.656c3.634-3.033,7.32-6.006,11.173-9.146l3.039,3.678c-3.142,2.567-6.209,4.984-9.158,7.536a8.428,8.428,0,0,0-2.148,2.918c-1.721,3.961-3.329,7.973-4.887,12a1.885,1.885,0,0,1-2.1,1.388c-4.5-.052-9.01-.093-13.51.031a5.834,5.834,0,0,0-3.164,1.138c-2.875,2.187-5.569,4.611-8.438,6.807a4.13,4.13,0,0,1-2.686.718c-3.592-.363-7.173-.865-10.742-1.415a2.589,2.589,0,0,0-2.938,1.283c-2.161,3.245-4.472,6.392-6.806,9.693" transform="translate(-65.001 -67.203)" fill="#ad84ff"/>
      <rect id="Rectángulo_348058" data-name="Rectángulo 348058" width="38.292" height="4.505" transform="translate(35.433 131.48)"/>
      <rect id="Rectángulo_348059" data-name="Rectángulo 348059" width="29.889" height="4.581" transform="translate(35.396 109.392)"/>
      <path id="Trazado_704709" data-name="Trazado 704709" d="M99.169,399.368h30.089a20.722,20.722,0,0,1-.079,3.737c-.076.405-1.063.906-1.637.911-7.576.06-15.152.042-22.728.04-1.361,0-2.727-.078-4.083.009-1.282.082-1.68-.451-1.577-1.657.079-.932.016-1.876.016-3.04" transform="translate(-63.878 -257.328)"/>
      <rect id="Rectángulo_348060" data-name="Rectángulo 348060" width="21.369" height="4.525" transform="translate(35.431 120.267)"/>
      <path id="Trazado_704710" data-name="Trazado 704710" d="M13.3,77.064v-61c0-2.383.309-2.717,2.621-2.717q43.031-.007,86.061,0a3.3,3.3,0,0,1,2.938,5.139,2.089,2.089,0,0,1-1.284.759,7.866,7.866,0,0,1-1.771.045H22.2c-2.908,0-2.968.063-2.968,3.019q0,57.888,0,115.776a3.174,3.174,0,0,1-5.031,2.8,3.105,3.105,0,0,1-.868-2.292c-.084-4.146-.039-8.3-.039-12.443q0-24.542,0-49.085" transform="translate(-8.557 -8.597)" fill="#fcfcfc"/>
      <path id="Trazado_704711" data-name="Trazado 704711" d="M43.308,107.277q0-30.328,0-60.657c0-2.975.176-3.153,3.087-3.153l85.545,0c3.04,0,4.193,1.62,3.087,4.538a2.2,2.2,0,0,1-1.61,1.024c-1.528.143-3.078.05-4.619.05l-76.832,0c-2.729,0-2.945.212-2.945,2.921q0,58.077,0,116.155a3.071,3.071,0,0,1-4.841,2.8,2.438,2.438,0,0,1-.828-1.778c-.1-2.189-.041-4.386-.041-6.579q0-27.66,0-55.32" transform="translate(-27.895 -28.006)" fill="#fcfcfc"/>
      <path id="Trazado_704712" data-name="Trazado 704712" d="M265.93,261.651a21.389,21.389,0,1,1-21.308-21.426,21.425,21.425,0,0,1,21.308,21.426M255.7,271.54V249.547a20.172,20.172,0,0,1-2.613-.019c-1.7-.235-2.081.505-2.06,2.091.082,5.978.033,11.959.033,17.938v1.982Zm-8.883-15.667h-4.537v15.676h4.537ZM233.387,271.5h4.466V261.261h-4.466Z" transform="translate(-143.786 -154.786)" fill="#fff"/>
      <path id="Trazado_704713" data-name="Trazado 704713" d="M383.863,397.8c-1.348,2.262-1.534,2.529-2.584,3.035-.988.475-2.439.1-3.659-.08-.441-.066-.825-.638-1.2-1.013q-11.562-11.563-23.113-23.137c-1.719-1.723-2.064-3.439-1.066-5.088,1.349-2.229,4.128-2.418,6.195-.36q8.5,8.464,16.965,16.969c2.177,2.179,4.4,4.321,6.5,6.569a5.653,5.653,0,0,1,1.962,3.107" transform="translate(-226.605 -238.228)" fill="#ffc321"/>
      <path id="Trazado_704714" data-name="Trazado 704714" d="M306.2,288.318H301.56v-1.982c0-5.98.049-11.96-.033-17.939-.021-1.586.365-2.326,2.06-2.091a20.162,20.162,0,0,0,2.613.019Z" transform="translate(-194.285 -171.564)" fill="#ad84ff"/>
      <rect id="Rectángulo_348061" data-name="Rectángulo 348061" width="4.537" height="15.676" transform="translate(98.494 101.087)" fill="#25ffff"/>
      <rect id="Rectángulo_348062" data-name="Rectángulo 348062" width="4.466" height="10.243" transform="translate(89.601 106.475)" fill="#ad84ff"/>
    </g>
  </g>
</svg>
