<svg id="Grupo_996330" data-name="Grupo 996330" xmlns="http://www.w3.org/2000/svg" xmlns:xlink="http://www.w3.org/1999/xlink" width="175.605" height="175" viewBox="0 0 175.605 175">
  <defs>
    <clipPath id="clip-path">
      <rect id="Rectángulo_348082" data-name="Rectángulo 348082" width="175.605" height="175" fill="none"/>
    </clipPath>
  </defs>
  <g id="Grupo_996329" data-name="Grupo 996329" clip-path="url(#clip-path)">
    <path id="Trazado_704762" data-name="Trazado 704762" d="M53.856,169.353h-1.2q-13,0-26.01.008a7.745,7.745,0,0,0-1.835.2,2.77,2.77,0,0,0-2.1,2.632,2.9,2.9,0,0,0,2.145,2.615,7.231,7.231,0,0,0,1.661.184q61.353.012,122.706,0a6.529,6.529,0,0,0,1.571-.195,2.691,2.691,0,0,0,.048-5.238,7.085,7.085,0,0,0-1.746-.2q-13.092-.018-26.186-.008h-1.108c0-1.678,0-3.259,0-4.84-.006-2.435-1.193-3.62-3.645-3.626-2.566-.007-5.131-.03-7.7.017a1.018,1.018,0,0,1-1.164-.865c-.692-2.181-1.442-4.342-2.166-6.513-.423-1.271-.839-2.545-1.3-3.928h1.26q28.135,0,56.267,0a12.256,12.256,0,0,0,7.372-2.033c3.487-2.487,4.87-5.953,4.869-10.126q-.021-40.793-.014-81.585a27.875,27.875,0,0,0-.166-3.431,11.086,11.086,0,0,0-6.384-9.013,12.225,12.225,0,0,0-5.327-1.061c-1.012-.022-2.026,0-3.235,0a24.745,24.745,0,0,0,6.545-18.708,24.852,24.852,0,0,0-8.97-17.6,25.42,25.42,0,0,0-31.63-.933,24.933,24.933,0,0,0-9.688,14.908c-1.73,8.33.42,15.727,5.944,22.266H87.832V41.167q0-13.143,0-26.284c0-2.38-1.2-3.58-3.595-3.587q-4.822-.013-9.644,0c-2.622.006-3.749,1.15-3.749,3.79q0,13.1,0,26.2V42.3H68.014v-1.08q0-18.786,0-37.574c0-2.44-1.19-3.631-3.634-3.636q-4.778-.012-9.555,0c-2.687,0-3.8,1.13-3.8,3.829V42.282H48.2V41.265q0-8.908,0-17.816c0-2.5-1.176-3.681-3.673-3.686q-4.778-.008-9.554,0c-2.629,0-3.76,1.147-3.76,3.78q0,8.908,0,17.816v.981H26.5c-4.748,0-9.5.063-14.244-.013C4.213,42.2-.074,48.37,0,54.624.191,70.2.064,85.788.064,101.37q0,18.082.007,36.162a11.8,11.8,0,0,0,2.446,7.742A11.634,11.634,0,0,0,12.06,149.6q28.267,0,56.532,0h1.17a3.031,3.031,0,0,1-.069.432c-1.151,3.451-2.315,6.9-3.448,10.354-.161.493-.469.506-.873.5q-3.892-.012-7.786,0c-2.579.008-3.729,1.159-3.731,3.72,0,1.551,0,3.1,0,4.746" transform="translate(0 0)" fill="#fff"/>
    <path id="Trazado_704763" data-name="Trazado 704763" d="M53.855,169.353c0-1.644,0-3.195,0-4.746,0-2.56,1.153-3.712,3.732-3.719q3.892-.012,7.786,0c.4,0,.711-.011.873-.505,1.132-3.456,2.3-6.9,3.447-10.354a3.247,3.247,0,0,0,.069-.432h-1.17q-28.267,0-56.533,0a11.635,11.635,0,0,1-9.543-4.327,11.8,11.8,0,0,1-2.446-7.742Q.044,119.451.063,101.37C.063,85.787.19,70.2,0,54.624-.075,48.37,4.213,42.2,12.252,42.327c4.746.076,9.5.013,14.244.013h4.71v-.982q0-8.908,0-17.816c0-2.633,1.131-3.775,3.76-3.78q4.778-.01,9.555,0c2.5,0,3.673,1.184,3.674,3.686q0,8.908,0,17.816v1.016h2.828v-1.05q0-18.7,0-37.4c0-2.7,1.113-3.825,3.8-3.83Q59.6,0,64.378,0c2.444.006,3.634,1.2,3.634,3.637q0,18.786,0,37.574V42.3h2.828V41.281q0-13.1,0-26.2c0-2.639,1.127-3.785,3.75-3.79q4.821-.011,9.643,0c2.391.006,3.594,1.207,3.595,3.586q.006,13.143,0,26.284v1.112h34.847c-5.523-6.539-7.673-13.936-5.944-22.266A24.936,24.936,0,0,1,126.424,5.1a25.42,25.42,0,0,1,31.63.934,24.847,24.847,0,0,1,8.971,17.6,24.746,24.746,0,0,1-6.545,18.708c1.209,0,2.222-.018,3.235,0a12.224,12.224,0,0,1,5.326,1.061,11.084,11.084,0,0,1,6.384,9.013,27.6,27.6,0,0,1,.166,3.431q.014,40.792.014,81.585c0,4.173-1.382,7.639-4.869,10.126a12.247,12.247,0,0,1-7.371,2.033q-28.135.014-56.268,0h-1.259c.455,1.382.871,2.656,1.3,3.928.723,2.17,1.473,4.332,2.164,6.513a1.02,1.02,0,0,0,1.165.865c2.565-.047,5.131-.024,7.7-.017,2.452.006,3.639,1.191,3.645,3.626,0,1.581,0,3.162,0,4.84h1.106q13.094,0,26.187.008a7.088,7.088,0,0,1,1.746.2,2.692,2.692,0,0,1-.049,5.238,6.525,6.525,0,0,1-1.571.195q-61.354.013-122.707,0a7.2,7.2,0,0,1-1.661-.184,2.9,2.9,0,0,1-2.145-2.615,2.772,2.772,0,0,1,2.1-2.632,7.786,7.786,0,0,1,1.835-.2q13.006-.019,26.011-.008h1.2M90.66,70.531V69.476q0-7.453,0-14.905c0-2.621,1.138-3.756,3.78-3.761q4.733-.007,9.466,0c2.576,0,3.743,1.157,3.743,3.7q0,8.952,0,17.9c0,2.678-1.125,3.8-3.825,3.8H81.355q-33.087,0-66.175,0c-2.646,0-3.792-1.136-3.792-3.746q0-8.952,0-17.9c0-2.615,1.143-3.749,3.787-3.753q4.733-.007,9.466,0c2.573,0,3.735,1.159,3.736,3.713q0,7.541,0,15.082v.912h2.766V48.039a2.528,2.528,0,0,0-.316-.045c-6.605,0-13.212-.032-19.817.01a5.559,5.559,0,0,0-5.281,5.56q0,36.249,0,72.5v.9h164.2V54.44c0-.294.014-.589,0-.882a5.783,5.783,0,0,0-5.773-5.594c-3.3.114-6.605,0-9.908.045a5.689,5.689,0,0,0-2.119.447,26.79,26.79,0,0,1-10.439,2.35,26.346,26.346,0,0,1-10.286-2.23,7.405,7.405,0,0,0-2.713-.563q-19.905-.053-39.811-.024h-.994V70.531ZM5.729,132.706c0,1.767,0,3.494,0,5.22a5.7,5.7,0,0,0,6.02,6.025h150.3c.767,0,1.534.021,2.3.009a5.345,5.345,0,0,0,5.388-4.531,54.548,54.548,0,0,0,.19-6.065,5.417,5.417,0,0,0-.062-.658ZM62.288,5.724H56.735v64.8h5.553Zm76.462.088c-.2.022-.348.024-.489.055-6.006,1.316-10.814,4.306-13.849,9.806-3.959,7.171-3.409,14.151.83,20.994.355.574.662.6,1.153.1q5.857-5.872,11.759-11.7a1.988,1.988,0,0,0,.649-1.546c-.023-5.638-.013-11.277-.015-16.916,0-.256-.024-.512-.038-.8m22.534,22.479c-.24-.029-.355-.055-.471-.055-5.864,0-11.728-.014-17.592.019a1.827,1.827,0,0,0-1.125.54c-3.953,3.911-7.876,7.852-11.824,11.768-.486.482-.477.734.112,1.125a19.979,19.979,0,0,0,26.9-4.072,18.992,18.992,0,0,0,4-9.324M71.882,160.83h31.8c.031-.084.057-.116.05-.137-1.172-3.532-2.336-7.066-3.545-10.584a1,1,0,0,0-.767-.488c-7.719-.026-15.439-.017-23.158-.031a.757.757,0,0,0-.853.662c-.276.956-.625,1.892-.941,2.838-.853,2.552-1.7,5.105-2.584,7.742M82.105,17.014H76.552v53.51h5.553ZM36.932,70.494h5.553V25.451H36.932ZM144.518,5.851V22.523h16.719c-.3-7.532-9.123-16.3-16.719-16.671M59.559,169.289H116.1v-2.707H59.559ZM101.926,56.525H96.368v14h5.558ZM17.087,70.5H22.67V56.509H17.087ZM70.782,48.061H68.059V70.524h2.722Zm-19.816,0H48.239V70.522h2.726Z" transform="translate(0 0)"/>
    <path id="Trazado_704764" data-name="Trazado 704764" d="M93.025,90.332H90.248V67.79h.994q19.905,0,39.81.024a7.409,7.409,0,0,1,2.714.563,26.359,26.359,0,0,0,10.286,2.23,26.8,26.8,0,0,0,10.439-2.351,5.686,5.686,0,0,1,2.119-.447c3.3-.046,6.609.069,9.907-.045a5.783,5.783,0,0,1,5.774,5.594c.019.293,0,.588,0,.882v72.527H8.094v-.9q0-36.249,0-72.5a5.56,5.56,0,0,1,5.282-5.56c6.605-.042,13.211-.012,19.817-.01a2.67,2.67,0,0,1,.316.045V90.318H30.743V89.4q0-7.541,0-15.082c0-2.554-1.164-3.71-3.736-3.713q-4.733-.005-9.466,0c-2.644,0-3.786,1.139-3.787,3.753q0,8.952,0,17.9c0,2.61,1.146,3.746,3.792,3.746q33.087,0,66.174,0,11.236,0,22.472,0c2.7,0,3.824-1.118,3.824-3.8q0-8.952,0-17.9c0-2.547-1.168-3.7-3.744-3.7q-4.733-.005-9.466,0c-2.641,0-3.778,1.14-3.779,3.761q0,7.453,0,14.905Zm57.785,35.316c-1.3-.759-2.552-1.5-3.818-2.235q-12.461-7.2-24.913-14.4a2.683,2.683,0,0,1-1.161-1.3,8.574,8.574,0,0,0-8.341-6.03,8.481,8.481,0,0,0-7.9,6.212,2.563,2.563,0,0,1-.859,1.24q-11.087,8.325-22.213,16.6c-2.285,1.705-4.569,3.412-6.965,5.2a4.756,4.756,0,0,0-.253-.409,8.447,8.447,0,0,0-14.091.7c-.239.428-.507.458-.936.264-1.232-.558-2.478-1.086-3.729-1.6q-12.235-5.05-24.465-10.111a1.811,1.811,0,0,1-.9-.953,8.482,8.482,0,0,0-16.5,3.337,8.568,8.568,0,0,0,8.422,7.733,8.212,8.212,0,0,0,7.2-4.058c.357-.55.625-.585,1.192-.344,3.707,1.58,7.428,3.123,11.148,4.672,5.511,2.293,11.019,4.595,16.544,6.854a2.132,2.132,0,0,1,1.4,1.388,8.349,8.349,0,0,0,7.714,5.6,8.544,8.544,0,0,0,8.314-6.177,2.694,2.694,0,0,1,.826-1.265q14.257-10.725,28.552-21.4c.206-.154.421-.3.442-.311a25.4,25.4,0,0,0,3.576,2.816c3.682,1.961,7.879.854,10.584-2.668.445-.58.728-.633,1.334-.268q5.408,3.253,10.861,6.432c5.853,3.4,11.73,6.754,17.582,10.153a1.57,1.57,0,0,1,.59.878,8.362,8.362,0,1,0,.771-6.541m-5.375-52.216c-3.978,0-7.956.011-11.935-.006a4.126,4.126,0,0,0-3.155,1.3c-1.782,1.837-3.611,3.628-5.42,5.439-1.893,1.893-3.817,3.757-5.665,5.692a2.521,2.521,0,0,0,.07,3.648,2.634,2.634,0,0,0,3.6.222,9.288,9.288,0,0,0,.911-.832c3.063-3.053,6.132-6.1,9.174-9.175a2.088,2.088,0,0,1,1.638-.65q11.226.028,22.454,0a7.339,7.339,0,0,0,1.745-.2,2.69,2.69,0,0,0,.081-5.213,6.251,6.251,0,0,0-1.653-.215c-3.949-.018-7.9-.01-11.846-.01M32.159,104.483c4.861,0,9.723.006,14.584-.008a7.127,7.127,0,0,0,1.658-.193,2.689,2.689,0,0,0,0-5.255,6.146,6.146,0,0,0-1.481-.184q-14.717-.015-29.434,0a6.2,6.2,0,0,0-1.656.207,2.716,2.716,0,0,0-2.029,2.121A2.288,2.288,0,0,0,14.85,103.7a5.343,5.343,0,0,0,2.547.749c4.919.069,9.84.033,14.761.034M125.488,144c3.034,0,6.067.009,9.1-.008a6.768,6.768,0,0,0,1.569-.189,2.694,2.694,0,0,0,.011-5.258,6.109,6.109,0,0,0-1.481-.185q-9.056-.018-18.112,0a6.727,6.727,0,0,0-1.656.205,2.789,2.789,0,0,0-2.075,2.555,2.872,2.872,0,0,0,2.065,2.669,6.784,6.784,0,0,0,1.656.2c2.974.018,5.949.008,8.923.008m5.751-8.467c0,.03,0,.059,0,.089,1.64-.093,3.293-.085,4.915-.309a2.649,2.649,0,0,0,2.111-2.6,2.836,2.836,0,0,0-2.1-2.637,4.925,4.925,0,0,0-1.215-.181q-3.663-.024-7.326,0a5.545,5.545,0,0,0-1.391.2,2.807,2.807,0,0,0-2.071,2.559,2.886,2.886,0,0,0,2.061,2.669,6.268,6.268,0,0,0,1.479.2c1.176.028,2.354.009,3.53.009M57.591,104.551c.675-.081,1.387-.109,2.07-.261a2.778,2.778,0,0,0,2.168-2.668,2.635,2.635,0,0,0-2.149-2.574,17.153,17.153,0,0,0-4.2.024,2.611,2.611,0,0,0-2.091,2.61,2.9,2.9,0,0,0,2.154,2.608,19.573,19.573,0,0,0,2.047.26" transform="translate(-2.365 -19.801)" fill="#fff"/>
    <path id="Trazado_704765" data-name="Trazado 704765" d="M8.094,187.494H172.232a5.39,5.39,0,0,1,.062.658,54.548,54.548,0,0,1-.19,6.065,5.345,5.345,0,0,1-5.388,4.531c-.767.012-1.534-.009-2.3-.009H14.114a5.7,5.7,0,0,1-6.02-6.024v-5.22M25.08,195.92c2.533,0,5.066.01,7.6-.008a6.8,6.8,0,0,0,1.569-.191,2.691,2.691,0,0,0,0-5.257,6.143,6.143,0,0,0-1.481-.183q-7.643-.02-15.285,0a6.692,6.692,0,0,0-1.656.207,2.789,2.789,0,0,0-2.068,2.561,2.872,2.872,0,0,0,2.07,2.664,6.432,6.432,0,0,0,1.569.2c2.562.019,5.124.008,7.687.009m18.412-5.714c-.692.081-1.372.105-2.026.248a2.761,2.761,0,0,0-2.232,2.594,2.709,2.709,0,0,0,2.237,2.673,16.664,16.664,0,0,0,4.014-.011,2.644,2.644,0,0,0,2.188-2.618,2.794,2.794,0,0,0-2.191-2.64,19.055,19.055,0,0,0-1.99-.245" transform="translate(-2.365 -54.788)" fill="#a8cff0"/>
    <rect id="Rectángulo_348074" data-name="Rectángulo 348074" width="5.553" height="64.8" transform="translate(56.735 5.724)" fill="#ad84ff"/>
    <path id="Trazado_704766" data-name="Trazado 704766" d="M189.007,8.211c.014.286.038.541.038.8,0,5.638-.008,11.277.015,16.916a1.989,1.989,0,0,1-.649,1.546q-5.9,5.831-11.759,11.7c-.491.493-.8.47-1.153-.1-4.239-6.844-4.79-13.824-.83-21,3.036-5.5,7.843-8.489,13.849-9.806.141-.03.288-.033.489-.055" transform="translate(-50.257 -2.399)" fill="#ad84ff"/>
    <path id="Trazado_704767" data-name="Trazado 704767" d="M214.923,39.948a19.005,19.005,0,0,1-4,9.324,19.979,19.979,0,0,1-26.9,4.073c-.59-.391-.6-.643-.112-1.125,3.948-3.915,7.871-7.857,11.824-11.768a1.828,1.828,0,0,1,1.125-.54c5.864-.033,11.728-.022,17.592-.018.115,0,.231.025.471.055" transform="translate(-53.639 -11.656)" fill="#25ffff"/>
    <path id="Trazado_704768" data-name="Trazado 704768" d="M101.559,222.588c.88-2.636,1.731-5.189,2.584-7.742.316-.946.665-1.881.941-2.838a.756.756,0,0,1,.853-.661c7.719.013,15.439,0,23.158.03a1,1,0,0,1,.767.488c1.208,3.518,2.373,7.052,3.545,10.584.007.021-.018.054-.05.137Z" transform="translate(-29.677 -61.758)" fill="#0f58b9"/>
    <rect id="Rectángulo_348075" data-name="Rectángulo 348075" width="5.553" height="53.51" transform="translate(76.552 17.014)" fill="#ad84ff"/>
    <rect id="Rectángulo_348076" data-name="Rectángulo 348076" width="5.553" height="45.043" transform="translate(36.932 25.451)" fill="#ad84ff"/>
    <path id="Trazado_704769" data-name="Trazado 704769" d="M204.183,8.267c7.6.367,16.416,9.139,16.719,16.671H204.183Z" transform="translate(-59.665 -2.416)" fill="#ffc321"/>
    <rect id="Rectángulo_348077" data-name="Rectángulo 348077" width="56.537" height="2.707" transform="translate(59.559 166.582)" fill="#fff"/>
    <rect id="Rectángulo_348078" data-name="Rectángulo 348078" width="5.558" height="13.997" transform="translate(96.368 56.525)" fill="#ad84ff"/>
    <rect id="Rectángulo_348079" data-name="Rectángulo 348079" width="5.582" height="13.989" transform="translate(17.087 56.509)" fill="#ad84ff"/>
    <rect id="Rectángulo_348080" data-name="Rectángulo 348080" width="2.722" height="22.463" transform="translate(68.06 48.061)" fill="#fff"/>
    <rect id="Rectángulo_348081" data-name="Rectángulo 348081" width="2.726" height="22.463" transform="translate(48.239 48.059)" fill="#fff"/>
    <path id="Trazado_704770" data-name="Trazado 704770" d="M153.141,139.648a8.419,8.419,0,0,1,5.824-4.069,8.45,8.45,0,1,1-6.6,10.61,1.569,1.569,0,0,0-.59-.878c-5.852-3.4-11.729-6.756-17.582-10.153q-5.459-3.168-10.862-6.432c-.607-.365-.889-.311-1.333.268-2.7,3.521-6.9,4.628-10.584,2.668a25.363,25.363,0,0,1-3.576-2.816c-.021.014-.236.156-.442.311q-14.284,10.689-28.552,21.4a2.694,2.694,0,0,0-.826,1.265A8.545,8.545,0,0,1,69.709,158a8.349,8.349,0,0,1-7.715-5.6,2.131,2.131,0,0,0-1.4-1.388c-5.525-2.259-11.033-4.561-16.544-6.854-3.72-1.548-7.442-3.092-11.148-4.672-.567-.241-.835-.206-1.192.344a8.212,8.212,0,0,1-7.2,4.058,8.568,8.568,0,0,1-8.422-7.733,8.482,8.482,0,0,1,16.5-3.337,1.815,1.815,0,0,0,.9.953q12.219,5.084,24.465,10.11c1.251.516,2.5,1.044,3.729,1.6.43.195.7.164.936-.264a8.447,8.447,0,0,1,14.091-.7c.09.117.156.251.253.409,2.4-1.789,4.68-3.5,6.965-5.2q11.112-8.293,22.212-16.6a2.555,2.555,0,0,0,.859-1.24,8.482,8.482,0,0,1,7.9-6.212,8.573,8.573,0,0,1,8.341,6.03,2.684,2.684,0,0,0,1.162,1.3q12.439,7.233,24.913,14.4c1.266.73,2.521,1.476,3.818,2.235m-35.132-15.532a2.716,2.716,0,0,0-2.8-2.852,2.761,2.761,0,0,0-2.889,2.867,2.733,2.733,0,0,0,2.812,2.844,2.7,2.7,0,0,0,2.875-2.859m-90.6,11.317a2.727,2.727,0,0,0-2.787-2.872,2.86,2.86,0,0,0-.105,5.72,2.7,2.7,0,0,0,2.893-2.848m135.9,8.45a2.718,2.718,0,0,0-2.79-2.861,2.761,2.761,0,0,0-2.9,2.858,2.733,2.733,0,0,0,2.8,2.852,2.7,2.7,0,0,0,2.885-2.85m-90.6,5.7a2.727,2.727,0,0,0-2.732-2.92,2.858,2.858,0,1,0-.117,5.714,2.693,2.693,0,0,0,2.849-2.794" transform="translate(-4.695 -33.801)"/>
    <path id="Trazado_704771" data-name="Trazado 704771" d="M191.022,75.769c3.949,0,7.9-.008,11.846.009a6.281,6.281,0,0,1,1.653.216,2.69,2.69,0,0,1-.08,5.213,7.341,7.341,0,0,1-1.745.2q-11.227.019-22.454,0a2.089,2.089,0,0,0-1.637.65c-3.042,3.075-6.11,6.122-9.174,9.176a9.281,9.281,0,0,1-.912.832,2.634,2.634,0,0,1-3.6-.222,2.521,2.521,0,0,1-.07-3.648c1.849-1.935,3.773-3.8,5.665-5.692,1.81-1.81,3.639-3.6,5.421-5.439a4.129,4.129,0,0,1,3.155-1.3c3.978.017,7.956.006,11.934.006" transform="translate(-47.952 -22.139)"/>
    <path id="Trazado_704772" data-name="Trazado 704772" d="M34.489,117.31c-4.921,0-9.841.035-14.761-.033a5.354,5.354,0,0,1-2.547-.749A2.287,2.287,0,0,1,16.131,114a2.713,2.713,0,0,1,2.029-2.121,6.235,6.235,0,0,1,1.656-.208q14.717-.018,29.435,0a6.111,6.111,0,0,1,1.481.184,2.689,2.689,0,0,1,0,5.255,7.136,7.136,0,0,1-1.658.193c-4.862.015-9.723.008-14.585.008" transform="translate(-4.696 -32.629)"/>
    <path id="Trazado_704773" data-name="Trazado 704773" d="M168.735,173.138c-2.974,0-5.949.01-8.923-.009a6.784,6.784,0,0,1-1.656-.2,2.873,2.873,0,0,1-2.065-2.669,2.789,2.789,0,0,1,2.075-2.556,6.761,6.761,0,0,1,1.656-.205q9.055-.021,18.112,0a6.109,6.109,0,0,1,1.481.184,2.694,2.694,0,0,1-.011,5.259,6.811,6.811,0,0,1-1.569.189c-3.034.018-6.066.008-9.1.008" transform="translate(-45.612 -48.942)"/>
    <path id="Trazado_704774" data-name="Trazado 704774" d="M179.161,161.174c-1.177,0-2.354.019-3.53-.009a6.262,6.262,0,0,1-1.479-.2,2.886,2.886,0,0,1-2.061-2.67,2.807,2.807,0,0,1,2.071-2.559,5.609,5.609,0,0,1,1.39-.2q3.663-.029,7.326,0a4.93,4.93,0,0,1,1.215.181,2.837,2.837,0,0,1,2.1,2.637,2.649,2.649,0,0,1-2.111,2.6c-1.622.224-3.276.217-4.916.309l0-.089" transform="translate(-50.287 -45.445)"/>
    <path id="Trazado_704775" data-name="Trazado 704775" d="M76.291,117.42a19.573,19.573,0,0,1-2.047-.26,2.9,2.9,0,0,1-2.154-2.608,2.611,2.611,0,0,1,2.091-2.61,17.153,17.153,0,0,1,4.2-.024,2.635,2.635,0,0,1,2.149,2.574,2.778,2.778,0,0,1-2.168,2.668c-.684.152-1.4.18-2.07.261" transform="translate(-21.066 -32.669)"/>
    <path id="Trazado_704776" data-name="Trazado 704776" d="M27.417,197.065c-2.562,0-5.125.011-7.687-.008a6.461,6.461,0,0,1-1.568-.2A2.873,2.873,0,0,1,16.09,194.2a2.792,2.792,0,0,1,2.069-2.562,6.723,6.723,0,0,1,1.656-.207q7.643-.023,15.286,0a6.138,6.138,0,0,1,1.481.184,2.691,2.691,0,0,1,0,5.257,6.729,6.729,0,0,1-1.569.191c-2.533.019-5.066.008-7.6.008" transform="translate(-4.702 -55.934)"/>
    <path id="Trazado_704777" data-name="Trazado 704777" d="M56.349,191.325a19.055,19.055,0,0,1,1.99.245,2.794,2.794,0,0,1,2.191,2.64,2.644,2.644,0,0,1-2.188,2.618,16.664,16.664,0,0,1-4.014.011,2.709,2.709,0,0,1-2.237-2.673,2.761,2.761,0,0,1,2.232-2.594c.654-.142,1.334-.167,2.026-.248" transform="translate(-15.222 -55.907)"/>
    <path id="Trazado_704778" data-name="Trazado 704778" d="M157.748,126.424a2.7,2.7,0,0,1-2.876,2.859,2.732,2.732,0,0,1-2.811-2.844,2.761,2.761,0,0,1,2.888-2.867,2.716,2.716,0,0,1,2.8,2.852" transform="translate(-44.434 -36.109)" fill="#ffc321"/>
    <path id="Trazado_704779" data-name="Trazado 704779" d="M29.745,142.4a2.847,2.847,0,0,1-5.693.07,2.756,2.756,0,0,1,2.906-2.942,2.728,2.728,0,0,1,2.787,2.872" transform="translate(-7.028 -40.773)" fill="#ffc321"/>
    <path id="Trazado_704780" data-name="Trazado 704780" d="M221.748,154.346a2.7,2.7,0,0,1-2.885,2.85,2.732,2.732,0,0,1-2.8-2.852,2.762,2.762,0,0,1,2.9-2.859,2.717,2.717,0,0,1,2.79,2.861" transform="translate(-63.135 -44.266)" fill="#ffc321"/>
    <path id="Trazado_704781" data-name="Trazado 704781" d="M93.749,162.38a2.693,2.693,0,0,1-2.849,2.794,2.858,2.858,0,1,1,.117-5.714,2.727,2.727,0,0,1,2.732,2.92" transform="translate(-25.733 -46.596)" fill="#ffc321"/>
  </g>
</svg>
