<svg id="Grupo_996333" data-name="Grupo 996333" xmlns="http://www.w3.org/2000/svg" xmlns:xlink="http://www.w3.org/1999/xlink" width="186.675" height="186.667" viewBox="0 0 186.675 186.667">
  <defs>
    <clipPath id="clip-path">
      <rect id="Rectángulo_348089" data-name="Rectángulo 348089" width="186.675" height="186.667" fill="none"/>
    </clipPath>
  </defs>
  <g id="Grupo_996332" data-name="Grupo 996332" clip-path="url(#clip-path)">
    <path id="Trazado_704782" data-name="Trazado 704782" d="M126.5,132.48H96.356v1.115c0,7.435.008,14.871-.014,22.307,0,.754.134,1.111.979,1.336a14.967,14.967,0,1,1-18.84,16.142c-.9-7.672,3.51-14.077,10.986-16.209l.831-.233V132.532H60.238V113.159c-1.426.716-2.7,1.356-3.967,1.992-4.818,2.411-9.63,4.833-14.463,7.215-.63.31-.776.59-.569,1.278,3.58,11.868-4.584,24.6-16.842,26.58a20.993,20.993,0,1,1-6.7-41.447c8.118-1.219,14.88,1.435,20.039,7.906.439.551.748.739,1.452.387q10.042-5.027,20.131-9.959a1.39,1.39,0,0,0,.9-1.5q-.033-12.236.009-24.472A1.5,1.5,0,0,0,59.2,79.556Q44.226,72.109,29.285,64.584c-.756-.379-1.568-1.093-2.27-1-.669.087-1.216,1.038-1.837,1.586C20.825,69,15.79,70.206,10.306,68.432,4.859,66.669,1.63,62.659.352,57.121A14.872,14.872,0,0,1,11.315,39.612a14.939,14.939,0,0,1,18.05,10.147,12.894,12.894,0,0,1,.361,7.316,1.042,1.042,0,0,0,.672,1.44Q43.825,65.177,57.225,71.9c.947.473,1.875.983,2.93,1.537V54.207H90.273V41.835a21.153,21.153,0,0,1-17.9-22.52A21.033,21.033,0,1,1,96.4,41.816V54.127H126.44V73.491l2.187-1.095c9.181-4.614,18.352-9.247,27.558-13.811.867-.43.926-.835.748-1.648-1.656-7.578,3.572-15.747,11.086-17.34a14.985,14.985,0,0,1,13.626,3.3c5.2,4.517,6.38,12.572,3.132,18.669-4.065,7.629-16.461,11.233-24.251,2.567-.227-.253-.465-.5-.684-.729-7.109,3.574-14.15,7.13-21.207,10.655q-5.674,2.835-11.4,5.57a1.2,1.2,0,0,0-.769,1.29c.019,8.064.035,16.127-.014,24.191a2.06,2.06,0,0,0,1.356,2.206c6.233,3.011,12.423,6.112,18.625,9.187.615.305,1.213.641,1.894,1,.187-.218.378-.412.538-.627a20.916,20.916,0,0,1,29.968-3.739,20.627,20.627,0,0,1,7.842,16.613,21.034,21.034,0,0,1-41.909,2.253,18.977,18.977,0,0,1,.578-7.9c.383-1.35.36-1.33-.918-1.966q-8.624-4.292-17.236-8.606c-.187-.094-.38-.176-.691-.319Zm-60.222-6.071h54.113V60.269H66.278ZM92.986,36.055c7.706.526,14.97-5.874,15.4-13.844a15.061,15.061,0,0,0-14.4-16.2c-9.824-.518-15.3,7.647-15.7,14.01a14.976,14.976,0,0,0,14.7,16.035m72.136,108.411c7.7.5,15.095-5.906,15.547-13.527.575-9.691-6.235-15.763-13.605-16.467a15.037,15.037,0,1,0-1.942,29.994m-144.576-.017a15.022,15.022,0,0,0,1.787-29.984c-9.882-.942-15.7,7-16.329,13.716a15.014,15.014,0,0,0,14.543,16.268M5.986,54.155a9.085,9.085,0,0,0,9.089,9.062,8.891,8.891,0,0,0,8.982-8.731,9.2,9.2,0,0,0-8.941-9.379c-5.013-.1-9.449,4.645-9.13,9.048m156.64-.008c-.325,4.327,3.984,9.177,9.081,9.093a9,9,0,0,0,8.99-8.748,9.039,9.039,0,1,0-18.071-.345M93.265,180.689a9.007,9.007,0,0,0,9.1-8.726,9.241,9.241,0,0,0-8.816-9.4c-5.625-.163-9.134,5.053-9.288,8.647-.227,5.289,4.6,9.7,9,9.474" transform="translate(0 0)" fill="#161615"/>
    <path id="Trazado_704783" data-name="Trazado 704783" d="M87.775,79.819h54.113v66.139H87.775Zm48.113,30.117H117.83V115.9H105.772v6.066H93.8v17.969h42.084Zm0-12.048H93.8v5.906h42.087Zm-30.04-6.157h30V85.821h-30Zm-6.132-5.884H93.8v5.909h5.911Z" transform="translate(-21.498 -19.549)" fill="#fff"/>
    <path id="Trazado_704784" data-name="Trazado 704784" d="M118.887,38.793c-.322,0-.643-.011-.966-.033a16.3,16.3,0,0,1-11.553-5.2,15.688,15.688,0,0,1-4.2-12.036c.4-6.268,5.6-15.095,15.947-15.095q.465,0,.943.025a16.233,16.233,0,0,1,11.33,5.311,16.573,16.573,0,0,1,4.144,12.083,16.131,16.131,0,0,1-15.645,14.946m-.695-24.056a7.837,7.837,0,0,0-5.458,13.383,7.728,7.728,0,0,0,5.41,2.4h0a7.894,7.894,0,1,0,.119-15.784Z" transform="translate(-25.014 -1.575)" fill="#ad84ff"/>
    <path id="Trazado_704785" data-name="Trazado 704785" d="M117.748,7.2c.29,0,.584.007.883.023a15.047,15.047,0,0,1-.112,30.075q-.443,0-.889-.029a14.977,14.977,0,0,1-14.7-16.036c.39-6.169,5.548-14.032,14.817-14.032m.076,24.091a9.025,9.025,0,1,0,.082-18.049h-.081a9.026,9.026,0,0,0-.056,18.049h.054M117.748,4.93h0c-10.052,0-16.576,8.215-17.077,16.156a16.794,16.794,0,0,0,4.5,12.881,17.513,17.513,0,0,0,12.377,5.562c.321.02.647.029.969.029A17.289,17.289,0,0,0,135.3,23.542a17.7,17.7,0,0,0-4.432-12.9,17.353,17.353,0,0,0-12.113-5.684c-.335-.018-.673-.026-1-.026m.076,24.091h-.042a6.591,6.591,0,0,1-4.606-2.058,6.888,6.888,0,0,1-1.975-4.974,6.82,6.82,0,0,1,6.624-6.485h.059a6.761,6.761,0,1,1-.06,13.518" transform="translate(-24.646 -1.207)" fill="#040405"/>
    <path id="Trazado_704786" data-name="Trazado 704786" d="M214.434,182.364q-.46,0-.922-.029a15.827,15.827,0,0,1-11.492-5.351,16.121,16.121,0,0,1-4.08-12.09c.625-7.219,6.45-14.893,16.012-14.893.553,0,1.121.027,1.684.082,7.746.739,15.257,7.043,14.627,17.661-.47,7.925-7.719,14.62-15.83,14.62m-.4-24.018a7.9,7.9,0,0,0-7.837,7.749,8.039,8.039,0,0,0,2.311,5.684,7.766,7.766,0,0,0,5.573,2.341,7.887,7.887,0,1,0-.035-15.773l-.012-1.133Z" transform="translate(-48.465 -36.738)" fill="#ad84ff"/>
    <path id="Trazado_704787" data-name="Trazado 704787" d="M213.585,150.766q.772,0,1.577.076c7.37.7,14.18,6.776,13.6,16.467-.436,7.342-7.31,13.555-14.7,13.555q-.424,0-.849-.027a15.039,15.039,0,0,1,.366-30.07m.129,24.117h0a9.019,9.019,0,1,0-.033-18.038h-.014a9.019,9.019,0,0,0,.048,18.038m-.128-26.383h0c-10.238,0-16.473,8.206-17.141,15.928a17.257,17.257,0,0,0,4.366,12.944A16.979,16.979,0,0,0,213.12,183.1c.313.019.632.029.948.029,8.689,0,16.456-7.183,16.96-15.685a17.7,17.7,0,0,0-4.405-13.259,17.345,17.345,0,0,0-11.245-5.6c-.6-.057-1.2-.086-1.791-.086m.128,26.383v-2.265a6.64,6.64,0,0,1-4.765-2,6.916,6.916,0,0,1-1.986-4.888,6.769,6.769,0,0,1,13.536.219,6.832,6.832,0,0,1-6.785,6.673Z" transform="translate(-48.097 -36.37)" fill="#040405"/>
    <path id="Trazado_704788" data-name="Trazado 704788" d="M22.944,182.345q-.46,0-.914-.03A15.814,15.814,0,0,1,10.546,177,16.045,16.045,0,0,1,6.435,164.81c.674-7.184,6.466-14.819,15.873-14.819.555,0,1.124.028,1.691.082a16.166,16.166,0,0,1-1.056,32.272m-.472-24a7.826,7.826,0,0,0-7.769,7.635A8.148,8.148,0,0,0,17.08,171.8a7.752,7.752,0,0,0,5.515,2.317,7.887,7.887,0,1,0-.032-15.773Z" transform="translate(-1.56 -36.735)" fill="#ad84ff"/>
    <path id="Trazado_704789" data-name="Trazado 704789" d="M21.94,150.756q.774,0,1.584.076a15.033,15.033,0,0,1-.949,30.012c-.281,0-.56-.009-.837-.028A15.014,15.014,0,0,1,7.2,164.549c.6-6.345,5.827-13.792,14.745-13.792m.3,24.125a9.02,9.02,0,1,0-.026-18.039H22.1a9,9,0,0,0-8.9,8.763,9.154,9.154,0,0,0,9.026,9.276h.009m-.3-26.39h0c-10.077,0-16.28,8.165-17,15.846a17.182,17.182,0,0,0,4.4,13.059,16.991,16.991,0,0,0,12.314,5.685c.305.019.615.029.923.029a17.3,17.3,0,0,0,1.164-34.532c-.6-.057-1.208-.087-1.8-.087m.286,26.39,0-2.265a6.629,6.629,0,0,1-4.714-1.984,7.026,7.026,0,0,1-2.049-5.018,6.763,6.763,0,0,1,6.638-6.506h.078a6.754,6.754,0,1,1,.054,13.508Z" transform="translate(-1.192 -36.368)" fill="#040405"/>
    <path id="Trazado_704790" data-name="Trazado 704790" d="M7.923,68.786c-.319-4.4,4.117-9.143,9.13-9.047a9.2,9.2,0,0,1,8.941,9.378,8.891,8.891,0,0,1-8.982,8.732,9.086,9.086,0,0,1-9.09-9.063" transform="translate(-1.936 -14.631)" fill="#fff"/>
    <path id="Trazado_704791" data-name="Trazado 704791" d="M215.369,68.785a9.039,9.039,0,1,1,18.071.346,9,9,0,0,1-8.99,8.747c-5.1.085-9.407-4.765-9.081-9.093" transform="translate(-52.743 -14.638)" fill="#fff"/>
    <path id="Trazado_704792" data-name="Trazado 704792" d="M120.594,233.417c-4.4.224-9.227-4.185-9-9.474.154-3.594,3.663-8.81,9.288-8.647a9.241,9.241,0,0,1,8.816,9.4,9.007,9.007,0,0,1-9.1,8.726" transform="translate(-27.329 -52.729)" fill="#fff"/>
    <path id="Trazado_704793" data-name="Trazado 704793" d="M137.844,119.7v30H95.76V131.736h11.968v-6.066h12.058V119.7Zm-6.055,6h-5.9v17.985h5.9Zm-17.938,17.948h5.9V131.727h-5.9Zm-6.114-5.866H101.8v5.872h5.939Z" transform="translate(-23.453 -29.317)" fill="#161615"/>
    <rect id="Rectángulo_348083" data-name="Rectángulo 348083" width="42.087" height="5.906" transform="translate(72.301 78.338)" fill="#161615"/>
    <rect id="Rectángulo_348084" data-name="Rectángulo 348084" width="30.005" height="5.909" transform="translate(84.347 66.272)" fill="#161615"/>
    <rect id="Rectángulo_348085" data-name="Rectángulo 348085" width="5.911" height="5.909" transform="translate(72.305 66.296)" fill="#161615"/>
    <path id="Trazado_704794" data-name="Trazado 704794" d="M129.718,24.978a9.068,9.068,0,0,1-9.256,9,9.025,9.025,0,0,1,.137-18.049,9.049,9.049,0,0,1,9.118,9.046m-6.013-.006a2.931,2.931,0,0,0-2.95-3.079A3.052,3.052,0,1,0,120.7,28a2.912,2.912,0,0,0,3-3.023" transform="translate(-27.339 -3.902)" fill="#161615"/>
    <path id="Trazado_704795" data-name="Trazado 704795" d="M216.41,177.591a9.019,9.019,0,1,1,9.05-8.933,9.076,9.076,0,0,1-9.05,8.933m3.04-9.032a2.921,2.921,0,0,0-2.983-3.062,3.05,3.05,0,1,0-.018,6.1,2.9,2.9,0,0,0,3-3.038" transform="translate(-50.794 -39.077)" fill="#161615"/>
    <path id="Trazado_704796" data-name="Trazado 704796" d="M33.979,168.564a9.057,9.057,0,0,1-9.049,9.026,9.154,9.154,0,0,1-9.026-9.276,9.039,9.039,0,0,1,18.074.251m-6.017.013A2.925,2.925,0,0,0,24.99,165.5a3.047,3.047,0,1,0-.053,6.094,2.912,2.912,0,0,0,3.025-3.02" transform="translate(-3.895 -39.076)" fill="#161615"/>
    <rect id="Rectángulo_348086" data-name="Rectángulo 348086" width="8.169" height="20.25" rx="1.5" transform="translate(101.298 95.257)" fill="#59bbcb"/>
    <path id="Trazado_704797" data-name="Trazado 704797" d="M140.825,144.9h-5.9V126.919h5.9Zm0-20.25h-5.9a2.265,2.265,0,0,0-2.265,2.265V144.9a2.265,2.265,0,0,0,2.265,2.265h5.9a2.265,2.265,0,0,0,2.265-2.265V126.919a2.265,2.265,0,0,0-2.265-2.265" transform="translate(-32.489 -30.53)" fill="#040405"/>
    <rect id="Rectángulo_348087" data-name="Rectángulo 348087" width="8.17" height="14.193" rx="1.5" transform="translate(89.265 101.277)" fill="#59bbcb"/>
    <path id="Trazado_704798" data-name="Trazado 704798" d="M124.889,146.82h-5.9V134.893h5.9Zm0-14.193h-5.9a2.265,2.265,0,0,0-2.265,2.265V146.82a2.266,2.266,0,0,0,2.265,2.265h5.9a2.266,2.266,0,0,0,2.265-2.265V134.892a2.265,2.265,0,0,0-2.265-2.265" transform="translate(-28.586 -32.483)" fill="#040405"/>
    <rect id="Rectángulo_348088" data-name="Rectángulo 348088" width="8.204" height="8.137" rx="1.5" transform="translate(77.212 107.339)" fill="#59bbcb"/>
    <path id="Trazado_704799" data-name="Trazado 704799" d="M108.961,148.792h-5.939V142.92h5.939Zm0-8.137h-5.939a2.265,2.265,0,0,0-2.265,2.265v5.872a2.265,2.265,0,0,0,2.265,2.265h5.939a2.265,2.265,0,0,0,2.265-2.265V142.92a2.265,2.265,0,0,0-2.265-2.265" transform="translate(-24.677 -34.449)" fill="#040405"/>
    <path id="Trazado_704800" data-name="Trazado 704800" d="M122.263,30.695a4.121,4.121,0,0,1-4.174-4.1,4.11,4.11,0,0,1,4.23-4.265,4.185,4.185,0,0,1-.024,8.369Z" transform="translate(-28.922 -5.468)" fill="#ffc321"/>
    <path id="Trazado_704801" data-name="Trazado 704801" d="M121.951,23.091h.018a3.052,3.052,0,0,1-.051,6.1h-.024a3.051,3.051,0,1,1,.057-6.1m0-2.265h-.006a5.241,5.241,0,0,0-5.36,5.407,5.243,5.243,0,0,0,5.307,5.226h.041a5.171,5.171,0,0,0,5.249-5.3,5.186,5.186,0,0,0-5.206-5.337h-.025" transform="translate(-28.554 -5.101)" fill="#040405"/>
    <path id="Trazado_704802" data-name="Trazado 704802" d="M218.006,174.29a4.182,4.182,0,0,1,.034-8.365,4.068,4.068,0,0,1,4.123,4.191,4.023,4.023,0,0,1-4.127,4.174Z" transform="translate(-52.373 -40.638)" fill="#ffc321"/>
    <path id="Trazado_704803" data-name="Trazado 704803" d="M217.7,166.689a3.051,3.051,0,0,1-.04,6.1h-.022a3.05,3.05,0,1,1,.04-6.1h.022m0-2.265h-.036a5.315,5.315,0,0,0-.026,10.631,5.316,5.316,0,0,0,.062-10.631" transform="translate(-52.006 -40.27)" fill="#040405"/>
    <path id="Trazado_704804" data-name="Trazado 704804" d="M26.509,174.294a4.093,4.093,0,0,1-4.163-4.159,4.164,4.164,0,1,1,8.327.006,4.023,4.023,0,0,1-4.156,4.153Z" transform="translate(-5.473 -40.64)" fill="#ffc321"/>
    <path id="Trazado_704805" data-name="Trazado 704805" d="M26.208,166.7a3.048,3.048,0,0,1-.06,6.094h-.006A3.047,3.047,0,1,1,26.2,166.7Zm0-2.265h-.015a5.313,5.313,0,1,0-.051,10.625,5.313,5.313,0,0,0,.066-10.625" transform="translate(-5.106 -40.273)" fill="#040405"/>
  </g>
</svg>
