<svg id="Grupo_996341" data-name="Grupo 996341" xmlns="http://www.w3.org/2000/svg" xmlns:xlink="http://www.w3.org/1999/xlink" width="185.999" height="186.01" viewBox="0 0 185.999 186.01">
  <defs>
    <clipPath id="clip-path">
      <rect id="Rectángulo_348112" data-name="Rectángulo 348112" width="185.998" height="186.011" fill="none"/>
    </clipPath>
  </defs>
  <g id="Grupo_996340" data-name="Grupo 996340" clip-path="url(#clip-path)">
    <path id="Trazado_704820" data-name="Trazado 704820" d="M132.04,186.01h53.921V120.037H161.966V102.013H144.058V90.325a33.308,33.308,0,0,0,4.874-1.207,8.746,8.746,0,0,0,5.01-5.739c.785-2.422,2.525-3.155,4.828-2.09.2.092.389.2.588.291a8.548,8.548,0,0,0,9.721-1.246,88.2,88.2,0,0,0,7.485-7.486,7.494,7.494,0,0,0,1.748-6.74,20.78,20.78,0,0,0-1.228-3.515,3.167,3.167,0,0,1,1.952-4.521c.41-.151.824-.293,1.225-.464,3.151-1.347,5.213-3.694,5.519-7.1a91.191,91.191,0,0,0,.151-10.2,8.457,8.457,0,0,0-2.419-5.653,9.986,9.986,0,0,0-4.268-2.6c-2.34-.781-3.092-2.593-2.058-4.808.238-.509.491-1.013.688-1.538a8.061,8.061,0,0,0-1.319-8.542,93.945,93.945,0,0,0-7.474-7.5,7.952,7.952,0,0,0-7.152-1.934A19.95,19.95,0,0,0,158.51,8.96a3.23,3.23,0,0,1-4.472-1.968c-.086-.234-.156-.474-.242-.708C152.5,2.788,150.073.51,146.329.2A88.843,88.843,0,0,0,136.22.09a7.882,7.882,0,0,0-6.6,3.536,15.608,15.608,0,0,0-1.574,3.163c-.838,2.226-2.591,3.028-4.761,2.059-.4-.178-.786-.383-1.192-.545-3.328-1.334-6.522-1.028-9.209,1.34a98.462,98.462,0,0,0-7.287,7.294,7.9,7.9,0,0,0-1.911,7.322,21.478,21.478,0,0,0,1.341,3.475c.635,1.536.192,2.275-1.392,2.275q-43.648,0-87.3.02a23.453,23.453,0,0,0-5.024.479A14.769,14.769,0,0,0,.232,47.339a15.133,15.133,0,0,0,6.117,9.955,15.63,15.63,0,0,0,9.458,2.734q43.929-.01,87.858,0a4.325,4.325,0,0,0,.655-.005c.738-.116,1.025.3.9.913a11.691,11.691,0,0,1-.764,2.564,8.332,8.332,0,0,0,1.124,9.472,96.968,96.968,0,0,0,7.349,7.492,7.454,7.454,0,0,0,6.692,1.9,20.322,20.322,0,0,0,3.8-1.254,3.24,3.24,0,0,1,4.531,1.956c.149.411.277.83.452,1.229a8.762,8.762,0,0,0,7.174,5.591c.791.108,1.59.159,2.371.235v11.944H23.93v18.022H.032V186h53.9V120.022H30.02V108.1h59.9v11.974H66.042v65.931h53.9V120.028H96.063V108.1h59.869v11.971H132.04Z" transform="translate(0 0)" fill="#fff"/>
    <path id="Trazado_704821" data-name="Trazado 704821" d="M132.04,186.01V120.068h23.892V108.1H96.063v11.931h23.88v65.978h-53.9V120.075H89.916V108.1H30.02v11.92H53.927V186H.032V120.082h23.9V102.059H137.945V90.115c-.782-.076-1.581-.126-2.372-.235a8.762,8.762,0,0,1-7.174-5.591c-.175-.4-.3-.818-.452-1.229a3.24,3.24,0,0,0-4.531-1.956,20.322,20.322,0,0,1-3.8,1.254,7.455,7.455,0,0,1-6.692-1.9,97.1,97.1,0,0,1-7.349-7.492,8.332,8.332,0,0,1-1.124-9.472,11.65,11.65,0,0,0,.764-2.564c.123-.609-.164-1.029-.9-.913a4.324,4.324,0,0,1-.655.005q-43.929,0-87.858,0a15.63,15.63,0,0,1-9.458-2.734A15.136,15.136,0,0,1,.232,47.339,14.769,14.769,0,0,1,11.315,30.508a23.449,23.449,0,0,1,5.024-.479q43.647-.042,87.295-.02c1.584,0,2.028-.739,1.392-2.275a21.478,21.478,0,0,1-1.341-3.475,7.9,7.9,0,0,1,1.911-7.322,98.608,98.608,0,0,1,7.287-7.294c2.688-2.368,5.881-2.673,9.21-1.34.4.162.792.367,1.192.545,2.169.969,3.922.167,4.76-2.059a15.608,15.608,0,0,1,1.574-3.163A7.882,7.882,0,0,1,136.22.09,88.843,88.843,0,0,1,146.329.2c3.744.312,6.172,2.59,7.466,6.086.087.234.156.474.242.708A3.23,3.23,0,0,0,158.51,8.96a19.973,19.973,0,0,1,3.417-1.231,7.954,7.954,0,0,1,7.153,1.934,93.935,93.935,0,0,1,7.473,7.5,8.061,8.061,0,0,1,1.319,8.542c-.2.525-.45,1.029-.688,1.538-1.034,2.215-.281,4.027,2.058,4.808a9.981,9.981,0,0,1,4.268,2.6A8.457,8.457,0,0,1,185.93,40.3a91.191,91.191,0,0,1-.151,10.2c-.3,3.406-2.367,5.753-5.518,7.1-.4.172-.815.313-1.225.464a3.166,3.166,0,0,0-1.951,4.521,20.842,20.842,0,0,1,1.227,3.515,7.494,7.494,0,0,1-1.748,6.74,88.2,88.2,0,0,1-7.485,7.486,8.548,8.548,0,0,1-9.721,1.246c-.2-.09-.389-.2-.588-.291-2.3-1.064-4.043-.332-4.828,2.09a8.746,8.746,0,0,1-5.01,5.739,33.321,33.321,0,0,1-4.873,1.207v11.688h17.907v18.023h23.995V186.01ZM6.038,180H47.928v-53.9H6.038ZM111.058,60.026A10.613,10.613,0,0,1,109.8,66a2.971,2.971,0,0,0,.555,3.627c2.016,2.048,4.043,4.086,6.1,6.092a3.025,3.025,0,0,0,3.559.541c.4-.172.782-.392,1.182-.566a8.507,8.507,0,0,1,9.017.934,9.755,9.755,0,0,1,3.469,5.1,2.932,2.932,0,0,0,3.121,2.3c2.344.015,4.69-.068,7.031.014,3.373.12,3.911-.606,4.877-3.3a8.676,8.676,0,0,1,8.707-5.84,14.674,14.674,0,0,1,4.18,1.2c1.413.545,2.747.782,3.924-.354,2.067-2,4.09-4.04,6.108-6.087a3.065,3.065,0,0,0,.548-3.716c-.182-.4-.383-.786-.548-1.189a8.828,8.828,0,0,1,1.076-9.04,9.156,9.156,0,0,1,4.681-3.272c2.151-.723,2.615-1.432,2.615-3.727V41.5c0-2.545-.405-3.126-2.8-3.98a9.108,9.108,0,0,1-5.222-13.028c.946-1.891.81-2.913-.642-4.408-1.872-1.928-3.794-3.807-5.71-5.692a3.1,3.1,0,0,0-3.709-.581,17.174,17.174,0,0,1-2.7,1.045,8.148,8.148,0,0,1-7.411-1.453,9.846,9.846,0,0,1-3.366-4.728C147.724,6.484,147.018,6,144.678,6Q140.74,6,136.8,6a2.974,2.974,0,0,0-3.112,2.189,17.558,17.558,0,0,1-1.058,2.491,8.919,8.919,0,0,1-11.872,3.475c-2.294-1.2-3.171-1.021-5.011.776q-2.548,2.489-5.023,5.054c-1.537,1.6-1.676,2.553-.7,4.553a9.665,9.665,0,0,1,1.057,4.7,6.992,6.992,0,0,0,.053.77c2.443,0,4.817.017,7.189-.023.265,0,.57-.286.779-.51,1.681-1.8,3.145-3.867,5.046-5.388a26.1,26.1,0,0,1,20.673-5.731c13.556,1.908,22.334,12.976,23.111,25.257a25.122,25.122,0,0,1-6.387,18.765c-6.59,7.425-14.858,10.736-24.747,9.217a25.813,25.813,0,0,1-17.65-10.967c-.178-.25-.487-.569-.741-.575-2.4-.044-4.8-.026-7.346-.026M72.025,180.006h41.891V126.1H72.025Zm107.913-53.88H138.046v53.9h41.893ZM126.263,59.965a21.029,21.029,0,0,0,21.815,4.869c9.123-3.287,14.472-11.65,13.9-21.4a21.085,21.085,0,0,0-15.65-18.818c-7.121-1.781-17.078.879-19.723,5.158a29.436,29.436,0,0,1,4.379.876c4.786,1.706,9.526,3.543,14.275,5.349a70.352,70.352,0,0,1,6.857,2.73,7.016,7.016,0,0,1,2.116,10.875,8.5,8.5,0,0,1-3.785,2.5c-4.848,1.813-9.668,3.7-14.55,5.421-3.055,1.074-5.919,2.933-9.638,2.438m-.312-23.885H42.024v5.884h83.927ZM42.023,53.956h83.894V48.064H42.023Zm-18.113.052v-18c-2.931,0-5.8.115-8.666-.025-5.254-.257-9.551,4.746-9.313,9.395.214,4.176,3.919,8.413,8.083,8.6,3.269.144,6.548.029,9.9.029m108.119-1.244c2.626-.986,5.129-1.927,7.632-2.865,3.006-1.127,6.02-2.235,9.014-3.39.6-.231,1.3-.378,1.348-1.326.05-1.028-.566-1.37-1.325-1.655q-7.79-2.927-15.584-5.842c-.338-.126-.682-.231-1.086-.367ZM35.93,36.076H30.045v17.9H35.93Z" transform="translate(0 0)" fill="#161615"/>
    <path id="Trazado_704822" data-name="Trazado 704822" d="M8.026,167.622H49.917v53.9H8.026Zm35.9,42.042H26.039v5.886H43.925ZM26.006,191.526H43.892v-5.892H26.006Zm17.916-17.881H26.036v5.892H43.922ZM25.979,203.538H43.9v-5.872H25.979Zm-6.059-17.9h-5.9v5.888h5.9ZM14,203.543h5.9v-5.883H14Zm5.913-29.909h-5.9v5.881h5.9Zm-5.892,41.892h5.887V209.64H14.025Z" transform="translate(-1.988 -41.528)" fill="#fff"/>
    <path id="Trazado_704823" data-name="Trazado 704823" d="M180.141,86.794c-.215,0-.442,0-.684-.013-.793-.028-1.586-.037-2.379-.037-.663,0-1.325.006-1.989.012s-1.339.012-2.009.012l-.622,0a4.065,4.065,0,0,1-4.189-3.088,8.621,8.621,0,0,0-3.065-4.534,7.34,7.34,0,0,0-4.468-1.583,8.638,8.638,0,0,0-3.429.777c-.178.077-.351.165-.524.253-.218.11-.437.219-.661.315a4.933,4.933,0,0,1-1.949.431,4.023,4.023,0,0,1-2.844-1.2c-1.81-1.766-3.7-3.649-6.118-6.11a4.1,4.1,0,0,1-.764-4.914,9.478,9.478,0,0,0,1.15-5.362,1.129,1.129,0,0,1,1.122-1.25l3.335,0c1.36,0,2.7.006,4.032.03a2.239,2.239,0,0,1,1.638,1.046,24.722,24.722,0,0,0,16.9,10.508,29.272,29.272,0,0,0,4.425.348c7.393,0,13.888-3.095,19.306-9.2a23.859,23.859,0,0,0,6.105-17.945,25.74,25.74,0,0,0-22.142-24.21,28,28,0,0,0-3.884-.278,24.167,24.167,0,0,0-19.21,9.181c-.527.618-1.073,1.259-1.643,1.869a2.323,2.323,0,0,1-1.584.869c-1.3.022-2.59.026-3.9.026l-3.312,0a1.128,1.128,0,0,1-1.125-1.044l-.023-.242a4.489,4.489,0,0,1-.033-.661,8.528,8.528,0,0,0-.944-4.158c-1.179-2.427-.95-3.9.907-5.827,1.582-1.644,3.28-3.354,5.048-5.079,1.177-1.15,2.171-1.863,3.484-1.863a6.064,6.064,0,0,1,2.838.894,7.683,7.683,0,0,0,3.59.915,8.009,8.009,0,0,0,6.776-3.946,14.28,14.28,0,0,0,.872-2.03l.113-.3a4.086,4.086,0,0,1,4.166-2.922h7.878c2.835,0,3.967.806,4.846,3.449a8.735,8.735,0,0,0,2.995,4.2,6.671,6.671,0,0,0,4.281,1.524,9.041,9.041,0,0,0,2.16-.281,12.711,12.711,0,0,0,2.059-.782l.457-.2a5.049,5.049,0,0,1,2.014-.456,4.1,4.1,0,0,1,2.937,1.268l.594.584c1.694,1.665,3.446,3.388,5.133,5.126,1.778,1.83,2.006,3.375.84,5.7a7.983,7.983,0,0,0,4.594,11.461c2.848,1.017,3.544,2.007,3.544,5.042v7.221c0,2.8-.792,3.925-3.384,4.8a8.031,8.031,0,0,0-4.127,2.865,7.692,7.692,0,0,0-.946,7.95c.1.246.216.485.33.725l.2.421a4.2,4.2,0,0,1-.771,4.979c-2.039,2.069-4.043,4.094-6.127,6.108a3.822,3.822,0,0,1-2.728,1.125,6.548,6.548,0,0,1-2.387-.53l-.306-.119a12.613,12.613,0,0,0-3.54-1.007c-.159-.011-.32-.016-.478-.016a7.522,7.522,0,0,0-7.094,5.11c-.99,2.759-1.835,4.059-5.294,4.059" transform="translate(-35.662 -1.604)" fill="#ad84ff"/>
    <path id="Trazado_704824" data-name="Trazado 704824" d="M175.249,7.231l4.72,0c2.339,0,3.046.484,3.775,2.677a9.846,9.846,0,0,0,3.366,4.728,7.814,7.814,0,0,0,4.981,1.767,10.134,10.134,0,0,0,2.431-.314,17.145,17.145,0,0,0,2.7-1.045,3.918,3.918,0,0,1,1.563-.362,2.988,2.988,0,0,1,2.145.943c1.915,1.884,3.837,3.764,5.71,5.692,1.452,1.5,1.588,2.518.642,4.409A9.108,9.108,0,0,0,212.5,38.755c2.39.854,2.795,1.435,2.8,3.979v7.221c0,2.3-.463,3-2.615,3.727A9.152,9.152,0,0,0,208,56.954a8.827,8.827,0,0,0-1.076,9.039c.165.4.366.793.547,1.19a3.063,3.063,0,0,1-.548,3.716c-2.017,2.047-4.04,4.091-6.107,6.087a2.685,2.685,0,0,1-1.944.809,5.626,5.626,0,0,1-1.981-.454,14.667,14.667,0,0,0-4.18-1.2c-.184-.012-.369-.017-.551-.017A8.691,8.691,0,0,0,184,81.981c-.9,2.511-1.429,3.312-4.231,3.312-.2,0-.417,0-.645-.013-.8-.028-1.611-.037-2.417-.037-1.334,0-2.668.024-4,.024l-.612,0a2.932,2.932,0,0,1-3.12-2.3,9.76,9.76,0,0,0-3.47-5.1,8.495,8.495,0,0,0-5.139-1.805,9.7,9.7,0,0,0-3.879.871c-.4.175-.781.393-1.182.566a3.826,3.826,0,0,1-1.5.339,2.871,2.871,0,0,1-2.055-.88q-3.087-3.009-6.1-6.093a2.969,2.969,0,0,1-.555-3.627,10.619,10.619,0,0,0,1.259-5.979c1.137,0,2.246,0,3.339,0,1.352,0,2.68.005,4.007.029.254,0,.563.325.741.574a25.808,25.808,0,0,0,17.65,10.968,30.3,30.3,0,0,0,4.6.361c7.88,0,14.606-3.334,20.148-9.578a25.121,25.121,0,0,0,6.388-18.765c-.777-12.281-9.556-23.348-23.111-25.257a28.935,28.935,0,0,0-4.041-.289,26.05,26.05,0,0,0-16.632,6.02c-1.9,1.522-3.366,3.587-5.046,5.388-.209.224-.515.506-.779.51-1.293.021-2.587.026-3.892.026-1.089,0-2.185,0-3.3,0a7,7,0,0,1-.053-.77,9.665,9.665,0,0,0-1.057-4.7c-.971-2-.832-2.955.7-4.553q2.47-2.567,5.023-5.054c1.068-1.043,1.812-1.541,2.7-1.541a5.213,5.213,0,0,1,2.315.765,8.8,8.8,0,0,0,4.114,1.045,9.155,9.155,0,0,0,7.758-4.52,17.385,17.385,0,0,0,1.058-2.491,2.974,2.974,0,0,1,3.113-2.189l3.155,0m0-2.257-3.159,0a5.233,5.233,0,0,0-5.222,3.655l-.111.3a13.335,13.335,0,0,1-.8,1.874,6.944,6.944,0,0,1-5.793,3.374,6.571,6.571,0,0,1-3.067-.787,7.388,7.388,0,0,0-3.363-1.023,6.129,6.129,0,0,0-4.273,2.183c-1.776,1.735-3.483,3.453-5.072,5.1-2.179,2.266-2.491,4.257-1.109,7.1a7.441,7.441,0,0,1,.832,3.617,5.423,5.423,0,0,0,.038.824c.007.067.014.137.02.211a2.257,2.257,0,0,0,2.251,2.088l1.662,0,1.635,0c1.082,0,2.507,0,3.93-.027a3.442,3.442,0,0,0,2.392-1.227c.587-.629,1.14-1.279,1.677-1.908a24.344,24.344,0,0,1,3.129-3.258,23.9,23.9,0,0,1,15.222-5.525,26.785,26.785,0,0,1,3.727.267,24.621,24.621,0,0,1,21.172,23.165,22.758,22.758,0,0,1-5.822,17.123c-5.194,5.853-11.4,8.819-18.46,8.819a28.194,28.194,0,0,1-4.255-.335,23.632,23.632,0,0,1-16.155-10.046,3.321,3.321,0,0,0-2.537-1.521c-1.449-.026-2.86-.03-4.049-.03l-1.641,0-1.7,0a2.258,2.258,0,0,0-2.244,2.5,8.305,8.305,0,0,1-1.042,4.744,5.243,5.243,0,0,0,.974,6.2c2.432,2.471,4.324,4.361,6.134,6.126a5.13,5.13,0,0,0,3.631,1.521,6.064,6.064,0,0,0,2.4-.523c.245-.106.485-.225.725-.345.154-.077.308-.156.466-.225a7.511,7.511,0,0,1,2.978-.684,6.252,6.252,0,0,1,3.8,1.362,7.538,7.538,0,0,1,2.661,3.967,5.157,5.157,0,0,0,5.258,3.876l.626,0c.674,0,1.348-.006,2.021-.012s1.321-.012,1.981-.012c.9,0,1.644.011,2.337.035.256.009.5.014.725.014,4.3,0,5.345-1.993,6.356-4.807a6.4,6.4,0,0,1,6.032-4.362c.135,0,.271,0,.408.013a11.868,11.868,0,0,1,3.2.933l.308.119a7.773,7.773,0,0,0,2.794.606,4.91,4.91,0,0,0,3.511-1.442c2.1-2.028,4.189-4.139,6.148-6.127a5.326,5.326,0,0,0,.992-6.24c-.068-.147-.138-.294-.208-.441-.1-.22-.211-.438-.3-.662a6.561,6.561,0,0,1,.814-6.861,6.947,6.947,0,0,1,3.572-2.458c3.067-1.03,4.153-2.564,4.153-5.865V42.735c0-3.5-1-4.93-4.294-6.1a6.856,6.856,0,0,1-3.963-9.893c1.389-2.774,1.088-4.8-1.04-6.991-1.691-1.741-3.442-3.462-5.135-5.127l-.611-.6a5.252,5.252,0,0,0-3.728-1.592,6.172,6.172,0,0,0-2.467.55l-.459.2a12,12,0,0,1-1.875.72,7.949,7.949,0,0,1-1.89.247,5.589,5.589,0,0,1-3.581-1.28A7.549,7.549,0,0,1,185.886,9.2c-1.036-3.117-2.584-4.222-5.916-4.222h-4.72Z" transform="translate(-35.291 -1.232)" fill="#040405"/>
    <path id="Trazado_704825" data-name="Trazado 704825" d="M95.746,167.634h41.891v53.9H95.746Zm35.922,30.025H101.779v17.9h29.889Zm-17.9-18.143h17.891v-5.889H113.772Zm-.023,12.01h17.886v-5.888H113.749Zm-6.086-5.884h-5.9v5.881h5.9Zm0-11.994h-5.886v5.892h5.886Z" transform="translate(-23.721 -41.531)" fill="#fff"/>
    <path id="Trazado_704826" data-name="Trazado 704826" d="M225.4,221.569H183.51v-53.9H225.4Zm-35.874-6.032h29.889V197.643H189.529Zm0-36.016h29.885v-5.889H189.53ZM189.5,191.53h29.921v-5.878H189.5Z" transform="translate(-45.464 -41.539)" fill="#fff"/>
    <path id="Trazado_704827" data-name="Trazado 704827" d="M167.847,67.89c3.719.494,6.583-1.365,9.638-2.438,4.882-1.717,9.7-3.608,14.55-5.421a8.494,8.494,0,0,0,3.785-2.5A7.015,7.015,0,0,0,193.7,46.659a70.351,70.351,0,0,0-6.857-2.73c-4.75-1.807-9.49-3.643-14.275-5.349a29.429,29.429,0,0,0-4.378-.877c2.645-4.279,12.6-6.938,19.723-5.157a21.084,21.084,0,0,1,15.65,18.818c.568,9.745-4.781,18.108-13.9,21.395a21.03,21.03,0,0,1-21.815-4.869" transform="translate(-41.584 -7.924)" fill="#fff"/>
    <rect id="Rectángulo_348093" data-name="Rectángulo 348093" width="86.184" height="8.141" rx="1.5" transform="translate(40.896 34.951)" fill="#f4df36"/>
    <path id="Trazado_704828" data-name="Trazado 704828" d="M139.048,53.1H55.121V47.219h83.927Zm0-8.141H55.121a2.257,2.257,0,0,0-2.257,2.257V53.1a2.257,2.257,0,0,0,2.257,2.257h83.927A2.257,2.257,0,0,0,141.3,53.1V47.219a2.257,2.257,0,0,0-2.257-2.257" transform="translate(-13.097 -11.139)" fill="#040405"/>
    <rect id="Rectángulo_348094" data-name="Rectángulo 348094" width="86.151" height="8.148" rx="1.5" transform="translate(40.895 46.936)" fill="#f4df36"/>
    <path id="Trazado_704829" data-name="Trazado 704829" d="M139.014,69.042H55.12V63.151h83.894Zm0-8.148H55.12a2.257,2.257,0,0,0-2.257,2.257v5.892A2.257,2.257,0,0,0,55.12,71.3h83.894a2.257,2.257,0,0,0,2.257-2.257V63.151a2.257,2.257,0,0,0-2.257-2.257" transform="translate(-13.097 -15.086)" fill="#040405"/>
    <path id="Trazado_704830" data-name="Trazado 704830" d="M25.86,65.857c-3.348,0-6.627.115-9.9-.029-4.164-.184-7.869-4.421-8.083-8.6-.238-4.649,4.058-9.652,9.313-9.395,2.862.14,5.735.025,8.666.025Z" transform="translate(-1.95 -11.849)" fill="#ad84ff"/>
    <path id="Trazado_704831" data-name="Trazado 704831" d="M175.512,65.054V49.609c.4.136.749.241,1.086.367q7.793,2.918,15.584,5.842c.758.285,1.375.627,1.325,1.655-.047.948-.749,1.1-1.348,1.326-2.995,1.155-6.008,2.263-9.014,3.39-2.5.938-5.006,1.879-7.632,2.865" transform="translate(-43.483 -12.291)" fill="#fff"/>
    <rect id="Rectángulo_348095" data-name="Rectángulo 348095" width="5.885" height="17.897" transform="translate(30.045 36.076)" fill="#fff"/>
    <rect id="Rectángulo_348096" data-name="Rectángulo 348096" width="17.886" height="5.886" transform="translate(24.05 168.136)" fill="#161615"/>
    <rect id="Rectángulo_348097" data-name="Rectángulo 348097" width="17.886" height="5.892" transform="translate(24.017 144.106)" fill="#161615"/>
    <rect id="Rectángulo_348098" data-name="Rectángulo 348098" width="17.886" height="5.892" transform="translate(24.047 132.117)" fill="#161615"/>
    <rect id="Rectángulo_348099" data-name="Rectángulo 348099" width="17.919" height="5.872" transform="translate(23.991 156.138)" fill="#161615"/>
    <rect id="Rectángulo_348100" data-name="Rectángulo 348100" width="5.904" height="5.888" transform="translate(12.028 144.108)" fill="#161615"/>
    <rect id="Rectángulo_348101" data-name="Rectángulo 348101" width="5.898" height="5.883" transform="translate(12.015 156.133)" fill="#161615"/>
    <rect id="Rectángulo_348102" data-name="Rectángulo 348102" width="5.896" height="5.881" transform="translate(12.032 132.107)" fill="#161615"/>
    <rect id="Rectángulo_348103" data-name="Rectángulo 348103" width="5.887" height="5.887" transform="translate(12.037 168.111)" fill="#161615"/>
    <path id="Trazado_704832" data-name="Trazado 704832" d="M133.655,225.445H103.766v-17.9h29.889Zm-23.92-6.024h17.916v-5.883H109.735Z" transform="translate(-25.708 -51.42)" fill="#161615"/>
    <rect id="Rectángulo_348104" data-name="Rectángulo 348104" width="17.891" height="5.889" transform="translate(90.051 132.097)" fill="#161615"/>
    <rect id="Rectángulo_348105" data-name="Rectángulo 348105" width="17.886" height="5.888" transform="translate(90.028 144.108)" fill="#161615"/>
    <rect id="Rectángulo_348106" data-name="Rectángulo 348106" width="5.896" height="5.881" transform="translate(78.045 144.112)" fill="#161615"/>
    <rect id="Rectángulo_348107" data-name="Rectángulo 348107" width="5.886" height="5.892" transform="translate(78.057 132.117)" fill="#161615"/>
    <path id="Trazado_704833" data-name="Trazado 704833" d="M191.511,207.517H221.4V225.41H191.511Zm23.894,6.029H197.523v5.885h17.883Z" transform="translate(-47.447 -51.412)" fill="#161615"/>
    <rect id="Rectángulo_348108" data-name="Rectángulo 348108" width="29.885" height="5.889" transform="translate(144.066 132.092)" fill="#161615"/>
    <rect id="Rectángulo_348109" data-name="Rectángulo 348109" width="29.921" height="5.878" transform="translate(144.034 144.113)" fill="#161615"/>
    <rect id="Rectángulo_348110" data-name="Rectángulo 348110" width="20.172" height="8.139" rx="1.5" transform="translate(82.899 160.99)" fill="#25ffff"/>
    <path id="Trazado_704834" data-name="Trazado 704834" d="M128.874,220.65H110.959v-5.883h17.916Zm0-8.139H110.959a2.257,2.257,0,0,0-2.257,2.257v5.883a2.257,2.257,0,0,0,2.257,2.257h17.916a2.257,2.257,0,0,0,2.257-2.257v-5.883a2.257,2.257,0,0,0-2.257-2.257" transform="translate(-26.931 -52.649)" fill="#040405"/>
    <rect id="Rectángulo_348111" data-name="Rectángulo 348111" width="20.139" height="8.142" rx="1.5" transform="translate(148.948 161.006)" fill="#25ffff"/>
    <path id="Trazado_704835" data-name="Trazado 704835" d="M216.642,220.674H198.76v-5.885h17.883Zm0-8.142H198.76a2.257,2.257,0,0,0-2.257,2.257v5.885a2.257,2.257,0,0,0,2.257,2.257h17.883a2.257,2.257,0,0,0,2.257-2.257v-5.885a2.257,2.257,0,0,0-2.257-2.257" transform="translate(-48.683 -52.655)" fill="#040405"/>
  </g>
</svg>
