<svg xmlns="http://www.w3.org/2000/svg" xmlns:xlink="http://www.w3.org/1999/xlink" width="137" height="137" viewBox="0 0 137 137">
  <defs>
    <filter id="Elipse_7740" x="0" y="0" width="137" height="137" filterUnits="userSpaceOnUse">
      <feOffset dy="3" input="SourceAlpha"/>
      <feGaussianBlur stdDeviation="3" result="blur"/>
      <feFlood flood-opacity="0.161"/>
      <feComposite operator="in" in2="blur"/>
      <feComposite in="SourceGraphic"/>
    </filter>
  </defs>
  <g id="Grupo_996313" data-name="Grupo 996313" transform="translate(-6271 4322.619)">
    <g transform="matrix(1, 0, 0, 1, 6271, -4322.62)" filter="url(#Elipse_7740)">
      <circle id="Elipse_7740-2" data-name="Elipse 7740" cx="59.5" cy="59.5" r="59.5" transform="translate(9 6)" fill="#1b3f5e"/>
    </g>
    <g id="permiso_1_" data-name="permiso (1)" transform="translate(6294 -4300.619)">
      <path id="Trazado_680387" data-name="Trazado 680387" d="M73.233,8h-61.8A3.443,3.443,0,0,0,8,11.433v92.7a3.443,3.443,0,0,0,3.433,3.433h51.5L76.667,93.833v-82.4A3.443,3.443,0,0,0,73.233,8Zm0,0" transform="translate(-6.283 -6.283)" fill="#d4e4f0"/>
      <path id="Trazado_680388" data-name="Trazado 680388" d="M267.433,408A3.443,3.443,0,0,0,264,411.433v10.3L277.733,408Zm0,0" transform="translate(-207.35 -320.45)" fill="#ceb195"/>
      <path id="Trazado_680389" data-name="Trazado 680389" d="M274.333,165.767h-10.3l-5.15,5.15-5.15-5.15h-10.3A3.443,3.443,0,0,1,240,162.333v-30.9A3.443,3.443,0,0,1,243.433,128h30.9a3.443,3.443,0,0,1,3.433,3.433v30.9A3.443,3.443,0,0,1,274.333,165.767Zm0,0" transform="translate(-188.5 -100.533)" fill="#5da364"/>
      <g id="Grupo_993906" data-name="Grupo 993906" transform="translate(8.583 8.583)">
        <path id="Trazado_680390" data-name="Trazado 680390" d="M120,40h20.6v3.433H120Zm0,0" transform="translate(-102.833 -40)" fill="#ceb195"/>
        <path id="Trazado_680391" data-name="Trazado 680391" d="M40,80h5.15v3.433H40Zm0,0" transform="translate(-40 -71.417)" fill="#ceb195"/>
        <path id="Trazado_680392" data-name="Trazado 680392" d="M80,80h46.35v3.433H80Zm0,0" transform="translate(-71.417 -71.417)" fill="#ceb195"/>
        <path id="Trazado_680393" data-name="Trazado 680393" d="M40,128h5.15v3.433H40Zm0,0" transform="translate(-40 -109.117)" fill="#ceb195"/>
        <path id="Trazado_680394" data-name="Trazado 680394" d="M80,128h27.467v3.433H80Zm0,0" transform="translate(-71.417 -109.117)" fill="#ceb195"/>
        <path id="Trazado_680395" data-name="Trazado 680395" d="M40,176h5.15v3.433H40Zm0,0" transform="translate(-40 -146.817)" fill="#ceb195"/>
        <path id="Trazado_680396" data-name="Trazado 680396" d="M80,176h27.467v3.433H80Zm0,0" transform="translate(-71.417 -146.817)" fill="#ceb195"/>
        <path id="Trazado_680397" data-name="Trazado 680397" d="M40,224h5.15v3.433H40Zm0,0" transform="translate(-40 -184.517)" fill="#ceb195"/>
        <path id="Trazado_680398" data-name="Trazado 680398" d="M80,224h27.467v3.433H80Zm0,0" transform="translate(-71.417 -184.517)" fill="#ceb195"/>
        <path id="Trazado_680399" data-name="Trazado 680399" d="M40,272h5.15v3.433H40Zm0,0" transform="translate(-40 -222.217)" fill="#ceb195"/>
        <path id="Trazado_680400" data-name="Trazado 680400" d="M80,272h27.467v3.433H80Zm0,0" transform="translate(-71.417 -222.217)" fill="#ceb195"/>
        <path id="Trazado_680401" data-name="Trazado 680401" d="M40,320h5.15v3.433H40Zm0,0" transform="translate(-40 -259.917)" fill="#ceb195"/>
        <path id="Trazado_680402" data-name="Trazado 680402" d="M80,320h27.467v3.433H80Zm0,0" transform="translate(-71.417 -259.917)" fill="#ceb195"/>
        <path id="Trazado_680403" data-name="Trazado 680403" d="M40,368h5.15v3.433H40Zm0,0" transform="translate(-40 -297.617)" fill="#ceb195"/>
        <path id="Trazado_680404" data-name="Trazado 680404" d="M80,368h46.35v3.433H80Zm0,0" transform="translate(-71.417 -297.617)" fill="#ceb195"/>
        <path id="Trazado_680405" data-name="Trazado 680405" d="M40,416h5.15v3.433H40Zm0,0" transform="translate(-40 -335.317)" fill="#ceb195"/>
        <path id="Trazado_680406" data-name="Trazado 680406" d="M80,416h32.617v3.433H80Zm0,0" transform="translate(-71.417 -335.317)" fill="#ceb195"/>
      </g>
      <path id="Trazado_680409" data-name="Trazado 680409" d="M85.833,25.75H72.1V5.15A5.058,5.058,0,0,0,66.95,0H5.15A5.058,5.058,0,0,0,0,5.15v92.7A5.058,5.058,0,0,0,5.15,103H57.336L72.1,88.236V77.25H68.667v8.583H60.083a5.058,5.058,0,0,0-5.15,5.15v8.583H5.15A1.622,1.622,0,0,1,3.433,97.85V5.15A1.622,1.622,0,0,1,5.15,3.433h61.8A1.622,1.622,0,0,1,68.667,5.15v20.6H54.933a5.058,5.058,0,0,0-5.15,5.15V61.8a5.058,5.058,0,0,0,5.15,5.15h9.614l5.836,5.836L76.22,66.95h9.614a5.058,5.058,0,0,0,5.15-5.15V30.9a5.058,5.058,0,0,0-5.15-5.15ZM60.083,89.267h6.18l-7.9,7.9v-6.18A1.622,1.622,0,0,1,60.083,89.267ZM87.55,61.8a1.622,1.622,0,0,1-1.717,1.717H74.847L70.383,67.98,65.92,63.517H54.933A1.622,1.622,0,0,1,53.217,61.8V30.9a1.622,1.622,0,0,1,1.717-1.717h30.9A1.622,1.622,0,0,1,87.55,30.9Zm0,0"/>
      <path id="Trazado_680410" data-name="Trazado 680410" d="M120,40h20.6v3.433H120Zm0,0" transform="translate(-94.25 -31.417)"/>
      <path id="Trazado_680411" data-name="Trazado 680411" d="M40,80h5.15v3.433H40Zm0,0" transform="translate(-31.417 -62.833)"/>
      <path id="Trazado_680412" data-name="Trazado 680412" d="M80,80h46.35v3.433H80Zm0,0" transform="translate(-62.833 -62.833)"/>
      <path id="Trazado_680413" data-name="Trazado 680413" d="M40,128h5.15v3.433H40Zm0,0" transform="translate(-31.417 -100.533)"/>
      <path id="Trazado_680414" data-name="Trazado 680414" d="M80,128h27.467v3.433H80Zm0,0" transform="translate(-62.833 -100.533)"/>
      <path id="Trazado_680415" data-name="Trazado 680415" d="M40,176h5.15v3.433H40Zm0,0" transform="translate(-31.417 -138.233)"/>
      <path id="Trazado_680416" data-name="Trazado 680416" d="M80,176h27.467v3.433H80Zm0,0" transform="translate(-62.833 -138.233)"/>
      <path id="Trazado_680417" data-name="Trazado 680417" d="M40,224h5.15v3.433H40Zm0,0" transform="translate(-31.417 -175.933)"/>
      <path id="Trazado_680418" data-name="Trazado 680418" d="M80,224h27.467v3.433H80Zm0,0" transform="translate(-62.833 -175.933)"/>
      <path id="Trazado_680419" data-name="Trazado 680419" d="M40,272h5.15v3.433H40Zm0,0" transform="translate(-31.417 -213.633)"/>
      <path id="Trazado_680420" data-name="Trazado 680420" d="M80,272h27.467v3.433H80Zm0,0" transform="translate(-62.833 -213.633)"/>
      <path id="Trazado_680421" data-name="Trazado 680421" d="M40,320h5.15v3.433H40Zm0,0" transform="translate(-31.417 -251.333)"/>
      <path id="Trazado_680422" data-name="Trazado 680422" d="M80,320h27.467v3.433H80Zm0,0" transform="translate(-62.833 -251.333)"/>
      <path id="Trazado_680423" data-name="Trazado 680423" d="M40,368h5.15v3.433H40Zm0,0" transform="translate(-31.417 -289.033)"/>
      <path id="Trazado_680424" data-name="Trazado 680424" d="M80,368h46.35v3.433H80Zm0,0" transform="translate(-62.833 -289.033)"/>
      <path id="Trazado_680425" data-name="Trazado 680425" d="M40,416h5.15v3.433H40Zm0,0" transform="translate(-31.417 -326.733)"/>
      <path id="Trazado_680426" data-name="Trazado 680426" d="M80,416h32.617v3.433H80Zm0,0" transform="translate(-62.833 -326.733)"/>
      <g id="Grupo_993918" data-name="Grupo 993918" transform="translate(-79.804 -111.293)">
        <g id="Grupo_993910" data-name="Grupo 993910" transform="translate(136.805 145.881)">
          <circle id="Elipse_7748" data-name="Elipse 7748" cx="12.303" cy="12.303" r="12.303" transform="translate(0 0)" fill="#d4f2f6"/>
        </g>
        <g id="Grupo_993911" data-name="Grupo 993911" transform="translate(142.034 146.937)">
          <path id="Trazado_680431" data-name="Trazado 680431" d="M206.771,172.608a12.3,12.3,0,0,1-19.378,10.066,12.3,12.3,0,0,0,12.066-21.313A12.3,12.3,0,0,1,206.771,172.608Z" transform="translate(-187.393 -161.361)" fill="#a6e7f0"/>
        </g>
        <g id="Grupo_993913" data-name="Grupo 993913" transform="translate(143.109 146.92)">
          <g id="Grupo_993912" data-name="Grupo 993912" transform="translate(0 0)">
            <path id="Trazado_680432" data-name="Trazado 680432" d="M203.643,178.356h-.015a2.4,2.4,0,0,1-1.8-.837l-4.8-5.6a2.4,2.4,0,0,1,3.641-3.12l3.005,3.506,9.038-10.275a2.4,2.4,0,1,1,3.6,3.167l-10.862,12.349A2.4,2.4,0,0,1,203.643,178.356Z" transform="translate(-196.443 -161.212)" fill="#a2aee6"/>
          </g>
        </g>
        <g id="Grupo_993915" data-name="Grupo 993915" transform="translate(148.236 147.083)">
          <g id="Grupo_993914" data-name="Grupo 993914" transform="translate(0 0)">
            <path id="Trazado_680433" data-name="Trazado 680433" d="M254.321,166.407l-10.862,12.35a2.4,2.4,0,0,1-1.8.813h-.015a2.4,2.4,0,0,1-1.8-.837l-.253-.3c.049,0,.1.006.147.006h.017a2.481,2.481,0,0,0,1.862-.842l11.236-12.774a2.472,2.472,0,0,0,.543-2.238,2.4,2.4,0,0,1,.93,3.817Z" transform="translate(-239.587 -162.59)" fill="#8795de"/>
          </g>
        </g>
        <path id="Trazado_680435" data-name="Trazado 680435" d="M164.451,149.107a3.287,3.287,0,0,0-5.748-1.961l-.951,1.081a13.163,13.163,0,1,0,3.814,5.617l2.073-2.356A3.265,3.265,0,0,0,164.451,149.107Zm-2.148,1.206-6.019,6.842a.889.889,0,1,0,1.335,1.175l2.56-2.911a11.431,11.431,0,1,1-3.6-5.858l-6.237,7.091L148,153.924a3.287,3.287,0,1,0-4.991,4.278l4.8,5.6a3.288,3.288,0,0,0,2.48,1.148h.015a3.287,3.287,0,0,0,2.468-1.116l.008-.01,2.091-2.449a.889.889,0,0,0-1.353-1.155l-2.087,2.443a1.509,1.509,0,0,1-1.129.508h-.01a1.508,1.508,0,0,1-1.135-.527l-4.8-5.6a1.508,1.508,0,1,1,2.29-1.963l3.005,3.506a.889.889,0,0,0,.67.311h.006a.89.89,0,0,0,.668-.3l9.038-10.275a1.508,1.508,0,1,1,2.265,1.992Z" transform="translate(0 0)"/>
      </g>
    </g>
  </g>
</svg>
