<svg xmlns="http://www.w3.org/2000/svg" width="66.993" height="70" viewBox="0 0 66.993 70">
  <g id="descargar" transform="translate(-10.998)">
    <path id="Trazado_635519" data-name="Trazado 635519" d="M70.331,76.811a33.5,33.5,0,1,0-49.926,1.953Z" transform="translate(0 -18.989)" fill="#2abcc8"/>
    <path id="Trazado_635520" data-name="Trazado 635520" d="M202.4,62.259c-.543-1.09-1.831-2.143-4.745-2.3h-4.634a2.343,2.343,0,0,1-2.34-2.34V55.7h-16.8a2.788,2.788,0,0,1,.111.772V66.836a2.806,2.806,0,0,1-2.8,2.8h-5.826q.084.124.182.247c-.332.8-1.982,5.3,2.024,7.622l-.117,25.006a11.165,11.165,0,0,0-2.789,4.418c-.747,2.228-.983,5.572,1.6,9.487a33.529,33.529,0,0,0,36.292-10.51V63.888a8.97,8.97,0,0,0-.151-1.629Z" transform="translate(-132.224 -48.086)" fill="#f3eae6"/>
    <path id="Trazado_635521" data-name="Trazado 635521" d="M94.836,190.611l.118-25.216c-4.41-2.458-1.991-7.536-1.991-7.536-.061-.072-.116-.144-.168-.214H79.8v38.223a33.5,33.5,0,0,0,13.949,8.661C88.2,196.407,94.836,190.611,94.836,190.611Z" transform="translate(-59.399 -136.091)" fill="#efe2dd"/>
    <path id="Trazado_635522" data-name="Trazado 635522" d="M186.019.042c-.285-.027-.573-.042-.862-.042h-21.4l.011.007a3.409,3.409,0,0,0-1.446,2.27,3.839,3.839,0,0,0,1.543,3.115c-.04.052-.086.118-.134.193H169.6A2.805,2.805,0,0,1,172.355,7.9H189.09V6.042c0-4.059-1.922-5.5-3.07-6Z" transform="translate(-130.629)" fill="#fe646f"/>
    <path id="Trazado_635523" data-name="Trazado 635523" d="M79.8,2.555V5.586H92.755a2.555,2.555,0,0,1,.167-.214c-3.672-3.255,0-5.371,0-5.371H82.359A2.554,2.554,0,0,0,79.8,2.555Z" transform="translate(-59.399 -0.001)" fill="#fd3581"/>
    <path id="Trazado_635524" data-name="Trazado 635524" d="M175.411,39.282h-5.75l.023.022a2.889,2.889,0,0,0-.623,1.95,2.445,2.445,0,0,0,1.139,1.725c1.664,1.177.537,6.862-.06,9.047a2.711,2.711,0,0,0-1.035,1.68,2.6,2.6,0,0,0,.638,1.973h5.668a3.017,3.017,0,0,0,3.017-3.017V42.3A3.017,3.017,0,0,0,175.411,39.282Z" transform="translate(-136.442 -33.911)" fill="#fd3581"/>
    <path id="Trazado_635525" data-name="Trazado 635525" d="M48.042,39.282A3.017,3.017,0,0,0,45.025,42.3V52.662a3.017,3.017,0,0,0,3.017,3.017h14.9a2.266,2.266,0,0,1,.313-3.53s2.168-7.8,0-9.337a2.28,2.28,0,0,1-.353-3.53Z" transform="translate(-29.375 -33.911)" fill="#fe0364"/>
    <g id="Grupo_893836" data-name="Grupo 893836" transform="translate(18.876)">
      <path id="Trazado_635526" data-name="Trazado 635526" d="M179.988,66.959h-1.942V65.092h2.2a1,1,0,0,0,0-2h-3.2a1,1,0,0,0-1,1v7.886a1,1,0,0,0,2,0V68.96h1.942a1,1,0,1,0,0-2Z" transform="translate(-161.359 -54.465)" fill="#f9f3f1"/>
      <path id="Trazado_635527" data-name="Trazado 635527" d="M120.125,63.739h-2.183a1,1,0,0,0-1,1v.006h0v7.575a1.035,1.035,0,0,0,1.016,1.126h0c.066,0,1.623-.006,2.245-.017,2.336-.041,4.032-2.075,4.032-4.838C124.239,65.69,122.586,63.739,120.125,63.739Zm.046,7.692c-.28,0-.769.009-1.217.012-.009-2.823,0-2.281-.01-5.7h1.181c.353,0,2.113.138,2.113,2.854C122.238,69.988,121.6,71.406,120.172,71.431Z" transform="translate(-110.336 -55.025)" fill="#f9f3f1"/>
      <path id="Trazado_635528" data-name="Trazado 635528" d="M71.833,62.879H69.621a1,1,0,0,0-1,1v7.944a1,1,0,0,0,2,0V69.368l1.211,0a3.242,3.242,0,1,0,0-6.484Zm0,4.484-1.2,0c-.006-1.251,0-.867-.007-2.487h1.209a1.242,1.242,0,1,1,0,2.483Z" transform="translate(-68.621 -54.282)" fill="#f9f3f1"/>
      <path id="Trazado_635529" data-name="Trazado 635529" d="M335.741,2.629A8.975,8.975,0,0,0,329.395,0s3.718.41,3.718,6.043V9.531a2.555,2.555,0,0,0,2.555,2.555H340.3c1.752.1,4.9.69,4.9,3.718a8.975,8.975,0,0,0-2.629-6.346Z" transform="translate(-293.742 0)" fill="#f9f3f1"/>
    </g>
    <path id="Trazado_635530" data-name="Trazado 635530" d="M213.486,200.733a2.161,2.161,0,0,1-1.149,1.621,2.749,2.749,0,0,1-2.134-.328c-.326-.276-6.752-5.716-8.647-8.223a2.272,2.272,0,0,1-.577-1.978,2.636,2.636,0,0,1,1.478-1.437l.024-.009.162-.114a16,16,0,0,0-14.265,3.008,2.8,2.8,0,0,0,.43,2.228,2.456,2.456,0,0,0,2.13.709,6.065,6.065,0,0,0,1.293,4.549,4.851,4.851,0,0,0,4.18,1.188l5.636,8.838a3.917,3.917,0,0,0,.412,3.185,4.079,4.079,0,0,0,3.392,1.4,2.723,2.723,0,0,0,.405,2.043,2.623,2.623,0,0,0,2.084.9,16.009,16.009,0,0,0,5.238-17.848A1.587,1.587,0,0,0,213.486,200.733Z" transform="translate(-153.077 -163.77)" fill="#2ed1e2"/>
    <path id="Trazado_635531" data-name="Trazado 635531" d="M280.664,193.295a2.246,2.246,0,0,0-.992,3.73c1.971,2.608,8.691,8.266,8.691,8.266s2.8,1.744,3.6-1.409a16.085,16.085,0,0,0-11.3-10.587Z" transform="translate(-231.357 -166.868)" fill="#9bd8f9"/>
    <path id="Trazado_635532" data-name="Trazado 635532" d="M171.371,239.381c-3.3,0-2.481-2.953-2.481-2.953-5.277,0-3.832-4.415-3.832-4.415l-5.754-9.024c-6.3.729-5.347-5.743-5.347-5.743-3.444.353-2.538-2.914-2.538-2.914a16.014,16.014,0,1,0,19.953,25.049Z" transform="translate(-115.864 -185.029)" fill="#2abcc8"/>
    <path id="Trazado_635533" data-name="Trazado 635533" d="M207.111,220.576a6.065,6.065,0,0,0,1.293,4.549,4.851,4.851,0,0,0,4.18,1.188l5.636,8.838a3.917,3.917,0,0,0,.412,3.185,4.077,4.077,0,0,0,3.388,1.4,12.157,12.157,0,1,0-14.969-19.158Z" transform="translate(-169.25 -188.135)" fill="#0cacba"/>
    <path id="Trazado_635534" data-name="Trazado 635534" d="M189.421,250.41l-5.754-9.024c-6.3.729-5.347-5.743-5.347-5.743a12.157,12.157,0,1,0,14.933,19.182C187.975,254.825,189.421,250.41,189.421,250.41Z" transform="translate(-140.227 -203.426)" fill="#3692bc"/>
    <g id="Grupo_893837" data-name="Grupo 893837" transform="translate(43.439 33.82)">
      <path id="Trazado_635535" data-name="Trazado 635535" d="M250.21,261.554a1.929,1.929,0,0,1-1.929-1.929V249.3a1.929,1.929,0,1,1,3.858,0v10.329A1.929,1.929,0,0,1,250.21,261.554Z" transform="translate(-248.281 -247.367)" fill="#efe2dd"/>
    </g>
    <g id="Grupo_893838" data-name="Grupo 893838" transform="translate(38.385 41.098)">
      <path id="Trazado_635536" data-name="Trazado 635536" d="M218.3,309.514a1.924,1.924,0,0,1-1.364-.565l-5.054-5.054a1.929,1.929,0,1,1,2.728-2.728l5.054,5.054a1.929,1.929,0,0,1-1.364,3.293Z" transform="translate(-211.315 -300.602)" fill="#f3eae6"/>
    </g>
    <g id="Grupo_893839" data-name="Grupo 893839" transform="translate(43.439 41.098)">
      <path id="Trazado_635537" data-name="Trazado 635537" d="M250.21,309.514a1.929,1.929,0,0,1-1.364-3.293l5.054-5.054a1.929,1.929,0,0,1,2.728,2.728l-5.054,5.054A1.923,1.923,0,0,1,250.21,309.514Z" transform="translate(-248.281 -300.602)" fill="#e8f4fc"/>
    </g>
    <path id="Trazado_635538" data-name="Trazado 635538" d="M12.909,214.5a7.269,7.269,0,0,0,4.292-6.611V200a7.272,7.272,0,0,0-4.657-6.763,33.643,33.643,0,0,0,.364,21.256Z" transform="translate(-0.001 -166.82)" fill="#2ed1e2"/>
    <path id="Trazado_635539" data-name="Trazado 635539" d="M470.873,198.63a7.251,7.251,0,0,0-3.238,6.026v7.882a7.243,7.243,0,0,0,2.925,5.8,33.66,33.66,0,0,0,.313-19.713Z" transform="translate(-394.206 -171.474)" fill="#2ed1e2"/>
  </g>
</svg>
