<svg xmlns="http://www.w3.org/2000/svg" xmlns:xlink="http://www.w3.org/1999/xlink" width="137" height="137" viewBox="0 0 137 137">
  <defs>
    <filter id="Elipse_7679" x="0" y="0" width="137" height="137" filterUnits="userSpaceOnUse">
      <feOffset dy="3" input="SourceAlpha"/>
      <feGaussianBlur stdDeviation="3" result="blur"/>
      <feFlood flood-opacity="0.161"/>
      <feComposite operator="in" in2="blur"/>
      <feComposite in="SourceGraphic"/>
    </filter>
  </defs>
  <g id="Grupo_996310" data-name="Grupo 996310" transform="translate(-1083 -6904.576)">
    <g transform="matrix(1, 0, 0, 1, 1083, 6904.58)" filter="url(#Elipse_7679)">
      <circle id="Elipse_7679-2" data-name="Elipse 7679" cx="59.5" cy="59.5" r="59.5" transform="translate(9 6)" fill="#1b3f5e"/>
    </g>
    <g id="Layer_2" data-name="Layer 2" transform="translate(1099 6920.194)">
      <path id="Trazado_680358" data-name="Trazado 680358" d="M63.935,54.194H44V11l19.935,3.323Z" transform="translate(28.435 6.613)" fill="#676668"/>
      <path id="Trazado_680359" data-name="Trazado 680359" d="M8,54.194H27.935V11L8,14.323Z" transform="translate(4.629 6.613)" fill="#676668"/>
      <path id="Trazado_680360" data-name="Trazado 680360" d="M20,8H59.871V56.177H20Z" transform="translate(12.565 4.629)" fill="#adadad"/>
      <path id="Trazado_680361" data-name="Trazado 680361" d="M26,49V70.6h6.645l3.323-16.613L39.29,70.6h6.645V49" transform="translate(16.532 31.742)" fill="#7bc1ff"/>
      <path id="Trazado_680362" data-name="Trazado 680362" d="M3.875,39.259,14.84,47.483V62.434H41.421V39.176H14.84L7.431,34.193a3.1,3.1,0,0,0-3.555,5.067Z" transform="translate(1.112 21.63)" fill="#b4dd7f"/>
      <path id="Trazado_680363" data-name="Trazado 680363" d="M75.545,39.274,64.581,47.5V62.449H38V39.191H64.581l7.409-4.984a3.1,3.1,0,0,1,3.555,5.067Z" transform="translate(24.468 21.615)" fill="#b4dd7f"/>
      <path id="Trazado_680364" data-name="Trazado 680364" d="M27.984,58.258H47.919A4.984,4.984,0,0,0,52.9,53.274V41.645A6.645,6.645,0,0,0,46.258,35H29.645A6.645,6.645,0,0,0,23,41.645V53.274A4.984,4.984,0,0,0,27.984,58.258Z" transform="translate(14.548 22.484)" fill="#2398ff"/>
      <path id="Trazado_680365" data-name="Trazado 680365" d="M11,51V69.274h6.645l3.323-13.29,3.323,13.29h6.645V51" transform="translate(6.613 33.065)" fill="#eaa378"/>
      <path id="Trazado_680366" data-name="Trazado 680366" d="M41,51V69.274h6.645l3.323-13.29,3.323,13.29h6.645V51" transform="translate(26.452 33.065)" fill="#eaa378"/>
      <path id="Trazado_680367" data-name="Trazado 680367" d="M34.984,35l1.661,11.629-3.323,4.984L30,46.629,31.661,35" transform="translate(19.177 22.484)" fill="#fff200"/>
      <circle id="Elipse_7745" data-name="Elipse 7745" cx="8.5" cy="8.5" r="8.5" transform="translate(19 39)" fill="#f0d0b4"/>
      <ellipse id="Elipse_7746" data-name="Elipse 7746" cx="8.5" cy="8" rx="8.5" ry="8" transform="translate(44 36)" fill="#f0d0b4"/>
      <circle id="Elipse_7747" data-name="Elipse 7747" cx="8.5" cy="8.5" r="8.5" transform="translate(69 39)" fill="#f0d0b4"/>
      <path id="Trazado_680368" data-name="Trazado 680368" d="M25,2H48.258v9.968H25Z" transform="translate(15.871 0.661)" fill="#676668"/>
      <path id="Trazado_680369" data-name="Trazado 680369" d="M35.968,40.935A9.968,9.968,0,1,0,26,30.968,9.968,9.968,0,0,0,35.968,40.935Zm0-16.613a6.645,6.645,0,1,1-6.645,6.645A6.645,6.645,0,0,1,35.968,24.323Z" transform="translate(16.532 13.226)"/>
      <path id="Trazado_680370" data-name="Trazado 680370" d="M89.048,85.726a1.661,1.661,0,0,0,1.661-1.661V69.944l10.3-7.725a4.768,4.768,0,0,0,1.894-3.8,4.718,4.718,0,0,0-3.887-4.635,4.618,4.618,0,0,0-3.539.714l-1.512,1V21.1a1.661,1.661,0,0,0-1.379-1.661L74.1,16.217V12.629a1.661,1.661,0,0,0-1.661-1.661H65.79V2.661A1.661,1.661,0,0,0,64.129,1H40.871A1.661,1.661,0,0,0,39.21,2.661v8.306H32.565A1.661,1.661,0,0,0,30.9,12.629v3.588l-18.557,3.24a1.661,1.661,0,0,0-1.379,1.661V55.49l-1.5-1A4.736,4.736,0,0,0,3.99,62.219l10.3,7.725V84.065a1.661,1.661,0,0,0,1.661,1.661v14.952H1V104H104v-3.323H89.048ZM77.419,40.871a6.645,6.645,0,1,1-6.645,6.645A6.645,6.645,0,0,1,77.419,40.871ZM42.532,4.323H62.468v6.645H42.532ZM34.226,47.516a6.645,6.645,0,1,1-6.645-6.645A6.645,6.645,0,0,1,34.226,47.516ZM14.29,22.5,30.9,19.59V38.13a9.968,9.968,0,1,0,3.323,1.977V14.29H70.774V40.107A9.968,9.968,0,1,0,74.1,38.13V19.59L90.71,22.5V57.7l-2.16,1.445h-21.1a8.306,8.306,0,0,0-6.645-3.323H44.194a8.306,8.306,0,0,0-6.645,3.323H16.45L14.29,57.7ZM54.161,68.714,52.5,71.106l-1.661-2.392,1.445-9.569h.432ZM26.385,100.677l1.2-4.785,1.2,4.785Zm9.5,0H32.2L29.242,88.65a1.661,1.661,0,0,0-3.223,0l-3.057,12.028H19.274V85.726H35.887Zm4.984,0H39.21V85.726h1.661Zm0-18.274H17.613V69.113a1.661,1.661,0,0,0-.665-1.329L5.984,59.477a1.462,1.462,0,0,1-.565-1.146,1.346,1.346,0,0,1,.233-.764,1.462,1.462,0,0,1,.914-.615,1.445,1.445,0,0,1,1.063.216l7.409,4.984a1.661,1.661,0,0,0,.914.316h20.1a9.087,9.087,0,0,0-.166,1.661V75.758a6.645,6.645,0,0,0,4.984,6.413ZM51.2,100.677,52.5,94.2l1.3,6.479Zm9.6,0H57.185L54.161,85.394a1.661,1.661,0,1,0-3.323,0l-3.024,15.284H44.194V82.4H60.806Zm0-21.6H44.194V62.468H40.871V78.615a3.323,3.323,0,0,1-1.661-2.857V64.129a4.984,4.984,0,0,1,4.984-4.984h4.735L47.516,68.88a1.661,1.661,0,0,0,.266,1.146L51.1,75.01a1.661,1.661,0,0,0,2.758,0l3.323-4.984a1.661,1.661,0,0,0,.266-1.146l-1.379-9.735h4.735a4.984,4.984,0,0,1,4.984,4.984V75.758a3.323,3.323,0,0,1-1.661,2.857V62.468H60.806Zm4.984,21.6H64.129V85.726H65.79Zm10.433,0,1.2-4.785,1.2,4.785Zm9.5,0H82.038L79.081,88.65a1.661,1.661,0,0,0-3.223,0L72.8,100.677H69.113V85.726H85.726Zm1.661-31.565V82.4H64.129v-.233a6.645,6.645,0,0,0,4.984-6.413V64.129a9.087,9.087,0,0,0-.166-1.661h20.1a1.661,1.661,0,0,0,.914-.282L97.388,57.2a1.379,1.379,0,0,1,1.047-.216,1.462,1.462,0,0,1,.914.615,1.346,1.346,0,0,1,.233.764,1.462,1.462,0,0,1-.565,1.146L88.052,67.817a1.661,1.661,0,0,0-.665,1.3Z" transform="translate(0)"/>
      <path id="Trazado_680371" data-name="Trazado 680371" d="M23,11h3.323v3.323H23Z" transform="translate(14.548 6.613)"/>
      <path id="Trazado_680372" data-name="Trazado 680372" d="M27,11h3.323v3.323H27Z" transform="translate(17.194 6.613)"/>
      <path id="Trazado_680373" data-name="Trazado 680373" d="M23,15h3.323v3.323H23Z" transform="translate(14.548 9.258)"/>
      <path id="Trazado_680374" data-name="Trazado 680374" d="M27,15h3.323v3.323H27Z" transform="translate(17.194 9.258)"/>
      <path id="Trazado_680375" data-name="Trazado 680375" d="M35,11h3.323v3.323H35Z" transform="translate(22.484 6.613)"/>
      <path id="Trazado_680376" data-name="Trazado 680376" d="M39,11h3.323v3.323H39Z" transform="translate(25.129 6.613)"/>
      <path id="Trazado_680377" data-name="Trazado 680377" d="M35,15h3.323v3.323H35Z" transform="translate(22.484 9.258)"/>
      <path id="Trazado_680378" data-name="Trazado 680378" d="M39,15h3.323v3.323H39Z" transform="translate(25.129 9.258)"/>
      <path id="Trazado_680379" data-name="Trazado 680379" d="M11,15h3.323v3.323H11Z" transform="translate(6.613 9.258)"/>
      <path id="Trazado_680380" data-name="Trazado 680380" d="M15,15h3.323v3.323H15Z" transform="translate(9.258 9.258)"/>
      <path id="Trazado_680381" data-name="Trazado 680381" d="M11,19h3.323v3.323H11Z" transform="translate(6.613 11.903)"/>
      <path id="Trazado_680382" data-name="Trazado 680382" d="M15,19h3.323v3.323H15Z" transform="translate(9.258 11.903)"/>
      <path id="Trazado_680383" data-name="Trazado 680383" d="M47,15h3.323v3.323H47Z" transform="translate(30.419 9.258)"/>
      <path id="Trazado_680384" data-name="Trazado 680384" d="M51,15h3.323v3.323H51Z" transform="translate(33.065 9.258)"/>
      <path id="Trazado_680385" data-name="Trazado 680385" d="M47,19h3.323v3.323H47Z" transform="translate(30.419 11.903)"/>
      <path id="Trazado_680386" data-name="Trazado 680386" d="M51,19h3.323v3.323H51Z" transform="translate(33.065 11.903)"/>
    </g>
  </g>
</svg>
