<svg xmlns="http://www.w3.org/2000/svg" xmlns:xlink="http://www.w3.org/1999/xlink" width="137" height="137" viewBox="0 0 137 137">
  <defs>
    <filter id="Elipse_7680" x="0" y="0" width="137" height="137" filterUnits="userSpaceOnUse">
      <feOffset dy="3" input="SourceAlpha"/>
      <feGaussianBlur stdDeviation="3" result="blur"/>
      <feFlood flood-opacity="0.161"/>
      <feComposite operator="in" in2="blur"/>
      <feComposite in="SourceGraphic"/>
    </filter>
  </defs>
  <g id="Grupo_996307" data-name="Grupo 996307" transform="translate(-383 -6904.576)">
    <g transform="matrix(1, 0, 0, 1, 383, 6904.58)" filter="url(#Elipse_7680)">
      <circle id="Elipse_7680-2" data-name="Elipse 7680" cx="59.5" cy="59.5" r="59.5" transform="translate(9 6)" fill="#1b3f5e"/>
    </g>
    <g id="Boss_man" data-name="Boss man" transform="translate(402 6922.192)">
      <path id="Trazado_677747" data-name="Trazado 677747" d="M63.8,31.325l-.306,1.32-1.8-.8a2.95,2.95,0,0,0-1.239-.258H55.628V22.3l-10.59,2.253a32.133,32.133,0,0,1-6.438.66,31.3,31.3,0,0,1-11.948-2.368l.005,8.742H21.828a3.206,3.206,0,0,0-2.141.821L17,34.834V34.8a4.78,4.78,0,0,1,1.609-3.573V14.6c0-11.991,11.266-9.222,11.266-9.222,39.851-16.4,34.025,17.994,32.479,25a4.614,4.614,0,0,1,1.449.95Z" transform="translate(7.923 0.606)" fill="#967b5a"/>
      <path id="Trazado_677748" data-name="Trazado 677748" d="M36.266,33.743A16.009,16.009,0,0,1,25,29.14V56.276L36.266,69.152,47.533,56.276V29.14A16.009,16.009,0,0,1,36.266,33.743Z" transform="translate(12.799 17.759)" fill="#eac2b9"/>
      <path id="Trazado_677749" data-name="Trazado 677749" d="M81.932,46.963,70.989,44.438,59.723,38,48.456,50.876,37.19,38,25.923,44.438,14.981,46.963A12.876,12.876,0,0,0,5,59.509V78.237H91.912V59.509a12.876,12.876,0,0,0-9.981-12.546Z" transform="translate(0.61 23.159)" fill="#d6f4fc"/>
      <path id="Trazado_677750" data-name="Trazado 677750" d="M46.438,19H40v9.657h6.438a4.828,4.828,0,1,0,0-9.657Z" transform="translate(21.942 11.579)" fill="#eac2b9"/>
      <path id="Trazado_677751" data-name="Trazado 677751" d="M21.828,19a4.828,4.828,0,1,0,0,9.657h6.438V19Z" transform="translate(7.923 11.579)" fill="#eac2b9"/>
      <path id="Trazado_677752" data-name="Trazado 677752" d="M18,44.438,29.266,57.314l11.266-6.438L29.266,38Z" transform="translate(8.533 23.159)" fill="#d6f4fc"/>
      <path id="Trazado_677753" data-name="Trazado 677753" d="M54.533,44.438,43.266,57.314,32,50.876,43.266,38Z" transform="translate(17.066 23.159)" fill="#d6f4fc"/>
      <path id="Trazado_677754" data-name="Trazado 677754" d="M26,73.361l6.438-14.485-3.589-8.981L35.657,46l6.808,3.895-3.589,8.981,6.438,14.485Z" transform="translate(13.409 28.035)" fill="#f7c46b"/>
      <path id="Trazado_677755" data-name="Trazado 677755" d="M41.386,49.895,37.8,58.876H31.359L27.77,49.895,34.578,46Z" transform="translate(14.488 28.035)" fill="#f7c46b"/>
      <path id="Trazado_677756" data-name="Trazado 677756" d="M41.655,15.651A29.533,29.533,0,0,1,22,13V32.314a16.095,16.095,0,0,0,32.19,0V13Z" transform="translate(10.971 7.922)" fill="#ffddd4"/>
      <path id="Trazado_677757" data-name="Trazado 677757" d="M82.9,68.551,72.19,66.078,61.942,60.222V52.346a17.626,17.626,0,0,0,4.747-10.5H68.38A6.427,6.427,0,0,0,72.091,30.16c1.122-5.724,2.9-19.866-5.094-26.587-5.946-5-15.82-4.752-29.357.736a11.905,11.905,0,0,0-9.067,1.819c-2.422,1.9-3.649,4.952-3.649,9.077V31.191a6.406,6.406,0,0,0,4.828,10.651h1.691a17.626,17.626,0,0,0,4.747,10.5v7.876L25.942,66.078,15.229,68.551A14.418,14.418,0,0,0,4,82.665v18.728A1.609,1.609,0,0,0,5.61,103H92.522a1.609,1.609,0,0,0,1.609-1.609V82.665A14.419,14.419,0,0,0,82.9,68.551ZM46.893,88.517h4.346l5.007,11.266H41.885ZM51.2,85.3H46.937l-2.668-6.671,4.8-2.741,4.8,2.741Zm-2.13-27.361a17.8,17.8,0,0,0,9.657-2.859V60.55L49.066,71.587,39.409,60.55V55.078a17.915,17.915,0,0,0,9.657,2.859ZM51.573,73.61l9.1-10.4,8.415,4.808-9.1,10.4ZM68.38,38.623H66.77V32.185H68.38a3.219,3.219,0,1,1,0,6.438ZM28.142,15.2c0-3.078.809-5.275,2.4-6.535a7.406,7.406,0,0,1,4.582-1.354,11.218,11.218,0,0,1,2.287.228,1.616,1.616,0,0,0,1-.074C50.983,2.3,59.9,1.818,64.924,6.038,71.387,11.472,70.059,23.507,69.038,29c-.477-.052-1.744-.035-2.268-.035V20.918a1.5,1.5,0,0,0-1.106-1.5,1.577,1.577,0,0,0-.837-.073l-12.535,2.65a28.519,28.519,0,0,1-16.407-1.5q-1.107-.455-2.177-1.007a1.609,1.609,0,0,0-2.346,1.431v8.047H29.752a7.687,7.687,0,0,0-1.609.2ZM26.533,35.4a3.255,3.255,0,0,1,3.219-3.219h1.609v6.438H29.752A3.223,3.223,0,0,1,26.533,35.4Zm8.047-4.828V23.438a31.373,31.373,0,0,0,18.376,1.712l10.6-2.244V40.232a14.485,14.485,0,1,1-28.971,0Zm2.875,32.631,9.1,10.4-8.415,4.808-9.1-10.4ZM7.219,82.665a11.212,11.212,0,0,1,8.734-10.977l10-2.309,10.631,12.15a1.609,1.609,0,0,0,2.009.338l2.849-1.628L44.1,86.875,38.364,99.783H21.7V91.735a1.609,1.609,0,0,0-3.219,0v8.047H7.219ZM90.912,99.783H79.646V91.736a1.609,1.609,0,1,0-3.219,0v8.047H59.769L54.031,86.875l2.655-6.635,2.849,1.628a1.609,1.609,0,0,0,2.01-.338L72.176,69.38l10,2.309a11.212,11.212,0,0,1,8.732,10.976Z" transform="translate(0 0)" fill="#232328"/>
    </g>
  </g>
</svg>
