<svg xmlns="http://www.w3.org/2000/svg" width="85" height="87" viewBox="0 0 85 87">
  <g id="Grupo_996306" data-name="Grupo 996306" transform="translate(-180 -6610.639)">
    <rect id="Rectángulo_346398" data-name="Rectángulo 346398" width="85" height="87" rx="8" transform="translate(180 6610.639)" fill="#e8e8e8"/>
    <g id="intimidad_1_" data-name="intimidad (1)" transform="translate(190.27 6621.91)">
      <g id="Grupo_993849" data-name="Grupo 993849" transform="translate(6.85 19.323)">
        <path id="Trazado_680250" data-name="Trazado 680250" d="M72.381,142.536a9.818,9.818,0,0,1-4.422-1.05v3.668l3.108,4.922h2.915l3.108-4.922v-3.816A9.82,9.82,0,0,1,72.381,142.536Z" transform="translate(-57.697 -125.073)" fill="#f2ba94"/>
        <path id="Trazado_680251" data-name="Trazado 680251" d="M125.44,76.743a4.136,4.136,0,0,0-.636.05v7.5c0,.224-.01.445-.025.665a4.136,4.136,0,1,0,.661-8.218Z" transform="translate(-100.21 -76.743)" fill="#f2ba94"/>
        <path id="Trazado_680252" data-name="Trazado 680252" d="M31.976,84.3v-6.83c0-.225,0-.673,0-.673A4.14,4.14,0,1,0,32,84.961c-.015-.22-.025-.441-.025-.665Z" transform="translate(-27.202 -76.743)" fill="#f2ba94"/>
      </g>
      <path id="Trazado_680253" data-name="Trazado 680253" d="M57.554,58.383c-3.62,4.552-8.96,3.91-10.755,3.534a.529.529,0,0,0-.64.511v7.979a9.91,9.91,0,1,0,19.821,0V61.579q0-.078,0-.155a.531.531,0,0,0-.512-.521c-4.117-.121-6.286-1.752-7.12-2.57A.534.534,0,0,0,57.554,58.383Z" transform="translate(-34.537 -43.531)" fill="#f9d0b4"/>
      <path id="Trazado_680254" data-name="Trazado 680254" d="M35.963,35.422a4.169,4.169,0,0,1,.636.05V35a.529.529,0,0,1,.64-.511c1.8.376,7.135,1.018,10.755-3.534a.533.533,0,0,1,.793-.05c.833.817,3,2.449,7.12,2.57a.531.531,0,0,1,.512.521q0,.077,0,.155v1.325a4.113,4.113,0,0,1,3.506,1.111V29.141a5.678,5.678,0,0,0-5.661-5.661,5.605,5.605,0,0,0-2.892.807,5.667,5.667,0,0,0-4.855-2.771H43.611a10.26,10.26,0,0,0-10.23,10.23v4.584a4.116,4.116,0,0,1,2.582-.907Z" transform="translate(-24.975 -16.099)" fill="#893c1a"/>
      <path id="Trazado_680255" data-name="Trazado 680255" d="M44.022,172H35.136a2.606,2.606,0,0,1-2.6-2.6V166.17a2.606,2.606,0,0,1,2.6-2.6H43.28a3.909,3.909,0,0,0-2.84-2.858l-3.719-.936H34.995A2.6,2.6,0,0,1,33,158.842l-.26-.065-4.63-2.283L25,161.416H22.091l-3.108-4.922-4.63,2.283-7.7,1.937a3.911,3.911,0,0,0-2.95,3.575l-1.2,14.644a1.837,1.837,0,0,0,1.831,1.987H42.759a1.837,1.837,0,0,0,1.831-1.987Z" transform="translate(-1.87 -117.09)" fill="#edf4fc"/>
      <path id="Trazado_680256" data-name="Trazado 680256" d="M151.8,136.051H123.834a2.606,2.606,0,0,0-2.6,2.6v3.236a2.606,2.606,0,0,0,2.6,2.6H151.8a2.606,2.606,0,0,0,2.6-2.6v-3.236A2.605,2.605,0,0,0,151.8,136.051Z" transform="translate(-90.709 -101.794)" fill="#edf4fc"/>
      <path id="Trazado_680257" data-name="Trazado 680257" d="M152.359,184.6H124.392a2.606,2.606,0,0,0-2.6,2.6v3.236a2.606,2.606,0,0,0,2.6,2.6h27.967a2.606,2.606,0,0,0,2.6-2.6V187.2A2.605,2.605,0,0,0,152.359,184.6Z" transform="translate(-91.126 -138.122)" fill="#edf4fc"/>
      <path id="Trazado_680258" data-name="Trazado 680258" d="M173.209,79.76H162.728a1.47,1.47,0,0,0-1.466,1.466v7.683a1.47,1.47,0,0,0,1.466,1.466h10.481a1.47,1.47,0,0,0,1.466-1.466V81.226A1.47,1.47,0,0,0,173.209,79.76Z" transform="translate(-120.657 -59.677)" fill="#f5c84c"/>
      <path id="Trazado_680259" data-name="Trazado 680259" d="M169.9,55.329V52.346a2.429,2.429,0,0,1,4.858,0v2.983h2.81V52.346a5.24,5.24,0,0,0-10.479,0v2.983Z" transform="translate(-125.013 -35.246)" fill="#edf4fc"/>
      <path id="Trazado_680260" data-name="Trazado 680260" d="M127.978,184.6h-3.585a2.606,2.606,0,0,0-2.6,2.6v3.236a2.606,2.606,0,0,0,2.6,2.6h3.585Z" transform="translate(-91.127 -138.122)" fill="#fc657e"/>
      <path id="Trazado_680261" data-name="Trazado 680261" d="M127.56,136.051h-3.726a2.606,2.606,0,0,0-2.6,2.6v3.236a2.605,2.605,0,0,0,2.6,2.6h3.726Z" transform="translate(-90.71 -101.794)" fill="#70d6f9"/>
      <circle id="Elipse_7738" data-name="Elipse 7738" cx="1.546" cy="1.546" r="1.546" transform="translate(45.703 23.156)" fill="#edb311"/>
      <path id="Trazado_680262" data-name="Trazado 680262" d="M145.182,13.277h-.521V13.8a.706.706,0,0,1-1.413,0v-.521h-.521a.706.706,0,0,1,0-1.413h.521v-.521a.706.706,0,0,1,1.413,0v.521h.521a.706.706,0,1,1,0,1.413Z" transform="translate(-106.26 -7.959)" fill="#3caadc"/>
      <path id="Trazado_680263" data-name="Trazado 680263" d="M236.091,88.854a.706.706,0,1,0,.568.692A.7.7,0,0,0,236.091,88.854Z" transform="translate(-176.012 -66.472)" fill="#fc8c48"/>
      <path id="Trazado_680264" data-name="Trazado 680264" d="M31.091,120.854a.706.706,0,1,0,.568.692A.7.7,0,0,0,31.091,120.854Z" transform="translate(-22.63 -90.415)" fill="#ef4460"/>
      <path id="Trazado_680265" data-name="Trazado 680265" d="M123.091.012a.706.706,0,1,0,.568.692.7.7,0,0,0-.568-.692Z" transform="translate(-91.465 0)" fill="#87d147"/>
      <path id="Trazado_680266" data-name="Trazado 680266" d="M14.961,140.06a2.483,2.483,0,0,1-1.99-1.95.045.045,0,0,0-.088,0,2.483,2.483,0,0,1-1.99,1.95.044.044,0,0,0,0,.087,2.483,2.483,0,0,1,1.99,1.95.045.045,0,0,0,.088,0,2.483,2.483,0,0,1,1.99-1.95A.044.044,0,0,0,14.961,140.06Z" transform="translate(-8.121 -103.307)" fill="#fc8c48"/>
      <path id="Trazado_680267" data-name="Trazado 680267" d="M230.721,111.319a1.545,1.545,0,0,1-1.238-1.213.028.028,0,0,0-.055,0,1.545,1.545,0,0,1-1.239,1.213.027.027,0,0,0,0,.054,1.545,1.545,0,0,1,1.239,1.213.028.028,0,0,0,.055,0,1.545,1.545,0,0,1,1.238-1.213A.027.027,0,0,0,230.721,111.319Z" transform="translate(-170.714 -82.365)" fill="#f5c84c"/>
      <path id="Trazado_680268" data-name="Trazado 680268" d="M72.111,148.836H69.2a.63.63,0,0,1-.532-.293l-3.108-4.922a.629.629,0,0,1-.1-.336v-3.668a.629.629,0,0,1,.912-.562,9.135,9.135,0,0,0,4.139.983,9.249,9.249,0,0,0,4.409-1.122.629.629,0,0,1,.93.553v3.816a.63.63,0,0,1-.1.336l-3.108,4.922A.63.63,0,0,1,72.111,148.836Zm-2.567-1.259h2.22L74.59,143.1V140.47a10.518,10.518,0,0,1-4.08.827,10.362,10.362,0,0,1-3.792-.711V143.1Z" transform="translate(-48.976 -103.881)"/>
      <path id="Trazado_680269" data-name="Trazado 680269" d="M123.569,83.776a4.75,4.75,0,0,1-.761-.066.629.629,0,0,1-.528-.664c.016-.238.024-.436.024-.622v-7.5a.63.63,0,0,1,.533-.622,4.767,4.767,0,1,1,.732,9.478Zm-.007-1.259h.007a3.508,3.508,0,1,0,0-7.016h-.007v6.924C123.562,82.455,123.562,82.486,123.562,82.517Z" transform="translate(-91.489 -55.549)"/>
      <path id="Trazado_680270" data-name="Trazado 680270" d="M29.468,83.776A4.767,4.767,0,1,1,30.2,74.3a.629.629,0,0,1,.533.622v7.5c0,.185.008.383.024.623a.63.63,0,0,1-.528.664,4.762,4.762,0,0,1-.761.066Zm0-8.275a3.508,3.508,0,1,0,0,7.016h.007c0-.031,0-.062,0-.093V75.5Z" transform="translate(-18.481 -55.549)"/>
      <path id="Trazado_680271" data-name="Trazado 680271" d="M54.2,79.077a10.552,10.552,0,0,1-10.54-10.54V60.565a1.158,1.158,0,0,1,1.4-1.134c1.933.4,6.792.892,10.133-3.31a1.163,1.163,0,0,1,1.726-.108c.693.68,2.734,2.274,6.7,2.39a1.158,1.158,0,0,1,1.122,1.138c0,.056,0,.112,0,.168v8.828A10.552,10.552,0,0,1,54.2,79.077Zm-9.281-18.39v7.849a9.281,9.281,0,0,0,18.562,0V59.709c0-.017,0-.033,0-.05-4.083-.143-6.345-1.7-7.369-2.673-3.8,4.687-9.377,4.06-11.193,3.7Zm-.119-.024Zm11.377-3.758h0Z" transform="translate(-32.666 -41.661)"/>
      <path id="Trazado_680272" data-name="Trazado 680272" d="M58.055,35.342a.628.628,0,0,1-.437-.177,3.489,3.489,0,0,0-2.433-.985,3.555,3.555,0,0,0-.54.043.63.63,0,0,1-.726-.622V32.276c0-.017,0-.033,0-.05-4.083-.143-6.345-1.7-7.369-2.673-3.8,4.687-9.378,4.06-11.193,3.7V33.6a.63.63,0,0,1-.726.622,3.556,3.556,0,0,0-.54-.043,3.47,3.47,0,0,0-2.188.769.63.63,0,0,1-1.023-.492V29.875A10.871,10.871,0,0,1,41.74,19.016h2.907a6.326,6.326,0,0,1,5.061,2.576,6.235,6.235,0,0,1,2.686-.612,6.3,6.3,0,0,1,6.29,6.29v7.443a.629.629,0,0,1-.629.629Zm-2.87-2.42a4.735,4.735,0,0,1,2.24.56V27.27a5.015,5.015,0,0,0-7.6-4.314.629.629,0,0,1-.864-.216,5.065,5.065,0,0,0-4.315-2.465H41.74a9.611,9.611,0,0,0-9.6,9.6v3.464a4.6,4.6,0,0,1,1.978-.417,1.143,1.143,0,0,1,.407-.688A1.159,1.159,0,0,1,35.5,32c1.933.4,6.792.892,10.133-3.31a1.163,1.163,0,0,1,1.727-.108c.693.68,2.735,2.273,6.7,2.39a1.158,1.158,0,0,1,1.123,1.138c0,.056,0,.112,0,.168v.646Z" transform="translate(-23.105 -14.228)"/>
      <path id="Trazado_680273" data-name="Trazado 680273" d="M134.684,226.221a.629.629,0,0,1-.629-.629v-8.763a.629.629,0,0,1,1.259,0v8.763A.629.629,0,0,1,134.684,226.221Z" transform="translate(-100.3 -161.762)"/>
      <path id="Trazado_680274" data-name="Trazado 680274" d="M32.612,226.221a.629.629,0,0,1-.629-.629v-8.763a.629.629,0,0,1,1.259,0v8.763A.629.629,0,0,1,32.612,226.221Z" transform="translate(-23.929 -161.762)"/>
      <path id="Trazado_680275" data-name="Trazado 680275" d="M74.626,117.315a4.4,4.4,0,0,1-3.648-1.94.629.629,0,1,1,1.043-.7,3.142,3.142,0,0,0,5.21,0,.629.629,0,0,1,1.043.7A4.4,4.4,0,0,1,74.626,117.315Z" transform="translate(-53.025 -85.59)"/>
      <path id="Trazado_680276" data-name="Trazado 680276" d="M40.889,179.678H2.467A2.466,2.466,0,0,1,.009,177.01l1.2-14.644a4.515,4.515,0,0,1,3.424-4.134l7.632-1.921,4.57-2.253a.629.629,0,0,1,.811.228l2.923,4.629h2.22l2.923-4.629a.629.629,0,0,1,.811-.228l4.57,2.253.2.049a.63.63,0,0,1,.329.206,1.966,1.966,0,0,0,1.509.71h1.726A.618.618,0,0,1,35,157.3l3.719.936a4.53,4.53,0,0,1,3.3,3.318.63.63,0,0,1-.611.78H33.265A1.971,1.971,0,0,0,31.3,164.3v3.236a1.97,1.97,0,0,0,1.968,1.968h8.886a.629.629,0,0,1,.627.578l.568,6.93a2.466,2.466,0,0,1-2.458,2.667Zm-24.006-24.24L12.76,157.47a.629.629,0,0,1-.125.046l-7.7,1.937a3.267,3.267,0,0,0-2.475,3l-1.2,14.66a1.207,1.207,0,0,0,1.2,1.306H40.889a1.207,1.207,0,0,0,1.2-1.306l-.52-6.352H33.266a3.231,3.231,0,0,1-3.227-3.227V164.3a3.231,3.231,0,0,1,3.227-3.227H40.5a3.27,3.27,0,0,0-2.082-1.618l-3.643-.917H33.125a3.218,3.218,0,0,1-2.332-1l-.074-.019a.629.629,0,0,1-.125-.046l-4.122-2.032-2.806,4.443a.63.63,0,0,1-.532.293H20.221a.63.63,0,0,1-.532-.293Z" transform="translate(0 -115.219)"/>
      <path id="Trazado_680277" data-name="Trazado 680277" d="M149.931,143.242H121.964a3.231,3.231,0,0,1-3.227-3.227v-3.236a3.231,3.231,0,0,1,3.227-3.227h27.967a3.231,3.231,0,0,1,3.227,3.227v3.236A3.231,3.231,0,0,1,149.931,143.242Zm-27.967-8.431A1.97,1.97,0,0,0,120,136.779v3.236a1.97,1.97,0,0,0,1.968,1.968h27.967a1.97,1.97,0,0,0,1.968-1.968v-3.236a1.97,1.97,0,0,0-1.968-1.968Z" transform="translate(-88.839 -99.925)"/>
      <path id="Trazado_680278" data-name="Trazado 680278" d="M150.488,191.794H122.521a3.231,3.231,0,0,1-3.227-3.227v-3.236a3.231,3.231,0,0,1,3.227-3.227h27.967a3.231,3.231,0,0,1,3.227,3.227v3.236A3.231,3.231,0,0,1,150.488,191.794Zm-27.967-8.431a1.971,1.971,0,0,0-1.968,1.968v3.236a1.97,1.97,0,0,0,1.968,1.968h27.967a1.97,1.97,0,0,0,1.968-1.968v-3.236a1.971,1.971,0,0,0-1.968-1.968Z" transform="translate(-89.256 -136.252)"/>
      <path id="Trazado_680279" data-name="Trazado 680279" d="M171.338,89.134H160.856a2.1,2.1,0,0,1-2.1-2.1V79.355a2.1,2.1,0,0,1,2.1-2.1h10.481a2.1,2.1,0,0,1,2.1,2.1v7.683A2.1,2.1,0,0,1,171.338,89.134ZM160.856,78.519a.837.837,0,0,0-.836.836v7.683a.837.837,0,0,0,.836.836h10.481a.837.837,0,0,0,.836-.836V79.355a.837.837,0,0,0-.836-.836Z" transform="translate(-118.785 -57.807)"/>
      <path id="Trazado_680280" data-name="Trazado 680280" d="M160.124,198.45a.628.628,0,0,1-.445-.184l-1.966-1.966a.629.629,0,1,1,.89-.89l1.966,1.966a.629.629,0,0,1-.445,1.075Z" transform="translate(-117.863 -146.069)"/>
      <path id="Trazado_680281" data-name="Trazado 680281" d="M158.158,198.45a.629.629,0,0,1-.445-1.075l1.966-1.966a.629.629,0,1,1,.89.89l-1.966,1.966A.627.627,0,0,1,158.158,198.45Z" transform="translate(-117.863 -146.068)"/>
      <path id="Trazado_680282" data-name="Trazado 680282" d="M180.587,198.45a.628.628,0,0,1-.445-.184l-1.966-1.966a.629.629,0,0,1,.89-.89l1.966,1.966a.629.629,0,0,1-.445,1.075Z" transform="translate(-133.174 -146.069)"/>
      <path id="Trazado_680283" data-name="Trazado 680283" d="M178.621,198.45a.629.629,0,0,1-.445-1.075l1.966-1.966a.629.629,0,1,1,.89.89l-1.966,1.966A.627.627,0,0,1,178.621,198.45Z" transform="translate(-133.174 -146.068)"/>
      <path id="Trazado_680284" data-name="Trazado 680284" d="M201.049,198.45a.628.628,0,0,1-.445-.184l-1.966-1.966a.629.629,0,1,1,.89-.89l1.966,1.966a.629.629,0,0,1-.445,1.074Z" transform="translate(-148.483 -146.069)"/>
      <path id="Trazado_680285" data-name="Trazado 680285" d="M199.083,198.45a.629.629,0,0,1-.445-1.074l1.966-1.966a.629.629,0,0,1,.89.89l-1.966,1.966A.627.627,0,0,1,199.083,198.45Z" transform="translate(-148.483 -146.069)"/>
      <path id="Trazado_680286" data-name="Trazado 680286" d="M221.512,198.45a.628.628,0,0,1-.445-.184L219.1,196.3a.629.629,0,1,1,.89-.89l1.966,1.966a.629.629,0,0,1-.445,1.074Z" transform="translate(-163.794 -146.069)"/>
      <path id="Trazado_680287" data-name="Trazado 680287" d="M219.546,198.45a.629.629,0,0,1-.445-1.074l1.966-1.966a.629.629,0,0,1,.89.89l-1.966,1.966A.627.627,0,0,1,219.546,198.45Z" transform="translate(-163.794 -146.069)"/>
      <path id="Trazado_680288" data-name="Trazado 680288" d="M177.537,150.995H158.988a.629.629,0,0,1,0-1.259h18.549a.629.629,0,0,1,0,1.259Z" transform="translate(-118.485 -112.034)"/>
      <path id="Trazado_680289" data-name="Trazado 680289" d="M175.7,54.087h-2.811a.629.629,0,0,1-.63-.629V50.475a1.8,1.8,0,1,0-3.6,0v2.983a.629.629,0,0,1-.629.629h-2.81a.629.629,0,0,1-.629-.629V50.475a5.869,5.869,0,0,1,11.738,0v2.983A.63.63,0,0,1,175.7,54.087Zm-2.181-1.259h1.552V50.475a4.61,4.61,0,0,0-9.22,0v2.353H167.4V50.475a3.059,3.059,0,1,1,6.117,0v2.353Z" transform="translate(-123.145 -33.375)"/>
      <path id="Trazado_680290" data-name="Trazado 680290" d="M126.107,191.794h-3.585a3.231,3.231,0,0,1-3.227-3.227v-3.236a3.231,3.231,0,0,1,3.227-3.227h3.585a.629.629,0,0,1,.629.63v8.431A.63.63,0,0,1,126.107,191.794Zm-3.585-8.431a1.971,1.971,0,0,0-1.968,1.968v3.236a1.97,1.97,0,0,0,1.968,1.968h2.956v-7.172Z" transform="translate(-89.257 -136.252)"/>
      <path id="Trazado_680291" data-name="Trazado 680291" d="M125.69,143.242h-3.726a3.231,3.231,0,0,1-3.227-3.227v-3.236a3.231,3.231,0,0,1,3.227-3.227h3.726a.629.629,0,0,1,.629.63v8.431A.629.629,0,0,1,125.69,143.242Zm-3.726-8.431A1.97,1.97,0,0,0,120,136.779v3.236a1.97,1.97,0,0,0,1.968,1.968h3.1V134.81h-3.1Z" transform="translate(-88.839 -99.925)"/>
      <path id="Trazado_680292" data-name="Trazado 680292" d="M181.183,93.813a2.175,2.175,0,1,1,2.175-2.175A2.178,2.178,0,0,1,181.183,93.813Zm0-3.092a.916.916,0,1,0,.916.916A.917.917,0,0,0,181.183,90.722Z" transform="translate(-133.934 -66.937)"/>
      <circle id="Elipse_7739" data-name="Elipse 7739" cx="0.629" cy="0.629" r="0.629" transform="translate(17.254 22.771)"/>
      <circle id="Elipse_7740" data-name="Elipse 7740" cx="0.629" cy="0.629" r="0.629" transform="translate(24.689 22.771)"/>
      <circle id="Elipse_7741" data-name="Elipse 7741" cx="0.629" cy="0.629" r="0.629" transform="translate(20.908 47.229)"/>
      <circle id="Elipse_7742" data-name="Elipse 7742" cx="0.629" cy="0.629" r="0.629" transform="translate(20.908 51.332)"/>
      <circle id="Elipse_7743" data-name="Elipse 7743" cx="0.629" cy="0.629" r="0.629" transform="translate(20.908 55.435)"/>
      <circle id="Elipse_7744" data-name="Elipse 7744" cx="0.629" cy="0.629" r="0.629" transform="translate(20.908 59.538)"/>
    </g>
  </g>
</svg>
