<svg xmlns="http://www.w3.org/2000/svg" xmlns:xlink="http://www.w3.org/1999/xlink" width="137" height="137" viewBox="0 0 137 137">
  <defs>
    <filter id="Elipse_7749" x="0" y="0" width="137" height="137" filterUnits="userSpaceOnUse">
      <feOffset dy="3" input="SourceAlpha"/>
      <feGaussianBlur stdDeviation="3" result="blur"/>
      <feFlood flood-opacity="0.161"/>
      <feComposite operator="in" in2="blur"/>
      <feComposite in="SourceGraphic"/>
    </filter>
  </defs>
  <g id="Grupo_996309" data-name="Grupo 996309" transform="translate(-1083 -9381.494)">
    <g transform="matrix(1, 0, 0, 1, 1083, 9381.49)" filter="url(#Elipse_7749)">
      <circle id="Elipse_7749-2" data-name="Elipse 7749" cx="59.5" cy="59.5" r="59.5" transform="translate(9 6)" fill="#1b3f5e"/>
    </g>
    <g id="almacenamiento-de-datos" transform="translate(1084 9401.111)">
      <g id="Grupo_993946" data-name="Grupo 993946" transform="translate(2.597 2.597)">
        <g id="Grupo_993930" data-name="Grupo 993930" transform="translate(15.968 41.516)">
          <path id="Trazado_680462" data-name="Trazado 680462" d="M27.026,68.047a3.222,3.222,0,0,0-2.906.208l-.032.016a3.237,3.237,0,0,1-3.928-.495L16.934,64.55a3.237,3.237,0,0,1-.5-3.928l.016-.032a3.222,3.222,0,0,0,.208-2.906c-.016,0-.016-.016-.016-.032a3.285,3.285,0,0,0-2.172-1.884h-.048A3.245,3.245,0,0,1,12,52.638V48.071a3.245,3.245,0,0,1,2.427-3.13h.048a3.285,3.285,0,0,0,2.172-1.884c0-.016,0-.032.016-.032a3.222,3.222,0,0,0-.208-2.906l-.016-.032a3.237,3.237,0,0,1,.5-3.928l3.225-3.225a3.237,3.237,0,0,1,3.928-.495l.032.016a3.222,3.222,0,0,0,2.906.208c0-.016.016-.016.032-.016a3.285,3.285,0,0,0,1.884-2.172v-.048A3.245,3.245,0,0,1,32.071,28h2.283v9.581a12.774,12.774,0,1,0,0,25.548V72.71H32.071a3.245,3.245,0,0,1-3.13-2.427v-.048a3.285,3.285,0,0,0-1.884-2.172C27.042,68.063,27.026,68.063,27.026,68.047Z" transform="translate(-12 -28)" fill="#a0d468"/>
        </g>
        <g id="Grupo_993931" data-name="Grupo 993931" transform="translate(25.548 51.097)">
          <path id="Trazado_680463" data-name="Trazado 680463" d="M30.774,57.952v1.6a12.774,12.774,0,1,1,0-25.548v6.387a6.387,6.387,0,1,0,0,12.774Z" transform="translate(-18 -34)" fill="#b4dd7f"/>
        </g>
        <g id="Grupo_993932" data-name="Grupo 993932" transform="translate(83.032 49.5)">
          <path id="Trazado_680464" data-name="Trazado 680464" d="M66.774,33V45.774c0,2.762-5.078,5.205-12.774,6.643V39.627h.1C61.744,38.19,66.774,35.762,66.774,33Z" transform="translate(-54 -33)" fill="#ffc729"/>
        </g>
        <g id="Grupo_993933" data-name="Grupo 993933" transform="translate(83.032 75.048)">
          <path id="Trazado_680465" data-name="Trazado 680465" d="M66.774,49V61.774c0,2.762-5.078,5.205-12.774,6.643V55.627h.1C61.744,54.19,66.774,51.762,66.774,49Z" transform="translate(-54 -49)" fill="#ffc729"/>
        </g>
        <g id="Grupo_993934" data-name="Grupo 993934" transform="translate(38.323 75.048)">
          <path id="Trazado_680466" data-name="Trazado 680466" d="M26,49c0,2.762,5.078,5.205,12.774,6.643V68.417C31.078,66.98,26,64.537,26,61.774V49Z" transform="translate(-26 -49)" fill="#ffc729"/>
        </g>
        <g id="Grupo_993935" data-name="Grupo 993935" transform="translate(38.323 49.5)">
          <path id="Trazado_680467" data-name="Trazado 680467" d="M26,33c0,2.762,5.078,5.205,12.774,6.643V52.417C31.078,50.98,26,48.537,26,45.774V33Z" transform="translate(-26 -33)" fill="#ffc729"/>
        </g>
        <g id="Grupo_993936" data-name="Grupo 993936" transform="translate(83.032 62.274)">
          <path id="Trazado_680468" data-name="Trazado 680468" d="M66.774,41V53.774c0,2.762-5.03,5.19-12.678,6.627H54V47.643c7.7-1.437,12.774-3.88,12.774-6.643Z" transform="translate(-54 -41)" fill="#fcd770"/>
        </g>
        <g id="Grupo_993937" data-name="Grupo 993937" transform="translate(83.032 36.726)">
          <path id="Trazado_680469" data-name="Trazado 680469" d="M66.774,25V37.774c0,2.762-5.03,5.19-12.678,6.627H54V31.643c7.7-1.437,12.774-3.88,12.774-6.643Z" transform="translate(-54 -25)" fill="#fcd770"/>
        </g>
        <g id="Grupo_993938" data-name="Grupo 993938" transform="translate(38.323 62.274)">
          <path id="Trazado_680470" data-name="Trazado 680470" d="M38.774,47.643V60.417C31.078,58.98,26,56.537,26,53.774V41C26,43.762,31.078,46.205,38.774,47.643Z" transform="translate(-26 -41)" fill="#fcd770"/>
        </g>
        <g id="Grupo_993939" data-name="Grupo 993939" transform="translate(38.323 36.726)">
          <path id="Trazado_680471" data-name="Trazado 680471" d="M26,25c0,2.762,5.078,5.205,12.774,6.643V44.417C31.078,42.98,26,40.537,26,37.774V25Z" transform="translate(-26 -25)" fill="#fcd770"/>
        </g>
        <g id="Grupo_993940" data-name="Grupo 993940" transform="translate(38.323 29.812)">
          <path id="Trazado_680472" data-name="Trazado 680472" d="M69.177,20.67H40.307C31.748,22.059,26,24.63,26,27.584c0,2.762,5.078,5.205,12.774,6.643v51.1a89.433,89.433,0,0,0,15.968,1.341A89.433,89.433,0,0,0,70.71,85.323v-51.1c7.7-1.437,12.774-3.88,12.774-6.643,0-2.954-5.748-5.525-14.307-6.914Z" transform="translate(-26 -20.67)" fill="#ffeaa7"/>
        </g>
        <g id="Grupo_993941" data-name="Grupo 993941" transform="translate(57.484 63.871)">
          <path id="Trazado_680473" data-name="Trazado 680473" d="M38,64.355V45.194A3.2,3.2,0,0,1,41.194,42H53.968a3.2,3.2,0,0,1,3.194,3.194V64.355a3.2,3.2,0,0,1-3.194,3.194H41.194A3.2,3.2,0,0,1,38,64.355Z" transform="translate(-38 -42)" fill="#e6e9ed"/>
        </g>
        <g id="Grupo_993942" data-name="Grupo 993942" transform="translate(57.484 28.742)">
          <path id="Trazado_680474" data-name="Trazado 680474" d="M38,42.355V23.194a3.139,3.139,0,0,1,.814-2.124A3.2,3.2,0,0,1,41.194,20H53.968a3.2,3.2,0,0,1,2.379,1.07,3.139,3.139,0,0,1,.814,2.124V42.355a3.2,3.2,0,0,1-3.194,3.194H41.194A3.2,3.2,0,0,1,38,42.355Z" transform="translate(-38 -20)" fill="#e6e9ed"/>
        </g>
        <g id="Grupo_993943" data-name="Grupo 993943" transform="translate(57.484 0)">
          <path id="Trazado_680475" data-name="Trazado 680475" d="M38,17.968V5.194A3.2,3.2,0,0,1,41.194,2H53.968a3.2,3.2,0,0,1,3.194,3.194V17.968a3.2,3.2,0,0,1-3.194,3.194H41.194A3.2,3.2,0,0,1,38,17.968Z" transform="translate(-38 -2)" fill="#e6e9ed"/>
        </g>
        <g id="Grupo_993944" data-name="Grupo 993944" transform="translate(28.742 0)">
          <path id="Trazado_680476" data-name="Trazado 680476" d="M39.161,11.581v6.387a3.2,3.2,0,0,1-3.194,3.194H23.194A3.2,3.2,0,0,1,20,17.968V5.194A3.2,3.2,0,0,1,23.194,2H35.968a3.2,3.2,0,0,1,3.194,3.194Z" transform="translate(-20 -2)" fill="#e6e9ed"/>
        </g>
        <g id="Grupo_993945" data-name="Grupo 993945" transform="translate(0 0)">
          <path id="Trazado_680477" data-name="Trazado 680477" d="M21.161,11.581v6.387a3.2,3.2,0,0,1-3.194,3.194H5.194A3.2,3.2,0,0,1,2,17.968V5.194A3.2,3.2,0,0,1,5.194,2H17.968a3.2,3.2,0,0,1,3.194,3.194Z" transform="translate(-2 -2)" fill="#e6e9ed"/>
        </g>
      </g>
      <g id="Grupo_993947" data-name="Grupo 993947" transform="translate(1 1)">
        <path id="Trazado_680478" data-name="Trazado 680478" d="M23.355,18.565v-4.79h6.387v4.79a4.8,4.8,0,0,0,4.79,4.79H47.306a4.8,4.8,0,0,0,4.79-4.79v-4.79h6.387v4.79a4.8,4.8,0,0,0,4.79,4.79h4.79v6.387h-4.79a4.8,4.8,0,0,0-4.79,4.79V53.694a4.8,4.8,0,0,0,4.79,4.79h4.79v6.387h-4.79a4.8,4.8,0,0,0-4.79,4.79V88.823a4.8,4.8,0,0,0,4.79,4.79H76.048a4.8,4.8,0,0,0,4.79-4.79V69.661a4.8,4.8,0,0,0-4.79-4.79h-4.79V58.484h4.79a4.8,4.8,0,0,0,4.79-4.79V34.532a4.8,4.8,0,0,0-4.79-4.79h-4.79V23.355h4.79a4.8,4.8,0,0,0,4.79-4.79V5.79A4.8,4.8,0,0,0,76.048,1H63.274a4.8,4.8,0,0,0-4.79,4.79v4.79H52.1V5.79A4.8,4.8,0,0,0,47.306,1H34.532a4.8,4.8,0,0,0-4.79,4.79v4.79H23.355V5.79A4.8,4.8,0,0,0,18.565,1H5.79A4.8,4.8,0,0,0,1,5.79V18.565a4.8,4.8,0,0,0,4.79,4.79H18.565A4.8,4.8,0,0,0,23.355,18.565Zm54.29,51.1V88.823a1.6,1.6,0,0,1-1.6,1.6H63.274a1.6,1.6,0,0,1-1.6-1.6V69.661a1.6,1.6,0,0,1,1.6-1.6H76.048A1.6,1.6,0,0,1,77.645,69.661Zm0-35.129V53.694a1.6,1.6,0,0,1-1.6,1.6H63.274a1.6,1.6,0,0,1-1.6-1.6V34.532a1.6,1.6,0,0,1,1.6-1.6H76.048A1.6,1.6,0,0,1,77.645,34.532ZM61.677,5.79a1.6,1.6,0,0,1,1.6-1.6H76.048a1.6,1.6,0,0,1,1.6,1.6V18.565a1.6,1.6,0,0,1-1.6,1.6H63.274a1.6,1.6,0,0,1-1.6-1.6Zm-28.742,0a1.6,1.6,0,0,1,1.6-1.6H47.306a1.6,1.6,0,0,1,1.6,1.6V18.565a1.6,1.6,0,0,1-1.6,1.6H34.532a1.6,1.6,0,0,1-1.6-1.6ZM4.194,18.565V5.79a1.6,1.6,0,0,1,1.6-1.6H18.565a1.6,1.6,0,0,1,1.6,1.6V18.565a1.6,1.6,0,0,1-1.6,1.6H5.79A1.6,1.6,0,0,1,4.194,18.565Z" transform="translate(-1 -1)"/>
        <path id="Trazado_680479" data-name="Trazado 680479" d="M5,5h9.581V8.194H5Z" transform="translate(1.387 1.387)"/>
        <path id="Trazado_680480" data-name="Trazado 680480" d="M5,9h9.581v3.194H5Z" transform="translate(1.387 3.774)"/>
        <path id="Trazado_680481" data-name="Trazado 680481" d="M41,5h9.581V8.194H41Z" transform="translate(22.871 1.387)"/>
        <path id="Trazado_680482" data-name="Trazado 680482" d="M41,9h9.581v3.194H41Z" transform="translate(22.871 3.774)"/>
        <path id="Trazado_680483" data-name="Trazado 680483" d="M23,5h9.581V8.194H23Z" transform="translate(12.129 1.387)"/>
        <path id="Trazado_680484" data-name="Trazado 680484" d="M23,9h9.581v3.194H23Z" transform="translate(12.129 3.774)"/>
        <path id="Trazado_680485" data-name="Trazado 680485" d="M78.377,19.689l-.509,3.154c9.45,1.525,12.971,4.078,12.971,5.328,0,1.134-3.114,3.513-11.47,5.068l-1.3.243V84.558a87.534,87.534,0,0,1-14.371,1.1,87.339,87.339,0,0,1-14.371-1.1V33.482l-1.3-.243c-8.356-1.555-11.47-3.934-11.47-5.068,0-1.25,3.522-3.8,12.972-5.33l-.509-3.154c-5.847.945-15.656,3.3-15.656,8.484v3.194h-.682a4.837,4.837,0,0,0-4.688,3.674,1.679,1.679,0,0,1-2.48.995,4.824,4.824,0,0,0-5.881.735L16.4,39.99a4.833,4.833,0,0,0-.717,5.911,1.676,1.676,0,0,1-1.049,2.457A4.824,4.824,0,0,0,11,53.037v4.557a4.837,4.837,0,0,0,3.674,4.688,1.679,1.679,0,0,1,.995,2.48,4.822,4.822,0,0,0,.735,5.881l3.222,3.222a4.832,4.832,0,0,0,5.911.717,1.676,1.676,0,0,1,2.457,1.049,4.824,4.824,0,0,0,4.679,3.636h.682c0,6.29,15.262,9.581,30.339,9.581s30.339-3.291,30.339-9.581v-51.1c0-5.18-9.809-7.538-15.655-8.482ZM46.129,58.4c-6.932-1.539-9.581-3.637-9.581-4.682V45.531A30.718,30.718,0,0,0,46.129,48.9ZM33.355,59.812a4.762,4.762,0,0,1,0-8.993Zm0-12.319a7.984,7.984,0,0,0,0,15.645v3.227a11.162,11.162,0,0,1,0-22.1ZM36.548,58.3a30.774,30.774,0,0,0,9.581,3.368v9.5c-6.932-1.539-9.581-3.637-9.581-4.682Zm9.581-22.184v9.506c-6.932-1.539-9.581-3.637-9.581-4.682v-8.18A30.838,30.838,0,0,0,46.129,36.121ZM32.673,76.074a1.643,1.643,0,0,1-1.592-1.268,4.87,4.87,0,0,0-7.206-2.952,1.633,1.633,0,0,1-1.99-.249l-3.222-3.222a1.644,1.644,0,0,1-.23-2.023,4.87,4.87,0,0,0-3.008-7.184,1.627,1.627,0,0,1-1.231-1.581V53.037a1.644,1.644,0,0,1,1.266-1.592,4.87,4.87,0,0,0,2.954-7.206,1.631,1.631,0,0,1,.249-1.99l3.222-3.222a1.641,1.641,0,0,1,2.023-.23,4.87,4.87,0,0,0,7.184-3.008,1.627,1.627,0,0,1,1.581-1.231h.682v6.481a14.365,14.365,0,0,0,0,28.554v6.481Zm3.875,3.194v-8.19a30.732,30.732,0,0,0,9.581,3.366v9.482C39.865,82.509,36.548,80.538,36.548,79.267Zm44.71,4.659V74.445a30.714,30.714,0,0,0,9.581-3.369v8.191C90.839,80.538,87.522,82.509,81.258,83.927Zm0-12.752v-9.5A30.718,30.718,0,0,0,90.839,58.3v8.188C90.839,67.536,88.193,69.636,81.258,71.175Zm0-12.774V48.9a30.715,30.715,0,0,0,9.581-3.369v8.191C90.839,54.765,88.19,56.861,81.258,58.4Zm0-12.774V36.121a30.838,30.838,0,0,0,9.581-3.356v8.18C90.839,41.988,88.193,44.087,81.258,45.627Z" transform="translate(4.968 10.152)"/>
        <path id="Trazado_680486" data-name="Trazado 680486" d="M41,53h9.581v3.194H41Z" transform="translate(22.871 30.032)"/>
        <path id="Trazado_680487" data-name="Trazado 680487" d="M41,49h9.581v3.194H41Z" transform="translate(22.871 27.645)"/>
        <path id="Trazado_680488" data-name="Trazado 680488" d="M41,45h9.581v3.194H41Z" transform="translate(22.871 25.258)"/>
        <path id="Trazado_680489" data-name="Trazado 680489" d="M41,31h9.581v3.194H41Z" transform="translate(22.871 16.903)"/>
        <path id="Trazado_680490" data-name="Trazado 680490" d="M41,27h9.581v3.194H41Z" transform="translate(22.871 14.516)"/>
        <path id="Trazado_680491" data-name="Trazado 680491" d="M41,23h9.581v3.194H41Z" transform="translate(22.871 12.129)"/>
      </g>
    </g>
  </g>
</svg>
